  0
SECTION
  2
HEADER
  9
$ACADVER
  1
AC1015
  9
$ACADMAINTVER
 70
     6
  9
$DWGCODEPAGE
  3
ANSI_1252
  9
$INSBASE
 10
0.0
 20
0.0
 30
0.0
  9
$EXTMIN
 10
-200.0
 20
-5.0
 30
0.0
  9
$EXTMAX
 10
0.0
 20
35.0
 30
0.0
  9
$LIMMIN
 10
0.0
 20
0.0
  9
$LIMMAX
 10
420.0
 20
297.0
  9
$ORTHOMODE
 70
     0
  9
$REGENMODE
 70
     1
  9
$FILLMODE
 70
     1
  9
$QTEXTMODE
 70
     0
  9
$MIRRTEXT
 70
     1
  9
$LTSCALE
 40
1.0
  9
$ATTMODE
 70
     1
  9
$TEXTSIZE
 40
3.5
  9
$TRACEWID
 40
1.0
  9
$TEXTSTYLE
  7
Standard
  9
$CLAYER
  8
0
  9
$CELTYPE
  6
ByLayer
  9
$CECOLOR
 62
   256
  9
$CELTSCALE
 40
1.0
  9
$DISPSILH
 70
     0
  9
$DIMSCALE
 40
1.0
  9
$DIMASZ
 40
3.302
  9
$DIMEXO
 40
1.0
  9
$DIMDLI
 40
3.75
  9
$DIMRND
 40
0.0
  9
$DIMDLE
 40
0.0
  9
$DIMEXE
 40
1.0
  9
$DIMTP
 40
0.0
  9
$DIMTM
 40
0.0
  9
$DIMTXT
 40
3.5
  9
$DIMCEN
 40
2.5
  9
$DIMTSZ
 40
0.0
  9
$DIMTOL
 70
     0
  9
$DIMLIM
 70
     0
  9
$DIMTIH
 70
     1
  9
$DIMTOH
 70
     1
  9
$DIMSE1
 70
     0
  9
$DIMSE2
 70
     0
  9
$DIMTAD
 70
     1
  9
$DIMZIN
 70
     1
  9
$DIMBLK
  1

  9
$DIMASO
 70
     1
  9
$DIMSHO
 70
     1
  9
$DIMPOST
  1

  9
$DIMAPOST
  1

  9
$DIMALT
 70
     0
  9
$DIMALTD
 70
     3
  9
$DIMALTF
 40
0.0393700787
  9
$DIMLFAC
 40
1.0
  9
$DIMTOFL
 70
     1
  9
$DIMTVP
 40
0.0
  9
$DIMTIX
 70
     0
  9
$DIMSOXD
 70
     0
  9
$DIMSAH
 70
     0
  9
$DIMBLK1
  1

  9
$DIMBLK2
  1

  9
$DIMSTYLE
  2
ISO-25
  9
$DIMCLRD
 70
     0
  9
$DIMCLRE
 70
     0
  9
$DIMCLRT
 70
     0
  9
$DIMTFAC
 40
1.0
  9
$DIMGAP
 40
1.524
  9
$DIMJUST
 70
     0
  9
$DIMSD1
 70
     0
  9
$DIMSD2
 70
     0
  9
$DIMTOLJ
 70
     0
  9
$DIMTZIN
 70
     1
  9
$DIMALTZ
 70
     0
  9
$DIMALTTZ
 70
     0
  9
$DIMUPT
 70
     0
  9
$DIMDEC
 70
     2
  9
$DIMTDEC
 70
     2
  9
$DIMALTU
 70
     2
  9
$DIMALTTD
 70
     3
  9
$DIMTXSTY
  7
Standard
  9
$DIMAUNIT
 70
     0
  9
$DIMADEC
 70
     2
  9
$DIMALTRND
 40
0.0
  9
$DIMAZIN
 70
     0
  9
$DIMDSEP
 70
    44
  9
$DIMATFIT
 70
     3
  9
$DIMFRAC
 70
     0
  9
$DIMLDRBLK
  1

  9
$DIMLUNIT
 70
     2
  9
$DIMLWD
 70
    -2
  9
$DIMLWE
 70
    -2
  9
$DIMTMOVE
 70
     0
  9
$LUNITS
 70
     2
  9
$LUPREC
 70
     2
  9
$SKETCHINC
 40
1.0
  9
$FILLETRAD
 40
10.0
  9
$AUNITS
 70
     0
  9
$AUPREC
 70
     2
  9
$MENU
  1
.
  9
$ELEVATION
 40
0.0
  9
$PELEVATION
 40
0.0
  9
$THICKNESS
 40
0.0
  9
$LIMCHECK
 70
     0
  9
$CHAMFERA
 40
0.0
  9
$CHAMFERB
 40
0.0
  9
$CHAMFERC
 40
0.0
  9
$CHAMFERD
 40
0.0
  9
$SKPOLY
 70
     0
  9
$TDCREATE
 40
2459614.631920162
  9
$TDUCREATE
 40
2459614.590253495
  9
$TDUPDATE
 40
2459614.631947824
  9
$TDUUPDATE
 40
2459614.590281157
  9
$TDINDWG
 40
0.0000000116
  9
$TDUSRTIMER
 40
0.0000000116
  9
$USRTIMER
 70
     1
  9
$ANGBASE
 50
0.0
  9
$ANGDIR
 70
     0
  9
$PDMODE
 70
     0
  9
$PDSIZE
 40
-1.0
  9
$PLINEWID
 40
0.0
  9
$SPLFRAME
 70
     0
  9
$SPLINETYPE
 70
     6
  9
$SPLINESEGS
 70
     8
  9
$HANDSEED
  5
16D
  9
$SURFTAB1
 70
     6
  9
$SURFTAB2
 70
     6
  9
$SURFTYPE
 70
     6
  9
$SURFU
 70
     6
  9
$SURFV
 70
     6
  9
$UCSBASE
  2

  9
$UCSNAME
  2

  9
$UCSORG
 10
0.0
 20
0.0
 30
0.0
  9
$UCSXDIR
 10
1.0
 20
0.0
 30
0.0
  9
$UCSYDIR
 10
0.0
 20
1.0
 30
0.0
  9
$UCSORTHOREF
  2

  9
$UCSORTHOVIEW
 70
     0
  9
$UCSORGTOP
 10
0.0
 20
0.0
 30
0.0
  9
$UCSORGBOTTOM
 10
0.0
 20
0.0
 30
0.0
  9
$UCSORGLEFT
 10
0.0
 20
0.0
 30
0.0
  9
$UCSORGRIGHT
 10
0.0
 20
0.0
 30
0.0
  9
$UCSORGFRONT
 10
0.0
 20
0.0
 30
0.0
  9
$UCSORGBACK
 10
0.0
 20
0.0
 30
0.0
  9
$PUCSBASE
  2

  9
$PUCSNAME
  2

  9
$PUCSORG
 10
0.0
 20
0.0
 30
0.0
  9
$PUCSXDIR
 10
1.0
 20
0.0
 30
0.0
  9
$PUCSYDIR
 10
0.0
 20
1.0
 30
0.0
  9
$PUCSORTHOREF
  2

  9
$PUCSORTHOVIEW
 70
     0
  9
$PUCSORGTOP
 10
0.0
 20
0.0
 30
0.0
  9
$PUCSORGBOTTOM
 10
0.0
 20
0.0
 30
0.0
  9
$PUCSORGLEFT
 10
0.0
 20
0.0
 30
0.0
  9
$PUCSORGRIGHT
 10
0.0
 20
0.0
 30
0.0
  9
$PUCSORGFRONT
 10
0.0
 20
0.0
 30
0.0
  9
$PUCSORGBACK
 10
0.0
 20
0.0
 30
0.0
  9
$USERI1
 70
     0
  9
$USERI2
 70
     0
  9
$USERI3
 70
     0
  9
$USERI4
 70
     0
  9
$USERI5
 70
     0
  9
$USERR1
 40
0.0
  9
$USERR2
 40
0.0
  9
$USERR3
 40
0.0
  9
$USERR4
 40
0.0
  9
$USERR5
 40
0.0
  9
$WORLDVIEW
 70
     1
  9
$SHADEDGE
 70
     3
  9
$SHADEDIF
 70
    70
  9
$TILEMODE
 70
     1
  9
$MAXACTVP
 70
    64
  9
$PINSBASE
 10
0.0
 20
0.0
 30
0.0
  9
$PLIMCHECK
 70
     0
  9
$PEXTMIN
 10
1.0000000000E+20
 20
1.0000000000E+20
 30
1.0000000000E+20
  9
$PEXTMAX
 10
-1.0000000000E+20
 20
-1.0000000000E+20
 30
-1.0000000000E+20
  9
$PLIMMIN
 10
0.0
 20
0.0
  9
$PLIMMAX
 10
420.0
 20
297.0
  9
$UNITMODE
 70
     0
  9
$VISRETAIN
 70
     1
  9
$PLINEGEN
 70
     0
  9
$PSLTSCALE
 70
     1
  9
$TREEDEPTH
 70
  3020
  9
$CMLSTYLE
  2
Standard
  9
$CMLJUST
 70
     0
  9
$CMLSCALE
 40
20.0
  9
$PROXYGRAPHICS
 70
     1
  9
$MEASUREMENT
 70
     1
  9
$CELWEIGHT
370
    -1
  9
$ENDCAPS
280
     0
  9
$JOINSTYLE
280
     0
  9
$LWDISPLAY
290
     1
  9
$INSUNITS
 70
     4
  9
$HYPERLINKBASE
  1

  9
$STYLESHEET
  1

  9
$XEDIT
290
     1
  9
$CEPSNTYPE
380
     0
  9
$PSTYLEMODE
290
     1
  9
$FINGERPRINTGUID
  2
{4801CEC9-07DF-4DF1-A375-8D3FB37B01EE}
  9
$VERSIONGUID
  2
{FAEB1C32-E019-11D5-929B-00C0DF256EC4}
  9
$EXTNAMES
290
     1
  9
$PSVPSCALE
 40
0.0
  9
$OLESTARTUP
290
     0
  0
ENDSEC
  0
SECTION
  2
CLASSES
  0
CLASS
  1
ACDBDICTIONARYWDFLT
  2
AcDbDictionaryWithDefault
  3
ObjectDBX Classes
 90
        0
280
     0
281
     0
  0
CLASS
  1
VISUALSTYLE
  2
AcDbVisualStyle
  3
ObjectDBX Classes
 90
     4095
280
     0
281
     0
  0
CLASS
  1
MATERIAL
  2
AcDbMaterial
  3
ObjectDBX Classes
 90
     1153
280
     0
281
     0
  0
CLASS
  1
SCALE
  2
AcDbScale
  3
ObjectDBX Classes
 90
     1153
280
     0
281
     0
  0
CLASS
  1
TABLESTYLE
  2
AcDbTableStyle
  3
ObjectDBX Classes
 90
     4095
280
     0
281
     0
  0
CLASS
  1
MLEADERSTYLE
  2
AcDbMLeaderStyle
  3
ACDB_MLEADERSTYLE_CLASS
 90
     4095
280
     0
281
     0
  0
CLASS
  1
SUN
  2
AcDbSun
  3
SCENEOE
 90
     1153
280
     0
281
     0
  0
CLASS
  1
ACDBPLACEHOLDER
  2
AcDbPlaceHolder
  3
ObjectDBX Classes
 90
        0
280
     0
281
     0
  0
CLASS
  1
LAYOUT
  2
AcDbLayout
  3
ObjectDBX Classes
 90
        0
280
     0
281
     0
  0
ENDSEC
  0
SECTION
  2
TABLES
  0
TABLE
  2
VPORT
  5
8
330
0
100
AcDbSymbolTable
 70
     1
  0
VPORT
  5
29
330
8
100
AcDbSymbolTableRecord
100
AcDbViewportTableRecord
  2
*Active
 70
     0
 10
0.0
 20
0.0
 11
1.0
 21
1.0
 12
-100.0
 22
15.0
 13
0.0
 23
0.0
 14
10.0
 24
10.0
 15
10.0
 25
10.0
 16
0.0
 26
0.0
 36
1.0
 17
0.0
 27
0.0
 37
0.0
 40
40.8
 41
5.0
 42
50.0
 43
0.0
 44
0.0
 50
0.0
 51
0.0
 71
     0
 72
   100
 73
     1
 74
     3
 75
     0
 76
     0
 77
     0
 78
     0
281
     0
 65
     1
110
0.0
120
0.0
130
0.0
111
1.0
121
0.0
131
0.0
112
0.0
122
1.0
132
0.0
 79
     0
146
0.0
  0
ENDTAB
  0
TABLE
  2
LTYPE
  5
5
330
0
100
AcDbSymbolTable
 70
     6
  0
LTYPE
  5
14
330
5
100
AcDbSymbolTableRecord
100
AcDbLinetypeTableRecord
  2
ByBlock
 70
     0
  3

 72
    65
 73
     0
 40
0.0
  0
LTYPE
  5
15
330
5
100
AcDbSymbolTableRecord
100
AcDbLinetypeTableRecord
  2
ByLayer
 70
     0
  3

 72
    65
 73
     0
 40
0.0
  0
LTYPE
  5
16
330
5
100
AcDbSymbolTableRecord
100
AcDbLinetypeTableRecord
  2
Continuous
 70
     0
  3
Solid line
 72
    65
 73
     0
 40
0.0
  0
LTYPE
  5
6E
330
5
100
AcDbSymbolTableRecord
100
AcDbLinetypeTableRecord
  2
HIDDEN
 70
     0
  3
Hidden __ __ __ __ __ __ __ __ __ __ __ __ __ __
 72
    65
 73
     2
 40
1.905
 49
1.27
 74
     0
 49
-0.635
 74
     0
  0
LTYPE
  5
6F
330
5
100
AcDbSymbolTableRecord
100
AcDbLinetypeTableRecord
  2
PHANTOM
 70
     0
  3
Phantom ______  __  __  ______  __  __  ______
 72
    65
 73
     6
 40
12.7
 49
6.35
 74
     0
 49
-1.27
 74
     0
 49
1.27
 74
     0
 49
-1.27
 74
     0
 49
1.27
 74
     0
 49
-1.27
 74
     0
  0
LTYPE
  5
70
330
5
100
AcDbSymbolTableRecord
100
AcDbLinetypeTableRecord
  2
CENTER
 70
     0
  3
Center ____ _ ____ _ ____ _ ____ _ ____ _ ____
 72
    65
 73
     4
 40
10.16
 49
6.35
 74
     0
 49
-1.27
 74
     0
 49
1.27
 74
     0
 49
-1.27
 74
     0
  0
LTYPE
  5
71
330
5
100
AcDbSymbolTableRecord
100
AcDbLinetypeTableRecord
  2
CENTERX2
 70
     0
  3
Center (2x) ________  __  ________  __  _____
 72
    65
 73
     4
 40
20.32
 49
12.7
 74
     0
 49
-2.54
 74
     0
 49
2.54
 74
     0
 49
-2.54
 74
     0
  0
LTYPE
  5
72
330
5
100
AcDbSymbolTableRecord
100
AcDbLinetypeTableRecord
  2
DOT2
 70
     0
  3
Dot (.5x) ........................................
 72
    65
 73
     2
 40
0.635
 49
0.0
 74
     0
 49
-0.635
 74
     0
  0
ENDTAB
  0
TABLE
  2
LAYER
  5
2
330
0
100
AcDbSymbolTable
 70
     1
  0
LAYER
  5
10
330
2
100
AcDbSymbolTableRecord
100
AcDbLayerTableRecord
  2
0
 70
     0
 62
     7
  6
Continuous
370
    -3
390
F
  0
ENDTAB
  0
TABLE
  2
STYLE
  5
3
330
0
100
AcDbSymbolTable
 70
     1
  0
STYLE
  5
11
330
3
100
AcDbSymbolTableRecord
100
AcDbTextStyleTableRecord
  2
Standard
 70
     0
 40
0.0
 41
1.0
 50
0.0
 71
     0
 42
3.5
  3
txt
  4

  0
ENDTAB
  0
TABLE
  2
VIEW
  5
6
330
0
100
AcDbSymbolTable
 70
     0
  0
ENDTAB
  0
TABLE
  2
UCS
  5
7
330
0
100
AcDbSymbolTable
 70
     0
  0
ENDTAB
  0
TABLE
  2
APPID
  5
9
330
0
100
AcDbSymbolTable
 70
     1
  0
APPID
  5
12
330
9
100
AcDbSymbolTableRecord
100
AcDbRegAppTableRecord
  2
ACAD
 70
     0
  0
ENDTAB
  0
TABLE
  2
DIMSTYLE
  5
A
330
0
100
AcDbSymbolTable
 70
     1
100
AcDbDimStyleTable
  0
DIMSTYLE
105
27
330
A
100
AcDbSymbolTableRecord
100
AcDbDimStyleTableRecord
  2
ISO-25
 70
     0
 41
2.5
 42
0.625
 43
3.75
 44
1.25
 73
     0
 74
     0
 77
     1
 78
     8
140
2.5
141
2.5
143
0.0393700787
147
0.625
171
     3
172
     1
178
     0
271
     2
272
     2
274
     3
278
    44
283
     0
284
     8
340
11
  0
ENDTAB
  0
TABLE
  2
BLOCK_RECORD
  5
1
330
0
100
AcDbSymbolTable
 70
     1
  0
BLOCK_RECORD
  5
1F
330
1
100
AcDbSymbolTableRecord
100
AcDbBlockTableRecord
  2
*Model_Space
340
22
  0
BLOCK_RECORD
  5
1B
330
1
100
AcDbSymbolTableRecord
100
AcDbBlockTableRecord
  2
*Paper_Space
340
1E
  0
BLOCK_RECORD
  5
23
330
1
100
AcDbSymbolTableRecord
100
AcDbBlockTableRecord
  2
*Paper_Space0
340
26
  0
ENDTAB
  0
ENDSEC
  0
SECTION
  2
BLOCKS
  0
BLOCK
  5
20
330
1F
100
AcDbEntity
  8
0
100
AcDbBlockBegin
  2
*Model_Space
 70
     0
 10
0.0
 20
0.0
 30
0.0
  3
*Model_Space
  1

  0
ENDBLK
  5
21
330
1F
100
AcDbEntity
  8
0
100
AcDbBlockEnd
  0
BLOCK
  5
1C
330
1B
100
AcDbEntity
 67
     1
  8
0
100
AcDbBlockBegin
  2
*Paper_Space
 70
     0
 10
0.0
 20
0.0
 30
0.0
  3
*Paper_Space
  1

  0
ENDBLK
  5
1D
330
1B
100
AcDbEntity
 67
     1
  8
0
100
AcDbBlockEnd
  0
BLOCK
  5
24
330
23
100
AcDbEntity
  8
0
100
AcDbBlockBegin
  2
*Paper_Space0
 70
     0
 10
0.0
 20
0.0
 30
0.0
  3
*Paper_Space0
  1

  0
ENDBLK
  5
25
330
23
100
AcDbEntity
  8
0
100
AcDbBlockEnd
  0
ENDSEC
  0
SECTION
  2
ENTITIES
  0
LINE
  5
73
330
1F
100
AcDbEntity
  8
0
  6
Continuous
 62
     7
370
    25
100
AcDbLine
 10
-167.6519230769
 20
8.4375121318
 30
0.0
 11
-172.7807692308
 21
8.4375121318
 31
0.0
  0
LINE
  5
74
330
1F
100
AcDbEntity
  8
0
  6
Continuous
 62
     7
370
    25
100
AcDbLine
 10
-172.7807692308
 20
8.4375121318
 30
0.0
 11
-172.7807692308
 21
17.9625121318
 31
0.0
  0
LINE
  5
75
330
1F
100
AcDbEntity
  8
0
  6
Continuous
 62
     7
370
    25
100
AcDbLine
 10
-172.7807692308
 20
17.9625121318
 30
0.0
 11
-167.6519230769
 21
17.9625121318
 31
0.0
  0
LINE
  5
76
330
1F
100
AcDbEntity
  8
0
  6
Continuous
 62
     7
370
    25
100
AcDbLine
 10
-167.6519230769
 20
17.9625121318
 30
0.0
 11
-167.6519230769
 21
16.2528967472
 31
0.0
  0
LINE
  5
77
330
1F
100
AcDbEntity
  8
0
  6
Continuous
 62
     7
370
    25
100
AcDbLine
 10
-167.6519230769
 20
16.2528967472
 30
0.0
 11
-171.0711538462
 21
16.2528967472
 31
0.0
  0
LINE
  5
78
330
1F
100
AcDbEntity
  8
0
  6
Continuous
 62
     7
370
    25
100
AcDbLine
 10
-171.0711538462
 20
16.2528967472
 30
0.0
 11
-171.0711538462
 21
14.421165978
 31
0.0
  0
LINE
  5
79
330
1F
100
AcDbEntity
  8
0
  6
Continuous
 62
     7
370
    25
100
AcDbLine
 10
-171.0711538462
 20
14.421165978
 30
0.0
 11
-167.6519230769
 21
14.421165978
 31
0.0
  0
LINE
  5
7A
330
1F
100
AcDbEntity
  8
0
  6
Continuous
 62
     7
370
    25
100
AcDbLine
 10
-167.6519230769
 20
14.421165978
 30
0.0
 11
-167.6519230769
 21
12.7115505934
 31
0.0
  0
LINE
  5
7B
330
1F
100
AcDbEntity
  8
0
  6
Continuous
 62
     7
370
    25
100
AcDbLine
 10
-167.6519230769
 20
12.7115505934
 30
0.0
 11
-171.0711538462
 21
12.7115505934
 31
0.0
  0
LINE
  5
7C
330
1F
100
AcDbEntity
  8
0
  6
Continuous
 62
     7
370
    25
100
AcDbLine
 10
-171.0711538462
 20
12.7115505934
 30
0.0
 11
-171.0711538462
 21
10.1471275164
 31
0.0
  0
LINE
  5
7D
330
1F
100
AcDbEntity
  8
0
  6
Continuous
 62
     7
370
    25
100
AcDbLine
 10
-171.0711538462
 20
10.1471275164
 30
0.0
 11
-167.6519230769
 21
10.1471275164
 31
0.0
  0
LINE
  5
7E
330
1F
100
AcDbEntity
  8
0
  6
Continuous
 62
     7
370
    25
100
AcDbLine
 10
-167.6519230769
 20
10.1471275164
 30
0.0
 11
-167.6519230769
 21
8.4375121318
 31
0.0
  0
LINE
  5
7F
330
1F
100
AcDbEntity
  8
0
  6
Continuous
 62
     7
370
    25
100
AcDbLine
 10
-164.2326923077
 20
8.4375121318
 30
0.0
 11
-165.9423076923
 21
8.4375121318
 31
0.0
  0
LINE
  5
80
330
1F
100
AcDbEntity
  8
0
  6
Continuous
 62
     7
370
    25
100
AcDbLine
 10
-165.9423076923
 20
8.4375121318
 30
0.0
 11
-165.9423076923
 21
17.9625121318
 31
0.0
  0
LINE
  5
81
330
1F
100
AcDbEntity
  8
0
  6
Continuous
 62
     7
370
    25
100
AcDbLine
 10
-165.9423076923
 20
17.9625121318
 30
0.0
 11
-163.9503004808
 21
17.9625121318
 31
0.0
  0
SPLINE
  5
82
330
1F
100
AcDbEntity
  8
0
  6
Continuous
 62
     7
370
    25
100
AcDbSpline
210
0.0
220
0.0
230
1.0
 70
     8
 71
     3
 72
    31
 73
    27
 74
     0
 42
0.000000001
 43
0.00000001
 40
0.0
 40
0.0
 40
0.0
 40
0.0
 40
0.0728890266200379
 40
0.140186129944494
 40
0.2022774341249582
 40
0.2588951317514614
 40
0.3104829424654814
 40
0.3570952441313365
 40
0.3985135666534658
 40
0.4350375108701157
 40
0.4692514858292881
 40
0.5028050278902769
 40
0.536210446318562
 40
0.5693793599392047
 40
0.6028014750483953
 40
0.636665798336778
 40
0.670928656894045
 40
0.7058030002293129
 40
0.741189061245879
 40
0.7763043110764617
 40
0.8120043009129361
 40
0.8479689758088955
 40
0.8845217611964795
 40
0.9219741585442056
 40
0.9601981758096079
 40
1.0
 40
1.0
 40
1.0
 40
1.0
 10
-163.9503004807692
 20
17.9625121318196
 30
0.0
 10
-163.8186294104461
 20
17.96204477508828
 30
0.0
 10
-163.5653888524335
 20
17.96114591644652
 30
0.0
 10
-163.2002297995482
 20
17.94696430802471
 30
0.0
 10
-162.8647809919086
 20
17.92722943592504
 30
0.0
 10
-162.5585457672136
 20
17.89711349730269
 30
0.0
 10
-162.281655137939
 20
17.85718340300414
 30
0.0
 10
-162.033831594957
 20
17.81011242938274
 30
0.0
 10
-161.8150823819052
 20
17.75646496320725
 30
0.0
 10
-161.6235626512817
 20
17.68961598769974
 30
0.0
 10
-161.450725564855
 20
17.61421135681578
 30
0.0
 10
-161.2896173713458
 20
17.52757005326435
 30
0.0
 10
-161.1366837844299
 20
17.43065685536125
 30
0.0
 10
-160.9929469999628
 20
17.32092171454529
 30
0.0
 10
-160.8571579114933
 20
17.20033873896543
 30
0.0
 10
-160.7290603447649
 20
17.06878655001656
 30
0.0
 10
-160.6104644371261
 20
16.92514963931862
 30
0.0
 10
-160.5021045392508
 20
16.77033560986859
 30
0.0
 10
-160.4033432147461
 20
16.60747480098604
 30
0.0
 10
-160.3160589176929
 20
16.4363436037174
 30
0.0
 10
-160.2450791822533
 20
16.25682300771301
 30
0.0
 10
-160.1823609771335
 20
16.07150747369935
 30
0.0
 10
-160.1371870858398
 20
15.87774787976122
 30
0.0
 10
-160.1057693052817
 20
15.6774305082531
 30
0.0
 10
-160.0827664354225
 20
15.469850220759
 30
0.0
 10
-160.0814438803776
 20
15.32882938989471
 30
0.0
 10
-160.0807692307692
 20
15.25689314143498
 30
0.0
  0
SPLINE
  5
83
330
1F
100
AcDbEntity
  8
0
  6
Continuous
 62
     7
370
    25
100
AcDbSpline
210
0.0
220
0.0
230
1.0
 70
     8
 71
     3
 72
    23
 73
    19
 74
     0
 42
0.000000001
 43
0.00000001
 40
0.0
 40
0.0
 40
0.0
 40
0.0
 40
0.0687412630793655
 40
0.1347890881950338
 40
0.1985360495606902
 40
0.2603856506059208
 40
0.3209615782321962
 40
0.379903849584147
 40
0.4385029357752662
 40
0.4961543439762678
 40
0.5542654832085
 40
0.6127487608156913
 40
0.6725134425261782
 40
0.7336464018979694
 40
0.7967896194814545
 40
0.8619356990410236
 40
0.9293977347748984
 40
0.9999999999999999
 40
0.9999999999999999
 40
0.9999999999999999
 40
0.9999999999999999
 10
-160.0807692307692
 20
15.25689314143498
 30
0.0
 10
-160.0825217278388
 20
15.18180822341732
 30
0.0
 10
-160.0859580551841
 20
15.03458038407553
 30
0.0
 10
-160.1044679837041
 20
14.81831469592132
 30
0.0
 10
-160.1382983184908
 20
14.61140681262713
 30
0.0
 10
-160.1895392821943
 20
14.4144625350199
 30
0.0
 10
-160.2484341143499
 20
14.22503066196459
 30
0.0
 10
-160.3267491337442
 20
14.04660632997393
 30
0.0
 10
-160.4151353735229
 20
13.87659461562837
 30
0.0
 10
-160.5201091281344
 20
13.71740039906508
 30
0.0
 10
-160.6353126955022
 20
13.56548765867987
 30
0.0
 10
-160.7692920209773
 20
13.42667673512477
 30
0.0
 10
-160.9133673022501
 20
13.29350706685093
 30
0.0
 10
-161.0756375355938
 20
13.17431995007699
 30
0.0
 10
-161.2489496983843
 20
13.06105638265373
 30
0.0
 10
-161.436747320952
 20
12.95840942733112
 30
0.0
 10
-161.6378047716061
 20
12.86379877600115
 30
0.0
 10
-161.7791581164075
 20
12.81103734144384
 30
0.0
 10
-161.8514423076923
 20
12.78405660297344
 30
0.0
  0
LINE
  5
84
330
1F
100
AcDbEntity
  8
0
  6
Continuous
 62
     7
370
    25
100
AcDbLine
 10
-161.8514423077
 20
12.784056603
 30
0.0
 11
-159.6533653846
 21
8.4375121318
 31
0.0
  0
LINE
  5
85
330
1F
100
AcDbEntity
  8
0
  6
Continuous
 62
     7
370
    25
100
AcDbLine
 10
-159.6533653846
 20
8.4375121318
 30
0.0
 11
-161.5537860577
 21
8.4375121318
 31
0.0
  0
LINE
  5
86
330
1F
100
AcDbEntity
  8
0
  6
Continuous
 62
     7
370
    25
100
AcDbLine
 10
-161.5537860577
 20
8.4375121318
 30
0.0
 11
-163.6526442308
 21
12.5894352087
 31
0.0
  0
LINE
  5
87
330
1F
100
AcDbEntity
  8
0
  6
Continuous
 62
     7
370
    25
100
AcDbLine
 10
-163.6526442308
 20
12.5894352087
 30
0.0
 11
-164.2326923077
 21
12.5894352087
 31
0.0
  0
LINE
  5
88
330
1F
100
AcDbEntity
  8
0
  6
Continuous
 62
     7
370
    25
100
AcDbLine
 10
-164.2326923077
 20
12.5894352087
 30
0.0
 11
-164.2326923077
 21
8.4375121318
 31
0.0
  0
SPLINE
  5
89
330
1F
100
AcDbEntity
  8
0
  6
Continuous
 62
     7
370
    25
100
AcDbSpline
210
0.0
220
0.0
230
1.0
 70
     8
 71
     3
 72
    23
 73
    19
 74
     0
 42
0.000000001
 43
0.00000001
 40
0.0
 40
0.0
 40
0.0
 40
0.0
 40
0.0802588853381379
 40
0.1583905883453957
 40
0.2362576248303805
 40
0.3151047653520858
 40
0.393221678624598
 40
0.4687312831158791
 40
0.5427812639155817
 40
0.6177081693395556
 40
0.6563652025204919
 40
0.6970796727899478
 40
0.7406969496811668
 40
0.7867286654533157
 40
0.8355790921841494
 40
0.8872495053564294
 40
0.9418976668361579
 40
1.0
 40
1.0
 40
1.0
 40
1.0
 10
-141.1528846153846
 20
11.19464855008883
 30
0.0
 10
-141.1582517742292
 20
11.06455647508095
 30
0.0
 10
-141.1688438406845
 20
10.80782028677284
 30
0.0
 10
-141.2462878622455
 20
10.43087259886556
 30
0.0
 10
-141.3805511880128
 20
10.07349200159975
 30
0.0
 10
-141.5608391485077
 20
9.737098878462223
 30
0.0
 10
-141.7829886036417
 20
9.431431258091724
 30
0.0
 10
-142.0383967716901
 20
9.163669076355669
 30
0.0
 10
-142.3244922782164
 20
8.937014333891092
 30
0.0
 10
-142.5884499622464
 20
8.784039966020309
 30
0.0
 10
-142.8167525720433
 20
8.68137986021207
 30
0.0
 10
-143.0058513582073
 20
8.617908908936883
 30
0.0
 10
-143.2089394463046
 20
8.55910951559194
 30
0.0
 10
-143.4297369223496
 20
8.517819367500111
 30
0.0
 10
-143.6642410292163
 20
8.480026083606688
 30
0.0
 10
-143.914738196775
 20
8.456691727297125
 30
0.0
 10
-144.1807602503445
 20
8.440878608976005
 30
0.0
 10
-144.3634756960189
 20
8.438656977824431
 30
0.0
 10
-144.4576322115385
 20
8.437512131819599
 30
0.0
  0
LINE
  5
8A
330
1F
100
AcDbEntity
  8
0
  6
Continuous
 62
     7
370
    25
100
AcDbLine
 10
-144.4576322115
 20
8.4375121318
 30
0.0
 11
-147.1365384615
 21
8.4375121318
 31
0.0
  0
LINE
  5
8B
330
1F
100
AcDbEntity
  8
0
  6
Continuous
 62
     7
370
    25
100
AcDbLine
 10
-147.1365384615
 20
8.4375121318
 30
0.0
 11
-147.1365384615
 21
17.9625121318
 31
0.0
  0
LINE
  5
8C
330
1F
100
AcDbEntity
  8
0
  6
Continuous
 62
     7
370
    25
100
AcDbLine
 10
-147.1365384615
 20
17.9625121318
 30
0.0
 11
-145.6100961538
 21
17.9625121318
 31
0.0
  0
SPLINE
  5
8D
330
1F
100
AcDbEntity
  8
0
  6
Continuous
 62
     7
370
    25
100
AcDbSpline
210
0.0
220
0.0
230
1.0
 70
     8
 71
     3
 72
    15
 73
    11
 74
     0
 42
0.000000001
 43
0.00000001
 40
0.0
 40
0.0
 40
0.0
 40
0.0
 40
0.1639957318060731
 40
0.3173286319587126
 40
0.4580598946275403
 40
0.5891583945858953
 40
0.7079520097452991
 40
0.81632199987545
 40
0.9135847296003152
 40
1.0
 40
1.0
 40
1.0
 40
1.0
 10
-145.6100961538461
 20
17.9625121318196
 30
0.0
 10
-145.5032356478862
 20
17.96252432724797
 30
0.0
 10
-145.296462594751
 20
17.96254792517065
 30
0.0
 10
-144.9981430419597
 20
17.95207192189557
 30
0.0
 10
-144.7214768505931
 20
17.93852003804952
 30
0.0
 10
-144.4673444796996
 20
17.92335863142477
 30
0.0
 10
-144.2353133783823
 20
17.89723249857856
 30
0.0
 10
-144.0257363877722
 20
17.86969840836634
 30
0.0
 10
-143.8381947717739
 20
17.83649399265972
 30
0.0
 10
-143.7222479815266
 20
17.806708603027
 30
0.0
 10
-143.6676983173077
 20
17.79269542508883
 30
0.0
  0
SPLINE
  5
8E
330
1F
100
AcDbEntity
  8
0
  6
Continuous
 62
     7
370
    25
100
AcDbSpline
210
0.0
220
0.0
230
1.0
 70
     8
 71
     3
 72
    23
 73
    19
 74
     0
 42
0.000000001
 43
0.00000001
 40
0.0
 40
0.0
 40
0.0
 40
0.0
 40
0.0687497663152779
 40
0.1349091121452217
 40
0.1997210700545253
 40
0.2629736746369434
 40
0.325357023349041
 40
0.3873361409887325
 40
0.4494074874297856
 40
0.5111175193516582
 40
0.5724725853513708
 40
0.633077171967722
 40
0.6928610080890986
 40
0.7525606967546137
 40
0.8127375856307912
 40
0.8734793127278777
 40
0.9357764600655786
 40
1.0
 40
1.0
 40
1.0
 40
1.0
 10
-143.6676983173077
 20
17.79269542508883
 30
0.0
 10
-143.5960690697725
 20
17.77292958800181
 30
0.0
 10
-143.4555094910781
 20
17.73414267023995
 30
0.0
 10
-143.2541833187039
 20
17.65581081356432
 30
0.0
 10
-143.0631973607673
 20
17.56873940119404
 30
0.0
 10
-142.8827848058893
 20
17.4694072046258
 30
0.0
 10
-142.7140534590315
 20
17.35661500591091
 30
0.0
 10
-142.5576445567827
 20
17.22946765221389
 30
0.0
 10
-142.4101847461421
 20
17.09306883284805
 30
0.0
 10
-142.2769099883392
 20
16.94361715141061
 30
0.0
 10
-142.1564515659422
 20
16.78569376561835
 30
0.0
 10
-142.0517947940412
 20
16.61934005570272
 30
0.0
 10
-141.9608614730929
 20
16.44709967847974
 30
0.0
 10
-141.8880909979962
 20
16.26680510332269
 30
0.0
 10
-141.8332598121523
 20
16.07928663553212
 30
0.0
 10
-141.7931565115846
 20
15.88534500799005
 30
0.0
 10
-141.7671641423424
 20
15.68436654165131
 30
0.0
 10
-141.7647082043852
 20
15.54763432207351
 30
0.0
 10
-141.7634615384615
 20
15.47822727605037
 30
0.0
  0
SPLINE
  5
8F
330
1F
100
AcDbEntity
  8
0
  6
Continuous
 62
     7
370
    25
100
AcDbSpline
210
0.0
220
0.0
230
1.0
 70
     8
 71
     3
 72
    15
 73
    11
 74
     0
 42
0.000000001
 43
0.00000001
 40
0.0
 40
0.0
 40
0.0
 40
0.0
 40
0.1232695606004618
 40
0.2426409842839862
 40
0.3594273839391168
 40
0.4755502191345266
 40
0.5938976740482458
 40
0.7202015971643269
 40
0.8544653148776583
 40
1.0
 40
1.0
 40
1.0
 40
1.0
 10
-141.7634615384615
 20
15.47822727605037
 30
0.0
 10
-141.7667211995181
 20
15.38905744015284
 30
0.0
 10
-141.7731374418032
 20
15.21353757421656
 30
0.0
 10
-141.8141248344785
 20
14.95573064640624
 30
0.0
 10
-141.8909825817986
 20
14.71206604417701
 30
0.0
 10
-141.9915490748883
 20
14.47805312082733
 30
0.0
 10
-142.128288064151
 20
14.25456474625793
 30
0.0
 10
-142.3019201349226
 20
14.04170718298505
 30
0.0
 10
-142.509633016384
 20
13.83292622752753
 30
0.0
 10
-142.6689602628846
 20
13.7077761277551
 30
0.0
 10
-142.7518329326923
 20
13.64268040105037
 30
0.0
  0
SPLINE
  5
90
330
1F
100
AcDbEntity
  8
0
  6
Continuous
 62
     7
370
    25
100
AcDbSpline
210
0.0
220
0.0
230
1.0
 70
     8
 71
     3
 72
    23
 73
    19
 74
     0
 42
0.000000001
 43
0.00000001
 40
0.0
 40
0.0
 40
0.0
 40
0.0
 40
0.0727911822673708
 40
0.1427233695565058
 40
0.2094912699928575
 40
0.2747163184918631
 40
0.3368863886768225
 40
0.3976856020239898
 40
0.4570537497761156
 40
0.5153125941662601
 40
0.5728222022221214
 40
0.6307760073985084
 40
0.6895054947089513
 40
0.7487432781628017
 40
0.8092253247292975
 40
0.8707153202239953
 40
0.9342652493244623
 40
1.0
 40
1.0
 40
1.0
 40
1.0
 10
-142.7518329326923
 20
13.64268040105037
 30
0.0
 10
-142.6846768967991
 20
13.6083978271081
 30
0.0
 10
-142.553002490227
 20
13.54117918444149
 30
0.0
 10
-142.3660635166054
 20
13.43069180182347
 30
0.0
 10
-142.1929784330138
 20
13.31317445768042
 30
0.0
 10
-142.0329711784249
 20
13.19099164824249
 30
0.0
 10
-141.8893980881197
 20
13.05896386716754
 30
0.0
 10
-141.7563307881435
 20
12.92469873651133
 30
0.0
 10
-141.6403341284051
 20
12.78050342265953
 30
0.0
 10
-141.53660641919
 20
12.6315173211837
 30
0.0
 10
-141.4464479802884
 20
12.47558309606422
 30
0.0
 10
-141.3679299218372
 20
12.31296408507147
 30
0.0
 10
-141.3016085343252
 20
12.14310474626956
 30
0.0
 10
-141.2454458680035
 20
11.9668695261666
 30
0.0
 10
-141.2035597365697
 20
11.78365225805863
 30
0.0
 10
-141.1762490881395
 20
11.59338741583272
 30
0.0
 10
-141.1553383486097
 20
11.39672389935312
 30
0.0
 10
-141.1537116895967
 20
11.26276162308266
 30
0.0
 10
-141.1528846153846
 20
11.19464855008883
 30
0.0
  0
LINE
  5
91
330
1F
100
AcDbEntity
  8
0
  6
Continuous
 62
     7
370
    25
100
AcDbLine
 10
-127.5980769231
 20
16.2528967472
 30
0.0
 11
-129.3076923077
 21
16.2528967472
 31
0.0
  0
LINE
  5
92
330
1F
100
AcDbEntity
  8
0
  6
Continuous
 62
     7
370
    25
100
AcDbLine
 10
-129.3076923077
 20
16.2528967472
 30
0.0
 11
-129.3076923077
 21
17.9625121318
 31
0.0
  0
LINE
  5
93
330
1F
100
AcDbEntity
  8
0
  6
Continuous
 62
     7
370
    25
100
AcDbLine
 10
-129.3076923077
 20
17.9625121318
 30
0.0
 11
-124.1788461538
 21
17.9625121318
 31
0.0
  0
LINE
  5
94
330
1F
100
AcDbEntity
  8
0
  6
Continuous
 62
     7
370
    25
100
AcDbLine
 10
-124.1788461538
 20
17.9625121318
 30
0.0
 11
-124.1788461538
 21
16.2528967472
 31
0.0
  0
LINE
  5
95
330
1F
100
AcDbEntity
  8
0
  6
Continuous
 62
     7
370
    25
100
AcDbLine
 10
-124.1788461538
 20
16.2528967472
 30
0.0
 11
-125.8884615385
 21
16.2528967472
 31
0.0
  0
LINE
  5
96
330
1F
100
AcDbEntity
  8
0
  6
Continuous
 62
     7
370
    25
100
AcDbLine
 10
-125.8884615385
 20
16.2528967472
 30
0.0
 11
-125.8884615385
 21
8.4375121318
 31
0.0
  0
LINE
  5
97
330
1F
100
AcDbEntity
  8
0
  6
Continuous
 62
     7
370
    25
100
AcDbLine
 10
-125.8884615385
 20
8.4375121318
 30
0.0
 11
-127.5980769231
 21
8.4375121318
 31
0.0
  0
LINE
  5
98
330
1F
100
AcDbEntity
  8
0
  6
Continuous
 62
     7
370
    25
100
AcDbLine
 10
-127.5980769231
 20
8.4375121318
 30
0.0
 11
-127.5980769231
 21
16.2528967472
 31
0.0
  0
LINE
  5
99
330
1F
100
AcDbEntity
  8
0
  6
Continuous
 62
     7
370
    25
100
AcDbLine
 10
-121.3701923077
 20
8.4375121318
 30
0.0
 11
-123.0798076923
 21
8.4375121318
 31
0.0
  0
LINE
  5
9A
330
1F
100
AcDbEntity
  8
0
  6
Continuous
 62
     7
370
    25
100
AcDbLine
 10
-123.0798076923
 20
8.4375121318
 30
0.0
 11
-123.0798076923
 21
17.9625121318
 31
0.0
  0
LINE
  5
9B
330
1F
100
AcDbEntity
  8
0
  6
Continuous
 62
     7
370
    25
100
AcDbLine
 10
-123.0798076923
 20
17.9625121318
 30
0.0
 11
-121.3701923077
 21
17.9625121318
 31
0.0
  0
LINE
  5
9C
330
1F
100
AcDbEntity
  8
0
  6
Continuous
 62
     7
370
    25
100
AcDbLine
 10
-121.3701923077
 20
17.9625121318
 30
0.0
 11
-121.3701923077
 21
8.4375121318
 31
0.0
  0
LINE
  5
9D
330
1F
100
AcDbEntity
  8
0
  6
Continuous
 62
     7
370
    25
100
AcDbLine
 10
-119.9658653846
 20
8.4375121318
 30
0.0
 11
-116.7565204327
 21
13.3583805212
 31
0.0
  0
LINE
  5
9E
330
1F
100
AcDbEntity
  8
0
  6
Continuous
 62
     7
370
    25
100
AcDbLine
 10
-116.7565204327
 20
13.3583805212
 30
0.0
 11
-119.7540715144
 21
17.9625121318
 31
0.0
  0
LINE
  5
9F
330
1F
100
AcDbEntity
  8
0
  6
Continuous
 62
     7
370
    25
100
AcDbLine
 10
-119.7540715144
 20
17.9625121318
 30
0.0
 11
-117.7391676683
 21
17.9625121318
 31
0.0
  0
LINE
  5
A0
330
1F
100
AcDbEntity
  8
0
  6
Continuous
 62
     7
370
    25
100
AcDbLine
 10
-117.7391676683
 20
17.9625121318
 30
0.0
 11
-115.7490685096
 21
14.9039033578
 31
0.0
  0
LINE
  5
A1
330
1F
100
AcDbEntity
  8
0
  6
Continuous
 62
     7
370
    25
100
AcDbLine
 10
-115.7490685096
 20
14.9039033578
 30
0.0
 11
-113.7551532452
 21
17.9625121318
 31
0.0
  0
LINE
  5
A2
330
1F
100
AcDbEntity
  8
0
  6
Continuous
 62
     7
370
    25
100
AcDbLine
 10
-113.7551532452
 20
17.9625121318
 30
0.0
 11
-111.7383413462
 21
17.9625121318
 31
0.0
  0
LINE
  5
A3
330
1F
100
AcDbEntity
  8
0
  6
Continuous
 62
     7
370
    25
100
AcDbLine
 10
-111.7383413462
 20
17.9625121318
 30
0.0
 11
-114.7416165865
 21
13.3564724684
 31
0.0
  0
LINE
  5
A4
330
1F
100
AcDbEntity
  8
0
  6
Continuous
 62
     7
370
    25
100
AcDbLine
 10
-114.7416165865
 20
13.3564724684
 30
0.0
 11
-111.5399038462
 21
8.4375121318
 31
0.0
  0
LINE
  5
A5
330
1F
100
AcDbEntity
  8
0
  6
Continuous
 62
     7
370
    25
100
AcDbLine
 10
-111.5399038462
 20
8.4375121318
 30
0.0
 11
-113.5548076923
 21
8.4375121318
 31
0.0
  0
LINE
  5
A6
330
1F
100
AcDbEntity
  8
0
  6
Continuous
 62
     7
370
    25
100
AcDbLine
 10
-113.5548076923
 20
8.4375121318
 30
0.0
 11
-115.7490685096
 21
11.8109496318
 31
0.0
  0
LINE
  5
A7
330
1F
100
AcDbEntity
  8
0
  6
Continuous
 62
     7
370
    25
100
AcDbLine
 10
-115.7490685096
 20
11.8109496318
 30
0.0
 11
-117.9490534856
 21
8.4375121318
 31
0.0
  0
LINE
  5
A8
330
1F
100
AcDbEntity
  8
0
  6
Continuous
 62
     7
370
    25
100
AcDbLine
 10
-117.9490534856
 20
8.4375121318
 30
0.0
 11
-119.9658653846
 21
8.4375121318
 31
0.0
  0
LINE
  5
A9
330
1F
100
AcDbEntity
  8
0
  6
Continuous
 62
     7
370
    25
100
AcDbLine
 10
-101.4653846154
 20
8.4375121318
 30
0.0
 11
-106.5942307692
 21
8.4375121318
 31
0.0
  0
LINE
  5
AA
330
1F
100
AcDbEntity
  8
0
  6
Continuous
 62
     7
370
    25
100
AcDbLine
 10
-106.5942307692
 20
8.4375121318
 30
0.0
 11
-106.5942307692
 21
17.9625121318
 31
0.0
  0
LINE
  5
AB
330
1F
100
AcDbEntity
  8
0
  6
Continuous
 62
     7
370
    25
100
AcDbLine
 10
-106.5942307692
 20
17.9625121318
 30
0.0
 11
-101.4653846154
 21
17.9625121318
 31
0.0
  0
LINE
  5
AC
330
1F
100
AcDbEntity
  8
0
  6
Continuous
 62
     7
370
    25
100
AcDbLine
 10
-101.4653846154
 20
17.9625121318
 30
0.0
 11
-101.4653846154
 21
16.2528967472
 31
0.0
  0
LINE
  5
AD
330
1F
100
AcDbEntity
  8
0
  6
Continuous
 62
     7
370
    25
100
AcDbLine
 10
-101.4653846154
 20
16.2528967472
 30
0.0
 11
-104.8846153846
 21
16.2528967472
 31
0.0
  0
LINE
  5
AE
330
1F
100
AcDbEntity
  8
0
  6
Continuous
 62
     7
370
    25
100
AcDbLine
 10
-104.8846153846
 20
16.2528967472
 30
0.0
 11
-104.8846153846
 21
14.421165978
 31
0.0
  0
LINE
  5
AF
330
1F
100
AcDbEntity
  8
0
  6
Continuous
 62
     7
370
    25
100
AcDbLine
 10
-104.8846153846
 20
14.421165978
 30
0.0
 11
-101.4653846154
 21
14.421165978
 31
0.0
  0
LINE
  5
B0
330
1F
100
AcDbEntity
  8
0
  6
Continuous
 62
     7
370
    25
100
AcDbLine
 10
-101.4653846154
 20
14.421165978
 30
0.0
 11
-101.4653846154
 21
12.7115505934
 31
0.0
  0
LINE
  5
B1
330
1F
100
AcDbEntity
  8
0
  6
Continuous
 62
     7
370
    25
100
AcDbLine
 10
-101.4653846154
 20
12.7115505934
 30
0.0
 11
-104.8846153846
 21
12.7115505934
 31
0.0
  0
LINE
  5
B2
330
1F
100
AcDbEntity
  8
0
  6
Continuous
 62
     7
370
    25
100
AcDbLine
 10
-104.8846153846
 20
12.7115505934
 30
0.0
 11
-104.8846153846
 21
10.1471275164
 31
0.0
  0
LINE
  5
B3
330
1F
100
AcDbEntity
  8
0
  6
Continuous
 62
     7
370
    25
100
AcDbLine
 10
-104.8846153846
 20
10.1471275164
 30
0.0
 11
-101.4653846154
 21
10.1471275164
 31
0.0
  0
LINE
  5
B4
330
1F
100
AcDbEntity
  8
0
  6
Continuous
 62
     7
370
    25
100
AcDbLine
 10
-101.4653846154
 20
10.1471275164
 30
0.0
 11
-101.4653846154
 21
8.4375121318
 31
0.0
  0
SPLINE
  5
B5
330
1F
100
AcDbEntity
  8
0
  6
Continuous
 62
     7
370
    25
100
AcDbSpline
210
0.0
220
0.0
230
1.0
 70
     8
 71
     3
 72
    31
 73
    27
 74
     0
 42
0.000000001
 43
0.00000001
 40
0.0
 40
0.0
 40
0.0
 40
0.0
 40
0.0417149324333612
 40
0.0823027059399543
 40
0.1215718144257373
 40
0.1600671244574477
 40
0.1979937629052246
 40
0.2355661717952775
 40
0.2730048805336456
 40
0.3100903331095227
 40
0.3468461432534301
 40
0.3824835718335577
 40
0.4172710082891841
 40
0.4513316191888086
 40
0.4848527413222468
 40
0.5180308512419193
 40
0.5510685457911265
 40
0.5841710000647796
 40
0.6194667444415163
 40
0.6591579072517055
 40
0.7034715469577033
 40
0.7528401139219639
 40
0.806844312420616
 40
0.8661419381570228
 40
0.9305017472849206
 40
1.0
 40
1.0
 40
1.0
 40
1.0
 10
-96.63610276442303
 20
8.193281362588829
 30
0.0
 10
-96.71820965614451
 20
8.1946643447402
 30
0.0
 10
-96.8802048691487
 20
8.197392940154002
 30
0.0
 10
-97.11844724875981
 20
8.221452024312635
 30
0.0
 10
-97.34875530848348
 20
8.256906067775011
 30
0.0
 10
-97.57069630117883
 20
8.308629866193018
 30
0.0
 10
-97.78504054253769
 20
8.375447353002503
 30
0.0
 10
-97.99173108625939
 20
8.457695025962233
 30
0.0
 10
-98.18999982047066
 20
8.5549141179541
 30
0.0
 10
-98.3787372610172
 20
8.666210423702553
 30
0.0
 10
-98.55771115042238
 20
8.786558219285737
 30
0.0
 10
-98.72128404690783
 20
8.91996881671376
 30
0.0
 10
-98.87508487779513
 20
9.056575998578161
 30
0.0
 10
-99.01467040121013
 20
9.202128774933396
 30
0.0
 10
-99.14108902877115
 20
9.355099089903375
 30
0.0
 10
-99.2540804010567
 20
9.51583362428587
 30
0.0
 10
-99.3534766506616
 20
9.684318101190634
 30
0.0
 10
-99.44177803553596
 20
9.863589443053433
 30
0.0
 10
-99.51735540279884
 20
10.06275936540366
 30
0.0
 10
-99.58106996257534
 20
10.28891242413367
 30
0.0
 10
-99.63673250137603
 20
10.54559334274345
 30
0.0
 10
-99.67809761584066
 20
10.83338040964951
 30
0.0
 10
-99.71559947156265
 20
11.15132511074502
 30
0.0
 10
-99.73933607853604
 20
11.50025574054474
 30
0.0
 10
-99.75175376612266
 20
11.88018231010878
 30
0.0
 10
-99.75439692139499
 20
12.14357752455016
 30
0.0
 10
-99.75576923076919
 20
12.28033064143498
 30
0.0
  0
LINE
  5
B6
330
1F
100
AcDbEntity
  8
0
  6
Continuous
 62
     7
370
    25
100
AcDbLine
 10
-99.7557692308
 20
12.2803306414
 30
0.0
 11
-99.7557692308
 21
17.9625121318
 31
0.0
  0
LINE
  5
B7
330
1F
100
AcDbEntity
  8
0
  6
Continuous
 62
     7
370
    25
100
AcDbLine
 10
-99.7557692308
 20
17.9625121318
 30
0.0
 11
-98.0461538462
 21
17.9625121318
 31
0.0
  0
LINE
  5
B8
330
1F
100
AcDbEntity
  8
0
  6
Continuous
 62
     7
370
    25
100
AcDbLine
 10
-98.0461538462
 20
17.9625121318
 30
0.0
 11
-98.0461538462
 21
11.7651563626
 31
0.0
  0
SPLINE
  5
B9
330
1F
100
AcDbEntity
  8
0
  6
Continuous
 62
     7
370
    25
100
AcDbSpline
210
0.0
220
0.0
230
1.0
 70
     8
 71
     3
 72
    23
 73
    19
 74
     0
 42
0.000000001
 43
0.00000001
 40
0.0
 40
0.0
 40
0.0
 40
0.0
 40
0.0722187479928824
 40
0.1394897657276689
 40
0.2003699977303426
 40
0.2564327255100096
 40
0.307803521550892
 40
0.3536585165318476
 40
0.3944199056460612
 40
0.4301557059443447
 40
0.4966662725087389
 40
0.5620176176150539
 40
0.6287545482746058
 40
0.6974096406803585
 40
0.7680791946526346
 40
0.8413381260898104
 40
0.9183362465478062
 40
1.0
 40
1.0
 40
1.0
 40
1.0
 10
-98.0461538461538
 20
11.76515636258883
 30
0.0
 10
-98.04606088570598
 20
11.70090486599885
 30
0.0
 10
-98.04588133356133
 20
11.57680376405408
 30
0.0
 10
-98.03689285916302
 20
11.39875931402448
 30
0.0
 10
-98.028667785225
 20
11.23509918586904
 30
0.0
 10
-98.01382741727744
 20
11.08600255245704
 30
0.0
 10
-97.99190310721684
 20
10.95140563557498
 30
0.0
 10
-97.97067322111678
 20
10.83044383245419
 30
0.0
 10
-97.94194066960813
 20
10.72528282741938
 30
0.0
 10
-97.89876023836162
 20
10.60558207186483
 30
0.0
 10
-97.83223336866119
 20
10.47109173488695
 30
0.0
 10
-97.72353215477855
 20
10.33092282030481
 30
0.0
 10
-97.59810025304442
 20
10.20299834105281
 30
0.0
 10
-97.44776289435754
 20
10.09651885145522
 30
0.0
 10
-97.27879699848096
 20
10.01038654170028
 30
0.0
 10
-97.09213095796953
 20
9.946572032213743
 30
0.0
 10
-96.88802790549632
 20
9.911099637976486
 30
0.0
 10
-96.74690184076422
 20
9.905684127214302
 30
0.0
 10
-96.67426382211535
 20
9.902896747204213
 30
0.0
  0
SPLINE
  5
BA
330
1F
100
AcDbEntity
  8
0
  6
Continuous
 62
     7
370
    25
100
AcDbSpline
210
0.0
220
0.0
230
1.0
 70
     8
 71
     3
 72
    23
 73
    19
 74
     0
 42
0.000000001
 43
0.00000001
 40
0.0
 40
0.0
 40
0.0
 40
0.0
 40
0.0788326040104728
 40
0.1537102312098451
 40
0.2246777586657781
 40
0.2948087751910983
 40
0.3627147868294599
 40
0.4271032430309827
 40
0.4886497655514116
 40
0.5509002465387036
 40
0.5850458333883322
 40
0.6252721895341632
 40
0.6714658644313032
 40
0.7245499928849675
 40
0.7832647317228381
 40
0.849073130859845
 40
0.9212962952783852
 40
1.0
 40
1.0
 40
1.0
 40
1.0
 10
-96.67426382211535
 20
9.902896747204213
 30
0.0
 10
-96.59709489128653
 20
9.905148592420773
 30
0.0
 10
-96.44662854111577
 20
9.909539309348512
 30
0.0
 10
-96.23020665021211
 20
9.952638949111465
 30
0.0
 10
-96.02969054091547
 20
10.02126833624169
 30
0.0
 10
-95.84932582309784
 20
10.11921996210421
 30
0.0
 10
-95.6892919886916
 20
10.23663215233648
 30
0.0
 10
-95.55382670132913
 20
10.37051884255277
 30
0.0
 10
-95.44691799414099
 20
10.52114707003377
 30
0.0
 10
-95.37723887626517
 20
10.66011308027177
 30
0.0
 10
-95.33811748299627
 20
10.7880191912137
 30
0.0
 10
-95.3087940498689
 20
10.90229844775778
 30
0.0
 10
-95.28729672942825
 20
11.03713665848182
 30
0.0
 10
-95.26779365377105
 20
11.19042803386328
 30
0.0
 10
-95.2560738077391
 20
11.36376037753724
 30
0.0
 10
-95.24336554530929
 20
11.55573972819038
 30
0.0
 10
-95.23870784925299
 20
11.76767966001065
 30
0.0
 10
-95.2379139788938
 20
11.91525741224867
 30
0.0
 10
-95.23749999999995
 20
11.99221465585806
 30
0.0
  0
LINE
  5
BB
330
1F
100
AcDbEntity
  8
0
  6
Continuous
 62
     7
370
    25
100
AcDbLine
 10
-95.2375
 20
11.9922146559
 30
0.0
 11
-95.2375
 21
17.9625121318
 31
0.0
  0
LINE
  5
BC
330
1F
100
AcDbEntity
  8
0
  6
Continuous
 62
     7
370
    25
100
AcDbLine
 10
-95.2375
 20
17.9625121318
 30
0.0
 11
-93.5278846154
 21
17.9625121318
 31
0.0
  0
LINE
  5
BD
330
1F
100
AcDbEntity
  8
0
  6
Continuous
 62
     7
370
    25
100
AcDbLine
 10
-93.5278846154
 20
17.9625121318
 30
0.0
 11
-93.5278846154
 21
12.2803306414
 31
0.0
  0
SPLINE
  5
BE
330
1F
100
AcDbEntity
  8
0
  6
Continuous
 62
     7
370
    25
100
AcDbSpline
210
0.0
220
0.0
230
1.0
 70
     8
 71
     3
 72
    27
 73
    23
 74
     0
 42
0.000000001
 43
0.00000001
 40
0.0
 40
0.0
 40
0.0
 40
0.0
 40
0.0585404168084436
 40
0.1125675123403487
 40
0.1617798781047809
 40
0.2064871555823915
 40
0.2464570299480988
 40
0.2819997074061424
 40
0.3132129382361463
 40
0.3398064735188107
 40
0.3894126122316834
 40
0.4404734799435064
 40
0.4939547398756063
 40
0.5499778768088333
 40
0.606488083626716
 40
0.6613185000989841
 40
0.714691098959651
 40
0.7679184713297984
 40
0.8219387900584592
 40
0.8781073740704579
 40
0.9372026550360465
 40
1.0
 40
1.0
 40
1.0
 40
1.0
 10
-93.52788461538458
 20
12.28033064143498
 30
0.0
 10
-93.5281220265549
 20
12.16520991606382
 30
0.0
 10
-93.5285785450818
 20
11.94384398837915
 30
0.0
 10
-93.5355892933458
 20
11.62572557225665
 30
0.0
 10
-93.55051390821265
 20
11.33517542768544
 30
0.0
 10
-93.56304886319549
 20
11.07210865654128
 30
0.0
 10
-93.58730829375857
 20
10.83687965326119
 30
0.0
 10
-93.61258092940699
 20
10.62848392290229
 30
0.0
 10
-93.6447930778387
 20
10.44765997271556
 30
0.0
 10
-93.69272281779168
 20
10.24181388028265
 30
0.0
 10
-93.77543535953139
 20
10.0047896434225
 30
0.0
 10
-93.90877882055246
 20
9.73186650971137
 30
0.0
 10
-94.07804971384279
 20
9.464658230010224
 30
0.0
 10
-94.27811945028289
 20
9.206104279689871
 30
0.0
 10
-94.50401648361097
 20
8.965915992264904
 30
0.0
 10
-94.75073219313342
 20
8.755061765465019
 30
0.0
 10
-95.01434687955205
 20
8.576701826740557
 30
0.0
 10
-95.2976151273513
 20
8.435197291547967
 30
0.0
 10
-95.60029586078885
 20
8.324834421694007
 30
0.0
 10
-95.92538387978597
 20
8.250676131805216
 30
0.0
 10
-96.2726574999878
 20
8.200573860316773
 30
0.0
 10
-96.51252595331717
 20
8.195760920592196
 30
0.0
 10
-96.63610276442303
 20
8.193281362588829
 30
0.0
  0
LINE
  5
BF
330
1F
100
AcDbEntity
  8
0
  6
Continuous
 62
     7
370
    25
100
AcDbLine
 10
-89.6201923077
 20
8.4375121318
 30
0.0
 11
-91.3298076923
 21
8.4375121318
 31
0.0
  0
LINE
  5
C0
330
1F
100
AcDbEntity
  8
0
  6
Continuous
 62
     7
370
    25
100
AcDbLine
 10
-91.3298076923
 20
8.4375121318
 30
0.0
 11
-91.3298076923
 21
17.9625121318
 31
0.0
  0
LINE
  5
C1
330
1F
100
AcDbEntity
  8
0
  6
Continuous
 62
     7
370
    25
100
AcDbLine
 10
-91.3298076923
 20
17.9625121318
 30
0.0
 11
-89.3378004808
 21
17.9625121318
 31
0.0
  0
SPLINE
  5
C2
330
1F
100
AcDbEntity
  8
0
  6
Continuous
 62
     7
370
    25
100
AcDbSpline
210
0.0
220
0.0
230
1.0
 70
     8
 71
     3
 72
    31
 73
    27
 74
     0
 42
0.000000001
 43
0.00000001
 40
0.0
 40
0.0
 40
0.0
 40
0.0
 40
0.0728890266200381
 40
0.1401861299444945
 40
0.2022774341249588
 40
0.2588951317514623
 40
0.3104829424654772
 40
0.357095244131335
 40
0.3985135666534644
 40
0.4350375108701169
 40
0.4692514858292869
 40
0.5028050278902737
 40
0.5362104463185611
 40
0.5693793599392059
 40
0.6028014750483927
 40
0.6366657983367773
 40
0.6709286568940427
 40
0.7058030002293136
 40
0.7411890612458772
 40
0.7763043110764611
 40
0.8120043009129357
 40
0.8479689758088953
 40
0.8845217611964794
 40
0.9219741585442052
 40
0.9601981758096079
 40
1.0
 40
1.0
 40
1.0
 40
1.0
 10
-89.33780048076919
 20
17.9625121318196
 30
0.0
 10
-89.20612941044602
 20
17.96204477508828
 30
0.0
 10
-88.95288885243343
 20
17.96114591644652
 30
0.0
 10
-88.58772979954817
 20
17.94696430802473
 30
0.0
 10
-88.2522809919086
 20
17.92722943592504
 30
0.0
 10
-87.94604576721356
 20
17.89711349730269
 30
0.0
 10
-87.669155137939
 20
17.85718340300414
 30
0.0
 10
-87.42133159495692
 20
17.81011242938273
 30
0.0
 10
-87.20258238190516
 20
17.75646496320725
 30
0.0
 10
-87.0110626512817
 20
17.68961598769976
 30
0.0
 10
-86.83822556485494
 20
17.61421135681578
 30
0.0
 10
-86.67711737134576
 20
17.52757005326434
 30
0.0
 10
-86.52418378442988
 20
17.43065685536125
 30
0.0
 10
-86.3804469999628
 20
17.32092171454531
 30
0.0
 10
-86.24465791149332
 20
17.20033873896541
 30
0.0
 10
-86.11656034476493
 20
17.06878655001657
 30
0.0
 10
-85.99796443712604
 20
16.9251496393186
 30
0.0
 10
-85.88960453925071
 20
16.77033560986861
 30
0.0
 10
-85.79084321474616
 20
16.60747480098603
 30
0.0
 10
-85.70355891769286
 20
16.4363436037174
 30
0.0
 10
-85.63257918225331
 20
16.25682300771301
 30
0.0
 10
-85.56986097713352
 20
16.07150747369935
 30
0.0
 10
-85.52468708583973
 20
15.87774787976121
 30
0.0
 10
-85.4932693052817
 20
15.6774305082531
 30
0.0
 10
-85.47026643542249
 20
15.469850220759
 30
0.0
 10
-85.46894388037755
 20
15.32882938989471
 30
0.0
 10
-85.4682692307692
 20
15.25689314143498
 30
0.0
  0
SPLINE
  5
C3
330
1F
100
AcDbEntity
  8
0
  6
Continuous
 62
     7
370
    25
100
AcDbSpline
210
0.0
220
0.0
230
1.0
 70
     8
 71
     3
 72
    23
 73
    19
 74
     0
 42
0.000000001
 43
0.00000001
 40
0.0
 40
0.0
 40
0.0
 40
0.0
 40
0.0687412630793658
 40
0.1347890881950347
 40
0.1985360495606907
 40
0.2603856506059204
 40
0.3209615782321973
 40
0.3799038495841484
 40
0.4385029357752678
 40
0.4961543439762696
 40
0.5542654832084994
 40
0.6127487608156968
 40
0.672513442526181
 40
0.7336464018979757
 40
0.796789619481454
 40
0.861935699041027
 40
0.9293977347748982
 40
1.0
 40
1.0
 40
1.0
 40
1.0
 10
-85.4682692307692
 20
15.25689314143498
 30
0.0
 10
-85.47002172783873
 20
15.18180822341731
 30
0.0
 10
-85.47345805518395
 20
15.03458038407553
 30
0.0
 10
-85.49196798370414
 20
14.81831469592132
 30
0.0
 10
-85.52579831849073
 20
14.61140681262713
 30
0.0
 10
-85.57703928219429
 20
14.4144625350199
 30
0.0
 10
-85.63593411434985
 20
14.2250306619646
 30
0.0
 10
-85.71424913374419
 20
14.04660632997393
 30
0.0
 10
-85.8026353735229
 20
13.87659461562838
 30
0.0
 10
-85.90760912813435
 20
13.71740039906509
 30
0.0
 10
-86.02281269550218
 20
13.56548765867985
 30
0.0
 10
-86.15679202097725
 20
13.42667673512478
 30
0.0
 10
-86.30086730225008
 20
13.29350706685092
 30
0.0
 10
-86.4631375355938
 20
13.174319950077
 30
0.0
 10
-86.63644969838421
 20
13.06105638265372
 30
0.0
 10
-86.82424732095198
 20
12.95840942733113
 30
0.0
 10
-87.02530477160607
 20
12.86379877600115
 30
0.0
 10
-87.16665811640745
 20
12.81103734144384
 30
0.0
 10
-87.23894230769226
 20
12.78405660297344
 30
0.0
  0
LINE
  5
C4
330
1F
100
AcDbEntity
  8
0
  6
Continuous
 62
     7
370
    25
100
AcDbLine
 10
-87.2389423077
 20
12.784056603
 30
0.0
 11
-85.0408653846
 21
8.4375121318
 31
0.0
  0
LINE
  5
C5
330
1F
100
AcDbEntity
  8
0
  6
Continuous
 62
     7
370
    25
100
AcDbLine
 10
-85.0408653846
 20
8.4375121318
 30
0.0
 11
-86.9412860577
 21
8.4375121318
 31
0.0
  0
LINE
  5
C6
330
1F
100
AcDbEntity
  8
0
  6
Continuous
 62
     7
370
    25
100
AcDbLine
 10
-86.9412860577
 20
8.4375121318
 30
0.0
 11
-89.0401442308
 21
12.5894352087
 31
0.0
  0
LINE
  5
C7
330
1F
100
AcDbEntity
  8
0
  6
Continuous
 62
     7
370
    25
100
AcDbLine
 10
-89.0401442308
 20
12.5894352087
 30
0.0
 11
-89.6201923077
 21
12.5894352087
 31
0.0
  0
LINE
  5
C8
330
1F
100
AcDbEntity
  8
0
  6
Continuous
 62
     7
370
    25
100
AcDbLine
 10
-89.6201923077
 20
12.5894352087
 30
0.0
 11
-89.6201923077
 21
8.4375121318
 31
0.0
  0
SPLINE
  5
C9
330
1F
100
AcDbEntity
  8
0
  6
Continuous
 62
     7
370
    25
100
AcDbSpline
210
0.0
220
0.0
230
1.0
 70
     8
 71
     3
 72
    23
 73
    19
 74
     0
 42
0.000000001
 43
0.00000001
 40
0.0
 40
0.0
 40
0.0
 40
0.0
 40
0.0802588853381376
 40
0.1583905883453951
 40
0.2362576248303798
 40
0.3151047653520863
 40
0.3932216786245966
 40
0.4687312831158796
 40
0.542781263915582
 40
0.617708169339551
 40
0.656365202520487
 40
0.6970796727899454
 40
0.7406969496811645
 40
0.7867286654533103
 40
0.8355790921841468
 40
0.8872495053564268
 40
0.9418976668361579
 40
0.9999999999999999
 40
0.9999999999999999
 40
0.9999999999999999
 40
0.9999999999999999
 10
-66.5403846153846
 20
11.19464855008883
 30
0.0
 10
-66.54575177422916
 20
11.06455647508095
 30
0.0
 10
-66.5563438406845
 20
10.80782028677284
 30
0.0
 10
-66.63378786224553
 20
10.43087259886556
 30
0.0
 10
-66.7680511880128
 20
10.07349200159975
 30
0.0
 10
-66.94833914850766
 20
9.737098878462232
 30
0.0
 10
-67.17048860364174
 20
9.431431258091715
 30
0.0
 10
-67.4258967716901
 20
9.163669076355676
 30
0.0
 10
-67.71199227821634
 20
8.937014333891097
 30
0.0
 10
-67.97594996224647
 20
8.784039966020309
 30
0.0
 10
-68.20425257204326
 20
8.681379860212068
 30
0.0
 10
-68.39335135820725
 20
8.617908908936885
 30
0.0
 10
-68.5964394463046
 20
8.559109515591942
 30
0.0
 10
-68.8172369223496
 20
8.517819367500108
 30
0.0
 10
-69.05174102921633
 20
8.480026083606688
 30
0.0
 10
-69.30223819677492
 20
8.456691727297121
 30
0.0
 10
-69.56826025034455
 20
8.440878608976009
 30
0.0
 10
-69.75097569601886
 20
8.438656977824435
 30
0.0
 10
-69.84513221153844
 20
8.437512131819599
 30
0.0
  0
LINE
  5
CA
330
1F
100
AcDbEntity
  8
0
  6
Continuous
 62
     7
370
    25
100
AcDbLine
 10
-69.8451322115
 20
8.4375121318
 30
0.0
 11
-72.5240384615
 21
8.4375121318
 31
0.0
  0
LINE
  5
CB
330
1F
100
AcDbEntity
  8
0
  6
Continuous
 62
     7
370
    25
100
AcDbLine
 10
-72.5240384615
 20
8.4375121318
 30
0.0
 11
-72.5240384615
 21
17.9625121318
 31
0.0
  0
LINE
  5
CC
330
1F
100
AcDbEntity
  8
0
  6
Continuous
 62
     7
370
    25
100
AcDbLine
 10
-72.5240384615
 20
17.9625121318
 30
0.0
 11
-70.9975961538
 21
17.9625121318
 31
0.0
  0
SPLINE
  5
CD
330
1F
100
AcDbEntity
  8
0
  6
Continuous
 62
     7
370
    25
100
AcDbSpline
210
0.0
220
0.0
230
1.0
 70
     8
 71
     3
 72
    15
 73
    11
 74
     0
 42
0.000000001
 43
0.00000001
 40
0.0
 40
0.0
 40
0.0
 40
0.0
 40
0.1639957318060743
 40
0.3173286319587149
 40
0.4580598946275435
 40
0.5891583945859066
 40
0.7079520097453113
 40
0.8163219998754487
 40
0.9135847296003148
 40
1.0
 40
1.0
 40
1.0
 40
1.0
 10
-70.99759615384613
 20
17.9625121318196
 30
0.0
 10
-70.89073564788617
 20
17.96252432724796
 30
0.0
 10
-70.68396259475097
 20
17.96254792517065
 30
0.0
 10
-70.38564304195964
 20
17.95207192189556
 30
0.0
 10
-70.10897685059312
 20
17.93852003804954
 30
0.0
 10
-69.85484447969952
 20
17.92335863142476
 30
0.0
 10
-69.62281337838222
 20
17.89723249857857
 30
0.0
 10
-69.41323638777212
 20
17.86969840836633
 30
0.0
 10
-69.22569477177393
 20
17.83649399265972
 30
0.0
 10
-69.1097479815266
 20
17.80670860302699
 30
0.0
 10
-69.05519831730768
 20
17.79269542508883
 30
0.0
  0
SPLINE
  5
CE
330
1F
100
AcDbEntity
  8
0
  6
Continuous
 62
     7
370
    25
100
AcDbSpline
210
0.0
220
0.0
230
1.0
 70
     8
 71
     3
 72
    23
 73
    19
 74
     0
 42
0.000000001
 43
0.00000001
 40
0.0
 40
0.0
 40
0.0
 40
0.0
 40
0.0687497663152859
 40
0.1349091121452294
 40
0.199721070054529
 40
0.2629736746369468
 40
0.3253570233490406
 40
0.3873361409887319
 40
0.449407487429791
 40
0.5111175193516633
 40
0.5724725853513706
 40
0.6330771719677216
 40
0.6928610080890981
 40
0.7525606967546161
 40
0.8127375856307922
 40
0.8734793127278785
 40
0.9357764600655787
 40
0.9999999999999999
 40
0.9999999999999999
 40
0.9999999999999999
 40
0.9999999999999999
 10
-69.05519831730768
 20
17.79269542508883
 30
0.0
 10
-68.98356906977241
 20
17.77292958800181
 30
0.0
 10
-68.84300949107804
 20
17.73414267023995
 30
0.0
 10
-68.6416833187039
 20
17.65581081356432
 30
0.0
 10
-68.45069736076731
 20
17.56873940119405
 30
0.0
 10
-68.2702848058892
 20
17.4694072046258
 30
0.0
 10
-68.10155345903154
 20
17.3566150059109
 30
0.0
 10
-67.94514455678265
 20
17.22946765221388
 30
0.0
 10
-67.7976847461421
 20
17.09306883284805
 30
0.0
 10
-67.66440998833926
 20
16.94361715141062
 30
0.0
 10
-67.54395156594214
 20
16.78569376561833
 30
0.0
 10
-67.43929479404123
 20
16.61934005570273
 30
0.0
 10
-67.34836147309288
 20
16.44709967847973
 30
0.0
 10
-67.27559099799609
 20
16.2668051033227
 30
0.0
 10
-67.22075981215224
 20
16.07928663553211
 30
0.0
 10
-67.18065651158457
 20
15.88534500799006
 30
0.0
 10
-67.15466414234236
 20
15.6843665416513
 30
0.0
 10
-67.15220820438523
 20
15.54763432207351
 30
0.0
 10
-67.15096153846152
 20
15.47822727605037
 30
0.0
  0
SPLINE
  5
CF
330
1F
100
AcDbEntity
  8
0
  6
Continuous
 62
     7
370
    25
100
AcDbSpline
210
0.0
220
0.0
230
1.0
 70
     8
 71
     3
 72
    15
 73
    11
 74
     0
 42
0.000000001
 43
0.00000001
 40
0.0
 40
0.0
 40
0.0
 40
0.0
 40
0.1232695606004617
 40
0.242640984283985
 40
0.3594273839391156
 40
0.4755502191345228
 40
0.5938976740482421
 40
0.7202015971643231
 40
0.8544653148776634
 40
1.0
 40
1.0
 40
1.0
 40
1.0
 10
-67.15096153846153
 20
15.47822727605037
 30
0.0
 10
-67.15422119951808
 20
15.38905744015284
 30
0.0
 10
-67.16063744180317
 20
15.21353757421656
 30
0.0
 10
-67.20162483447852
 20
14.95573064640624
 30
0.0
 10
-67.27848258179858
 20
14.71206604417702
 30
0.0
 10
-67.37904907488819
 20
14.47805312082732
 30
0.0
 10
-67.51578806415098
 20
14.25456474625793
 30
0.0
 10
-67.6894201349226
 20
14.04170718298505
 30
0.0
 10
-67.8971330163839
 20
13.83292622752754
 30
0.0
 10
-68.05646026288467
 20
13.7077761277551
 30
0.0
 10
-68.13933293269228
 20
13.64268040105037
 30
0.0
  0
SPLINE
  5
D0
330
1F
100
AcDbEntity
  8
0
  6
Continuous
 62
     7
370
    25
100
AcDbSpline
210
0.0
220
0.0
230
1.0
 70
     8
 71
     3
 72
    23
 73
    19
 74
     0
 42
0.000000001
 43
0.00000001
 40
0.0
 40
0.0
 40
0.0
 40
0.0
 40
0.0727911822673667
 40
0.1427233695565055
 40
0.2094912699928571
 40
0.2747163184918661
 40
0.3368863886768187
 40
0.3976856020239922
 40
0.4570537497761151
 40
0.5153125941662595
 40
0.5728222022221208
 40
0.6307760073985096
 40
0.6895054947089524
 40
0.7487432781628015
 40
0.8092253247292984
 40
0.870715320223996
 40
0.9342652493244625
 40
1.0
 40
1.0
 40
1.0
 40
1.0
 10
-68.13933293269228
 20
13.64268040105037
 30
0.0
 10
-68.07217689679906
 20
13.6083978271081
 30
0.0
 10
-67.94050249022695
 20
13.54117918444149
 30
0.0
 10
-67.7535635166054
 20
13.43069180182348
 30
0.0
 10
-67.58047843301372
 20
13.31317445768041
 30
0.0
 10
-67.42047117842483
 20
13.19099164824251
 30
0.0
 10
-67.27689808811974
 20
13.05896386716752
 30
0.0
 10
-67.14383078814343
 20
12.92469873651134
 30
0.0
 10
-67.02783412840516
 20
12.78050342265953
 30
0.0
 10
-66.92410641918997
 20
12.63151732118371
 30
0.0
 10
-66.83394798028834
 20
12.47558309606421
 30
0.0
 10
-66.75542992183719
 20
12.31296408507148
 30
0.0
 10
-66.68910853432514
 20
12.14310474626956
 30
0.0
 10
-66.63294586800349
 20
11.9668695261666
 30
0.0
 10
-66.59105973656975
 20
11.78365225805864
 30
0.0
 10
-66.56374908813942
 20
11.59338741583272
 30
0.0
 10
-66.5428383486097
 20
11.39672389935312
 30
0.0
 10
-66.54121168959665
 20
11.26276162308266
 30
0.0
 10
-66.5403846153846
 20
11.19464855008883
 30
0.0
  0
LINE
  5
D1
330
1F
100
AcDbEntity
  8
0
  6
Continuous
 62
     7
370
    25
100
AcDbLine
 10
-52.9855769231
 20
16.2528967472
 30
0.0
 11
-54.6951923077
 21
16.2528967472
 31
0.0
  0
LINE
  5
D2
330
1F
100
AcDbEntity
  8
0
  6
Continuous
 62
     7
370
    25
100
AcDbLine
 10
-54.6951923077
 20
16.2528967472
 30
0.0
 11
-54.6951923077
 21
17.9625121318
 31
0.0
  0
LINE
  5
D3
330
1F
100
AcDbEntity
  8
0
  6
Continuous
 62
     7
370
    25
100
AcDbLine
 10
-54.6951923077
 20
17.9625121318
 30
0.0
 11
-49.5663461538
 21
17.9625121318
 31
0.0
  0
LINE
  5
D4
330
1F
100
AcDbEntity
  8
0
  6
Continuous
 62
     7
370
    25
100
AcDbLine
 10
-49.5663461538
 20
17.9625121318
 30
0.0
 11
-49.5663461538
 21
16.2528967472
 31
0.0
  0
LINE
  5
D5
330
1F
100
AcDbEntity
  8
0
  6
Continuous
 62
     7
370
    25
100
AcDbLine
 10
-49.5663461538
 20
16.2528967472
 30
0.0
 11
-51.2759615385
 21
16.2528967472
 31
0.0
  0
LINE
  5
D6
330
1F
100
AcDbEntity
  8
0
  6
Continuous
 62
     7
370
    25
100
AcDbLine
 10
-51.2759615385
 20
16.2528967472
 30
0.0
 11
-51.2759615385
 21
8.4375121318
 31
0.0
  0
LINE
  5
D7
330
1F
100
AcDbEntity
  8
0
  6
Continuous
 62
     7
370
    25
100
AcDbLine
 10
-51.2759615385
 20
8.4375121318
 30
0.0
 11
-52.9855769231
 21
8.4375121318
 31
0.0
  0
LINE
  5
D8
330
1F
100
AcDbEntity
  8
0
  6
Continuous
 62
     7
370
    25
100
AcDbLine
 10
-52.9855769231
 20
8.4375121318
 30
0.0
 11
-52.9855769231
 21
16.2528967472
 31
0.0
  0
SPLINE
  5
D9
330
1F
100
AcDbEntity
  8
0
  6
Continuous
 62
     7
370
    25
100
AcDbSpline
210
0.0
220
0.0
230
1.0
 70
     8
 71
     3
 72
    15
 73
    11
 74
     0
 42
0.000000001
 43
0.00000001
 40
0.0
 40
0.0
 40
0.0
 40
0.0
 40
0.1327548717475876
 40
0.2572338481110645
 40
0.3786007316763529
 40
0.5014062774984539
 40
0.6239419536469557
 40
0.7436418348746446
 40
0.8681208112381248
 40
1.0
 40
1.0
 40
1.0
 40
1.0
 10
-40.89615384615382
 20
15.23018040105037
 30
0.0
 10
-40.89946579490241
 20
15.31845973792349
 30
0.0
 10
-40.90588322659536
 20
15.48951510661642
 30
0.0
 10
-40.97640560078769
 20
15.73284045784455
 30
0.0
 10
-41.08566130884022
 20
15.95314672424519
 30
0.0
 10
-41.23961803161333
 20
16.14385090616113
 30
0.0
 10
-41.42610784162533
 20
16.30056517790387
 30
0.0
 10
-41.64161433480716
 20
16.41712485040641
 30
0.0
 10
-41.88438049932871
 20
16.48437924719207
 30
0.0
 10
-42.05456420605437
 20
16.49279709487961
 30
0.0
 10
-42.14211237980766
 20
16.49712751643498
 30
0.0
  0
SPLINE
  5
DA
330
1F
100
AcDbEntity
  8
0
  6
Continuous
 62
     7
370
    25
100
AcDbSpline
210
0.0
220
0.0
230
1.0
 70
     8
 71
     3
 72
    23
 73
    19
 74
     0
 42
0.000000001
 43
0.00000001
 40
0.0
 40
0.0
 40
0.0
 40
0.0
 40
0.0564668684718631
 40
0.1111640986969648
 40
0.1649370968759841
 40
0.2183217523125946
 40
0.2723929232482762
 40
0.3279763434477047
 40
0.3852910519840202
 40
0.4449029182928184
 40
0.5068438192198359
 40
0.5694881852629693
 40
0.6341532155537227
 40
0.7009760953100503
 40
0.7708974968462686
 40
0.8436256105557794
 40
0.9196596761155403
 40
1.0
 40
1.0
 40
1.0
 40
1.0
 10
-42.14211237980766
 20
16.49712751643498
 30
0.0
 10
-42.18734088156565
 20
16.49552780682413
 30
0.0
 10
-42.276380450598
 20
16.49237852155509
 30
0.0
 10
-42.40726165750888
 20
16.47141458159988
 30
0.0
 10
-42.53180452899176
 20
16.43446782567534
 30
0.0
 10
-42.65139529651026
 20
16.38496437296968
 30
0.0
 10
-42.76475765592168
 20
16.31934719099578
 30
0.0
 10
-42.87160567144133
 20
16.23846356009705
 30
0.0
 10
-42.97306512192316
 20
16.14436891709861
 30
0.0
 10
-43.06867067362266
 20
16.03735748346056
 30
0.0
 10
-43.15568420652902
 20
15.91793269211388
 30
0.0
 10
-43.23296930828435
 20
15.78718524430594
 30
0.0
 10
-43.29687122140681
 20
15.64519629886124
 30
0.0
 10
-43.35313278827734
 20
15.49384032673595
 30
0.0
 10
-43.39652440082272
 20
15.33149164140672
 30
0.0
 10
-43.42811887766016
 20
15.15912188162807
 30
0.0
 10
-43.45213804851676
 20
14.9770114704477
 30
0.0
 10
-43.45771279221724
 20
14.85182768714435
 30
0.0
 10
-43.46057692307689
 20
14.7875121318196
 30
0.0
  0
LINE
  5
DB
330
1F
100
AcDbEntity
  8
0
  6
Continuous
 62
     7
370
    25
100
AcDbLine
 10
-43.4605769231
 20
14.7875121318
 30
0.0
 11
-45.1701923077
 21
14.7875121318
 31
0.0
  0
SPLINE
  5
DC
330
1F
100
AcDbEntity
  8
0
  6
Continuous
 62
     7
370
    25
100
AcDbSpline
210
0.0
220
0.0
230
1.0
 70
     8
 71
     3
 72
    23
 73
    19
 74
     0
 42
0.000000001
 43
0.00000001
 40
0.0
 40
0.0
 40
0.0
 40
0.0
 40
0.0749399102007729
 40
0.1464280851715764
 40
0.2147529716359189
 40
0.2804215366912474
 40
0.343604429519365
 40
0.4055426388186586
 40
0.466199461930776
 40
0.5265381448244668
 40
0.585901906309209
 40
0.6440895746157924
 40
0.7016130759883655
 40
0.7587535874365713
 40
0.8166294493897667
 40
0.8756554749553053
 40
0.9366243322865297
 40
1.0
 40
1.0
 40
1.0
 40
1.0
 10
-45.17019230769228
 20
14.7875121318196
 30
0.0
 10
-45.16280874104201
 20
14.91683549106227
 30
0.0
 10
-45.14838169511361
 20
15.16952557050228
 30
0.0
 10
-45.09099455284057
 20
15.53656600198785
 30
0.0
 10
-45.01409775164993
 20
15.88337884837086
 30
0.0
 10
-44.91146876228304
 20
16.20875092052675
 30
0.0
 10
-44.78250872197162
 20
16.51256398870237
 30
0.0
 10
-44.63053610483076
 20
16.7958537681967
 30
0.0
 10
-44.45166835574228
 20
17.05712873204365
 30
0.0
 10
-44.24971236867225
 20
17.2951288648777
 30
0.0
 10
-44.02809680071662
 20
17.50864098028057
 30
0.0
 10
-43.79142260867405
 20
17.69795423522213
 30
0.0
 10
-43.53606954182396
 20
17.85417076881929
 30
0.0
 10
-43.26670310959194
 20
17.98272251318643
 30
0.0
 10
-42.98336917952369
 20
18.08542938338589
 30
0.0
 10
-42.68338696761462
 20
18.15409723753483
 30
0.0
 10
-42.36935388230243
 20
18.20059978105022
 30
0.0
 10
-42.1543728058408
 20
18.20466894019334
 30
0.0
 10
-42.04480168269227
 20
18.20674290105037
 30
0.0
  0
SPLINE
  5
DD
330
1F
100
AcDbEntity
  8
0
  6
Continuous
 62
     7
370
    25
100
AcDbSpline
210
0.0
220
0.0
230
1.0
 70
     8
 71
     3
 72
    19
 73
    15
 74
     0
 42
0.000000001
 43
0.00000001
 40
0.0
 40
0.0
 40
0.0
 40
0.0
 40
0.0896145288821164
 40
0.174948561286527
 40
0.2575481258745662
 40
0.338900787490095
 40
0.4200531858831907
 40
0.5014014271193621
 40
0.5842520267159587
 40
0.6703704767286314
 40
0.7564732666582517
 40
0.8392065940498483
 40
0.9201204666578205
 40
1.0
 40
1.0
 40
1.0
 40
1.0
 10
-42.04480168269227
 20
18.20674290105037
 30
0.0
 10
-41.91030468345947
 20
18.20254624010993
 30
0.0
 10
-41.64773502196975
 20
18.1943533744787
 30
0.0
 10
-41.26620047697049
 20
18.12446551159142
 30
0.0
 10
-40.90988892763681
 20
18.00756726110049
 30
0.0
 10
-40.5790593789934
 20
17.8442295762943
 30
0.0
 10
-40.27652824116433
 20
17.63672616955348
 30
0.0
 10
-40.00234568203677
 20
17.38931231733228
 30
0.0
 10
-39.76480341938672
 20
17.09679714725305
 30
0.0
 10
-39.56239536548451
 20
16.77135173823685
 30
0.0
 10
-39.39421846360767
 20
16.42675085263428
 30
0.0
 10
-39.27636709614822
 20
16.07041924692772
 30
0.0
 10
-39.1989046607117
 20
15.71181251710651
 30
0.0
 10
-39.19064281253894
 20
15.47034489620424
 30
0.0
 10
-39.18653846153843
 20
15.35038773278114
 30
0.0
  0
SPLINE
  5
DE
330
1F
100
AcDbEntity
  8
0
  6
Continuous
 62
     7
370
    25
100
AcDbSpline
210
0.0
220
0.0
230
1.0
 70
     8
 71
     3
 72
    23
 73
    19
 74
     0
 42
0.000000001
 43
0.00000001
 40
0.0
 40
0.0
 40
0.0
 40
0.0
 40
0.0455177516513181
 40
0.0916159906181648
 40
0.1392465550335719
 40
0.188241563723404
 40
0.238673079372537
 40
0.290663874320642
 40
0.3448398555786323
 40
0.4004316067351775
 40
0.4591437176132938
 40
0.522551047594614
 40
0.590100858323044
 40
0.662259656524867
 40
0.7396813070012562
 40
0.8215754713854215
 40
0.9083300466844453
 40
1.0
 40
1.0
 40
1.0
 40
1.0
 10
-39.18653846153843
 20
15.35038773278114
 30
0.0
 10
-39.18813647906597
 20
15.2778291621628
 30
0.0
 10
-39.1913528936185
 20
15.13178668238569
 30
0.0
 10
-39.2137170514026
 20
14.91078856658937
 30
0.0
 10
-39.24726770724289
 20
14.68567614773043
 30
0.0
 10
-39.29785391991378
 20
14.45664243872754
 30
0.0
 10
-39.36093907425701
 20
14.22362323782324
 30
0.0
 10
-39.43747048477096
 20
13.98592119864056
 30
0.0
 10
-39.52922337281329
 20
13.74488400459088
 30
0.0
 10
-39.63466656896114
 20
13.49779882327902
 30
0.0
 10
-39.7604605692008
 20
13.24386346590167
 30
0.0
 10
-39.90693019707007
 20
12.97927134255224
 30
0.0
 10
-40.07796308840011
 20
12.70425716728494
 30
0.0
 10
-40.27149338158183
 20
12.41726812050571
 30
0.0
 10
-40.48846100679652
 20
12.11875682838693
 30
0.0
 10
-40.72992512837953
 20
11.80962250009694
 30
0.0
 10
-40.99310464667983
 20
11.48877584490092
 30
0.0
 10
-41.17989055441903
 20
11.27430786132819
 30
0.0
 10
-41.27585637019228
 20
11.16411970393498
 30
0.0
  0
LINE
  5
DF
330
1F
100
AcDbEntity
  8
0
  6
Continuous
 62
     7
370
    25
100
AcDbLine
 10
-41.2758563702
 20
11.1641197039
 30
0.0
 11
-42.2699519231
 21
10.0250121318
 31
0.0
  0
LINE
  5
E0
330
1F
100
AcDbEntity
  8
0
  6
Continuous
 62
     7
370
    25
100
AcDbLine
 10
-42.2699519231
 20
10.0250121318
 30
0.0
 11
-39.0644230769
 21
10.0250121318
 31
0.0
  0
LINE
  5
E1
330
1F
100
AcDbEntity
  8
0
  6
Continuous
 62
     7
370
    25
100
AcDbLine
 10
-39.0644230769
 20
10.0250121318
 30
0.0
 11
-39.0644230769
 21
8.4375121318
 31
0.0
  0
LINE
  5
E2
330
1F
100
AcDbEntity
  8
0
  6
Continuous
 62
     7
370
    25
100
AcDbLine
 10
-39.0644230769
 20
8.4375121318
 30
0.0
 11
-45.4144230769
 21
8.4375121318
 31
0.0
  0
LINE
  5
E3
330
1F
100
AcDbEntity
  8
0
  6
Continuous
 62
     7
370
    25
100
AcDbLine
 10
-45.4144230769
 20
8.4375121318
 30
0.0
 11
-45.4144230769
 21
9.3037681414
 31
0.0
  0
LINE
  5
E4
330
1F
100
AcDbEntity
  8
0
  6
Continuous
 62
     7
370
    25
100
AcDbLine
 10
-45.4144230769
 20
9.3037681414
 30
0.0
 11
-42.5943209135
 21
12.3051353289
 31
0.0
  0
SPLINE
  5
E5
330
1F
100
AcDbEntity
  8
0
  6
Continuous
 62
     7
370
    25
100
AcDbSpline
210
0.0
220
0.0
230
1.0
 70
     8
 71
     3
 72
    19
 73
    15
 74
     0
 42
0.000000001
 43
0.00000001
 40
0.0
 40
0.0
 40
0.0
 40
0.0
 40
0.1038439242634201
 40
0.2011148859465237
 40
0.2911157193792178
 40
0.3743484039713634
 40
0.4507073961858711
 40
0.5200404120163613
 40
0.583258322445338
 40
0.6395782998253261
 40
0.7415365099482683
 40
0.8350600486817366
 40
0.9208729600458343
 40
0.9999999999999999
 40
0.9999999999999999
 40
0.9999999999999999
 40
0.9999999999999999
 10
-42.59432091346151
 20
12.30513532893498
 30
0.0
 10
-42.51267170880632
 20
12.39268614178562
 30
0.0
 10
-42.35454141280363
 20
12.56224610271618
 30
0.0
 10
-42.12953829778036
 20
12.81126294431279
 30
0.0
 10
-41.92593035434578
 20
13.04757398303329
 30
0.0
 10
-41.74793955879969
 20
13.27369545471991
 30
0.0
 10
-41.58622518332624
 20
13.48229289902793
 30
0.0
 10
-41.4479980592288
 20
13.67965370324472
 30
0.0
 10
-41.33199351653931
 20
13.86399365461096
 30
0.0
 10
-41.20605413229638
 20
14.08627544126399
 30
0.0
 10
-41.08645311643188
 20
14.35138602670329
 30
0.0
 10
-40.97671194574974
 20
14.65680429144741
 30
0.0
 10
-40.90981710794301
 20
14.9487138129315
 30
0.0
 10
-40.90058350481377
 20
15.13892833190438
 30
0.0
 10
-40.89615384615382
 20
15.23018040105037
 30
0.0
  0
SPLINE
  5
E6
330
1F
100
AcDbEntity
  8
0
  6
Continuous
 62
     7
370
    25
100
AcDbSpline
210
0.0
220
0.0
230
1.0
 70
     8
 71
     3
 72
    15
 73
    11
 74
     0
 42
0.000000001
 43
0.00000001
 40
0.0
 40
0.0
 40
0.0
 40
0.0
 40
0.1610711239484215
 40
0.3107888083803544
 40
0.4499038238309448
 40
0.5783763165061854
 40
0.6966172119048394
 40
0.80598732271041
 40
0.9065617032890816
 40
1.0
 40
1.0
 40
1.0
 40
1.0
 10
-37.96538461538461
 20
13.10651754047345
 30
0.0
 10
-37.96375350584004
 20
13.3177487446165
 30
0.0
 10
-37.96060625896385
 20
13.72532207383341
 30
0.0
 10
-37.92072203502786
 20
14.31414703305354
 30
0.0
 10
-37.86218211008092
 20
14.85841370839265
 30
0.0
 10
-37.77620082725855
 20
15.35721167599636
 30
0.0
 10
-37.66988616018862
 20
15.81238833804673
 30
0.0
 10
-37.53374469315797
 20
16.22094522898406
 30
0.0
 10
-37.37875753644183
 20
16.58853564959073
 30
0.0
 10
-37.24668856752277
 20
16.80629842779789
 30
0.0
 10
-37.1830829326923
 20
16.91117499239652
 30
0.0
  0
SPLINE
  5
E7
330
1F
100
AcDbEntity
  8
0
  6
Continuous
 62
     7
370
    25
100
AcDbSpline
210
0.0
220
0.0
230
1.0
 70
     8
 71
     3
 72
    15
 73
    11
 74
     0
 42
0.000000001
 43
0.00000001
 40
0.0
 40
0.0
 40
0.0
 40
0.0
 40
0.1323140339085638
 40
0.2587000085531556
 40
0.3809118214856528
 40
0.5005348689728931
 40
0.6209226176484471
 40
0.7423757653984725
 40
0.8682808341788565
 40
1.0
 40
1.0
 40
1.0
 40
1.0
 10
-37.1830829326923
 20
16.91117499239652
 30
0.0
 10
-37.10912533013079
 20
17.01420569674536
 30
0.0
 10
-36.9645236438996
 20
17.21565102577753
 30
0.0
 10
-36.71168355360892
 20
17.48011108779069
 30
0.0
 10
-36.44003979587774
 20
17.7062902828985
 30
0.0
 10
-36.14401296280949
 20
17.88906997338135
 30
0.0
 10
-35.82828484208601
 20
18.03321005213613
 30
0.0
 10
-35.49014474729345
 20
18.13501456637823
 30
0.0
 10
-35.13084137298502
 20
18.19433062022978
 30
0.0
 10
-34.88410175244679
 20
18.20254368957317
 30
0.0
 10
-34.75794771634614
 20
18.20674290105037
 30
0.0
  0
SPLINE
  5
E8
330
1F
100
AcDbEntity
  8
0
  6
Continuous
 62
     7
370
    25
100
AcDbSpline
210
0.0
220
0.0
230
1.0
 70
     8
 71
     3
 72
    31
 73
    27
 74
     0
 42
0.000000001
 43
0.00000001
 40
0.0
 40
0.0
 40
0.0
 40
0.0
 40
0.036634890255127
 40
0.072033982347789
 40
0.1066259706074957
 40
0.1403056939382969
 40
0.1736194704926822
 40
0.2064256725696815
 40
0.239067006132742
 40
0.2718828805625946
 40
0.3048398888131199
 40
0.338529033704587
 40
0.3726161878593847
 40
0.407548250026539
 40
0.4437189059571692
 40
0.4813115090919058
 40
0.5201129981462014
 40
0.5609129028334481
 40
0.6040246006136036
 40
0.6500745638656776
 40
0.6995722277770577
 40
0.7523625390892968
 40
0.8087887173463876
 40
0.8689542125204783
 40
0.9326747199379387
 40
1.0
 40
1.0
 40
1.0
 40
1.0
 10
-34.75794771634614
 20
18.20674290105037
 30
0.0
 10
-34.6751952359386
 20
18.20551441715025
 30
0.0
 10
-34.51248174965814
 20
18.20309888957641
 30
0.0
 10
-34.27283541278562
 20
18.17693675851148
 30
0.0
 10
-34.0419897323939
 20
18.13741307488977
 30
0.0
 10
-33.81904161141929
 20
18.08229131837051
 30
0.0
 10
-33.60559585306926
 20
18.00933963705034
 30
0.0
 10
-33.40009895501431
 20
17.92201772499831
 30
0.0
 10
-33.20499692503883
 20
17.81574536804014
 30
0.0
 10
-33.01780158879451
 20
17.6957052828228
 30
0.0
 10
-32.8385850541701
 20
17.55980288930239
 30
0.0
 10
-32.67165466515142
 20
17.40486714361441
 30
0.0
 10
-32.51396191818257
 20
17.23446312366056
 30
0.0
 10
-32.36892028057827
 20
17.04601462641084
 30
0.0
 10
-32.23331776105631
 20
16.84123579073504
 30
0.0
 10
-32.10759992669516
 20
16.62009414524526
 30
0.0
 10
-31.99272917867293
 20
16.38150734969381
 30
0.0
 10
-31.88741808995225
 20
16.12504485525996
 30
0.0
 10
-31.79324858181372
 20
15.8468623999477
 30
0.0
 10
-31.71392972188345
 20
15.54376911016035
 30
0.0
 10
-31.64590052699313
 20
15.21569576967778
 30
0.0
 10
-31.58847908648307
 20
14.86182575379553
 30
0.0
 10
-31.54507775830388
 20
14.4816886850073
 30
0.0
 10
-31.51582438938862
 20
14.07553710734072
 30
0.0
 10
-31.49574934293488
 20
13.64415402133945
 30
0.0
 10
-31.49411095758053
 20
13.34822876884213
 30
0.0
 10
-31.49326923076922
 20
13.19619602605037
 30
0.0
  0
SPLINE
  5
E9
330
1F
100
AcDbEntity
  8
0
  6
Continuous
 62
     7
370
    25
100
AcDbSpline
210
0.0
220
0.0
230
1.0
 70
     8
 71
     3
 72
    31
 73
    27
 74
     0
 42
0.000000001
 43
0.00000001
 40
0.0
 40
0.0
 40
0.0
 40
0.0
 40
0.0684908744969537
 40
0.1330765404908785
 40
0.1938289871915771
 40
0.2510828574460498
 40
0.3044008371534407
 40
0.3544083437255269
 40
0.4012947817777442
 40
0.4447006845454778
 40
0.4856924920892443
 40
0.5246764844274037
 40
0.5623067591777589
 40
0.597946584652534
 40
0.6324735490267258
 40
0.6657520428969362
 40
0.6979852995504443
 40
0.7295862241486805
 40
0.7608251968744887
 40
0.7923550795612062
 40
0.8243126039626626
 40
0.8571562719790689
 40
0.8909268871454044
 40
0.9259604429162996
 40
0.9620613229943371
 40
1.0
 40
1.0
 40
1.0
 40
1.0
 10
-31.49326923076922
 20
13.19619602605037
 30
0.0
 10
-31.49417891000073
 20
13.04226118268506
 30
0.0
 10
-31.49594640042882
 20
12.74316854346097
 30
0.0
 10
-31.51498986383268
 20
12.30783980842027
 30
0.0
 10
-31.54778360751638
 20
11.89873932665684
 30
0.0
 10
-31.59005055110511
 20
11.51590942189746
 30
0.0
 10
-31.64794470218126
 20
11.15955226071759
 30
0.0
 10
-31.71574680081046
 20
10.82874511772453
 30
0.0
 10
-31.7963176849628
 20
10.52360790218824
 30
0.0
 10
-31.8935891064779
 20
10.2448281532996
 30
0.0
 10
-31.99826274486448
 20
9.987915254653851
 30
0.0
 10
-32.11344771368141
 20
9.749793646574942
 30
0.0
 10
-32.23713635531023
 20
9.529818364068039
 30
0.0
 10
-32.36649162517804
 20
9.324670780785015
 30
0.0
 10
-32.50860525485948
 20
9.140398543301378
 30
0.0
 10
-32.65656017340007
 20
8.970735431957083
 30
0.0
 10
-32.81679860220866
 20
8.82214413229217
 30
0.0
 10
-32.98257388396192
 20
8.68696691557244
 30
0.0
 10
-33.15995903765528
 20
8.570146672896497
 30
0.0
 10
-33.34712473695645
 20
8.467977614733579
 30
0.0
 10
-33.54740782122641
 20
8.385106373831963
 30
0.0
 10
-33.75715747050103
 20
8.313029394790481
 30
0.0
 10
-33.97994891009946
 20
8.261285900907854
 30
0.0
 10
-34.21224201461412
 20
8.220229138996793
 30
0.0
 10
-34.45665932630614
 20
8.197538654075954
 30
0.0
 10
-34.62306847673043
 20
8.19472375010246
 30
0.0
 10
-34.70833834134614
 20
8.193281362588829
 30
0.0
  0
SPLINE
  5
EA
330
1F
100
AcDbEntity
  8
0
  6
Continuous
 62
     7
370
    25
100
AcDbSpline
210
0.0
220
0.0
230
1.0
 70
     8
 71
     3
 72
    31
 73
    27
 74
     0
 42
0.000000001
 43
0.00000001
 40
0.0
 40
0.0
 40
0.0
 40
0.0
 40
0.0382173379691357
 40
0.0748672030399426
 40
0.1101580815531035
 40
0.1444539266593003
 40
0.1780797262741523
 40
0.2111707725935975
 40
0.2436870542144176
 40
0.275871733444799
 40
0.3083755160139859
 40
0.341263324936358
 40
0.3751503394709045
 40
0.4096552607042124
 40
0.4451573674923577
 40
0.4820734672046715
 40
0.5205757562184271
 40
0.5605536808978377
 40
0.6031075754382528
 40
0.6486887095294884
 40
0.6979476778875631
 40
0.7507677670183533
 40
0.8073094024459644
 40
0.8676555707911409
 40
0.9318612220995587
 40
1.0
 40
1.0
 40
1.0
 40
1.0
 10
-34.70833834134614
 20
8.193281362588829
 30
0.0
 10
-34.79360590443354
 20
8.1947515727875
 30
0.0
 10
-34.96064380653809
 20
8.197631692945118
 30
0.0
 10
-35.20572204688482
 20
8.220060425651099
 30
0.0
 10
-35.43924618812996
 20
8.261452222668671
 30
0.0
 10
-35.66380026604735
 20
8.313426643072933
 30
0.0
 10
-35.87782141963652
 20
8.384946896300459
 30
0.0
 10
-36.0823358738715
 20
8.470297585331187
 30
0.0
 10
-36.275771089524
 20
8.571829159531957
 30
0.0
 10
-36.45866265824633
 20
8.688921582385744
 30
0.0
 10
-36.63038613622359
 20
8.823194361274345
 30
0.0
 10
-36.79361010531122
 20
8.973211298220813
 30
0.0
 10
-36.94797350457323
 20
9.13859213885331
 30
0.0
 10
-37.09112808399776
 20
9.321189285612343
 30
0.0
 10
-37.22541830126895
 20
9.51856544722492
 30
0.0
 10
-37.34944372186602
 20
9.732974563484733
 30
0.0
 10
-37.46312980971101
 20
9.964104459845993
 30
0.0
 10
-37.57003268660387
 20
10.21227730756942
 30
0.0
 10
-37.66291775481928
 20
10.48283598358722
 30
0.0
 10
-37.74558115272473
 20
10.77819654250315
 30
0.0
 10
-37.81329683395067
 20
11.10082105811887
 30
0.0
 10
-37.86775831591396
 20
11.45060588396428
 30
0.0
 10
-37.91124033189598
 20
11.82680998558024
 30
0.0
 10
-37.94358595396854
 20
12.22961494581715
 30
0.0
 10
-37.962735195069
 20
12.65920838154551
 30
0.0
 10
-37.96448414962962
 20
12.95448934882342
 30
0.0
 10
-37.9653846153846
 20
13.10651754047344
 30
0.0
  0
CIRCLE
  5
EB
330
1F
100
AcDbEntity
  8
0
  6
Continuous
 62
     7
370
    25
100
AcDbCircle
 10
-192.6
 20
15.0
 30
0.0
 40
1.600000000000733
  0
LINE
  5
EC
330
1F
100
AcDbEntity
  8
0
  6
Continuous
 62
     7
370
    25
100
AcDbLine
 10
0.0
 20
0.0
 30
0.0
 11
0.0
 21
30.0
 31
0.0
  0
LINE
  5
ED
330
1F
100
AcDbEntity
  8
0
  6
Continuous
 62
     7
370
    25
100
AcDbLine
 10
0.0
 20
30.0
 30
0.0
 11
-25.0
 21
30.0
 31
0.0
  0
LINE
  5
EE
330
1F
100
AcDbEntity
  8
0
  6
Continuous
 62
     7
370
    25
100
AcDbLine
 10
-25.0
 20
30.0
 30
0.0
 11
-25.0
 21
35.0
 31
0.0
  0
LINE
  5
EF
330
1F
100
AcDbEntity
  8
0
  6
Continuous
 62
     7
370
    25
100
AcDbLine
 10
-25.0
 20
35.0
 30
0.0
 11
-75.0
 21
35.0
 31
0.0
  0
LINE
  5
F0
330
1F
100
AcDbEntity
  8
0
  6
Continuous
 62
     7
370
    25
100
AcDbLine
 10
-75.0
 20
35.0
 30
0.0
 11
-75.0
 21
30.0
 31
0.0
  0
LINE
  5
F1
330
1F
100
AcDbEntity
  8
0
  6
Continuous
 62
     7
370
    25
100
AcDbLine
 10
-75.0
 20
30.0
 30
0.0
 11
-105.0
 21
30.0
 31
0.0
  0
LINE
  5
F2
330
1F
100
AcDbEntity
  8
0
  6
Continuous
 62
     7
370
    25
100
AcDbLine
 10
-105.0
 20
30.0
 30
0.0
 11
-105.0
 21
35.0
 31
0.0
  0
LINE
  5
F3
330
1F
100
AcDbEntity
  8
0
  6
Continuous
 62
     7
370
    25
100
AcDbLine
 10
-105.0
 20
35.0
 30
0.0
 11
-155.0
 21
35.0
 31
0.0
  0
LINE
  5
F4
330
1F
100
AcDbEntity
  8
0
  6
Continuous
 62
     7
370
    25
100
AcDbLine
 10
-155.0
 20
35.0
 30
0.0
 11
-155.0
 21
30.0
 31
0.0
  0
LINE
  5
F5
330
1F
100
AcDbEntity
  8
0
  6
Continuous
 62
     7
370
    25
100
AcDbLine
 10
-155.0
 20
30.0
 30
0.0
 11
-200.0
 21
30.0
 31
0.0
  0
LINE
  5
F6
330
1F
100
AcDbEntity
  8
0
  6
Continuous
 62
     7
370
    25
100
AcDbLine
 10
-200.0
 20
30.0
 30
0.0
 11
-200.0
 21
0.0
 31
0.0
  0
LINE
  5
F7
330
1F
100
AcDbEntity
  8
0
  6
Continuous
 62
     7
370
    25
100
AcDbLine
 10
-200.0
 20
0.0
 30
0.0
 11
-155.0
 21
0.0
 31
0.0
  0
LINE
  5
F8
330
1F
100
AcDbEntity
  8
0
  6
Continuous
 62
     7
370
    25
100
AcDbLine
 10
-155.0
 20
0.0
 30
0.0
 11
-155.0
 21
-5.0
 31
0.0
  0
LINE
  5
F9
330
1F
100
AcDbEntity
  8
0
  6
Continuous
 62
     7
370
    25
100
AcDbLine
 10
-155.0
 20
-5.0
 30
0.0
 11
-105.0
 21
-5.0
 31
0.0
  0
LINE
  5
FA
330
1F
100
AcDbEntity
  8
0
  6
Continuous
 62
     7
370
    25
100
AcDbLine
 10
-105.0
 20
-5.0
 30
0.0
 11
-105.0
 21
0.0
 31
0.0
  0
LINE
  5
FB
330
1F
100
AcDbEntity
  8
0
  6
Continuous
 62
     7
370
    25
100
AcDbLine
 10
-105.0
 20
0.0
 30
0.0
 11
-75.0
 21
0.0
 31
0.0
  0
LINE
  5
FC
330
1F
100
AcDbEntity
  8
0
  6
Continuous
 62
     7
370
    25
100
AcDbLine
 10
-75.0
 20
0.0
 30
0.0
 11
-75.0
 21
-5.0
 31
0.0
  0
LINE
  5
FD
330
1F
100
AcDbEntity
  8
0
  6
Continuous
 62
     7
370
    25
100
AcDbLine
 10
-75.0
 20
-5.0
 30
0.0
 11
-25.0
 21
-5.0
 31
0.0
  0
LINE
  5
FE
330
1F
100
AcDbEntity
  8
0
  6
Continuous
 62
     7
370
    25
100
AcDbLine
 10
-25.0
 20
-5.0
 30
0.0
 11
-25.0
 21
0.0
 31
0.0
  0
LINE
  5
FF
330
1F
100
AcDbEntity
  8
0
  6
Continuous
 62
     7
370
    25
100
AcDbLine
 10
-25.0
 20
0.0
 30
0.0
 11
0.0
 21
0.0
 31
0.0
  0
CIRCLE
  5
100
330
1F
100
AcDbEntity
  8
0
  6
Continuous
 62
     7
370
    25
100
AcDbCircle
 10
-7.8
 20
15.0
 30
0.0
 40
1.589255924440806
  0
SPLINE
  5
101
330
1F
100
AcDbEntity
  8
0
  6
Continuous
 62
     7
370
    25
100
AcDbSpline
210
0.0
220
0.0
230
1.0
 70
     8
 71
     3
 72
    15
 73
    11
 74
     0
 42
0.000000001
 43
0.00000001
 40
0.0
 40
0.0
 40
0.0
 40
0.0
 40
0.1327548717475875
 40
0.2572338481110643
 40
0.3786007316763534
 40
0.5014062774984543
 40
0.6239419536469547
 40
0.7436418348746466
 40
0.8681208112381233
 40
1.0
 40
1.0
 40
1.0
 40
1.0
 10
-18.91538461538462
 20
15.23018040105037
 30
0.0
 10
-18.91869656413321
 20
15.31845973792349
 30
0.0
 10
-18.92511399582617
 20
15.48951510661641
 30
0.0
 10
-18.9956363700185
 20
15.73284045784455
 30
0.0
 10
-19.10489207807102
 20
15.95314672424519
 30
0.0
 10
-19.25884880084414
 20
16.14385090616113
 30
0.0
 10
-19.44533861085614
 20
16.30056517790387
 30
0.0
 10
-19.66084510403798
 20
16.41712485040642
 30
0.0
 10
-19.90361126855951
 20
16.48437924719206
 30
0.0
 10
-20.07379497528518
 20
16.49279709487961
 30
0.0
 10
-20.16134314903847
 20
16.49712751643499
 30
0.0
  0
SPLINE
  5
102
330
1F
100
AcDbEntity
  8
0
  6
Continuous
 62
     7
370
    25
100
AcDbSpline
210
0.0
220
0.0
230
1.0
 70
     8
 71
     3
 72
    23
 73
    19
 74
     0
 42
0.000000001
 43
0.00000001
 40
0.0
 40
0.0
 40
0.0
 40
0.0
 40
0.0564668684718631
 40
0.1111640986969634
 40
0.1649370968759855
 40
0.2183217523125946
 40
0.2723929232482775
 40
0.3279763434477048
 40
0.3852910519840203
 40
0.4449029182928195
 40
0.5068438192198352
 40
0.5694881852629686
 40
0.6341532155537233
 40
0.7009760953100505
 40
0.7708974968462687
 40
0.8436256105557798
 40
0.9196596761155403
 40
1.0
 40
1.0
 40
1.0
 40
1.0
 10
-20.16134314903847
 20
16.49712751643498
 30
0.0
 10
-20.20657165079646
 20
16.49552780682413
 30
0.0
 10
-20.29561121982882
 20
16.4923785215551
 30
0.0
 10
-20.42649242673968
 20
16.47141458159988
 30
0.0
 10
-20.55103529822259
 20
16.43446782567535
 30
0.0
 10
-20.67062606574106
 20
16.38496437296968
 30
0.0
 10
-20.78398842515248
 20
16.31934719099578
 30
0.0
 10
-20.89083644067215
 20
16.23846356009705
 30
0.0
 10
-20.99229589115397
 20
16.14436891709861
 30
0.0
 10
-21.08790144285349
 20
16.03735748346057
 30
0.0
 10
-21.17491497575983
 20
15.91793269211388
 30
0.0
 10
-21.25220007751517
 20
15.78718524430594
 30
0.0
 10
-21.31610199063763
 20
15.64519629886124
 30
0.0
 10
-21.37236355750815
 20
15.49384032673595
 30
0.0
 10
-21.41575517005354
 20
15.33149164140671
 30
0.0
 10
-21.44734964689097
 20
15.15912188162807
 30
0.0
 10
-21.47136881774758
 20
14.9770114704477
 30
0.0
 10
-21.47694356144804
 20
14.85182768714435
 30
0.0
 10
-21.4798076923077
 20
14.7875121318196
 30
0.0
  0
LINE
  5
103
330
1F
100
AcDbEntity
  8
0
  6
Continuous
 62
     7
370
    25
100
AcDbLine
 10
-21.4798076923
 20
14.7875121318
 30
0.0
 11
-23.1894230769
 21
14.7875121318
 31
0.0
  0
SPLINE
  5
104
330
1F
100
AcDbEntity
  8
0
  6
Continuous
 62
     7
370
    25
100
AcDbSpline
210
0.0
220
0.0
230
1.0
 70
     8
 71
     3
 72
    23
 73
    19
 74
     0
 42
0.000000001
 43
0.00000001
 40
0.0
 40
0.0
 40
0.0
 40
0.0
 40
0.074939910200773
 40
0.1464280851715764
 40
0.2147529716359188
 40
0.2804215366912476
 40
0.3436044295193652
 40
0.4055426388186587
 40
0.4661994619307762
 40
0.5265381448244669
 40
0.5859019063092092
 40
0.6440895746157925
 40
0.7016130759883662
 40
0.7587535874365712
 40
0.816629449389766
 40
0.8756554749553046
 40
0.9366243322865296
 40
1.0
 40
1.0
 40
1.0
 40
1.0
 10
-23.18942307692309
 20
14.7875121318196
 30
0.0
 10
-23.18203951027281
 20
14.91683549106227
 30
0.0
 10
-23.16761246434443
 20
15.16952557050229
 30
0.0
 10
-23.11022532207137
 20
15.53656600198785
 30
0.0
 10
-23.03332852088074
 20
15.88337884837087
 30
0.0
 10
-22.93069953151386
 20
16.20875092052675
 30
0.0
 10
-22.80173949120242
 20
16.51256398870236
 30
0.0
 10
-22.64976687406158
 20
16.79585376819671
 30
0.0
 10
-22.47089912497307
 20
17.05712873204365
 30
0.0
 10
-22.26894313790304
 20
17.2951288648777
 30
0.0
 10
-22.04732756994744
 20
17.50864098028057
 30
0.0
 10
-21.81065337790485
 20
17.69795423522213
 30
0.0
 10
-21.55530031105477
 20
17.85417076881929
 30
0.0
 10
-21.28593387882276
 20
17.98272251318644
 30
0.0
 10
-21.0025999487545
 20
18.08542938338588
 30
0.0
 10
-20.7026177368454
 20
18.15409723753482
 30
0.0
 10
-20.38858465153326
 20
18.20059978105023
 30
0.0
 10
-20.17360357507161
 20
18.20466894019334
 30
0.0
 10
-20.06403245192309
 20
18.20674290105037
 30
0.0
  0
SPLINE
  5
105
330
1F
100
AcDbEntity
  8
0
  6
Continuous
 62
     7
370
    25
100
AcDbSpline
210
0.0
220
0.0
230
1.0
 70
     8
 71
     3
 72
    19
 73
    15
 74
     0
 42
0.000000001
 43
0.00000001
 40
0.0
 40
0.0
 40
0.0
 40
0.0
 40
0.0896145288821156
 40
0.1749485612865262
 40
0.2575481258745669
 40
0.3389007874900943
 40
0.42005318588319
 40
0.5014014271193624
 40
0.5842520267159581
 40
0.6703704767286316
 40
0.7564732666582519
 40
0.8392065940498483
 40
0.9201204666578205
 40
1.0
 40
1.0
 40
1.0
 40
1.0
 10
-20.06403245192309
 20
18.20674290105037
 30
0.0
 10
-19.92953545269027
 20
18.20254624010992
 30
0.0
 10
-19.66696579120057
 20
18.19435337447871
 30
0.0
 10
-19.28543124620129
 20
18.12446551159142
 30
0.0
 10
-18.92911969686761
 20
18.00756726110049
 30
0.0
 10
-18.59829014822423
 20
17.84422957629431
 30
0.0
 10
-18.29575901039513
 20
17.63672616955347
 30
0.0
 10
-18.0215764512676
 20
17.38931231733229
 30
0.0
 10
-17.78403418861752
 20
17.09679714725304
 30
0.0
 10
-17.58162613471531
 20
16.77135173823685
 30
0.0
 10
-17.41344923283848
 20
16.42675085263428
 30
0.0
 10
-17.29559786537902
 20
16.07041924692772
 30
0.0
 10
-17.21813542994252
 20
15.71181251710651
 30
0.0
 10
-17.20987358176975
 20
15.47034489620424
 30
0.0
 10
-17.20576923076924
 20
15.35038773278114
 30
0.0
  0
SPLINE
  5
106
330
1F
100
AcDbEntity
  8
0
  6
Continuous
 62
     7
370
    25
100
AcDbSpline
210
0.0
220
0.0
230
1.0
 70
     8
 71
     3
 72
    23
 73
    19
 74
     0
 42
0.000000001
 43
0.00000001
 40
0.0
 40
0.0
 40
0.0
 40
0.0
 40
0.0455177516513181
 40
0.0916159906181649
 40
0.1392465550335722
 40
0.1882415637234042
 40
0.2386730793725372
 40
0.2906638743206422
 40
0.3448398555786328
 40
0.4004316067351774
 40
0.4591437176132944
 40
0.5225510475946146
 40
0.5901008583230447
 40
0.6622596565248673
 40
0.7396813070012567
 40
0.8215754713854225
 40
0.9083300466844453
 40
1.0
 40
1.0
 40
1.0
 40
1.0
 10
-17.20576923076924
 20
15.35038773278114
 30
0.0
 10
-17.20736724829678
 20
15.2778291621628
 30
0.0
 10
-17.21058366284931
 20
15.13178668238569
 30
0.0
 10
-17.2329478206334
 20
14.91078856658937
 30
0.0
 10
-17.26649847647372
 20
14.68567614773043
 30
0.0
 10
-17.31708468914457
 20
14.45664243872754
 30
0.0
 10
-17.38016984348783
 20
14.22362323782323
 30
0.0
 10
-17.45670125400177
 20
13.98592119864056
 30
0.0
 10
-17.54845414204411
 20
13.74488400459089
 30
0.0
 10
-17.65389733819194
 20
13.49779882327901
 30
0.0
 10
-17.77969133843162
 20
13.24386346590168
 30
0.0
 10
-17.92616096630089
 20
12.97927134255223
 30
0.0
 10
-18.09719385763094
 20
12.70425716728495
 30
0.0
 10
-18.29072415081264
 20
12.4172681205057
 30
0.0
 10
-18.5076917760273
 20
12.11875682838692
 30
0.0
 10
-18.74915589761035
 20
11.80962250009694
 30
0.0
 10
-19.01233541591063
 20
11.48877584490091
 30
0.0
 10
-19.19912132364983
 20
11.27430786132819
 30
0.0
 10
-19.29508713942309
 20
11.16411970393498
 30
0.0
  0
LINE
  5
107
330
1F
100
AcDbEntity
  8
0
  6
Continuous
 62
     7
370
    25
100
AcDbLine
 10
-19.2950871394
 20
11.1641197039
 30
0.0
 11
-20.2891826923
 21
10.0250121318
 31
0.0
  0
LINE
  5
108
330
1F
100
AcDbEntity
  8
0
  6
Continuous
 62
     7
370
    25
100
AcDbLine
 10
-20.2891826923
 20
10.0250121318
 30
0.0
 11
-17.0836538462
 21
10.0250121318
 31
0.0
  0
LINE
  5
109
330
1F
100
AcDbEntity
  8
0
  6
Continuous
 62
     7
370
    25
100
AcDbLine
 10
-17.0836538462
 20
10.0250121318
 30
0.0
 11
-17.0836538462
 21
8.4375121318
 31
0.0
  0
LINE
  5
10A
330
1F
100
AcDbEntity
  8
0
  6
Continuous
 62
     7
370
    25
100
AcDbLine
 10
-17.0836538462
 20
8.4375121318
 30
0.0
 11
-23.4336538462
 21
8.4375121318
 31
0.0
  0
LINE
  5
10B
330
1F
100
AcDbEntity
  8
0
  6
Continuous
 62
     7
370
    25
100
AcDbLine
 10
-23.4336538462
 20
8.4375121318
 30
0.0
 11
-23.4336538462
 21
9.3037681414
 31
0.0
  0
LINE
  5
10C
330
1F
100
AcDbEntity
  8
0
  6
Continuous
 62
     7
370
    25
100
AcDbLine
 10
-23.4336538462
 20
9.3037681414
 30
0.0
 11
-20.6135516827
 21
12.3051353289
 31
0.0
  0
SPLINE
  5
10D
330
1F
100
AcDbEntity
  8
0
  6
Continuous
 62
     7
370
    25
100
AcDbSpline
210
0.0
220
0.0
230
1.0
 70
     8
 71
     3
 72
    19
 73
    15
 74
     0
 42
0.000000001
 43
0.00000001
 40
0.0
 40
0.0
 40
0.0
 40
0.0
 40
0.10384392426342
 40
0.2011148859465237
 40
0.2911157193792177
 40
0.3743484039713639
 40
0.4507073961858716
 40
0.5200404120163618
 40
0.5832583224453374
 40
0.639578299825326
 40
0.7415365099482681
 40
0.8350600486817367
 40
0.9208729600458343
 40
1.0
 40
1.0
 40
1.0
 40
1.0
 10
-20.61355168269232
 20
12.30513532893498
 30
0.0
 10
-20.53190247803712
 20
12.39268614178562
 30
0.0
 10
-20.37377218203444
 20
12.56224610271618
 30
0.0
 10
-20.14876906701116
 20
12.81126294431279
 30
0.0
 10
-19.9451611235766
 20
13.04757398303329
 30
0.0
 10
-19.76717032803049
 20
13.27369545471991
 30
0.0
 10
-19.60545595255703
 20
13.48229289902793
 30
0.0
 10
-19.4672288284596
 20
13.67965370324471
 30
0.0
 10
-19.35122428577013
 20
13.86399365461096
 30
0.0
 10
-19.22528490152718
 20
14.08627544126399
 30
0.0
 10
-19.10568388566268
 20
14.35138602670328
 30
0.0
 10
-18.99594271498055
 20
14.65680429144741
 30
0.0
 10
-18.92904787717382
 20
14.94871381293151
 30
0.0
 10
-18.91981427404457
 20
15.13892833190438
 30
0.0
 10
-18.91538461538462
 20
15.23018040105037
 30
0.0
  0
SPLINE
  5
10E
330
1F
100
AcDbEntity
  8
0
  6
Continuous
 62
     7
370
    25
100
AcDbSpline
210
0.0
220
0.0
230
1.0
 70
     8
 71
     3
 72
    15
 73
    11
 74
     0
 42
0.000000001
 43
0.00000001
 40
0.0
 40
0.0
 40
0.0
 40
0.0
 40
0.1327548717475877
 40
0.257233848111064
 40
0.3786007316763532
 40
0.501406277498454
 40
0.6239419536469545
 40
0.7436418348746464
 40
0.8681208112381232
 40
1.0
 40
1.0
 40
1.0
 40
1.0
 10
-26.24230769230769
 20
15.23018040105037
 30
0.0
 10
-26.24561964105629
 20
15.31845973792349
 30
0.0
 10
-26.25203707274924
 20
15.48951510661641
 30
0.0
 10
-26.32255944694157
 20
15.73284045784456
 30
0.0
 10
-26.43181515499409
 20
15.95314672424518
 30
0.0
 10
-26.58577187776721
 20
16.14385090616114
 30
0.0
 10
-26.77226168777921
 20
16.30056517790387
 30
0.0
 10
-26.98776818096106
 20
16.41712485040642
 30
0.0
 10
-27.23053434548257
 20
16.48437924719207
 30
0.0
 10
-27.40071805220824
 20
16.49279709487961
 30
0.0
 10
-27.48826622596154
 20
16.49712751643498
 30
0.0
  0
SPLINE
  5
10F
330
1F
100
AcDbEntity
  8
0
  6
Continuous
 62
     7
370
    25
100
AcDbSpline
210
0.0
220
0.0
230
1.0
 70
     8
 71
     3
 72
    23
 73
    19
 74
     0
 42
0.000000001
 43
0.00000001
 40
0.0
 40
0.0
 40
0.0
 40
0.0
 40
0.0564668684718631
 40
0.1111640986969634
 40
0.1649370968759855
 40
0.2183217523125946
 40
0.2723929232482775
 40
0.3279763434477049
 40
0.3852910519840204
 40
0.4449029182928195
 40
0.5068438192198353
 40
0.5694881852629687
 40
0.6341532155537234
 40
0.7009760953100506
 40
0.7708974968462688
 40
0.8436256105557796
 40
0.9196596761155402
 40
1.0
 40
1.0
 40
1.0
 40
1.0
 10
-27.48826622596154
 20
16.49712751643499
 30
0.0
 10
-27.53349472771954
 20
16.49552780682413
 30
0.0
 10
-27.6225342967519
 20
16.4923785215551
 30
0.0
 10
-27.75341550366275
 20
16.47141458159988
 30
0.0
 10
-27.87795837514564
 20
16.43446782567534
 30
0.0
 10
-27.99754914266413
 20
16.38496437296968
 30
0.0
 10
-28.11091150207554
 20
16.31934719099578
 30
0.0
 10
-28.21775951759522
 20
16.23846356009705
 30
0.0
 10
-28.31921896807704
 20
16.14436891709861
 30
0.0
 10
-28.41482451977656
 20
16.03735748346057
 30
0.0
 10
-28.5018380526829
 20
15.91793269211388
 30
0.0
 10
-28.57912315443825
 20
15.78718524430595
 30
0.0
 10
-28.6430250675607
 20
15.64519629886124
 30
0.0
 10
-28.69928663443121
 20
15.49384032673595
 30
0.0
 10
-28.74267824697661
 20
15.33149164140672
 30
0.0
 10
-28.77427272381403
 20
15.15912188162807
 30
0.0
 10
-28.79829189467065
 20
14.9770114704477
 30
0.0
 10
-28.80386663837111
 20
14.85182768714435
 30
0.0
 10
-28.80673076923077
 20
14.7875121318196
 30
0.0
  0
LINE
  5
110
330
1F
100
AcDbEntity
  8
0
  6
Continuous
 62
     7
370
    25
100
AcDbLine
 10
-28.8067307692
 20
14.7875121318
 30
0.0
 11
-30.5163461538
 21
14.7875121318
 31
0.0
  0
SPLINE
  5
111
330
1F
100
AcDbEntity
  8
0
  6
Continuous
 62
     7
370
    25
100
AcDbSpline
210
0.0
220
0.0
230
1.0
 70
     8
 71
     3
 72
    23
 73
    19
 74
     0
 42
0.000000001
 43
0.00000001
 40
0.0
 40
0.0
 40
0.0
 40
0.0
 40
0.074939910200773
 40
0.1464280851715764
 40
0.2147529716359188
 40
0.2804215366912476
 40
0.3436044295193652
 40
0.4055426388186587
 40
0.4661994619307762
 40
0.5265381448244669
 40
0.5859019063092092
 40
0.6440895746157925
 40
0.7016130759883662
 40
0.7587535874365712
 40
0.816629449389766
 40
0.8756554749553046
 40
0.9366243322865296
 40
1.0
 40
1.0
 40
1.0
 40
1.0
 10
-30.51634615384615
 20
14.7875121318196
 30
0.0
 10
-30.50896258719588
 20
14.91683549106227
 30
0.0
 10
-30.4945355412675
 20
15.16952557050229
 30
0.0
 10
-30.43714839899443
 20
15.53656600198785
 30
0.0
 10
-30.36025159780381
 20
15.88337884837087
 30
0.0
 10
-30.25762260843693
 20
16.20875092052675
 30
0.0
 10
-30.12866256812549
 20
16.51256398870236
 30
0.0
 10
-29.97668995098465
 20
16.79585376819671
 30
0.0
 10
-29.79782220189614
 20
17.05712873204365
 30
0.0
 10
-29.59586621482611
 20
17.2951288648777
 30
0.0
 10
-29.37425064687051
 20
17.50864098028057
 30
0.0
 10
-29.13757645482791
 20
17.69795423522213
 30
0.0
 10
-28.88222338797784
 20
17.85417076881929
 30
0.0
 10
-28.61285695574583
 20
17.98272251318644
 30
0.0
 10
-28.32952302567757
 20
18.08542938338588
 30
0.0
 10
-28.02954081376847
 20
18.15409723753482
 30
0.0
 10
-27.71550772845633
 20
18.20059978105023
 30
0.0
 10
-27.50052665199468
 20
18.20466894019334
 30
0.0
 10
-27.39095552884616
 20
18.20674290105037
 30
0.0
  0
SPLINE
  5
112
330
1F
100
AcDbEntity
  8
0
  6
Continuous
 62
     7
370
    25
100
AcDbSpline
210
0.0
220
0.0
230
1.0
 70
     8
 71
     3
 72
    19
 73
    15
 74
     0
 42
0.000000001
 43
0.00000001
 40
0.0
 40
0.0
 40
0.0
 40
0.0
 40
0.0896145288821156
 40
0.1749485612865262
 40
0.2575481258745669
 40
0.3389007874900949
 40
0.4200531858831907
 40
0.5014014271193625
 40
0.5842520267159582
 40
0.6703704767286313
 40
0.7564732666582519
 40
0.8392065940498483
 40
0.9201204666578205
 40
1.0
 40
1.0
 40
1.0
 40
1.0
 10
-27.39095552884616
 20
18.20674290105037
 30
0.0
 10
-27.25645852961334
 20
18.20254624010992
 30
0.0
 10
-26.99388886812364
 20
18.19435337447871
 30
0.0
 10
-26.61235432312436
 20
18.12446551159142
 30
0.0
 10
-26.25604277379069
 20
18.00756726110049
 30
0.0
 10
-25.92521322514729
 20
17.8442295762943
 30
0.0
 10
-25.6226820873182
 20
17.63672616955348
 30
0.0
 10
-25.34849952819066
 20
17.38931231733229
 30
0.0
 10
-25.11095726554058
 20
17.09679714725304
 30
0.0
 10
-24.90854921163839
 20
16.77135173823685
 30
0.0
 10
-24.74037230976154
 20
16.42675085263427
 30
0.0
 10
-24.6225209423021
 20
16.07041924692772
 30
0.0
 10
-24.54505850686559
 20
15.71181251710651
 30
0.0
 10
-24.53679665869281
 20
15.47034489620424
 30
0.0
 10
-24.53269230769231
 20
15.35038773278114
 30
0.0
  0
SPLINE
  5
113
330
1F
100
AcDbEntity
  8
0
  6
Continuous
 62
     7
370
    25
100
AcDbSpline
210
0.0
220
0.0
230
1.0
 70
     8
 71
     3
 72
    23
 73
    19
 74
     0
 42
0.000000001
 43
0.00000001
 40
0.0
 40
0.0
 40
0.0
 40
0.0
 40
0.0455177516513181
 40
0.0916159906181648
 40
0.1392465550335721
 40
0.1882415637234041
 40
0.238673079372537
 40
0.2906638743206421
 40
0.3448398555786324
 40
0.4004316067351772
 40
0.4591437176132939
 40
0.5225510475946141
 40
0.5901008583230446
 40
0.6622596565248672
 40
0.7396813070012564
 40
0.8215754713854219
 40
0.9083300466844457
 40
1.0
 40
1.0
 40
1.0
 40
1.0
 10
-24.53269230769231
 20
15.35038773278114
 30
0.0
 10
-24.53429032521985
 20
15.2778291621628
 30
0.0
 10
-24.53750673977239
 20
15.13178668238569
 30
0.0
 10
-24.55987089755647
 20
14.91078856658937
 30
0.0
 10
-24.59342155339679
 20
14.68567614773043
 30
0.0
 10
-24.64400776606764
 20
14.45664243872753
 30
0.0
 10
-24.7070929204109
 20
14.22362323782324
 30
0.0
 10
-24.78362433092484
 20
13.98592119864056
 30
0.0
 10
-24.87537721896717
 20
13.74488400459089
 30
0.0
 10
-24.98082041511502
 20
13.49779882327902
 30
0.0
 10
-25.10661441535468
 20
13.24386346590167
 30
0.0
 10
-25.25308404322396
 20
12.97927134255224
 30
0.0
 10
-25.42411693455399
 20
12.70425716728495
 30
0.0
 10
-25.61764722773571
 20
12.41726812050571
 30
0.0
 10
-25.83461485295038
 20
12.11875682838693
 30
0.0
 10
-26.07607897453341
 20
11.80962250009693
 30
0.0
 10
-26.33925849283371
 20
11.48877584490092
 30
0.0
 10
-26.52604440057291
 20
11.27430786132819
 30
0.0
 10
-26.62201021634615
 20
11.16411970393498
 30
0.0
  0
LINE
  5
114
330
1F
100
AcDbEntity
  8
0
  6
Continuous
 62
     7
370
    25
100
AcDbLine
 10
-26.6220102163
 20
11.1641197039
 30
0.0
 11
-27.6161057692
 21
10.0250121318
 31
0.0
  0
LINE
  5
115
330
1F
100
AcDbEntity
  8
0
  6
Continuous
 62
     7
370
    25
100
AcDbLine
 10
-27.6161057692
 20
10.0250121318
 30
0.0
 11
-24.4105769231
 21
10.0250121318
 31
0.0
  0
LINE
  5
116
330
1F
100
AcDbEntity
  8
0
  6
Continuous
 62
     7
370
    25
100
AcDbLine
 10
-24.4105769231
 20
10.0250121318
 30
0.0
 11
-24.4105769231
 21
8.4375121318
 31
0.0
  0
LINE
  5
117
330
1F
100
AcDbEntity
  8
0
  6
Continuous
 62
     7
370
    25
100
AcDbLine
 10
-24.4105769231
 20
8.4375121318
 30
0.0
 11
-30.7605769231
 21
8.4375121318
 31
0.0
  0
LINE
  5
118
330
1F
100
AcDbEntity
  8
0
  6
Continuous
 62
     7
370
    25
100
AcDbLine
 10
-30.7605769231
 20
8.4375121318
 30
0.0
 11
-30.7605769231
 21
9.3037681414
 31
0.0
  0
LINE
  5
119
330
1F
100
AcDbEntity
  8
0
  6
Continuous
 62
     7
370
    25
100
AcDbLine
 10
-30.7605769231
 20
9.3037681414
 30
0.0
 11
-27.9404747596
 21
12.3051353289
 31
0.0
  0
SPLINE
  5
11A
330
1F
100
AcDbEntity
  8
0
  6
Continuous
 62
     7
370
    25
100
AcDbSpline
210
0.0
220
0.0
230
1.0
 70
     8
 71
     3
 72
    19
 73
    15
 74
     0
 42
0.000000001
 43
0.00000001
 40
0.0
 40
0.0
 40
0.0
 40
0.0
 40
0.10384392426342
 40
0.2011148859465237
 40
0.2911157193792177
 40
0.3743484039713633
 40
0.4507073961858716
 40
0.5200404120163612
 40
0.5832583224453379
 40
0.639578299825326
 40
0.7415365099482681
 40
0.8350600486817367
 40
0.9208729600458342
 40
1.0
 40
1.0
 40
1.0
 40
1.0
 10
-27.94047475961539
 20
12.30513532893498
 30
0.0
 10
-27.85882555496019
 20
12.39268614178562
 30
0.0
 10
-27.70069525895751
 20
12.56224610271618
 30
0.0
 10
-27.47569214393423
 20
12.81126294431279
 30
0.0
 10
-27.27208420049965
 20
13.04757398303328
 30
0.0
 10
-27.09409340495358
 20
13.27369545471992
 30
0.0
 10
-26.9323790294801
 20
13.48229289902793
 30
0.0
 10
-26.79415190538268
 20
13.67965370324472
 30
0.0
 10
-26.6781473626932
 20
13.86399365461096
 30
0.0
 10
-26.55220797845026
 20
14.08627544126399
 30
0.0
 10
-26.43260696258575
 20
14.35138602670329
 30
0.0
 10
-26.32286579190362
 20
14.65680429144741
 30
0.0
 10
-26.25597095409688
 20
14.9487138129315
 30
0.0
 10
-26.24673735096764
 20
15.13892833190438
 30
0.0
 10
-26.24230769230769
 20
15.23018040105037
 30
0.0
  0
SPLINE
  5
11B
330
1F
100
AcDbEntity
  8
0
  6
Continuous
 62
     7
370
    25
100
AcDbSpline
210
0.0
220
0.0
230
1.0
 70
     8
 71
     3
 72
    23
 73
    19
 74
     0
 42
0.000000001
 43
0.00000001
 40
0.0
 40
0.0
 40
0.0
 40
0.0
 40
0.0667486513092664
 40
0.1311519760901758
 40
0.1937321970570966
 40
0.2553255433785995
 40
0.3163881857773864
 40
0.3780268629068864
 40
0.4404056792054024
 40
0.5045574293240813
 40
0.568658287362015
 40
0.6309861790900109
 40
0.692288134873299
 40
0.7526154469796399
 40
0.8131995384355636
 40
0.8740161248607815
 40
0.9361583555105316
 40
1.0
 40
1.0
 40
1.0
 40
1.0
 10
-60.34112079326917
 20
8.193281362588829
 30
0.0
 10
-60.5163003349812
 20
8.19725131409324
 30
0.0
 10
-60.86050418952284
 20
8.205051726155107
 30
0.0
 10
-61.36424807151295
 20
8.279230083765059
 30
0.0
 10
-61.84687823758428
 20
8.390968602995601
 30
0.0
 10
-62.30434031644236
 20
8.557732348566585
 30
0.0
 10
-62.74129316835274
 20
8.766201053141874
 30
0.0
 10
-63.15452637239083
 20
9.022942761339944
 30
0.0
 10
-63.54390105509852
 20
9.32753318765951
 30
0.0
 10
-63.90718369946383
 20
9.672171658182158
 30
0.0
 10
-64.23631865504473
 20
10.0492817355581
 30
0.0
 10
-64.52684481340981
 20
10.44766509055707
 30
0.0
 10
-64.77191007280086
 20
10.86427842468919
 30
0.0
 10
-64.97152339967785
 20
11.29931672183713
 30
0.0
 10
-65.12889052795617
 20
11.75007632486562
 30
0.0
 10
-65.23989515686667
 20
12.21930248979909
 30
0.0
 10
-65.30546824006875
 20
12.70586984193896
 30
0.0
 10
-65.31460218980813
 20
13.03635611409453
 30
0.0
 10
-65.31923076923071
 20
13.20382823758883
 30
0.0
  0
SPLINE
  5
11C
330
1F
100
AcDbEntity
  8
0
  6
Continuous
 62
     7
370
    25
100
AcDbSpline
210
0.0
220
0.0
230
1.0
 70
     8
 71
     3
 72
    31
 73
    27
 74
     0
 42
0.000000001
 43
0.00000001
 40
0.0
 40
0.0
 40
0.0
 40
0.0
 40
0.0431143456619736
 40
0.085682764824209
 40
0.1275943241639275
 40
0.1690586225605483
 40
0.2104320288213098
 40
0.2518111664630529
 40
0.2934438397982396
 40
0.3353808532218246
 40
0.3774766059607945
 40
0.4186884906768267
 40
0.459873033671199
 40
0.5008729046253154
 40
0.5418727755794319
 40
0.5832117768673236
 40
0.6247632017340765
 40
0.6669876223820894
 40
0.7093697058942404
 40
0.7511026519448579
 40
0.792568380120221
 40
0.8335451085502587
 40
0.8748274225565257
 40
0.916017723211068
 40
0.9578592039763051
 40
1.0
 40
1.0
 40
1.0
 40
1.0
 10
-65.31923076923071
 20
13.20382823758883
 30
0.0
 10
-65.31777805436394
 20
13.31649471507902
 30
0.0
 10
-65.31489101933244
 20
13.54040105405142
 30
0.0
 10
-65.28011364121748
 20
13.87221881902473
 30
0.0
 10
-65.23004421551714
 20
14.19755994672928
 30
0.0
 10
-65.15599391066303
 20
14.51512729736027
 30
0.0
 10
-65.0660417167471
 20
14.8271611609061
 30
0.0
 10
-64.94949594283074
 20
15.13075704887942
 30
0.0
 10
-64.81683531206136
 20
15.429158200278
 30
0.0
 10
-64.6618338555129
 20
15.71884012385023
 30
0.0
 10
-64.48948722317004
 20
15.9971375038298
 30
0.0
 10
-64.30144170278746
 20
16.26273756289308
 30
0.0
 10
-64.09722445646095
 20
16.51242880805463
 30
0.0
 10
-63.87749333559387
 20
16.74785210733645
 30
0.0
 10
-63.64149111699119
 20
16.96746000630104
 30
0.0
 10
-63.39232216606216
 20
17.17436136050558
 30
0.0
 10
-63.12515405599979
 20
17.36306013429903
 30
0.0
 10
-62.84583425848031
 20
17.53816472809603
 30
0.0
 10
-62.55593751428576
 20
17.69650877552586
 30
0.0
 10
-62.25664396612891
 20
17.83128649310141
 30
0.0
 10
-61.95411965233588
 20
17.94898557815441
 30
0.0
 10
-61.64432325607893
 20
18.04187890031416
 30
0.0
 10
-61.33057479681903
 20
18.11753953934945
 30
0.0
 10
-61.00952250781419
 20
18.16757521827877
 30
0.0
 10
-60.68406691397939
 20
18.20235163330722
 30
0.0
 10
-60.4646011410838
 20
18.20527567135066
 30
0.0
 10
-60.35447716346149
 20
18.20674290105037
 30
0.0
  0
SPLINE
  5
11D
330
1F
100
AcDbEntity
  8
0
  6
Continuous
 62
     7
370
    25
100
AcDbSpline
210
0.0
220
0.0
230
1.0
 70
     8
 71
     3
 72
    23
 73
    19
 74
     0
 42
0.000000001
 43
0.00000001
 40
0.0
 40
0.0
 40
0.0
 40
0.0
 40
0.0633955966615907
 40
0.1251572666424212
 40
0.1856494665262535
 40
0.245976679340815
 40
0.3061083686579568
 40
0.3673505880891753
 40
0.4299020782799144
 40
0.4945399581831938
 40
0.5593725826940477
 40
0.6224096858457371
 40
0.684357425819475
 40
0.7458066007722104
 40
0.8074302750159149
 40
0.8699955160697815
 40
0.9339278677192726
 40
1.0
 40
1.0
 40
1.0
 40
1.0
 10
-60.35447716346148
 20
18.20674290105037
 30
0.0
 10
-60.18887336498307
 20
18.20245512214575
 30
0.0
 10
-59.86193395823214
 20
18.1939900754244
 30
0.0
 10
-59.38112407111662
 20
18.12342730435791
 30
0.0
 10
-58.91777484344565
 20
18.00845538503991
 30
0.0
 10
-58.47209580040676
 20
17.84863610133902
 30
0.0
 10
-58.04520287109194
 20
17.63964073488521
 30
0.0
 10
-57.63559026120996
 20
17.38739444144691
 30
0.0
 10
-57.24472518371557
 20
17.08713622336091
 30
0.0
 10
-56.87661291050696
 20
16.74587060949264
 30
0.0
 10
-56.53641077964988
 20
16.37475915566733
 30
0.0
 10
-56.24162543456398
 20
15.97519169719803
 30
0.0
 10
-55.9902433068139
 20
15.55752142832474
 30
0.0
 10
-55.78189712677028
 20
15.12062918938791
 30
0.0
 10
-55.62320273094434
 20
14.66148929328399
 30
0.0
 10
-55.51184030945041
 20
14.18244274662211
 30
0.0
 10
-55.44029547094027
 20
13.68362583376572
 30
0.0
 10
-55.43206671371855
 20
13.34399950560589
 30
0.0
 10
-55.42788461538456
 20
13.17139133855037
 30
0.0
  0
SPLINE
  5
11E
330
1F
100
AcDbEntity
  8
0
  6
Continuous
 62
     7
370
    25
100
AcDbSpline
210
0.0
220
0.0
230
1.0
 70
     8
 71
     3
 72
    23
 73
    19
 74
     0
 42
0.000000001
 43
0.00000001
 40
0.0
 40
0.0
 40
0.0
 40
0.0
 40
0.0657223151915613
 40
0.1295079307025843
 40
0.1917221026921613
 40
0.2531611245020889
 40
0.3143157037352577
 40
0.3759517397728626
 40
0.4386196008234089
 40
0.5029729018927768
 40
0.5671286457242652
 40
0.6295522895796745
 40
0.6904767824348742
 40
0.7510723384108291
 40
0.8116678943867836
 40
0.8729293555873914
 40
0.935501370715808
 40
1.0
 40
1.0
 40
1.0
 40
1.0
 10
-55.42788461538456
 20
13.17139133855037
 30
0.0
 10
-55.43233836915474
 20
13.00072806687165
 30
0.0
 10
-55.44111463385197
 20
12.66443061451286
 30
0.0
 10
-55.50891953595487
 20
12.17021049595352
 30
0.0
 10
-55.62215731458685
 20
11.69629553588867
 30
0.0
 10
-55.77816012892891
 20
11.24161301714789
 30
0.0
 10
-55.98272769695041
 20
10.80836526578853
 30
0.0
 10
-56.22920759948587
 20
10.39378605527589
 30
0.0
 10
-56.52410397261031
 20
10.00172277987983
 30
0.0
 10
-56.85666078747446
 20
9.632385835666572
 30
0.0
 10
-57.22277698023079
 20
9.297133307724112
 30
0.0
 10
-57.61055214848108
 20
9.001692596441496
 30
0.0
 10
-58.01819578616331
 20
8.751347286861986
 30
0.0
 10
-58.445111233045
 20
8.546212049265083
 30
0.0
 10
-58.89221398882491
 20
8.387014146035806
 30
0.0
 10
-59.35839965502831
 20
8.27468845743548
 30
0.0
 10
-59.84363938423612
 20
8.206425868392548
 30
0.0
 10
-60.17362593170915
 20
8.197706929333417
 30
0.0
 10
-60.34112079326917
 20
8.193281362588829
 30
0.0
  0
SPLINE
  5
11F
330
1F
100
AcDbEntity
  8
0
  6
Continuous
 62
     7
370
    25
100
AcDbSpline
210
0.0
220
0.0
230
1.0
 70
     8
 71
     3
 72
    23
 73
    19
 74
     0
 42
0.000000001
 43
0.00000001
 40
0.0
 40
0.0
 40
0.0
 40
0.0
 40
0.0667486513092664
 40
0.1311519760901758
 40
0.1937321970570966
 40
0.2553255433785986
 40
0.3163881857773864
 40
0.3780268629068864
 40
0.4404056792054024
 40
0.5045574293240813
 40
0.568658287362015
 40
0.6309861790900109
 40
0.692288134873299
 40
0.7526154469796399
 40
0.8131995384355636
 40
0.8740161248607815
 40
0.9361583555105316
 40
1.0
 40
1.0
 40
1.0
 40
1.0
 10
-79.14689002403844
 20
8.193281362588829
 30
0.0
 10
-79.32206956575045
 20
8.19725131409324
 30
0.0
 10
-79.6662734202921
 20
8.205051726155107
 30
0.0
 10
-80.17001730228219
 20
8.279230083765057
 30
0.0
 10
-80.65264746835355
 20
8.390968602995601
 30
0.0
 10
-81.11010954721164
 20
8.557732348566587
 30
0.0
 10
-81.54706239912201
 20
8.766201053141872
 30
0.0
 10
-81.9602956031601
 20
9.022942761339944
 30
0.0
 10
-82.34967028586777
 20
9.32753318765951
 30
0.0
 10
-82.71295293023309
 20
9.672171658182158
 30
0.0
 10
-83.04208788581398
 20
10.0492817355581
 30
0.0
 10
-83.33261404417907
 20
10.44766509055707
 30
0.0
 10
-83.57767930357014
 20
10.86427842468919
 30
0.0
 10
-83.77729263044712
 20
11.29931672183713
 30
0.0
 10
-83.93465975872545
 20
11.75007632486562
 30
0.0
 10
-84.04566438763595
 20
12.21930248979909
 30
0.0
 10
-84.11123747083799
 20
12.70586984193896
 30
0.0
 10
-84.12037142057738
 20
13.03635611409453
 30
0.0
 10
-84.12499999999997
 20
13.20382823758883
 30
0.0
  0
SPLINE
  5
120
330
1F
100
AcDbEntity
  8
0
  6
Continuous
 62
     7
370
    25
100
AcDbSpline
210
0.0
220
0.0
230
1.0
 70
     8
 71
     3
 72
    31
 73
    27
 74
     0
 42
0.000000001
 43
0.00000001
 40
0.0
 40
0.0
 40
0.0
 40
0.0
 40
0.0431143456619736
 40
0.085682764824209
 40
0.1275943241639275
 40
0.1690586225605483
 40
0.2104320288213098
 40
0.2518111664630529
 40
0.2934438397982396
 40
0.3353808532218246
 40
0.3774766059607945
 40
0.4186884906768267
 40
0.459873033671199
 40
0.5008729046253154
 40
0.5418727755794319
 40
0.5832117768673236
 40
0.6247632017340765
 40
0.6669876223820894
 40
0.7093697058942404
 40
0.7511026519448587
 40
0.7925683801202209
 40
0.8335451085502594
 40
0.8748274225565256
 40
0.9160177232110679
 40
0.9578592039763059
 40
1.0
 40
1.0
 40
1.0
 40
1.0
 10
-84.12499999999997
 20
13.20382823758883
 30
0.0
 10
-84.1235472851332
 20
13.31649471507902
 30
0.0
 10
-84.12066025010171
 20
13.54040105405142
 30
0.0
 10
-84.08588287198674
 20
13.87221881902473
 30
0.0
 10
-84.03581344628641
 20
14.19755994672928
 30
0.0
 10
-83.96176314143229
 20
14.51512729736027
 30
0.0
 10
-83.87181094751638
 20
14.8271611609061
 30
0.0
 10
-83.75526517360001
 20
15.13075704887942
 30
0.0
 10
-83.62260454283062
 20
15.429158200278
 30
0.0
 10
-83.46760308628217
 20
15.71884012385023
 30
0.0
 10
-83.29525645393929
 20
15.9971375038298
 30
0.0
 10
-83.10721093355673
 20
16.26273756289308
 30
0.0
 10
-82.9029936872302
 20
16.51242880805463
 30
0.0
 10
-82.68326256636314
 20
16.74785210733645
 30
0.0
 10
-82.44726034776045
 20
16.96746000630104
 30
0.0
 10
-82.19809139683142
 20
17.17436136050558
 30
0.0
 10
-81.93092328676904
 20
17.36306013429903
 30
0.0
 10
-81.65160348924958
 20
17.53816472809603
 30
0.0
 10
-81.36170674505502
 20
17.69650877552586
 30
0.0
 10
-81.06241319689822
 20
17.83128649310142
 30
0.0
 10
-80.75988888310512
 20
17.94898557815441
 30
0.0
 10
-80.45009248684823
 20
18.04187890031416
 30
0.0
 10
-80.1363440275883
 20
18.11753953934945
 30
0.0
 10
-79.81529173858347
 20
18.16757521827878
 30
0.0
 10
-79.48983614474865
 20
18.20235163330722
 30
0.0
 10
-79.27037037185306
 20
18.20527567135066
 30
0.0
 10
-79.16024639423075
 20
18.20674290105037
 30
0.0
  0
SPLINE
  5
121
330
1F
100
AcDbEntity
  8
0
  6
Continuous
 62
     7
370
    25
100
AcDbSpline
210
0.0
220
0.0
230
1.0
 70
     8
 71
     3
 72
    23
 73
    19
 74
     0
 42
0.000000001
 43
0.00000001
 40
0.0
 40
0.0
 40
0.0
 40
0.0
 40
0.0633955966615916
 40
0.1251572666424212
 40
0.1856494665262535
 40
0.245976679340815
 40
0.3061083686579568
 40
0.3673505880891753
 40
0.4299020782799137
 40
0.4945399581831931
 40
0.5593725826940475
 40
0.622409685845737
 40
0.6843574258194749
 40
0.7458066007722107
 40
0.8074302750159149
 40
0.8699955160697814
 40
0.9339278677192726
 40
1.0
 40
1.0
 40
1.0
 40
1.0
 10
-79.16024639423075
 20
18.20674290105037
 30
0.0
 10
-78.99464259575232
 20
18.20245512214575
 30
0.0
 10
-78.66770318900141
 20
18.1939900754244
 30
0.0
 10
-78.18689330188586
 20
18.1234273043579
 30
0.0
 10
-77.72354407421491
 20
18.00845538503991
 30
0.0
 10
-77.27786503117603
 20
17.84863610133902
 30
0.0
 10
-76.8509721018612
 20
17.63964073488521
 30
0.0
 10
-76.44135949197926
 20
17.38739444144692
 30
0.0
 10
-76.05049441448483
 20
17.0871362233609
 30
0.0
 10
-75.68238214127625
 20
16.74587060949265
 30
0.0
 10
-75.34218001041911
 20
16.37475915566733
 30
0.0
 10
-75.04739466533324
 20
15.97519169719802
 30
0.0
 10
-74.79601253758314
 20
15.55752142832474
 30
0.0
 10
-74.58766635753953
 20
15.12062918938792
 30
0.0
 10
-74.42897196171359
 20
14.66148929328399
 30
0.0
 10
-74.31760954021969
 20
14.18244274662211
 30
0.0
 10
-74.24606470170953
 20
13.68362583376572
 30
0.0
 10
-74.23783594448783
 20
13.34399950560589
 30
0.0
 10
-74.23365384615383
 20
13.17139133855037
 30
0.0
  0
SPLINE
  5
122
330
1F
100
AcDbEntity
  8
0
  6
Continuous
 62
     7
370
    25
100
AcDbSpline
210
0.0
220
0.0
230
1.0
 70
     8
 71
     3
 72
    23
 73
    19
 74
     0
 42
0.000000001
 43
0.00000001
 40
0.0
 40
0.0
 40
0.0
 40
0.0
 40
0.0657223151915613
 40
0.1295079307025842
 40
0.1917221026921612
 40
0.2531611245020886
 40
0.3143157037352577
 40
0.3759517397728626
 40
0.4386196008234088
 40
0.5029729018927773
 40
0.5671286457242645
 40
0.6295522895796751
 40
0.6904767824348741
 40
0.7510723384108297
 40
0.8116678943867834
 40
0.8729293555873922
 40
0.935501370715807
 40
1.0
 40
1.0
 40
1.0
 40
1.0
 10
-74.23365384615383
 20
13.17139133855037
 30
0.0
 10
-74.238107599924
 20
13.00072806687165
 30
0.0
 10
-74.24688386462122
 20
12.66443061451286
 30
0.0
 10
-74.31468876672416
 20
12.17021049595353
 30
0.0
 10
-74.42792654535609
 20
11.69629553588867
 30
0.0
 10
-74.58392935969816
 20
11.24161301714788
 30
0.0
 10
-74.7884969277197
 20
10.80836526578853
 30
0.0
 10
-75.0349768302551
 20
10.39378605527588
 30
0.0
 10
-75.32987320337956
 20
10.00172277987983
 30
0.0
 10
-75.66243001824374
 20
9.632385835666577
 30
0.0
 10
-76.02854621100005
 20
9.297133307724103
 30
0.0
 10
-76.4163213792503
 20
9.001692596441496
 30
0.0
 10
-76.82396501693259
 20
8.75134728686198
 30
0.0
 10
-77.25088046381427
 20
8.546212049265087
 30
0.0
 10
-77.69798321959416
 20
8.3870141460358
 30
0.0
 10
-78.16416888579758
 20
8.274688457435488
 30
0.0
 10
-78.64940861500538
 20
8.206425868392543
 30
0.0
 10
-78.97939516247841
 20
8.197706929333421
 30
0.0
 10
-79.14689002403844
 20
8.193281362588829
 30
0.0
  0
SPLINE
  5
123
330
1F
100
AcDbEntity
  8
0
  6
Continuous
 62
     7
370
    25
100
AcDbSpline
210
0.0
220
0.0
230
1.0
 70
     8
 71
     3
 72
    23
 73
    19
 74
     0
 42
0.000000001
 43
0.00000001
 40
0.0
 40
0.0
 40
0.0
 40
0.0
 40
0.0667486513092681
 40
0.1311519760901759
 40
0.1937321970570949
 40
0.2553255433786003
 40
0.3163881857773865
 40
0.3780268629068864
 40
0.4404056792054011
 40
0.5045574293240801
 40
0.568658287362015
 40
0.6309861790900109
 40
0.6922881348732999
 40
0.7526154469796392
 40
0.8131995384355629
 40
0.8740161248607814
 40
0.9361583555105315
 40
1.0
 40
1.0
 40
1.0
 40
1.0
 10
-134.9536207932692
 20
8.193281362588829
 30
0.0
 10
-135.1288003349813
 20
8.197251314093242
 30
0.0
 10
-135.4730041895229
 20
8.205051726155105
 30
0.0
 10
-135.976748071513
 20
8.279230083765055
 30
0.0
 10
-136.4593782375844
 20
8.390968602995606
 30
0.0
 10
-136.9168403164424
 20
8.55773234856658
 30
0.0
 10
-137.3537931683527
 20
8.766201053141872
 30
0.0
 10
-137.767026372391
 20
9.022942761339946
 30
0.0
 10
-138.1564010550985
 20
9.327533187659512
 30
0.0
 10
-138.5196836994639
 20
9.672171658182167
 30
0.0
 10
-138.8488186550448
 20
10.04928173555809
 30
0.0
 10
-139.1393448134099
 20
10.44766509055708
 30
0.0
 10
-139.3844100728009
 20
10.86427842468918
 30
0.0
 10
-139.5840233996778
 20
11.29931672183714
 30
0.0
 10
-139.7413905279562
 20
11.75007632486563
 30
0.0
 10
-139.8523951568668
 20
12.21930248979909
 30
0.0
 10
-139.9179682400687
 20
12.70586984193896
 30
0.0
 10
-139.9271021898082
 20
13.03635611409453
 30
0.0
 10
-139.9317307692308
 20
13.20382823758883
 30
0.0
  0
SPLINE
  5
124
330
1F
100
AcDbEntity
  8
0
  6
Continuous
 62
     7
370
    25
100
AcDbSpline
210
0.0
220
0.0
230
1.0
 70
     8
 71
     3
 72
    31
 73
    27
 74
     0
 42
0.000000001
 43
0.00000001
 40
0.0
 40
0.0
 40
0.0
 40
0.0
 40
0.0431143456619736
 40
0.0856827648242093
 40
0.1275943241639279
 40
0.169058622560548
 40
0.2104320288213104
 40
0.251811166463053
 40
0.2934438397982396
 40
0.3353808532218255
 40
0.3774766059607945
 40
0.4186884906768268
 40
0.4598730336712001
 40
0.5008729046253154
 40
0.5418727755794333
 40
0.5832117768673235
 40
0.6247632017340764
 40
0.666987622382091
 40
0.7093697058942403
 40
0.7511026519448587
 40
0.7925683801202226
 40
0.8335451085502595
 40
0.8748274225565257
 40
0.9160177232110679
 40
0.9578592039763059
 40
1.0
 40
1.0
 40
1.0
 40
1.0
 10
-139.9317307692308
 20
13.20382823758883
 30
0.0
 10
-139.930278054364
 20
13.31649471507901
 30
0.0
 10
-139.9273910193325
 20
13.54040105405143
 30
0.0
 10
-139.8926136412175
 20
13.87221881902474
 30
0.0
 10
-139.8425442155171
 20
14.19755994672927
 30
0.0
 10
-139.7684939106631
 20
14.51512729736028
 30
0.0
 10
-139.6785417167471
 20
14.82716116090608
 30
0.0
 10
-139.5619959428309
 20
15.13075704887943
 30
0.0
 10
-139.4293353120614
 20
15.429158200278
 30
0.0
 10
-139.2743338555129
 20
15.71884012385021
 30
0.0
 10
-139.1019872231701
 20
15.99713750382982
 30
0.0
 10
-138.9139417027875
 20
16.26273756289308
 30
0.0
 10
-138.709724456461
 20
16.51242880805462
 30
0.0
 10
-138.4899933355939
 20
16.74785210733646
 30
0.0
 10
-138.2539911169912
 20
16.96746000630103
 30
0.0
 10
-138.0048221660622
 20
17.17436136050558
 30
0.0
 10
-137.7376540559999
 20
17.36306013429904
 30
0.0
 10
-137.4583342584803
 20
17.53816472809601
 30
0.0
 10
-137.1684375142859
 20
17.69650877552587
 30
0.0
 10
-136.8691439661289
 20
17.8312864931014
 30
0.0
 10
-136.566619652336
 20
17.94898557815442
 30
0.0
 10
-136.2568232560789
 20
18.04187890031415
 30
0.0
 10
-135.9430747968191
 20
18.11753953934946
 30
0.0
 10
-135.6220225078142
 20
18.16757521827877
 30
0.0
 10
-135.2965669139794
 20
18.20235163330722
 30
0.0
 10
-135.0771011410839
 20
18.20527567135066
 30
0.0
 10
-134.9669771634615
 20
18.20674290105037
 30
0.0
  0
SPLINE
  5
125
330
1F
100
AcDbEntity
  8
0
  6
Continuous
 62
     7
370
    25
100
AcDbSpline
210
0.0
220
0.0
230
1.0
 70
     8
 71
     3
 72
    23
 73
    19
 74
     0
 42
0.000000001
 43
0.00000001
 40
0.0
 40
0.0
 40
0.0
 40
0.0
 40
0.0633955966615915
 40
0.1251572666424211
 40
0.1856494665262533
 40
0.2459766793408165
 40
0.3061083686579582
 40
0.3673505880891736
 40
0.4299020782799148
 40
0.4945399581831941
 40
0.5593725826940484
 40
0.6224096858457369
 40
0.6843574258194757
 40
0.74580660077221
 40
0.8074302750159152
 40
0.8699955160697818
 40
0.9339278677192726
 40
1.0
 40
1.0
 40
1.0
 40
1.0
 10
-134.9669771634615
 20
18.20674290105037
 30
0.0
 10
-134.8013733649831
 20
18.20245512214575
 30
0.0
 10
-134.4744339582322
 20
18.1939900754244
 30
0.0
 10
-133.9936240711167
 20
18.1234273043579
 30
0.0
 10
-133.5302748434457
 20
18.00845538503991
 30
0.0
 10
-133.0845958004068
 20
17.84863610133902
 30
0.0
 10
-132.657702871092
 20
17.63964073488522
 30
0.0
 10
-132.2480902612101
 20
17.3873944414469
 30
0.0
 10
-131.8572251837157
 20
17.08713622336091
 30
0.0
 10
-131.489112910507
 20
16.74587060949265
 30
0.0
 10
-131.1489107796499
 20
16.37475915566734
 30
0.0
 10
-130.854125434564
 20
15.97519169719801
 30
0.0
 10
-130.6027433068139
 20
15.55752142832475
 30
0.0
 10
-130.3943971267704
 20
15.12062918938791
 30
0.0
 10
-130.2357027309444
 20
14.661489293284
 30
0.0
 10
-130.1243403094505
 20
14.18244274662211
 30
0.0
 10
-130.0527954709403
 20
13.68362583376572
 30
0.0
 10
-130.0445667137186
 20
13.34399950560589
 30
0.0
 10
-130.0403846153846
 20
13.17139133855037
 30
0.0
  0
SPLINE
  5
126
330
1F
100
AcDbEntity
  8
0
  6
Continuous
 62
     7
370
    25
100
AcDbSpline
210
0.0
220
0.0
230
1.0
 70
     8
 71
     3
 72
    23
 73
    19
 74
     0
 42
0.000000001
 43
0.00000001
 40
0.0
 40
0.0
 40
0.0
 40
0.0
 40
0.0657223151915613
 40
0.1295079307025843
 40
0.1917221026921613
 40
0.2531611245020886
 40
0.314315703735257
 40
0.3759517397728619
 40
0.4386196008234103
 40
0.5029729018927777
 40
0.5671286457242648
 40
0.629552289579674
 40
0.690476782434876
 40
0.75107233841083
 40
0.8116678943867853
 40
0.8729293555873923
 40
0.9355013707158089
 40
1.0
 40
1.0
 40
1.0
 40
1.0
 10
-130.0403846153846
 20
13.17139133855037
 30
0.0
 10
-130.0448383691548
 20
13.00072806687165
 30
0.0
 10
-130.053614633852
 20
12.66443061451286
 30
0.0
 10
-130.1214195359549
 20
12.17021049595352
 30
0.0
 10
-130.2346573145869
 20
11.69629553588867
 30
0.0
 10
-130.390660128929
 20
11.24161301714788
 30
0.0
 10
-130.5952276969504
 20
10.80836526578853
 30
0.0
 10
-130.8417075994859
 20
10.39378605527588
 30
0.0
 10
-131.1366039726104
 20
10.00172277987985
 30
0.0
 10
-131.4691607874745
 20
9.632385835666573
 30
0.0
 10
-131.8352769802308
 20
9.297133307724112
 30
0.0
 10
-132.2230521484811
 20
9.001692596441485
 30
0.0
 10
-132.6306957861634
 20
8.751347286861993
 30
0.0
 10
-133.0576112330451
 20
8.546212049265078
 30
0.0
 10
-133.504713988825
 20
8.387014146035808
 30
0.0
 10
-133.9708996550284
 20
8.274688457435483
 30
0.0
 10
-134.4561393842362
 20
8.206425868392545
 30
0.0
 10
-134.7861259317092
 20
8.197706929333421
 30
0.0
 10
-134.9536207932692
 20
8.193281362588829
 30
0.0
  0
SPLINE
  5
127
330
1F
100
AcDbEntity
  8
0
  6
Continuous
 62
     7
370
    25
100
AcDbSpline
210
0.0
220
0.0
230
1.0
 70
     8
 71
     3
 72
    23
 73
    19
 74
     0
 42
0.000000001
 43
0.00000001
 40
0.0
 40
0.0
 40
0.0
 40
0.0
 40
0.0667486513092681
 40
0.1311519760901759
 40
0.1937321970570949
 40
0.2553255433786003
 40
0.3163881857773865
 40
0.3780268629068864
 40
0.4404056792054011
 40
0.5045574293240801
 40
0.568658287362015
 40
0.6309861790900109
 40
0.6922881348732999
 40
0.7526154469796392
 40
0.8131995384355629
 40
0.8740161248607814
 40
0.9361583555105315
 40
1.0
 40
1.0
 40
1.0
 40
1.0
 10
-153.7593900240384
 20
8.193281362588829
 30
0.0
 10
-153.9345695657505
 20
8.197251314093242
 30
0.0
 10
-154.2787734202921
 20
8.205051726155105
 30
0.0
 10
-154.7825173022821
 20
8.279230083765055
 30
0.0
 10
-155.2651474683536
 20
8.390968602995606
 30
0.0
 10
-155.7226095472116
 20
8.55773234856658
 30
0.0
 10
-156.1595623991219
 20
8.766201053141872
 30
0.0
 10
-156.5727956031602
 20
9.022942761339946
 30
0.0
 10
-156.9621702858678
 20
9.327533187659512
 30
0.0
 10
-157.3254529302331
 20
9.672171658182167
 30
0.0
 10
-157.654587885814
 20
10.04928173555809
 30
0.0
 10
-157.9451140441791
 20
10.44766509055708
 30
0.0
 10
-158.1901793035701
 20
10.86427842468918
 30
0.0
 10
-158.3897926304471
 20
11.29931672183714
 30
0.0
 10
-158.5471597587255
 20
11.75007632486563
 30
0.0
 10
-158.658164387636
 20
12.21930248979909
 30
0.0
 10
-158.7237374708379
 20
12.70586984193896
 30
0.0
 10
-158.7328714205774
 20
13.03635611409453
 30
0.0
 10
-158.7375
 20
13.20382823758883
 30
0.0
  0
SPLINE
  5
128
330
1F
100
AcDbEntity
  8
0
  6
Continuous
 62
     7
370
    25
100
AcDbSpline
210
0.0
220
0.0
230
1.0
 70
     8
 71
     3
 72
    31
 73
    27
 74
     0
 42
0.000000001
 43
0.00000001
 40
0.0
 40
0.0
 40
0.0
 40
0.0
 40
0.0431143456619736
 40
0.0856827648242093
 40
0.1275943241639279
 40
0.169058622560548
 40
0.2104320288213104
 40
0.251811166463053
 40
0.2934438397982396
 40
0.3353808532218255
 40
0.3774766059607945
 40
0.4186884906768268
 40
0.4598730336712001
 40
0.5008729046253154
 40
0.5418727755794333
 40
0.5832117768673235
 40
0.6247632017340764
 40
0.666987622382091
 40
0.7093697058942403
 40
0.7511026519448587
 40
0.7925683801202226
 40
0.8335451085502595
 40
0.8748274225565257
 40
0.9160177232110679
 40
0.9578592039763059
 40
1.0
 40
1.0
 40
1.0
 40
1.0
 10
-158.7375
 20
13.20382823758883
 30
0.0
 10
-158.7360472851332
 20
13.31649471507901
 30
0.0
 10
-158.7331602501017
 20
13.54040105405143
 30
0.0
 10
-158.6983828719867
 20
13.87221881902474
 30
0.0
 10
-158.6483134462864
 20
14.19755994672927
 30
0.0
 10
-158.5742631414324
 20
14.51512729736028
 30
0.0
 10
-158.4843109475163
 20
14.82716116090608
 30
0.0
 10
-158.3677651736
 20
15.13075704887943
 30
0.0
 10
-158.2351045428306
 20
15.429158200278
 30
0.0
 10
-158.0801030862821
 20
15.71884012385021
 30
0.0
 10
-157.9077564539393
 20
15.99713750382982
 30
0.0
 10
-157.7197109335567
 20
16.26273756289308
 30
0.0
 10
-157.5154936872302
 20
16.51242880805462
 30
0.0
 10
-157.2957625663631
 20
16.74785210733646
 30
0.0
 10
-157.0597603477604
 20
16.96746000630103
 30
0.0
 10
-156.8105913968314
 20
17.17436136050558
 30
0.0
 10
-156.5434232867691
 20
17.36306013429904
 30
0.0
 10
-156.2641034892495
 20
17.53816472809601
 30
0.0
 10
-155.9742067450551
 20
17.69650877552587
 30
0.0
 10
-155.6749131968981
 20
17.8312864931014
 30
0.0
 10
-155.3723888831052
 20
17.94898557815442
 30
0.0
 10
-155.0625924868481
 20
18.04187890031415
 30
0.0
 10
-154.7488440275883
 20
18.11753953934946
 30
0.0
 10
-154.4277917385834
 20
18.16757521827877
 30
0.0
 10
-154.1023361447486
 20
18.20235163330722
 30
0.0
 10
-153.882870371853
 20
18.20527567135066
 30
0.0
 10
-153.7727463942308
 20
18.20674290105037
 30
0.0
  0
SPLINE
  5
129
330
1F
100
AcDbEntity
  8
0
  6
Continuous
 62
     7
370
    25
100
AcDbSpline
210
0.0
220
0.0
230
1.0
 70
     8
 71
     3
 72
    23
 73
    19
 74
     0
 42
0.000000001
 43
0.00000001
 40
0.0
 40
0.0
 40
0.0
 40
0.0
 40
0.0633955966615915
 40
0.1251572666424211
 40
0.1856494665262533
 40
0.2459766793408165
 40
0.3061083686579582
 40
0.3673505880891736
 40
0.4299020782799148
 40
0.4945399581831941
 40
0.5593725826940484
 40
0.6224096858457369
 40
0.6843574258194757
 40
0.74580660077221
 40
0.8074302750159152
 40
0.8699955160697818
 40
0.9339278677192726
 40
1.0
 40
1.0
 40
1.0
 40
1.0
 10
-153.7727463942308
 20
18.20674290105037
 30
0.0
 10
-153.6071425957524
 20
18.20245512214575
 30
0.0
 10
-153.2802031890014
 20
18.1939900754244
 30
0.0
 10
-152.7993933018859
 20
18.1234273043579
 30
0.0
 10
-152.3360440742149
 20
18.00845538503991
 30
0.0
 10
-151.890365031176
 20
17.84863610133902
 30
0.0
 10
-151.4634721018612
 20
17.63964073488522
 30
0.0
 10
-151.0538594919792
 20
17.3873944414469
 30
0.0
 10
-150.6629944144849
 20
17.08713622336091
 30
0.0
 10
-150.2948821412762
 20
16.74587060949265
 30
0.0
 10
-149.9546800104191
 20
16.37475915566734
 30
0.0
 10
-149.6598946653332
 20
15.97519169719801
 30
0.0
 10
-149.4085125375831
 20
15.55752142832475
 30
0.0
 10
-149.2001663575396
 20
15.12062918938791
 30
0.0
 10
-149.0414719617136
 20
14.661489293284
 30
0.0
 10
-148.9301095402197
 20
14.18244274662211
 30
0.0
 10
-148.8585647017095
 20
13.68362583376572
 30
0.0
 10
-148.8503359444879
 20
13.34399950560589
 30
0.0
 10
-148.8461538461538
 20
13.17139133855037
 30
0.0
  0
SPLINE
  5
12A
330
1F
100
AcDbEntity
  8
0
  6
Continuous
 62
     7
370
    25
100
AcDbSpline
210
0.0
220
0.0
230
1.0
 70
     8
 71
     3
 72
    23
 73
    19
 74
     0
 42
0.000000001
 43
0.00000001
 40
0.0
 40
0.0
 40
0.0
 40
0.0
 40
0.0657223151915613
 40
0.1295079307025843
 40
0.1917221026921613
 40
0.2531611245020886
 40
0.314315703735257
 40
0.3759517397728619
 40
0.4386196008234103
 40
0.5029729018927777
 40
0.5671286457242648
 40
0.629552289579674
 40
0.690476782434876
 40
0.75107233841083
 40
0.8116678943867853
 40
0.8729293555873923
 40
0.9355013707158089
 40
1.0
 40
1.0
 40
1.0
 40
1.0
 10
-148.8461538461538
 20
13.17139133855037
 30
0.0
 10
-148.850607599924
 20
13.00072806687165
 30
0.0
 10
-148.8593838646212
 20
12.66443061451286
 30
0.0
 10
-148.9271887667241
 20
12.17021049595352
 30
0.0
 10
-149.0404265453561
 20
11.69629553588867
 30
0.0
 10
-149.1964293596982
 20
11.24161301714788
 30
0.0
 10
-149.4009969277197
 20
10.80836526578853
 30
0.0
 10
-149.6474768302551
 20
10.39378605527588
 30
0.0
 10
-149.9423732033796
 20
10.00172277987985
 30
0.0
 10
-150.2749300182437
 20
9.632385835666573
 30
0.0
 10
-150.6410462110001
 20
9.297133307724112
 30
0.0
 10
-151.0288213792503
 20
9.001692596441485
 30
0.0
 10
-151.4364650169326
 20
8.751347286861993
 30
0.0
 10
-151.8633804638143
 20
8.546212049265078
 30
0.0
 10
-152.3104832195942
 20
8.387014146035808
 30
0.0
 10
-152.7766688857976
 20
8.274688457435483
 30
0.0
 10
-153.2619086150054
 20
8.206425868392545
 30
0.0
 10
-153.5918951624785
 20
8.197706929333421
 30
0.0
 10
-153.7593900240384
 20
8.193281362588829
 30
0.0
  0
LINE
  5
12B
330
1F
100
AcDbEntity
  8
0
  6
Continuous
 62
     7
370
    25
100
AcDbLine
 10
-181.6417668269
 20
8.4375121318
 30
0.0
 11
-183.4658653846
 21
8.4375121318
 31
0.0
  0
LINE
  5
12C
330
1F
100
AcDbEntity
  8
0
  6
Continuous
 62
     7
370
    25
100
AcDbLine
 10
-183.4658653846
 20
8.4375121318
 30
0.0
 11
-179.6173227163
 21
17.9625121318
 31
0.0
  0
LINE
  5
12D
330
1F
100
AcDbEntity
  8
0
  6
Continuous
 62
     7
370
    25
100
AcDbLine
 10
-179.6173227163
 20
17.9625121318
 30
0.0
 11
-178.0317307692
 21
17.9625121318
 31
0.0
  0
LINE
  5
12E
330
1F
100
AcDbEntity
  8
0
  6
Continuous
 62
     7
370
    25
100
AcDbLine
 10
-178.0317307692
 20
17.9625121318
 30
0.0
 11
-174.1850961538
 21
8.4375121318
 31
0.0
  0
LINE
  5
12F
330
1F
100
AcDbEntity
  8
0
  6
Continuous
 62
     7
370
    25
100
AcDbLine
 10
-174.1850961538
 20
8.4375121318
 30
0.0
 11
-176.0111027644
 21
8.4375121318
 31
0.0
  0
LINE
  5
130
330
1F
100
AcDbEntity
  8
0
  6
Continuous
 62
     7
370
    25
100
AcDbLine
 10
-176.0111027644
 20
8.4375121318
 30
0.0
 11
-176.7514272837
 21
10.3913582857
 31
0.0
  0
LINE
  5
131
330
1F
100
AcDbEntity
  8
0
  6
Continuous
 62
     7
370
    25
100
AcDbLine
 10
-176.7514272837
 20
10.3913582857
 30
0.0
 11
-180.9014423077
 21
10.3913582857
 31
0.0
  0
LINE
  5
132
330
1F
100
AcDbEntity
  8
0
  6
Continuous
 62
     7
370
    25
100
AcDbLine
 10
-180.9014423077
 20
10.3913582857
 30
0.0
 11
-181.6417668269
 21
8.4375121318
 31
0.0
  0
LINE
  5
133
330
1F
100
AcDbEntity
  8
0
  6
Continuous
 62
     7
370
    25
100
AcDbLine
 10
-180.2527043269
 20
12.1009736703
 30
0.0
 11
-177.3982572115
 21
12.1009736703
 31
0.0
  0
LINE
  5
134
330
1F
100
AcDbEntity
  8
0
  6
Continuous
 62
     7
370
    25
100
AcDbLine
 10
-177.3982572115
 20
12.1009736703
 30
0.0
 11
-178.8254807692
 21
15.4076293193
 31
0.0
  0
LINE
  5
135
330
1F
100
AcDbEntity
  8
0
  6
Continuous
 62
     7
370
    25
100
AcDbLine
 10
-178.8254807692
 20
15.4076293193
 30
0.0
 11
-180.2527043269
 21
12.1009736703
 31
0.0
  0
LINE
  5
136
330
1F
100
AcDbEntity
  8
0
  6
Continuous
 62
     7
370
    25
100
AcDbLine
 10
-163.6507361779
 20
16.2528967472
 30
0.0
 11
-164.2326923077
 21
16.2528967472
 31
0.0
  0
LINE
  5
137
330
1F
100
AcDbEntity
  8
0
  6
Continuous
 62
     7
370
    25
100
AcDbLine
 10
-164.2326923077
 20
16.2528967472
 30
0.0
 11
-164.2326923077
 21
14.2990505934
 31
0.0
  0
LINE
  5
138
330
1F
100
AcDbEntity
  8
0
  6
Continuous
 62
     7
370
    25
100
AcDbLine
 10
-164.2326923077
 20
14.2990505934
 30
0.0
 11
-163.566781851
 21
14.2990505934
 31
0.0
  0
SPLINE
  5
139
330
1F
100
AcDbEntity
  8
0
  6
Continuous
 62
     7
370
    25
100
AcDbSpline
210
0.0
220
0.0
230
1.0
 70
     8
 71
     3
 72
    23
 73
    19
 74
     0
 42
0.000000001
 43
0.00000001
 40
0.0
 40
0.0
 40
0.0
 40
0.0
 40
0.1055399964402597
 40
0.2020864154635899
 40
0.2906848989424193
 40
0.3705526096211937
 40
0.4426702615663787
 40
0.5076749275738702
 40
0.5655732034810437
 40
0.6164546657486192
 40
0.6633313570051017
 40
0.7088620244966146
 40
0.753411800349631
 40
0.7985150107871106
 40
0.845064321440117
 40
0.893873119008404
 40
0.9447078060036515
 40
1.0
 40
1.0
 40
1.0
 40
1.0
 10
-163.5667818509615
 20
14.29905059335806
 30
0.0
 10
-163.4853687622395
 20
14.29996752228127
 30
0.0
 10
-163.3294801908298
 20
14.30172324414575
 30
0.0
 10
-163.1052919505504
 20
14.30986700991421
 30
0.0
 10
-162.9016755623281
 20
14.32948946128709
 30
0.0
 10
-162.7177566286772
 20
14.35428169523592
 30
0.0
 10
-162.5526096862347
 20
14.38290790966709
 30
0.0
 10
-162.4077077874654
 20
14.42393101296617
 30
0.0
 10
-162.280818215272
 20
14.4678883066234
 30
0.0
 10
-162.173444615836
 20
14.52251582003355
 30
0.0
 10
-162.0817070796542
 20
14.58463915099657
 30
0.0
 10
-162.0024975887883
 20
14.65521279927111
 30
0.0
 10
-161.9369799825846
 20
14.73689281083344
 30
0.0
 10
-161.8830556508222
 20
14.82745947531405
 30
0.0
 10
-161.8411083834325
 20
14.92771383256218
 30
0.0
 10
-161.8104900917846
 20
15.03655531689748
 30
0.0
 10
-161.7933789945575
 20
15.15522377283111
 30
0.0
 10
-161.7914103045365
 20
15.23712116569026
 30
0.0
 10
-161.7903846153846
 20
15.27978977605037
 30
0.0
  0
SPLINE
  5
13A
330
1F
100
AcDbEntity
  8
0
  6
Continuous
 62
     7
370
    25
100
AcDbSpline
210
0.0
220
0.0
230
1.0
 70
     8
 71
     3
 72
    23
 73
    19
 74
     0
 42
0.000000001
 43
0.00000001
 40
0.0
 40
0.0
 40
0.0
 40
0.0
 40
0.0637689599577406
 40
0.1252623047603761
 40
0.1854135826663934
 40
0.2468067624960872
 40
0.3094223888497014
 40
0.3725326822170142
 40
0.4377332507368618
 40
0.5057495167426354
 40
0.5440132631112747
 40
0.5883695992066366
 40
0.6403890193945139
 40
0.697897400587708
 40
0.7632716192951013
 40
0.8349786038393184
 40
0.913873655843442
 40
1.0
 40
1.0
 40
1.0
 40
1.0
 10
-161.7903846153846
 20
15.27978977605037
 30
0.0
 10
-161.7923237747017
 20
15.33026985707128
 30
0.0
 10
-161.7961328938331
 20
15.42942862173297
 30
0.0
 10
-161.8339311893294
 20
15.57218247350569
 30
0.0
 10
-161.8940979110895
 20
15.70431093032708
 30
0.0
 10
-161.9765700073253
 20
15.82521700309776
 30
0.0
 10
-162.0804328904705
 20
15.93121161286299
 30
0.0
 10
-162.1996237434001
 20
16.02464670549994
 30
0.0
 10
-162.3367149924028
 20
16.0985281855438
 30
0.0
 10
-162.4636511727092
 20
16.14725962313336
 30
0.0
 10
-162.5791334265202
 20
16.17641614495917
 30
0.0
 10
-162.683352517179
 20
16.19814332716993
 30
0.0
 10
-162.80403885164
 20
16.21354200483264
 30
0.0
 10
-162.9412835414882
 20
16.22987504349359
 30
0.0
 10
-163.0947367453388
 20
16.24046619230959
 30
0.0
 10
-163.265234874934
 20
16.24819561987347
 30
0.0
 10
-163.4522882609157
 20
16.25135810841155
 30
0.0
 10
-163.5826822365176
 20
16.25236910027407
 30
0.0
 10
-163.6507361778846
 20
16.25289674720421
 30
0.0
  0
SPLINE
  5
13B
330
1F
100
AcDbEntity
  8
0
  6
Continuous
 62
     7
370
    25
100
AcDbSpline
210
0.0
220
0.0
230
1.0
 70
     8
 71
     3
 72
    23
 73
    19
 74
     0
 42
0.000000001
 43
0.00000001
 40
0.0
 40
0.0
 40
0.0
 40
0.0
 40
0.0641474448766712
 40
0.1262121152536866
 40
0.1868412890216912
 40
0.2469358694509794
 40
0.3072563614860021
 40
0.3681505022006766
 40
0.4300707669516576
 40
0.4938754417369543
 40
0.5579806818508464
 40
0.620869525928535
 40
0.6825247313751582
 40
0.744035698105771
 40
0.8058886825781888
 40
0.8689681377436669
 40
0.9332474288479398
 40
1.0
 40
1.0
 40
1.0
 40
1.0
 10
-153.7651141826923
 20
9.902896747204213
 30
0.0
 10
-153.6555792566394
 20
9.90591259278196
 30
0.0
 10
-153.4400658447201
 20
9.911846363805543
 30
0.0
 10
-153.1234302414054
 20
9.956258297428713
 30
0.0
 10
-152.8200837164304
 20
10.03141932412085
 30
0.0
 10
-152.5281430688875
 20
10.13452992892709
 30
0.0
 10
-152.2484501250929
 20
10.26858730985003
 30
0.0
 10
-151.9823718208813
 20
10.43386380435739
 30
0.0
 10
-151.7294416483419
 20
10.62833002990188
 30
0.0
 10
-151.4905240413256
 20
10.84791971137092
 30
0.0
 10
-151.2721420546001
 20
11.09037298292841
 30
0.0
 10
-151.0816110408659
 20
11.35056383068477
 30
0.0
 10
-150.916753732527
 20
11.62275947158845
 30
0.0
 10
-150.7857220056956
 20
11.91081242218165
 30
0.0
 10
-150.6810097036407
 20
12.21200359742795
 30
0.0
 10
-150.6101244376131
 20
12.5276669082296
 30
0.0
 10
-150.5643988322273
 20
12.85650107053555
 30
0.0
 10
-150.5586817354361
 20
13.08028433868609
 30
0.0
 10
-150.5557692307692
 20
13.19428797316575
 30
0.0
  0
SPLINE
  5
13C
330
1F
100
AcDbEntity
  8
0
  6
Continuous
 62
     7
370
    25
100
AcDbSpline
210
0.0
220
0.0
230
1.0
 70
     8
 71
     3
 72
    23
 73
    19
 74
     0
 42
0.000000001
 43
0.00000001
 40
0.0
 40
0.0
 40
0.0
 40
0.0
 40
0.065939124057659
 40
0.1297911093795354
 40
0.19217523630533
 40
0.2536170442157543
 40
0.3147191079962371
 40
0.3762822754113766
 40
0.4389729923739144
 40
0.503174701838644
 40
0.5673294646239482
 40
0.6296509938060315
 40
0.6906498673030977
 40
0.7512376127977869
 40
0.811754113823609
 40
0.8727877774488564
 40
0.9355396326682327
 40
1.0
 40
1.0
 40
1.0
 40
1.0
 10
-150.5557692307692
 20
13.19428797316575
 30
0.0
 10
-150.5587825085034
 20
13.30763605527398
 30
0.0
 10
-150.5647136861702
 20
13.53074446827027
 30
0.0
 10
-150.6092037874604
 20
13.8587332002059
 30
0.0
 10
-150.6838881623949
 20
14.17300295004
 30
0.0
 10
-150.7873083975401
 20
14.47406695345807
 30
0.0
 10
-150.919370561306
 20
14.7622203649285
 30
0.0
 10
-151.0826788241672
 20
15.03644986673199
 30
0.0
 10
-151.2766601576454
 20
15.29649034599013
 30
0.0
 10
-151.4968500933962
 20
15.54056972627989
 30
0.0
 10
-151.7365133053055
 20
15.76486304214332
 30
0.0
 10
-151.9938157101863
 20
15.95950886790196
 30
0.0
 10
-152.261557697947
 20
16.12864990179834
 30
0.0
 10
-152.5458825761104
 20
16.26114815795169
 30
0.0
 10
-152.8409732956753
 20
16.36670923756174
 30
0.0
 10
-153.1486305158878
 20
16.44444593130837
 30
0.0
 10
-153.4700195073112
 20
16.48791911250919
 30
0.0
 10
-153.6886670834272
 20
16.49403068814066
 30
0.0
 10
-153.7994591346154
 20
16.49712751643499
 30
0.0
  0
SPLINE
  5
13D
330
1F
100
AcDbEntity
  8
0
  6
Continuous
 62
     7
370
    25
100
AcDbSpline
210
0.0
220
0.0
230
1.0
 70
     8
 71
     3
 72
    23
 73
    19
 74
     0
 42
0.000000001
 43
0.00000001
 40
0.0
 40
0.0
 40
0.0
 40
0.0
 40
0.0646087354707748
 40
0.1275117897236788
 40
0.1885213083986491
 40
0.2487081790893699
 40
0.3085982651789139
 40
0.3688122491095551
 40
0.4298875018150777
 40
0.4928024479242465
 40
0.5557433321027936
 40
0.6174852948395658
 40
0.6789689634380384
 40
0.7401976913545544
 40
0.8023601016976099
 40
0.8662447764427323
 40
0.9317068283956892
 40
1.0
 40
1.0
 40
1.0
 40
1.0
 10
-153.7994591346153
 20
16.49712751643498
 30
0.0
 10
-153.9109104690961
 20
16.49413702689256
 30
0.0
 10
-154.1308708045395
 20
16.48823499722234
 30
0.0
 10
-154.4535125583102
 20
16.44326951384039
 30
0.0
 10
-154.7632600361477
 20
16.37145452582518
 30
0.0
 10
-155.0583961851561
 20
16.26743139325331
 30
0.0
 10
-155.3402001511355
 20
16.13503634666753
 30
0.0
 10
-155.6091714852107
 20
15.97473199040054
 30
0.0
 10
-155.861585490442
 20
15.78100804157492
 30
0.0
 10
-156.1008078636165
 20
15.56426467515932
 30
0.0
 10
-156.3169059131633
 20
15.32276275429024
 30
0.0
 10
-156.5078353571733
 20
15.06395237436443
 30
0.0
 10
-156.6676125492238
 20
14.78826574442248
 30
0.0
 10
-156.8014269484916
 20
14.49826392810612
 30
0.0
 10
-156.9021595337197
 20
14.19068593170064
 30
0.0
 10
-156.9739083339462
 20
13.86794104703058
 30
0.0
 10
-157.0192508974844
 20
13.52947316854945
 30
0.0
 10
-157.0249663839496
 20
13.29874005638918
 30
0.0
 10
-157.0278846153846
 20
13.18093160297344
 30
0.0
  0
SPLINE
  5
13E
330
1F
100
AcDbEntity
  8
0
  6
Continuous
 62
     7
370
    25
100
AcDbSpline
210
0.0
220
0.0
230
1.0
 70
     8
 71
     3
 72
    15
 73
    11
 74
     0
 42
0.000000001
 43
0.00000001
 40
0.0
 40
0.0
 40
0.0
 40
0.0
 40
0.1348068327792199
 40
0.2641990558543171
 40
0.3884618167279428
 40
0.5099420983643722
 40
0.6304096106127699
 40
0.7506710345119787
 40
0.8734547255294227
 40
1.0
 40
1.0
 40
1.0
 40
1.0
 10
-157.0278846153846
 20
13.18093160297344
 30
0.0
 10
-157.0240154860333
 20
13.05037333592068
 30
0.0
 10
-157.016432633588
 20
12.79450076493751
 30
0.0
 10
-156.9630787615025
 20
12.42124075229846
 30
0.0
 10
-156.8717955973444
 20
12.06873371637914
 30
0.0
 10
-156.7399844830935
 20
11.73870371641715
 30
0.0
 10
-156.5765041203726
 20
11.42748601641257
 30
0.0
 10
-156.3734874558324
 20
11.13889503167008
 30
0.0
 10
-156.1342223984024
 20
10.87120281420401
 30
0.0
 10
-155.9498945365949
 20
10.71491294749394
 30
0.0
 10
-155.8563401442308
 20
10.63558905489652
 30
0.0
  0
SPLINE
  5
13F
330
1F
100
AcDbEntity
  8
0
  6
Continuous
 62
     7
370
    25
100
AcDbSpline
210
0.0
220
0.0
230
1.0
 70
     8
 71
     3
 72
    15
 73
    11
 74
     0
 42
0.000000001
 43
0.00000001
 40
0.0
 40
0.0
 40
0.0
 40
0.0
 40
0.1279910255623708
 40
0.2530983915017107
 40
0.3761840584327914
 40
0.4989363124701308
 40
0.6215258806257277
 40
0.7457068938016905
 40
0.8715753502968708
 40
1.0
 40
1.0
 40
1.0
 40
1.0
 10
-155.8563401442308
 20
10.63558905489652
 30
0.0
 10
-155.7797012362298
 20
10.57698760967275
 30
0.0
 10
-155.6281501078888
 20
10.46110501977519
 30
0.0
 10
-155.3862415117413
 20
10.31257770806757
 30
0.0
 10
-155.1371232917269
 20
10.18527498545823
 30
0.0
 10
-154.8789155385556
 20
10.08241589156593
 30
0.0
 10
-154.6121635737152
 20
10.00150865724803
 30
0.0
 10
-154.3369039770773
 20
9.94485065144011
 30
0.0
 10
-154.0535267682026
 20
9.909292852937838
 30
0.0
 10
-153.8618938191032
 20
9.905043022430899
 30
0.0
 10
-153.7651141826923
 20
9.902896747204213
 30
0.0
  0
SPLINE
  5
140
330
1F
100
AcDbEntity
  8
0
  6
Continuous
 62
     7
370
    25
100
AcDbSpline
210
0.0
220
0.0
230
1.0
 70
     8
 71
     3
 72
    23
 73
    19
 74
     0
 42
0.000000001
 43
0.00000001
 40
0.0
 40
0.0
 40
0.0
 40
0.0
 40
0.0528263492812286
 40
0.1028915173965557
 40
0.1516981461048784
 40
0.1995775881235296
 40
0.2472235843729599
 40
0.2957231203836684
 40
0.3462538147999419
 40
0.3985071702228929
 40
0.4542901722394569
 40
0.5140415865121242
 40
0.5790927186074066
 40
0.6500371484472912
 40
0.727451000764517
 40
0.8114520065892856
 40
0.9024758798237908
 40
0.9999999999999999
 40
0.9999999999999999
 40
0.9999999999999999
 40
0.9999999999999999
 10
-142.8625
 20
11.26143040105037
 30
0.0
 10
-142.863931771342
 20
11.3117502294625
 30
0.0
 10
-142.8667204767503
 20
11.4097597184941
 30
0.0
 10
-142.8894958676632
 20
11.55301104651419
 30
0.0
 10
-142.9308861927073
 20
11.68674566596306
 30
0.0
 10
-142.9830193265806
 20
11.81438335146835
 30
0.0
 10
-143.0555653522455
 20
11.93135422929466
 30
0.0
 10
-143.1417838245257
 20
12.04170621795534
 30
0.0
 10
-143.2459577493607
 20
12.14170245851492
 30
0.0
 10
-143.3631074051633
 20
12.23739109734284
 30
0.0
 10
-143.4997508801514
 20
12.32117168481627
 30
0.0
 10
-143.6559522835011
 20
12.39386618445199
 30
0.0
 10
-143.8325601862508
 20
12.45457795347898
 30
0.0
 10
-144.0301216500755
 20
12.50291670380314
 30
0.0
 10
-144.247770580847
 20
12.54394113305512
 30
0.0
 10
-144.4870955766548
 20
12.56843724606178
 30
0.0
 10
-144.7461034558182
 20
12.58665608186636
 30
0.0
 10
-144.9257037343934
 20
12.58848778363342
 30
0.0
 10
-145.0185997596154
 20
12.58943520874268
 30
0.0
  0
LINE
  5
141
330
1F
100
AcDbEntity
  8
0
  6
Continuous
 62
     7
370
    25
100
AcDbLine
 10
-145.0185997596
 20
12.5894352087
 30
0.0
 11
-145.4269230769
 21
12.5894352087
 31
0.0
  0
LINE
  5
142
330
1F
100
AcDbEntity
  8
0
  6
Continuous
 62
     7
370
    25
100
AcDbLine
 10
-145.4269230769
 20
12.5894352087
 30
0.0
 11
-145.4269230769
 21
10.1471275164
 31
0.0
  0
LINE
  5
143
330
1F
100
AcDbEntity
  8
0
  6
Continuous
 62
     7
370
    25
100
AcDbLine
 10
-145.4269230769
 20
10.1471275164
 30
0.0
 11
-144.9346454327
 21
10.1471275164
 31
0.0
  0
SPLINE
  5
144
330
1F
100
AcDbEntity
  8
0
  6
Continuous
 62
     7
370
    25
100
AcDbSpline
210
0.0
220
0.0
230
1.0
 70
     8
 71
     3
 72
    23
 73
    19
 74
     0
 42
0.000000001
 43
0.00000001
 40
0.0
 40
0.0
 40
0.0
 40
0.0
 40
0.1095674252695395
 40
0.2106570473717266
 40
0.3020024587326088
 40
0.3851432164195873
 40
0.4590126129308706
 40
0.5247192090460421
 40
0.5832266479388911
 40
0.6342083193258283
 40
0.6811857277932535
 40
0.7262751343643179
 40
0.7701133344783271
 40
0.8140800070141061
 40
0.8579941680783131
 40
0.9033387195085164
 40
0.9505447828389805
 40
1.0
 40
1.0
 40
1.0
 40
1.0
 10
-144.9346454326923
 20
10.14712751643498
 30
0.0
 10
-144.8373215156394
 20
10.14768352435414
 30
0.0
 10
-144.6502041406114
 20
10.14875251895977
 30
0.0
 10
-144.3821588324343
 20
10.16166851598528
 30
0.0
 10
-144.1384386359387
 20
10.18494732484639
 30
0.0
 10
-143.9196893176971
 20
10.21400904250537
 30
0.0
 10
-143.7255758217177
 20
10.25338312432405
 30
0.0
 10
-143.5567542980797
 20
10.30344222330017
 30
0.0
 10
-143.4109095784306
 20
10.35851595126148
 30
0.0
 10
-143.2889161549276
 20
10.426538544333
 30
0.0
 10
-143.1892545165755
 20
10.50569997425436
 30
0.0
 10
-143.0993203370722
 20
10.58660485720132
 30
0.0
 10
-143.0259936110754
 20
10.67993628330371
 30
0.0
 10
-142.9679761370859
 20
10.78168779310781
 30
0.0
 10
-142.917762115806
 20
10.88933180566461
 30
0.0
 10
-142.8874765641118
 20
11.00707178092426
 30
0.0
 10
-142.8644182079686
 20
11.13141818837788
 30
0.0
 10
-142.8631492449051
 20
11.21742590932901
 30
0.0
 10
-142.8625
 20
11.26143040105037
 30
0.0
  0
SPLINE
  5
145
330
1F
100
AcDbEntity
  8
0
  6
Continuous
 62
     7
370
    25
100
AcDbSpline
210
0.0
220
0.0
230
1.0
 70
     8
 71
     3
 72
    19
 73
    15
 74
     0
 42
0.000000001
 43
0.00000001
 40
0.0
 40
0.0
 40
0.0
 40
0.0
 40
0.1123318680474746
 40
0.2171891524479064
 40
0.3207763822148935
 40
0.4294461252394038
 40
0.4868895248481704
 40
0.5473481609653044
 40
0.610551609853221
 40
0.6785404198027624
 40
0.7510057638701817
 40
0.8285633445446849
 40
0.9114938035709717
 40
1.0
 40
1.0
 40
1.0
 40
1.0
 10
-143.4730769230769
 20
15.24926092989652
 30
0.0
 10
-143.4763332198347
 20
15.32303032044622
 30
0.0
 10
-143.482629138751
 20
15.46566047241089
 30
0.0
 10
-143.5538741769104
 20
15.66592590845563
 30
0.0
 10
-143.6645318061087
 20
15.84340207145074
 30
0.0
 10
-143.7951786907514
 20
15.96486999117219
 30
0.0
 10
-143.9182081194756
 20
16.04782899920083
 30
0.0
 10
-144.0235534661354
 20
16.10245397323536
 30
0.0
 10
-144.1391778944987
 20
16.15135369169226
 30
0.0
 10
-144.2673197696405
 20
16.18874360820541
 30
0.0
 10
-144.4072473311763
 20
16.21679968505447
 30
0.0
 10
-144.5582808728505
 20
16.23740351353564
 30
0.0
 10
-144.7206809796379
 20
16.25142735574906
 30
0.0
 10
-144.8328510789205
 20
16.25239644397287
 30
0.0
 10
-144.8907602163462
 20
16.25289674720421
 30
0.0
  0
LINE
  5
146
330
1F
100
AcDbEntity
  8
0
  6
Continuous
 62
     7
370
    25
100
AcDbLine
 10
-144.8907602163
 20
16.2528967472
 30
0.0
 11
-145.4269230769
 21
16.2528967472
 31
0.0
  0
LINE
  5
147
330
1F
100
AcDbEntity
  8
0
  6
Continuous
 62
     7
370
    25
100
AcDbLine
 10
-145.4269230769
 20
16.2528967472
 30
0.0
 11
-145.4269230769
 21
14.1769352087
 31
0.0
  0
LINE
  5
148
330
1F
100
AcDbEntity
  8
0
  6
Continuous
 62
     7
370
    25
100
AcDbLine
 10
-145.4269230769
 20
14.1769352087
 30
0.0
 11
-144.9728064904
 21
14.1769352087
 31
0.0
  0
SPLINE
  5
149
330
1F
100
AcDbEntity
  8
0
  6
Continuous
 62
     7
370
    25
100
AcDbSpline
210
0.0
220
0.0
230
1.0
 70
     8
 71
     3
 72
    19
 73
    15
 74
     0
 42
0.000000001
 43
0.00000001
 40
0.0
 40
0.0
 40
0.0
 40
0.0
 40
0.0887762289654563
 40
0.171377137214556
 40
0.2481138113668566
 40
0.3211611878976277
 40
0.3880331325497848
 40
0.4520913744364378
 40
0.5122677074822274
 40
0.5688662368266955
 40
0.676936000292984
 40
0.7810117272007129
 40
0.8869176462132642
 40
1.0
 40
1.0
 40
1.0
 40
1.0
 10
-144.9728064903846
 20
14.17693520874267
 30
0.0
 10
-144.91108796623
 20
14.17747341762741
 30
0.0
 10
-144.7919440906003
 20
14.1785123973066
 30
0.0
 10
-144.6198533999288
 20
14.19189409479845
 30
0.0
 10
-144.4598368492597
 20
14.21472410193869
 30
0.0
 10
-144.3125013468383
 20
14.24657770485251
 30
0.0
 10
-144.1764744089483
 20
14.28702713624198
 30
0.0
 10
-144.0526250148549
 20
14.33569651345696
 30
0.0
 10
-143.9414977079485
 20
14.39507844372677
 30
0.0
 10
-143.812393479645
 20
14.4835304493269
 30
0.0
 10
-143.675921000179
 20
14.61369153564043
 30
0.0
 10
-143.5557858113601
 20
14.80173619306859
 30
0.0
 10
-143.4850269873536
 20
15.01798683364395
 30
0.0
 10
-143.4771463627928
 20
15.17050352987287
 30
0.0
 10
-143.4730769230769
 20
15.24926092989652
 30
0.0
  0
SPLINE
  5
14A
330
1F
100
AcDbEntity
  8
0
  6
Continuous
 62
     7
370
    25
100
AcDbSpline
210
0.0
220
0.0
230
1.0
 70
     8
 71
     3
 72
    23
 73
    19
 74
     0
 42
0.000000001
 43
0.00000001
 40
0.0
 40
0.0
 40
0.0
 40
0.0
 40
0.0641474448766712
 40
0.1262121152536866
 40
0.1868412890216912
 40
0.2469358694509794
 40
0.3072563614860021
 40
0.3681505022006766
 40
0.4300707669516576
 40
0.4938754417369543
 40
0.5579806818508464
 40
0.620869525928535
 40
0.6825247313751582
 40
0.744035698105771
 40
0.8058886825781888
 40
0.8689681377436669
 40
0.9332474288479398
 40
1.0
 40
1.0
 40
1.0
 40
1.0
 10
-134.9593449519231
 20
9.902896747204213
 30
0.0
 10
-134.8498100258702
 20
9.90591259278196
 30
0.0
 10
-134.6342966139508
 20
9.911846363805543
 30
0.0
 10
-134.3176610106362
 20
9.956258297428713
 30
0.0
 10
-134.0143144856612
 20
10.03141932412085
 30
0.0
 10
-133.7223738381182
 20
10.13452992892709
 30
0.0
 10
-133.4426808943236
 20
10.26858730985003
 30
0.0
 10
-133.1766025901121
 20
10.43386380435739
 30
0.0
 10
-132.9236724175727
 20
10.62833002990188
 30
0.0
 10
-132.6847548105565
 20
10.84791971137092
 30
0.0
 10
-132.4663728238309
 20
11.09037298292841
 30
0.0
 10
-132.2758418100967
 20
11.35056383068477
 30
0.0
 10
-132.1109845017577
 20
11.62275947158845
 30
0.0
 10
-131.9799527749264
 20
11.91081242218165
 30
0.0
 10
-131.8752404728715
 20
12.21200359742795
 30
0.0
 10
-131.8043552068439
 20
12.5276669082296
 30
0.0
 10
-131.7586296014581
 20
12.85650107053555
 30
0.0
 10
-131.7529125046669
 20
13.08028433868609
 30
0.0
 10
-131.75
 20
13.19428797316575
 30
0.0
  0
SPLINE
  5
14B
330
1F
100
AcDbEntity
  8
0
  6
Continuous
 62
     7
370
    25
100
AcDbSpline
210
0.0
220
0.0
230
1.0
 70
     8
 71
     3
 72
    23
 73
    19
 74
     0
 42
0.000000001
 43
0.00000001
 40
0.0
 40
0.0
 40
0.0
 40
0.0
 40
0.065939124057659
 40
0.1297911093795354
 40
0.19217523630533
 40
0.2536170442157543
 40
0.3147191079962371
 40
0.3762822754113766
 40
0.4389729923739144
 40
0.503174701838644
 40
0.5673294646239482
 40
0.6296509938060315
 40
0.6906498673030977
 40
0.7512376127977869
 40
0.811754113823609
 40
0.8727877774488564
 40
0.9355396326682327
 40
1.0
 40
1.0
 40
1.0
 40
1.0
 10
-131.75
 20
13.19428797316575
 30
0.0
 10
-131.7530132777341
 20
13.30763605527398
 30
0.0
 10
-131.758944455401
 20
13.53074446827027
 30
0.0
 10
-131.8034345566912
 20
13.8587332002059
 30
0.0
 10
-131.8781189316257
 20
14.17300295004
 30
0.0
 10
-131.9815391667709
 20
14.47406695345807
 30
0.0
 10
-132.1136013305368
 20
14.7622203649285
 30
0.0
 10
-132.276909593398
 20
15.03644986673199
 30
0.0
 10
-132.4708909268762
 20
15.29649034599013
 30
0.0
 10
-132.691080862627
 20
15.54056972627989
 30
0.0
 10
-132.9307440745363
 20
15.76486304214332
 30
0.0
 10
-133.1880464794171
 20
15.95950886790196
 30
0.0
 10
-133.4557884671777
 20
16.12864990179834
 30
0.0
 10
-133.7401133453412
 20
16.26114815795169
 30
0.0
 10
-134.0352040649061
 20
16.36670923756174
 30
0.0
 10
-134.3428612851186
 20
16.44444593130837
 30
0.0
 10
-134.6642502765419
 20
16.48791911250919
 30
0.0
 10
-134.882897852658
 20
16.49403068814066
 30
0.0
 10
-134.9936899038462
 20
16.49712751643499
 30
0.0
  0
SPLINE
  5
14C
330
1F
100
AcDbEntity
  8
0
  6
Continuous
 62
     7
370
    25
100
AcDbSpline
210
0.0
220
0.0
230
1.0
 70
     8
 71
     3
 72
    23
 73
    19
 74
     0
 42
0.000000001
 43
0.00000001
 40
0.0
 40
0.0
 40
0.0
 40
0.0
 40
0.0646087354707748
 40
0.1275117897236788
 40
0.1885213083986491
 40
0.2487081790893699
 40
0.3085982651789139
 40
0.3688122491095551
 40
0.4298875018150777
 40
0.4928024479242465
 40
0.5557433321027936
 40
0.6174852948395658
 40
0.6789689634380384
 40
0.7401976913545544
 40
0.8023601016976099
 40
0.8662447764427323
 40
0.9317068283956892
 40
1.0
 40
1.0
 40
1.0
 40
1.0
 10
-134.9936899038461
 20
16.49712751643498
 30
0.0
 10
-135.1051412383268
 20
16.49413702689256
 30
0.0
 10
-135.3251015737702
 20
16.48823499722234
 30
0.0
 10
-135.647743327541
 20
16.44326951384039
 30
0.0
 10
-135.9574908053785
 20
16.37145452582518
 30
0.0
 10
-136.2526269543868
 20
16.26743139325331
 30
0.0
 10
-136.5344309203664
 20
16.13503634666753
 30
0.0
 10
-136.8034022544414
 20
15.97473199040054
 30
0.0
 10
-137.0558162596728
 20
15.78100804157492
 30
0.0
 10
-137.2950386328473
 20
15.56426467515932
 30
0.0
 10
-137.5111366823941
 20
15.32276275429024
 30
0.0
 10
-137.7020661264042
 20
15.06395237436443
 30
0.0
 10
-137.8618433184546
 20
14.78826574442248
 30
0.0
 10
-137.9956577177224
 20
14.49826392810612
 30
0.0
 10
-138.0963903029505
 20
14.19068593170064
 30
0.0
 10
-138.168139103177
 20
13.86794104703058
 30
0.0
 10
-138.2134816667152
 20
13.52947316854945
 30
0.0
 10
-138.2191971531804
 20
13.29874005638918
 30
0.0
 10
-138.2221153846154
 20
13.18093160297344
 30
0.0
  0
SPLINE
  5
14D
330
1F
100
AcDbEntity
  8
0
  6
Continuous
 62
     7
370
    25
100
AcDbSpline
210
0.0
220
0.0
230
1.0
 70
     8
 71
     3
 72
    15
 73
    11
 74
     0
 42
0.000000001
 43
0.00000001
 40
0.0
 40
0.0
 40
0.0
 40
0.0
 40
0.1348068327792199
 40
0.2641990558543171
 40
0.3884618167279428
 40
0.5099420983643722
 40
0.6304096106127699
 40
0.7506710345119787
 40
0.8734547255294227
 40
1.0
 40
1.0
 40
1.0
 40
1.0
 10
-138.2221153846154
 20
13.18093160297344
 30
0.0
 10
-138.2182462552641
 20
13.05037333592068
 30
0.0
 10
-138.2106634028188
 20
12.79450076493751
 30
0.0
 10
-138.1573095307333
 20
12.42124075229846
 30
0.0
 10
-138.0660263665752
 20
12.06873371637914
 30
0.0
 10
-137.9342152523242
 20
11.73870371641715
 30
0.0
 10
-137.7707348896034
 20
11.42748601641257
 30
0.0
 10
-137.5677182250632
 20
11.13889503167008
 30
0.0
 10
-137.3284531676333
 20
10.87120281420401
 30
0.0
 10
-137.1441253058257
 20
10.71491294749394
 30
0.0
 10
-137.0505709134615
 20
10.63558905489652
 30
0.0
  0
SPLINE
  5
14E
330
1F
100
AcDbEntity
  8
0
  6
Continuous
 62
     7
370
    25
100
AcDbSpline
210
0.0
220
0.0
230
1.0
 70
     8
 71
     3
 72
    15
 73
    11
 74
     0
 42
0.000000001
 43
0.00000001
 40
0.0
 40
0.0
 40
0.0
 40
0.0
 40
0.1279910255623708
 40
0.2530983915017107
 40
0.3761840584327914
 40
0.4989363124701308
 40
0.6215258806257277
 40
0.7457068938016905
 40
0.8715753502968708
 40
1.0
 40
1.0
 40
1.0
 40
1.0
 10
-137.0505709134615
 20
10.63558905489652
 30
0.0
 10
-136.9739320054606
 20
10.57698760967275
 30
0.0
 10
-136.8223808771195
 20
10.46110501977519
 30
0.0
 10
-136.5804722809721
 20
10.31257770806757
 30
0.0
 10
-136.3313540609577
 20
10.18527498545823
 30
0.0
 10
-136.0731463077864
 20
10.08241589156593
 30
0.0
 10
-135.8063943429459
 20
10.00150865724803
 30
0.0
 10
-135.5311347463081
 20
9.94485065144011
 30
0.0
 10
-135.2477575374334
 20
9.909292852937838
 30
0.0
 10
-135.056124588334
 20
9.905043022430899
 30
0.0
 10
-134.9593449519231
 20
9.902896747204213
 30
0.0
  0
SPLINE
  5
14F
330
1F
100
AcDbEntity
  8
0
  6
Continuous
 62
     7
370
    25
100
AcDbSpline
210
0.0
220
0.0
230
1.0
 70
     8
 71
     3
 72
    23
 73
    19
 74
     0
 42
0.000000001
 43
0.00000001
 40
0.0
 40
0.0
 40
0.0
 40
0.0
 40
0.0641474448766711
 40
0.1262121152536839
 40
0.1868412890216911
 40
0.2469358694509793
 40
0.3072563614860044
 40
0.3681505022006766
 40
0.4300707669516576
 40
0.4938754417369542
 40
0.5579806818508445
 40
0.6208695259285363
 40
0.6825247313751581
 40
0.7440356981057709
 40
0.8058886825781879
 40
0.8689681377436671
 40
0.9332474288479397
 40
1.0
 40
1.0
 40
1.0
 40
1.0
 10
-79.15261418269229
 20
9.902896747204213
 30
0.0
 10
-79.04307925663943
 20
9.905912592781958
 30
0.0
 10
-78.82756584472003
 20
9.911846363805541
 30
0.0
 10
-78.51093024140538
 20
9.956258297428713
 30
0.0
 10
-78.20758371643045
 20
10.03141932412085
 30
0.0
 10
-77.91564306888742
 20
10.13452992892709
 30
0.0
 10
-77.63595012509282
 20
10.26858730985002
 30
0.0
 10
-77.36987182088139
 20
10.4338638043574
 30
0.0
 10
-77.11694164834189
 20
10.62833002990188
 30
0.0
 10
-76.87802404132569
 20
10.84791971137092
 30
0.0
 10
-76.65964205460008
 20
11.09037298292843
 30
0.0
 10
-76.46911104086585
 20
11.35056383068475
 30
0.0
 10
-76.30425373252702
 20
11.62275947158847
 30
0.0
 10
-76.17322200569558
 20
11.91081242218165
 30
0.0
 10
-76.06850970364073
 20
12.21200359742796
 30
0.0
 10
-75.99762443761307
 20
12.52766690822959
 30
0.0
 10
-75.9518988322273
 20
12.85650107053555
 30
0.0
 10
-75.94618173543613
 20
13.08028433868609
 30
0.0
 10
-75.9432692307692
 20
13.19428797316575
 30
0.0
  0
SPLINE
  5
150
330
1F
100
AcDbEntity
  8
0
  6
Continuous
 62
     7
370
    25
100
AcDbSpline
210
0.0
220
0.0
230
1.0
 70
     8
 71
     3
 72
    23
 73
    19
 74
     0
 42
0.000000001
 43
0.00000001
 40
0.0
 40
0.0
 40
0.0
 40
0.0
 40
0.0659391240576589
 40
0.1297911093795348
 40
0.1921752363053292
 40
0.2536170442157551
 40
0.3147191079962367
 40
0.376282275411376
 40
0.4389729923739136
 40
0.5031747018386412
 40
0.5673294646239473
 40
0.6296509938060325
 40
0.6906498673030985
 40
0.7512376127977874
 40
0.8117541138236068
 40
0.8727877774488542
 40
0.9355396326682303
 40
1.0
 40
1.0
 40
1.0
 40
1.0
 10
-75.9432692307692
 20
13.19428797316575
 30
0.0
 10
-75.94628250850334
 20
13.30763605527398
 30
0.0
 10
-75.95221368617021
 20
13.53074446827027
 30
0.0
 10
-75.99670378746038
 20
13.8587332002059
 30
0.0
 10
-76.07138816239484
 20
14.17300295004
 30
0.0
 10
-76.17480839754019
 20
14.47406695345807
 30
0.0
 10
-76.30687056130591
 20
14.76222036492849
 30
0.0
 10
-76.47017882416714
 20
15.03644986673199
 30
0.0
 10
-76.66416015764543
 20
15.29649034599013
 30
0.0
 10
-76.88435009339626
 20
15.5405697262799
 30
0.0
 10
-77.12401330530554
 20
15.76486304214332
 30
0.0
 10
-77.38131571018631
 20
15.95950886790195
 30
0.0
 10
-77.64905769794693
 20
16.12864990179834
 30
0.0
 10
-77.93338257611047
 20
16.26114815795169
 30
0.0
 10
-78.22847329567524
 20
16.36670923756174
 30
0.0
 10
-78.5361305158878
 20
16.44444593130837
 30
0.0
 10
-78.85751950731121
 20
16.4879191125092
 30
0.0
 10
-79.07616708342725
 20
16.49403068814066
 30
0.0
 10
-79.18695913461536
 20
16.49712751643498
 30
0.0
  0
SPLINE
  5
151
330
1F
100
AcDbEntity
  8
0
  6
Continuous
 62
     7
370
    25
100
AcDbSpline
210
0.0
220
0.0
230
1.0
 70
     8
 71
     3
 72
    23
 73
    19
 74
     0
 42
0.000000001
 43
0.00000001
 40
0.0
 40
0.0
 40
0.0
 40
0.0
 40
0.0646087354707749
 40
0.1275117897236737
 40
0.1885213083986468
 40
0.2487081790893702
 40
0.3085982651789119
 40
0.3688122491095532
 40
0.429887501815076
 40
0.4928024479242449
 40
0.5557433321027939
 40
0.6174852948395647
 40
0.6789689634380386
 40
0.7401976913545537
 40
0.8023601016976085
 40
0.8662447764427323
 40
0.931706828395689
 40
1.0
 40
1.0
 40
1.0
 40
1.0
 10
-79.18695913461536
 20
16.49712751643498
 30
0.0
 10
-79.29841046909607
 20
16.49413702689256
 30
0.0
 10
-79.51837080453946
 20
16.48823499722235
 30
0.0
 10
-79.84101255831015
 20
16.44326951384038
 30
0.0
 10
-80.15076003614776
 20
16.37145452582519
 30
0.0
 10
-80.44589618515606
 20
16.26743139325331
 30
0.0
 10
-80.72770015113558
 20
16.13503634666753
 30
0.0
 10
-80.99667148521067
 20
15.97473199040055
 30
0.0
 10
-81.24908549044194
 20
15.78100804157491
 30
0.0
 10
-81.4883078636165
 20
15.56426467515932
 30
0.0
 10
-81.70440591316331
 20
15.32276275429025
 30
0.0
 10
-81.89533535717334
 20
15.06395237436442
 30
0.0
 10
-82.05511254922392
 20
14.7882657444225
 30
0.0
 10
-82.18892694849154
 20
14.49826392810611
 30
0.0
 10
-82.28965953371969
 20
14.19068593170064
 30
0.0
 10
-82.36140833394616
 20
13.86794104703058
 30
0.0
 10
-82.40675089748439
 20
13.52947316854945
 30
0.0
 10
-82.41246638394963
 20
13.29874005638918
 30
0.0
 10
-82.4153846153846
 20
13.18093160297344
 30
0.0
  0
SPLINE
  5
152
330
1F
100
AcDbEntity
  8
0
  6
Continuous
 62
     7
370
    25
100
AcDbSpline
210
0.0
220
0.0
230
1.0
 70
     8
 71
     3
 72
    15
 73
    11
 74
     0
 42
0.000000001
 43
0.00000001
 40
0.0
 40
0.0
 40
0.0
 40
0.0
 40
0.1348068327792205
 40
0.264199055854318
 40
0.3884618167279426
 40
0.5099420983643721
 40
0.6304096106127721
 40
0.7506710345119784
 40
0.8734547255294225
 40
1.0
 40
1.0
 40
1.0
 40
1.0
 10
-82.4153846153846
 20
13.18093160297344
 30
0.0
 10
-82.41151548603332
 20
13.05037333592067
 30
0.0
 10
-82.40393263358804
 20
12.79450076493751
 30
0.0
 10
-82.3505787615025
 20
12.42124075229846
 30
0.0
 10
-82.25929559734435
 20
12.06873371637913
 30
0.0
 10
-82.12748448309348
 20
11.73870371641715
 30
0.0
 10
-81.96400412037256
 20
11.42748601641259
 30
0.0
 10
-81.76098745583234
 20
11.13889503167007
 30
0.0
 10
-81.52172239840253
 20
10.87120281420402
 30
0.0
 10
-81.33739453659493
 20
10.71491294749394
 30
0.0
 10
-81.24384014423075
 20
10.63558905489652
 30
0.0
  0
SPLINE
  5
153
330
1F
100
AcDbEntity
  8
0
  6
Continuous
 62
     7
370
    25
100
AcDbSpline
210
0.0
220
0.0
230
1.0
 70
     8
 71
     3
 72
    15
 73
    11
 74
     0
 42
0.000000001
 43
0.00000001
 40
0.0
 40
0.0
 40
0.0
 40
0.0
 40
0.1279910255623757
 40
0.2530983915017052
 40
0.3761840584327914
 40
0.4989363124701251
 40
0.6215258806257337
 40
0.7457068938016905
 40
0.8715753502968708
 40
1.0
 40
1.0
 40
1.0
 40
1.0
 10
-81.24384014423075
 20
10.63558905489652
 30
0.0
 10
-81.16720123622974
 20
10.57698760967275
 30
0.0
 10
-81.0156501078887
 20
10.46110501977521
 30
0.0
 10
-80.77374151174136
 20
10.31257770806756
 30
0.0
 10
-80.52462329172683
 20
10.18527498545823
 30
0.0
 10
-80.26641553855566
 20
10.08241589156592
 30
0.0
 10
-79.99966357371508
 20
10.00150865724804
 30
0.0
 10
-79.72440397707736
 20
9.944850651440106
 30
0.0
 10
-79.44102676820265
 20
9.90929285293784
 30
0.0
 10
-79.24939381910319
 20
9.9050430224309
 30
0.0
 10
-79.15261418269229
 20
9.902896747204213
 30
0.0
  0
LINE
  5
154
330
1F
100
AcDbEntity
  8
0
  6
Continuous
 62
     7
370
    25
100
AcDbLine
 10
-89.0382361779
 20
16.2528967472
 30
0.0
 11
-89.6201923077
 21
16.2528967472
 31
0.0
  0
LINE
  5
155
330
1F
100
AcDbEntity
  8
0
  6
Continuous
 62
     7
370
    25
100
AcDbLine
 10
-89.6201923077
 20
16.2528967472
 30
0.0
 11
-89.6201923077
 21
14.2990505934
 31
0.0
  0
LINE
  5
156
330
1F
100
AcDbEntity
  8
0
  6
Continuous
 62
     7
370
    25
100
AcDbLine
 10
-89.6201923077
 20
14.2990505934
 30
0.0
 11
-88.954281851
 21
14.2990505934
 31
0.0
  0
SPLINE
  5
157
330
1F
100
AcDbEntity
  8
0
  6
Continuous
 62
     7
370
    25
100
AcDbSpline
210
0.0
220
0.0
230
1.0
 70
     8
 71
     3
 72
    23
 73
    19
 74
     0
 42
0.000000001
 43
0.00000001
 40
0.0
 40
0.0
 40
0.0
 40
0.0
 40
0.1055399964402537
 40
0.2020864154635839
 40
0.2906848989424192
 40
0.3705526096211876
 40
0.4426702615663785
 40
0.5076749275738699
 40
0.5655732034810433
 40
0.6164546657486188
 40
0.6633313570051063
 40
0.7088620244966148
 40
0.7534118003496273
 40
0.7985150107871071
 40
0.8450643214401182
 40
0.8938731190084052
 40
0.9447078060036516
 40
1.0
 40
1.0
 40
1.0
 40
1.0
 10
-88.9542818509615
 20
14.29905059335806
 30
0.0
 10
-88.87286876223946
 20
14.29996752228127
 30
0.0
 10
-88.71698019082982
 20
14.30172324414575
 30
0.0
 10
-88.49279195055041
 20
14.30986700991422
 30
0.0
 10
-88.28917556232807
 20
14.32948946128709
 30
0.0
 10
-88.10525662867717
 20
14.35428169523592
 30
0.0
 10
-87.94010968623469
 20
14.38290790966708
 30
0.0
 10
-87.79520778746539
 20
14.42393101296618
 30
0.0
 10
-87.66831821527197
 20
14.4678883066234
 30
0.0
 10
-87.56094461583604
 20
14.52251582003356
 30
0.0
 10
-87.46920707965418
 20
14.58463915099656
 30
0.0
 10
-87.38999758878825
 20
14.65521279927111
 30
0.0
 10
-87.32447998258459
 20
14.73689281083345
 30
0.0
 10
-87.27055565082223
 20
14.82745947531405
 30
0.0
 10
-87.22860838343246
 20
14.92771383256217
 30
0.0
 10
-87.19799009178459
 20
15.03655531689748
 30
0.0
 10
-87.18087899455749
 20
15.15522377283111
 30
0.0
 10
-87.1789103045365
 20
15.23712116569027
 30
0.0
 10
-87.17788461538458
 20
15.27978977605037
 30
0.0
  0
SPLINE
  5
158
330
1F
100
AcDbEntity
  8
0
  6
Continuous
 62
     7
370
    25
100
AcDbSpline
210
0.0
220
0.0
230
1.0
 70
     8
 71
     3
 72
    23
 73
    19
 74
     0
 42
0.000000001
 43
0.00000001
 40
0.0
 40
0.0
 40
0.0
 40
0.0
 40
0.0637689599577398
 40
0.1252623047603749
 40
0.1854135826663917
 40
0.2468067624960852
 40
0.309422388849695
 40
0.3725326822170074
 40
0.4377332507368596
 40
0.5057495167426328
 40
0.544013263111272
 40
0.5883695992066278
 40
0.6403890193945105
 40
0.6978974005877101
 40
0.7632716192950971
 40
0.8349786038393138
 40
0.9138736558434368
 40
1.0
 40
1.0
 40
1.0
 40
1.0
 10
-87.17788461538457
 20
15.27978977605037
 30
0.0
 10
-87.17982377470176
 20
15.33026985707128
 30
0.0
 10
-87.18363289383322
 20
15.42942862173297
 30
0.0
 10
-87.2214311893293
 20
15.57218247350569
 30
0.0
 10
-87.28159791108948
 20
15.70431093032708
 30
0.0
 10
-87.36407000732527
 20
15.82521700309775
 30
0.0
 10
-87.46793289047052
 20
15.93121161286299
 30
0.0
 10
-87.58712374340008
 20
16.02464670549995
 30
0.0
 10
-87.72421499240272
 20
16.0985281855438
 30
0.0
 10
-87.8511511727092
 20
16.14725962313336
 30
0.0
 10
-87.96663342652015
 20
16.17641614495917
 30
0.0
 10
-88.07085251717899
 20
16.19814332716993
 30
0.0
 10
-88.1915388516399
 20
16.21354200483264
 30
0.0
 10
-88.32878354148822
 20
16.2298750434936
 30
0.0
 10
-88.48223674533867
 20
16.24046619230959
 30
0.0
 10
-88.65273487493398
 20
16.24819561987346
 30
0.0
 10
-88.83978826091568
 20
16.25135810841155
 30
0.0
 10
-88.97018223651754
 20
16.25236910027408
 30
0.0
 10
-89.03823617788458
 20
16.25289674720421
 30
0.0
  0
SPLINE
  5
159
330
1F
100
AcDbEntity
  8
0
  6
Continuous
 62
     7
370
    25
100
AcDbSpline
210
0.0
220
0.0
230
1.0
 70
     8
 71
     3
 72
    23
 73
    19
 74
     0
 42
0.000000001
 43
0.00000001
 40
0.0
 40
0.0
 40
0.0
 40
0.0
 40
0.0528263492812286
 40
0.1028915173965556
 40
0.151698146104877
 40
0.1995775881235301
 40
0.2472235843729603
 40
0.2957231203836688
 40
0.3462538147999388
 40
0.3985071702228936
 40
0.4542901722394617
 40
0.5140415865121245
 40
0.579092718607407
 40
0.6500371484472915
 40
0.7274510007645221
 40
0.8114520065892906
 40
0.9024758798237958
 40
1.0
 40
1.0
 40
1.0
 40
1.0
 10
-68.24999999999999
 20
11.26143040105037
 30
0.0
 10
-68.25143177134197
 20
11.3117502294625
 30
0.0
 10
-68.25422047675025
 20
11.4097597184941
 30
0.0
 10
-68.27699586766319
 20
11.55301104651419
 30
0.0
 10
-68.31838619270721
 20
11.68674566596306
 30
0.0
 10
-68.37051932658059
 20
11.81438335146834
 30
0.0
 10
-68.44306535224544
 20
11.93135422929466
 30
0.0
 10
-68.52928382452566
 20
12.04170621795534
 30
0.0
 10
-68.63345774936066
 20
12.14170245851494
 30
0.0
 10
-68.7506074051632
 20
12.23739109734283
 30
0.0
 10
-68.88725088015143
 20
12.32117168481627
 30
0.0
 10
-69.04345228350101
 20
12.393866184452
 30
0.0
 10
-69.22006018625082
 20
12.45457795347898
 30
0.0
 10
-69.41762165007549
 20
12.50291670380315
 30
0.0
 10
-69.63527058084696
 20
12.54394113305512
 30
0.0
 10
-69.87459557665474
 20
12.56843724606178
 30
0.0
 10
-70.13360345581823
 20
12.58665608186636
 30
0.0
 10
-70.31320373439337
 20
12.58848778363342
 30
0.0
 10
-70.40609975961537
 20
12.58943520874267
 30
0.0
  0
LINE
  5
15A
330
1F
100
AcDbEntity
  8
0
  6
Continuous
 62
     7
370
    25
100
AcDbLine
 10
-70.4060997596
 20
12.5894352087
 30
0.0
 11
-70.8144230769
 21
12.5894352087
 31
0.0
  0
LINE
  5
15B
330
1F
100
AcDbEntity
  8
0
  6
Continuous
 62
     7
370
    25
100
AcDbLine
 10
-70.8144230769
 20
12.5894352087
 30
0.0
 11
-70.8144230769
 21
10.1471275164
 31
0.0
  0
LINE
  5
15C
330
1F
100
AcDbEntity
  8
0
  6
Continuous
 62
     7
370
    25
100
AcDbLine
 10
-70.8144230769
 20
10.1471275164
 30
0.0
 11
-70.3221454327
 21
10.1471275164
 31
0.0
  0
SPLINE
  5
15D
330
1F
100
AcDbEntity
  8
0
  6
Continuous
 62
     7
370
    25
100
AcDbSpline
210
0.0
220
0.0
230
1.0
 70
     8
 71
     3
 72
    23
 73
    19
 74
     0
 42
0.000000001
 43
0.00000001
 40
0.0
 40
0.0
 40
0.0
 40
0.0
 40
0.1095674252695389
 40
0.2106570473717307
 40
0.3020024587326177
 40
0.3851432164195905
 40
0.4590126129308735
 40
0.5247192090460497
 40
0.5832266479388937
 40
0.6342083193258307
 40
0.6811857277932556
 40
0.7262751343643197
 40
0.7701133344783255
 40
0.8140800070141043
 40
0.8579941680783132
 40
0.9033387195085177
 40
0.9505447828389806
 40
1.0
 40
1.0
 40
1.0
 40
1.0
 10
-70.3221454326923
 20
10.14712751643498
 30
0.0
 10
-70.2248215156394
 20
10.14768352435415
 30
0.0
 10
-70.0377041406114
 20
10.14875251895978
 30
0.0
 10
-69.76965883243425
 20
10.16166851598528
 30
0.0
 10
-69.52593863593873
 20
10.18494732484639
 30
0.0
 10
-69.30718931769705
 20
10.21400904250537
 30
0.0
 10
-69.11307582171764
 20
10.25338312432405
 30
0.0
 10
-68.94425429807974
 20
10.30344222330016
 30
0.0
 10
-68.79840957843052
 20
10.35851595126149
 30
0.0
 10
-68.67641615492758
 20
10.426538544333
 30
0.0
 10
-68.57675451657548
 20
10.50569997425436
 30
0.0
 10
-68.48682033707219
 20
10.58660485720131
 30
0.0
 10
-68.41349361107545
 20
10.67993628330371
 30
0.0
 10
-68.35547613708593
 20
10.78168779310781
 30
0.0
 10
-68.30526211580599
 20
10.88933180566462
 30
0.0
 10
-68.27497656411174
 20
11.00707178092426
 30
0.0
 10
-68.25191820796861
 20
11.13141818837789
 30
0.0
 10
-68.25064924490505
 20
11.21742590932902
 30
0.0
 10
-68.24999999999997
 20
11.26143040105037
 30
0.0
  0
SPLINE
  5
15E
330
1F
100
AcDbEntity
  8
0
  6
Continuous
 62
     7
370
    25
100
AcDbSpline
210
0.0
220
0.0
230
1.0
 70
     8
 71
     3
 72
    19
 73
    15
 74
     0
 42
0.000000001
 43
0.00000001
 40
0.0
 40
0.0
 40
0.0
 40
0.0
 40
0.1123318680474754
 40
0.2171891524479079
 40
0.3207763822148919
 40
0.4294461252394132
 40
0.4868895248481743
 40
0.5473481609653086
 40
0.6105516098532321
 40
0.6785404198027605
 40
0.7510057638701872
 40
0.8285633445446979
 40
0.9114938035709852
 40
1.0
 40
1.0
 40
1.0
 40
1.0
 10
-68.86057692307692
 20
15.24926092989652
 30
0.0
 10
-68.8638332198347
 20
15.32303032044623
 30
0.0
 10
-68.87012913875101
 20
15.4656604724109
 30
0.0
 10
-68.9413741769104
 20
15.66592590845563
 30
0.0
 10
-69.05203180610857
 20
15.84340207145075
 30
0.0
 10
-69.18267869075142
 20
15.96486999117218
 30
0.0
 10
-69.30570811947555
 20
16.04782899920083
 30
0.0
 10
-69.41105346613533
 20
16.10245397323537
 30
0.0
 10
-69.52667789449875
 20
16.15135369169226
 30
0.0
 10
-69.65481976964043
 20
16.18874360820542
 30
0.0
 10
-69.79474733117624
 20
16.21679968505448
 30
0.0
 10
-69.94578087285043
 20
16.23740351353564
 30
0.0
 10
-70.10818097963792
 20
16.25142735574906
 30
0.0
 10
-70.22035107892046
 20
16.25239644397288
 30
0.0
 10
-70.27826021634613
 20
16.25289674720421
 30
0.0
  0
LINE
  5
15F
330
1F
100
AcDbEntity
  8
0
  6
Continuous
 62
     7
370
    25
100
AcDbLine
 10
-70.2782602163
 20
16.2528967472
 30
0.0
 11
-70.8144230769
 21
16.2528967472
 31
0.0
  0
LINE
  5
160
330
1F
100
AcDbEntity
  8
0
  6
Continuous
 62
     7
370
    25
100
AcDbLine
 10
-70.8144230769
 20
16.2528967472
 30
0.0
 11
-70.8144230769
 21
14.1769352087
 31
0.0
  0
LINE
  5
161
330
1F
100
AcDbEntity
  8
0
  6
Continuous
 62
     7
370
    25
100
AcDbLine
 10
-70.8144230769
 20
14.1769352087
 30
0.0
 11
-70.3603064904
 21
14.1769352087
 31
0.0
  0
SPLINE
  5
162
330
1F
100
AcDbEntity
  8
0
  6
Continuous
 62
     7
370
    25
100
AcDbSpline
210
0.0
220
0.0
230
1.0
 70
     8
 71
     3
 72
    19
 73
    15
 74
     0
 42
0.000000001
 43
0.00000001
 40
0.0
 40
0.0
 40
0.0
 40
0.0
 40
0.0887762289654504
 40
0.1713771372145574
 40
0.2481138113668454
 40
0.3211611878976171
 40
0.3880331325497748
 40
0.4520913744364345
 40
0.5122677074822246
 40
0.5688662368266934
 40
0.6769360002929827
 40
0.781011727200709
 40
0.8869176462132633
 40
1.0
 40
1.0
 40
1.0
 40
1.0
 10
-70.36030649038459
 20
14.17693520874267
 30
0.0
 10
-70.29858796622993
 20
14.17747341762741
 30
0.0
 10
-70.17944409060023
 20
14.1785123973066
 30
0.0
 10
-70.00735339992879
 20
14.19189409479844
 30
0.0
 10
-69.84733684925963
 20
14.21472410193869
 30
0.0
 10
-69.70000134683832
 20
14.24657770485251
 30
0.0
 10
-69.56397440894838
 20
14.28702713624199
 30
0.0
 10
-69.44012501485484
 20
14.33569651345696
 30
0.0
 10
-69.32899770794847
 20
14.39507844372676
 30
0.0
 10
-69.199893479645
 20
14.4835304493269
 30
0.0
 10
-69.06342100017902
 20
14.61369153564042
 30
0.0
 10
-68.9432858113601
 20
14.80173619306859
 30
0.0
 10
-68.87252698735361
 20
15.01798683364395
 30
0.0
 10
-68.8646463627928
 20
15.17050352987287
 30
0.0
 10
-68.8605769230769
 20
15.24926092989652
 30
0.0
  0
SPLINE
  5
163
330
1F
100
AcDbEntity
  8
0
  6
Continuous
 62
     7
370
    25
100
AcDbSpline
210
0.0
220
0.0
230
1.0
 70
     8
 71
     3
 72
    23
 73
    19
 74
     0
 42
0.000000001
 43
0.00000001
 40
0.0
 40
0.0
 40
0.0
 40
0.0
 40
0.0641474448766725
 40
0.1262121152536839
 40
0.1868412890216911
 40
0.2469358694509793
 40
0.3072563614860044
 40
0.3681505022006766
 40
0.4300707669516576
 40
0.4938754417369553
 40
0.5579806818508455
 40
0.6208695259285356
 40
0.6825247313751582
 40
0.7440356981057704
 40
0.8058886825781878
 40
0.868968137743667
 40
0.9332474288479397
 40
1.0
 40
1.0
 40
1.0
 40
1.0
 10
-60.34684495192302
 20
9.902896747204213
 30
0.0
 10
-60.23731002587019
 20
9.90591259278196
 30
0.0
 10
-60.02179661395076
 20
9.911846363805541
 30
0.0
 10
-59.70516101063611
 20
9.956258297428715
 30
0.0
 10
-59.40181448566123
 20
10.03141932412086
 30
0.0
 10
-59.10987383811815
 20
10.13452992892709
 30
0.0
 10
-58.83018089432358
 20
10.26858730985002
 30
0.0
 10
-58.5641025901121
 20
10.4338638043574
 30
0.0
 10
-58.31117241757266
 20
10.62833002990189
 30
0.0
 10
-58.07225481055638
 20
10.84791971137092
 30
0.0
 10
-57.85387282383083
 20
11.09037298292842
 30
0.0
 10
-57.6633418100966
 20
11.35056383068476
 30
0.0
 10
-57.49848450175774
 20
11.62275947158846
 30
0.0
 10
-57.36745277492635
 20
11.91081242218165
 30
0.0
 10
-57.26274047287143
 20
12.21200359742796
 30
0.0
 10
-57.19185520684383
 20
12.5276669082296
 30
0.0
 10
-57.14612960145806
 20
12.85650107053556
 30
0.0
 10
-57.14041250466687
 20
13.0802843386861
 30
0.0
 10
-57.13749999999995
 20
13.19428797316575
 30
0.0
  0
SPLINE
  5
164
330
1F
100
AcDbEntity
  8
0
  6
Continuous
 62
     7
370
    25
100
AcDbSpline
210
0.0
220
0.0
230
1.0
 70
     8
 71
     3
 72
    23
 73
    19
 74
     0
 42
0.000000001
 43
0.00000001
 40
0.0
 40
0.0
 40
0.0
 40
0.0
 40
0.0659391240576588
 40
0.1297911093795348
 40
0.1921752363053292
 40
0.2536170442157551
 40
0.3147191079962372
 40
0.3762822754113758
 40
0.4389729923739125
 40
0.5031747018386411
 40
0.5673294646239472
 40
0.6296509938060324
 40
0.6906498673030983
 40
0.7512376127977861
 40
0.8117541138236054
 40
0.8727877774488527
 40
0.9355396326682301
 40
0.9999999999999999
 40
0.9999999999999999
 40
0.9999999999999999
 40
0.9999999999999999
 10
-57.13749999999995
 20
13.19428797316575
 30
0.0
 10
-57.14051327773409
 20
13.30763605527398
 30
0.0
 10
-57.14644445540095
 20
13.53074446827027
 30
0.0
 10
-57.19093455669113
 20
13.8587332002059
 30
0.0
 10
-57.26561893162558
 20
14.17300295004
 30
0.0
 10
-57.36903916677095
 20
14.47406695345807
 30
0.0
 10
-57.50110133053666
 20
14.76222036492849
 30
0.0
 10
-57.66440959339787
 20
15.03644986673198
 30
0.0
 10
-57.85839092687618
 20
15.29649034599014
 30
0.0
 10
-58.07858086262697
 20
15.5405697262799
 30
0.0
 10
-58.31824407453627
 20
15.76486304214332
 30
0.0
 10
-58.57554647941706
 20
15.95950886790195
 30
0.0
 10
-58.84328846717764
 20
16.12864990179833
 30
0.0
 10
-59.1276133453412
 20
16.26114815795169
 30
0.0
 10
-59.42270406490598
 20
16.36670923756174
 30
0.0
 10
-59.73036128511853
 20
16.44444593130837
 30
0.0
 10
-60.05175027654193
 20
16.48791911250919
 30
0.0
 10
-60.27039785265797
 20
16.49403068814066
 30
0.0
 10
-60.3811899038461
 20
16.49712751643498
 30
0.0
  0
SPLINE
  5
165
330
1F
100
AcDbEntity
  8
0
  6
Continuous
 62
     7
370
    25
100
AcDbSpline
210
0.0
220
0.0
230
1.0
 70
     8
 71
     3
 72
    23
 73
    19
 74
     0
 42
0.000000001
 43
0.00000001
 40
0.0
 40
0.0
 40
0.0
 40
0.0
 40
0.0646087354707749
 40
0.127511789723675
 40
0.1885213083986467
 40
0.2487081790893702
 40
0.3085982651789119
 40
0.3688122491095531
 40
0.429887501815075
 40
0.4928024479242448
 40
0.5557433321027939
 40
0.6174852948395646
 40
0.6789689634380386
 40
0.7401976913545536
 40
0.8023601016976085
 40
0.8662447764427322
 40
0.9317068283956889
 40
0.9999999999999999
 40
0.9999999999999999
 40
0.9999999999999999
 40
0.9999999999999999
 10
-60.3811899038461
 20
16.49712751643498
 30
0.0
 10
-60.49264123832681
 20
16.49413702689257
 30
0.0
 10
-60.71260157377021
 20
16.48823499722235
 30
0.0
 10
-61.03524332754085
 20
16.44326951384038
 30
0.0
 10
-61.34499080537851
 20
16.37145452582519
 30
0.0
 10
-61.64012695438677
 20
16.26743139325331
 30
0.0
 10
-61.92193092036633
 20
16.13503634666753
 30
0.0
 10
-62.1909022544414
 20
15.97473199040055
 30
0.0
 10
-62.44331625967267
 20
15.78100804157491
 30
0.0
 10
-62.68253863284723
 20
15.56426467515932
 30
0.0
 10
-62.89863668239406
 20
15.32276275429025
 30
0.0
 10
-63.08956612640407
 20
15.06395237436442
 30
0.0
 10
-63.24934331845463
 20
14.78826574442249
 30
0.0
 10
-63.38315771772232
 20
14.49826392810612
 30
0.0
 10
-63.48389030295039
 20
14.19068593170064
 30
0.0
 10
-63.55563910317692
 20
13.86794104703058
 30
0.0
 10
-63.60098166671513
 20
13.52947316854945
 30
0.0
 10
-63.60669715318039
 20
13.29874005638918
 30
0.0
 10
-63.60961538461533
 20
13.18093160297344
 30
0.0
  0
SPLINE
  5
166
330
1F
100
AcDbEntity
  8
0
  6
Continuous
 62
     7
370
    25
100
AcDbSpline
210
0.0
220
0.0
230
1.0
 70
     8
 71
     3
 72
    15
 73
    11
 74
     0
 42
0.000000001
 43
0.00000001
 40
0.0
 40
0.0
 40
0.0
 40
0.0
 40
0.1348068327792203
 40
0.2641990558543175
 40
0.3884618167279419
 40
0.5099420983643712
 40
0.630409610612771
 40
0.750671034511977
 40
0.8734547255294209
 40
1.0
 40
1.0
 40
1.0
 40
1.0
 10
-63.60961538461533
 20
13.18093160297344
 30
0.0
 10
-63.60574625526407
 20
13.05037333592068
 30
0.0
 10
-63.59816340281878
 20
12.79450076493751
 30
0.0
 10
-63.54480953073323
 20
12.42124075229846
 30
0.0
 10
-63.45352636657513
 20
12.06873371637914
 30
0.0
 10
-63.32171525232423
 20
11.73870371641714
 30
0.0
 10
-63.15823488960326
 20
11.42748601641258
 30
0.0
 10
-62.9552182250631
 20
11.13889503167007
 30
0.0
 10
-62.71595316763322
 20
10.87120281420401
 30
0.0
 10
-62.53162530582564
 20
10.71491294749394
 30
0.0
 10
-62.43807091346148
 20
10.63558905489652
 30
0.0
  0
SPLINE
  5
167
330
1F
100
AcDbEntity
  8
0
  6
Continuous
 62
     7
370
    25
100
AcDbSpline
210
0.0
220
0.0
230
1.0
 70
     8
 71
     3
 72
    15
 73
    11
 74
     0
 42
0.000000001
 43
0.00000001
 40
0.0
 40
0.0
 40
0.0
 40
0.0
 40
0.1279910255623736
 40
0.253098391501706
 40
0.3761840584327898
 40
0.4989363124701268
 40
0.6215258806257299
 40
0.7457068938016929
 40
0.8715753502968736
 40
1.0
 40
1.0
 40
1.0
 40
1.0
 10
-62.43807091346148
 20
10.63558905489652
 30
0.0
 10
-62.36143200546046
 20
10.57698760967275
 30
0.0
 10
-62.20988087711943
 20
10.4611050197752
 30
0.0
 10
-61.96797228097208
 20
10.31257770806756
 30
0.0
 10
-61.71885406095759
 20
10.18527498545823
 30
0.0
 10
-61.46064630778639
 20
10.08241589156592
 30
0.0
 10
-61.19389434294587
 20
10.00150865724803
 30
0.0
 10
-60.91863474630807
 20
9.944850651440108
 30
0.0
 10
-60.63525753743336
 20
9.909292852937837
 30
0.0
 10
-60.44362458833393
 20
9.9050430224309
 30
0.0
 10
-60.34684495192302
 20
9.902896747204213
 30
0.0
  0
SPLINE
  5
168
330
1F
100
AcDbEntity
  8
0
  6
Continuous
 62
     7
370
    25
100
AcDbSpline
210
0.0
220
0.0
230
1.0
 70
     8
 71
     3
 72
    15
 73
    11
 74
     0
 42
0.000000001
 43
0.00000001
 40
0.0
 40
0.0
 40
0.0
 40
0.0
 40
0.0888707311225367
 40
0.1863547159714922
 40
0.2940776543961756
 40
0.4122365279576114
 40
0.5417781444209647
 40
0.6827026066315662
 40
0.8350963526041704
 40
1.0
 40
1.0
 40
1.0
 40
1.0
 10
-33.67226562499999
 20
10.55735888662729
 30
0.0
 10
-33.63374349571323
 20
10.62781633233456
 30
0.0
 10
-33.55296571464654
 20
10.77555988206132
 30
0.0
 10
-33.45948952691037
 20
11.0248716133466
 30
0.0
 10
-33.38080648202487
 20
11.30605404069693
 30
0.0
 10
-33.31308513585842
 20
11.61998223052484
 30
0.0
 10
-33.26676786619353
 20
11.96789435433603
 30
0.0
 10
-33.22687949005687
 20
12.34758427125086
 30
0.0
 10
-33.20764033505647
 20
12.76096394605279
 30
0.0
 10
-33.20451098167913
 20
13.04735487601569
 30
0.0
 10
-33.2028846153846
 20
13.19619602605037
 30
0.0
  0
SPLINE
  5
169
330
1F
100
AcDbEntity
  8
0
  6
Continuous
 62
     7
370
    25
100
AcDbSpline
210
0.0
220
0.0
230
1.0
 70
     8
 71
     3
 72
    23
 73
    19
 74
     0
 42
0.000000001
 43
0.00000001
 40
0.0
 40
0.0
 40
0.0
 40
0.0
 40
0.1121147956622137
 40
0.2158018426882336
 40
0.3102026923156548
 40
0.395992925298714
 40
0.4734102307422358
 40
0.5427784203605525
 40
0.6045480222829333
 40
0.6593572656120953
 40
0.7087643617117438
 40
0.7553555059484809
 40
0.7986869938006725
 40
0.8400168391480738
 40
0.8802034470065466
 40
0.9197333482458342
 40
0.959048605901016
 40
1.0
 40
1.0
 40
1.0
 40
1.0
 10
-33.2028846153846
 20
13.19619602605037
 30
0.0
 10
-33.20351284553987
 20
13.34632918904932
 30
0.0
 10
-33.20472208134446
 20
13.63530989879792
 30
0.0
 10
-33.22690805679874
 20
14.05017570259471
 30
0.0
 10
-33.25780372281757
 20
14.42908676126664
 30
0.0
 10
-33.30299516314947
 20
14.77119712045078
 30
0.0
 10
-33.36114216507402
 20
15.07733727445394
 30
0.0
 10
-33.43280856441957
 20
15.34748721043492
 30
0.0
 10
-33.51729791812426
 20
15.58217934198204
 30
0.0
 10
-33.61749222267096
 20
15.7811796487629
 30
0.0
 10
-33.7284636402977
 20
15.95030261122357
 30
0.0
 10
-33.84626318763539
 20
16.09539699463329
 30
0.0
 10
-33.97138896919222
 20
16.21927491854032
 30
0.0
 10
-34.10363173405869
 20
16.32240255727611
 30
0.0
 10
-34.24605228704032
 20
16.40119980794594
 30
0.0
 10
-34.39593021011464
 20
16.45683718553909
 30
0.0
 10
-34.55357276432372
 20
16.49049593312523
 30
0.0
 10
-34.661107303825
 20
16.49488715214181
 30
0.0
 10
-34.71597055288461
 20
16.49712751643498
 30
0.0
  0
SPLINE
  5
16A
330
1F
100
AcDbEntity
  8
0
  6
Continuous
 62
     7
370
    25
100
AcDbSpline
210
0.0
220
0.0
230
1.0
 70
     8
 71
     3
 72
    27
 73
    23
 74
     0
 42
0.000000001
 43
0.00000001
 40
0.0
 40
0.0
 40
0.0
 40
0.0
 40
0.0538337008959151
 40
0.1055426304091373
 40
0.1580541720958373
 40
0.2119873357804049
 40
0.2402068903290461
 40
0.2697935103595447
 40
0.3013430987966751
 40
0.3346080613711936
 40
0.37028444166486
 40
0.408088838014946
 40
0.4486813458099818
 40
0.4920692965602022
 40
0.5386641566662651
 40
0.5903710538753821
 40
0.6463877841547199
 40
0.7071953757631237
 40
0.77294677468184
 40
0.8436426012467371
 40
0.9193083570571428
 40
1.0
 40
1.0
 40
1.0
 40
1.0
 10
-34.71597055288461
 20
16.49712751643498
 30
0.0
 10
-34.79077948136407
 20
16.49358172195614
 30
0.0
 10
-34.93744469215977
 20
16.4866300825563
 30
0.0
 10
-35.15026290102379
 20
16.42762047183749
 30
0.0
 10
-35.35093718429358
 20
16.33647694639912
 30
0.0
 10
-35.50358475179505
 20
16.22679996388832
 30
0.0
 10
-35.61783993789349
 20
16.12166142349734
 30
0.0
 10
-35.69767085569863
 20
16.02651446369576
 30
0.0
 10
-35.77465519373293
 20
15.9203373138785
 30
0.0
 10
-35.84265163787337
 20
15.79833874514076
 30
0.0
 10
-35.90685803069387
 20
15.66490231030731
 30
0.0
 10
-35.96960702981903
 20
15.51942228782966
 30
0.0
 10
-36.02104473207496
 20
15.35832537370762
 30
0.0
 10
-36.07158091086421
 20
15.18435506906065
 30
0.0
 10
-36.11585531890064
 20
14.99270155717567
 30
0.0
 10
-36.15294756667659
 20
14.78179828204545
 30
0.0
 10
-36.18608622963023
 20
14.55027372029449
 30
0.0
 10
-36.20920084224888
 20
14.29797622303382
 30
0.0
 10
-36.23075059782411
 20
14.02516975563358
 30
0.0
 10
-36.24619848312604
 20
13.73124661117729
 30
0.0
 10
-36.25265685622147
 20
13.41628608382788
 30
0.0
 10
-36.25470977651489
 20
13.19937744271377
 30
0.0
 10
-36.25576923076922
 20
13.08743701162729
 30
0.0
  0
SPLINE
  5
16B
330
1F
100
AcDbEntity
  8
0
  6
Continuous
 62
     7
370
    25
100
AcDbSpline
210
0.0
220
0.0
230
1.0
 70
     8
 71
     3
 72
    23
 73
    19
 74
     0
 42
0.000000001
 43
0.00000001
 40
0.0
 40
0.0
 40
0.0
 40
0.0
 40
0.1107342804863384
 40
0.2123411929916477
 40
0.3055021255634833
 40
0.3898348410859878
 40
0.4666904579461288
 40
0.5352618542933012
 40
0.5967629138889615
 40
0.6510657189836183
 40
0.7010355511102176
 40
0.7478602709077578
 40
0.7918333971357295
 40
0.8342840069087871
 40
0.8753338897746171
 40
0.9160347492783134
 40
0.9576522807232382
 40
1.0
 40
1.0
 40
1.0
 40
1.0
 10
-36.25576923076922
 20
13.08743701162729
 30
0.0
 10
-36.25402549762062
 20
12.94241277166365
 30
0.0
 10
-36.25068176002276
 20
12.66431803901773
 30
0.0
 10
-36.23316882522322
 20
12.2644081302315
 30
0.0
 10
-36.19806560085299
 20
11.90045791151308
 30
0.0
 10
-36.15440427721222
 20
11.57000075750915
 30
0.0
 10
-36.0930801652454
 20
11.27517977135183
 30
0.0
 10
-36.02252280481886
 20
11.01320567301633
 30
0.0
 10
-35.93539073837972
 20
10.78741799624082
 30
0.0
 10
-35.83469284674842
 20
10.59455134328678
 30
0.0
 10
-35.72316539454277
 20
10.43048008234714
 30
0.0
 10
-35.60209743907591
 20
10.2910187715933
 30
0.0
 10
-35.47561091041987
 20
10.17025185618922
 30
0.0
 10
-35.33975775278918
 20
10.07215437899504
 30
0.0
 10
-35.19486207101613
 20
9.996976994445818
 30
0.0
 10
-35.04213347762097
 20
9.942902830157305
 30
0.0
 10
-34.8814749157431
 20
9.909801782248689
 30
0.0
 10
-34.77145758875666
 20
9.905211731054747
 30
0.0
 10
-34.71597055288461
 20
9.902896747204213
 30
0.0
  0
SPLINE
  5
16C
330
1F
100
AcDbEntity
  8
0
  6
Continuous
 62
     7
370
    25
100
AcDbSpline
210
0.0
220
0.0
230
1.0
 70
     8
 71
     3
 72
    15
 73
    11
 74
     0
 42
0.000000001
 43
0.00000001
 40
0.0
 40
0.0
 40
0.0
 40
0.0
 40
0.1240354330026172
 40
0.2428459548115288
 40
0.360341682449616
 40
0.4790424316556558
 40
0.5993341100427901
 40
0.7254884757708255
 40
0.8585494285274645
 40
0.9999999999999999
 40
0.9999999999999999
 40
0.9999999999999999
 40
0.9999999999999999
 10
-34.71597055288461
 20
9.902896747204213
 30
0.0
 10
-34.66238765622398
 20
9.904480831151695
 30
0.0
 10
-34.5574790072507
 20
9.907582270550218
 30
0.0
 10
-34.40449870192609
 20
9.939418129087642
 30
0.0
 10
-34.25982965497525
 20
9.991176320447925
 30
0.0
 10
-34.1239086673814
 20
10.06439191583724
 30
0.0
 10
-33.99624956861228
 20
10.15749674765923
 30
0.0
 10
-33.87747627773556
 20
10.27089995800363
 30
0.0
 10
-33.76848455909853
 20
10.40573191278996
 30
0.0
 10
-33.70498548903413
 20
10.50579716424545
 30
0.0
 10
-33.67226562499999
 20
10.55735888662729
 30
0.0
  0
ENDSEC
  0
SECTION
  2
OBJECTS
  0
DICTIONARY
  5
C
330
0
100
AcDbDictionary
281
     1
  3
ACAD_GROUP
350
D
  3
ACAD_LAYOUT
350
1A
  3
ACAD_MLINESTYLE
350
17
  3
ACAD_PLOTSETTINGS
350
19
  3
ACAD_PLOTSTYLENAME
350
E
  3
ACAD_SCALELIST
350
47
  0
DICTIONARY
  5
D
102
{ACAD_REACTORS
330
C
102
}
330
C
100
AcDbDictionary
281
     1
  0
DICTIONARY
  5
1A
102
{ACAD_REACTORS
330
C
102
}
330
C
100
AcDbDictionary
281
     1
  3
Layout1
350
1E
  3
Layout2
350
26
  3
Model
350
22
  0
DICTIONARY
  5
17
102
{ACAD_REACTORS
330
C
102
}
330
C
100
AcDbDictionary
281
     1
  3
Standard
350
18
  0
DICTIONARY
  5
19
102
{ACAD_REACTORS
330
C
102
}
330
C
100
AcDbDictionary
281
     1
  0
ACDBDICTIONARYWDFLT
  5
E
102
{ACAD_REACTORS
330
C
102
}
330
C
100
AcDbDictionary
281
     1
  3
Normal
350
F
100
AcDbDictionaryWithDefault
340
F
  0
DICTIONARY
  5
47
102
{ACAD_REACTORS
330
C
102
}
330
C
100
AcDbDictionary
281
     1
  3
A0
350
48
  3
A1
350
49
  3
A2
350
4A
  3
A3
350
4B
  3
A4
350
4C
  3
A5
350
4D
  3
A6
350
4E
  3
A7
350
4F
  3
A8
350
50
  3
A9
350
51
  3
B0
350
52
  3
B1
350
53
  3
B2
350
54
  3
B3
350
55
  3
B4
350
56
  3
B5
350
57
  3
B6
350
58
  3
B7
350
59
  3
B8
350
5A
  3
B9
350
5B
  3
C0
350
5C
  3
C1
350
5D
  3
C2
350
5E
  3
C3
350
5F
  3
C4
350
60
  3
C5
350
61
  3
C6
350
62
  3
C7
350
63
  3
C8
350
64
  3
C9
350
65
  3
D0
350
66
  3
D1
350
67
  3
D2
350
68
  0
LAYOUT
  5
1E
102
{ACAD_REACTORS
330
1A
102
}
330
1A
100
AcDbPlotSettings
  1

  2
none_device
  4

  6

 40
0.0
 41
0.0
 42
0.0
 43
0.0
 44
0.0
 45
0.0
 46
0.0
 47
0.0
 48
0.0
 49
0.0
140
0.0
141
0.0
142
1.0
143
1.0
 70
   688
 72
     1
 73
     0
 74
     5
  7

 75
    16
147
1.0
148
0.0
149
0.0
100
AcDbLayout
  1
Layout1
 70
     1
 71
     1
 10
0.0
 20
0.0
 11
420.0
 21
297.0
 12
0.0
 22
0.0
 32
0.0
 14
1.0000000000E+20
 24
1.0000000000E+20
 34
1.0000000000E+20
 15
-1.0000000000E+20
 25
-1.0000000000E+20
 35
-1.0000000000E+20
146
0.0
 13
0.0
 23
0.0
 33
0.0
 16
1.0
 26
0.0
 36
0.0
 17
0.0
 27
1.0
 37
0.0
 76
     0
330
1B
  0
LAYOUT
  5
26
102
{ACAD_REACTORS
330
1A
102
}
330
1A
100
AcDbPlotSettings
  1

  2
none_device
  4

  6

 40
0.0
 41
0.0
 42
0.0
 43
0.0
 44
0.0
 45
0.0
 46
0.0
 47
0.0
 48
0.0
 49
0.0
140
0.0
141
0.0
142
1.0
143
1.0
 70
   688
 72
     1
 73
     0
 74
     5
  7

 75
    16
147
1.0
148
0.0
149
0.0
100
AcDbLayout
  1
Layout2
 70
     1
 71
     2
 10
0.0
 20
0.0
 11
0.0
 21
0.0
 12
0.0
 22
0.0
 32
0.0
 14
0.0
 24
0.0
 34
0.0
 15
0.0
 25
0.0
 35
0.0
146
0.0
 13
0.0
 23
0.0
 33
0.0
 16
1.0
 26
0.0
 36
0.0
 17
0.0
 27
1.0
 37
0.0
 76
     0
330
23
  0
LAYOUT
  5
22
102
{ACAD_REACTORS
330
1A
102
}
330
1A
100
AcDbPlotSettings
  1

  2
none_device
  4
ANSI_A_(11.00_x_8.50_Inches)
  6

 40
6.35
 41
19.05
 42
6.35000508
 43
19.05000254
 44
279.4
 45
215.9
 46
271.65299746
 47
68.15454873
 48
0.0
 49
0.0
140
0.0
141
0.0
142
0.05445
143
1.0
 70
  1696
 72
     0
 73
     0
 74
     0
  7

 75
     0
147
0.0179189148
148
-1300.4909072572
149
0.0
100
AcDbLayout
  1
Model
 70
     1
 71
     0
 10
0.0
 20
0.0
 11
420.0
 21
297.0
 12
0.0
 22
0.0
 32
0.0
 14
-200.0
 24
-5.0
 34
0.0
 15
0.0
 25
35.0
 35
0.0
146
0.0
 13
0.0
 23
0.0
 33
0.0
 16
1.0
 26
0.0
 36
0.0
 17
0.0
 27
1.0
 37
0.0
 76
     0
330
1F
331
29
  0
MLINESTYLE
  5
18
102
{ACAD_REACTORS
330
17
102
}
330
17
100
AcDbMlineStyle
  2
Standard
 70
     0
  3

 62
   256
 51
90.0
 52
90.0
 71
     2
 49
0.5
 62
   256
  6
BYLAYER
 49
-0.5
 62
   256
  6
BYLAYER
  0
ACDBPLACEHOLDER
  5
F
102
{ACAD_REACTORS
330
E
102
}
330
E
  0
SCALE
  5
48
102
{ACAD_REACTORS
330
47
102
}
330
47
100
AcDbScale
 70
     0
300
1:1
140
1.0
141
1.0
290
     1
  0
SCALE
  5
49
102
{ACAD_REACTORS
330
47
102
}
330
47
100
AcDbScale
 70
     0
300
1:2
140
1.0
141
2.0
290
     0
  0
SCALE
  5
4A
102
{ACAD_REACTORS
330
47
102
}
330
47
100
AcDbScale
 70
     0
300
1:4
140
1.0
141
4.0
290
     0
  0
SCALE
  5
4B
102
{ACAD_REACTORS
330
47
102
}
330
47
100
AcDbScale
 70
     0
300
1:5
140
1.0
141
5.0
290
     0
  0
SCALE
  5
4C
102
{ACAD_REACTORS
330
47
102
}
330
47
100
AcDbScale
 70
     0
300
1:8
140
1.0
141
8.0
290
     0
  0
SCALE
  5
4D
102
{ACAD_REACTORS
330
47
102
}
330
47
100
AcDbScale
 70
     0
300
1:10
140
1.0
141
10.0
290
     0
  0
SCALE
  5
4E
102
{ACAD_REACTORS
330
47
102
}
330
47
100
AcDbScale
 70
     0
300
1:16
140
1.0
141
16.0
290
     0
  0
SCALE
  5
4F
102
{ACAD_REACTORS
330
47
102
}
330
47
100
AcDbScale
 70
     0
300
1:20
140
1.0
141
20.0
290
     0
  0
SCALE
  5
50
102
{ACAD_REACTORS
330
47
102
}
330
47
100
AcDbScale
 70
     0
300
1:30
140
1.0
141
30.0
290
     0
  0
SCALE
  5
51
102
{ACAD_REACTORS
330
47
102
}
330
47
100
AcDbScale
 70
     0
300
1:40
140
1.0
141
40.0
290
     0
  0
SCALE
  5
52
102
{ACAD_REACTORS
330
47
102
}
330
47
100
AcDbScale
 70
     0
300
1:50
140
1.0
141
50.0
290
     0
  0
SCALE
  5
53
102
{ACAD_REACTORS
330
47
102
}
330
47
100
AcDbScale
 70
     0
300
1:100
140
1.0
141
100.0
290
     0
  0
SCALE
  5
54
102
{ACAD_REACTORS
330
47
102
}
330
47
100
AcDbScale
 70
     0
300
2:1
140
2.0
141
1.0
290
     0
  0
SCALE
  5
55
102
{ACAD_REACTORS
330
47
102
}
330
47
100
AcDbScale
 70
     0
300
4:1
140
4.0
141
1.0
290
     0
  0
SCALE
  5
56
102
{ACAD_REACTORS
330
47
102
}
330
47
100
AcDbScale
 70
     0
300
8:1
140
8.0
141
1.0
290
     0
  0
SCALE
  5
57
102
{ACAD_REACTORS
330
47
102
}
330
47
100
AcDbScale
 70
     0
300
10:1
140
10.0
141
1.0
290
     0
  0
SCALE
  5
58
102
{ACAD_REACTORS
330
47
102
}
330
47
100
AcDbScale
 70
     0
300
100:1
140
100.0
141
1.0
290
     0
  0
SCALE
  5
59
102
{ACAD_REACTORS
330
47
102
}
330
47
100
AcDbScale
 70
     0
300
1/128" = 1'-0"
140
0.0078125
141
12.0
290
     0
  0
SCALE
  5
5A
102
{ACAD_REACTORS
330
47
102
}
330
47
100
AcDbScale
 70
     0
300
1/64" = 1'-0"
140
0.015625
141
12.0
290
     0
  0
SCALE
  5
5B
102
{ACAD_REACTORS
330
47
102
}
330
47
100
AcDbScale
 70
     0
300
1/32" = 1'-0"
140
0.03125
141
12.0
290
     0
  0
SCALE
  5
5C
102
{ACAD_REACTORS
330
47
102
}
330
47
100
AcDbScale
 70
     0
300
1/16" = 1'-0"
140
0.0625
141
12.0
290
     0
  0
SCALE
  5
5D
102
{ACAD_REACTORS
330
47
102
}
330
47
100
AcDbScale
 70
     0
300
3/32" = 1'-0"
140
0.09375
141
12.0
290
     0
  0
SCALE
  5
5E
102
{ACAD_REACTORS
330
47
102
}
330
47
100
AcDbScale
 70
     0
300
1/8" = 1'-0"
140
0.125
141
12.0
290
     0
  0
SCALE
  5
5F
102
{ACAD_REACTORS
330
47
102
}
330
47
100
AcDbScale
 70
     0
300
3/16" = 1'-0"
140
0.1875
141
12.0
290
     0
  0
SCALE
  5
60
102
{ACAD_REACTORS
330
47
102
}
330
47
100
AcDbScale
 70
     0
300
1/4" = 1'-0"
140
0.25
141
12.0
290
     0
  0
SCALE
  5
61
102
{ACAD_REACTORS
330
47
102
}
330
47
100
AcDbScale
 70
     0
300
3/8" = 1'-0"
140
0.375
141
12.0
290
     0
  0
SCALE
  5
62
102
{ACAD_REACTORS
330
47
102
}
330
47
100
AcDbScale
 70
     0
300
1/2" = 1'-0"
140
0.5
141
12.0
290
     0
  0
SCALE
  5
63
102
{ACAD_REACTORS
330
47
102
}
330
47
100
AcDbScale
 70
     0
300
3/4" = 1'-0"
140
0.75
141
12.0
290
     0
  0
SCALE
  5
64
102
{ACAD_REACTORS
330
47
102
}
330
47
100
AcDbScale
 70
     0
300
1" = 1'-0"
140
1.0
141
12.0
290
     0
  0
SCALE
  5
65
102
{ACAD_REACTORS
330
47
102
}
330
47
100
AcDbScale
 70
     0
300
1-1/2" = 1'-0"
140
1.5
141
12.0
290
     0
  0
SCALE
  5
66
102
{ACAD_REACTORS
330
47
102
}
330
47
100
AcDbScale
 70
     0
300
3" = 1'-0"
140
3.0
141
12.0
290
     0
  0
SCALE
  5
67
102
{ACAD_REACTORS
330
47
102
}
330
47
100
AcDbScale
 70
     0
300
6" = 1'-0"
140
6.0
141
12.0
290
     0
  0
SCALE
  5
68
102
{ACAD_REACTORS
330
47
102
}
330
47
100
AcDbScale
 70
     0
300
1'-0" = 1'-0"
140
12.0
141
12.0
290
     0
  0
ENDSEC
  0
EOF
