  0
SECTION
  2
HEADER
  9
$ACADVER
  1
AC1015
  9
$ACADMAINTVER
 70
     6
  9
$DWGCODEPAGE
  3
ANSI_1252
  9
$INSBASE
 10
0.0
 20
0.0
 30
0.0
  9
$EXTMIN
 10
-200.0
 20
-5.0
 30
0.0
  9
$EXTMAX
 10
0.0
 20
35.0
 30
0.0
  9
$LIMMIN
 10
0.0
 20
0.0
  9
$LIMMAX
 10
420.0
 20
297.0
  9
$ORTHOMODE
 70
     0
  9
$REGENMODE
 70
     1
  9
$FILLMODE
 70
     1
  9
$QTEXTMODE
 70
     0
  9
$MIRRTEXT
 70
     1
  9
$LTSCALE
 40
1.0
  9
$ATTMODE
 70
     1
  9
$TEXTSIZE
 40
3.5
  9
$TRACEWID
 40
1.0
  9
$TEXTSTYLE
  7
Standard
  9
$CLAYER
  8
0
  9
$CELTYPE
  6
ByLayer
  9
$CECOLOR
 62
   256
  9
$CELTSCALE
 40
1.0
  9
$DISPSILH
 70
     0
  9
$DIMSCALE
 40
1.0
  9
$DIMASZ
 40
3.302
  9
$DIMEXO
 40
1.0
  9
$DIMDLI
 40
3.75
  9
$DIMRND
 40
0.0
  9
$DIMDLE
 40
0.0
  9
$DIMEXE
 40
1.0
  9
$DIMTP
 40
0.0
  9
$DIMTM
 40
0.0
  9
$DIMTXT
 40
3.5
  9
$DIMCEN
 40
2.5
  9
$DIMTSZ
 40
0.0
  9
$DIMTOL
 70
     0
  9
$DIMLIM
 70
     0
  9
$DIMTIH
 70
     1
  9
$DIMTOH
 70
     1
  9
$DIMSE1
 70
     0
  9
$DIMSE2
 70
     0
  9
$DIMTAD
 70
     1
  9
$DIMZIN
 70
     1
  9
$DIMBLK
  1

  9
$DIMASO
 70
     1
  9
$DIMSHO
 70
     1
  9
$DIMPOST
  1

  9
$DIMAPOST
  1

  9
$DIMALT
 70
     0
  9
$DIMALTD
 70
     3
  9
$DIMALTF
 40
0.0393700787
  9
$DIMLFAC
 40
1.0
  9
$DIMTOFL
 70
     1
  9
$DIMTVP
 40
0.0
  9
$DIMTIX
 70
     0
  9
$DIMSOXD
 70
     0
  9
$DIMSAH
 70
     0
  9
$DIMBLK1
  1

  9
$DIMBLK2
  1

  9
$DIMSTYLE
  2
ISO-25
  9
$DIMCLRD
 70
     0
  9
$DIMCLRE
 70
     0
  9
$DIMCLRT
 70
     0
  9
$DIMTFAC
 40
1.0
  9
$DIMGAP
 40
1.524
  9
$DIMJUST
 70
     0
  9
$DIMSD1
 70
     0
  9
$DIMSD2
 70
     0
  9
$DIMTOLJ
 70
     0
  9
$DIMTZIN
 70
     1
  9
$DIMALTZ
 70
     0
  9
$DIMALTTZ
 70
     0
  9
$DIMUPT
 70
     0
  9
$DIMDEC
 70
     2
  9
$DIMTDEC
 70
     2
  9
$DIMALTU
 70
     2
  9
$DIMALTTD
 70
     3
  9
$DIMTXSTY
  7
Standard
  9
$DIMAUNIT
 70
     0
  9
$DIMADEC
 70
     2
  9
$DIMALTRND
 40
0.0
  9
$DIMAZIN
 70
     0
  9
$DIMDSEP
 70
    44
  9
$DIMATFIT
 70
     3
  9
$DIMFRAC
 70
     0
  9
$DIMLDRBLK
  1

  9
$DIMLUNIT
 70
     2
  9
$DIMLWD
 70
    -2
  9
$DIMLWE
 70
    -2
  9
$DIMTMOVE
 70
     0
  9
$LUNITS
 70
     2
  9
$LUPREC
 70
     2
  9
$SKETCHINC
 40
1.0
  9
$FILLETRAD
 40
10.0
  9
$AUNITS
 70
     0
  9
$AUPREC
 70
     2
  9
$MENU
  1
.
  9
$ELEVATION
 40
0.0
  9
$PELEVATION
 40
0.0
  9
$THICKNESS
 40
0.0
  9
$LIMCHECK
 70
     0
  9
$CHAMFERA
 40
0.0
  9
$CHAMFERB
 40
0.0
  9
$CHAMFERC
 40
0.0
  9
$CHAMFERD
 40
0.0
  9
$SKPOLY
 70
     0
  9
$TDCREATE
 40
2459614.629782894
  9
$TDUCREATE
 40
2459614.588116227
  9
$TDUPDATE
 40
2459614.630173634
  9
$TDUUPDATE
 40
2459614.588506968
  9
$TDINDWG
 40
0.0000000116
  9
$TDUSRTIMER
 40
0.0000000116
  9
$USRTIMER
 70
     1
  9
$ANGBASE
 50
0.0
  9
$ANGDIR
 70
     0
  9
$PDMODE
 70
     0
  9
$PDSIZE
 40
-1.0
  9
$PLINEWID
 40
0.0
  9
$SPLFRAME
 70
     0
  9
$SPLINETYPE
 70
     6
  9
$SPLINESEGS
 70
     8
  9
$HANDSEED
  5
16E
  9
$SURFTAB1
 70
     6
  9
$SURFTAB2
 70
     6
  9
$SURFTYPE
 70
     6
  9
$SURFU
 70
     6
  9
$SURFV
 70
     6
  9
$UCSBASE
  2

  9
$UCSNAME
  2

  9
$UCSORG
 10
0.0
 20
0.0
 30
0.0
  9
$UCSXDIR
 10
1.0
 20
0.0
 30
0.0
  9
$UCSYDIR
 10
0.0
 20
1.0
 30
0.0
  9
$UCSORTHOREF
  2

  9
$UCSORTHOVIEW
 70
     0
  9
$UCSORGTOP
 10
0.0
 20
0.0
 30
0.0
  9
$UCSORGBOTTOM
 10
0.0
 20
0.0
 30
0.0
  9
$UCSORGLEFT
 10
0.0
 20
0.0
 30
0.0
  9
$UCSORGRIGHT
 10
0.0
 20
0.0
 30
0.0
  9
$UCSORGFRONT
 10
0.0
 20
0.0
 30
0.0
  9
$UCSORGBACK
 10
0.0
 20
0.0
 30
0.0
  9
$PUCSBASE
  2

  9
$PUCSNAME
  2

  9
$PUCSORG
 10
0.0
 20
0.0
 30
0.0
  9
$PUCSXDIR
 10
1.0
 20
0.0
 30
0.0
  9
$PUCSYDIR
 10
0.0
 20
1.0
 30
0.0
  9
$PUCSORTHOREF
  2

  9
$PUCSORTHOVIEW
 70
     0
  9
$PUCSORGTOP
 10
0.0
 20
0.0
 30
0.0
  9
$PUCSORGBOTTOM
 10
0.0
 20
0.0
 30
0.0
  9
$PUCSORGLEFT
 10
0.0
 20
0.0
 30
0.0
  9
$PUCSORGRIGHT
 10
0.0
 20
0.0
 30
0.0
  9
$PUCSORGFRONT
 10
0.0
 20
0.0
 30
0.0
  9
$PUCSORGBACK
 10
0.0
 20
0.0
 30
0.0
  9
$USERI1
 70
     0
  9
$USERI2
 70
     0
  9
$USERI3
 70
     0
  9
$USERI4
 70
     0
  9
$USERI5
 70
     0
  9
$USERR1
 40
0.0
  9
$USERR2
 40
0.0
  9
$USERR3
 40
0.0
  9
$USERR4
 40
0.0
  9
$USERR5
 40
0.0
  9
$WORLDVIEW
 70
     1
  9
$SHADEDGE
 70
     3
  9
$SHADEDIF
 70
    70
  9
$TILEMODE
 70
     1
  9
$MAXACTVP
 70
    64
  9
$PINSBASE
 10
0.0
 20
0.0
 30
0.0
  9
$PLIMCHECK
 70
     0
  9
$PEXTMIN
 10
1.0000000000E+20
 20
1.0000000000E+20
 30
1.0000000000E+20
  9
$PEXTMAX
 10
-1.0000000000E+20
 20
-1.0000000000E+20
 30
-1.0000000000E+20
  9
$PLIMMIN
 10
0.0
 20
0.0
  9
$PLIMMAX
 10
420.0
 20
297.0
  9
$UNITMODE
 70
     0
  9
$VISRETAIN
 70
     1
  9
$PLINEGEN
 70
     0
  9
$PSLTSCALE
 70
     1
  9
$TREEDEPTH
 70
  3020
  9
$CMLSTYLE
  2
Standard
  9
$CMLJUST
 70
     0
  9
$CMLSCALE
 40
20.0
  9
$PROXYGRAPHICS
 70
     1
  9
$MEASUREMENT
 70
     1
  9
$CELWEIGHT
370
    -1
  9
$ENDCAPS
280
     0
  9
$JOINSTYLE
280
     0
  9
$LWDISPLAY
290
     1
  9
$INSUNITS
 70
     4
  9
$HYPERLINKBASE
  1

  9
$STYLESHEET
  1

  9
$XEDIT
290
     1
  9
$CEPSNTYPE
380
     0
  9
$PSTYLEMODE
290
     1
  9
$FINGERPRINTGUID
  2
{E8EBA5F7-0068-4A24-A73E-CF306F28F44E}
  9
$VERSIONGUID
  2
{FAEB1C32-E019-11D5-929B-00C0DF256EC4}
  9
$EXTNAMES
290
     1
  9
$PSVPSCALE
 40
0.0
  9
$OLESTARTUP
290
     0
  0
ENDSEC
  0
SECTION
  2
CLASSES
  0
CLASS
  1
ACDBDICTIONARYWDFLT
  2
AcDbDictionaryWithDefault
  3
ObjectDBX Classes
 90
        0
280
     0
281
     0
  0
CLASS
  1
VISUALSTYLE
  2
AcDbVisualStyle
  3
ObjectDBX Classes
 90
     4095
280
     0
281
     0
  0
CLASS
  1
MATERIAL
  2
AcDbMaterial
  3
ObjectDBX Classes
 90
     1153
280
     0
281
     0
  0
CLASS
  1
SCALE
  2
AcDbScale
  3
ObjectDBX Classes
 90
     1153
280
     0
281
     0
  0
CLASS
  1
TABLESTYLE
  2
AcDbTableStyle
  3
ObjectDBX Classes
 90
     4095
280
     0
281
     0
  0
CLASS
  1
MLEADERSTYLE
  2
AcDbMLeaderStyle
  3
ACDB_MLEADERSTYLE_CLASS
 90
     4095
280
     0
281
     0
  0
CLASS
  1
SUN
  2
AcDbSun
  3
SCENEOE
 90
     1153
280
     0
281
     0
  0
CLASS
  1
ACDBPLACEHOLDER
  2
AcDbPlaceHolder
  3
ObjectDBX Classes
 90
        0
280
     0
281
     0
  0
CLASS
  1
LAYOUT
  2
AcDbLayout
  3
ObjectDBX Classes
 90
        0
280
     0
281
     0
  0
ENDSEC
  0
SECTION
  2
TABLES
  0
TABLE
  2
VPORT
  5
8
330
0
100
AcDbSymbolTable
 70
     1
  0
VPORT
  5
29
330
8
100
AcDbSymbolTableRecord
100
AcDbViewportTableRecord
  2
*Active
 70
     0
 10
0.0
 20
0.0
 11
1.0
 21
1.0
 12
-100.0
 22
15.0
 13
0.0
 23
0.0
 14
10.0
 24
10.0
 15
10.0
 25
10.0
 16
0.0
 26
0.0
 36
1.0
 17
0.0
 27
0.0
 37
0.0
 40
40.8
 41
5.0
 42
50.0
 43
0.0
 44
0.0
 50
0.0
 51
0.0
 71
     0
 72
   100
 73
     1
 74
     3
 75
     0
 76
     0
 77
     0
 78
     0
281
     0
 65
     1
110
0.0
120
0.0
130
0.0
111
1.0
121
0.0
131
0.0
112
0.0
122
1.0
132
0.0
 79
     0
146
0.0
  0
ENDTAB
  0
TABLE
  2
LTYPE
  5
5
330
0
100
AcDbSymbolTable
 70
     6
  0
LTYPE
  5
14
330
5
100
AcDbSymbolTableRecord
100
AcDbLinetypeTableRecord
  2
ByBlock
 70
     0
  3

 72
    65
 73
     0
 40
0.0
  0
LTYPE
  5
15
330
5
100
AcDbSymbolTableRecord
100
AcDbLinetypeTableRecord
  2
ByLayer
 70
     0
  3

 72
    65
 73
     0
 40
0.0
  0
LTYPE
  5
16
330
5
100
AcDbSymbolTableRecord
100
AcDbLinetypeTableRecord
  2
Continuous
 70
     0
  3
Solid line
 72
    65
 73
     0
 40
0.0
  0
LTYPE
  5
6E
330
5
100
AcDbSymbolTableRecord
100
AcDbLinetypeTableRecord
  2
HIDDEN
 70
     0
  3
Hidden __ __ __ __ __ __ __ __ __ __ __ __ __ __
 72
    65
 73
     2
 40
1.905
 49
1.27
 74
     0
 49
-0.635
 74
     0
  0
LTYPE
  5
6F
330
5
100
AcDbSymbolTableRecord
100
AcDbLinetypeTableRecord
  2
PHANTOM
 70
     0
  3
Phantom ______  __  __  ______  __  __  ______
 72
    65
 73
     6
 40
12.7
 49
6.35
 74
     0
 49
-1.27
 74
     0
 49
1.27
 74
     0
 49
-1.27
 74
     0
 49
1.27
 74
     0
 49
-1.27
 74
     0
  0
LTYPE
  5
70
330
5
100
AcDbSymbolTableRecord
100
AcDbLinetypeTableRecord
  2
CENTER
 70
     0
  3
Center ____ _ ____ _ ____ _ ____ _ ____ _ ____
 72
    65
 73
     4
 40
10.16
 49
6.35
 74
     0
 49
-1.27
 74
     0
 49
1.27
 74
     0
 49
-1.27
 74
     0
  0
LTYPE
  5
71
330
5
100
AcDbSymbolTableRecord
100
AcDbLinetypeTableRecord
  2
CENTERX2
 70
     0
  3
Center (2x) ________  __  ________  __  _____
 72
    65
 73
     4
 40
20.32
 49
12.7
 74
     0
 49
-2.54
 74
     0
 49
2.54
 74
     0
 49
-2.54
 74
     0
  0
LTYPE
  5
72
330
5
100
AcDbSymbolTableRecord
100
AcDbLinetypeTableRecord
  2
DOT2
 70
     0
  3
Dot (.5x) ........................................
 72
    65
 73
     2
 40
0.635
 49
0.0
 74
     0
 49
-0.635
 74
     0
  0
ENDTAB
  0
TABLE
  2
LAYER
  5
2
330
0
100
AcDbSymbolTable
 70
     1
  0
LAYER
  5
10
330
2
100
AcDbSymbolTableRecord
100
AcDbLayerTableRecord
  2
0
 70
     0
 62
     7
  6
Continuous
370
    -3
390
F
  0
ENDTAB
  0
TABLE
  2
STYLE
  5
3
330
0
100
AcDbSymbolTable
 70
     1
  0
STYLE
  5
11
330
3
100
AcDbSymbolTableRecord
100
AcDbTextStyleTableRecord
  2
Standard
 70
     0
 40
0.0
 41
1.0
 50
0.0
 71
     0
 42
3.5
  3
txt
  4

  0
ENDTAB
  0
TABLE
  2
VIEW
  5
6
330
0
100
AcDbSymbolTable
 70
     0
  0
ENDTAB
  0
TABLE
  2
UCS
  5
7
330
0
100
AcDbSymbolTable
 70
     0
  0
ENDTAB
  0
TABLE
  2
APPID
  5
9
330
0
100
AcDbSymbolTable
 70
     1
  0
APPID
  5
12
330
9
100
AcDbSymbolTableRecord
100
AcDbRegAppTableRecord
  2
ACAD
 70
     0
  0
ENDTAB
  0
TABLE
  2
DIMSTYLE
  5
A
330
0
100
AcDbSymbolTable
 70
     1
100
AcDbDimStyleTable
  0
DIMSTYLE
105
27
330
A
100
AcDbSymbolTableRecord
100
AcDbDimStyleTableRecord
  2
ISO-25
 70
     0
 41
2.5
 42
0.625
 43
3.75
 44
1.25
 73
     0
 74
     0
 77
     1
 78
     8
140
2.5
141
2.5
143
0.0393700787
147
0.625
171
     3
172
     1
178
     0
271
     2
272
     2
274
     3
278
    44
283
     0
284
     8
340
11
  0
ENDTAB
  0
TABLE
  2
BLOCK_RECORD
  5
1
330
0
100
AcDbSymbolTable
 70
     1
  0
BLOCK_RECORD
  5
1F
330
1
100
AcDbSymbolTableRecord
100
AcDbBlockTableRecord
  2
*Model_Space
340
22
  0
BLOCK_RECORD
  5
1B
330
1
100
AcDbSymbolTableRecord
100
AcDbBlockTableRecord
  2
*Paper_Space
340
1E
  0
BLOCK_RECORD
  5
23
330
1
100
AcDbSymbolTableRecord
100
AcDbBlockTableRecord
  2
*Paper_Space0
340
26
  0
ENDTAB
  0
ENDSEC
  0
SECTION
  2
BLOCKS
  0
BLOCK
  5
20
330
1F
100
AcDbEntity
  8
0
100
AcDbBlockBegin
  2
*Model_Space
 70
     0
 10
0.0
 20
0.0
 30
0.0
  3
*Model_Space
  1

  0
ENDBLK
  5
21
330
1F
100
AcDbEntity
  8
0
100
AcDbBlockEnd
  0
BLOCK
  5
1C
330
1B
100
AcDbEntity
 67
     1
  8
0
100
AcDbBlockBegin
  2
*Paper_Space
 70
     0
 10
0.0
 20
0.0
 30
0.0
  3
*Paper_Space
  1

  0
ENDBLK
  5
1D
330
1B
100
AcDbEntity
 67
     1
  8
0
100
AcDbBlockEnd
  0
BLOCK
  5
24
330
23
100
AcDbEntity
  8
0
100
AcDbBlockBegin
  2
*Paper_Space0
 70
     0
 10
0.0
 20
0.0
 30
0.0
  3
*Paper_Space0
  1

  0
ENDBLK
  5
25
330
23
100
AcDbEntity
  8
0
100
AcDbBlockEnd
  0
ENDSEC
  0
SECTION
  2
ENTITIES
  0
LINE
  5
73
330
1F
100
AcDbEntity
  8
0
  6
Continuous
 62
     7
370
    25
100
AcDbLine
 10
-26.5475961538
 20
15.0
 30
0.0
 11
-26.5475961538
 21
24.525
 31
0.0
  0
LINE
  5
74
330
1F
100
AcDbEntity
  8
0
  6
Continuous
 62
     7
370
    25
100
AcDbLine
 10
-26.5475961538
 20
24.525
 30
0.0
 11
-31.6764423077
 21
24.525
 31
0.0
  0
LINE
  5
75
330
1F
100
AcDbEntity
  8
0
  6
Continuous
 62
     7
370
    25
100
AcDbLine
 10
-31.6764423077
 20
24.525
 30
0.0
 11
-31.6764423077
 21
22.8153846154
 31
0.0
  0
LINE
  5
76
330
1F
100
AcDbEntity
  8
0
  6
Continuous
 62
     7
370
    25
100
AcDbLine
 10
-31.6764423077
 20
22.8153846154
 30
0.0
 11
-28.2572115385
 21
22.8153846154
 31
0.0
  0
LINE
  5
77
330
1F
100
AcDbEntity
  8
0
  6
Continuous
 62
     7
370
    25
100
AcDbLine
 10
-28.2572115385
 20
22.8153846154
 30
0.0
 11
-28.2572115385
 21
20.9836538462
 31
0.0
  0
LINE
  5
78
330
1F
100
AcDbEntity
  8
0
  6
Continuous
 62
     7
370
    25
100
AcDbLine
 10
-28.2572115385
 20
20.9836538462
 30
0.0
 11
-31.6764423077
 21
20.9836538462
 31
0.0
  0
LINE
  5
79
330
1F
100
AcDbEntity
  8
0
  6
Continuous
 62
     7
370
    25
100
AcDbLine
 10
-31.6764423077
 20
20.9836538462
 30
0.0
 11
-31.6764423077
 21
19.2740384615
 31
0.0
  0
LINE
  5
7A
330
1F
100
AcDbEntity
  8
0
  6
Continuous
 62
     7
370
    25
100
AcDbLine
 10
-31.6764423077
 20
19.2740384615
 30
0.0
 11
-28.2572115385
 21
19.2740384615
 31
0.0
  0
LINE
  5
7B
330
1F
100
AcDbEntity
  8
0
  6
Continuous
 62
     7
370
    25
100
AcDbLine
 10
-28.2572115385
 20
19.2740384615
 30
0.0
 11
-28.2572115385
 21
16.7096153846
 31
0.0
  0
LINE
  5
7C
330
1F
100
AcDbEntity
  8
0
  6
Continuous
 62
     7
370
    25
100
AcDbLine
 10
-28.2572115385
 20
16.7096153846
 30
0.0
 11
-31.6764423077
 21
16.7096153846
 31
0.0
  0
LINE
  5
7D
330
1F
100
AcDbEntity
  8
0
  6
Continuous
 62
     7
370
    25
100
AcDbLine
 10
-31.6764423077
 20
16.7096153846
 30
0.0
 11
-31.6764423077
 21
15.0
 31
0.0
  0
LINE
  5
7E
330
1F
100
AcDbEntity
  8
0
  6
Continuous
 62
     7
370
    25
100
AcDbLine
 10
-31.6764423077
 20
15.0
 30
0.0
 11
-26.5475961538
 21
15.0
 31
0.0
  0
SPLINE
  5
7F
330
1F
100
AcDbEntity
  8
0
  6
Continuous
 62
     7
370
    25
100
AcDbSpline
210
0.0
220
0.0
230
1.0
 70
     8
 71
     3
 72
    31
 73
    27
 74
     0
 42
0.000000001
 43
0.00000001
 40
0.0
 40
0.0
 40
0.0
 40
0.0
 40
0.0431143456619736
 40
0.0856827648242092
 40
0.1275943241639275
 40
0.1690586225605482
 40
0.2104320288213099
 40
0.2518111664630527
 40
0.2934438397982394
 40
0.335380853221825
 40
0.3774766059607944
 40
0.4186884906768272
 40
0.4598730336711989
 40
0.5008729046253153
 40
0.5418727755794325
 40
0.5832117768673242
 40
0.6247632017340756
 40
0.6669876223820893
 40
0.7093697058942395
 40
0.7511026519448578
 40
0.7925683801202209
 40
0.8335451085502587
 40
0.8748274225565257
 40
0.916017723211068
 40
0.9578592039763051
 40
1.0
 40
1.0
 40
1.0
 40
1.0
 10
-40.59086538461543
 20
19.76631610576922
 30
0.0
 10
-40.59231809948221
 20
19.87898258325941
 30
0.0
 10
-40.59520513451371
 20
20.10288892223182
 30
0.0
 10
-40.62998251262863
 20
20.43470668720513
 30
0.0
 10
-40.68005193832902
 20
20.76004781490968
 30
0.0
 10
-40.75410224318309
 20
21.07761516554066
 30
0.0
 10
-40.84405443709905
 20
21.38964902908649
 30
0.0
 10
-40.96060021101539
 20
21.69324491705981
 30
0.0
 10
-41.09326084178482
 20
21.99164606845839
 30
0.0
 10
-41.24826229833327
 20
22.2813279920306
 30
0.0
 10
-41.42060893067607
 20
22.55962537201021
 30
0.0
 10
-41.60865445105873
 20
22.82522543107346
 30
0.0
 10
-41.8128716973852
 20
23.07491667623503
 30
0.0
 10
-42.03260281825228
 20
23.31033997551684
 30
0.0
 10
-42.26860503685494
 20
23.52994787448143
 30
0.0
 10
-42.51777398778398
 20
23.73684922868597
 30
0.0
 10
-42.78494209784632
 20
23.92554800247944
 30
0.0
 10
-43.06426189536585
 20
24.10065259627642
 30
0.0
 10
-43.35415863956038
 20
24.25899664370626
 30
0.0
 10
-43.65345218771724
 20
24.3937743612818
 30
0.0
 10
-43.95597650151028
 20
24.51147344633481
 30
0.0
 10
-44.26577289776721
 20
24.60436676849455
 30
0.0
 10
-44.57952135702711
 20
24.68002740752985
 30
0.0
 10
-44.90057364603195
 20
24.73006308645917
 30
0.0
 10
-45.22602923986675
 20
24.76483950148761
 30
0.0
 10
-45.44549501276234
 20
24.76776353953105
 30
0.0
 10
-45.55561899038467
 20
24.76923076923076
 30
0.0
  0
SPLINE
  5
80
330
1F
100
AcDbEntity
  8
0
  6
Continuous
 62
     7
370
    25
100
AcDbSpline
210
0.0
220
0.0
230
1.0
 70
     8
 71
     3
 72
    23
 73
    19
 74
     0
 42
0.000000001
 43
0.00000001
 40
0.0
 40
0.0
 40
0.0
 40
0.0
 40
0.0633955966615907
 40
0.1251572666424212
 40
0.1856494665262535
 40
0.245976679340815
 40
0.3061083686579568
 40
0.3673505880891753
 40
0.4299020782799144
 40
0.4945399581831938
 40
0.5593725826940477
 40
0.6224096858457371
 40
0.684357425819475
 40
0.7458066007722104
 40
0.8074302750159149
 40
0.8699955160697815
 40
0.9339278677192726
 40
1.0
 40
1.0
 40
1.0
 40
1.0
 10
-45.55561899038466
 20
24.76923076923076
 30
0.0
 10
-45.72122278886307
 20
24.76494299032614
 30
0.0
 10
-46.04816219561398
 20
24.75647794360479
 30
0.0
 10
-46.52897208272955
 20
24.68591517253831
 30
0.0
 10
-46.99232131040048
 20
24.5709432532203
 30
0.0
 10
-47.43800035343941
 20
24.41112396951942
 30
0.0
 10
-47.8648932827542
 20
24.20212860306561
 30
0.0
 10
-48.27450589263616
 20
23.9498823096273
 30
0.0
 10
-48.66537097013058
 20
23.64962409154131
 30
0.0
 10
-49.03348324333914
 20
23.30835847767303
 30
0.0
 10
-49.37368537419626
 20
22.93724702384773
 30
0.0
 10
-49.66847071928219
 20
22.53767956537842
 30
0.0
 10
-49.91985284703225
 20
22.12000929650513
 30
0.0
 10
-50.12819902707586
 20
21.68311705756831
 30
0.0
 10
-50.28689342290182
 20
21.22397716146439
 30
0.0
 10
-50.39825584439571
 20
20.7449306148025
 30
0.0
 10
-50.46980068290587
 20
20.24611370194611
 30
0.0
 10
-50.47802944012756
 20
19.90648737378628
 30
0.0
 10
-50.48221153846158
 20
19.73387920673076
 30
0.0
  0
SPLINE
  5
81
330
1F
100
AcDbEntity
  8
0
  6
Continuous
 62
     7
370
    25
100
AcDbSpline
210
0.0
220
0.0
230
1.0
 70
     8
 71
     3
 72
    23
 73
    19
 74
     0
 42
0.000000001
 43
0.00000001
 40
0.0
 40
0.0
 40
0.0
 40
0.0
 40
0.0657223151915613
 40
0.129507930702584
 40
0.1917221026921613
 40
0.2531611245020889
 40
0.3143157037352579
 40
0.3759517397728627
 40
0.4386196008234089
 40
0.5029729018927768
 40
0.5671286457242652
 40
0.6295522895796745
 40
0.6904767824348742
 40
0.7510723384108291
 40
0.8116678943867836
 40
0.8729293555873914
 40
0.935501370715808
 40
1.0
 40
1.0
 40
1.0
 40
1.0
 10
-50.48221153846158
 20
19.73387920673076
 30
0.0
 10
-50.4777577846914
 20
19.56321593505205
 30
0.0
 10
-50.46898151999417
 20
19.22691848269326
 30
0.0
 10
-50.40117661789127
 20
18.73269836413392
 30
0.0
 10
-50.2879388392593
 20
18.25878340406907
 30
0.0
 10
-50.13193602491721
 20
17.80410088532828
 30
0.0
 10
-49.92736845689575
 20
17.37085313396892
 30
0.0
 10
-49.68088855436026
 20
16.95627392345628
 30
0.0
 10
-49.38599218123582
 20
16.56421064806023
 30
0.0
 10
-49.05343536637168
 20
16.19487370384697
 30
0.0
 10
-48.68731917361532
 20
15.85962117590451
 30
0.0
 10
-48.29954400536511
 20
15.56418046462189
 30
0.0
 10
-47.89190036768284
 20
15.31383515504238
 30
0.0
 10
-47.46498492080113
 20
15.10869991744548
 30
0.0
 10
-47.01788216502126
 20
14.9495020142162
 30
0.0
 10
-46.55169649881783
 20
14.83717632561588
 30
0.0
 10
-46.06645676961002
 20
14.76891373657294
 30
0.0
 10
-45.736470222137
 20
14.76019479751381
 30
0.0
 10
-45.56897536057697
 20
14.75576923076922
 30
0.0
  0
SPLINE
  5
82
330
1F
100
AcDbEntity
  8
0
  6
Continuous
 62
     7
370
    25
100
AcDbSpline
210
0.0
220
0.0
230
1.0
 70
     8
 71
     3
 72
    23
 73
    19
 74
     0
 42
0.000000001
 43
0.00000001
 40
0.0
 40
0.0
 40
0.0
 40
0.0
 40
0.0667486513092664
 40
0.1311519760901758
 40
0.1937321970570966
 40
0.2553255433785995
 40
0.3163881857773857
 40
0.3780268629068871
 40
0.4404056792054017
 40
0.5045574293240813
 40
0.568658287362015
 40
0.6309861790900104
 40
0.692288134873299
 40
0.7526154469796392
 40
0.8131995384355629
 40
0.8740161248607815
 40
0.9361583555105315
 40
1.0
 40
1.0
 40
1.0
 40
1.0
 10
-45.56897536057697
 20
14.75576923076922
 30
0.0
 10
-45.39379581886493
 20
14.75973918227363
 30
0.0
 10
-45.04959196432331
 20
14.7675395943355
 30
0.0
 10
-44.54584808233314
 20
14.84171795194545
 30
0.0
 10
-44.06321791626189
 20
14.953456471176
 30
0.0
 10
-43.60575583740378
 20
15.12022021674698
 30
0.0
 10
-43.16880298549339
 20
15.32868892132227
 30
0.0
 10
-42.75556978145528
 20
15.58543062952033
 30
0.0
 10
-42.36619509874764
 20
15.89002105583991
 30
0.0
 10
-42.0029124543823
 20
16.23465952636255
 30
0.0
 10
-41.6737774988014
 20
16.61176960373848
 30
0.0
 10
-41.38325134043633
 20
17.01015295873748
 30
0.0
 10
-41.13818608104528
 20
17.42676629286957
 30
0.0
 10
-40.93857275416832
 20
17.86180459001753
 30
0.0
 10
-40.78120562588995
 20
18.31256419304602
 30
0.0
 10
-40.67020099697945
 20
18.78179035797948
 30
0.0
 10
-40.60462791377741
 20
19.26835771011936
 30
0.0
 10
-40.59549396403802
 20
19.59884398227492
 30
0.0
 10
-40.59086538461543
 20
19.76631610576922
 30
0.0
  0
SPLINE
  5
83
330
1F
100
AcDbEntity
  8
0
  6
Continuous
 62
     7
370
    25
100
AcDbSpline
210
0.0
220
0.0
230
1.0
 70
     8
 71
     3
 72
    31
 73
    27
 74
     0
 42
0.000000001
 43
0.00000001
 40
0.0
 40
0.0
 40
0.0
 40
0.0
 40
0.0431143456619735
 40
0.0856827648242091
 40
0.1275943241639274
 40
0.169058622560548
 40
0.2104320288213102
 40
0.251811166463053
 40
0.2934438397982396
 40
0.3353808532218248
 40
0.3774766059607942
 40
0.4186884906768273
 40
0.4598730336711989
 40
0.5008729046253146
 40
0.5418727755794317
 40
0.5832117768673236
 40
0.6247632017340751
 40
0.666987622382089
 40
0.7093697058942389
 40
0.7511026519448574
 40
0.7925683801202208
 40
0.8335451085502579
 40
0.8748274225565257
 40
0.9160177232110661
 40
0.9578592039763041
 40
1.0
 40
1.0
 40
1.0
 40
1.0
 10
-59.39663461538467
 20
19.76631610576922
 30
0.0
 10
-59.39808733025145
 20
19.87898258325941
 30
0.0
 10
-59.40097436528296
 20
20.10288892223182
 30
0.0
 10
-59.43575174339787
 20
20.43470668720513
 30
0.0
 10
-59.48582116909825
 20
20.76004781490967
 30
0.0
 10
-59.55987147395236
 20
21.07761516554068
 30
0.0
 10
-59.64982366786828
 20
21.38964902908648
 30
0.0
 10
-59.76636944178465
 20
21.69324491705983
 30
0.0
 10
-59.89903007255406
 20
21.99164606845839
 30
0.0
 10
-60.05403152910252
 20
22.28132799203062
 30
0.0
 10
-60.22637816144533
 20
22.55962537201022
 30
0.0
 10
-60.41442368182796
 20
22.82522543107347
 30
0.0
 10
-60.61864092815445
 20
23.07491667623502
 30
0.0
 10
-60.83837204902153
 20
23.31033997551685
 30
0.0
 10
-61.0743742676242
 20
23.52994787448144
 30
0.0
 10
-61.32354321855323
 20
23.73684922868598
 30
0.0
 10
-61.59071132861556
 20
23.92554800247944
 30
0.0
 10
-61.87003112613507
 20
24.10065259627642
 30
0.0
 10
-62.15992787032965
 20
24.25899664370627
 30
0.0
 10
-62.45922141848645
 20
24.3937743612818
 30
0.0
 10
-62.76174573227952
 20
24.5114734463348
 30
0.0
 10
-63.07154212853644
 20
24.60436676849456
 30
0.0
 10
-63.38529058779636
 20
24.68002740752985
 30
0.0
 10
-63.70634287680119
 20
24.73006308645916
 30
0.0
 10
-64.03179847063599
 20
24.76483950148763
 30
0.0
 10
-64.25126424353158
 20
24.76776353953106
 30
0.0
 10
-64.3613882211539
 20
24.76923076923077
 30
0.0
  0
SPLINE
  5
84
330
1F
100
AcDbEntity
  8
0
  6
Continuous
 62
     7
370
    25
100
AcDbSpline
210
0.0
220
0.0
230
1.0
 70
     8
 71
     3
 72
    23
 73
    19
 74
     0
 42
0.000000001
 43
0.00000001
 40
0.0
 40
0.0
 40
0.0
 40
0.0
 40
0.0633955966615898
 40
0.1251572666424213
 40
0.1856494665262518
 40
0.2459766793408151
 40
0.306108368657957
 40
0.3673505880891737
 40
0.4299020782799136
 40
0.4945399581831935
 40
0.559372582694048
 40
0.6224096858457371
 40
0.6843574258194751
 40
0.7458066007722102
 40
0.807430275015915
 40
0.8699955160697815
 40
0.9339278677192725
 40
1.0
 40
1.0
 40
1.0
 40
1.0
 10
-64.3613882211539
 20
24.76923076923077
 30
0.0
 10
-64.52699201963232
 20
24.76494299032615
 30
0.0
 10
-64.85393142638326
 20
24.7564779436048
 30
0.0
 10
-65.33474131349875
 20
24.6859151725383
 30
0.0
 10
-65.79809054116973
 20
24.5709432532203
 30
0.0
 10
-66.24376958420865
 20
24.41112396951942
 30
0.0
 10
-66.67066251352345
 20
24.20212860306561
 30
0.0
 10
-67.08027512340541
 20
23.94988230962731
 30
0.0
 10
-67.47114020089982
 20
23.64962409154131
 30
0.0
 10
-67.8392524741084
 20
23.30835847767305
 30
0.0
 10
-68.17945460496551
 20
22.93724702384773
 30
0.0
 10
-68.47423995005141
 20
22.53767956537842
 30
0.0
 10
-68.7256220778015
 20
22.12000929650514
 30
0.0
 10
-68.93396825784511
 20
21.68311705756831
 30
0.0
 10
-69.09266265367106
 20
21.22397716146439
 30
0.0
 10
-69.20402507516495
 20
20.7449306148025
 30
0.0
 10
-69.27556991367511
 20
20.24611370194612
 30
0.0
 10
-69.2837986708968
 20
19.90648737378629
 30
0.0
 10
-69.28798076923081
 20
19.73387920673076
 30
0.0
  0
SPLINE
  5
85
330
1F
100
AcDbEntity
  8
0
  6
Continuous
 62
     7
370
    25
100
AcDbSpline
210
0.0
220
0.0
230
1.0
 70
     8
 71
     3
 72
    23
 73
    19
 74
     0
 42
0.000000001
 43
0.00000001
 40
0.0
 40
0.0
 40
0.0
 40
0.0
 40
0.0657223151915613
 40
0.1295079307025844
 40
0.1917221026921611
 40
0.2531611245020884
 40
0.314315703735257
 40
0.3759517397728618
 40
0.438619600823409
 40
0.5029729018927762
 40
0.5671286457242646
 40
0.6295522895796738
 40
0.6904767824348743
 40
0.7510723384108283
 40
0.8116678943867837
 40
0.8729293555873906
 40
0.9355013707158072
 40
1.0
 40
1.0
 40
1.0
 40
1.0
 10
-69.28798076923081
 20
19.73387920673076
 30
0.0
 10
-69.28352701546063
 20
19.56321593505205
 30
0.0
 10
-69.2747507507634
 20
19.22691848269326
 30
0.0
 10
-69.20694584866054
 20
18.73269836413393
 30
0.0
 10
-69.09370807002851
 20
18.25878340406907
 30
0.0
 10
-68.93770525568647
 20
17.80410088532828
 30
0.0
 10
-68.733137687665
 20
17.37085313396893
 30
0.0
 10
-68.48665778512951
 20
16.95627392345628
 30
0.0
 10
-68.19176141200506
 20
16.56421064806024
 30
0.0
 10
-67.85920459714093
 20
16.19487370384697
 30
0.0
 10
-67.49308840438458
 20
15.85962117590451
 30
0.0
 10
-67.10531323613431
 20
15.56418046462188
 30
0.0
 10
-66.69766959845211
 20
15.3138351550424
 30
0.0
 10
-66.27075415157039
 20
15.10869991744548
 30
0.0
 10
-65.82365139579049
 20
14.94950201421621
 30
0.0
 10
-65.35746572958708
 20
14.83717632561588
 30
0.0
 10
-64.87222600037926
 20
14.76891373657295
 30
0.0
 10
-64.54223945290624
 20
14.76019479751382
 30
0.0
 10
-64.3747445913462
 20
14.75576923076923
 30
0.0
  0
SPLINE
  5
86
330
1F
100
AcDbEntity
  8
0
  6
Continuous
 62
     7
370
    25
100
AcDbSpline
210
0.0
220
0.0
230
1.0
 70
     8
 71
     3
 72
    23
 73
    19
 74
     0
 42
0.000000001
 43
0.00000001
 40
0.0
 40
0.0
 40
0.0
 40
0.0
 40
0.0667486513092664
 40
0.131151976090176
 40
0.1937321970570951
 40
0.2553255433785988
 40
0.3163881857773851
 40
0.3780268629068865
 40
0.4404056792054013
 40
0.5045574293240809
 40
0.5686582873620145
 40
0.6309861790900101
 40
0.6922881348732987
 40
0.752615446979639
 40
0.8131995384355627
 40
0.8740161248607814
 40
0.9361583555105314
 40
1.0
 40
1.0
 40
1.0
 40
1.0
 10
-64.3747445913462
 20
14.75576923076923
 30
0.0
 10
-64.19956504963419
 20
14.75973918227364
 30
0.0
 10
-63.85536119509256
 20
14.76753959433551
 30
0.0
 10
-63.3516173131024
 20
14.84171795194546
 30
0.0
 10
-62.86898714703113
 20
14.953456471176
 30
0.0
 10
-62.41152506817302
 20
15.12022021674698
 30
0.0
 10
-61.97457221626267
 20
15.32868892132228
 30
0.0
 10
-61.56133901222451
 20
15.58543062952034
 30
0.0
 10
-61.17196432951689
 20
15.89002105583991
 30
0.0
 10
-60.80868168515154
 20
16.23465952636255
 30
0.0
 10
-60.47954672957064
 20
16.61176960373849
 30
0.0
 10
-60.18902057120557
 20
17.01015295873747
 30
0.0
 10
-59.94395531181452
 20
17.42676629286958
 30
0.0
 10
-59.74434198493758
 20
17.86180459001753
 30
0.0
 10
-59.5869748566592
 20
18.31256419304602
 30
0.0
 10
-59.4759702277487
 20
18.78179035797949
 30
0.0
 10
-59.41039714454666
 20
19.26835771011936
 30
0.0
 10
-59.40126319480726
 20
19.59884398227492
 30
0.0
 10
-59.39663461538467
 20
19.76631610576922
 30
0.0
  0
LINE
  5
87
330
1F
100
AcDbEntity
  8
0
  6
Continuous
 62
     7
370
    25
100
AcDbLine
 10
-76.2485576923
 20
15.0
 30
0.0
 11
-76.2485576923
 21
24.525
 31
0.0
  0
LINE
  5
88
330
1F
100
AcDbEntity
  8
0
  6
Continuous
 62
     7
370
    25
100
AcDbLine
 10
-76.2485576923
 20
24.525
 30
0.0
 11
-77.9581730769
 21
24.525
 31
0.0
  0
LINE
  5
89
330
1F
100
AcDbEntity
  8
0
  6
Continuous
 62
     7
370
    25
100
AcDbLine
 10
-77.9581730769
 20
24.525
 30
0.0
 11
-77.9581730769
 21
15.0
 31
0.0
  0
LINE
  5
8A
330
1F
100
AcDbEntity
  8
0
  6
Continuous
 62
     7
370
    25
100
AcDbLine
 10
-77.9581730769
 20
15.0
 30
0.0
 11
-76.2485576923
 21
15.0
 31
0.0
  0
LINE
  5
8B
330
1F
100
AcDbEntity
  8
0
  6
Continuous
 62
     7
370
    25
100
AcDbLine
 10
-92.7341346154
 20
15.0
 30
0.0
 11
-92.7341346154
 21
24.525
 31
0.0
  0
LINE
  5
8C
330
1F
100
AcDbEntity
  8
0
  6
Continuous
 62
     7
370
    25
100
AcDbLine
 10
-92.7341346154
 20
24.525
 30
0.0
 11
-97.8629807692
 21
24.525
 31
0.0
  0
LINE
  5
8D
330
1F
100
AcDbEntity
  8
0
  6
Continuous
 62
     7
370
    25
100
AcDbLine
 10
-97.8629807692
 20
24.525
 30
0.0
 11
-97.8629807692
 21
22.8153846154
 31
0.0
  0
LINE
  5
8E
330
1F
100
AcDbEntity
  8
0
  6
Continuous
 62
     7
370
    25
100
AcDbLine
 10
-97.8629807692
 20
22.8153846154
 30
0.0
 11
-94.44375
 21
22.8153846154
 31
0.0
  0
LINE
  5
8F
330
1F
100
AcDbEntity
  8
0
  6
Continuous
 62
     7
370
    25
100
AcDbLine
 10
-94.44375
 20
22.8153846154
 30
0.0
 11
-94.44375
 21
20.9836538462
 31
0.0
  0
LINE
  5
90
330
1F
100
AcDbEntity
  8
0
  6
Continuous
 62
     7
370
    25
100
AcDbLine
 10
-94.44375
 20
20.9836538462
 30
0.0
 11
-97.8629807692
 21
20.9836538462
 31
0.0
  0
LINE
  5
91
330
1F
100
AcDbEntity
  8
0
  6
Continuous
 62
     7
370
    25
100
AcDbLine
 10
-97.8629807692
 20
20.9836538462
 30
0.0
 11
-97.8629807692
 21
19.2740384615
 31
0.0
  0
LINE
  5
92
330
1F
100
AcDbEntity
  8
0
  6
Continuous
 62
     7
370
    25
100
AcDbLine
 10
-97.8629807692
 20
19.2740384615
 30
0.0
 11
-94.44375
 21
19.2740384615
 31
0.0
  0
LINE
  5
93
330
1F
100
AcDbEntity
  8
0
  6
Continuous
 62
     7
370
    25
100
AcDbLine
 10
-94.44375
 20
19.2740384615
 30
0.0
 11
-94.44375
 21
16.7096153846
 31
0.0
  0
LINE
  5
94
330
1F
100
AcDbEntity
  8
0
  6
Continuous
 62
     7
370
    25
100
AcDbLine
 10
-94.44375
 20
16.7096153846
 30
0.0
 11
-97.8629807692
 21
16.7096153846
 31
0.0
  0
LINE
  5
95
330
1F
100
AcDbEntity
  8
0
  6
Continuous
 62
     7
370
    25
100
AcDbLine
 10
-97.8629807692
 20
16.7096153846
 30
0.0
 11
-97.8629807692
 21
15.0
 31
0.0
  0
LINE
  5
96
330
1F
100
AcDbEntity
  8
0
  6
Continuous
 62
     7
370
    25
100
AcDbLine
 10
-97.8629807692
 20
15.0
 30
0.0
 11
-92.7341346154
 21
15.0
 31
0.0
  0
LINE
  5
97
330
1F
100
AcDbEntity
  8
0
  6
Continuous
 62
     7
370
    25
100
AcDbLine
 10
-107.9985576923
 20
15.0
 30
0.0
 11
-107.9985576923
 21
24.525
 31
0.0
  0
LINE
  5
98
330
1F
100
AcDbEntity
  8
0
  6
Continuous
 62
     7
370
    25
100
AcDbLine
 10
-107.9985576923
 20
24.525
 30
0.0
 11
-109.9905649038
 21
24.525
 31
0.0
  0
SPLINE
  5
99
330
1F
100
AcDbEntity
  8
0
  6
Continuous
 62
     7
370
    25
100
AcDbSpline
210
0.0
220
0.0
230
1.0
 70
     8
 71
     3
 72
    31
 73
    27
 74
     0
 42
0.000000001
 43
0.00000001
 40
0.0
 40
0.0
 40
0.0
 40
0.0
 40
0.072889026620038
 40
0.1401861299444944
 40
0.2022774341249586
 40
0.258895131751462
 40
0.310482942465477
 40
0.3570952441313348
 40
0.398513566653464
 40
0.4350375108701165
 40
0.4692514858292865
 40
0.5028050278902733
 40
0.5362104463185609
 40
0.5693793599392056
 40
0.6028014750483928
 40
0.6366657983367771
 40
0.6709286568940419
 40
0.7058030002293129
 40
0.741189061245877
 40
0.7763043110764616
 40
0.812004300912935
 40
0.8479689758088951
 40
0.8845217611964792
 40
0.9219741585442052
 40
0.960198175809608
 40
1.0
 40
1.0
 40
1.0
 40
1.0
 10
-109.9905649038462
 20
24.52499999999999
 30
0.0
 10
-110.1222359741694
 20
24.52453264326867
 30
0.0
 10
-110.375476532182
 20
24.52363378462692
 30
0.0
 10
-110.7406355850672
 20
24.50945217620511
 30
0.0
 10
-111.0760843927068
 20
24.48971730410543
 30
0.0
 10
-111.3823196174018
 20
24.45960136548308
 30
0.0
 10
-111.6592102466764
 20
24.41967127118453
 30
0.0
 10
-111.9070337896584
 20
24.37260029756313
 30
0.0
 10
-112.1257830027102
 20
24.31895283138764
 30
0.0
 10
-112.3173027333337
 20
24.25210385588014
 30
0.0
 10
-112.4901398197604
 20
24.17669922499618
 30
0.0
 10
-112.6512480132697
 20
24.09005792144474
 30
0.0
 10
-112.8041816001855
 20
23.99314472354164
 30
0.0
 10
-112.9479183846526
 20
23.88340958272569
 30
0.0
 10
-113.083707473122
 20
23.7628266071458
 30
0.0
 10
-113.2118050398505
 20
23.63127441819697
 30
0.0
 10
-113.3304009474894
 20
23.487637507499
 30
0.0
 10
-113.4387608453646
 20
23.33282347804899
 30
0.0
 10
-113.5375221698693
 20
23.16996266916642
 30
0.0
 10
-113.6248064669225
 20
22.99883147189778
 30
0.0
 10
-113.6957862023621
 20
22.81931087589341
 30
0.0
 10
-113.7585044074818
 20
22.63399534187973
 30
0.0
 10
-113.8036782987757
 20
22.44023574794162
 30
0.0
 10
-113.8350960793337
 20
22.23991837643349
 30
0.0
 10
-113.8580989491929
 20
22.0323380889394
 30
0.0
 10
-113.8594215042378
 20
21.8913172580751
 30
0.0
 10
-113.8600961538462
 20
21.81938100961537
 30
0.0
  0
SPLINE
  5
9A
330
1F
100
AcDbEntity
  8
0
  6
Continuous
 62
     7
370
    25
100
AcDbSpline
210
0.0
220
0.0
230
1.0
 70
     8
 71
     3
 72
    23
 73
    19
 74
     0
 42
0.000000001
 43
0.00000001
 40
0.0
 40
0.0
 40
0.0
 40
0.0
 40
0.0687412630793658
 40
0.1347890881950347
 40
0.1985360495606906
 40
0.2603856506059209
 40
0.3209615782321967
 40
0.3799038495841484
 40
0.4385029357752678
 40
0.4961543439762696
 40
0.5542654832084994
 40
0.6127487608156967
 40
0.6725134425261808
 40
0.7336464018979754
 40
0.7967896194814542
 40
0.861935699041027
 40
0.9293977347748982
 40
0.9999999999999999
 40
0.9999999999999999
 40
0.9999999999999999
 40
0.9999999999999999
 10
-113.8600961538462
 20
21.81938100961537
 30
0.0
 10
-113.8583436567767
 20
21.7442960915977
 30
0.0
 10
-113.8549073294314
 20
21.59706825225592
 30
0.0
 10
-113.8363974009113
 20
21.38080256410171
 30
0.0
 10
-113.8025670661247
 20
21.17389468080752
 30
0.0
 10
-113.7513261024211
 20
20.97695040320029
 30
0.0
 10
-113.6924312702656
 20
20.78751853014498
 30
0.0
 10
-113.6141162508712
 20
20.60909419815433
 30
0.0
 10
-113.5257300110926
 20
20.43908248380877
 30
0.0
 10
-113.420756256481
 20
20.27988826724548
 30
0.0
 10
-113.3055526891133
 20
20.12797552686025
 30
0.0
 10
-113.1715733636381
 20
19.98916460330517
 30
0.0
 10
-113.0274980823654
 20
19.85599493503132
 30
0.0
 10
-112.8652278490216
 20
19.7368078182574
 30
0.0
 10
-112.6919156862312
 20
19.6235442508341
 30
0.0
 10
-112.5041180636634
 20
19.52089729551152
 30
0.0
 10
-112.3030606130093
 20
19.42628664418153
 30
0.0
 10
-112.1617072682079
 20
19.37352520962423
 30
0.0
 10
-112.0894230769231
 20
19.34654447115383
 30
0.0
  0
LINE
  5
9B
330
1F
100
AcDbEntity
  8
0
  6
Continuous
 62
     7
370
    25
100
AcDbLine
 10
-112.0894230769
 20
19.3465444712
 30
0.0
 11
-114.2875
 21
15.0
 31
0.0
  0
LINE
  5
9C
330
1F
100
AcDbEntity
  8
0
  6
Continuous
 62
     7
370
    25
100
AcDbLine
 10
-114.2875
 20
15.0
 30
0.0
 11
-112.3870793269
 21
15.0
 31
0.0
  0
LINE
  5
9D
330
1F
100
AcDbEntity
  8
0
  6
Continuous
 62
     7
370
    25
100
AcDbLine
 10
-112.3870793269
 20
15.0
 30
0.0
 11
-110.2882211538
 21
19.1519230769
 31
0.0
  0
LINE
  5
9E
330
1F
100
AcDbEntity
  8
0
  6
Continuous
 62
     7
370
    25
100
AcDbLine
 10
-110.2882211538
 20
19.1519230769
 30
0.0
 11
-109.7081730769
 21
19.1519230769
 31
0.0
  0
LINE
  5
9F
330
1F
100
AcDbEntity
  8
0
  6
Continuous
 62
     7
370
    25
100
AcDbLine
 10
-109.7081730769
 20
19.1519230769
 30
0.0
 11
-109.7081730769
 21
15.0
 31
0.0
  0
LINE
  5
A0
330
1F
100
AcDbEntity
  8
0
  6
Continuous
 62
     7
370
    25
100
AcDbLine
 10
-109.7081730769
 20
15.0
 30
0.0
 11
-107.9985576923
 21
15.0
 31
0.0
  0
LINE
  5
A1
330
1F
100
AcDbEntity
  8
0
  6
Continuous
 62
     7
370
    25
100
AcDbLine
 10
-129.4832331731
 20
15.0
 30
0.0
 11
-126.8043269231
 21
15.0
 31
0.0
  0
LINE
  5
A2
330
1F
100
AcDbEntity
  8
0
  6
Continuous
 62
     7
370
    25
100
AcDbLine
 10
-126.8043269231
 20
15.0
 30
0.0
 11
-126.8043269231
 21
24.525
 31
0.0
  0
LINE
  5
A3
330
1F
100
AcDbEntity
  8
0
  6
Continuous
 62
     7
370
    25
100
AcDbLine
 10
-126.8043269231
 20
24.525
 30
0.0
 11
-128.3307692308
 21
24.525
 31
0.0
  0
SPLINE
  5
A4
330
1F
100
AcDbEntity
  8
0
  6
Continuous
 62
     7
370
    25
100
AcDbSpline
210
0.0
220
0.0
230
1.0
 70
     8
 71
     3
 72
    15
 73
    11
 74
     0
 42
0.000000001
 43
0.00000001
 40
0.0
 40
0.0
 40
0.0
 40
0.0
 40
0.163995731806073
 40
0.3173286319587125
 40
0.4580598946275402
 40
0.589158394585895
 40
0.7079520097452986
 40
0.8163219998754498
 40
0.9135847296003146
 40
1.0
 40
1.0
 40
1.0
 40
1.0
 10
-128.3307692307693
 20
24.52499999999999
 30
0.0
 10
-128.4376297367292
 20
24.52501219542835
 30
0.0
 10
-128.6444027898644
 20
24.52503579335103
 30
0.0
 10
-128.9427223426558
 20
24.51455979007595
 30
0.0
 10
-129.2193885340223
 20
24.50100790622992
 30
0.0
 10
-129.4735209049159
 20
24.48584649960515
 30
0.0
 10
-129.7055520062333
 20
24.45972036675897
 30
0.0
 10
-129.9151289968434
 20
24.43218627654672
 30
0.0
 10
-130.1026706128415
 20
24.39898186084011
 30
0.0
 10
-130.2186174030888
 20
24.36919647120739
 30
0.0
 10
-130.2731670673078
 20
24.35518329326922
 30
0.0
  0
SPLINE
  5
A5
330
1F
100
AcDbEntity
  8
0
  6
Continuous
 62
     7
370
    25
100
AcDbSpline
210
0.0
220
0.0
230
1.0
 70
     8
 71
     3
 72
    23
 73
    19
 74
     0
 42
0.000000001
 43
0.00000001
 40
0.0
 40
0.0
 40
0.0
 40
0.0
 40
0.0687497663152776
 40
0.1349091121452214
 40
0.1997210700545255
 40
0.262973674636943
 40
0.3253570233490407
 40
0.3873361409887315
 40
0.4494074874297854
 40
0.5111175193516578
 40
0.5724725853513697
 40
0.6330771719677218
 40
0.6928610080890995
 40
0.7525606967546135
 40
0.8127375856307911
 40
0.8734793127278776
 40
0.9357764600655795
 40
0.9999999999999999
 40
0.9999999999999999
 40
0.9999999999999999
 40
0.9999999999999999
 10
-130.2731670673078
 20
24.35518329326922
 30
0.0
 10
-130.344796314843
 20
24.3354174561822
 30
0.0
 10
-130.4853558935374
 20
24.29663053842035
 30
0.0
 10
-130.6866820659115
 20
24.21829868174472
 30
0.0
 10
-130.8776680238481
 20
24.13122726937443
 30
0.0
 10
-131.0580805787262
 20
24.03189507280618
 30
0.0
 10
-131.2268119255839
 20
23.9191028740913
 30
0.0
 10
-131.3832208278328
 20
23.79195552039428
 30
0.0
 10
-131.5306806384733
 20
23.65555670102844
 30
0.0
 10
-131.6639553962762
 20
23.50610501959101
 30
0.0
 10
-131.7844138186733
 20
23.34818163379873
 30
0.0
 10
-131.8890705905742
 20
23.18182792388312
 30
0.0
 10
-131.9800039115226
 20
23.00958754666012
 30
0.0
 10
-132.0527743866193
 20
22.82929297150308
 30
0.0
 10
-132.1076055724632
 20
22.6417745037125
 30
0.0
 10
-132.1477088730309
 20
22.44783287617045
 30
0.0
 10
-132.1737012422731
 20
22.24685440983169
 30
0.0
 10
-132.1761571802302
 20
22.1101221902539
 30
0.0
 10
-132.1774038461539
 20
22.04071514423076
 30
0.0
  0
SPLINE
  5
A6
330
1F
100
AcDbEntity
  8
0
  6
Continuous
 62
     7
370
    25
100
AcDbSpline
210
0.0
220
0.0
230
1.0
 70
     8
 71
     3
 72
    15
 73
    11
 74
     0
 42
0.000000001
 43
0.00000001
 40
0.0
 40
0.0
 40
0.0
 40
0.0
 40
0.1232695606004618
 40
0.2426409842839862
 40
0.3594273839391176
 40
0.4755502191345267
 40
0.5938976740482467
 40
0.720201597164327
 40
0.8544653148776584
 40
1.0
 40
1.0
 40
1.0
 40
1.0
 10
-132.1774038461539
 20
22.04071514423076
 30
0.0
 10
-132.1741441850974
 20
21.95154530833323
 30
0.0
 10
-132.1677279428123
 20
21.77602544239695
 30
0.0
 10
-132.1267405501369
 20
21.51821851458663
 30
0.0
 10
-132.0498828028169
 20
21.2745539123574
 30
0.0
 10
-131.9493163097272
 20
21.04054098900772
 30
0.0
 10
-131.8125773204644
 20
20.81705261443832
 30
0.0
 10
-131.6389452496928
 20
20.60419505116545
 30
0.0
 10
-131.4312323682315
 20
20.39541409570792
 30
0.0
 10
-131.2719051217308
 20
20.27026399593548
 30
0.0
 10
-131.1890324519231
 20
20.20516826923076
 30
0.0
  0
SPLINE
  5
A7
330
1F
100
AcDbEntity
  8
0
  6
Continuous
 62
     7
370
    25
100
AcDbSpline
210
0.0
220
0.0
230
1.0
 70
     8
 71
     3
 72
    23
 73
    19
 74
     0
 42
0.000000001
 43
0.00000001
 40
0.0
 40
0.0
 40
0.0
 40
0.0
 40
0.0727911822673707
 40
0.1427233695565057
 40
0.2094912699928573
 40
0.2747163184918629
 40
0.3368863886768222
 40
0.3976856020239899
 40
0.4570537497761152
 40
0.5153125941662596
 40
0.572822202222121
 40
0.6307760073985083
 40
0.6895054947089507
 40
0.7487432781628012
 40
0.809225324729297
 40
0.8707153202239947
 40
0.9342652493244616
 40
0.9999999999999999
 40
0.9999999999999999
 40
0.9999999999999999
 40
0.9999999999999999
 10
-131.1890324519231
 20
20.20516826923076
 30
0.0
 10
-131.2561884878164
 20
20.17088569528849
 30
0.0
 10
-131.3878628943885
 20
20.10366705262188
 30
0.0
 10
-131.57480186801
 20
19.99317967000386
 30
0.0
 10
-131.7478869516017
 20
19.87566232586082
 30
0.0
 10
-131.9078942061905
 20
19.75347951642289
 30
0.0
 10
-132.0514672964957
 20
19.62145173534793
 30
0.0
 10
-132.184534596472
 20
19.48718660469172
 30
0.0
 10
-132.3005312562103
 20
19.34299129083992
 30
0.0
 10
-132.4042589654256
 20
19.1940051893641
 30
0.0
 10
-132.494417404327
 20
19.0380709642446
 30
0.0
 10
-132.5729354627782
 20
18.87545195325187
 30
0.0
 10
-132.6392568502903
 20
18.70559261444995
 30
0.0
 10
-132.695419516612
 20
18.529357394347
 30
0.0
 10
-132.7373056480456
 20
18.34614012623902
 30
0.0
 10
-132.764616296476
 20
18.15587528401312
 30
0.0
 10
-132.7855270360057
 20
17.95921176753351
 30
0.0
 10
-132.7871536950188
 20
17.82524949126304
 30
0.0
 10
-132.7879807692308
 20
17.75713641826922
 30
0.0
  0
SPLINE
  5
A8
330
1F
100
AcDbEntity
  8
0
  6
Continuous
 62
     7
370
    25
100
AcDbSpline
210
0.0
220
0.0
230
1.0
 70
     8
 71
     3
 72
    23
 73
    19
 74
     0
 42
0.000000001
 43
0.00000001
 40
0.0
 40
0.0
 40
0.0
 40
0.0
 40
0.0802588853381376
 40
0.1583905883453954
 40
0.2362576248303802
 40
0.3151047653520855
 40
0.3932216786245974
 40
0.4687312831158791
 40
0.5427812639155815
 40
0.6177081693395555
 40
0.6563652025204917
 40
0.6970796727899475
 40
0.7406969496811667
 40
0.7867286654533155
 40
0.8355790921841493
 40
0.8872495053564294
 40
0.9418976668361578
 40
1.0
 40
1.0
 40
1.0
 40
1.0
 10
-132.7879807692308
 20
17.75713641826922
 30
0.0
 10
-132.7826136103862
 20
17.62704434326134
 30
0.0
 10
-132.7720215439309
 20
17.37030815495323
 30
0.0
 10
-132.6945775223699
 20
16.99336046704595
 30
0.0
 10
-132.5603141966026
 20
16.63597986978015
 30
0.0
 10
-132.3800262361078
 20
16.29958674664261
 30
0.0
 10
-132.1578767809737
 20
15.99391912627211
 30
0.0
 10
-131.9024686129254
 20
15.72615694453606
 30
0.0
 10
-131.6163731063991
 20
15.49950220207148
 30
0.0
 10
-131.3524154223689
 20
15.34652783420069
 30
0.0
 10
-131.1241128125722
 20
15.24386772839247
 30
0.0
 10
-130.9350140264081
 20
15.18039677711727
 30
0.0
 10
-130.7319259383108
 20
15.12159738377233
 30
0.0
 10
-130.5111284622659
 20
15.0803072356805
 30
0.0
 10
-130.2766243553991
 20
15.04251395178708
 30
0.0
 10
-130.0261271878405
 20
15.01917959547751
 30
0.0
 10
-129.7601051342709
 20
15.0033664771564
 30
0.0
 10
-129.5773896885966
 20
15.00114484600483
 30
0.0
 10
-129.483233173077
 20
14.99999999999999
 30
0.0
  0
LINE
  5
A9
330
1F
100
AcDbEntity
  8
0
  6
Continuous
 62
     7
370
    25
100
AcDbLine
 10
-144.6331730769
 20
22.8153846154
 30
0.0
 11
-144.6331730769
 21
24.525
 31
0.0
  0
LINE
  5
AA
330
1F
100
AcDbEntity
  8
0
  6
Continuous
 62
     7
370
    25
100
AcDbLine
 10
-144.6331730769
 20
24.525
 30
0.0
 11
-149.7620192308
 21
24.525
 31
0.0
  0
LINE
  5
AB
330
1F
100
AcDbEntity
  8
0
  6
Continuous
 62
     7
370
    25
100
AcDbLine
 10
-149.7620192308
 20
24.525
 30
0.0
 11
-149.7620192308
 21
22.8153846154
 31
0.0
  0
LINE
  5
AC
330
1F
100
AcDbEntity
  8
0
  6
Continuous
 62
     7
370
    25
100
AcDbLine
 10
-149.7620192308
 20
22.8153846154
 30
0.0
 11
-148.0524038462
 21
22.8153846154
 31
0.0
  0
LINE
  5
AD
330
1F
100
AcDbEntity
  8
0
  6
Continuous
 62
     7
370
    25
100
AcDbLine
 10
-148.0524038462
 20
22.8153846154
 30
0.0
 11
-148.0524038462
 21
15.0
 31
0.0
  0
LINE
  5
AE
330
1F
100
AcDbEntity
  8
0
  6
Continuous
 62
     7
370
    25
100
AcDbLine
 10
-148.0524038462
 20
15.0
 30
0.0
 11
-146.3427884615
 21
15.0
 31
0.0
  0
LINE
  5
AF
330
1F
100
AcDbEntity
  8
0
  6
Continuous
 62
     7
370
    25
100
AcDbLine
 10
-146.3427884615
 20
15.0
 30
0.0
 11
-146.3427884615
 21
22.8153846154
 31
0.0
  0
LINE
  5
B0
330
1F
100
AcDbEntity
  8
0
  6
Continuous
 62
     7
370
    25
100
AcDbLine
 10
-146.3427884615
 20
22.8153846154
 30
0.0
 11
-144.6331730769
 21
22.8153846154
 31
0.0
  0
SPLINE
  5
B1
330
1F
100
AcDbEntity
  8
0
  6
Continuous
 62
     7
370
    25
100
AcDbSpline
210
0.0
220
0.0
230
1.0
 70
     8
 71
     3
 72
    15
 73
    11
 74
     0
 42
0.000000001
 43
0.00000001
 40
0.0
 40
0.0
 40
0.0
 40
0.0
 40
0.1323140339085654
 40
0.2587000085531582
 40
0.3809118214856536
 40
0.5005348689728927
 40
0.6209226176484535
 40
0.7423757653984696
 40
0.8682808341788539
 40
0.9999999999999999
 40
0.9999999999999999
 40
0.9999999999999999
 40
0.9999999999999999
 10
-162.1452824519231
 20
23.47366286057691
 30
0.0
 10
-162.2192400544846
 20
23.57669356492575
 30
0.0
 10
-162.3638417407158
 20
23.77813889395792
 30
0.0
 10
-162.6166818310065
 20
24.04259895597107
 30
0.0
 10
-162.8883255887376
 20
24.26877815107888
 30
0.0
 10
-163.184352421806
 20
24.45155784156177
 30
0.0
 10
-163.5000805425294
 20
24.5956979203165
 30
0.0
 10
-163.8382206373219
 20
24.69750243455862
 30
0.0
 10
-164.1975240116304
 20
24.75681848841017
 30
0.0
 10
-164.4442636321687
 20
24.76503155775356
 30
0.0
 10
-164.5704176682693
 20
24.76923076923075
 30
0.0
  0
SPLINE
  5
B2
330
1F
100
AcDbEntity
  8
0
  6
Continuous
 62
     7
370
    25
100
AcDbSpline
210
0.0
220
0.0
230
1.0
 70
     8
 71
     3
 72
    31
 73
    27
 74
     0
 42
0.000000001
 43
0.00000001
 40
0.0
 40
0.0
 40
0.0
 40
0.0
 40
0.036634890255126
 40
0.072033982347792
 40
0.1066259706074986
 40
0.1403056939382969
 40
0.1736194704926831
 40
0.2064256725696804
 40
0.2390670061327443
 40
0.2718828805625962
 40
0.3048398888131224
 40
0.3385290337045878
 40
0.3726161878593851
 40
0.407548250026541
 40
0.4437189059571701
 40
0.4813115090919067
 40
0.5201129981462017
 40
0.560912902833448
 40
0.6040246006136046
 40
0.6500745638656787
 40
0.6995722277770586
 40
0.7523625390892968
 40
0.8087887173463875
 40
0.8689542125204782
 40
0.9326747199379388
 40
1.0
 40
1.0
 40
1.0
 40
1.0
 10
-164.5704176682693
 20
24.76923076923075
 30
0.0
 10
-164.6531701486768
 20
24.76800228533064
 30
0.0
 10
-164.8158836349574
 20
24.76558675775681
 30
0.0
 10
-165.0555299718297
 20
24.73942462669186
 30
0.0
 10
-165.2863756522216
 20
24.69990094307016
 30
0.0
 10
-165.5093237731961
 20
24.64477918655089
 30
0.0
 10
-165.7227695315462
 20
24.57182750523072
 30
0.0
 10
-165.9282664296011
 20
24.48450559317869
 30
0.0
 10
-166.1233684595766
 20
24.37823323622055
 30
0.0
 10
-166.310563795821
 20
24.25819315100318
 30
0.0
 10
-166.4897803304453
 20
24.12229075748277
 30
0.0
 10
-166.6567107194639
 20
23.96735501179478
 30
0.0
 10
-166.8144034664329
 20
23.79695099184095
 30
0.0
 10
-166.9594451040371
 20
23.60850249459123
 30
0.0
 10
-167.0950476235591
 20
23.40372365891542
 30
0.0
 10
-167.2207654579204
 20
23.18258201342566
 30
0.0
 10
-167.3356362059425
 20
22.9439952178742
 30
0.0
 10
-167.4409472946632
 20
22.68753272344034
 30
0.0
 10
-167.5351168028017
 20
22.40935026812809
 30
0.0
 10
-167.6144356627319
 20
22.10625697834072
 30
0.0
 10
-167.6824648576224
 20
21.77818363785817
 30
0.0
 10
-167.7398862981323
 20
21.4243136219759
 30
0.0
 10
-167.7832876263116
 20
21.04417655318769
 30
0.0
 10
-167.8125409952268
 20
20.63802497552111
 30
0.0
 10
-167.8326160416805
 20
20.20664188951983
 30
0.0
 10
-167.8342544270349
 20
19.91071663702252
 30
0.0
 10
-167.8350961538462
 20
19.75868389423075
 30
0.0
  0
SPLINE
  5
B3
330
1F
100
AcDbEntity
  8
0
  6
Continuous
 62
     7
370
    25
100
AcDbSpline
210
0.0
220
0.0
230
1.0
 70
     8
 71
     3
 72
    31
 73
    27
 74
     0
 42
0.000000001
 43
0.00000001
 40
0.0
 40
0.0
 40
0.0
 40
0.0
 40
0.0684908744969539
 40
0.1330765404908788
 40
0.1938289871915769
 40
0.2510828574460503
 40
0.3044008371534406
 40
0.3544083437255275
 40
0.4012947817777448
 40
0.4447006845454787
 40
0.485692492089245
 40
0.5246764844274042
 40
0.5623067591777596
 40
0.5979465846525346
 40
0.6324735490267264
 40
0.6657520428969368
 40
0.6979852995504434
 40
0.7295862241486821
 40
0.7608251968744887
 40
0.7923550795612052
 40
0.8243126039626635
 40
0.8571562719790687
 40
0.8909268871454054
 40
0.9259604429162995
 40
0.9620613229943392
 40
1.0
 40
1.0
 40
1.0
 40
1.0
 10
-167.8350961538462
 20
19.75868389423075
 30
0.0
 10
-167.8341864746147
 20
19.60474905086545
 30
0.0
 10
-167.8324189841866
 20
19.30565641164135
 30
0.0
 10
-167.8133755207826
 20
18.87032767660064
 30
0.0
 10
-167.780581777099
 20
18.46122719483723
 30
0.0
 10
-167.7383148335103
 20
18.07839729007784
 30
0.0
 10
-167.6804206824342
 20
17.72204012889797
 30
0.0
 10
-167.6126185838049
 20
17.39123298590492
 30
0.0
 10
-167.5320476996526
 20
17.08609577036863
 30
0.0
 10
-167.4347762781375
 20
16.80731602147999
 30
0.0
 10
-167.330102639751
 20
16.55040312283424
 30
0.0
 10
-167.214917670934
 20
16.31228151475532
 30
0.0
 10
-167.0912290293052
 20
16.09230623224843
 30
0.0
 10
-166.9618737594374
 20
15.8871586489654
 30
0.0
 10
-166.8197601297559
 20
15.70288641148176
 30
0.0
 10
-166.6718052112153
 20
15.53322330013748
 30
0.0
 10
-166.5115667824068
 20
15.38463200047254
 30
0.0
 10
-166.3457915006535
 20
15.24945478375284
 30
0.0
 10
-166.1684063469602
 20
15.13263454107688
 30
0.0
 10
-165.981240647659
 20
15.03046548291396
 30
0.0
 10
-165.7809575633891
 20
14.94759424201236
 30
0.0
 10
-165.5712079141143
 20
14.87551726297086
 30
0.0
 10
-165.348416474516
 20
14.82377376908824
 30
0.0
 10
-165.1161233700012
 20
14.78271700717717
 30
0.0
 10
-164.8717060583093
 20
14.76002652225634
 30
0.0
 10
-164.705296907885
 20
14.75721161828285
 30
0.0
 10
-164.6200270432693
 20
14.75576923076921
 30
0.0
  0
SPLINE
  5
B4
330
1F
100
AcDbEntity
  8
0
  6
Continuous
 62
     7
370
    25
100
AcDbSpline
210
0.0
220
0.0
230
1.0
 70
     8
 71
     3
 72
    31
 73
    27
 74
     0
 42
0.000000001
 43
0.00000001
 40
0.0
 40
0.0
 40
0.0
 40
0.0
 40
0.0382173379691388
 40
0.0748672030399426
 40
0.1101580815531065
 40
0.1444539266593032
 40
0.1780797262741523
 40
0.2111707725935993
 40
0.2436870542144193
 40
0.2758717334447999
 40
0.3083755160139867
 40
0.3412633249363596
 40
0.3751503394709067
 40
0.4096552607042139
 40
0.4451573674923589
 40
0.4820734672046714
 40
0.5205757562184283
 40
0.5605536808978386
 40
0.603107575438254
 40
0.6486887095294899
 40
0.6979476778875637
 40
0.750767767018354
 40
0.8073094024459652
 40
0.8676555707911408
 40
0.9318612220995587
 40
1.0
 40
1.0
 40
1.0
 40
1.0
 10
-164.6200270432693
 20
14.75576923076921
 30
0.0
 10
-164.5347594801819
 20
14.75723944096788
 30
0.0
 10
-164.3677215780773
 20
14.7601195611255
 30
0.0
 10
-164.1226433377306
 20
14.78254829383149
 30
0.0
 10
-163.8891191964855
 20
14.82394009084906
 30
0.0
 10
-163.664565118568
 20
14.87591451125331
 30
0.0
 10
-163.4505439649789
 20
14.94743476448085
 30
0.0
 10
-163.2460295107439
 20
15.03278545351156
 30
0.0
 10
-163.0525942950914
 20
15.13431702771234
 30
0.0
 10
-162.869702726369
 20
15.25140945056613
 30
0.0
 10
-162.6979792483918
 20
15.38568222945473
 30
0.0
 10
-162.5347552793041
 20
15.5356991664012
 30
0.0
 10
-162.3803918800422
 20
15.70108000703369
 30
0.0
 10
-162.2372373006177
 20
15.88367715379274
 30
0.0
 10
-162.1029470833464
 20
16.08105331540529
 30
0.0
 10
-161.9789216627494
 20
16.29546243166513
 30
0.0
 10
-161.8652355749044
 20
16.52659232802637
 30
0.0
 10
-161.7583326980115
 20
16.77476517574981
 30
0.0
 10
-161.6654476297962
 20
17.04532385176761
 30
0.0
 10
-161.5827842318906
 20
17.34068441068353
 30
0.0
 10
-161.5150685506648
 20
17.66330892629925
 30
0.0
 10
-161.4606070687014
 20
18.01309375214467
 30
0.0
 10
-161.4171250527195
 20
18.38929785376063
 30
0.0
 10
-161.3847794306469
 20
18.79210281399753
 30
0.0
 10
-161.3656301895464
 20
19.2216962497259
 30
0.0
 10
-161.3638812349858
 20
19.51697721700381
 30
0.0
 10
-161.3629807692308
 20
19.66900540865383
 30
0.0
  0
SPLINE
  5
B5
330
1F
100
AcDbEntity
  8
0
  6
Continuous
 62
     7
370
    25
100
AcDbSpline
210
0.0
220
0.0
230
1.0
 70
     8
 71
     3
 72
    15
 73
    11
 74
     0
 42
0.000000001
 43
0.00000001
 40
0.0
 40
0.0
 40
0.0
 40
0.0
 40
0.1610711239484216
 40
0.3107888083803548
 40
0.4499038238309445
 40
0.5783763165061855
 40
0.6966172119048387
 40
0.8059873227104095
 40
0.9065617032890825
 40
1.0
 40
1.0
 40
1.0
 40
1.0
 10
-161.3629807692308
 20
19.66900540865383
 30
0.0
 10
-161.3646118787753
 20
19.88023661279689
 30
0.0
 10
-161.3677591256516
 20
20.28780994201379
 30
0.0
 10
-161.4076433495876
 20
20.87663490123393
 30
0.0
 10
-161.4661832745345
 20
21.42090157657303
 30
0.0
 10
-161.5521645573569
 20
21.91969954417674
 30
0.0
 10
-161.6584792244268
 20
22.37487620622711
 30
0.0
 10
-161.7946206914574
 20
22.78343309716446
 30
0.0
 10
-161.9496078481736
 20
23.15102351777111
 30
0.0
 10
-162.0816768170927
 20
23.36878629597828
 30
0.0
 10
-162.1452824519232
 20
23.47366286057691
 30
0.0
  0
SPLINE
  5
B6
330
1F
100
AcDbEntity
  8
0
  6
Continuous
 62
     7
370
    25
100
AcDbSpline
210
0.0
220
0.0
230
1.0
 70
     8
 71
     3
 72
    23
 73
    19
 74
     0
 42
0.000000001
 43
0.00000001
 40
0.0
 40
0.0
 40
0.0
 40
0.0
 40
0.0564668684718605
 40
0.1111640986969565
 40
0.1649370968759824
 40
0.2183217523125925
 40
0.2723929232482744
 40
0.3279763434476985
 40
0.3852910519840195
 40
0.4449029182928187
 40
0.5068438192198309
 40
0.5694881852629677
 40
0.634153215553719
 40
0.7009760953100489
 40
0.7708974968462675
 40
0.8436256105557787
 40
0.9196596761155381
 40
1.0
 40
1.0
 40
1.0
 40
1.0
 10
-179.1670222355769
 20
23.05961538461537
 30
0.0
 10
-179.1217937338189
 20
23.05801567500452
 30
0.0
 10
-179.0327541647865
 20
23.05486638973548
 30
0.0
 10
-178.9018729578757
 20
23.03390244978026
 30
0.0
 10
-178.7773300863928
 20
22.99695569385573
 30
0.0
 10
-178.6577393188742
 20
22.94745224115007
 30
0.0
 10
-178.5443769594629
 20
22.88183505917617
 30
0.0
 10
-178.4375289439431
 20
22.80095142827743
 30
0.0
 10
-178.3360694934614
 20
22.70685678527899
 30
0.0
 10
-178.2404639417618
 20
22.59984535164096
 30
0.0
 10
-178.1534504088556
 20
22.48042056029425
 30
0.0
 10
-178.0761653071002
 20
22.34967311248634
 30
0.0
 10
-178.0122633939778
 20
22.20768416704161
 30
0.0
 10
-177.9560018271072
 20
22.05632819491634
 30
0.0
 10
-177.9126102145618
 20
21.8939795095871
 30
0.0
 10
-177.8810157377244
 20
21.72160974980845
 30
0.0
 10
-177.8569965668678
 20
21.53949933862808
 30
0.0
 10
-177.8514218231673
 20
21.41431555532473
 30
0.0
 10
-177.8485576923077
 20
21.34999999999998
 30
0.0
  0
LINE
  5
B7
330
1F
100
AcDbEntity
  8
0
  6
Continuous
 62
     7
370
    25
100
AcDbLine
 10
-177.8485576923
 20
21.35
 30
0.0
 11
-176.1389423077
 21
21.35
 31
0.0
  0
SPLINE
  5
B8
330
1F
100
AcDbEntity
  8
0
  6
Continuous
 62
     7
370
    25
100
AcDbSpline
210
0.0
220
0.0
230
1.0
 70
     8
 71
     3
 72
    23
 73
    19
 74
     0
 42
0.000000001
 43
0.00000001
 40
0.0
 40
0.0
 40
0.0
 40
0.0
 40
0.0749399102007727
 40
0.146428085171576
 40
0.2147529716359179
 40
0.280421536691246
 40
0.3436044295193629
 40
0.405542638818658
 40
0.4661994619307759
 40
0.5265381448244657
 40
0.5859019063092088
 40
0.6440895746157888
 40
0.7016130759883661
 40
0.758753587436567
 40
0.8166294493897619
 40
0.8756554749553003
 40
0.9366243322865246
 40
1.0
 40
1.0
 40
1.0
 40
1.0
 10
-176.1389423076923
 20
21.34999999999998
 30
0.0
 10
-176.1463258743426
 20
21.47932335924266
 30
0.0
 10
-176.160752920271
 20
21.73201343868268
 30
0.0
 10
-176.218140062544
 20
22.09905387016822
 30
0.0
 10
-176.2950368637346
 20
22.44586671655125
 30
0.0
 10
-176.3976658531015
 20
22.77123878870713
 30
0.0
 10
-176.5266258934129
 20
23.07505185688276
 30
0.0
 10
-176.6785985105537
 20
23.35834163637707
 30
0.0
 10
-176.8574662596423
 20
23.61961660022404
 30
0.0
 10
-177.0594222467123
 20
23.85761673305808
 30
0.0
 10
-177.2810378146679
 20
24.07112884846095
 30
0.0
 10
-177.5177120067106
 20
24.26044210340253
 30
0.0
 10
-177.7730650735606
 20
24.41665863699967
 30
0.0
 10
-178.0424315057926
 20
24.54521038136683
 30
0.0
 10
-178.3257654358608
 20
24.64791725156627
 30
0.0
 10
-178.62574764777
 20
24.71658510571522
 30
0.0
 10
-178.939780733082
 20
24.7630876492306
 30
0.0
 10
-179.1547618095437
 20
24.76715680837373
 30
0.0
 10
-179.2643329326923
 20
24.76923076923075
 30
0.0
  0
SPLINE
  5
B9
330
1F
100
AcDbEntity
  8
0
  6
Continuous
 62
     7
370
    25
100
AcDbSpline
210
0.0
220
0.0
230
1.0
 70
     8
 71
     3
 72
    19
 73
    15
 74
     0
 42
0.000000001
 43
0.00000001
 40
0.0
 40
0.0
 40
0.0
 40
0.0
 40
0.0896145288821152
 40
0.1749485612865216
 40
0.2575481258745655
 40
0.3389007874900928
 40
0.4200531858831871
 40
0.5014014271193611
 40
0.5842520267159587
 40
0.6703704767286299
 40
0.7564732666582518
 40
0.8392065940498494
 40
0.9201204666578202
 40
1.0
 40
1.0
 40
1.0
 40
1.0
 10
-179.2643329326923
 20
24.76923076923075
 30
0.0
 10
-179.3988299319251
 20
24.76503410829032
 30
0.0
 10
-179.6613995934148
 20
24.75684124265909
 30
0.0
 10
-180.042934138414
 20
24.68695337977179
 30
0.0
 10
-180.3992456877478
 20
24.57005512928088
 30
0.0
 10
-180.7300752363911
 20
24.40671744447469
 30
0.0
 10
-181.0326063742202
 20
24.19921403773385
 30
0.0
 10
-181.3067889333477
 20
23.95180018551267
 30
0.0
 10
-181.5443311959979
 20
23.65928501543344
 30
0.0
 10
-181.7467392499
 20
23.33383960641722
 30
0.0
 10
-181.9149161517769
 20
22.98923872081467
 30
0.0
 10
-182.0327675192363
 20
22.63290711510809
 30
0.0
 10
-182.1102299546728
 20
22.2743003852869
 30
0.0
 10
-182.1184918028456
 20
22.03283276438462
 30
0.0
 10
-182.1225961538461
 20
21.91287560096152
 30
0.0
  0
SPLINE
  5
BA
330
1F
100
AcDbEntity
  8
0
  6
Continuous
 62
     7
370
    25
100
AcDbSpline
210
0.0
220
0.0
230
1.0
 70
     8
 71
     3
 72
    23
 73
    19
 74
     0
 42
0.000000001
 43
0.00000001
 40
0.0
 40
0.0
 40
0.0
 40
0.0
 40
0.0455177516513181
 40
0.0916159906181653
 40
0.1392465550335729
 40
0.1882415637234053
 40
0.2386730793725372
 40
0.2906638743206422
 40
0.344839855578634
 40
0.4004316067351786
 40
0.4591437176132934
 40
0.5225510475946147
 40
0.5901008583230455
 40
0.6622596565248682
 40
0.7396813070012573
 40
0.8215754713854215
 40
0.9083300466844468
 40
1.0
 40
1.0
 40
1.0
 40
1.0
 10
-182.1225961538461
 20
21.91287560096152
 30
0.0
 10
-182.1209981363186
 20
21.84031703034318
 30
0.0
 10
-182.1177817217661
 20
21.69427455056607
 30
0.0
 10
-182.095417563982
 20
21.47327643476975
 30
0.0
 10
-182.0618669081416
 20
21.24816401591082
 30
0.0
 10
-182.0112806954707
 20
21.01913030690791
 30
0.0
 10
-181.9481955411275
 20
20.78611110600363
 30
0.0
 10
-181.8716641306136
 20
20.54840906682094
 30
0.0
 10
-181.7799112425712
 20
20.30737187277128
 30
0.0
 10
-181.6744680464234
 20
20.06028669145941
 30
0.0
 10
-181.5486740461837
 20
19.80635133408205
 30
0.0
 10
-181.4022044183145
 20
19.54175921073262
 30
0.0
 10
-181.2311715269844
 20
19.26674503546533
 30
0.0
 10
-181.0376412338026
 20
18.97975598868609
 30
0.0
 10
-180.8206736085881
 20
18.68124469656731
 30
0.0
 10
-180.5792094870049
 20
18.37211036827731
 30
0.0
 10
-180.3160299687048
 20
18.05126371308132
 30
0.0
 10
-180.1292440609655
 20
17.83679572950858
 30
0.0
 10
-180.0332782451923
 20
17.72660757211537
 30
0.0
  0
LINE
  5
BB
330
1F
100
AcDbEntity
  8
0
  6
Continuous
 62
     7
370
    25
100
AcDbLine
 10
-180.0332782452
 20
17.7266075721
 30
0.0
 11
-179.0391826923
 21
16.5875
 31
0.0
  0
LINE
  5
BC
330
1F
100
AcDbEntity
  8
0
  6
Continuous
 62
     7
370
    25
100
AcDbLine
 10
-179.0391826923
 20
16.5875
 30
0.0
 11
-182.2447115385
 21
16.5875
 31
0.0
  0
LINE
  5
BD
330
1F
100
AcDbEntity
  8
0
  6
Continuous
 62
     7
370
    25
100
AcDbLine
 10
-182.2447115385
 20
16.5875
 30
0.0
 11
-182.2447115385
 21
15.0
 31
0.0
  0
LINE
  5
BE
330
1F
100
AcDbEntity
  8
0
  6
Continuous
 62
     7
370
    25
100
AcDbLine
 10
-182.2447115385
 20
15.0
 30
0.0
 11
-175.8947115385
 21
15.0
 31
0.0
  0
LINE
  5
BF
330
1F
100
AcDbEntity
  8
0
  6
Continuous
 62
     7
370
    25
100
AcDbLine
 10
-175.8947115385
 20
15.0
 30
0.0
 11
-175.8947115385
 21
15.8662560096
 31
0.0
  0
LINE
  5
C0
330
1F
100
AcDbEntity
  8
0
  6
Continuous
 62
     7
370
    25
100
AcDbLine
 10
-175.8947115385
 20
15.8662560096
 30
0.0
 11
-178.7148137019
 21
18.8676231971
 31
0.0
  0
SPLINE
  5
C1
330
1F
100
AcDbEntity
  8
0
  6
Continuous
 62
     7
370
    25
100
AcDbSpline
210
0.0
220
0.0
230
1.0
 70
     8
 71
     3
 72
    19
 73
    15
 74
     0
 42
0.000000001
 43
0.00000001
 40
0.0
 40
0.0
 40
0.0
 40
0.0
 40
0.1038439242634214
 40
0.2011148859465237
 40
0.2911157193792165
 40
0.3743484039713622
 40
0.4507073961858724
 40
0.5200404120163602
 40
0.583258322445338
 40
0.6395782998253268
 40
0.7415365099482668
 40
0.8350600486817371
 40
0.9208729600458341
 40
1.0
 40
1.0
 40
1.0
 40
1.0
 10
-178.714813701923
 20
18.86762319711536
 30
0.0
 10
-178.7964629065783
 20
18.955174009966
 30
0.0
 10
-178.9545932025809
 20
19.12473397089656
 30
0.0
 10
-179.1795963176043
 20
19.37375081249317
 30
0.0
 10
-179.3832042610388
 20
19.61006185121368
 30
0.0
 10
-179.5611950565849
 20
19.8361833229003
 30
0.0
 10
-179.7229094320583
 20
20.0447807672083
 30
0.0
 10
-179.8611365561557
 20
20.24214157142511
 30
0.0
 10
-179.9771410988453
 20
20.42648152279135
 30
0.0
 10
-180.1030804830882
 20
20.64876330944436
 30
0.0
 10
-180.2226814989527
 20
20.91387389488368
 30
0.0
 10
-180.3324226696348
 20
21.21929215962779
 30
0.0
 10
-180.3993175074415
 20
21.51120168111189
 30
0.0
 10
-180.4085511105708
 20
21.70141620008477
 30
0.0
 10
-180.4129807692307
 20
21.79266826923075
 30
0.0
  0
SPLINE
  5
C2
330
1F
100
AcDbEntity
  8
0
  6
Continuous
 62
     7
370
    25
100
AcDbSpline
210
0.0
220
0.0
230
1.0
 70
     8
 71
     3
 72
    15
 73
    11
 74
     0
 42
0.000000001
 43
0.00000001
 40
0.0
 40
0.0
 40
0.0
 40
0.0
 40
0.132754871747587
 40
0.2572338481110646
 40
0.3786007316763538
 40
0.5014062774984482
 40
0.6239419536469464
 40
0.7436418348746362
 40
0.8681208112381122
 40
1.0
 40
1.0
 40
1.0
 40
1.0
 10
-180.4129807692307
 20
21.79266826923075
 30
0.0
 10
-180.4096688204822
 20
21.88094760610387
 30
0.0
 10
-180.4032513887892
 20
22.0520029747968
 30
0.0
 10
-180.3327290145969
 20
22.29532832602494
 30
0.0
 10
-180.2234733065443
 20
22.51563459242557
 30
0.0
 10
-180.0695165837712
 20
22.70633877434151
 30
0.0
 10
-179.8830267737592
 20
22.86305304608425
 30
0.0
 10
-179.6675202805774
 20
22.97961271858681
 30
0.0
 10
-179.4247541160558
 20
23.04686711537245
 30
0.0
 10
-179.2545704093302
 20
23.05528496306
 30
0.0
 10
-179.1670222355769
 20
23.05961538461537
 30
0.0
  0
LINE
  5
C3
330
1F
100
AcDbEntity
  8
0
  6
Continuous
 62
     7
370
    25
100
AcDbLine
 10
0.0
 20
0.0
 30
0.0
 11
0.0
 21
30.0
 31
0.0
  0
LINE
  5
C4
330
1F
100
AcDbEntity
  8
0
  6
Continuous
 62
     7
370
    25
100
AcDbLine
 10
-25.0
 20
0.0
 30
0.0
 11
0.0
 21
0.0
 31
0.0
  0
LINE
  5
C5
330
1F
100
AcDbEntity
  8
0
  6
Continuous
 62
     7
370
    25
100
AcDbLine
 10
-25.0
 20
-5.0
 30
0.0
 11
-25.0
 21
0.0
 31
0.0
  0
LINE
  5
C6
330
1F
100
AcDbEntity
  8
0
  6
Continuous
 62
     7
370
    25
100
AcDbLine
 10
-75.0
 20
-5.0
 30
0.0
 11
-25.0
 21
-5.0
 31
0.0
  0
LINE
  5
C7
330
1F
100
AcDbEntity
  8
0
  6
Continuous
 62
     7
370
    25
100
AcDbLine
 10
-75.0
 20
0.0
 30
0.0
 11
-75.0
 21
-5.0
 31
0.0
  0
LINE
  5
C8
330
1F
100
AcDbEntity
  8
0
  6
Continuous
 62
     7
370
    25
100
AcDbLine
 10
-105.0
 20
0.0
 30
0.0
 11
-75.0
 21
0.0
 31
0.0
  0
LINE
  5
C9
330
1F
100
AcDbEntity
  8
0
  6
Continuous
 62
     7
370
    25
100
AcDbLine
 10
-105.0
 20
-5.0
 30
0.0
 11
-105.0
 21
0.0
 31
0.0
  0
LINE
  5
CA
330
1F
100
AcDbEntity
  8
0
  6
Continuous
 62
     7
370
    25
100
AcDbLine
 10
-155.0
 20
-5.0
 30
0.0
 11
-105.0
 21
-5.0
 31
0.0
  0
LINE
  5
CB
330
1F
100
AcDbEntity
  8
0
  6
Continuous
 62
     7
370
    25
100
AcDbLine
 10
-155.0
 20
0.0
 30
0.0
 11
-155.0
 21
-5.0
 31
0.0
  0
LINE
  5
CC
330
1F
100
AcDbEntity
  8
0
  6
Continuous
 62
     7
370
    25
100
AcDbLine
 10
-200.0
 20
0.0
 30
0.0
 11
-155.0
 21
0.0
 31
0.0
  0
LINE
  5
CD
330
1F
100
AcDbEntity
  8
0
  6
Continuous
 62
     7
370
    25
100
AcDbLine
 10
-200.0
 20
30.0
 30
0.0
 11
-200.0
 21
0.0
 31
0.0
  0
LINE
  5
CE
330
1F
100
AcDbEntity
  8
0
  6
Continuous
 62
     7
370
    25
100
AcDbLine
 10
-155.0
 20
30.0
 30
0.0
 11
-200.0
 21
30.0
 31
0.0
  0
LINE
  5
CF
330
1F
100
AcDbEntity
  8
0
  6
Continuous
 62
     7
370
    25
100
AcDbLine
 10
-155.0
 20
35.0
 30
0.0
 11
-155.0
 21
30.0
 31
0.0
  0
LINE
  5
D0
330
1F
100
AcDbEntity
  8
0
  6
Continuous
 62
     7
370
    25
100
AcDbLine
 10
-105.0
 20
35.0
 30
0.0
 11
-155.0
 21
35.0
 31
0.0
  0
LINE
  5
D1
330
1F
100
AcDbEntity
  8
0
  6
Continuous
 62
     7
370
    25
100
AcDbLine
 10
-105.0
 20
30.0
 30
0.0
 11
-105.0
 21
35.0
 31
0.0
  0
LINE
  5
D2
330
1F
100
AcDbEntity
  8
0
  6
Continuous
 62
     7
370
    25
100
AcDbLine
 10
-75.0
 20
30.0
 30
0.0
 11
-105.0
 21
30.0
 31
0.0
  0
LINE
  5
D3
330
1F
100
AcDbEntity
  8
0
  6
Continuous
 62
     7
370
    25
100
AcDbLine
 10
-75.0
 20
35.0
 30
0.0
 11
-75.0
 21
30.0
 31
0.0
  0
LINE
  5
D4
330
1F
100
AcDbEntity
  8
0
  6
Continuous
 62
     7
370
    25
100
AcDbLine
 10
-25.0
 20
35.0
 30
0.0
 11
-75.0
 21
35.0
 31
0.0
  0
LINE
  5
D5
330
1F
100
AcDbEntity
  8
0
  6
Continuous
 62
     7
370
    25
100
AcDbLine
 10
-25.0
 20
30.0
 30
0.0
 11
-25.0
 21
35.0
 31
0.0
  0
LINE
  5
D6
330
1F
100
AcDbEntity
  8
0
  6
Continuous
 62
     7
370
    25
100
AcDbLine
 10
0.0
 20
30.0
 30
0.0
 11
-25.0
 21
30.0
 31
0.0
  0
CIRCLE
  5
D7
330
1F
100
AcDbEntity
  8
0
  6
Continuous
 62
     7
370
    25
100
AcDbCircle
 10
-192.6
 20
15.0
 30
0.0
 40
1.600000000000733
  0
CIRCLE
  5
D8
330
1F
100
AcDbEntity
  8
0
  6
Continuous
 62
     7
370
    25
100
AcDbCircle
 10
-7.8
 20
15.0
 30
0.0
 40
1.589255924440806
  0
SPLINE
  5
D9
330
1F
100
AcDbEntity
  8
0
  6
Continuous
 62
     7
370
    25
100
AcDbSpline
210
0.0
220
0.0
230
1.0
 70
     8
 71
     3
 72
    23
 73
    19
 74
     0
 42
0.000000001
 43
0.00000001
 40
0.0
 40
0.0
 40
0.0
 40
0.0
 40
0.0564668684718605
 40
0.1111640986969565
 40
0.1649370968759824
 40
0.2183217523125925
 40
0.2723929232482744
 40
0.3279763434476985
 40
0.3852910519840195
 40
0.4449029182928187
 40
0.5068438192198309
 40
0.5694881852629677
 40
0.634153215553719
 40
0.7009760953100489
 40
0.7708974968462675
 40
0.8436256105557787
 40
0.9196596761155381
 40
1.0
 40
1.0
 40
1.0
 40
1.0
 10
-171.8400991586539
 20
23.05961538461537
 30
0.0
 10
-171.7948706568959
 20
23.05801567500452
 30
0.0
 10
-171.7058310878635
 20
23.05486638973548
 30
0.0
 10
-171.5749498809526
 20
23.03390244978026
 30
0.0
 10
-171.4504070094698
 20
22.99695569385573
 30
0.0
 10
-171.3308162419512
 20
22.94745224115007
 30
0.0
 10
-171.2174538825399
 20
22.88183505917617
 30
0.0
 10
-171.1106058670202
 20
22.80095142827743
 30
0.0
 10
-171.0091464165383
 20
22.70685678527899
 30
0.0
 10
-170.9135408648388
 20
22.59984535164096
 30
0.0
 10
-170.8265273319326
 20
22.48042056029425
 30
0.0
 10
-170.7492422301771
 20
22.34967311248634
 30
0.0
 10
-170.6853403170548
 20
22.20768416704161
 30
0.0
 10
-170.6290787501842
 20
22.05632819491634
 30
0.0
 10
-170.5856871376388
 20
21.8939795095871
 30
0.0
 10
-170.5540926608014
 20
21.72160974980845
 30
0.0
 10
-170.5300734899448
 20
21.53949933862808
 30
0.0
 10
-170.5244987462443
 20
21.41431555532473
 30
0.0
 10
-170.5216346153846
 20
21.34999999999998
 30
0.0
  0
LINE
  5
DA
330
1F
100
AcDbEntity
  8
0
  6
Continuous
 62
     7
370
    25
100
AcDbLine
 10
-170.5216346154
 20
21.35
 30
0.0
 11
-168.8120192308
 21
21.35
 31
0.0
  0
SPLINE
  5
DB
330
1F
100
AcDbEntity
  8
0
  6
Continuous
 62
     7
370
    25
100
AcDbSpline
210
0.0
220
0.0
230
1.0
 70
     8
 71
     3
 72
    23
 73
    19
 74
     0
 42
0.000000001
 43
0.00000001
 40
0.0
 40
0.0
 40
0.0
 40
0.0
 40
0.0749399102007727
 40
0.146428085171576
 40
0.2147529716359179
 40
0.280421536691246
 40
0.3436044295193629
 40
0.405542638818658
 40
0.4661994619307759
 40
0.5265381448244657
 40
0.5859019063092088
 40
0.6440895746157888
 40
0.7016130759883661
 40
0.758753587436567
 40
0.8166294493897619
 40
0.8756554749553003
 40
0.9366243322865246
 40
1.0
 40
1.0
 40
1.0
 40
1.0
 10
-168.8120192307693
 20
21.34999999999998
 30
0.0
 10
-168.8194027974195
 20
21.47932335924266
 30
0.0
 10
-168.8338298433479
 20
21.73201343868268
 30
0.0
 10
-168.891216985621
 20
22.09905387016822
 30
0.0
 10
-168.9681137868116
 20
22.44586671655125
 30
0.0
 10
-169.0707427761785
 20
22.77123878870713
 30
0.0
 10
-169.1997028164899
 20
23.07505185688276
 30
0.0
 10
-169.3516754336308
 20
23.35834163637707
 30
0.0
 10
-169.5305431827193
 20
23.61961660022404
 30
0.0
 10
-169.7324991697893
 20
23.85761673305808
 30
0.0
 10
-169.9541147377449
 20
24.07112884846095
 30
0.0
 10
-170.1907889297875
 20
24.26044210340253
 30
0.0
 10
-170.4461419966376
 20
24.41665863699967
 30
0.0
 10
-170.7155084288696
 20
24.54521038136683
 30
0.0
 10
-170.9988423589378
 20
24.64791725156627
 30
0.0
 10
-171.298824570847
 20
24.71658510571522
 30
0.0
 10
-171.6128576561591
 20
24.7630876492306
 30
0.0
 10
-171.8278387326207
 20
24.76715680837373
 30
0.0
 10
-171.9374098557693
 20
24.76923076923075
 30
0.0
  0
SPLINE
  5
DC
330
1F
100
AcDbEntity
  8
0
  6
Continuous
 62
     7
370
    25
100
AcDbSpline
210
0.0
220
0.0
230
1.0
 70
     8
 71
     3
 72
    19
 73
    15
 74
     0
 42
0.000000001
 43
0.00000001
 40
0.0
 40
0.0
 40
0.0
 40
0.0
 40
0.0896145288821152
 40
0.1749485612865216
 40
0.2575481258745655
 40
0.3389007874900928
 40
0.4200531858831871
 40
0.5014014271193611
 40
0.5842520267159587
 40
0.6703704767286299
 40
0.7564732666582518
 40
0.8392065940498494
 40
0.9201204666578202
 40
1.0
 40
1.0
 40
1.0
 40
1.0
 10
-171.9374098557693
 20
24.76923076923075
 30
0.0
 10
-172.0719068550021
 20
24.76503410829032
 30
0.0
 10
-172.3344765164918
 20
24.75684124265909
 30
0.0
 10
-172.716011061491
 20
24.68695337977179
 30
0.0
 10
-173.0723226108248
 20
24.57005512928088
 30
0.0
 10
-173.4031521594681
 20
24.40671744447469
 30
0.0
 10
-173.7056832972972
 20
24.19921403773385
 30
0.0
 10
-173.9798658564247
 20
23.95180018551267
 30
0.0
 10
-174.2174081190749
 20
23.65928501543344
 30
0.0
 10
-174.419816172977
 20
23.33383960641722
 30
0.0
 10
-174.5879930748538
 20
22.98923872081467
 30
0.0
 10
-174.7058444423133
 20
22.63290711510809
 30
0.0
 10
-174.7833068777498
 20
22.2743003852869
 30
0.0
 10
-174.7915687259226
 20
22.03283276438462
 30
0.0
 10
-174.7956730769231
 20
21.91287560096152
 30
0.0
  0
SPLINE
  5
DD
330
1F
100
AcDbEntity
  8
0
  6
Continuous
 62
     7
370
    25
100
AcDbSpline
210
0.0
220
0.0
230
1.0
 70
     8
 71
     3
 72
    23
 73
    19
 74
     0
 42
0.000000001
 43
0.00000001
 40
0.0
 40
0.0
 40
0.0
 40
0.0
 40
0.0455177516513181
 40
0.0916159906181653
 40
0.1392465550335729
 40
0.1882415637234053
 40
0.2386730793725372
 40
0.2906638743206422
 40
0.344839855578634
 40
0.4004316067351786
 40
0.4591437176132934
 40
0.5225510475946147
 40
0.5901008583230455
 40
0.6622596565248682
 40
0.7396813070012573
 40
0.8215754713854215
 40
0.9083300466844468
 40
1.0
 40
1.0
 40
1.0
 40
1.0
 10
-174.7956730769231
 20
21.91287560096152
 30
0.0
 10
-174.7940750593956
 20
21.84031703034318
 30
0.0
 10
-174.790858644843
 20
21.69427455056607
 30
0.0
 10
-174.768494487059
 20
21.47327643476975
 30
0.0
 10
-174.7349438312186
 20
21.24816401591082
 30
0.0
 10
-174.6843576185478
 20
21.01913030690791
 30
0.0
 10
-174.6212724642046
 20
20.78611110600363
 30
0.0
 10
-174.5447410536906
 20
20.54840906682094
 30
0.0
 10
-174.4529881656482
 20
20.30737187277128
 30
0.0
 10
-174.3475449695004
 20
20.06028669145941
 30
0.0
 10
-174.2217509692607
 20
19.80635133408205
 30
0.0
 10
-174.0752813413914
 20
19.54175921073262
 30
0.0
 10
-173.9042484500615
 20
19.26674503546533
 30
0.0
 10
-173.7107181568797
 20
18.97975598868609
 30
0.0
 10
-173.4937505316651
 20
18.68124469656731
 30
0.0
 10
-173.252286410082
 20
18.37211036827731
 30
0.0
 10
-172.9891068917818
 20
18.05126371308132
 30
0.0
 10
-172.8023209840425
 20
17.83679572950858
 30
0.0
 10
-172.7063551682693
 20
17.72660757211537
 30
0.0
  0
LINE
  5
DE
330
1F
100
AcDbEntity
  8
0
  6
Continuous
 62
     7
370
    25
100
AcDbLine
 10
-172.7063551683
 20
17.7266075721
 30
0.0
 11
-171.7122596154
 21
16.5875
 31
0.0
  0
LINE
  5
DF
330
1F
100
AcDbEntity
  8
0
  6
Continuous
 62
     7
370
    25
100
AcDbLine
 10
-171.7122596154
 20
16.5875
 30
0.0
 11
-174.9177884615
 21
16.5875
 31
0.0
  0
LINE
  5
E0
330
1F
100
AcDbEntity
  8
0
  6
Continuous
 62
     7
370
    25
100
AcDbLine
 10
-174.9177884615
 20
16.5875
 30
0.0
 11
-174.9177884615
 21
15.0
 31
0.0
  0
LINE
  5
E1
330
1F
100
AcDbEntity
  8
0
  6
Continuous
 62
     7
370
    25
100
AcDbLine
 10
-174.9177884615
 20
15.0
 30
0.0
 11
-168.5677884615
 21
15.0
 31
0.0
  0
LINE
  5
E2
330
1F
100
AcDbEntity
  8
0
  6
Continuous
 62
     7
370
    25
100
AcDbLine
 10
-168.5677884615
 20
15.0
 30
0.0
 11
-168.5677884615
 21
15.8662560096
 31
0.0
  0
LINE
  5
E3
330
1F
100
AcDbEntity
  8
0
  6
Continuous
 62
     7
370
    25
100
AcDbLine
 10
-168.5677884615
 20
15.8662560096
 30
0.0
 11
-171.387890625
 21
18.8676231971
 31
0.0
  0
SPLINE
  5
E4
330
1F
100
AcDbEntity
  8
0
  6
Continuous
 62
     7
370
    25
100
AcDbSpline
210
0.0
220
0.0
230
1.0
 70
     8
 71
     3
 72
    19
 73
    15
 74
     0
 42
0.000000001
 43
0.00000001
 40
0.0
 40
0.0
 40
0.0
 40
0.0
 40
0.1038439242634214
 40
0.2011148859465237
 40
0.2911157193792165
 40
0.3743484039713622
 40
0.4507073961858724
 40
0.5200404120163602
 40
0.583258322445338
 40
0.6395782998253268
 40
0.7415365099482668
 40
0.8350600486817371
 40
0.9208729600458341
 40
1.0
 40
1.0
 40
1.0
 40
1.0
 10
-171.387890625
 20
18.86762319711536
 30
0.0
 10
-171.4695398296553
 20
18.955174009966
 30
0.0
 10
-171.6276701256579
 20
19.12473397089656
 30
0.0
 10
-171.8526732406812
 20
19.37375081249317
 30
0.0
 10
-172.0562811841158
 20
19.61006185121368
 30
0.0
 10
-172.2342719796619
 20
19.8361833229003
 30
0.0
 10
-172.3959863551353
 20
20.0447807672083
 30
0.0
 10
-172.5342134792327
 20
20.24214157142511
 30
0.0
 10
-172.6502180219223
 20
20.42648152279135
 30
0.0
 10
-172.7761574061652
 20
20.64876330944436
 30
0.0
 10
-172.8957584220297
 20
20.91387389488368
 30
0.0
 10
-173.0054995927119
 20
21.21929215962779
 30
0.0
 10
-173.0723944305185
 20
21.51120168111189
 30
0.0
 10
-173.0816280336478
 20
21.70141620008477
 30
0.0
 10
-173.0860576923077
 20
21.79266826923075
 30
0.0
  0
SPLINE
  5
E5
330
1F
100
AcDbEntity
  8
0
  6
Continuous
 62
     7
370
    25
100
AcDbSpline
210
0.0
220
0.0
230
1.0
 70
     8
 71
     3
 72
    15
 73
    11
 74
     0
 42
0.000000001
 43
0.00000001
 40
0.0
 40
0.0
 40
0.0
 40
0.0
 40
0.132754871747587
 40
0.2572338481110646
 40
0.3786007316763538
 40
0.5014062774984482
 40
0.6239419536469464
 40
0.7436418348746362
 40
0.8681208112381122
 40
1.0
 40
1.0
 40
1.0
 40
1.0
 10
-173.0860576923077
 20
21.79266826923075
 30
0.0
 10
-173.0827457435591
 20
21.88094760610387
 30
0.0
 10
-173.0763283118662
 20
22.0520029747968
 30
0.0
 10
-173.0058059376739
 20
22.29532832602494
 30
0.0
 10
-172.8965502296213
 20
22.51563459242557
 30
0.0
 10
-172.7425935068482
 20
22.70633877434151
 30
0.0
 10
-172.5561036968362
 20
22.86305304608425
 30
0.0
 10
-172.3405972036544
 20
22.97961271858681
 30
0.0
 10
-172.0978310391328
 20
23.04686711537245
 30
0.0
 10
-171.9276473324072
 20
23.05528496306
 30
0.0
 10
-171.8400991586539
 20
23.05961538461537
 30
0.0
  0
SPLINE
  5
E6
330
1F
100
AcDbEntity
  8
0
  6
Continuous
 62
     7
370
    25
100
AcDbSpline
210
0.0
220
0.0
230
1.0
 70
     8
 71
     3
 72
    23
 73
    19
 74
     0
 42
0.000000001
 43
0.00000001
 40
0.0
 40
0.0
 40
0.0
 40
0.0
 40
0.0564668684718605
 40
0.1111640986969568
 40
0.164937096875982
 40
0.2183217523125927
 40
0.2723929232482747
 40
0.3279763434476989
 40
0.3852910519840189
 40
0.4449029182928194
 40
0.5068438192198303
 40
0.5694881852629685
 40
0.6341532155537198
 40
0.7009760953100499
 40
0.7708974968462685
 40
0.8436256105557786
 40
0.9196596761155409
 40
1.0
 40
1.0
 40
1.0
 40
1.0
 10
-157.1862530048077
 20
23.05961538461537
 30
0.0
 10
-157.1410245030497
 20
23.05801567500452
 30
0.0
 10
-157.0519849340174
 20
23.05486638973549
 30
0.0
 10
-156.9211037271065
 20
23.03390244978025
 30
0.0
 10
-156.7965608556237
 20
22.99695569385575
 30
0.0
 10
-156.6769700881052
 20
22.94745224115007
 30
0.0
 10
-156.5636077286937
 20
22.88183505917617
 30
0.0
 10
-156.456759713174
 20
22.80095142827743
 30
0.0
 10
-156.3553002626923
 20
22.70685678527899
 30
0.0
 10
-156.2596947109927
 20
22.59984535164097
 30
0.0
 10
-156.1726811780864
 20
22.48042056029425
 30
0.0
 10
-156.095396076331
 20
22.34967311248634
 30
0.0
 10
-156.0314941632086
 20
22.20768416704161
 30
0.0
 10
-155.9752325963381
 20
22.05632819491635
 30
0.0
 10
-155.9318409837926
 20
21.89397950958709
 30
0.0
 10
-155.9002465069553
 20
21.72160974980846
 30
0.0
 10
-155.8762273360987
 20
21.53949933862809
 30
0.0
 10
-155.8706525923982
 20
21.41431555532473
 30
0.0
 10
-155.8677884615385
 20
21.34999999999999
 30
0.0
  0
LINE
  5
E7
330
1F
100
AcDbEntity
  8
0
  6
Continuous
 62
     7
370
    25
100
AcDbLine
 10
-155.8677884615
 20
21.35
 30
0.0
 11
-154.1581730769
 21
21.35
 31
0.0
  0
SPLINE
  5
E8
330
1F
100
AcDbEntity
  8
0
  6
Continuous
 62
     7
370
    25
100
AcDbSpline
210
0.0
220
0.0
230
1.0
 70
     8
 71
     3
 72
    23
 73
    19
 74
     0
 42
0.000000001
 43
0.00000001
 40
0.0
 40
0.0
 40
0.0
 40
0.0
 40
0.0749399102007721
 40
0.1464280851715761
 40
0.2147529716359174
 40
0.2804215366912461
 40
0.343604429519363
 40
0.4055426388186577
 40
0.4661994619307756
 40
0.5265381448244654
 40
0.5859019063092085
 40
0.6440895746157885
 40
0.701613075988366
 40
0.7587535874365666
 40
0.8166294493897619
 40
0.8756554749553003
 40
0.9366243322865244
 40
1.0
 40
1.0
 40
1.0
 40
1.0
 10
-154.1581730769231
 20
21.34999999999999
 30
0.0
 10
-154.1655566435734
 20
21.47932335924266
 30
0.0
 10
-154.1799836895018
 20
21.73201343868267
 30
0.0
 10
-154.2373708317748
 20
22.09905387016823
 30
0.0
 10
-154.3142676329655
 20
22.44586671655125
 30
0.0
 10
-154.4168966223324
 20
22.77123878870714
 30
0.0
 10
-154.5458566626438
 20
23.07505185688277
 30
0.0
 10
-154.6978292797847
 20
23.35834163637708
 30
0.0
 10
-154.8766970288732
 20
23.61961660022405
 30
0.0
 10
-155.0786530159431
 20
23.85761673305807
 30
0.0
 10
-155.3002685838988
 20
24.07112884846095
 30
0.0
 10
-155.5369427759414
 20
24.26044210340253
 30
0.0
 10
-155.7922958427914
 20
24.41665863699966
 30
0.0
 10
-156.0616622750235
 20
24.54521038136684
 30
0.0
 10
-156.3449962050917
 20
24.64791725156626
 30
0.0
 10
-156.6449784170008
 20
24.71658510571522
 30
0.0
 10
-156.959011502313
 20
24.76308764923061
 30
0.0
 10
-157.1739925787747
 20
24.76715680837373
 30
0.0
 10
-157.2835637019232
 20
24.76923076923075
 30
0.0
  0
SPLINE
  5
E9
330
1F
100
AcDbEntity
  8
0
  6
Continuous
 62
     7
370
    25
100
AcDbSpline
210
0.0
220
0.0
230
1.0
 70
     8
 71
     3
 72
    19
 73
    15
 74
     0
 42
0.000000001
 43
0.00000001
 40
0.0
 40
0.0
 40
0.0
 40
0.0
 40
0.0896145288821151
 40
0.1749485612865214
 40
0.2575481258745652
 40
0.3389007874900928
 40
0.4200531858831862
 40
0.5014014271193612
 40
0.5842520267159581
 40
0.6703704767286293
 40
0.7564732666582511
 40
0.8392065940498479
 40
0.9201204666578195
 40
1.0
 40
1.0
 40
1.0
 40
1.0
 10
-157.2835637019232
 20
24.76923076923075
 30
0.0
 10
-157.418060701156
 20
24.76503410829032
 30
0.0
 10
-157.6806303626456
 20
24.75684124265909
 30
0.0
 10
-158.0621649076449
 20
24.68695337977181
 30
0.0
 10
-158.4184764569786
 20
24.57005512928088
 30
0.0
 10
-158.7493060056219
 20
24.40671744447469
 30
0.0
 10
-159.0518371434511
 20
24.19921403773385
 30
0.0
 10
-159.3260197025786
 20
23.95180018551267
 30
0.0
 10
-159.5635619652288
 20
23.65928501543343
 30
0.0
 10
-159.7659700191309
 20
23.33383960641723
 30
0.0
 10
-159.9341469210078
 20
22.98923872081467
 30
0.0
 10
-160.0519982884672
 20
22.6329071151081
 30
0.0
 10
-160.1294607239037
 20
22.2743003852869
 30
0.0
 10
-160.1377225720765
 20
22.03283276438462
 30
0.0
 10
-160.141826923077
 20
21.91287560096152
 30
0.0
  0
SPLINE
  5
EA
330
1F
100
AcDbEntity
  8
0
  6
Continuous
 62
     7
370
    25
100
AcDbSpline
210
0.0
220
0.0
230
1.0
 70
     8
 71
     3
 72
    23
 73
    19
 74
     0
 42
0.000000001
 43
0.00000001
 40
0.0
 40
0.0
 40
0.0
 40
0.0
 40
0.0455177516513181
 40
0.0916159906181646
 40
0.1392465550335723
 40
0.1882415637234048
 40
0.2386730793725374
 40
0.2906638743206416
 40
0.3448398555786335
 40
0.4004316067351782
 40
0.4591437176132936
 40
0.5225510475946142
 40
0.5901008583230452
 40
0.6622596565248685
 40
0.7396813070012571
 40
0.8215754713854214
 40
0.9083300466844467
 40
1.0
 40
1.0
 40
1.0
 40
1.0
 10
-160.141826923077
 20
21.91287560096152
 30
0.0
 10
-160.1402289055495
 20
21.84031703034319
 30
0.0
 10
-160.1370124909969
 20
21.69427455056608
 30
0.0
 10
-160.1146483332129
 20
21.47327643476976
 30
0.0
 10
-160.0810976773725
 20
21.24816401591081
 30
0.0
 10
-160.0305114647016
 20
21.01913030690793
 30
0.0
 10
-159.9674263103584
 20
20.78611110600363
 30
0.0
 10
-159.8908948998445
 20
20.54840906682094
 30
0.0
 10
-159.7991420118021
 20
20.30737187277128
 30
0.0
 10
-159.6936988156544
 20
20.06028669145941
 30
0.0
 10
-159.5679048154146
 20
19.80635133408205
 30
0.0
 10
-159.4214351875453
 20
19.54175921073263
 30
0.0
 10
-159.2504022962153
 20
19.26674503546533
 30
0.0
 10
-159.0568720030335
 20
18.97975598868609
 30
0.0
 10
-158.8399043778189
 20
18.68124469656731
 30
0.0
 10
-158.5984402562359
 20
18.37211036827732
 30
0.0
 10
-158.3352607379356
 20
18.05126371308132
 30
0.0
 10
-158.1484748301964
 20
17.83679572950858
 30
0.0
 10
-158.0525090144232
 20
17.72660757211537
 30
0.0
  0
LINE
  5
EB
330
1F
100
AcDbEntity
  8
0
  6
Continuous
 62
     7
370
    25
100
AcDbLine
 10
-158.0525090144
 20
17.7266075721
 30
0.0
 11
-157.0584134615
 21
16.5875
 31
0.0
  0
LINE
  5
EC
330
1F
100
AcDbEntity
  8
0
  6
Continuous
 62
     7
370
    25
100
AcDbLine
 10
-157.0584134615
 20
16.5875
 30
0.0
 11
-160.2639423077
 21
16.5875
 31
0.0
  0
LINE
  5
ED
330
1F
100
AcDbEntity
  8
0
  6
Continuous
 62
     7
370
    25
100
AcDbLine
 10
-160.2639423077
 20
16.5875
 30
0.0
 11
-160.2639423077
 21
15.0
 31
0.0
  0
LINE
  5
EE
330
1F
100
AcDbEntity
  8
0
  6
Continuous
 62
     7
370
    25
100
AcDbLine
 10
-160.2639423077
 20
15.0
 30
0.0
 11
-153.9139423077
 21
15.0
 31
0.0
  0
LINE
  5
EF
330
1F
100
AcDbEntity
  8
0
  6
Continuous
 62
     7
370
    25
100
AcDbLine
 10
-153.9139423077
 20
15.0
 30
0.0
 11
-153.9139423077
 21
15.8662560096
 31
0.0
  0
LINE
  5
F0
330
1F
100
AcDbEntity
  8
0
  6
Continuous
 62
     7
370
    25
100
AcDbLine
 10
-153.9139423077
 20
15.8662560096
 30
0.0
 11
-156.7340444712
 21
18.8676231971
 31
0.0
  0
SPLINE
  5
F1
330
1F
100
AcDbEntity
  8
0
  6
Continuous
 62
     7
370
    25
100
AcDbSpline
210
0.0
220
0.0
230
1.0
 70
     8
 71
     3
 72
    19
 73
    15
 74
     0
 42
0.000000001
 43
0.00000001
 40
0.0
 40
0.0
 40
0.0
 40
0.0
 40
0.1038439242634214
 40
0.2011148859465237
 40
0.2911157193792165
 40
0.3743484039713622
 40
0.4507073961858724
 40
0.5200404120163602
 40
0.583258322445338
 40
0.6395782998253277
 40
0.7415365099482668
 40
0.8350600486817371
 40
0.9208729600458341
 40
1.0
 40
1.0
 40
1.0
 40
1.0
 10
-156.7340444711539
 20
18.86762319711537
 30
0.0
 10
-156.8156936758091
 20
18.95517400996601
 30
0.0
 10
-156.9738239718118
 20
19.12473397089657
 30
0.0
 10
-157.1988270868351
 20
19.37375081249317
 30
0.0
 10
-157.4024350302697
 20
19.61006185121368
 30
0.0
 10
-157.5804258258157
 20
19.83618332290031
 30
0.0
 10
-157.7421402012892
 20
20.0447807672083
 30
0.0
 10
-157.8803673253866
 20
20.24214157142512
 30
0.0
 10
-157.996371868076
 20
20.42648152279134
 30
0.0
 10
-158.1223112523191
 20
20.64876330944438
 30
0.0
 10
-158.2419122681835
 20
20.91387389488368
 30
0.0
 10
-158.3516534388658
 20
21.2192921596278
 30
0.0
 10
-158.4185482766724
 20
21.51120168111189
 30
0.0
 10
-158.4277818798016
 20
21.70141620008477
 30
0.0
 10
-158.4322115384616
 20
21.79266826923075
 30
0.0
  0
SPLINE
  5
F2
330
1F
100
AcDbEntity
  8
0
  6
Continuous
 62
     7
370
    25
100
AcDbSpline
210
0.0
220
0.0
230
1.0
 70
     8
 71
     3
 72
    15
 73
    11
 74
     0
 42
0.000000001
 43
0.00000001
 40
0.0
 40
0.0
 40
0.0
 40
0.0
 40
0.132754871747587
 40
0.257233848111063
 40
0.3786007316763537
 40
0.5014062774984495
 40
0.6239419536469477
 40
0.7436418348746359
 40
0.8681208112381119
 40
1.0
 40
1.0
 40
1.0
 40
1.0
 10
-158.4322115384616
 20
21.79266826923075
 30
0.0
 10
-158.428899589713
 20
21.88094760610387
 30
0.0
 10
-158.42248215802
 20
22.0520029747968
 30
0.0
 10
-158.3519597838278
 20
22.29532832602495
 30
0.0
 10
-158.2427040757752
 20
22.51563459242556
 30
0.0
 10
-158.0887473530021
 20
22.70633877434152
 30
0.0
 10
-157.9022575429902
 20
22.86305304608426
 30
0.0
 10
-157.6867510498082
 20
22.97961271858679
 30
0.0
 10
-157.4439848852867
 20
23.04686711537246
 30
0.0
 10
-157.2738011785611
 20
23.05528496306
 30
0.0
 10
-157.1862530048077
 20
23.05961538461537
 30
0.0
  0
SPLINE
  5
F3
330
1F
100
AcDbEntity
  8
0
  6
Continuous
 62
     7
370
    25
100
AcDbSpline
210
0.0
220
0.0
230
1.0
 70
     8
 71
     3
 72
    31
 73
    27
 74
     0
 42
0.000000001
 43
0.00000001
 40
0.0
 40
0.0
 40
0.0
 40
0.0
 40
0.0431143456619736
 40
0.0856827648242093
 40
0.1275943241639279
 40
0.169058622560548
 40
0.2104320288213106
 40
0.2518111664630531
 40
0.2934438397982398
 40
0.3353808532218255
 40
0.3774766059607944
 40
0.4186884906768271
 40
0.4598730336711997
 40
0.500872904625315
 40
0.5418727755794328
 40
0.5832117768673234
 40
0.6247632017340763
 40
0.6669876223820911
 40
0.7093697058942402
 40
0.7511026519448588
 40
0.7925683801202223
 40
0.8335451085502594
 40
0.8748274225565256
 40
0.9160177232110678
 40
0.9578592039763058
 40
1.0
 40
1.0
 40
1.0
 40
1.0
 10
-134.0091346153847
 20
19.76631610576922
 30
0.0
 10
-134.0105873302515
 20
19.87898258325941
 30
0.0
 10
-134.013474365283
 20
20.10288892223182
 30
0.0
 10
-134.0482517433979
 20
20.43470668720512
 30
0.0
 10
-134.0983211690984
 20
20.76004781490967
 30
0.0
 10
-134.1723714739524
 20
21.07761516554067
 30
0.0
 10
-134.2623236678684
 20
21.38964902908648
 30
0.0
 10
-134.3788694417847
 20
21.69324491705982
 30
0.0
 10
-134.5115300725541
 20
21.99164606845839
 30
0.0
 10
-134.6665315291026
 20
22.28132799203061
 30
0.0
 10
-134.8388781614454
 20
22.5596253720102
 30
0.0
 10
-135.026923681828
 20
22.82522543107348
 30
0.0
 10
-135.2311409281545
 20
23.074916676235
 30
0.0
 10
-135.4508720490216
 20
23.31033997551685
 30
0.0
 10
-135.6868742676242
 20
23.52994787448142
 30
0.0
 10
-135.9360432185533
 20
23.73684922868598
 30
0.0
 10
-136.2032113286157
 20
23.92554800247943
 30
0.0
 10
-136.4825311261351
 20
24.10065259627642
 30
0.0
 10
-136.7724278703297
 20
24.25899664370625
 30
0.0
 10
-137.0717214184865
 20
24.3937743612818
 30
0.0
 10
-137.3742457322796
 20
24.51147344633479
 30
0.0
 10
-137.6840421285365
 20
24.60436676849455
 30
0.0
 10
-137.9977905877964
 20
24.68002740752985
 30
0.0
 10
-138.3188428768012
 20
24.73006308645916
 30
0.0
 10
-138.644298470636
 20
24.76483950148762
 30
0.0
 10
-138.8637642435316
 20
24.76776353953105
 30
0.0
 10
-138.9738882211539
 20
24.76923076923076
 30
0.0
  0
SPLINE
  5
F4
330
1F
100
AcDbEntity
  8
0
  6
Continuous
 62
     7
370
    25
100
AcDbSpline
210
0.0
220
0.0
230
1.0
 70
     8
 71
     3
 72
    23
 73
    19
 74
     0
 42
0.000000001
 43
0.00000001
 40
0.0
 40
0.0
 40
0.0
 40
0.0
 40
0.0633955966615915
 40
0.1251572666424212
 40
0.1856494665262534
 40
0.2459766793408166
 40
0.3061083686579584
 40
0.3673505880891735
 40
0.4299020782799147
 40
0.4945399581831945
 40
0.5593725826940489
 40
0.6224096858457369
 40
0.6843574258194757
 40
0.74580660077221
 40
0.8074302750159152
 40
0.8699955160697818
 40
0.9339278677192726
 40
1.0
 40
1.0
 40
1.0
 40
1.0
 10
-138.9738882211539
 20
24.76923076923076
 30
0.0
 10
-139.1394920196324
 20
24.76494299032614
 30
0.0
 10
-139.4664314263833
 20
24.75647794360479
 30
0.0
 10
-139.9472413134988
 20
24.68591517253829
 30
0.0
 10
-140.4105905411697
 20
24.5709432532203
 30
0.0
 10
-140.8562695842087
 20
24.41112396951941
 30
0.0
 10
-141.2831625135235
 20
24.20212860306561
 30
0.0
 10
-141.6927751234054
 20
23.94988230962728
 30
0.0
 10
-142.0836402008999
 20
23.64962409154132
 30
0.0
 10
-142.4517524741084
 20
23.30835847767302
 30
0.0
 10
-142.7919546049656
 20
22.93724702384773
 30
0.0
 10
-143.0867399500515
 20
22.53767956537841
 30
0.0
 10
-143.3381220778015
 20
22.12000929650513
 30
0.0
 10
-143.5464682578451
 20
21.6831170575683
 30
0.0
 10
-143.7051626536711
 20
21.22397716146439
 30
0.0
 10
-143.816525075165
 20
20.7449306148025
 30
0.0
 10
-143.8880699136751
 20
20.24611370194611
 30
0.0
 10
-143.8962986708969
 20
19.90648737378628
 30
0.0
 10
-143.9004807692309
 20
19.73387920673076
 30
0.0
  0
SPLINE
  5
F5
330
1F
100
AcDbEntity
  8
0
  6
Continuous
 62
     7
370
    25
100
AcDbSpline
210
0.0
220
0.0
230
1.0
 70
     8
 71
     3
 72
    23
 73
    19
 74
     0
 42
0.000000001
 43
0.00000001
 40
0.0
 40
0.0
 40
0.0
 40
0.0
 40
0.0657223151915613
 40
0.1295079307025845
 40
0.1917221026921613
 40
0.2531611245020886
 40
0.3143157037352572
 40
0.3759517397728621
 40
0.4386196008234103
 40
0.5029729018927777
 40
0.5671286457242648
 40
0.629552289579674
 40
0.690476782434876
 40
0.75107233841083
 40
0.8116678943867853
 40
0.8729293555873923
 40
0.9355013707158089
 40
1.0
 40
1.0
 40
1.0
 40
1.0
 10
-143.9004807692309
 20
19.73387920673076
 30
0.0
 10
-143.8960270154607
 20
19.56321593505204
 30
0.0
 10
-143.8872507507635
 20
19.22691848269325
 30
0.0
 10
-143.8194458486606
 20
18.73269836413392
 30
0.0
 10
-143.7062080700286
 20
18.25878340406906
 30
0.0
 10
-143.5502052556865
 20
17.80410088532828
 30
0.0
 10
-143.345637687665
 20
17.37085313396891
 30
0.0
 10
-143.0991577851296
 20
16.95627392345627
 30
0.0
 10
-142.8042614120051
 20
16.56421064806024
 30
0.0
 10
-142.471704597141
 20
16.19487370384697
 30
0.0
 10
-142.1055884043846
 20
15.8596211759045
 30
0.0
 10
-141.7178132361344
 20
15.56418046462188
 30
0.0
 10
-141.3101695984521
 20
15.31383515504238
 30
0.0
 10
-140.8832541515704
 20
15.10869991744547
 30
0.0
 10
-140.4361513957905
 20
14.9495020142162
 30
0.0
 10
-139.9699657295871
 20
14.83717632561587
 30
0.0
 10
-139.4847260003793
 20
14.76891373657294
 30
0.0
 10
-139.1547394529063
 20
14.76019479751381
 30
0.0
 10
-138.9872445913463
 20
14.75576923076922
 30
0.0
  0
SPLINE
  5
F6
330
1F
100
AcDbEntity
  8
0
  6
Continuous
 62
     7
370
    25
100
AcDbSpline
210
0.0
220
0.0
230
1.0
 70
     8
 71
     3
 72
    23
 73
    19
 74
     0
 42
0.000000001
 43
0.00000001
 40
0.0
 40
0.0
 40
0.0
 40
0.0
 40
0.0667486513092681
 40
0.1311519760901759
 40
0.1937321970570949
 40
0.2553255433786003
 40
0.3163881857773865
 40
0.3780268629068864
 40
0.4404056792054011
 40
0.5045574293240801
 40
0.568658287362015
 40
0.6309861790900109
 40
0.6922881348732999
 40
0.752615446979639
 40
0.8131995384355627
 40
0.8740161248607814
 40
0.9361583555105315
 40
1.0
 40
1.0
 40
1.0
 40
1.0
 10
-138.9872445913463
 20
14.75576923076922
 30
0.0
 10
-138.8120650496342
 20
14.75973918227363
 30
0.0
 10
-138.4678611950926
 20
14.7675395943355
 30
0.0
 10
-137.9641173131023
 20
14.84171795194544
 30
0.0
 10
-137.4814871470312
 20
14.953456471176
 30
0.0
 10
-137.0240250681731
 20
15.12022021674697
 30
0.0
 10
-136.5870722162626
 20
15.32868892132226
 30
0.0
 10
-136.1738390122246
 20
15.58543062952034
 30
0.0
 10
-135.7844643295169
 20
15.8900210558399
 30
0.0
 10
-135.4211816851516
 20
16.23465952636256
 30
0.0
 10
-135.0920467295707
 20
16.61176960373848
 30
0.0
 10
-134.8015205712056
 20
17.01015295873746
 30
0.0
 10
-134.5564553118146
 20
17.42676629286957
 30
0.0
 10
-134.3568419849376
 20
17.86180459001753
 30
0.0
 10
-134.1994748566592
 20
18.31256419304601
 30
0.0
 10
-134.0884702277488
 20
18.78179035797948
 30
0.0
 10
-134.0228971445466
 20
19.26835771011935
 30
0.0
 10
-134.0137631948073
 20
19.59884398227492
 30
0.0
 10
-134.0091346153847
 20
19.76631610576922
 30
0.0
  0
SPLINE
  5
F7
330
1F
100
AcDbEntity
  8
0
  6
Continuous
 62
     7
370
    25
100
AcDbSpline
210
0.0
220
0.0
230
1.0
 70
     8
 71
     3
 72
    31
 73
    27
 74
     0
 42
0.000000001
 43
0.00000001
 40
0.0
 40
0.0
 40
0.0
 40
0.0
 40
0.0431143456619736
 40
0.085682764824209
 40
0.1275943241639275
 40
0.1690586225605483
 40
0.21043202882131
 40
0.2518111664630531
 40
0.2934438397982398
 40
0.3353808532218246
 40
0.3774766059607945
 40
0.4186884906768271
 40
0.4598730336711986
 40
0.5008729046253151
 40
0.5418727755794316
 40
0.5832117768673235
 40
0.6247632017340764
 40
0.6669876223820895
 40
0.7093697058942403
 40
0.7511026519448571
 40
0.7925683801202207
 40
0.8335451085502593
 40
0.8748274225565255
 40
0.9160177232110678
 40
0.9578592039763041
 40
1.0
 40
1.0
 40
1.0
 40
1.0
 10
-115.2033653846154
 20
19.76631610576922
 30
0.0
 10
-115.2048180994822
 20
19.8789825832594
 30
0.0
 10
-115.2077051345137
 20
20.10288892223181
 30
0.0
 10
-115.2424825126286
 20
20.43470668720512
 30
0.0
 10
-115.292551938329
 20
20.76004781490967
 30
0.0
 10
-115.3666022431832
 20
21.07761516554067
 30
0.0
 10
-115.456554437099
 20
21.38964902908648
 30
0.0
 10
-115.5731002110154
 20
21.69324491705982
 30
0.0
 10
-115.7057608417848
 20
21.99164606845839
 30
0.0
 10
-115.8607622983333
 20
22.28132799203061
 30
0.0
 10
-116.0331089306761
 20
22.5596253720102
 30
0.0
 10
-116.2211544510588
 20
22.82522543107348
 30
0.0
 10
-116.4253716973852
 20
23.07491667623501
 30
0.0
 10
-116.6451028182523
 20
23.31033997551684
 30
0.0
 10
-116.881105036855
 20
23.52994787448143
 30
0.0
 10
-117.130273987784
 20
23.73684922868597
 30
0.0
 10
-117.3974420978464
 20
23.92554800247943
 30
0.0
 10
-117.6767618953659
 20
24.10065259627643
 30
0.0
 10
-117.9666586395604
 20
24.25899664370625
 30
0.0
 10
-118.2659521877172
 20
24.39377436128181
 30
0.0
 10
-118.5684765015103
 20
24.5114734463348
 30
0.0
 10
-118.8782728977672
 20
24.60436676849455
 30
0.0
 10
-119.1920213570272
 20
24.68002740752985
 30
0.0
 10
-119.513073646032
 20
24.73006308645916
 30
0.0
 10
-119.8385292398667
 20
24.76483950148762
 30
0.0
 10
-120.0579950127623
 20
24.76776353953105
 30
0.0
 10
-120.1681189903847
 20
24.76923076923076
 30
0.0
  0
SPLINE
  5
F8
330
1F
100
AcDbEntity
  8
0
  6
Continuous
 62
     7
370
    25
100
AcDbSpline
210
0.0
220
0.0
230
1.0
 70
     8
 71
     3
 72
    23
 73
    19
 74
     0
 42
0.000000001
 43
0.00000001
 40
0.0
 40
0.0
 40
0.0
 40
0.0
 40
0.0633955966615898
 40
0.1251572666424213
 40
0.1856494665262535
 40
0.2459766793408151
 40
0.306108368657957
 40
0.3673505880891752
 40
0.4299020782799136
 40
0.4945399581831935
 40
0.559372582694048
 40
0.6224096858457371
 40
0.684357425819475
 40
0.745806600772211
 40
0.807430275015915
 40
0.8699955160697816
 40
0.9339278677192725
 40
1.0
 40
1.0
 40
1.0
 40
1.0
 10
-120.1681189903847
 20
24.76923076923076
 30
0.0
 10
-120.3337227888631
 20
24.76494299032614
 30
0.0
 10
-120.660662195614
 20
24.75647794360479
 30
0.0
 10
-121.1414720827296
 20
24.6859151725383
 30
0.0
 10
-121.6048213104005
 20
24.5709432532203
 30
0.0
 10
-122.0505003534394
 20
24.41112396951942
 30
0.0
 10
-122.4773932827542
 20
24.20212860306559
 30
0.0
 10
-122.8870058926362
 20
23.94988230962732
 30
0.0
 10
-123.2778709701306
 20
23.64962409154129
 30
0.0
 10
-123.6459832433392
 20
23.30835847767304
 30
0.0
 10
-123.9861853741963
 20
22.93724702384772
 30
0.0
 10
-124.2809707192822
 20
22.53767956537841
 30
0.0
 10
-124.5323528470323
 20
22.12000929650513
 30
0.0
 10
-124.7406990270758
 20
21.6831170575683
 30
0.0
 10
-124.8993934229018
 20
21.22397716146438
 30
0.0
 10
-125.0107558443957
 20
20.7449306148025
 30
0.0
 10
-125.0823006829059
 20
20.24611370194612
 30
0.0
 10
-125.0905294401276
 20
19.90648737378628
 30
0.0
 10
-125.0947115384616
 20
19.73387920673076
 30
0.0
  0
SPLINE
  5
F9
330
1F
100
AcDbEntity
  8
0
  6
Continuous
 62
     7
370
    25
100
AcDbSpline
210
0.0
220
0.0
230
1.0
 70
     8
 71
     3
 72
    23
 73
    19
 74
     0
 42
0.000000001
 43
0.00000001
 40
0.0
 40
0.0
 40
0.0
 40
0.0
 40
0.0657223151915613
 40
0.129507930702584
 40
0.1917221026921611
 40
0.2531611245020885
 40
0.3143157037352579
 40
0.3759517397728627
 40
0.4386196008234088
 40
0.5029729018927761
 40
0.5671286457242659
 40
0.6295522895796751
 40
0.6904767824348741
 40
0.7510723384108297
 40
0.8116678943867834
 40
0.8729293555873922
 40
0.935501370715807
 40
1.0
 40
1.0
 40
1.0
 40
1.0
 10
-125.0947115384616
 20
19.73387920673076
 30
0.0
 10
-125.0902577846914
 20
19.56321593505204
 30
0.0
 10
-125.0814815199942
 20
19.22691848269326
 30
0.0
 10
-125.0136766178913
 20
18.73269836413392
 30
0.0
 10
-124.9004388392593
 20
18.25878340406906
 30
0.0
 10
-124.7444360249172
 20
17.80410088532827
 30
0.0
 10
-124.5398684568957
 20
17.37085313396891
 30
0.0
 10
-124.2933885543603
 20
16.95627392345628
 30
0.0
 10
-123.9984921812359
 20
16.56421064806024
 30
0.0
 10
-123.6659353663717
 20
16.19487370384695
 30
0.0
 10
-123.2998191736154
 20
15.85962117590451
 30
0.0
 10
-122.9120440053651
 20
15.56418046462188
 30
0.0
 10
-122.5044003676829
 20
15.31383515504237
 30
0.0
 10
-122.0774849208012
 20
15.10869991744548
 30
0.0
 10
-121.6303821650212
 20
14.94950201421619
 30
0.0
 10
-121.1641964988178
 20
14.83717632561588
 30
0.0
 10
-120.67895676961
 20
14.76891373657294
 30
0.0
 10
-120.348970222137
 20
14.76019479751381
 30
0.0
 10
-120.181475360577
 20
14.75576923076922
 30
0.0
  0
SPLINE
  5
FA
330
1F
100
AcDbEntity
  8
0
  6
Continuous
 62
     7
370
    25
100
AcDbSpline
210
0.0
220
0.0
230
1.0
 70
     8
 71
     3
 72
    23
 73
    19
 74
     0
 42
0.000000001
 43
0.00000001
 40
0.0
 40
0.0
 40
0.0
 40
0.0
 40
0.0667486513092664
 40
0.1311519760901758
 40
0.1937321970570966
 40
0.2553255433785986
 40
0.3163881857773864
 40
0.3780268629068864
 40
0.4404056792054024
 40
0.5045574293240813
 40
0.568658287362015
 40
0.6309861790900109
 40
0.692288134873299
 40
0.7526154469796397
 40
0.8131995384355634
 40
0.8740161248607815
 40
0.9361583555105316
 40
1.0
 40
1.0
 40
1.0
 40
1.0
 10
-120.181475360577
 20
14.75576923076922
 30
0.0
 10
-120.0062958188649
 20
14.75973918227363
 30
0.0
 10
-119.6620919643233
 20
14.7675395943355
 30
0.0
 10
-119.1583480823331
 20
14.84171795194544
 30
0.0
 10
-118.6757179162619
 20
14.95345647117599
 30
0.0
 10
-118.2182558374038
 20
15.12022021674698
 30
0.0
 10
-117.7813029854934
 20
15.32868892132226
 30
0.0
 10
-117.3680697814553
 20
15.58543062952034
 30
0.0
 10
-116.9786950987477
 20
15.8900210558399
 30
0.0
 10
-116.6154124543823
 20
16.23465952636255
 30
0.0
 10
-116.2862774988014
 20
16.61176960373849
 30
0.0
 10
-115.9957513404363
 20
17.01015295873746
 30
0.0
 10
-115.7506860810453
 20
17.42676629286958
 30
0.0
 10
-115.5510727541683
 20
17.86180459001752
 30
0.0
 10
-115.39370562589
 20
18.31256419304601
 30
0.0
 10
-115.2827009969795
 20
18.78179035797948
 30
0.0
 10
-115.2171279137774
 20
19.26835771011935
 30
0.0
 10
-115.207993964038
 20
19.59884398227492
 30
0.0
 10
-115.2033653846154
 20
19.76631610576922
 30
0.0
  0
LINE
  5
FB
330
1F
100
AcDbEntity
  8
0
  6
Continuous
 62
     7
370
    25
100
AcDbLine
 10
-99.5725961538
 20
18.8428185096
 30
0.0
 11
-99.5725961538
 21
24.525
 31
0.0
  0
LINE
  5
FC
330
1F
100
AcDbEntity
  8
0
  6
Continuous
 62
     7
370
    25
100
AcDbLine
 10
-99.5725961538
 20
24.525
 30
0.0
 11
-101.2822115385
 21
24.525
 31
0.0
  0
LINE
  5
FD
330
1F
100
AcDbEntity
  8
0
  6
Continuous
 62
     7
370
    25
100
AcDbLine
 10
-101.2822115385
 20
24.525
 30
0.0
 11
-101.2822115385
 21
18.3276442308
 31
0.0
  0
SPLINE
  5
FE
330
1F
100
AcDbEntity
  8
0
  6
Continuous
 62
     7
370
    25
100
AcDbSpline
210
0.0
220
0.0
230
1.0
 70
     8
 71
     3
 72
    23
 73
    19
 74
     0
 42
0.000000001
 43
0.00000001
 40
0.0
 40
0.0
 40
0.0
 40
0.0
 40
0.0722187479928818
 40
0.1394897657276688
 40
0.2003699977303419
 40
0.2564327255100088
 40
0.3078035215508919
 40
0.3536585165318474
 40
0.3944199056460611
 40
0.4301557059443439
 40
0.4966662725087392
 40
0.5620176176150531
 40
0.6287545482746055
 40
0.6974096406803585
 40
0.7680791946526345
 40
0.8413381260898104
 40
0.9183362465478062
 40
0.9999999999999999
 40
0.9999999999999999
 40
0.9999999999999999
 40
0.9999999999999999
 10
-101.2822115384616
 20
18.32764423076922
 30
0.0
 10
-101.2823044989094
 20
18.26339273417924
 30
0.0
 10
-101.2824840510541
 20
18.13929163223446
 30
0.0
 10
-101.2914725254523
 20
17.96124718220486
 30
0.0
 10
-101.2996975993904
 20
17.79758705404944
 30
0.0
 10
-101.3145379673379
 20
17.64849042063742
 30
0.0
 10
-101.3364622773985
 20
17.51389350375538
 30
0.0
 10
-101.3576921634986
 20
17.39293170063457
 30
0.0
 10
-101.3864247150073
 20
17.28777069559977
 30
0.0
 10
-101.4296051462537
 20
17.16806994004522
 30
0.0
 10
-101.4961320159542
 20
17.03357960306734
 30
0.0
 10
-101.6048332298369
 20
16.8934106884852
 30
0.0
 10
-101.7302651315709
 20
16.7654862092332
 30
0.0
 10
-101.8806024902578
 20
16.65900671963562
 30
0.0
 10
-102.0495683861345
 20
16.57287440988067
 30
0.0
 10
-102.2362344266458
 20
16.50905990039413
 30
0.0
 10
-102.440337479119
 20
16.47358750615687
 30
0.0
 10
-102.5814635438511
 20
16.46817199539469
 30
0.0
 10
-102.6541015625
 20
16.4653846153846
 30
0.0
  0
SPLINE
  5
FF
330
1F
100
AcDbEntity
  8
0
  6
Continuous
 62
     7
370
    25
100
AcDbSpline
210
0.0
220
0.0
230
1.0
 70
     8
 71
     3
 72
    23
 73
    19
 74
     0
 42
0.000000001
 43
0.00000001
 40
0.0
 40
0.0
 40
0.0
 40
0.0
 40
0.0788326040104727
 40
0.1537102312098453
 40
0.2246777586657779
 40
0.2948087751910984
 40
0.36271478682946
 40
0.4271032430309832
 40
0.488649765551412
 40
0.5509002465387035
 40
0.5850458333883327
 40
0.6252721895341637
 40
0.6714658644313032
 40
0.7245499928849675
 40
0.7832647317228381
 40
0.849073130859845
 40
0.9212962952783859
 40
1.0
 40
1.0
 40
1.0
 40
1.0
 10
-102.6541015625
 20
16.4653846153846
 30
0.0
 10
-102.7312704933288
 20
16.46763646060116
 30
0.0
 10
-102.8817368434996
 20
16.47202717752889
 30
0.0
 10
-103.0981587344033
 20
16.51512681729186
 30
0.0
 10
-103.2986748436999
 20
16.58375620442208
 30
0.0
 10
-103.4790395615175
 20
16.6817078302846
 30
0.0
 10
-103.6390733959238
 20
16.79912002051686
 30
0.0
 10
-103.7745386832862
 20
16.93300671073316
 30
0.0
 10
-103.8814473904744
 20
17.08363493821416
 30
0.0
 10
-103.9511265083502
 20
17.22260094845216
 30
0.0
 10
-103.9902479016191
 20
17.3505070593941
 30
0.0
 10
-104.0195713347465
 20
17.46478631593816
 30
0.0
 10
-104.0410686551872
 20
17.59962452666222
 30
0.0
 10
-104.0605717308443
 20
17.75291590204366
 30
0.0
 10
-104.0722915768763
 20
17.92624824571763
 30
0.0
 10
-104.0849998393061
 20
18.11822759637077
 30
0.0
 10
-104.0896575353624
 20
18.33016752819104
 30
0.0
 10
-104.0904514057216
 20
18.47774528042906
 30
0.0
 10
-104.0908653846154
 20
18.55470252403845
 30
0.0
  0
LINE
  5
100
330
1F
100
AcDbEntity
  8
0
  6
Continuous
 62
     7
370
    25
100
AcDbLine
 10
-104.0908653846
 20
18.554702524
 30
0.0
 11
-104.0908653846
 21
24.525
 31
0.0
  0
LINE
  5
101
330
1F
100
AcDbEntity
  8
0
  6
Continuous
 62
     7
370
    25
100
AcDbLine
 10
-104.0908653846
 20
24.525
 30
0.0
 11
-105.8004807692
 21
24.525
 31
0.0
  0
LINE
  5
102
330
1F
100
AcDbEntity
  8
0
  6
Continuous
 62
     7
370
    25
100
AcDbLine
 10
-105.8004807692
 20
24.525
 30
0.0
 11
-105.8004807692
 21
18.8428185096
 31
0.0
  0
SPLINE
  5
103
330
1F
100
AcDbEntity
  8
0
  6
Continuous
 62
     7
370
    25
100
AcDbSpline
210
0.0
220
0.0
230
1.0
 70
     8
 71
     3
 72
    27
 73
    23
 74
     0
 42
0.000000001
 43
0.00000001
 40
0.0
 40
0.0
 40
0.0
 40
0.0
 40
0.0585404168084439
 40
0.1125675123403489
 40
0.1617798781047811
 40
0.2064871555823917
 40
0.246457029948099
 40
0.2819997074061426
 40
0.3132129382361468
 40
0.3398064735188111
 40
0.3894126122316836
 40
0.4404734799435064
 40
0.4939547398756063
 40
0.5499778768088333
 40
0.6064880836267162
 40
0.6613185000989842
 40
0.7146910989596511
 40
0.7679184713297984
 40
0.8219387900584592
 40
0.8781073740704579
 40
0.9372026550360465
 40
0.9999999999999999
 40
0.9999999999999999
 40
0.9999999999999999
 40
0.9999999999999999
 10
-105.8004807692308
 20
18.84281850961537
 30
0.0
 10
-105.8002433580605
 20
18.72769778424421
 30
0.0
 10
-105.7997868395336
 20
18.50633185655954
 30
0.0
 10
-105.7927760912696
 20
18.18821344043705
 30
0.0
 10
-105.7778514764027
 20
17.89766329586583
 30
0.0
 10
-105.7653165214199
 20
17.63459652472167
 30
0.0
 10
-105.7410570908568
 20
17.39936752144158
 30
0.0
 10
-105.7157844552084
 20
17.19097179108268
 30
0.0
 10
-105.6835723067767
 20
17.01014784089595
 30
0.0
 10
-105.6356425668237
 20
16.80430174846304
 30
0.0
 10
-105.552930025084
 20
16.56727751160289
 30
0.0
 10
-105.419586564063
 20
16.29435437789177
 30
0.0
 10
-105.2503156707726
 20
16.02714609819061
 30
0.0
 10
-105.0502459343325
 20
15.76859214787026
 30
0.0
 10
-104.8243489010044
 20
15.52840386044529
 30
0.0
 10
-104.577633191482
 20
15.31754963364542
 30
0.0
 10
-104.3140185050633
 20
15.13918969492095
 30
0.0
 10
-104.0307502572641
 20
14.99768515972836
 30
0.0
 10
-103.7280695238265
 20
14.8873222898744
 30
0.0
 10
-103.4029815048294
 20
14.8131639999856
 30
0.0
 10
-103.0557078846276
 20
14.76306172849717
 30
0.0
 10
-102.8158394312982
 20
14.75824878877259
 30
0.0
 10
-102.6922626201924
 20
14.75576923076922
 30
0.0
  0
SPLINE
  5
104
330
1F
100
AcDbEntity
  8
0
  6
Continuous
 62
     7
370
    25
100
AcDbSpline
210
0.0
220
0.0
230
1.0
 70
     8
 71
     3
 72
    31
 73
    27
 74
     0
 42
0.000000001
 43
0.00000001
 40
0.0
 40
0.0
 40
0.0
 40
0.0
 40
0.0417149324333612
 40
0.0823027059399543
 40
0.1215718144257373
 40
0.1600671244574477
 40
0.1979937629052245
 40
0.2355661717952775
 40
0.2730048805336456
 40
0.3100903331095227
 40
0.3468461432534299
 40
0.3824835718335576
 40
0.4172710082891841
 40
0.4513316191888083
 40
0.484852741322247
 40
0.5180308512419192
 40
0.5510685457911262
 40
0.5841710000647795
 40
0.6194667444415162
 40
0.6591579072517054
 40
0.7034715469577032
 40
0.7528401139219639
 40
0.8068443124206157
 40
0.8661419381570222
 40
0.9305017472849206
 40
1.0
 40
1.0
 40
1.0
 40
1.0
 10
-102.6922626201924
 20
14.75576923076922
 30
0.0
 10
-102.6101557284709
 20
14.75715221292059
 30
0.0
 10
-102.4481605154667
 20
14.75988080833439
 30
0.0
 10
-102.2099181358556
 20
14.78393989249303
 30
0.0
 10
-101.9796100761319
 20
14.8193939359554
 30
0.0
 10
-101.7576690834365
 20
14.8711177343734
 30
0.0
 10
-101.5433248420777
 20
14.9379352211829
 30
0.0
 10
-101.336634298356
 20
15.02018289414262
 30
0.0
 10
-101.1383655641447
 20
15.1174019861345
 30
0.0
 10
-100.9496281235982
 20
15.22869829188294
 30
0.0
 10
-100.770654234193
 20
15.34904608746613
 30
0.0
 10
-100.6070813377075
 20
15.48245668489415
 30
0.0
 10
-100.4532805068203
 20
15.61906386675856
 30
0.0
 10
-100.3136949834052
 20
15.76461664311379
 30
0.0
 10
-100.1872763558443
 20
15.91758695808377
 30
0.0
 10
-100.0742849835587
 20
16.07832149246626
 30
0.0
 10
-99.97488873395373
 20
16.24680596937102
 30
0.0
 10
-99.88658734907948
 20
16.42607731123383
 30
0.0
 10
-99.81100998181651
 20
16.62524723358405
 30
0.0
 10
-99.74729542204007
 20
16.85140029231406
 30
0.0
 10
-99.69163288323934
 20
17.10808121092384
 30
0.0
 10
-99.65026776877471
 20
17.3958682778299
 30
0.0
 10
-99.61276591305275
 20
17.71381297892541
 30
0.0
 10
-99.58902930607933
 20
18.06274360872513
 30
0.0
 10
-99.57661161849272
 20
18.44267017828918
 30
0.0
 10
-99.57396846322038
 20
18.70606539273054
 30
0.0
 10
-99.57259615384619
 20
18.84281850961537
 30
0.0
  0
LINE
  5
105
330
1F
100
AcDbEntity
  8
0
  6
Continuous
 62
     7
370
    25
100
AcDbLine
 10
-82.5718449519
 20
19.9208683894
 30
0.0
 11
-79.5742938702
 21
24.525
 31
0.0
  0
LINE
  5
106
330
1F
100
AcDbEntity
  8
0
  6
Continuous
 62
     7
370
    25
100
AcDbLine
 10
-79.5742938702
 20
24.525
 30
0.0
 11
-81.5891977163
 21
24.525
 31
0.0
  0
LINE
  5
107
330
1F
100
AcDbEntity
  8
0
  6
Continuous
 62
     7
370
    25
100
AcDbLine
 10
-81.5891977163
 20
24.525
 30
0.0
 11
-83.579296875
 21
21.466391226
 31
0.0
  0
LINE
  5
108
330
1F
100
AcDbEntity
  8
0
  6
Continuous
 62
     7
370
    25
100
AcDbLine
 10
-83.579296875
 20
21.466391226
 30
0.0
 11
-85.5732121394
 21
24.525
 31
0.0
  0
LINE
  5
109
330
1F
100
AcDbEntity
  8
0
  6
Continuous
 62
     7
370
    25
100
AcDbLine
 10
-85.5732121394
 20
24.525
 30
0.0
 11
-87.5900240385
 21
24.525
 31
0.0
  0
LINE
  5
10A
330
1F
100
AcDbEntity
  8
0
  6
Continuous
 62
     7
370
    25
100
AcDbLine
 10
-87.5900240385
 20
24.525
 30
0.0
 11
-84.5867487981
 21
19.9189603365
 31
0.0
  0
LINE
  5
10B
330
1F
100
AcDbEntity
  8
0
  6
Continuous
 62
     7
370
    25
100
AcDbLine
 10
-84.5867487981
 20
19.9189603365
 30
0.0
 11
-87.7884615385
 21
15.0
 31
0.0
  0
LINE
  5
10C
330
1F
100
AcDbEntity
  8
0
  6
Continuous
 62
     7
370
    25
100
AcDbLine
 10
-87.7884615385
 20
15.0
 30
0.0
 11
-85.7735576923
 21
15.0
 31
0.0
  0
LINE
  5
10D
330
1F
100
AcDbEntity
  8
0
  6
Continuous
 62
     7
370
    25
100
AcDbLine
 10
-85.7735576923
 20
15.0
 30
0.0
 11
-83.579296875
 21
18.3734375
 31
0.0
  0
LINE
  5
10E
330
1F
100
AcDbEntity
  8
0
  6
Continuous
 62
     7
370
    25
100
AcDbLine
 10
-83.579296875
 20
18.3734375
 30
0.0
 11
-81.379311899
 21
15.0
 31
0.0
  0
LINE
  5
10F
330
1F
100
AcDbEntity
  8
0
  6
Continuous
 62
     7
370
    25
100
AcDbLine
 10
-81.379311899
 20
15.0
 30
0.0
 11
-79.3625
 21
15.0
 31
0.0
  0
LINE
  5
110
330
1F
100
AcDbEntity
  8
0
  6
Continuous
 62
     7
370
    25
100
AcDbLine
 10
-79.3625
 20
15.0
 30
0.0
 11
-82.5718449519
 21
19.9208683894
 31
0.0
  0
LINE
  5
111
330
1F
100
AcDbEntity
  8
0
  6
Continuous
 62
     7
370
    25
100
AcDbLine
 10
-70.0206730769
 20
22.8153846154
 30
0.0
 11
-70.0206730769
 21
24.525
 31
0.0
  0
LINE
  5
112
330
1F
100
AcDbEntity
  8
0
  6
Continuous
 62
     7
370
    25
100
AcDbLine
 10
-70.0206730769
 20
24.525
 30
0.0
 11
-75.1495192308
 21
24.525
 31
0.0
  0
LINE
  5
113
330
1F
100
AcDbEntity
  8
0
  6
Continuous
 62
     7
370
    25
100
AcDbLine
 10
-75.1495192308
 20
24.525
 30
0.0
 11
-75.1495192308
 21
22.8153846154
 31
0.0
  0
LINE
  5
114
330
1F
100
AcDbEntity
  8
0
  6
Continuous
 62
     7
370
    25
100
AcDbLine
 10
-75.1495192308
 20
22.8153846154
 30
0.0
 11
-73.4399038462
 21
22.8153846154
 31
0.0
  0
LINE
  5
115
330
1F
100
AcDbEntity
  8
0
  6
Continuous
 62
     7
370
    25
100
AcDbLine
 10
-73.4399038462
 20
22.8153846154
 30
0.0
 11
-73.4399038462
 21
15.0
 31
0.0
  0
LINE
  5
116
330
1F
100
AcDbEntity
  8
0
  6
Continuous
 62
     7
370
    25
100
AcDbLine
 10
-73.4399038462
 20
15.0
 30
0.0
 11
-71.7302884615
 21
15.0
 31
0.0
  0
LINE
  5
117
330
1F
100
AcDbEntity
  8
0
  6
Continuous
 62
     7
370
    25
100
AcDbLine
 10
-71.7302884615
 20
15.0
 30
0.0
 11
-71.7302884615
 21
22.8153846154
 31
0.0
  0
LINE
  5
118
330
1F
100
AcDbEntity
  8
0
  6
Continuous
 62
     7
370
    25
100
AcDbLine
 10
-71.7302884615
 20
22.8153846154
 30
0.0
 11
-70.0206730769
 21
22.8153846154
 31
0.0
  0
LINE
  5
119
330
1F
100
AcDbEntity
  8
0
  6
Continuous
 62
     7
370
    25
100
AcDbLine
 10
-54.8707331731
 20
15.0
 30
0.0
 11
-52.1918269231
 21
15.0
 31
0.0
  0
LINE
  5
11A
330
1F
100
AcDbEntity
  8
0
  6
Continuous
 62
     7
370
    25
100
AcDbLine
 10
-52.1918269231
 20
15.0
 30
0.0
 11
-52.1918269231
 21
24.525
 31
0.0
  0
LINE
  5
11B
330
1F
100
AcDbEntity
  8
0
  6
Continuous
 62
     7
370
    25
100
AcDbLine
 10
-52.1918269231
 20
24.525
 30
0.0
 11
-53.7182692308
 21
24.525
 31
0.0
  0
SPLINE
  5
11C
330
1F
100
AcDbEntity
  8
0
  6
Continuous
 62
     7
370
    25
100
AcDbSpline
210
0.0
220
0.0
230
1.0
 70
     8
 71
     3
 72
    15
 73
    11
 74
     0
 42
0.000000001
 43
0.00000001
 40
0.0
 40
0.0
 40
0.0
 40
0.0
 40
0.163995731806073
 40
0.317328631958716
 40
0.4580598946275438
 40
0.5891583945859021
 40
0.7079520097453093
 40
0.8163219998754464
 40
0.9135847296003146
 40
1.0
 40
1.0
 40
1.0
 40
1.0
 10
-53.71826923076927
 20
24.525
 30
0.0
 10
-53.82512973672921
 20
24.52501219542836
 30
0.0
 10
-54.03190278986443
 20
24.52503579335104
 30
0.0
 10
-54.33022234265577
 20
24.51455979007597
 30
0.0
 10
-54.60688853402228
 20
24.50100790622992
 30
0.0
 10
-54.86102090491586
 20
24.48584649960516
 30
0.0
 10
-55.09305200623317
 20
24.45972036675897
 30
0.0
 10
-55.30262899684332
 20
24.43218627654672
 30
0.0
 10
-55.49017061284149
 20
24.39898186084013
 30
0.0
 10
-55.6061174030888
 20
24.3691964712074
 30
0.0
 10
-55.66066706730774
 20
24.35518329326923
 30
0.0
  0
SPLINE
  5
11D
330
1F
100
AcDbEntity
  8
0
  6
Continuous
 62
     7
370
    25
100
AcDbSpline
210
0.0
220
0.0
230
1.0
 70
     8
 71
     3
 72
    23
 73
    19
 74
     0
 42
0.000000001
 43
0.00000001
 40
0.0
 40
0.0
 40
0.0
 40
0.0
 40
0.0687497663152837
 40
0.1349091121452274
 40
0.1997210700545275
 40
0.262973674636945
 40
0.3253570233490407
 40
0.3873361409887314
 40
0.4494074874297899
 40
0.5111175193516624
 40
0.5724725853513689
 40
0.633077171967721
 40
0.6928610080890993
 40
0.7525606967546158
 40
0.8127375856307913
 40
0.8734793127278786
 40
0.9357764600655797
 40
1.0
 40
1.0
 40
1.0
 40
1.0
 10
-55.66066706730773
 20
24.35518329326922
 30
0.0
 10
-55.732296314843
 20
24.3354174561822
 30
0.0
 10
-55.87285589353738
 20
24.29663053842035
 30
0.0
 10
-56.07418206591151
 20
24.21829868174472
 30
0.0
 10
-56.2651680238481
 20
24.13122726937444
 30
0.0
 10
-56.44558057872621
 20
24.03189507280619
 30
0.0
 10
-56.61431192558386
 20
23.91910287409131
 30
0.0
 10
-56.77072082783281
 20
23.79195552039428
 30
0.0
 10
-56.91818063847327
 20
23.65555670102844
 30
0.0
 10
-57.0514553962762
 20
23.50610501959104
 30
0.0
 10
-57.17191381867324
 20
23.34818163379872
 30
0.0
 10
-57.2765705905742
 20
23.18182792388313
 30
0.0
 10
-57.36750391152255
 20
23.00958754666012
 30
0.0
 10
-57.44027438661932
 20
22.8292929715031
 30
0.0
 10
-57.49510557246315
 20
22.6417745037125
 30
0.0
 10
-57.53520887303085
 20
22.44783287617046
 30
0.0
 10
-57.56120124227305
 20
22.2468544098317
 30
0.0
 10
-57.56365718023018
 20
22.11012219025391
 30
0.0
 10
-57.56490384615388
 20
22.04071514423077
 30
0.0
  0
SPLINE
  5
11E
330
1F
100
AcDbEntity
  8
0
  6
Continuous
 62
     7
370
    25
100
AcDbSpline
210
0.0
220
0.0
230
1.0
 70
     8
 71
     3
 72
    15
 73
    11
 74
     0
 42
0.000000001
 43
0.00000001
 40
0.0
 40
0.0
 40
0.0
 40
0.0
 40
0.1232695606004615
 40
0.2426409842839845
 40
0.3594273839391157
 40
0.4755502191345232
 40
0.5938976740482412
 40
0.7202015971643233
 40
0.8544653148776612
 40
1.0
 40
1.0
 40
1.0
 40
1.0
 10
-57.56490384615388
 20
22.04071514423077
 30
0.0
 10
-57.56164418509734
 20
21.95154530833324
 30
0.0
 10
-57.55522794281222
 20
21.77602544239696
 30
0.0
 10
-57.5142405501369
 20
21.51821851458663
 30
0.0
 10
-57.43738280281682
 20
21.27455391235742
 30
0.0
 10
-57.33681630972718
 20
21.04054098900772
 30
0.0
 10
-57.20007732046444
 20
20.81705261443832
 30
0.0
 10
-57.02644524969279
 20
20.60419505116545
 30
0.0
 10
-56.81873236823152
 20
20.39541409570794
 30
0.0
 10
-56.65940512173074
 20
20.2702639959355
 30
0.0
 10
-56.57653245192311
 20
20.20516826923076
 30
0.0
  0
SPLINE
  5
11F
330
1F
100
AcDbEntity
  8
0
  6
Continuous
 62
     7
370
    25
100
AcDbSpline
210
0.0
220
0.0
230
1.0
 70
     8
 71
     3
 72
    23
 73
    19
 74
     0
 42
0.000000001
 43
0.00000001
 40
0.0
 40
0.0
 40
0.0
 40
0.0
 40
0.0727911822673706
 40
0.1427233695565053
 40
0.2094912699928586
 40
0.2747163184918676
 40
0.3368863886768218
 40
0.3976856020239924
 40
0.4570537497761162
 40
0.5153125941662592
 40
0.5728222022221215
 40
0.6307760073985107
 40
0.689505494708953
 40
0.7487432781628013
 40
0.8092253247292985
 40
0.8707153202239957
 40
0.934265249324462
 40
1.0
 40
1.0
 40
1.0
 40
1.0
 10
-56.57653245192311
 20
20.20516826923076
 30
0.0
 10
-56.64368848781635
 20
20.1708856952885
 30
0.0
 10
-56.77536289438849
 20
20.10366705262189
 30
0.0
 10
-56.96230186800998
 20
19.99317967000387
 30
0.0
 10
-57.13538695160168
 20
19.87566232586082
 30
0.0
 10
-57.29539420619055
 20
19.7534795164229
 30
0.0
 10
-57.43896729649566
 20
19.62145173534793
 30
0.0
 10
-57.57203459647195
 20
19.48718660469173
 30
0.0
 10
-57.68803125621029
 20
19.34299129083993
 30
0.0
 10
-57.79175896542544
 20
19.1940051893641
 30
0.0
 10
-57.88191740432703
 20
19.03807096424461
 30
0.0
 10
-57.96043546277823
 20
18.87545195325188
 30
0.0
 10
-58.02675685029028
 20
18.70559261444996
 30
0.0
 10
-58.08291951661192
 20
18.529357394347
 30
0.0
 10
-58.12480564804565
 20
18.34614012623903
 30
0.0
 10
-58.152116296476
 20
18.15587528401312
 30
0.0
 10
-58.17302703600566
 20
17.95921176753351
 30
0.0
 10
-58.17465369501875
 20
17.82524949126305
 30
0.0
 10
-58.17548076923081
 20
17.75713641826922
 30
0.0
  0
SPLINE
  5
120
330
1F
100
AcDbEntity
  8
0
  6
Continuous
 62
     7
370
    25
100
AcDbSpline
210
0.0
220
0.0
230
1.0
 70
     8
 71
     3
 72
    23
 73
    19
 74
     0
 42
0.000000001
 43
0.00000001
 40
0.0
 40
0.0
 40
0.0
 40
0.0
 40
0.0802588853381372
 40
0.1583905883453951
 40
0.2362576248303793
 40
0.3151047653520851
 40
0.3932216786245969
 40
0.4687312831158784
 40
0.5427812639155807
 40
0.617708169339551
 40
0.6563652025204884
 40
0.6970796727899441
 40
0.740696949681166
 40
0.7867286654533119
 40
0.8355790921841482
 40
0.8872495053564253
 40
0.941897666836158
 40
1.0
 40
1.0
 40
1.0
 40
1.0
 10
-58.17548076923081
 20
17.75713641826922
 30
0.0
 10
-58.17011361038625
 20
17.62704434326135
 30
0.0
 10
-58.15952154393093
 20
17.37030815495325
 30
0.0
 10
-58.08207752236986
 20
16.99336046704595
 30
0.0
 10
-57.9478141966026
 20
16.63597986978016
 30
0.0
 10
-57.76752623610774
 20
16.29958674664262
 30
0.0
 10
-57.54537678097369
 20
15.99391912627213
 30
0.0
 10
-57.28996861292532
 20
15.72615694453606
 30
0.0
 10
-57.00387310639906
 20
15.4995022020715
 30
0.0
 10
-56.73991542236895
 20
15.3465278342007
 30
0.0
 10
-56.51161281257212
 20
15.24386772839247
 30
0.0
 10
-56.32251402640816
 20
15.18039677711729
 30
0.0
 10
-56.11942593831078
 20
15.12159738377234
 30
0.0
 10
-55.89862846226583
 20
15.08030723568051
 30
0.0
 10
-55.66412435539907
 20
15.04251395178709
 30
0.0
 10
-55.41362718784044
 20
15.01917959547751
 30
0.0
 10
-55.14760513427089
 20
15.00336647715641
 30
0.0
 10
-54.96488968859656
 20
15.00114484600483
 30
0.0
 10
-54.87073317307696
 20
15.0
 30
0.0
  0
LINE
  5
121
330
1F
100
AcDbEntity
  8
0
  6
Continuous
 62
     7
370
    25
100
AcDbLine
 10
-33.3860576923
 20
15.0
 30
0.0
 11
-33.3860576923
 21
24.525
 31
0.0
  0
LINE
  5
122
330
1F
100
AcDbEntity
  8
0
  6
Continuous
 62
     7
370
    25
100
AcDbLine
 10
-33.3860576923
 20
24.525
 30
0.0
 11
-35.3780649038
 21
24.525
 31
0.0
  0
SPLINE
  5
123
330
1F
100
AcDbEntity
  8
0
  6
Continuous
 62
     7
370
    25
100
AcDbSpline
210
0.0
220
0.0
230
1.0
 70
     8
 71
     3
 72
    31
 73
    27
 74
     0
 42
0.000000001
 43
0.00000001
 40
0.0
 40
0.0
 40
0.0
 40
0.0
 40
0.0728890266200379
 40
0.1401861299444941
 40
0.2022774341249595
 40
0.2588951317514628
 40
0.3104829424654789
 40
0.3570952441313355
 40
0.3985135666534659
 40
0.4350375108701159
 40
0.4692514858292883
 40
0.5028050278902749
 40
0.5362104463185625
 40
0.5693793599392059
 40
0.602801475048394
 40
0.6366657983367767
 40
0.6709286568940431
 40
0.7058030002293126
 40
0.741189061245878
 40
0.7763043110764618
 40
0.8120043009129353
 40
0.8479689758088957
 40
0.8845217611964792
 40
0.9219741585442047
 40
0.960198175809608
 40
1.0
 40
1.0
 40
1.0
 40
1.0
 10
-35.37806490384619
 20
24.52499999999999
 30
0.0
 10
-35.50973597416935
 20
24.52453264326867
 30
0.0
 10
-35.76297653218195
 20
24.52363378462692
 30
0.0
 10
-36.12813558506721
 20
24.50945217620511
 30
0.0
 10
-36.46358439270679
 20
24.48971730410544
 30
0.0
 10
-36.76981961740185
 20
24.45960136548308
 30
0.0
 10
-37.04671024667641
 20
24.41967127118455
 30
0.0
 10
-37.29453378965842
 20
24.37260029756312
 30
0.0
 10
-37.51328300271026
 20
24.31895283138766
 30
0.0
 10
-37.70480273333369
 20
24.25210385588013
 30
0.0
 10
-37.87763981976045
 20
24.17669922499619
 30
0.0
 10
-38.03874801326964
 20
24.09005792144474
 30
0.0
 10
-38.19168160018549
 20
23.99314472354164
 30
0.0
 10
-38.33541838465259
 20
23.8834095827257
 30
0.0
 10
-38.47120747312206
 20
23.76282660714582
 30
0.0
 10
-38.59930503985043
 20
23.63127441819695
 30
0.0
 10
-38.71790094748937
 20
23.487637507499
 30
0.0
 10
-38.82626084536466
 20
23.33282347804899
 30
0.0
 10
-38.92502216986926
 20
23.16996266916643
 30
0.0
 10
-39.01230646692253
 20
22.9988314718978
 30
0.0
 10
-39.08328620236206
 20
22.81931087589341
 30
0.0
 10
-39.14600440748191
 20
22.63399534187974
 30
0.0
 10
-39.19117829877561
 20
22.44023574794162
 30
0.0
 10
-39.22259607933371
 20
22.2399183764335
 30
0.0
 10
-39.24559894919289
 20
22.0323380889394
 30
0.0
 10
-39.24692150423783
 20
21.89131725807511
 30
0.0
 10
-39.2475961538462
 20
21.81938100961538
 30
0.0
  0
SPLINE
  5
124
330
1F
100
AcDbEntity
  8
0
  6
Continuous
 62
     7
370
    25
100
AcDbSpline
210
0.0
220
0.0
230
1.0
 70
     8
 71
     3
 72
    23
 73
    19
 74
     0
 42
0.000000001
 43
0.00000001
 40
0.0
 40
0.0
 40
0.0
 40
0.0
 40
0.0687412630793657
 40
0.1347890881950334
 40
0.1985360495606907
 40
0.2603856506059203
 40
0.3209615782321958
 40
0.379903849584149
 40
0.4385029357752673
 40
0.496154343976268
 40
0.5542654832084989
 40
0.6127487608156933
 40
0.672513442526178
 40
0.7336464018979724
 40
0.7967896194814541
 40
0.8619356990410235
 40
0.929397734774898
 40
1.0
 40
1.0
 40
1.0
 40
1.0
 10
-39.2475961538462
 20
21.81938100961538
 30
0.0
 10
-39.24584365677666
 20
21.74429609159771
 30
0.0
 10
-39.24240732943142
 20
21.59706825225593
 30
0.0
 10
-39.22389740091128
 20
21.38080256410172
 30
0.0
 10
-39.19006706612466
 20
21.17389468080753
 30
0.0
 10
-39.13882610242107
 20
20.97695040320029
 30
0.0
 10
-39.07993127026555
 20
20.78751853014498
 30
0.0
 10
-39.00161625087115
 20
20.60909419815432
 30
0.0
 10
-38.91323001109253
 20
20.43908248380879
 30
0.0
 10
-38.80825625648102
 20
20.27988826724547
 30
0.0
 10
-38.69305268911322
 20
20.12797552686026
 30
0.0
 10
-38.55907336363811
 20
19.98916460330517
 30
0.0
 10
-38.41499808236532
 20
19.85599493503132
 30
0.0
 10
-38.25272784902159
 20
19.7368078182574
 30
0.0
 10
-38.07941568623117
 20
19.62354425083412
 30
0.0
 10
-37.89161806366341
 20
19.52089729551152
 30
0.0
 10
-37.6905606130093
 20
19.42628664418154
 30
0.0
 10
-37.54920726820792
 20
19.37352520962423
 30
0.0
 10
-37.47692307692311
 20
19.34654447115384
 30
0.0
  0
LINE
  5
125
330
1F
100
AcDbEntity
  8
0
  6
Continuous
 62
     7
370
    25
100
AcDbLine
 10
-37.4769230769
 20
19.3465444712
 30
0.0
 11
-39.675
 21
15.0
 31
0.0
  0
LINE
  5
126
330
1F
100
AcDbEntity
  8
0
  6
Continuous
 62
     7
370
    25
100
AcDbLine
 10
-39.675
 20
15.0
 30
0.0
 11
-37.7745793269
 21
15.0
 31
0.0
  0
LINE
  5
127
330
1F
100
AcDbEntity
  8
0
  6
Continuous
 62
     7
370
    25
100
AcDbLine
 10
-37.7745793269
 20
15.0
 30
0.0
 11
-35.6757211538
 21
19.1519230769
 31
0.0
  0
LINE
  5
128
330
1F
100
AcDbEntity
  8
0
  6
Continuous
 62
     7
370
    25
100
AcDbLine
 10
-35.6757211538
 20
19.1519230769
 30
0.0
 11
-35.0956730769
 21
19.1519230769
 31
0.0
  0
LINE
  5
129
330
1F
100
AcDbEntity
  8
0
  6
Continuous
 62
     7
370
    25
100
AcDbLine
 10
-35.0956730769
 20
19.1519230769
 30
0.0
 11
-35.0956730769
 21
15.0
 31
0.0
  0
LINE
  5
12A
330
1F
100
AcDbEntity
  8
0
  6
Continuous
 62
     7
370
    25
100
AcDbLine
 10
-35.0956730769
 20
15.0
 30
0.0
 11
-33.3860576923
 21
15.0
 31
0.0
  0
LINE
  5
12B
330
1F
100
AcDbEntity
  8
0
  6
Continuous
 62
     7
370
    25
100
AcDbLine
 10
-15.8625
 20
15.0
 30
0.0
 11
-19.7110426683
 21
24.525
 31
0.0
  0
LINE
  5
12C
330
1F
100
AcDbEntity
  8
0
  6
Continuous
 62
     7
370
    25
100
AcDbLine
 10
-19.7110426683
 20
24.525
 30
0.0
 11
-21.2966346154
 21
24.525
 31
0.0
  0
LINE
  5
12D
330
1F
100
AcDbEntity
  8
0
  6
Continuous
 62
     7
370
    25
100
AcDbLine
 10
-21.2966346154
 20
24.525
 30
0.0
 11
-25.1432692308
 21
15.0
 31
0.0
  0
LINE
  5
12E
330
1F
100
AcDbEntity
  8
0
  6
Continuous
 62
     7
370
    25
100
AcDbLine
 10
-25.1432692308
 20
15.0
 30
0.0
 11
-23.3172626202
 21
15.0
 31
0.0
  0
LINE
  5
12F
330
1F
100
AcDbEntity
  8
0
  6
Continuous
 62
     7
370
    25
100
AcDbLine
 10
-23.3172626202
 20
15.0
 30
0.0
 11
-22.576938101
 21
16.9538461538
 31
0.0
  0
LINE
  5
130
330
1F
100
AcDbEntity
  8
0
  6
Continuous
 62
     7
370
    25
100
AcDbLine
 10
-22.576938101
 20
16.9538461538
 30
0.0
 11
-18.4269230769
 21
16.9538461538
 31
0.0
  0
LINE
  5
131
330
1F
100
AcDbEntity
  8
0
  6
Continuous
 62
     7
370
    25
100
AcDbLine
 10
-18.4269230769
 20
16.9538461538
 30
0.0
 11
-17.6865985577
 21
15.0
 31
0.0
  0
LINE
  5
132
330
1F
100
AcDbEntity
  8
0
  6
Continuous
 62
     7
370
    25
100
AcDbLine
 10
-17.6865985577
 20
15.0
 30
0.0
 11
-15.8625
 21
15.0
 31
0.0
  0
LINE
  5
133
330
1F
100
AcDbEntity
  8
0
  6
Continuous
 62
     7
370
    25
100
AcDbLine
 10
-21.9301081731
 20
18.6634615385
 30
0.0
 11
-20.5028846154
 21
21.9701171875
 31
0.0
  0
LINE
  5
134
330
1F
100
AcDbEntity
  8
0
  6
Continuous
 62
     7
370
    25
100
AcDbLine
 10
-20.5028846154
 20
21.9701171875
 30
0.0
 11
-19.0756610577
 21
18.6634615385
 31
0.0
  0
LINE
  5
135
330
1F
100
AcDbEntity
  8
0
  6
Continuous
 62
     7
370
    25
100
AcDbLine
 10
-19.0756610577
 20
18.6634615385
 30
0.0
 11
-21.9301081731
 21
18.6634615385
 31
0.0
  0
LINE
  5
136
330
1F
100
AcDbEntity
  8
0
  6
Continuous
 62
     7
370
    25
100
AcDbLine
 10
-35.0956730769
 20
22.8153846154
 30
0.0
 11
-35.0956730769
 21
20.8615384615
 31
0.0
  0
LINE
  5
137
330
1F
100
AcDbEntity
  8
0
  6
Continuous
 62
     7
370
    25
100
AcDbLine
 10
-35.0956730769
 20
20.8615384615
 30
0.0
 11
-35.7615835337
 21
20.8615384615
 31
0.0
  0
SPLINE
  5
138
330
1F
100
AcDbEntity
  8
0
  6
Continuous
 62
     7
370
    25
100
AcDbSpline
210
0.0
220
0.0
230
1.0
 70
     8
 71
     3
 72
    23
 73
    19
 74
     0
 42
0.000000001
 43
0.00000001
 40
0.0
 40
0.0
 40
0.0
 40
0.0
 40
0.1055399964402594
 40
0.2020864154635893
 40
0.2906848989424215
 40
0.3705526096211925
 40
0.4426702615663773
 40
0.5076749275738744
 40
0.5655732034810482
 40
0.6164546657486232
 40
0.6633313570051053
 40
0.7088620244966136
 40
0.7534118003496278
 40
0.7985150107871096
 40
0.845064321440119
 40
0.893873119008405
 40
0.9447078060036525
 40
1.0
 40
1.0
 40
1.0
 40
1.0
 10
-35.76158353365388
 20
20.86153846153845
 30
0.0
 10
-35.8429966223759
 20
20.86245539046167
 30
0.0
 10
-35.99888519378558
 20
20.86421111232616
 30
0.0
 10
-36.22307343406496
 20
20.8723548780946
 30
0.0
 10
-36.42668982228729
 20
20.8919773294675
 30
0.0
 10
-36.61060875593823
 20
20.91676956341632
 30
0.0
 10
-36.77575569838066
 20
20.94539577784749
 30
0.0
 10
-36.92065759715001
 20
20.98641888114657
 30
0.0
 10
-37.04754716934344
 20
21.03037617480379
 30
0.0
 10
-37.15492076877939
 20
21.08500368821395
 30
0.0
 10
-37.24665830496119
 20
21.14712701917696
 30
0.0
 10
-37.32586779582714
 20
21.21770066745151
 30
0.0
 10
-37.39138540203077
 20
21.29938067901384
 30
0.0
 10
-37.44530973379317
 20
21.38994734349445
 30
0.0
 10
-37.48725700118293
 20
21.49020170074257
 30
0.0
 10
-37.51787529283079
 20
21.59904318507787
 30
0.0
 10
-37.53498639005785
 20
21.71771164101151
 30
0.0
 10
-37.53695508007888
 20
21.79960903387066
 30
0.0
 10
-37.53798076923081
 20
21.84227764423076
 30
0.0
  0
SPLINE
  5
139
330
1F
100
AcDbEntity
  8
0
  6
Continuous
 62
     7
370
    25
100
AcDbSpline
210
0.0
220
0.0
230
1.0
 70
     8
 71
     3
 72
    23
 73
    19
 74
     0
 42
0.000000001
 43
0.00000001
 40
0.0
 40
0.0
 40
0.0
 40
0.0
 40
0.0637689599577397
 40
0.1252623047603754
 40
0.1854135826663897
 40
0.2468067624960842
 40
0.309422388849697
 40
0.372532682217008
 40
0.4377332507368576
 40
0.5057495167426329
 40
0.5440132631112695
 40
0.588369599206631
 40
0.6403890193945105
 40
0.6978974005877072
 40
0.7632716192950972
 40
0.8349786038393139
 40
0.9138736558434369
 40
1.0
 40
1.0
 40
1.0
 40
1.0
 10
-37.53798076923081
 20
21.84227764423076
 30
0.0
 10
-37.53604160991362
 20
21.89275772525168
 30
0.0
 10
-37.53223249078219
 20
21.99191648991337
 30
0.0
 10
-37.49443419528608
 20
22.13467034168609
 30
0.0
 10
-37.43426747352591
 20
22.26679879850747
 30
0.0
 10
-37.35179537729015
 20
22.38770487127815
 30
0.0
 10
-37.24793249414483
 20
22.49369948104339
 30
0.0
 10
-37.12874164121531
 20
22.58713457368035
 30
0.0
 10
-36.99165039221266
 20
22.6610160537242
 30
0.0
 10
-36.86471421190623
 20
22.70974749131374
 30
0.0
 10
-36.74923195809524
 20
22.73890401313958
 30
0.0
 10
-36.64501286743642
 20
22.76063119535032
 30
0.0
 10
-36.52432653297545
 20
22.77602987301304
 30
0.0
 10
-36.3870818431272
 20
22.79236291167399
 30
0.0
 10
-36.2336286392767
 20
22.80295406048998
 30
0.0
 10
-36.06313050968138
 20
22.81068348805386
 30
0.0
 10
-35.87607712369971
 20
22.81384597659195
 30
0.0
 10
-35.74568314809786
 20
22.81485696845447
 30
0.0
 10
-35.67762920673081
 20
22.81538461538461
 30
0.0
  0
LINE
  5
13A
330
1F
100
AcDbEntity
  8
0
  6
Continuous
 62
     7
370
    25
100
AcDbLine
 10
-35.6776292067
 20
22.8153846154
 30
0.0
 11
-35.0956730769
 21
22.8153846154
 31
0.0
  0
LINE
  5
13B
330
1F
100
AcDbEntity
  8
0
  6
Continuous
 62
     7
370
    25
100
AcDbLine
 10
-54.4376051683
 20
22.8153846154
 30
0.0
 11
-53.9014423077
 21
22.8153846154
 31
0.0
  0
LINE
  5
13C
330
1F
100
AcDbEntity
  8
0
  6
Continuous
 62
     7
370
    25
100
AcDbLine
 10
-53.9014423077
 20
22.8153846154
 30
0.0
 11
-53.9014423077
 21
20.7394230769
 31
0.0
  0
LINE
  5
13D
330
1F
100
AcDbEntity
  8
0
  6
Continuous
 62
     7
370
    25
100
AcDbLine
 10
-53.9014423077
 20
20.7394230769
 30
0.0
 11
-54.3555588942
 21
20.7394230769
 31
0.0
  0
SPLINE
  5
13E
330
1F
100
AcDbEntity
  8
0
  6
Continuous
 62
     7
370
    25
100
AcDbSpline
210
0.0
220
0.0
230
1.0
 70
     8
 71
     3
 72
    19
 73
    15
 74
     0
 42
0.000000001
 43
0.00000001
 40
0.0
 40
0.0
 40
0.0
 40
0.0
 40
0.0887762289654537
 40
0.1713771372145541
 40
0.2481138113668455
 40
0.3211611878976172
 40
0.3880331325497749
 40
0.4520913744364374
 40
0.5122677074822249
 40
0.5688662368266963
 40
0.6769360002929834
 40
0.7810117272007095
 40
0.8869176462132621
 40
1.0
 40
1.0
 40
1.0
 40
1.0
 10
-54.35555889423081
 20
20.73942307692307
 30
0.0
 10
-54.41727741838548
 20
20.73996128580781
 30
0.0
 10
-54.53642129401521
 20
20.74100026548699
 30
0.0
 10
-54.70851198468659
 20
20.75438196297884
 30
0.0
 10
-54.86852853535577
 20
20.77721197011909
 30
0.0
 10
-55.01586403777706
 20
20.8090655730329
 30
0.0
 10
-55.15189097566707
 20
20.84951500442239
 30
0.0
 10
-55.27574036976057
 20
20.89818438163735
 30
0.0
 10
-55.38686767666692
 20
20.95756631190718
 30
0.0
 10
-55.51597190497039
 20
21.04601831750729
 30
0.0
 10
-55.65244438443639
 20
21.17617940382084
 30
0.0
 10
-55.77257957325529
 20
21.36422406124898
 30
0.0
 10
-55.84333839726179
 20
21.58047470182436
 30
0.0
 10
-55.85121902182259
 20
21.73299139805327
 30
0.0
 10
-55.85528846153851
 20
21.81174879807692
 30
0.0
  0
SPLINE
  5
13F
330
1F
100
AcDbEntity
  8
0
  6
Continuous
 62
     7
370
    25
100
AcDbSpline
210
0.0
220
0.0
230
1.0
 70
     8
 71
     3
 72
    19
 73
    15
 74
     0
 42
0.000000001
 43
0.00000001
 40
0.0
 40
0.0
 40
0.0
 40
0.0
 40
0.1123318680474744
 40
0.2171891524479077
 40
0.3207763822148916
 40
0.4294461252394102
 40
0.4868895248481713
 40
0.5473481609653096
 40
0.6105516098532292
 40
0.6785404198027609
 40
0.7510057638701908
 40
0.8285633445446982
 40
0.9114938035709819
 40
1.0
 40
1.0
 40
1.0
 40
1.0
 10
-55.85528846153851
 20
21.81174879807692
 30
0.0
 10
-55.8520321647807
 20
21.88551818862661
 30
0.0
 10
-55.84573624586441
 20
22.02814834059129
 30
0.0
 10
-55.77449120770503
 20
22.22841377663603
 30
0.0
 10
-55.66383357850681
 20
22.40588993963115
 30
0.0
 10
-55.53318669386401
 20
22.52735785935256
 30
0.0
 10
-55.41015726513984
 20
22.61031686738124
 30
0.0
 10
-55.30481191848009
 20
22.66494184141576
 30
0.0
 10
-55.18918749011667
 20
22.71384155987266
 30
0.0
 10
-55.06104561497499
 20
22.75123147638582
 30
0.0
 10
-54.92111805343917
 20
22.77928755323486
 30
0.0
 10
-54.77008451176495
 20
22.79989138171604
 30
0.0
 10
-54.60768440497749
 20
22.81391522392946
 30
0.0
 10
-54.49551430569497
 20
22.81488431215327
 30
0.0
 10
-54.43760516826927
 20
22.81538461538461
 30
0.0
  0
SPLINE
  5
140
330
1F
100
AcDbEntity
  8
0
  6
Continuous
 62
     7
370
    25
100
AcDbSpline
210
0.0
220
0.0
230
1.0
 70
     8
 71
     3
 72
    23
 73
    19
 74
     0
 42
0.000000001
 43
0.00000001
 40
0.0
 40
0.0
 40
0.0
 40
0.0
 40
0.1095674252695417
 40
0.2106570473717309
 40
0.3020024587326182
 40
0.3851432164195909
 40
0.4590126129308717
 40
0.5247192090460503
 40
0.5832266479388916
 40
0.634208319325829
 40
0.681185727793256
 40
0.7262751343643198
 40
0.7701133344783261
 40
0.8140800070141054
 40
0.8579941680783131
 40
0.9033387195085182
 40
0.9505447828389814
 40
1.0
 40
1.0
 40
1.0
 40
1.0
 10
-54.39371995192312
 20
16.70961538461538
 30
0.0
 10
-54.49104386897603
 20
16.71017139253454
 30
0.0
 10
-54.67816124400404
 20
16.71124038714018
 30
0.0
 10
-54.9462065521811
 20
16.72415638416567
 30
0.0
 10
-55.18992674867674
 20
16.74743519302679
 30
0.0
 10
-55.4086760669183
 20
16.77649691068576
 30
0.0
 10
-55.60278956289778
 20
16.81587099250446
 30
0.0
 10
-55.77161108653564
 20
16.86593009148055
 30
0.0
 10
-55.9174558061849
 20
16.92100381944189
 30
0.0
 10
-56.03944922968782
 20
16.9890264125134
 30
0.0
 10
-56.13911086803992
 20
17.06818784243476
 30
0.0
 10
-56.22904504754322
 20
17.14909272538171
 30
0.0
 10
-56.30237177353995
 20
17.24242415148411
 30
0.0
 10
-56.36038924752948
 20
17.3441756612882
 30
0.0
 10
-56.41060326880944
 20
17.45181967384501
 30
0.0
 10
-56.44088882050363
 20
17.56955964910467
 30
0.0
 10
-56.46394717664682
 20
17.69390605655827
 30
0.0
 10
-56.46521613971036
 20
17.77991377750941
 30
0.0
 10
-56.46586538461543
 20
17.82391826923076
 30
0.0
  0
LINE
  5
141
330
1F
100
AcDbEntity
  8
0
  6
Continuous
 62
     7
370
    25
100
AcDbLine
 10
-54.309765625
 20
19.1519230769
 30
0.0
 11
-53.9014423077
 21
19.1519230769
 31
0.0
  0
LINE
  5
142
330
1F
100
AcDbEntity
  8
0
  6
Continuous
 62
     7
370
    25
100
AcDbLine
 10
-53.9014423077
 20
19.1519230769
 30
0.0
 11
-53.9014423077
 21
16.7096153846
 31
0.0
  0
LINE
  5
143
330
1F
100
AcDbEntity
  8
0
  6
Continuous
 62
     7
370
    25
100
AcDbLine
 10
-53.9014423077
 20
16.7096153846
 30
0.0
 11
-54.3937199519
 21
16.7096153846
 31
0.0
  0
SPLINE
  5
144
330
1F
100
AcDbEntity
  8
0
  6
Continuous
 62
     7
370
    25
100
AcDbSpline
210
0.0
220
0.0
230
1.0
 70
     8
 71
     3
 72
    23
 73
    19
 74
     0
 42
0.000000001
 43
0.00000001
 40
0.0
 40
0.0
 40
0.0
 40
0.0
 40
0.1095674252695417
 40
0.2106570473717309
 40
0.3020024587326182
 40
0.3851432164195909
 40
0.4590126129308717
 40
0.5247192090460503
 40
0.5832266479388916
 40
0.634208319325829
 40
0.681185727793256
 40
0.7262751343643198
 40
0.7701133344783261
 40
0.8140800070141054
 40
0.8579941680783131
 40
0.9033387195085182
 40
0.9505447828389814
 40
1.0
 40
1.0
 40
1.0
 40
1.0
 10
-54.39371995192312
 20
16.70961538461538
 30
0.0
 10
-54.49104386897603
 20
16.71017139253454
 30
0.0
 10
-54.67816124400404
 20
16.71124038714018
 30
0.0
 10
-54.9462065521811
 20
16.72415638416567
 30
0.0
 10
-55.18992674867674
 20
16.74743519302679
 30
0.0
 10
-55.4086760669183
 20
16.77649691068576
 30
0.0
 10
-55.60278956289778
 20
16.81587099250446
 30
0.0
 10
-55.77161108653564
 20
16.86593009148055
 30
0.0
 10
-55.9174558061849
 20
16.92100381944189
 30
0.0
 10
-56.03944922968782
 20
16.9890264125134
 30
0.0
 10
-56.13911086803992
 20
17.06818784243476
 30
0.0
 10
-56.22904504754322
 20
17.14909272538171
 30
0.0
 10
-56.30237177353995
 20
17.24242415148411
 30
0.0
 10
-56.36038924752948
 20
17.3441756612882
 30
0.0
 10
-56.41060326880944
 20
17.45181967384501
 30
0.0
 10
-56.44088882050363
 20
17.56955964910467
 30
0.0
 10
-56.46394717664682
 20
17.69390605655827
 30
0.0
 10
-56.46521613971036
 20
17.77991377750941
 30
0.0
 10
-56.46586538461543
 20
17.82391826923076
 30
0.0
  0
SPLINE
  5
145
330
1F
100
AcDbEntity
  8
0
  6
Continuous
 62
     7
370
    25
100
AcDbSpline
210
0.0
220
0.0
230
1.0
 70
     8
 71
     3
 72
    23
 73
    19
 74
     0
 42
0.000000001
 43
0.00000001
 40
0.0
 40
0.0
 40
0.0
 40
0.0
 40
0.0528263492812288
 40
0.1028915173965569
 40
0.1516981461048777
 40
0.1995775881235299
 40
0.2472235843729628
 40
0.2957231203836684
 40
0.3462538147999403
 40
0.3985071702228972
 40
0.4542901722394631
 40
0.5140415865121282
 40
0.5790927186074064
 40
0.6500371484472959
 40
0.727451000764524
 40
0.8114520065892927
 40
0.9024758798237958
 40
1.0
 40
1.0
 40
1.0
 40
1.0
 10
-56.46586538461543
 20
17.82391826923076
 30
0.0
 10
-56.46443361327345
 20
17.87423809764289
 30
0.0
 10
-56.46164490786514
 20
17.9722475866745
 30
0.0
 10
-56.43886951695222
 20
18.11549891469458
 30
0.0
 10
-56.3974791919082
 20
18.24923353414346
 30
0.0
 10
-56.34534605803486
 20
18.37687121964875
 30
0.0
 10
-56.27280003236992
 20
18.49384209747505
 30
0.0
 10
-56.18658156008979
 20
18.60419408613574
 30
0.0
 10
-56.08240763525475
 20
18.70419032669533
 30
0.0
 10
-55.96525797945219
 20
18.79987896552323
 30
0.0
 10
-55.82861450446399
 20
18.88365955299667
 30
0.0
 10
-55.67241310111441
 20
18.95635405263239
 30
0.0
 10
-55.4958051983646
 20
19.01706582165938
 30
0.0
 10
-55.29824373453988
 20
19.06540457198354
 30
0.0
 10
-55.08059480376843
 20
19.10642900123551
 30
0.0
 10
-54.8412698079607
 20
19.13092511424219
 30
0.0
 10
-54.58226192879717
 20
19.14914395004675
 30
0.0
 10
-54.40266165022205
 20
19.15097565181382
 30
0.0
 10
-54.30976562500004
 20
19.15192307692307
 30
0.0
  0
SPLINE
  5
146
330
1F
100
AcDbEntity
  8
0
  6
Continuous
 62
     7
370
    25
100
AcDbSpline
210
0.0
220
0.0
230
1.0
 70
     8
 71
     3
 72
    23
 73
    19
 74
     0
 42
0.000000001
 43
0.00000001
 40
0.0
 40
0.0
 40
0.0
 40
0.0
 40
0.0659391240576589
 40
0.1297911093795352
 40
0.1921752363053297
 40
0.2536170442157548
 40
0.3147191079962375
 40
0.3762822754113755
 40
0.4389729923739132
 40
0.5031747018386424
 40
0.5673294646239483
 40
0.6296509938060324
 40
0.6906498673030981
 40
0.7512376127977874
 40
0.8117541138236064
 40
0.8727877774488538
 40
0.9355396326682301
 40
1.0
 40
1.0
 40
1.0
 40
1.0
 10
-67.57836538461544
 20
19.75677584134615
 30
0.0
 10
-67.5753521068813
 20
19.87012392345438
 30
0.0
 10
-67.56942092921446
 20
20.09323233645067
 30
0.0
 10
-67.52493082792422
 20
20.42122106838629
 30
0.0
 10
-67.45024645298979
 20
20.73549081822039
 30
0.0
 10
-67.34682621784448
 20
21.03655482163847
 30
0.0
 10
-67.21476405407871
 20
21.32470823310888
 30
0.0
 10
-67.05145579121749
 20
21.59893773491239
 30
0.0
 10
-66.85747445773923
 20
21.85897821417054
 30
0.0
 10
-66.63728452198839
 20
22.1030575944603
 30
0.0
 10
-66.39762131007912
 20
22.32735091032371
 30
0.0
 10
-66.14031890519834
 20
22.52199673608237
 30
0.0
 10
-65.87257691743771
 20
22.69113776997872
 30
0.0
 10
-65.58825203927425
 20
22.8236360261321
 30
0.0
 10
-65.29316131970938
 20
22.92919710574213
 30
0.0
 10
-64.98550409949691
 20
23.00693379948877
 30
0.0
 10
-64.66411510807342
 20
23.0504069806896
 30
0.0
 10
-64.44546753195742
 20
23.05651855632106
 30
0.0
 10
-64.33467548076929
 20
23.05961538461538
 30
0.0
  0
SPLINE
  5
147
330
1F
100
AcDbEntity
  8
0
  6
Continuous
 62
     7
370
    25
100
AcDbSpline
210
0.0
220
0.0
230
1.0
 70
     8
 71
     3
 72
    23
 73
    19
 74
     0
 42
0.000000001
 43
0.00000001
 40
0.0
 40
0.0
 40
0.0
 40
0.0
 40
0.0646087354707748
 40
0.1275117897236764
 40
0.1885213083986468
 40
0.24870817908937
 40
0.3085982651789141
 40
0.3688122491095553
 40
0.429887501815076
 40
0.4928024479242468
 40
0.5557433321027951
 40
0.6174852948395647
 40
0.6789689634380387
 40
0.7401976913545542
 40
0.8023601016976094
 40
0.8662447764427325
 40
0.9317068283956895
 40
1.0
 40
1.0
 40
1.0
 40
1.0
 10
-64.33467548076929
 20
23.05961538461538
 30
0.0
 10
-64.22322414628857
 20
23.05662489507296
 30
0.0
 10
-64.00326381084517
 20
23.05072286540275
 30
0.0
 10
-63.68062205707452
 20
23.00575738202078
 30
0.0
 10
-63.37087457923689
 20
22.93394239400557
 30
0.0
 10
-63.07573843022861
 20
22.82991926143372
 30
0.0
 10
-62.79393446424905
 20
22.69752421484793
 30
0.0
 10
-62.524963130174
 20
22.53721985858094
 30
0.0
 10
-62.2725491249427
 20
22.3434959097553
 30
0.0
 10
-62.03332675176816
 20
22.12675254333972
 30
0.0
 10
-61.81722870222132
 20
21.88525062247065
 30
0.0
 10
-61.62629925821131
 20
21.62644024254481
 30
0.0
 10
-61.46652206616076
 20
21.35075361260289
 30
0.0
 10
-61.33270766689306
 20
21.0607517962865
 30
0.0
 10
-61.23197508166501
 20
20.75317379988104
 30
0.0
 10
-61.16022628143848
 20
20.43042891521097
 30
0.0
 10
-61.11488371790026
 20
20.09196103672985
 30
0.0
 10
-61.10916823143501
 20
19.86122792456958
 30
0.0
 10
-61.10625000000006
 20
19.74341947115384
 30
0.0
  0
SPLINE
  5
148
330
1F
100
AcDbEntity
  8
0
  6
Continuous
 62
     7
370
    25
100
AcDbSpline
210
0.0
220
0.0
230
1.0
 70
     8
 71
     3
 72
    15
 73
    11
 74
     0
 42
0.000000001
 43
0.00000001
 40
0.0
 40
0.0
 40
0.0
 40
0.0
 40
0.1348068327792206
 40
0.2641990558543182
 40
0.388461816727942
 40
0.509942098364373
 40
0.6304096106127706
 40
0.7506710345119793
 40
0.8734547255294232
 40
1.0
 40
1.0
 40
1.0
 40
1.0
 10
-61.10625000000006
 20
19.74341947115384
 30
0.0
 10
-61.1101191293513
 20
19.61286120410108
 30
0.0
 10
-61.11770198179658
 20
19.35698863311791
 30
0.0
 10
-61.17105585388217
 20
18.98372862047886
 30
0.0
 10
-61.26233901804026
 20
18.63122158455953
 30
0.0
 10
-61.39415013229119
 20
18.30119158459755
 30
0.0
 10
-61.55763049501211
 20
17.98997388459297
 30
0.0
 10
-61.76064715955231
 20
17.70138289985047
 30
0.0
 10
-61.99991221698216
 20
17.43369068238441
 30
0.0
 10
-62.18424007878976
 20
17.27740081567433
 30
0.0
 10
-62.2777944711539
 20
17.19807692307692
 30
0.0
  0
SPLINE
  5
149
330
1F
100
AcDbEntity
  8
0
  6
Continuous
 62
     7
370
    25
100
AcDbSpline
210
0.0
220
0.0
230
1.0
 70
     8
 71
     3
 72
    15
 73
    11
 74
     0
 42
0.000000001
 43
0.00000001
 40
0.0
 40
0.0
 40
0.0
 40
0.0
 40
0.1279910255623711
 40
0.2530983915017057
 40
0.3761840584327917
 40
0.4989363124701253
 40
0.6215258806257279
 40
0.7457068938016908
 40
0.8715753502968709
 40
1.0
 40
1.0
 40
1.0
 40
1.0
 10
-62.2777944711539
 20
17.19807692307692
 30
0.0
 10
-62.35443337915489
 20
17.13947547785315
 30
0.0
 10
-62.50598450749592
 20
17.02359288795559
 30
0.0
 10
-62.74789310364333
 20
16.87506557624796
 30
0.0
 10
-62.9970113236578
 20
16.74776285363863
 30
0.0
 10
-63.255219076829
 20
16.64490375974633
 30
0.0
 10
-63.52197104166952
 20
16.56399652542843
 30
0.0
 10
-63.79723063830732
 20
16.50733851962051
 30
0.0
 10
-64.08060784718202
 20
16.47178072111823
 30
0.0
 10
-64.27224079628145
 20
16.4675308906113
 30
0.0
 10
-64.36902043269237
 20
16.46538461538461
 30
0.0
  0
SPLINE
  5
14A
330
1F
100
AcDbEntity
  8
0
  6
Continuous
 62
     7
370
    25
100
AcDbSpline
210
0.0
220
0.0
230
1.0
 70
     8
 71
     3
 72
    23
 73
    19
 74
     0
 42
0.000000001
 43
0.00000001
 40
0.0
 40
0.0
 40
0.0
 40
0.0
 40
0.0641474448766712
 40
0.1262121152536841
 40
0.1868412890216914
 40
0.2469358694509769
 40
0.3072563614860023
 40
0.3681505022006767
 40
0.4300707669516561
 40
0.4938754417369543
 40
0.5579806818508448
 40
0.6208695259285351
 40
0.6825247313751585
 40
0.7440356981057701
 40
0.8058886825781884
 40
0.8689681377436668
 40
0.9332474288479398
 40
1.0
 40
1.0
 40
1.0
 40
1.0
 10
-64.36902043269237
 20
16.46538461538461
 30
0.0
 10
-64.47855535874521
 20
16.46840046096236
 30
0.0
 10
-64.69406877066466
 20
16.47433423198594
 30
0.0
 10
-65.01070437397924
 20
16.51874616560911
 30
0.0
 10
-65.31405089895418
 20
16.59390719230125
 30
0.0
 10
-65.60599154649724
 20
16.69701779710749
 30
0.0
 10
-65.88568449029181
 20
16.83107517803042
 30
0.0
 10
-66.1517627945033
 20
16.99635167253778
 30
0.0
 10
-66.40469296704276
 20
17.1908178980823
 30
0.0
 10
-66.64361057405894
 20
17.4104075795513
 30
0.0
 10
-66.86199256078457
 20
17.65286085110882
 30
0.0
 10
-67.0525235745188
 20
17.91305169886516
 30
0.0
 10
-67.21738088285768
 20
18.18524733976885
 30
0.0
 10
-67.34841260968906
 20
18.47330029036206
 30
0.0
 10
-67.45312491174396
 20
18.77449146560835
 30
0.0
 10
-67.52401017777156
 20
19.09015477641
 30
0.0
 10
-67.56973578315733
 20
19.41898893871595
 30
0.0
 10
-67.57545287994851
 20
19.64277220686649
 30
0.0
 10
-67.57836538461544
 20
19.75677584134615
 30
0.0
  0
SPLINE
  5
14B
330
1F
100
AcDbEntity
  8
0
  6
Continuous
 62
     7
370
    25
100
AcDbSpline
210
0.0
220
0.0
230
1.0
 70
     8
 71
     3
 72
    23
 73
    19
 74
     0
 42
0.000000001
 43
0.00000001
 40
0.0
 40
0.0
 40
0.0
 40
0.0
 40
0.0659391240576588
 40
0.1297911093795348
 40
0.1921752363053292
 40
0.2536170442157551
 40
0.3147191079962372
 40
0.3762822754113758
 40
0.4389729923739125
 40
0.5031747018386413
 40
0.5673294646239472
 40
0.6296509938060324
 40
0.6906498673030983
 40
0.7512376127977861
 40
0.8117541138236054
 40
0.8727877774488527
 40
0.9355396326682301
 40
0.9999999999999999
 40
0.9999999999999999
 40
0.9999999999999999
 40
0.9999999999999999
 10
-48.77259615384619
 20
19.75677584134615
 30
0.0
 10
-48.76958287611206
 20
19.87012392345438
 30
0.0
 10
-48.76365169844521
 20
20.09323233645066
 30
0.0
 10
-48.71916159715502
 20
20.42122106838629
 30
0.0
 10
-48.64447722222056
 20
20.73549081822039
 30
0.0
 10
-48.54105698707524
 20
21.03655482163846
 30
0.0
 10
-48.40899482330946
 20
21.32470823310888
 30
0.0
 10
-48.24568656044825
 20
21.59893773491239
 30
0.0
 10
-48.05170522696999
 20
21.85897821417053
 30
0.0
 10
-47.83151529121913
 20
22.10305759446029
 30
0.0
 10
-47.59185207930987
 20
22.32735091032371
 30
0.0
 10
-47.33454967442906
 20
22.52199673608235
 30
0.0
 10
-47.06680768666848
 20
22.69113776997872
 30
0.0
 10
-46.78248280850499
 20
22.8236360261321
 30
0.0
 10
-46.48739208894013
 20
22.92919710574213
 30
0.0
 10
-46.17973486872764
 20
23.00693379948876
 30
0.0
 10
-45.85834587730418
 20
23.05040698068959
 30
0.0
 10
-45.63969830118815
 20
23.05651855632105
 30
0.0
 10
-45.52890625000004
 20
23.05961538461538
 30
0.0
  0
SPLINE
  5
14C
330
1F
100
AcDbEntity
  8
0
  6
Continuous
 62
     7
370
    25
100
AcDbSpline
210
0.0
220
0.0
230
1.0
 70
     8
 71
     3
 72
    23
 73
    19
 74
     0
 42
0.000000001
 43
0.00000001
 40
0.0
 40
0.0
 40
0.0
 40
0.0
 40
0.0646087354707749
 40
0.127511789723675
 40
0.1885213083986467
 40
0.2487081790893702
 40
0.3085982651789119
 40
0.3688122491095531
 40
0.429887501815075
 40
0.4928024479242458
 40
0.5557433321027937
 40
0.6174852948395639
 40
0.6789689634380379
 40
0.7401976913545535
 40
0.802360101697608
 40
0.8662447764427318
 40
0.9317068283956887
 40
0.9999999999999999
 40
0.9999999999999999
 40
0.9999999999999999
 40
0.9999999999999999
 10
-45.52890625000004
 20
23.05961538461538
 30
0.0
 10
-45.41745491551935
 20
23.05662489507296
 30
0.0
 10
-45.19749458007595
 20
23.05072286540275
 30
0.0
 10
-44.87485282630524
 20
23.00575738202076
 30
0.0
 10
-44.56510534846768
 20
22.93394239400559
 30
0.0
 10
-44.26996919945935
 20
22.82991926143371
 30
0.0
 10
-43.98816523347982
 20
22.69752421484793
 30
0.0
 10
-43.71919389940479
 20
22.53721985858094
 30
0.0
 10
-43.46677989417345
 20
22.3434959097553
 30
0.0
 10
-43.22755752099892
 20
22.12675254333972
 30
0.0
 10
-43.01145947145207
 20
21.88525062247065
 30
0.0
 10
-42.82053002744208
 20
21.62644024254481
 30
0.0
 10
-42.66075283539153
 20
21.35075361260289
 30
0.0
 10
-42.52693843612382
 20
21.06075179628651
 30
0.0
 10
-42.42620585089576
 20
20.75317379988104
 30
0.0
 10
-42.35445705066923
 20
20.43042891521097
 30
0.0
 10
-42.309114487131
 20
20.09196103672984
 30
0.0
 10
-42.30339900066576
 20
19.86122792456957
 30
0.0
 10
-42.30048076923081
 20
19.74341947115384
 30
0.0
  0
SPLINE
  5
14D
330
1F
100
AcDbEntity
  8
0
  6
Continuous
 62
     7
370
    25
100
AcDbSpline
210
0.0
220
0.0
230
1.0
 70
     8
 71
     3
 72
    15
 73
    11
 74
     0
 42
0.000000001
 43
0.00000001
 40
0.0
 40
0.0
 40
0.0
 40
0.0
 40
0.1348068327792196
 40
0.2641990558543173
 40
0.3884618167279412
 40
0.5099420983643723
 40
0.6304096106127701
 40
0.7506710345119789
 40
0.8734547255294229
 40
1.0
 40
1.0
 40
1.0
 40
1.0
 10
-42.30048076923081
 20
19.74341947115384
 30
0.0
 10
-42.30434989858207
 20
19.61286120410108
 30
0.0
 10
-42.31193275102736
 20
19.35698863311791
 30
0.0
 10
-42.36528662311292
 20
18.98372862047885
 30
0.0
 10
-42.45656978727101
 20
18.63122158455952
 30
0.0
 10
-42.58838090152195
 20
18.30119158459755
 30
0.0
 10
-42.75186126424286
 20
17.98997388459297
 30
0.0
 10
-42.95487792878308
 20
17.70138289985047
 30
0.0
 10
-43.19414298621293
 20
17.43369068238441
 30
0.0
 10
-43.37847084802051
 20
17.27740081567433
 30
0.0
 10
-43.47202524038466
 20
17.19807692307692
 30
0.0
  0
SPLINE
  5
14E
330
1F
100
AcDbEntity
  8
0
  6
Continuous
 62
     7
370
    25
100
AcDbSpline
210
0.0
220
0.0
230
1.0
 70
     8
 71
     3
 72
    15
 73
    11
 74
     0
 42
0.000000001
 43
0.00000001
 40
0.0
 40
0.0
 40
0.0
 40
0.0
 40
0.127991025562374
 40
0.2530983915017063
 40
0.37618405843279
 40
0.4989363124701269
 40
0.6215258806257298
 40
0.745706893801693
 40
0.8715753502968736
 40
1.0
 40
1.0
 40
1.0
 40
1.0
 10
-43.47202524038466
 20
17.19807692307692
 30
0.0
 10
-43.54866414838567
 20
17.13947547785314
 30
0.0
 10
-43.70021527672668
 20
17.02359288795559
 30
0.0
 10
-43.94212387287406
 20
16.87506557624796
 30
0.0
 10
-44.19124209288858
 20
16.74776285363862
 30
0.0
 10
-44.44944984605974
 20
16.64490375974632
 30
0.0
 10
-44.71620181090029
 20
16.56399652542842
 30
0.0
 10
-44.99146140753808
 20
16.50733851962051
 30
0.0
 10
-45.27483861641278
 20
16.47178072111823
 30
0.0
 10
-45.46647156551222
 20
16.4675308906113
 30
0.0
 10
-45.56325120192312
 20
16.46538461538461
 30
0.0
  0
SPLINE
  5
14F
330
1F
100
AcDbEntity
  8
0
  6
Continuous
 62
     7
370
    25
100
AcDbSpline
210
0.0
220
0.0
230
1.0
 70
     8
 71
     3
 72
    23
 73
    19
 74
     0
 42
0.000000001
 43
0.00000001
 40
0.0
 40
0.0
 40
0.0
 40
0.0
 40
0.0641474448766725
 40
0.1262121152536839
 40
0.1868412890216911
 40
0.246935869450979
 40
0.3072563614860044
 40
0.3681505022006764
 40
0.4300707669516574
 40
0.493875441736955
 40
0.5579806818508455
 40
0.6208695259285356
 40
0.6825247313751582
 40
0.7440356981057704
 40
0.8058886825781881
 40
0.868968137743667
 40
0.9332474288479397
 40
1.0
 40
1.0
 40
1.0
 40
1.0
 10
-45.56325120192312
 20
16.46538461538461
 30
0.0
 10
-45.67278612797597
 20
16.46840046096236
 30
0.0
 10
-45.88829953989539
 20
16.47433423198594
 30
0.0
 10
-46.20493514321002
 20
16.51874616560911
 30
0.0
 10
-46.50828166818493
 20
16.59390719230126
 30
0.0
 10
-46.80022231572799
 20
16.69701779710748
 30
0.0
 10
-47.07991525952256
 20
16.83107517803041
 30
0.0
 10
-47.34599356373406
 20
16.99635167253779
 30
0.0
 10
-47.59892373627351
 20
17.19081789808228
 30
0.0
 10
-47.83784134328975
 20
17.4104075795513
 30
0.0
 10
-48.05622333001531
 20
17.65286085110882
 30
0.0
 10
-48.24675434374955
 20
17.91305169886516
 30
0.0
 10
-48.41161165208842
 20
18.18524733976885
 30
0.0
 10
-48.54264337891979
 20
18.47330029036205
 30
0.0
 10
-48.64735568097469
 20
18.77449146560835
 30
0.0
 10
-48.71824094700233
 20
19.09015477640999
 30
0.0
 10
-48.76396655238808
 20
19.41898893871595
 30
0.0
 10
-48.76968364917928
 20
19.6427722068665
 30
0.0
 10
-48.77259615384619
 20
19.75677584134615
 30
0.0
  0
SPLINE
  5
150
330
1F
100
AcDbEntity
  8
0
  6
Continuous
 62
     7
370
    25
100
AcDbSpline
210
0.0
220
0.0
230
1.0
 70
     8
 71
     3
 72
    23
 73
    19
 74
     0
 42
0.000000001
 43
0.00000001
 40
0.0
 40
0.0
 40
0.0
 40
0.0
 40
0.0659391240576588
 40
0.129791109379535
 40
0.1921752363053294
 40
0.2536170442157553
 40
0.3147191079962368
 40
0.3762822754113761
 40
0.4389729923739136
 40
0.503174701838641
 40
0.5673294646239468
 40
0.6296509938060328
 40
0.6906498673030985
 40
0.7512376127977878
 40
0.8117541138236066
 40
0.8727877774488538
 40
0.9355396326682301
 40
0.9999999999999999
 40
0.9999999999999999
 40
0.9999999999999999
 40
0.9999999999999999
 10
-123.3850961538462
 20
19.75677584134614
 30
0.0
 10
-123.3820828761121
 20
19.87012392345437
 30
0.0
 10
-123.3761516984453
 20
20.09323233645067
 30
0.0
 10
-123.331661597155
 20
20.42122106838628
 30
0.0
 10
-123.2569772222206
 20
20.7354908182204
 30
0.0
 10
-123.1535569870752
 20
21.03655482163845
 30
0.0
 10
-123.0214948233095
 20
21.32470823310888
 30
0.0
 10
-122.8581865604482
 20
21.59893773491238
 30
0.0
 10
-122.66420522697
 20
21.85897821417053
 30
0.0
 10
-122.4440152912191
 20
22.10305759446029
 30
0.0
 10
-122.2043520793099
 20
22.32735091032371
 30
0.0
 10
-121.9470496744291
 20
22.52199673608235
 30
0.0
 10
-121.6793076866685
 20
22.69113776997873
 30
0.0
 10
-121.3949828085049
 20
22.82363602613208
 30
0.0
 10
-121.0998920889401
 20
22.92919710574212
 30
0.0
 10
-120.7922348687277
 20
23.00693379948875
 30
0.0
 10
-120.4708458773042
 20
23.05040698068959
 30
0.0
 10
-120.2521983011882
 20
23.05651855632105
 30
0.0
 10
-120.1414062500001
 20
23.05961538461537
 30
0.0
  0
SPLINE
  5
151
330
1F
100
AcDbEntity
  8
0
  6
Continuous
 62
     7
370
    25
100
AcDbSpline
210
0.0
220
0.0
230
1.0
 70
     8
 71
     3
 72
    23
 73
    19
 74
     0
 42
0.000000001
 43
0.00000001
 40
0.0
 40
0.0
 40
0.0
 40
0.0
 40
0.0646087354707749
 40
0.1275117897236739
 40
0.188521308398647
 40
0.2487081790893703
 40
0.308598265178912
 40
0.3688122491095533
 40
0.4298875018150761
 40
0.492802447924245
 40
0.5557433321027944
 40
0.6174852948395648
 40
0.6789689634380388
 40
0.7401976913545539
 40
0.8023601016976091
 40
0.8662447764427326
 40
0.9317068283956892
 40
1.0
 40
1.0
 40
1.0
 40
1.0
 10
-120.1414062500001
 20
23.05961538461537
 30
0.0
 10
-120.0299549155194
 20
23.05662489507296
 30
0.0
 10
-119.809994580076
 20
23.05072286540274
 30
0.0
 10
-119.4873528263053
 20
23.00575738202076
 30
0.0
 10
-119.1776053484677
 20
22.93394239400557
 30
0.0
 10
-118.8824691994594
 20
22.82991926143371
 30
0.0
 10
-118.6006652334798
 20
22.69752421484792
 30
0.0
 10
-118.3316938994048
 20
22.53721985858093
 30
0.0
 10
-118.0792798941735
 20
22.34349590975531
 30
0.0
 10
-117.840057520999
 20
22.12675254333971
 30
0.0
 10
-117.6239594714521
 20
21.88525062247064
 30
0.0
 10
-117.4330300274421
 20
21.62644024254482
 30
0.0
 10
-117.2732528353915
 20
21.35075361260289
 30
0.0
 10
-117.1394384361239
 20
21.06075179628651
 30
0.0
 10
-117.0387058508957
 20
20.75317379988102
 30
0.0
 10
-116.9669570506693
 20
20.43042891521097
 30
0.0
 10
-116.921614487131
 20
20.09196103672984
 30
0.0
 10
-116.9158990006658
 20
19.86122792456958
 30
0.0
 10
-116.9129807692308
 20
19.74341947115384
 30
0.0
  0
SPLINE
  5
152
330
1F
100
AcDbEntity
  8
0
  6
Continuous
 62
     7
370
    25
100
AcDbSpline
210
0.0
220
0.0
230
1.0
 70
     8
 71
     3
 72
    15
 73
    11
 74
     0
 42
0.000000001
 43
0.00000001
 40
0.0
 40
0.0
 40
0.0
 40
0.0
 40
0.1348068327792211
 40
0.2641990558543185
 40
0.3884618167279432
 40
0.5099420983643727
 40
0.6304096106127727
 40
0.7506710345119788
 40
0.8734547255294229
 40
1.0
 40
1.0
 40
1.0
 40
1.0
 10
-116.9129807692308
 20
19.74341947115384
 30
0.0
 10
-116.9168498985821
 20
19.61286120410107
 30
0.0
 10
-116.9244327510273
 20
19.3569886331179
 30
0.0
 10
-116.977786623113
 20
18.98372862047885
 30
0.0
 10
-117.069069787271
 20
18.63122158455953
 30
0.0
 10
-117.2008809015219
 20
18.30119158459754
 30
0.0
 10
-117.3643612642429
 20
17.98997388459297
 30
0.0
 10
-117.5673779287831
 20
17.70138289985046
 30
0.0
 10
-117.8066429862129
 20
17.43369068238441
 30
0.0
 10
-117.9909708480205
 20
17.27740081567433
 30
0.0
 10
-118.0845252403847
 20
17.19807692307691
 30
0.0
  0
SPLINE
  5
153
330
1F
100
AcDbEntity
  8
0
  6
Continuous
 62
     7
370
    25
100
AcDbSpline
210
0.0
220
0.0
230
1.0
 70
     8
 71
     3
 72
    15
 73
    11
 74
     0
 42
0.000000001
 43
0.00000001
 40
0.0
 40
0.0
 40
0.0
 40
0.0
 40
0.1279910255623761
 40
0.2530983915017054
 40
0.3761840584327916
 40
0.4989363124701253
 40
0.6215258806257338
 40
0.7457068938016906
 40
0.8715753502968708
 40
1.0
 40
1.0
 40
1.0
 40
1.0
 10
-118.0845252403847
 20
17.19807692307691
 30
0.0
 10
-118.1611641483857
 20
17.13947547785315
 30
0.0
 10
-118.3127152767267
 20
17.0235928879556
 30
0.0
 10
-118.5546238728741
 20
16.87506557624796
 30
0.0
 10
-118.8037420928885
 20
16.74776285363862
 30
0.0
 10
-119.0619498460597
 20
16.64490375974631
 30
0.0
 10
-119.3287018109003
 20
16.56399652542843
 30
0.0
 10
-119.6039614075381
 20
16.5073385196205
 30
0.0
 10
-119.8873386164128
 20
16.47178072111823
 30
0.0
 10
-120.0789715655122
 20
16.46753089061129
 30
0.0
 10
-120.1757512019231
 20
16.4653846153846
 30
0.0
  0
SPLINE
  5
154
330
1F
100
AcDbEntity
  8
0
  6
Continuous
 62
     7
370
    25
100
AcDbSpline
210
0.0
220
0.0
230
1.0
 70
     8
 71
     3
 72
    23
 73
    19
 74
     0
 42
0.000000001
 43
0.00000001
 40
0.0
 40
0.0
 40
0.0
 40
0.0
 40
0.0641474448766711
 40
0.1262121152536839
 40
0.1868412890216911
 40
0.246935869450979
 40
0.3072563614860044
 40
0.3681505022006763
 40
0.4300707669516577
 40
0.4938754417369539
 40
0.5579806818508443
 40
0.6208695259285361
 40
0.6825247313751579
 40
0.7440356981057706
 40
0.805888682578188
 40
0.8689681377436669
 40
0.9332474288479398
 40
1.0
 40
1.0
 40
1.0
 40
1.0
 10
-120.1757512019231
 20
16.4653846153846
 30
0.0
 10
-120.285286127976
 20
16.46840046096235
 30
0.0
 10
-120.5007995398954
 20
16.47433423198593
 30
0.0
 10
-120.81743514321
 20
16.51874616560911
 30
0.0
 10
-121.1207816681849
 20
16.59390719230125
 30
0.0
 10
-121.412722315728
 20
16.69701779710748
 30
0.0
 10
-121.6924152595226
 20
16.83107517803041
 30
0.0
 10
-121.9584935637341
 20
16.99635167253779
 30
0.0
 10
-122.2114237362735
 20
17.19081789808228
 30
0.0
 10
-122.4503413432897
 20
17.4104075795513
 30
0.0
 10
-122.6687233300153
 20
17.65286085110882
 30
0.0
 10
-122.8592543437495
 20
17.91305169886514
 30
0.0
 10
-123.0241116520885
 20
18.18524733976886
 30
0.0
 10
-123.1551433789198
 20
18.47330029036203
 30
0.0
 10
-123.2598556809747
 20
18.77449146560835
 30
0.0
 10
-123.3307409470023
 20
19.09015477640999
 30
0.0
 10
-123.3764665523881
 20
19.41898893871595
 30
0.0
 10
-123.3821836491793
 20
19.64277220686649
 30
0.0
 10
-123.3850961538462
 20
19.75677584134614
 30
0.0
  0
LINE
  5
155
330
1F
100
AcDbEntity
  8
0
  6
Continuous
 62
     7
370
    25
100
AcDbLine
 10
-109.7081730769
 20
22.8153846154
 30
0.0
 11
-109.7081730769
 21
20.8615384615
 31
0.0
  0
LINE
  5
156
330
1F
100
AcDbEntity
  8
0
  6
Continuous
 62
     7
370
    25
100
AcDbLine
 10
-109.7081730769
 20
20.8615384615
 30
0.0
 11
-110.3740835337
 21
20.8615384615
 31
0.0
  0
SPLINE
  5
157
330
1F
100
AcDbEntity
  8
0
  6
Continuous
 62
     7
370
    25
100
AcDbSpline
210
0.0
220
0.0
230
1.0
 70
     8
 71
     3
 72
    23
 73
    19
 74
     0
 42
0.000000001
 43
0.00000001
 40
0.0
 40
0.0
 40
0.0
 40
0.0
 40
0.1055399964402537
 40
0.2020864154635838
 40
0.2906848989424191
 40
0.3705526096211875
 40
0.4426702615663724
 40
0.5076749275738697
 40
0.5655732034810431
 40
0.6164546657486243
 40
0.6633313570051064
 40
0.708862024496615
 40
0.7534118003496274
 40
0.7985150107871076
 40
0.8450643214401181
 40
0.893873119008405
 40
0.9447078060036507
 40
1.0
 40
1.0
 40
1.0
 40
1.0
 10
-110.3740835336539
 20
20.86153846153845
 30
0.0
 10
-110.4554966223759
 20
20.86245539046167
 30
0.0
 10
-110.6113851937856
 20
20.86421111232614
 30
0.0
 10
-110.835573434065
 20
20.87235487809462
 30
0.0
 10
-111.0391898222873
 20
20.89197732946748
 30
0.0
 10
-111.2231087559382
 20
20.91676956341631
 30
0.0
 10
-111.3882556983807
 20
20.94539577784749
 30
0.0
 10
-111.53315759715
 20
20.98641888114656
 30
0.0
 10
-111.6600471693435
 20
21.03037617480379
 30
0.0
 10
-111.7674207687794
 20
21.08500368821394
 30
0.0
 10
-111.8591583049612
 20
21.14712701917696
 30
0.0
 10
-111.9383677958272
 20
21.2177006674515
 30
0.0
 10
-112.0038854020308
 20
21.29938067901384
 30
0.0
 10
-112.0578097337931
 20
21.38994734349444
 30
0.0
 10
-112.099757001183
 20
21.49020170074256
 30
0.0
 10
-112.1303752928308
 20
21.59904318507787
 30
0.0
 10
-112.1474863900579
 20
21.71771164101151
 30
0.0
 10
-112.1494550800789
 20
21.79960903387065
 30
0.0
 10
-112.1504807692308
 20
21.84227764423076
 30
0.0
  0
SPLINE
  5
158
330
1F
100
AcDbEntity
  8
0
  6
Continuous
 62
     7
370
    25
100
AcDbSpline
210
0.0
220
0.0
230
1.0
 70
     8
 71
     3
 72
    23
 73
    19
 74
     0
 42
0.000000001
 43
0.00000001
 40
0.0
 40
0.0
 40
0.0
 40
0.0
 40
0.0637689599577398
 40
0.1252623047603742
 40
0.1854135826663911
 40
0.2468067624960846
 40
0.3094223888496945
 40
0.3725326822170069
 40
0.4377332507368591
 40
0.5057495167426325
 40
0.544013263111272
 40
0.5883695992066275
 40
0.64038901939451
 40
0.6978974005877099
 40
0.7632716192950969
 40
0.8349786038393135
 40
0.9138736558434367
 40
1.0
 40
1.0
 40
1.0
 40
1.0
 10
-112.1504807692308
 20
21.84227764423076
 30
0.0
 10
-112.1485416099136
 20
21.89275772525167
 30
0.0
 10
-112.1447324907822
 20
21.99191648991336
 30
0.0
 10
-112.1069341952861
 20
22.13467034168609
 30
0.0
 10
-112.0467674735259
 20
22.26679879850747
 30
0.0
 10
-111.9642953772902
 20
22.38770487127815
 30
0.0
 10
-111.8604324941449
 20
22.49369948104339
 30
0.0
 10
-111.7412416412153
 20
22.58713457368033
 30
0.0
 10
-111.6041503922127
 20
22.66101605372419
 30
0.0
 10
-111.4772142119062
 20
22.70974749131376
 30
0.0
 10
-111.3617319580952
 20
22.73890401313956
 30
0.0
 10
-111.2575128674365
 20
22.76063119535033
 30
0.0
 10
-111.1368265329755
 20
22.77602987301304
 30
0.0
 10
-110.9995818431272
 20
22.79236291167398
 30
0.0
 10
-110.8461286392767
 20
22.80295406048997
 30
0.0
 10
-110.6756305096814
 20
22.81068348805386
 30
0.0
 10
-110.4885771236997
 20
22.81384597659195
 30
0.0
 10
-110.3581831480979
 20
22.81485696845447
 30
0.0
 10
-110.2901292067308
 20
22.81538461538461
 30
0.0
  0
LINE
  5
159
330
1F
100
AcDbEntity
  8
0
  6
Continuous
 62
     7
370
    25
100
AcDbLine
 10
-110.2901292067
 20
22.8153846154
 30
0.0
 11
-109.7081730769
 21
22.8153846154
 31
0.0
  0
LINE
  5
15A
330
1F
100
AcDbEntity
  8
0
  6
Continuous
 62
     7
370
    25
100
AcDbLine
 10
-129.0501051683
 20
22.8153846154
 30
0.0
 11
-128.5139423077
 21
22.8153846154
 31
0.0
  0
LINE
  5
15B
330
1F
100
AcDbEntity
  8
0
  6
Continuous
 62
     7
370
    25
100
AcDbLine
 10
-128.5139423077
 20
22.8153846154
 30
0.0
 11
-128.5139423077
 21
20.7394230769
 31
0.0
  0
LINE
  5
15C
330
1F
100
AcDbEntity
  8
0
  6
Continuous
 62
     7
370
    25
100
AcDbLine
 10
-128.5139423077
 20
20.7394230769
 30
0.0
 11
-128.9680588942
 21
20.7394230769
 31
0.0
  0
SPLINE
  5
15D
330
1F
100
AcDbEntity
  8
0
  6
Continuous
 62
     7
370
    25
100
AcDbSpline
210
0.0
220
0.0
230
1.0
 70
     8
 71
     3
 72
    19
 73
    15
 74
     0
 42
0.000000001
 43
0.00000001
 40
0.0
 40
0.0
 40
0.0
 40
0.0
 40
0.0887762289654563
 40
0.1713771372145559
 40
0.2481138113668566
 40
0.3211611878976276
 40
0.3880331325497848
 40
0.4520913744364374
 40
0.5122677074822273
 40
0.5688662368266956
 40
0.6769360002929841
 40
0.7810117272007129
 40
0.8869176462132635
 40
1.0
 40
1.0
 40
1.0
 40
1.0
 10
-128.9680588942308
 20
20.73942307692306
 30
0.0
 10
-129.0297774183855
 20
20.7399612858078
 30
0.0
 10
-129.1489212940152
 20
20.74100026548698
 30
0.0
 10
-129.3210119846866
 20
20.75438196297884
 30
0.0
 10
-129.4810285353558
 20
20.77721197011908
 30
0.0
 10
-129.6283640377771
 20
20.8090655730329
 30
0.0
 10
-129.7643909756671
 20
20.84951500442237
 30
0.0
 10
-129.8882403697606
 20
20.89818438163735
 30
0.0
 10
-129.999367676667
 20
20.95756631190716
 30
0.0
 10
-130.1284719049704
 20
21.04601831750728
 30
0.0
 10
-130.2649443844365
 20
21.17617940382083
 30
0.0
 10
-130.3850795732554
 20
21.36422406124898
 30
0.0
 10
-130.4558383972619
 20
21.58047470182435
 30
0.0
 10
-130.4637190218226
 20
21.73299139805327
 30
0.0
 10
-130.4677884615385
 20
21.81174879807691
 30
0.0
  0
SPLINE
  5
15E
330
1F
100
AcDbEntity
  8
0
  6
Continuous
 62
     7
370
    25
100
AcDbSpline
210
0.0
220
0.0
230
1.0
 70
     8
 71
     3
 72
    19
 73
    15
 74
     0
 42
0.000000001
 43
0.00000001
 40
0.0
 40
0.0
 40
0.0
 40
0.0
 40
0.1123318680474737
 40
0.2171891524479063
 40
0.3207763822148934
 40
0.4294461252394037
 40
0.4868895248481702
 40
0.5473481609653049
 40
0.6105516098532209
 40
0.6785404198027487
 40
0.7510057638701816
 40
0.8285633445446849
 40
0.9114938035709718
 40
1.0
 40
1.0
 40
1.0
 40
1.0
 10
-130.4677884615385
 20
21.81174879807691
 30
0.0
 10
-130.4645321647807
 20
21.88551818862661
 30
0.0
 10
-130.4582362458644
 20
22.02814834059129
 30
0.0
 10
-130.3869912077051
 20
22.22841377663602
 30
0.0
 10
-130.2763335785068
 20
22.40588993963113
 30
0.0
 10
-130.1456866938641
 20
22.52735785935257
 30
0.0
 10
-130.0226572651398
 20
22.61031686738123
 30
0.0
 10
-129.9173119184802
 20
22.66494184141576
 30
0.0
 10
-129.8016874901167
 20
22.71384155987264
 30
0.0
 10
-129.673545614975
 20
22.75123147638582
 30
0.0
 10
-129.5336180534392
 20
22.77928755323485
 30
0.0
 10
-129.382584511765
 20
22.79989138171603
 30
0.0
 10
-129.2201844049775
 20
22.81391522392946
 30
0.0
 10
-129.108014305695
 20
22.81488431215327
 30
0.0
 10
-129.0501051682693
 20
22.81538461538461
 30
0.0
  0
LINE
  5
15F
330
1F
100
AcDbEntity
  8
0
  6
Continuous
 62
     7
370
    25
100
AcDbLine
 10
-128.922265625
 20
19.1519230769
 30
0.0
 11
-128.5139423077
 21
19.1519230769
 31
0.0
  0
LINE
  5
160
330
1F
100
AcDbEntity
  8
0
  6
Continuous
 62
     7
370
    25
100
AcDbLine
 10
-128.5139423077
 20
19.1519230769
 30
0.0
 11
-128.5139423077
 21
16.7096153846
 31
0.0
  0
LINE
  5
161
330
1F
100
AcDbEntity
  8
0
  6
Continuous
 62
     7
370
    25
100
AcDbLine
 10
-128.5139423077
 20
16.7096153846
 30
0.0
 11
-129.0062199519
 21
16.7096153846
 31
0.0
  0
SPLINE
  5
162
330
1F
100
AcDbEntity
  8
0
  6
Continuous
 62
     7
370
    25
100
AcDbSpline
210
0.0
220
0.0
230
1.0
 70
     8
 71
     3
 72
    23
 73
    19
 74
     0
 42
0.000000001
 43
0.00000001
 40
0.0
 40
0.0
 40
0.0
 40
0.0
 40
0.1095674252695396
 40
0.2106570473717266
 40
0.3020024587326091
 40
0.3851432164195873
 40
0.459012612930871
 40
0.5247192090460423
 40
0.5832266479388912
 40
0.6342083193258289
 40
0.681185727793254
 40
0.726275134364318
 40
0.7701133344783277
 40
0.8140800070141073
 40
0.857994168078313
 40
0.9033387195085176
 40
0.950544782838981
 40
1.0
 40
1.0
 40
1.0
 40
1.0
 10
-129.0062199519232
 20
16.70961538461538
 30
0.0
 10
-129.103543868976
 20
16.71017139253454
 30
0.0
 10
-129.2906612440041
 20
16.71124038714017
 30
0.0
 10
-129.5587065521812
 20
16.72415638416567
 30
0.0
 10
-129.8024267486768
 20
16.74743519302679
 30
0.0
 10
-130.0211760669183
 20
16.77649691068576
 30
0.0
 10
-130.2152895628978
 20
16.81587099250444
 30
0.0
 10
-130.3841110865356
 20
16.86593009148056
 30
0.0
 10
-130.5299558061849
 20
16.92100381944188
 30
0.0
 10
-130.6519492296878
 20
16.98902641251339
 30
0.0
 10
-130.75161086804
 20
17.06818784243476
 30
0.0
 10
-130.8415450475433
 20
17.14909272538171
 30
0.0
 10
-130.91487177354
 20
17.2424241514841
 30
0.0
 10
-130.9728892475295
 20
17.3441756612882
 30
0.0
 10
-131.0231032688095
 20
17.451819673845
 30
0.0
 10
-131.0533888205037
 20
17.56955964910466
 30
0.0
 10
-131.0764471766469
 20
17.69390605655827
 30
0.0
 10
-131.0777161397104
 20
17.77991377750941
 30
0.0
 10
-131.0783653846155
 20
17.82391826923076
 30
0.0
  0
SPLINE
  5
163
330
1F
100
AcDbEntity
  8
0
  6
Continuous
 62
     7
370
    25
100
AcDbSpline
210
0.0
220
0.0
230
1.0
 70
     8
 71
     3
 72
    23
 73
    19
 74
     0
 42
0.000000001
 43
0.00000001
 40
0.0
 40
0.0
 40
0.0
 40
0.0
 40
0.0528263492812286
 40
0.1028915173965563
 40
0.1516981461048791
 40
0.1995775881235302
 40
0.2472235843729605
 40
0.295723120383669
 40
0.3462538147999425
 40
0.3985071702228935
 40
0.4542901722394571
 40
0.5140415865121244
 40
0.5790927186074071
 40
0.6500371484472917
 40
0.7274510007645173
 40
0.811452006589286
 40
0.9024758798237912
 40
1.0
 40
1.0
 40
1.0
 40
1.0
 10
-131.0783653846155
 20
17.82391826923076
 30
0.0
 10
-131.0769336132735
 20
17.87423809764288
 30
0.0
 10
-131.0741449078652
 20
17.97224758667449
 30
0.0
 10
-131.0513695169523
 20
18.11549891469459
 30
0.0
 10
-131.0099791919082
 20
18.24923353414344
 30
0.0
 10
-130.9578460580349
 20
18.37687121964874
 30
0.0
 10
-130.88530003237
 20
18.49384209747505
 30
0.0
 10
-130.7990815600898
 20
18.60419408613573
 30
0.0
 10
-130.6949076352547
 20
18.70419032669532
 30
0.0
 10
-130.5777579794522
 20
18.79987896552323
 30
0.0
 10
-130.441114504464
 20
18.88365955299666
 30
0.0
 10
-130.2849131011144
 20
18.95635405263238
 30
0.0
 10
-130.1083051983646
 20
19.01706582165938
 30
0.0
 10
-129.9107437345399
 20
19.06540457198354
 30
0.0
 10
-129.6930948037685
 20
19.1064290012355
 30
0.0
 10
-129.4537698079608
 20
19.13092511424217
 30
0.0
 10
-129.1947619287971
 20
19.14914395004674
 30
0.0
 10
-129.0151616502221
 20
19.15097565181381
 30
0.0
 10
-128.9222656250001
 20
19.15192307692307
 30
0.0
  0
SPLINE
  5
164
330
1F
100
AcDbEntity
  8
0
  6
Continuous
 62
     7
370
    25
100
AcDbSpline
210
0.0
220
0.0
230
1.0
 70
     8
 71
     3
 72
    23
 73
    19
 74
     0
 42
0.000000001
 43
0.00000001
 40
0.0
 40
0.0
 40
0.0
 40
0.0
 40
0.065939124057659
 40
0.1297911093795354
 40
0.19217523630533
 40
0.2536170442157543
 40
0.3147191079962371
 40
0.3762822754113766
 40
0.4389729923739144
 40
0.5031747018386438
 40
0.5673294646239477
 40
0.6296509938060318
 40
0.6906498673030977
 40
0.7512376127977871
 40
0.8117541138236087
 40
0.8727877774488562
 40
0.9355396326682327
 40
1.0
 40
1.0
 40
1.0
 40
1.0
 10
-142.1908653846155
 20
19.75677584134614
 30
0.0
 10
-142.1878521068814
 20
19.87012392345437
 30
0.0
 10
-142.1819209292145
 20
20.09323233645066
 30
0.0
 10
-142.1374308279243
 20
20.42122106838629
 30
0.0
 10
-142.0627464529899
 20
20.73549081822039
 30
0.0
 10
-141.9593262178445
 20
21.03655482163846
 30
0.0
 10
-141.8272640540788
 20
21.32470823310888
 30
0.0
 10
-141.6639557912175
 20
21.59893773491239
 30
0.0
 10
-141.4699744577393
 20
21.85897821417053
 30
0.0
 10
-141.2497845219884
 20
22.10305759446028
 30
0.0
 10
-141.0101213100792
 20
22.32735091032371
 30
0.0
 10
-140.7528189051984
 20
22.52199673608236
 30
0.0
 10
-140.4850769174378
 20
22.69113776997872
 30
0.0
 10
-140.2007520392743
 20
22.8236360261321
 30
0.0
 10
-139.9056613197094
 20
22.92919710574212
 30
0.0
 10
-139.5980040994969
 20
23.00693379948876
 30
0.0
 10
-139.2766151080735
 20
23.05040698068959
 30
0.0
 10
-139.0579675319574
 20
23.05651855632105
 30
0.0
 10
-138.9471754807694
 20
23.05961538461538
 30
0.0
  0
SPLINE
  5
165
330
1F
100
AcDbEntity
  8
0
  6
Continuous
 62
     7
370
    25
100
AcDbSpline
210
0.0
220
0.0
230
1.0
 70
     8
 71
     3
 72
    23
 73
    19
 74
     0
 42
0.000000001
 43
0.00000001
 40
0.0
 40
0.0
 40
0.0
 40
0.0
 40
0.0646087354707748
 40
0.127511789723679
 40
0.1885213083986493
 40
0.24870817908937
 40
0.308598265178914
 40
0.3688122491095552
 40
0.4298875018150779
 40
0.4928024479242467
 40
0.555743332102794
 40
0.617485294839566
 40
0.6789689634380386
 40
0.7401976913545546
 40
0.8023601016976104
 40
0.8662447764427326
 40
0.9317068283956895
 40
1.0
 40
1.0
 40
1.0
 40
1.0
 10
-138.9471754807693
 20
23.05961538461537
 30
0.0
 10
-138.8357241462886
 20
23.05662489507295
 30
0.0
 10
-138.6157638108452
 20
23.05072286540274
 30
0.0
 10
-138.2931220570746
 20
23.00575738202077
 30
0.0
 10
-137.983374579237
 20
22.93394239400557
 30
0.0
 10
-137.6882384302286
 20
22.8299192614337
 30
0.0
 10
-137.4064344642491
 20
22.69752421484792
 30
0.0
 10
-137.1374631301741
 20
22.53721985858093
 30
0.0
 10
-136.8850491249428
 20
22.34349590975531
 30
0.0
 10
-136.6458267517682
 20
22.12675254333971
 30
0.0
 10
-136.4297287022214
 20
21.88525062247063
 30
0.0
 10
-136.2387992582114
 20
21.62644024254483
 30
0.0
 10
-136.0790220661608
 20
21.35075361260287
 30
0.0
 10
-135.9452076668932
 20
21.06075179628651
 30
0.0
 10
-135.8444750816651
 20
20.75317379988104
 30
0.0
 10
-135.7727262814385
 20
20.43042891521096
 30
0.0
 10
-135.7273837179003
 20
20.09196103672984
 30
0.0
 10
-135.721668231435
 20
19.86122792456957
 30
0.0
 10
-135.7187500000001
 20
19.74341947115384
 30
0.0
  0
SPLINE
  5
166
330
1F
100
AcDbEntity
  8
0
  6
Continuous
 62
     7
370
    25
100
AcDbSpline
210
0.0
220
0.0
230
1.0
 70
     8
 71
     3
 72
    15
 73
    11
 74
     0
 42
0.000000001
 43
0.00000001
 40
0.0
 40
0.0
 40
0.0
 40
0.0
 40
0.1348068327792205
 40
0.2641990558543177
 40
0.3884618167279434
 40
0.5099420983643727
 40
0.6304096106127703
 40
0.7506710345119791
 40
0.8734547255294232
 40
1.0
 40
1.0
 40
1.0
 40
1.0
 10
-135.7187500000001
 20
19.74341947115384
 30
0.0
 10
-135.7226191293514
 20
19.61286120410107
 30
0.0
 10
-135.7302019817966
 20
19.3569886331179
 30
0.0
 10
-135.7835558538822
 20
18.98372862047885
 30
0.0
 10
-135.8748390180403
 20
18.63122158455953
 30
0.0
 10
-136.0066501322912
 20
18.30119158459755
 30
0.0
 10
-136.1701304950122
 20
17.98997388459297
 30
0.0
 10
-136.3731471595523
 20
17.70138289985046
 30
0.0
 10
-136.6124122169822
 20
17.43369068238441
 30
0.0
 10
-136.7967400787898
 20
17.27740081567433
 30
0.0
 10
-136.8902944711539
 20
17.19807692307691
 30
0.0
  0
SPLINE
  5
167
330
1F
100
AcDbEntity
  8
0
  6
Continuous
 62
     7
370
    25
100
AcDbSpline
210
0.0
220
0.0
230
1.0
 70
     8
 71
     3
 72
    15
 73
    11
 74
     0
 42
0.000000001
 43
0.00000001
 40
0.0
 40
0.0
 40
0.0
 40
0.0
 40
0.1279910255623712
 40
0.253098391501711
 40
0.3761840584327916
 40
0.498936312470131
 40
0.6215258806257278
 40
0.7457068938016908
 40
0.8715753502968709
 40
1.0
 40
1.0
 40
1.0
 40
1.0
 10
-136.8902944711539
 20
17.19807692307691
 30
0.0
 10
-136.9669333791549
 20
17.13947547785314
 30
0.0
 10
-137.118484507496
 20
17.02359288795559
 30
0.0
 10
-137.3603931036433
 20
16.87506557624796
 30
0.0
 10
-137.6095113236579
 20
16.74776285363862
 30
0.0
 10
-137.867719076829
 20
16.64490375974632
 30
0.0
 10
-138.1344710416696
 20
16.56399652542843
 30
0.0
 10
-138.4097306383073
 20
16.5073385196205
 30
0.0
 10
-138.6931078471821
 20
16.47178072111823
 30
0.0
 10
-138.8847407962815
 20
16.46753089061129
 30
0.0
 10
-138.9815204326924
 20
16.4653846153846
 30
0.0
  0
SPLINE
  5
168
330
1F
100
AcDbEntity
  8
0
  6
Continuous
 62
     7
370
    25
100
AcDbSpline
210
0.0
220
0.0
230
1.0
 70
     8
 71
     3
 72
    23
 73
    19
 74
     0
 42
0.000000001
 43
0.00000001
 40
0.0
 40
0.0
 40
0.0
 40
0.0
 40
0.0641474448766711
 40
0.1262121152536867
 40
0.1868412890216913
 40
0.2469358694509792
 40
0.3072563614860021
 40
0.3681505022006764
 40
0.4300707669516578
 40
0.493875441736954
 40
0.5579806818508463
 40
0.6208695259285348
 40
0.6825247313751581
 40
0.7440356981057709
 40
0.8058886825781891
 40
0.8689681377436668
 40
0.9332474288479397
 40
1.0
 40
1.0
 40
1.0
 40
1.0
 10
-138.9815204326924
 20
16.4653846153846
 30
0.0
 10
-139.0910553587453
 20
16.46840046096235
 30
0.0
 10
-139.3065687706647
 20
16.47433423198594
 30
0.0
 10
-139.6232043739793
 20
16.5187461656091
 30
0.0
 10
-139.9265508989542
 20
16.59390719230125
 30
0.0
 10
-140.2184915464973
 20
16.69701779710747
 30
0.0
 10
-140.4981844902919
 20
16.83107517803042
 30
0.0
 10
-140.7642627945033
 20
16.99635167253778
 30
0.0
 10
-141.0171929670428
 20
17.19081789808228
 30
0.0
 10
-141.2561105740591
 20
17.41040757955131
 30
0.0
 10
-141.4744925607846
 20
17.6528608511088
 30
0.0
 10
-141.6650235745189
 20
17.91305169886516
 30
0.0
 10
-141.8298808828577
 20
18.18524733976885
 30
0.0
 10
-141.9609126096891
 20
18.47330029036204
 30
0.0
 10
-142.065624911744
 20
18.77449146560834
 30
0.0
 10
-142.1365101777716
 20
19.09015477640999
 30
0.0
 10
-142.1822357831574
 20
19.41898893871595
 30
0.0
 10
-142.1879528799486
 20
19.64277220686649
 30
0.0
 10
-142.1908653846155
 20
19.75677584134614
 30
0.0
  0
SPLINE
  5
169
330
1F
100
AcDbEntity
  8
0
  6
Continuous
 62
     7
370
    25
100
AcDbSpline
210
0.0
220
0.0
230
1.0
 70
     8
 71
     3
 72
    23
 73
    19
 74
     0
 42
0.000000001
 43
0.00000001
 40
0.0
 40
0.0
 40
0.0
 40
0.0
 40
0.1121147956622138
 40
0.2158018426882344
 40
0.3102026923156561
 40
0.3959929252987152
 40
0.4734102307422366
 40
0.5427784203605537
 40
0.604548022282933
 40
0.6593572656120982
 40
0.7087643617117438
 40
0.755355505948482
 40
0.7986869938006744
 40
0.8400168391480721
 40
0.880203447006545
 40
0.9197333482458325
 40
0.9590486059010161
 40
1.0
 40
1.0
 40
1.0
 40
1.0
 10
-166.1254807692308
 20
19.75868389423075
 30
0.0
 10
-166.1248525390756
 20
19.9088170572297
 30
0.0
 10
-166.1236433032709
 20
20.19779776697832
 30
0.0
 10
-166.1014573278167
 20
20.61266357077509
 30
0.0
 10
-166.0705616617979
 20
20.99157462944703
 30
0.0
 10
-166.0253702214659
 20
21.33368498863117
 30
0.0
 10
-165.9672232195414
 20
21.63982514263433
 30
0.0
 10
-165.8955568201958
 20
21.9099750786153
 30
0.0
 10
-165.8110674664911
 20
22.14466721016244
 30
0.0
 10
-165.7108731619444
 20
22.34366751694327
 30
0.0
 10
-165.5999017443177
 20
22.51279047940397
 30
0.0
 10
-165.4821021969801
 20
22.65788486281367
 30
0.0
 10
-165.3569764154232
 20
22.7817627867207
 30
0.0
 10
-165.2247336505567
 20
22.8848904254565
 30
0.0
 10
-165.0823130975751
 20
22.96368767612633
 30
0.0
 10
-164.9324351745008
 20
23.01932505371947
 30
0.0
 10
-164.7747926202917
 20
23.05298380130562
 30
0.0
 10
-164.6672580807904
 20
23.05737502032219
 30
0.0
 10
-164.6123948317308
 20
23.05961538461537
 30
0.0
  0
SPLINE
  5
16A
330
1F
100
AcDbEntity
  8
0
  6
Continuous
 62
     7
370
    25
100
AcDbSpline
210
0.0
220
0.0
230
1.0
 70
     8
 71
     3
 72
    27
 73
    23
 74
     0
 42
0.000000001
 43
0.00000001
 40
0.0
 40
0.0
 40
0.0
 40
0.0
 40
0.053833700895915
 40
0.1055426304091389
 40
0.1580541720958401
 40
0.2119873357804035
 40
0.2402068903290477
 40
0.2697935103595467
 40
0.3013430987966768
 40
0.3346080613711936
 40
0.3702844416648615
 40
0.4080888380149474
 40
0.4486813458099826
 40
0.4920692965602027
 40
0.5386641566662667
 40
0.5903710538753829
 40
0.6463877841547201
 40
0.7071953757631246
 40
0.77294677468184
 40
0.8436426012467377
 40
0.9193083570571438
 40
1.0
 40
1.0
 40
1.0
 40
1.0
 10
-164.6123948317308
 20
23.05961538461537
 30
0.0
 10
-164.5375859032514
 20
23.05606959013652
 30
0.0
 10
-164.3909206924557
 20
23.04911795073669
 30
0.0
 10
-164.1781024835916
 20
22.99010834001785
 30
0.0
 10
-163.9774282003218
 20
22.89896481457952
 30
0.0
 10
-163.8247806328204
 20
22.78928783206869
 30
0.0
 10
-163.7105254467219
 20
22.68414929167772
 30
0.0
 10
-163.6306945289168
 20
22.58900233187615
 30
0.0
 10
-163.5537101908825
 20
22.48282518205888
 30
0.0
 10
-163.4857137467421
 20
22.36082661332115
 30
0.0
 10
-163.4215073539215
 20
22.22739017848769
 30
0.0
 10
-163.3587583547964
 20
22.08191015601005
 30
0.0
 10
-163.3073206525404
 20
21.920813241888
 30
0.0
 10
-163.2567844737512
 20
21.74684293724103
 30
0.0
 10
-163.2125100657148
 20
21.55518942535606
 30
0.0
 10
-163.1754178179389
 20
21.34428615022584
 30
0.0
 10
-163.1422791549853
 20
21.11276158847488
 30
0.0
 10
-163.1191645423665
 20
20.86046409121421
 30
0.0
 10
-163.0976147867914
 20
20.58765762381397
 30
0.0
 10
-163.0821669014893
 20
20.29373447935768
 30
0.0
 10
-163.0757085283939
 20
19.97877395200826
 30
0.0
 10
-163.0736556081005
 20
19.76186531089416
 30
0.0
 10
-163.0725961538462
 20
19.64992487980768
 30
0.0
  0
SPLINE
  5
16B
330
1F
100
AcDbEntity
  8
0
  6
Continuous
 62
     7
370
    25
100
AcDbSpline
210
0.0
220
0.0
230
1.0
 70
     8
 71
     3
 72
    23
 73
    19
 74
     0
 42
0.000000001
 43
0.00000001
 40
0.0
 40
0.0
 40
0.0
 40
0.0
 40
0.1107342804863384
 40
0.2123411929916481
 40
0.3055021255634821
 40
0.3898348410859865
 40
0.4666904579461268
 40
0.5352618542932994
 40
0.5967629138889601
 40
0.651065718983616
 40
0.7010355511102149
 40
0.747860270907754
 40
0.7918333971357266
 40
0.8342840069087829
 40
0.8753338897746176
 40
0.9160347492783119
 40
0.95765228072324
 40
1.0
 40
1.0
 40
1.0
 40
1.0
 10
-163.0725961538462
 20
19.64992487980768
 30
0.0
 10
-163.0743398869948
 20
19.50490063984404
 30
0.0
 10
-163.0776836245927
 20
19.22680590719812
 30
0.0
 10
-163.0951965593923
 20
18.8268959984119
 30
0.0
 10
-163.1302997837624
 20
18.46294577969346
 30
0.0
 10
-163.1739611074032
 20
18.13248862568954
 30
0.0
 10
-163.23528521937
 20
17.83766763953221
 30
0.0
 10
-163.3058425797965
 20
17.57569354119671
 30
0.0
 10
-163.3929746462358
 20
17.34990586442121
 30
0.0
 10
-163.493672537867
 20
17.15703921146716
 30
0.0
 10
-163.6051999900726
 20
16.99296795052753
 30
0.0
 10
-163.7262679455395
 20
16.85350663977368
 30
0.0
 10
-163.8527544741955
 20
16.73273972436961
 30
0.0
 10
-163.9886076318262
 20
16.63464224717541
 30
0.0
 10
-164.1335033135993
 20
16.55946486262621
 30
0.0
 10
-164.2862319069945
 20
16.5053906983377
 30
0.0
 10
-164.4468904688723
 20
16.47228965042907
 30
0.0
 10
-164.5569077958587
 20
16.46769959923513
 30
0.0
 10
-164.6123948317308
 20
16.4653846153846
 30
0.0
  0
SPLINE
  5
16C
330
1F
100
AcDbEntity
  8
0
  6
Continuous
 62
     7
370
    25
100
AcDbSpline
210
0.0
220
0.0
230
1.0
 70
     8
 71
     3
 72
    15
 73
    11
 74
     0
 42
0.000000001
 43
0.00000001
 40
0.0
 40
0.0
 40
0.0
 40
0.0
 40
0.124035433002607
 40
0.2428459548115353
 40
0.3603416824496176
 40
0.4790424316556534
 40
0.5993341100427875
 40
0.7254884757708274
 40
0.8585494285274579
 40
1.0
 40
1.0
 40
1.0
 40
1.0
 10
-164.6123948317308
 20
16.4653846153846
 30
0.0
 10
-164.6659777283914
 20
16.46696869933208
 30
0.0
 10
-164.7708863773647
 20
16.4700701387306
 30
0.0
 10
-164.9238666826893
 20
16.50190599726803
 30
0.0
 10
-165.0685357296401
 20
16.55366418862831
 30
0.0
 10
-165.204456717234
 20
16.62687978401762
 30
0.0
 10
-165.3321158160031
 20
16.71998461583961
 30
0.0
 10
-165.4508891068799
 20
16.83338782618401
 30
0.0
 10
-165.5598808255168
 20
16.96821978097035
 30
0.0
 10
-165.6233798955812
 20
17.06828503242583
 30
0.0
 10
-165.6560997596154
 20
17.11984675480767
 30
0.0
  0
SPLINE
  5
16D
330
1F
100
AcDbEntity
  8
0
  6
Continuous
 62
     7
370
    25
100
AcDbSpline
210
0.0
220
0.0
230
1.0
 70
     8
 71
     3
 72
    15
 73
    11
 74
     0
 42
0.000000001
 43
0.00000001
 40
0.0
 40
0.0
 40
0.0
 40
0.0
 40
0.0888707311225374
 40
0.1863547159714928
 40
0.2940776543961753
 40
0.4122365279576106
 40
0.5417781444209643
 40
0.6827026066315669
 40
0.83509635260417
 40
1.0
 40
1.0
 40
1.0
 40
1.0
 10
-165.6560997596154
 20
17.11984675480767
 30
0.0
 10
-165.6946218889022
 20
17.19030420051495
 30
0.0
 10
-165.7753996699688
 20
17.3380477502417
 30
0.0
 10
-165.8688758577051
 20
17.58735948152697
 30
0.0
 10
-165.9475589025905
 20
17.86854190887733
 30
0.0
 10
-166.015280248757
 20
18.18247009870523
 30
0.0
 10
-166.0615975184219
 20
18.53038222251641
 30
0.0
 10
-166.1014858945585
 20
18.91007213943125
 30
0.0
 10
-166.120725049559
 20
19.32345181423317
 30
0.0
 10
-166.1238544029362
 20
19.60984274419607
 30
0.0
 10
-166.1254807692308
 20
19.75868389423075
 30
0.0
  0
ENDSEC
  0
SECTION
  2
OBJECTS
  0
DICTIONARY
  5
C
330
0
100
AcDbDictionary
281
     1
  3
ACAD_GROUP
350
D
  3
ACAD_LAYOUT
350
1A
  3
ACAD_MLINESTYLE
350
17
  3
ACAD_PLOTSETTINGS
350
19
  3
ACAD_PLOTSTYLENAME
350
E
  3
ACAD_SCALELIST
350
47
  0
DICTIONARY
  5
D
102
{ACAD_REACTORS
330
C
102
}
330
C
100
AcDbDictionary
281
     1
  0
DICTIONARY
  5
1A
102
{ACAD_REACTORS
330
C
102
}
330
C
100
AcDbDictionary
281
     1
  3
Layout1
350
1E
  3
Layout2
350
26
  3
Model
350
22
  0
DICTIONARY
  5
17
102
{ACAD_REACTORS
330
C
102
}
330
C
100
AcDbDictionary
281
     1
  3
Standard
350
18
  0
DICTIONARY
  5
19
102
{ACAD_REACTORS
330
C
102
}
330
C
100
AcDbDictionary
281
     1
  0
ACDBDICTIONARYWDFLT
  5
E
102
{ACAD_REACTORS
330
C
102
}
330
C
100
AcDbDictionary
281
     1
  3
Normal
350
F
100
AcDbDictionaryWithDefault
340
F
  0
DICTIONARY
  5
47
102
{ACAD_REACTORS
330
C
102
}
330
C
100
AcDbDictionary
281
     1
  3
A0
350
48
  3
A1
350
49
  3
A2
350
4A
  3
A3
350
4B
  3
A4
350
4C
  3
A5
350
4D
  3
A6
350
4E
  3
A7
350
4F
  3
A8
350
50
  3
A9
350
51
  3
B0
350
52
  3
B1
350
53
  3
B2
350
54
  3
B3
350
55
  3
B4
350
56
  3
B5
350
57
  3
B6
350
58
  3
B7
350
59
  3
B8
350
5A
  3
B9
350
5B
  3
C0
350
5C
  3
C1
350
5D
  3
C2
350
5E
  3
C3
350
5F
  3
C4
350
60
  3
C5
350
61
  3
C6
350
62
  3
C7
350
63
  3
C8
350
64
  3
C9
350
65
  3
D0
350
66
  3
D1
350
67
  3
D2
350
68
  0
LAYOUT
  5
1E
102
{ACAD_REACTORS
330
1A
102
}
330
1A
100
AcDbPlotSettings
  1

  2
none_device
  4

  6

 40
0.0
 41
0.0
 42
0.0
 43
0.0
 44
0.0
 45
0.0
 46
0.0
 47
0.0
 48
0.0
 49
0.0
140
0.0
141
0.0
142
1.0
143
1.0
 70
   688
 72
     1
 73
     0
 74
     5
  7

 75
    16
147
1.0
148
0.0
149
0.0
100
AcDbLayout
  1
Layout1
 70
     1
 71
     1
 10
0.0
 20
0.0
 11
420.0
 21
297.0
 12
0.0
 22
0.0
 32
0.0
 14
1.0000000000E+20
 24
1.0000000000E+20
 34
1.0000000000E+20
 15
-1.0000000000E+20
 25
-1.0000000000E+20
 35
-1.0000000000E+20
146
0.0
 13
0.0
 23
0.0
 33
0.0
 16
1.0
 26
0.0
 36
0.0
 17
0.0
 27
1.0
 37
0.0
 76
     0
330
1B
  0
LAYOUT
  5
26
102
{ACAD_REACTORS
330
1A
102
}
330
1A
100
AcDbPlotSettings
  1

  2
none_device
  4

  6

 40
0.0
 41
0.0
 42
0.0
 43
0.0
 44
0.0
 45
0.0
 46
0.0
 47
0.0
 48
0.0
 49
0.0
140
0.0
141
0.0
142
1.0
143
1.0
 70
   688
 72
     1
 73
     0
 74
     5
  7

 75
    16
147
1.0
148
0.0
149
0.0
100
AcDbLayout
  1
Layout2
 70
     1
 71
     2
 10
0.0
 20
0.0
 11
0.0
 21
0.0
 12
0.0
 22
0.0
 32
0.0
 14
0.0
 24
0.0
 34
0.0
 15
0.0
 25
0.0
 35
0.0
146
0.0
 13
0.0
 23
0.0
 33
0.0
 16
1.0
 26
0.0
 36
0.0
 17
0.0
 27
1.0
 37
0.0
 76
     0
330
23
  0
LAYOUT
  5
22
102
{ACAD_REACTORS
330
1A
102
}
330
1A
100
AcDbPlotSettings
  1

  2
none_device
  4
ANSI_A_(11.00_x_8.50_Inches)
  6

 40
6.35
 41
19.05
 42
6.35000508
 43
19.05000254
 44
279.4
 45
215.9
 46
271.65299746
 47
68.15454873
 48
0.0
 49
0.0
140
0.0
141
0.0
142
0.05445
143
1.0
 70
  1696
 72
     0
 73
     0
 74
     0
  7

 75
     0
147
0.0179189148
148
-1300.4909072572
149
0.0
100
AcDbLayout
  1
Model
 70
     1
 71
     0
 10
0.0
 20
0.0
 11
420.0
 21
297.0
 12
0.0
 22
0.0
 32
0.0
 14
-200.0
 24
-5.0
 34
0.0
 15
0.0
 25
35.0
 35
0.0
146
0.0
 13
0.0
 23
0.0
 33
0.0
 16
1.0
 26
0.0
 36
0.0
 17
0.0
 27
1.0
 37
0.0
 76
     0
330
1F
331
29
  0
MLINESTYLE
  5
18
102
{ACAD_REACTORS
330
17
102
}
330
17
100
AcDbMlineStyle
  2
Standard
 70
     0
  3

 62
   256
 51
90.0
 52
90.0
 71
     2
 49
0.5
 62
   256
  6
BYLAYER
 49
-0.5
 62
   256
  6
BYLAYER
  0
ACDBPLACEHOLDER
  5
F
102
{ACAD_REACTORS
330
E
102
}
330
E
  0
SCALE
  5
48
102
{ACAD_REACTORS
330
47
102
}
330
47
100
AcDbScale
 70
     0
300
1:1
140
1.0
141
1.0
290
     1
  0
SCALE
  5
49
102
{ACAD_REACTORS
330
47
102
}
330
47
100
AcDbScale
 70
     0
300
1:2
140
1.0
141
2.0
290
     0
  0
SCALE
  5
4A
102
{ACAD_REACTORS
330
47
102
}
330
47
100
AcDbScale
 70
     0
300
1:4
140
1.0
141
4.0
290
     0
  0
SCALE
  5
4B
102
{ACAD_REACTORS
330
47
102
}
330
47
100
AcDbScale
 70
     0
300
1:5
140
1.0
141
5.0
290
     0
  0
SCALE
  5
4C
102
{ACAD_REACTORS
330
47
102
}
330
47
100
AcDbScale
 70
     0
300
1:8
140
1.0
141
8.0
290
     0
  0
SCALE
  5
4D
102
{ACAD_REACTORS
330
47
102
}
330
47
100
AcDbScale
 70
     0
300
1:10
140
1.0
141
10.0
290
     0
  0
SCALE
  5
4E
102
{ACAD_REACTORS
330
47
102
}
330
47
100
AcDbScale
 70
     0
300
1:16
140
1.0
141
16.0
290
     0
  0
SCALE
  5
4F
102
{ACAD_REACTORS
330
47
102
}
330
47
100
AcDbScale
 70
     0
300
1:20
140
1.0
141
20.0
290
     0
  0
SCALE
  5
50
102
{ACAD_REACTORS
330
47
102
}
330
47
100
AcDbScale
 70
     0
300
1:30
140
1.0
141
30.0
290
     0
  0
SCALE
  5
51
102
{ACAD_REACTORS
330
47
102
}
330
47
100
AcDbScale
 70
     0
300
1:40
140
1.0
141
40.0
290
     0
  0
SCALE
  5
52
102
{ACAD_REACTORS
330
47
102
}
330
47
100
AcDbScale
 70
     0
300
1:50
140
1.0
141
50.0
290
     0
  0
SCALE
  5
53
102
{ACAD_REACTORS
330
47
102
}
330
47
100
AcDbScale
 70
     0
300
1:100
140
1.0
141
100.0
290
     0
  0
SCALE
  5
54
102
{ACAD_REACTORS
330
47
102
}
330
47
100
AcDbScale
 70
     0
300
2:1
140
2.0
141
1.0
290
     0
  0
SCALE
  5
55
102
{ACAD_REACTORS
330
47
102
}
330
47
100
AcDbScale
 70
     0
300
4:1
140
4.0
141
1.0
290
     0
  0
SCALE
  5
56
102
{ACAD_REACTORS
330
47
102
}
330
47
100
AcDbScale
 70
     0
300
8:1
140
8.0
141
1.0
290
     0
  0
SCALE
  5
57
102
{ACAD_REACTORS
330
47
102
}
330
47
100
AcDbScale
 70
     0
300
10:1
140
10.0
141
1.0
290
     0
  0
SCALE
  5
58
102
{ACAD_REACTORS
330
47
102
}
330
47
100
AcDbScale
 70
     0
300
100:1
140
100.0
141
1.0
290
     0
  0
SCALE
  5
59
102
{ACAD_REACTORS
330
47
102
}
330
47
100
AcDbScale
 70
     0
300
1/128" = 1'-0"
140
0.0078125
141
12.0
290
     0
  0
SCALE
  5
5A
102
{ACAD_REACTORS
330
47
102
}
330
47
100
AcDbScale
 70
     0
300
1/64" = 1'-0"
140
0.015625
141
12.0
290
     0
  0
SCALE
  5
5B
102
{ACAD_REACTORS
330
47
102
}
330
47
100
AcDbScale
 70
     0
300
1/32" = 1'-0"
140
0.03125
141
12.0
290
     0
  0
SCALE
  5
5C
102
{ACAD_REACTORS
330
47
102
}
330
47
100
AcDbScale
 70
     0
300
1/16" = 1'-0"
140
0.0625
141
12.0
290
     0
  0
SCALE
  5
5D
102
{ACAD_REACTORS
330
47
102
}
330
47
100
AcDbScale
 70
     0
300
3/32" = 1'-0"
140
0.09375
141
12.0
290
     0
  0
SCALE
  5
5E
102
{ACAD_REACTORS
330
47
102
}
330
47
100
AcDbScale
 70
     0
300
1/8" = 1'-0"
140
0.125
141
12.0
290
     0
  0
SCALE
  5
5F
102
{ACAD_REACTORS
330
47
102
}
330
47
100
AcDbScale
 70
     0
300
3/16" = 1'-0"
140
0.1875
141
12.0
290
     0
  0
SCALE
  5
60
102
{ACAD_REACTORS
330
47
102
}
330
47
100
AcDbScale
 70
     0
300
1/4" = 1'-0"
140
0.25
141
12.0
290
     0
  0
SCALE
  5
61
102
{ACAD_REACTORS
330
47
102
}
330
47
100
AcDbScale
 70
     0
300
3/8" = 1'-0"
140
0.375
141
12.0
290
     0
  0
SCALE
  5
62
102
{ACAD_REACTORS
330
47
102
}
330
47
100
AcDbScale
 70
     0
300
1/2" = 1'-0"
140
0.5
141
12.0
290
     0
  0
SCALE
  5
63
102
{ACAD_REACTORS
330
47
102
}
330
47
100
AcDbScale
 70
     0
300
3/4" = 1'-0"
140
0.75
141
12.0
290
     0
  0
SCALE
  5
64
102
{ACAD_REACTORS
330
47
102
}
330
47
100
AcDbScale
 70
     0
300
1" = 1'-0"
140
1.0
141
12.0
290
     0
  0
SCALE
  5
65
102
{ACAD_REACTORS
330
47
102
}
330
47
100
AcDbScale
 70
     0
300
1-1/2" = 1'-0"
140
1.5
141
12.0
290
     0
  0
SCALE
  5
66
102
{ACAD_REACTORS
330
47
102
}
330
47
100
AcDbScale
 70
     0
300
3" = 1'-0"
140
3.0
141
12.0
290
     0
  0
SCALE
  5
67
102
{ACAD_REACTORS
330
47
102
}
330
47
100
AcDbScale
 70
     0
300
6" = 1'-0"
140
6.0
141
12.0
290
     0
  0
SCALE
  5
68
102
{ACAD_REACTORS
330
47
102
}
330
47
100
AcDbScale
 70
     0
300
1'-0" = 1'-0"
140
12.0
141
12.0
290
     0
  0
ENDSEC
  0
EOF
