  0
SECTION
  2
HEADER
  9
$ACADVER
  1
AC1015
  9
$ACADMAINTVER
 70
     6
  9
$DWGCODEPAGE
  3
ANSI_1252
  9
$INSBASE
 10
0.0
 20
0.0
 30
0.0
  9
$EXTMIN
 10
-89.1381766382
 20
-17.4074074074
 30
0.0
  9
$EXTMAX
 10
70.8618233618
 20
17.5925925926
 30
0.0
  9
$LIMMIN
 10
0.0
 20
0.0
  9
$LIMMAX
 10
420.0
 20
297.0
  9
$ORTHOMODE
 70
     0
  9
$REGENMODE
 70
     1
  9
$FILLMODE
 70
     1
  9
$QTEXTMODE
 70
     0
  9
$MIRRTEXT
 70
     1
  9
$LTSCALE
 40
1.0
  9
$ATTMODE
 70
     1
  9
$TEXTSIZE
 40
3.5
  9
$TRACEWID
 40
1.0
  9
$TEXTSTYLE
  7
Standard
  9
$CLAYER
  8
0
  9
$CELTYPE
  6
ByLayer
  9
$CECOLOR
 62
   256
  9
$CELTSCALE
 40
1.0
  9
$DISPSILH
 70
     0
  9
$DIMSCALE
 40
1.0
  9
$DIMASZ
 40
3.302
  9
$DIMEXO
 40
1.0
  9
$DIMDLI
 40
3.75
  9
$DIMRND
 40
0.0
  9
$DIMDLE
 40
0.0
  9
$DIMEXE
 40
1.0
  9
$DIMTP
 40
0.0
  9
$DIMTM
 40
0.0
  9
$DIMTXT
 40
3.5
  9
$DIMCEN
 40
2.5
  9
$DIMTSZ
 40
0.0
  9
$DIMTOL
 70
     0
  9
$DIMLIM
 70
     0
  9
$DIMTIH
 70
     1
  9
$DIMTOH
 70
     1
  9
$DIMSE1
 70
     0
  9
$DIMSE2
 70
     0
  9
$DIMTAD
 70
     1
  9
$DIMZIN
 70
     1
  9
$DIMBLK
  1

  9
$DIMASO
 70
     1
  9
$DIMSHO
 70
     1
  9
$DIMPOST
  1

  9
$DIMAPOST
  1

  9
$DIMALT
 70
     0
  9
$DIMALTD
 70
     3
  9
$DIMALTF
 40
0.0393700787
  9
$DIMLFAC
 40
1.0
  9
$DIMTOFL
 70
     1
  9
$DIMTVP
 40
0.0
  9
$DIMTIX
 70
     0
  9
$DIMSOXD
 70
     0
  9
$DIMSAH
 70
     0
  9
$DIMBLK1
  1

  9
$DIMBLK2
  1

  9
$DIMSTYLE
  2
ISO-25
  9
$DIMCLRD
 70
     0
  9
$DIMCLRE
 70
     0
  9
$DIMCLRT
 70
     0
  9
$DIMTFAC
 40
1.0
  9
$DIMGAP
 40
1.524
  9
$DIMJUST
 70
     0
  9
$DIMSD1
 70
     0
  9
$DIMSD2
 70
     0
  9
$DIMTOLJ
 70
     0
  9
$DIMTZIN
 70
     1
  9
$DIMALTZ
 70
     0
  9
$DIMALTTZ
 70
     0
  9
$DIMUPT
 70
     0
  9
$DIMDEC
 70
     2
  9
$DIMTDEC
 70
     2
  9
$DIMALTU
 70
     2
  9
$DIMALTTD
 70
     3
  9
$DIMTXSTY
  7
Standard
  9
$DIMAUNIT
 70
     0
  9
$DIMADEC
 70
     2
  9
$DIMALTRND
 40
0.0
  9
$DIMAZIN
 70
     0
  9
$DIMDSEP
 70
    44
  9
$DIMATFIT
 70
     3
  9
$DIMFRAC
 70
     0
  9
$DIMLDRBLK
  1

  9
$DIMLUNIT
 70
     2
  9
$DIMLWD
 70
    -2
  9
$DIMLWE
 70
    -2
  9
$DIMTMOVE
 70
     0
  9
$LUNITS
 70
     2
  9
$LUPREC
 70
     2
  9
$SKETCHINC
 40
1.0
  9
$FILLETRAD
 40
10.0
  9
$AUNITS
 70
     0
  9
$AUPREC
 70
     2
  9
$MENU
  1
.
  9
$ELEVATION
 40
0.0
  9
$PELEVATION
 40
0.0
  9
$THICKNESS
 40
0.0
  9
$LIMCHECK
 70
     0
  9
$CHAMFERA
 40
0.0
  9
$CHAMFERB
 40
0.0
  9
$CHAMFERC
 40
0.0
  9
$CHAMFERD
 40
0.0
  9
$SKPOLY
 70
     0
  9
$TDCREATE
 40
2459614.650748565
  9
$TDUCREATE
 40
2459614.609081898
  9
$TDUPDATE
 40
2459614.650776574
  9
$TDUUPDATE
 40
2459614.609109907
  9
$TDINDWG
 40
0.0000000116
  9
$TDUSRTIMER
 40
0.0000000116
  9
$USRTIMER
 70
     1
  9
$ANGBASE
 50
0.0
  9
$ANGDIR
 70
     0
  9
$PDMODE
 70
     0
  9
$PDSIZE
 40
-1.0
  9
$PLINEWID
 40
0.0
  9
$SPLFRAME
 70
     0
  9
$SPLINETYPE
 70
     6
  9
$SPLINESEGS
 70
     8
  9
$HANDSEED
  5
165
  9
$SURFTAB1
 70
     6
  9
$SURFTAB2
 70
     6
  9
$SURFTYPE
 70
     6
  9
$SURFU
 70
     6
  9
$SURFV
 70
     6
  9
$UCSBASE
  2

  9
$UCSNAME
  2

  9
$UCSORG
 10
0.0
 20
0.0
 30
0.0
  9
$UCSXDIR
 10
1.0
 20
0.0
 30
0.0
  9
$UCSYDIR
 10
0.0
 20
1.0
 30
0.0
  9
$UCSORTHOREF
  2

  9
$UCSORTHOVIEW
 70
     0
  9
$UCSORGTOP
 10
0.0
 20
0.0
 30
0.0
  9
$UCSORGBOTTOM
 10
0.0
 20
0.0
 30
0.0
  9
$UCSORGLEFT
 10
0.0
 20
0.0
 30
0.0
  9
$UCSORGRIGHT
 10
0.0
 20
0.0
 30
0.0
  9
$UCSORGFRONT
 10
0.0
 20
0.0
 30
0.0
  9
$UCSORGBACK
 10
0.0
 20
0.0
 30
0.0
  9
$PUCSBASE
  2

  9
$PUCSNAME
  2

  9
$PUCSORG
 10
0.0
 20
0.0
 30
0.0
  9
$PUCSXDIR
 10
1.0
 20
0.0
 30
0.0
  9
$PUCSYDIR
 10
0.0
 20
1.0
 30
0.0
  9
$PUCSORTHOREF
  2

  9
$PUCSORTHOVIEW
 70
     0
  9
$PUCSORGTOP
 10
0.0
 20
0.0
 30
0.0
  9
$PUCSORGBOTTOM
 10
0.0
 20
0.0
 30
0.0
  9
$PUCSORGLEFT
 10
0.0
 20
0.0
 30
0.0
  9
$PUCSORGRIGHT
 10
0.0
 20
0.0
 30
0.0
  9
$PUCSORGFRONT
 10
0.0
 20
0.0
 30
0.0
  9
$PUCSORGBACK
 10
0.0
 20
0.0
 30
0.0
  9
$USERI1
 70
     0
  9
$USERI2
 70
     0
  9
$USERI3
 70
     0
  9
$USERI4
 70
     0
  9
$USERI5
 70
     0
  9
$USERR1
 40
0.0
  9
$USERR2
 40
0.0
  9
$USERR3
 40
0.0
  9
$USERR4
 40
0.0
  9
$USERR5
 40
0.0
  9
$WORLDVIEW
 70
     1
  9
$SHADEDGE
 70
     3
  9
$SHADEDIF
 70
    70
  9
$TILEMODE
 70
     1
  9
$MAXACTVP
 70
    64
  9
$PINSBASE
 10
0.0
 20
0.0
 30
0.0
  9
$PLIMCHECK
 70
     0
  9
$PEXTMIN
 10
1.0000000000E+20
 20
1.0000000000E+20
 30
1.0000000000E+20
  9
$PEXTMAX
 10
-1.0000000000E+20
 20
-1.0000000000E+20
 30
-1.0000000000E+20
  9
$PLIMMIN
 10
0.0
 20
0.0
  9
$PLIMMAX
 10
420.0
 20
297.0
  9
$UNITMODE
 70
     0
  9
$VISRETAIN
 70
     1
  9
$PLINEGEN
 70
     0
  9
$PSLTSCALE
 70
     1
  9
$TREEDEPTH
 70
  3020
  9
$CMLSTYLE
  2
Standard
  9
$CMLJUST
 70
     0
  9
$CMLSCALE
 40
20.0
  9
$PROXYGRAPHICS
 70
     1
  9
$MEASUREMENT
 70
     1
  9
$CELWEIGHT
370
    -1
  9
$ENDCAPS
280
     0
  9
$JOINSTYLE
280
     0
  9
$LWDISPLAY
290
     1
  9
$INSUNITS
 70
     4
  9
$HYPERLINKBASE
  1

  9
$STYLESHEET
  1

  9
$XEDIT
290
     1
  9
$CEPSNTYPE
380
     0
  9
$PSTYLEMODE
290
     1
  9
$FINGERPRINTGUID
  2
{80FFC439-8F91-473D-84FE-CC5A76A53049}
  9
$VERSIONGUID
  2
{FAEB1C32-E019-11D5-929B-00C0DF256EC4}
  9
$EXTNAMES
290
     1
  9
$PSVPSCALE
 40
0.0
  9
$OLESTARTUP
290
     0
  0
ENDSEC
  0
SECTION
  2
CLASSES
  0
CLASS
  1
ACDBDICTIONARYWDFLT
  2
AcDbDictionaryWithDefault
  3
ObjectDBX Classes
 90
        0
280
     0
281
     0
  0
CLASS
  1
VISUALSTYLE
  2
AcDbVisualStyle
  3
ObjectDBX Classes
 90
     4095
280
     0
281
     0
  0
CLASS
  1
MATERIAL
  2
AcDbMaterial
  3
ObjectDBX Classes
 90
     1153
280
     0
281
     0
  0
CLASS
  1
SCALE
  2
AcDbScale
  3
ObjectDBX Classes
 90
     1153
280
     0
281
     0
  0
CLASS
  1
TABLESTYLE
  2
AcDbTableStyle
  3
ObjectDBX Classes
 90
     4095
280
     0
281
     0
  0
CLASS
  1
MLEADERSTYLE
  2
AcDbMLeaderStyle
  3
ACDB_MLEADERSTYLE_CLASS
 90
     4095
280
     0
281
     0
  0
CLASS
  1
SUN
  2
AcDbSun
  3
SCENEOE
 90
     1153
280
     0
281
     0
  0
CLASS
  1
ACDBPLACEHOLDER
  2
AcDbPlaceHolder
  3
ObjectDBX Classes
 90
        0
280
     0
281
     0
  0
CLASS
  1
LAYOUT
  2
AcDbLayout
  3
ObjectDBX Classes
 90
        0
280
     0
281
     0
  0
ENDSEC
  0
SECTION
  2
TABLES
  0
TABLE
  2
VPORT
  5
8
330
0
100
AcDbSymbolTable
 70
     1
  0
VPORT
  5
29
330
8
100
AcDbSymbolTableRecord
100
AcDbViewportTableRecord
  2
*Active
 70
     0
 10
0.0
 20
0.0
 11
1.0
 21
1.0
 12
-9.1381766382
 22
0.0925925926
 13
0.0
 23
0.0
 14
10.0
 24
10.0
 15
10.0
 25
10.0
 16
0.0
 26
0.0
 36
1.0
 17
0.0
 27
0.0
 37
0.0
 40
35.7
 41
4.5714285714
 42
50.0
 43
0.0
 44
0.0
 50
0.0
 51
0.0
 71
     0
 72
   100
 73
     1
 74
     3
 75
     0
 76
     0
 77
     0
 78
     0
281
     0
 65
     1
110
0.0
120
0.0
130
0.0
111
1.0
121
0.0
131
0.0
112
0.0
122
1.0
132
0.0
 79
     0
146
0.0
  0
ENDTAB
  0
TABLE
  2
LTYPE
  5
5
330
0
100
AcDbSymbolTable
 70
     6
  0
LTYPE
  5
14
330
5
100
AcDbSymbolTableRecord
100
AcDbLinetypeTableRecord
  2
ByBlock
 70
     0
  3

 72
    65
 73
     0
 40
0.0
  0
LTYPE
  5
15
330
5
100
AcDbSymbolTableRecord
100
AcDbLinetypeTableRecord
  2
ByLayer
 70
     0
  3

 72
    65
 73
     0
 40
0.0
  0
LTYPE
  5
16
330
5
100
AcDbSymbolTableRecord
100
AcDbLinetypeTableRecord
  2
Continuous
 70
     0
  3
Solid line
 72
    65
 73
     0
 40
0.0
  0
LTYPE
  5
6E
330
5
100
AcDbSymbolTableRecord
100
AcDbLinetypeTableRecord
  2
HIDDEN
 70
     0
  3
Hidden __ __ __ __ __ __ __ __ __ __ __ __ __ __
 72
    65
 73
     2
 40
1.905
 49
1.27
 74
     0
 49
-0.635
 74
     0
  0
LTYPE
  5
6F
330
5
100
AcDbSymbolTableRecord
100
AcDbLinetypeTableRecord
  2
PHANTOM
 70
     0
  3
Phantom ______  __  __  ______  __  __  ______
 72
    65
 73
     6
 40
12.7
 49
6.35
 74
     0
 49
-1.27
 74
     0
 49
1.27
 74
     0
 49
-1.27
 74
     0
 49
1.27
 74
     0
 49
-1.27
 74
     0
  0
LTYPE
  5
70
330
5
100
AcDbSymbolTableRecord
100
AcDbLinetypeTableRecord
  2
CENTER
 70
     0
  3
Center ____ _ ____ _ ____ _ ____ _ ____ _ ____
 72
    65
 73
     4
 40
10.16
 49
6.35
 74
     0
 49
-1.27
 74
     0
 49
1.27
 74
     0
 49
-1.27
 74
     0
  0
LTYPE
  5
71
330
5
100
AcDbSymbolTableRecord
100
AcDbLinetypeTableRecord
  2
CENTERX2
 70
     0
  3
Center (2x) ________  __  ________  __  _____
 72
    65
 73
     4
 40
20.32
 49
12.7
 74
     0
 49
-2.54
 74
     0
 49
2.54
 74
     0
 49
-2.54
 74
     0
  0
LTYPE
  5
72
330
5
100
AcDbSymbolTableRecord
100
AcDbLinetypeTableRecord
  2
DOT2
 70
     0
  3
Dot (.5x) ........................................
 72
    65
 73
     2
 40
0.635
 49
0.0
 74
     0
 49
-0.635
 74
     0
  0
ENDTAB
  0
TABLE
  2
LAYER
  5
2
330
0
100
AcDbSymbolTable
 70
     1
  0
LAYER
  5
10
330
2
100
AcDbSymbolTableRecord
100
AcDbLayerTableRecord
  2
0
 70
     0
 62
     7
  6
Continuous
370
    -3
390
F
  0
ENDTAB
  0
TABLE
  2
STYLE
  5
3
330
0
100
AcDbSymbolTable
 70
     1
  0
STYLE
  5
11
330
3
100
AcDbSymbolTableRecord
100
AcDbTextStyleTableRecord
  2
Standard
 70
     0
 40
0.0
 41
1.0
 50
0.0
 71
     0
 42
3.5
  3
txt
  4

  0
ENDTAB
  0
TABLE
  2
VIEW
  5
6
330
0
100
AcDbSymbolTable
 70
     0
  0
ENDTAB
  0
TABLE
  2
UCS
  5
7
330
0
100
AcDbSymbolTable
 70
     0
  0
ENDTAB
  0
TABLE
  2
APPID
  5
9
330
0
100
AcDbSymbolTable
 70
     1
  0
APPID
  5
12
330
9
100
AcDbSymbolTableRecord
100
AcDbRegAppTableRecord
  2
ACAD
 70
     0
  0
ENDTAB
  0
TABLE
  2
DIMSTYLE
  5
A
330
0
100
AcDbSymbolTable
 70
     1
100
AcDbDimStyleTable
  0
DIMSTYLE
105
27
330
A
100
AcDbSymbolTableRecord
100
AcDbDimStyleTableRecord
  2
ISO-25
 70
     0
 41
2.5
 42
0.625
 43
3.75
 44
1.25
 73
     0
 74
     0
 77
     1
 78
     8
140
2.5
141
2.5
143
0.0393700787
147
0.625
171
     3
172
     1
178
     0
271
     2
272
     2
274
     3
278
    44
283
     0
284
     8
340
11
  0
ENDTAB
  0
TABLE
  2
BLOCK_RECORD
  5
1
330
0
100
AcDbSymbolTable
 70
     1
  0
BLOCK_RECORD
  5
1F
330
1
100
AcDbSymbolTableRecord
100
AcDbBlockTableRecord
  2
*Model_Space
340
22
  0
BLOCK_RECORD
  5
1B
330
1
100
AcDbSymbolTableRecord
100
AcDbBlockTableRecord
  2
*Paper_Space
340
1E
  0
BLOCK_RECORD
  5
23
330
1
100
AcDbSymbolTableRecord
100
AcDbBlockTableRecord
  2
*Paper_Space0
340
26
  0
ENDTAB
  0
ENDSEC
  0
SECTION
  2
BLOCKS
  0
BLOCK
  5
20
330
1F
100
AcDbEntity
  8
0
100
AcDbBlockBegin
  2
*Model_Space
 70
     0
 10
0.0
 20
0.0
 30
0.0
  3
*Model_Space
  1

  0
ENDBLK
  5
21
330
1F
100
AcDbEntity
  8
0
100
AcDbBlockEnd
  0
BLOCK
  5
1C
330
1B
100
AcDbEntity
 67
     1
  8
0
100
AcDbBlockBegin
  2
*Paper_Space
 70
     0
 10
0.0
 20
0.0
 30
0.0
  3
*Paper_Space
  1

  0
ENDBLK
  5
1D
330
1B
100
AcDbEntity
 67
     1
  8
0
100
AcDbBlockEnd
  0
BLOCK
  5
24
330
23
100
AcDbEntity
  8
0
100
AcDbBlockBegin
  2
*Paper_Space0
 70
     0
 10
0.0
 20
0.0
 30
0.0
  3
*Paper_Space0
  1

  0
ENDBLK
  5
25
330
23
100
AcDbEntity
  8
0
100
AcDbBlockEnd
  0
ENDSEC
  0
SECTION
  2
ENTITIES
  0
SPLINE
  5
73
330
1F
100
AcDbEntity
  8
0
  6
Continuous
 62
     7
370
    25
100
AcDbSpline
210
0.0
220
0.0
230
1.0
 70
     8
 71
     3
 72
    23
 73
    19
 74
     0
 42
0.000000001
 43
0.00000001
 40
0.0
 40
0.0
 40
0.0
 40
0.0
 40
0.0667486513092667
 40
0.1311519760901758
 40
0.193732197057096
 40
0.2553255433785991
 40
0.316388185777386
 40
0.3780268629068867
 40
0.4404056792054018
 40
0.5045574293240813
 40
0.5686582873620153
 40
0.6309861790900104
 40
0.6922881348732992
 40
0.7526154469796394
 40
0.8131995384355633
 40
0.8740161248607814
 40
0.9361583555105314
 40
0.9999999999999999
 40
0.9999999999999999
 40
0.9999999999999999
 40
0.9999999999999999
 10
27.54583611556265
 20
-5.891992634585056
 30
0.0
 10
27.68208687022757
 20
-5.888904894526069
 30
0.0
 10
27.9498009793155
 20
-5.882837907366842
 30
0.0
 10
28.34160177641894
 20
-5.825143629225763
 30
0.0
 10
28.71698079447439
 20
-5.738235892046456
 30
0.0
 10
29.07278463358624
 20
-5.608530756602357
 30
0.0
 10
29.41263685173875
 20
-5.446388430821574
 30
0.0
 10
29.73404045487954
 20
-5.246700435556415
 30
0.0
 10
30.03688743031879
 20
-5.00979677064119
 30
0.0
 10
30.31944059815852
 20
-4.741744626901355
 30
0.0
 10
30.57543445249918
 20
-4.448436788942297
 30
0.0
 10
30.80139924233873
 20
-4.138583068387528
 30
0.0
 10
30.99200555519841
 20
-3.814550475173673
 30
0.0
 10
31.14726036499161
 20
-3.476187355169708
 30
0.0
 10
31.26965702031922
 20
-3.125596552814215
 30
0.0
 10
31.35599395391628
 20
-2.760642868977079
 30
0.0
 10
31.40699524085119
 20
-2.382201595090508
 30
0.0
 10
31.41409942398184
 20
-2.12515671674729
 30
0.0
 10
31.41769943019941
 20
-1.994900620696168
 30
0.0
  0
SPLINE
  5
74
330
1F
100
AcDbEntity
  8
0
  6
Continuous
 62
     7
370
    25
100
AcDbSpline
210
0.0
220
0.0
230
1.0
 70
     8
 71
     3
 72
    31
 73
    27
 74
     0
 42
0.000000001
 43
0.00000001
 40
0.0
 40
0.0
 40
0.0
 40
0.0
 40
0.0431143456619736
 40
0.0856827648242091
 40
0.1275943241639272
 40
0.1690586225605483
 40
0.2104320288213098
 40
0.2518111664630529
 40
0.2934438397982393
 40
0.3353808532218248
 40
0.3774766059607943
 40
0.4186884906768273
 40
0.4598730336711987
 40
0.5008729046253153
 40
0.5418727755794317
 40
0.583211776867324
 40
0.6247632017340757
 40
0.6669876223820893
 40
0.7093697058942391
 40
0.7511026519448577
 40
0.7925683801202208
 40
0.8335451085502584
 40
0.8748274225565255
 40
0.9160177232110676
 40
0.9578592039763044
 40
1.0
 40
1.0
 40
1.0
 40
1.0
 10
31.41769943019941
 20
-1.994900620696168
 30
0.0
 10
31.41656954085858
 20
-1.907271138203802
 30
0.0
 10
31.41432406916741
 20
-1.733121763447483
 30
0.0
 10
31.38727499730023
 20
-1.475041279579347
 30
0.0
 10
31.3483321106444
 20
-1.221998180253598
 30
0.0
 10
31.29073742909121
 20
-0.9750013519850435
 30
0.0
 10
31.22077461160104
 20
-0.7323083470049626
 30
0.0
 10
31.130127898555
 20
-0.4961782119145957
 30
0.0
 10
31.02694740795656
 20
-0.2640884274934802
 30
0.0
 10
30.90639071952998
 20
-0.0387802647150882
 30
0.0
 10
30.77234333881889
 20
0.1776732530468216
 30
0.0
 10
30.62608571185462
 20
0.3842510767626898
 30
0.0
 10
30.46725007582292
 20
0.57845537855501
 30
0.0
 10
30.2963480929263
 20
0.761562389107532
 30
0.0
 10
30.11279081179089
 20
0.9323685327466676
 30
0.0
 10
29.91899273884608
 20
1.093291808239078
 30
0.0
 10
29.71119531990872
 20
1.240057521189553
 30
0.0
 10
29.49394658850463
 20
1.376249983031651
 30
0.0
 10
29.26847134302001
 20
1.499406464365971
 30
0.0
 10
29.03568747223133
 20
1.604233578035839
 30
0.0
 10
28.80039078372565
 20
1.69577731085484
 30
0.0
 10
28.55943803108137
 20
1.768027672534645
 30
0.0
 10
28.31541145165699
 20
1.826874836228764
 30
0.0
 10
28.06570411576434
 20
1.865791475396011
 30
0.0
 10
27.81257198722615
 20
1.89283979819592
 30
0.0
 10
27.64187638608514
 20
1.895114050007478
 30
0.0
 10
27.55622440349001
 20
1.896255228662806
 30
0.0
  0
SPLINE
  5
75
330
1F
100
AcDbEntity
  8
0
  6
Continuous
 62
     7
370
    25
100
AcDbSpline
210
0.0
220
0.0
230
1.0
 70
     8
 71
     3
 72
    23
 73
    19
 74
     0
 42
0.000000001
 43
0.00000001
 40
0.0
 40
0.0
 40
0.0
 40
0.0
 40
0.0633955966615901
 40
0.1251572666424215
 40
0.1856494665262526
 40
0.2459766793408154
 40
0.3061083686579569
 40
0.3673505880891744
 40
0.4299020782799139
 40
0.4945399581831936
 40
0.5593725826940478
 40
0.622409685845737
 40
0.6843574258194753
 40
0.7458066007722105
 40
0.807430275015915
 40
0.8699955160697815
 40
0.9339278677192726
 40
1.0
 40
1.0
 40
1.0
 40
1.0
 10
27.55622440349001
 20
1.896255228662806
 30
0.0
 10
27.42742144911791
 20
1.892920289514773
 30
0.0
 10
27.17313524386719
 20
1.886336364287052
 30
0.0
 10
26.79917199833288
 20
1.831454209013117
 30
0.0
 10
26.43878926569992
 20
1.742031605099116
 30
0.0
 10
26.09215001000299
 20
1.617727717776203
 30
0.0
 10
25.76012217609147
 20
1.455175766089907
 30
0.0
 10
25.44153459062773
 20
1.258984204526788
 30
0.0
 10
25.13752841924318
 20
1.02545003490434
 30
0.0
 10
24.85121887341428
 20
0.7600212241179117
 30
0.0
 10
24.58661721608097
 20
0.4713789822537789
 30
0.0
 10
24.3573397254586
 20
0.1606042923332038
 30
0.0
 10
24.16182029276409
 20
-0.1642503612349023
 30
0.0
 10
23.99977326384129
 20
-0.5040554359635463
 30
0.0
 10
23.87634428931
 20
-0.8611642440443757
 30
0.0
 10
23.78972907259251
 20
-1.233756002559174
 30
0.0
 10
23.73408308708461
 20
-1.621724712558582
 30
0.0
 10
23.72768294257885
 20
-1.885878523349564
 30
0.0
 10
23.72443019943018
 20
-2.020129319948305
 30
0.0
  0
SPLINE
  5
76
330
1F
100
AcDbEntity
  8
0
  6
Continuous
 62
     7
370
    25
100
AcDbSpline
210
0.0
220
0.0
230
1.0
 70
     8
 71
     3
 72
    23
 73
    19
 74
     0
 42
0.000000001
 43
0.00000001
 40
0.0
 40
0.0
 40
0.0
 40
0.0
 40
0.0657223151915615
 40
0.1295079307025843
 40
0.1917221026921613
 40
0.2531611245020887
 40
0.3143157037352574
 40
0.3759517397728622
 40
0.438619600823409
 40
0.5029729018927768
 40
0.567128645724265
 40
0.6295522895796745
 40
0.6904767824348742
 40
0.7510723384108291
 40
0.8116678943867836
 40
0.8729293555873918
 40
0.9355013707158073
 40
0.9999999999999999
 40
0.9999999999999999
 40
0.9999999999999999
 40
0.9999999999999999
 10
23.72443019943018
 20
-2.020129319948305
 30
0.0
 10
23.72789423014032
 20
-2.152867420142861
 30
0.0
 10
23.73472021379373
 20
-2.414432105310808
 30
0.0
 10
23.78745735987376
 20
-2.79882553085696
 30
0.0
 10
23.87553118769862
 20
-3.167426055351845
 30
0.0
 10
23.99686670996469
 20
-3.521068014372458
 30
0.0
 10
24.15597481842583
 20
-3.858038487651959
 30
0.0
 10
24.34768140928677
 20
-4.180488984717346
 30
0.0
 10
24.57704525505021
 20
-4.48542708780316
 30
0.0
 10
24.8357005555001
 20
-4.77268915552459
 30
0.0
 10
25.12045759431059
 20
-5.033441121702058
 30
0.0
 10
25.42206050294968
 20
-5.263228341588538
 30
0.0
 10
25.73911666559143
 20
-5.457941360150381
 30
0.0
 10
26.07116201316608
 20
-5.617490989392413
 30
0.0
 10
26.41890860099489
 20
-5.741311580792966
 30
0.0
 10
26.78149745248644
 20
-5.828676005259883
 30
0.0
 10
27.15890613075916
 20
-5.881769130071052
 30
0.0
 10
27.4155623343493
 20
-5.888550527117041
 30
0.0
 10
27.54583611556265
 20
-5.891992634585056
 30
0.0
  0
SPLINE
  5
77
330
1F
100
AcDbEntity
  8
0
  6
Continuous
 62
     7
370
    25
100
AcDbSpline
210
0.0
220
0.0
230
1.0
 70
     8
 71
     3
 72
    23
 73
    19
 74
     0
 42
0.000000001
 43
0.00000001
 40
0.0
 40
0.0
 40
0.0
 40
0.0
 40
0.0667486513092665
 40
0.1311519760901756
 40
0.1937321970570958
 40
0.2553255433785989
 40
0.3163881857773859
 40
0.3780268629068865
 40
0.4404056792054016
 40
0.5045574293240812
 40
0.5686582873620153
 40
0.6309861790900104
 40
0.6922881348732991
 40
0.7526154469796394
 40
0.8131995384355633
 40
0.8740161248607815
 40
0.9361583555105314
 40
1.0
 40
1.0
 40
1.0
 40
1.0
 10
12.91912671385326
 20
-5.891992634585056
 30
0.0
 10
13.05537746851818
 20
-5.888904894526069
 30
0.0
 10
13.32309157760611
 20
-5.882837907366842
 30
0.0
 10
13.71489237470955
 20
-5.825143629225761
 30
0.0
 10
14.09027139276499
 20
-5.738235892046457
 30
0.0
 10
14.44607523187685
 20
-5.608530756602357
 30
0.0
 10
14.78592745002935
 20
-5.446388430821574
 30
0.0
 10
15.10733105317013
 20
-5.246700435556416
 30
0.0
 10
15.4101780286094
 20
-5.009796770641189
 30
0.0
 10
15.69273119644911
 20
-4.741744626901354
 30
0.0
 10
15.9487250507898
 20
-4.448436788942298
 30
0.0
 10
16.17468984062933
 20
-4.138583068387528
 30
0.0
 10
16.36529615348901
 20
-3.814550475173671
 30
0.0
 10
16.52055096328222
 20
-3.476187355169709
 30
0.0
 10
16.64294761860982
 20
-3.125596552814214
 30
0.0
 10
16.72928455220688
 20
-2.760642868977079
 30
0.0
 10
16.7802858391418
 20
-2.382201595090508
 30
0.0
 10
16.78739002227244
 20
-2.125156716747289
 30
0.0
 10
16.79099002849001
 20
-1.994900620696168
 30
0.0
  0
SPLINE
  5
78
330
1F
100
AcDbEntity
  8
0
  6
Continuous
 62
     7
370
    25
100
AcDbSpline
210
0.0
220
0.0
230
1.0
 70
     8
 71
     3
 72
    31
 73
    27
 74
     0
 42
0.000000001
 43
0.00000001
 40
0.0
 40
0.0
 40
0.0
 40
0.0
 40
0.0431143456619736
 40
0.0856827648242091
 40
0.1275943241639273
 40
0.1690586225605482
 40
0.2104320288213097
 40
0.2518111664630528
 40
0.2934438397982393
 40
0.3353808532218248
 40
0.3774766059607942
 40
0.4186884906768272
 40
0.4598730336711987
 40
0.5008729046253152
 40
0.5418727755794317
 40
0.5832117768673238
 40
0.6247632017340757
 40
0.6669876223820894
 40
0.7093697058942394
 40
0.7511026519448577
 40
0.7925683801202208
 40
0.8335451085502588
 40
0.8748274225565258
 40
0.9160177232110672
 40
0.9578592039763044
 40
1.0
 40
1.0
 40
1.0
 40
1.0
 10
16.79099002849001
 20
-1.994900620696168
 30
0.0
 10
16.78986013914918
 20
-1.907271138203802
 30
0.0
 10
16.78761466745801
 20
-1.733121763447483
 30
0.0
 10
16.76056559559085
 20
-1.475041279579347
 30
0.0
 10
16.721622708935
 20
-1.221998180253599
 30
0.0
 10
16.66402802738182
 20
-0.9750013519850428
 30
0.0
 10
16.59406520989164
 20
-0.7323083470049626
 30
0.0
 10
16.5034184968456
 20
-0.4961782119145957
 30
0.0
 10
16.40023800624716
 20
-0.2640884274934802
 30
0.0
 10
16.27968131782058
 20
-0.0387802647150882
 30
0.0
 10
16.14563393710949
 20
0.1776732530468215
 30
0.0
 10
15.99937631014523
 20
0.3842510767626898
 30
0.0
 10
15.84054067411352
 20
0.5784553785550097
 30
0.0
 10
15.6696386912169
 20
0.7615623891075322
 30
0.0
 10
15.4860814100815
 20
0.9323685327466668
 30
0.0
 10
15.29228333713669
 20
1.093291808239079
 30
0.0
 10
15.08448591819931
 20
1.240057521189553
 30
0.0
 10
14.86723718679524
 20
1.376249983031652
 30
0.0
 10
14.6417619413106
 20
1.499406464365969
 30
0.0
 10
14.40897807052195
 20
1.604233578035841
 30
0.0
 10
14.17368138201624
 20
1.695777310854839
 30
0.0
 10
13.93272862937197
 20
1.768027672534645
 30
0.0
 10
13.68870204994758
 20
1.826874836228763
 30
0.0
 10
13.43899471405494
 20
1.865791475396012
 30
0.0
 10
13.18586258551676
 20
1.89283979819592
 30
0.0
 10
13.01516698437575
 20
1.895114050007478
 30
0.0
 10
12.92951500178061
 20
1.896255228662806
 30
0.0
  0
SPLINE
  5
79
330
1F
100
AcDbEntity
  8
0
  6
Continuous
 62
     7
370
    25
100
AcDbSpline
210
0.0
220
0.0
230
1.0
 70
     8
 71
     3
 72
    23
 73
    19
 74
     0
 42
0.000000001
 43
0.00000001
 40
0.0
 40
0.0
 40
0.0
 40
0.0
 40
0.0633955966615904
 40
0.1251572666424213
 40
0.1856494665262526
 40
0.2459766793408152
 40
0.3061083686579569
 40
0.3673505880891744
 40
0.4299020782799141
 40
0.4945399581831936
 40
0.5593725826940478
 40
0.622409685845737
 40
0.6843574258194751
 40
0.7458066007722105
 40
0.807430275015915
 40
0.8699955160697815
 40
0.9339278677192726
 40
1.0
 40
1.0
 40
1.0
 40
1.0
 10
12.92951500178061
 20
1.896255228662806
 30
0.0
 10
12.80071204740851
 20
1.892920289514773
 30
0.0
 10
12.5464258421578
 20
1.886336364287053
 30
0.0
 10
12.17246259662349
 20
1.831454209013116
 30
0.0
 10
11.81207986399052
 20
1.742031605099116
 30
0.0
 10
11.4654406082936
 20
1.617727717776203
 30
0.0
 10
11.13341277438208
 20
1.455175766089908
 30
0.0
 10
10.81482518891833
 20
1.258984204526788
 30
0.0
 10
10.51081901753379
 20
1.025450034904341
 30
0.0
 10
10.22450947170488
 20
0.7600212241179116
 30
0.0
 10
9.959907814371581
 20
0.4713789822537787
 30
0.0
 10
9.73063032374921
 20
0.1606042923332047
 30
0.0
 10
9.535110891054703
 20
-0.164250361234904
 30
0.0
 10
9.373063862131891
 20
-0.5040554359635453
 30
0.0
 10
9.249634887600603
 20
-0.861164244044376
 30
0.0
 10
9.163019670883118
 20
-1.233756002559174
 30
0.0
 10
9.107373685375219
 20
-1.621724712558582
 30
0.0
 10
9.10097354086945
 20
-1.885878523349564
 30
0.0
 10
9.09772079772078
 20
-2.020129319948305
 30
0.0
  0
SPLINE
  5
7A
330
1F
100
AcDbEntity
  8
0
  6
Continuous
 62
     7
370
    25
100
AcDbSpline
210
0.0
220
0.0
230
1.0
 70
     8
 71
     3
 72
    23
 73
    19
 74
     0
 42
0.000000001
 43
0.00000001
 40
0.0
 40
0.0
 40
0.0
 40
0.0
 40
0.0657223151915615
 40
0.1295079307025843
 40
0.1917221026921613
 40
0.2531611245020888
 40
0.3143157037352575
 40
0.3759517397728623
 40
0.4386196008234092
 40
0.5029729018927768
 40
0.567128645724265
 40
0.6295522895796742
 40
0.6904767824348743
 40
0.7510723384108288
 40
0.8116678943867834
 40
0.8729293555873914
 40
0.9355013707158072
 40
1.0
 40
1.0
 40
1.0
 40
1.0
 10
9.09772079772078
 20
-2.020129319948305
 30
0.0
 10
9.101184828430926
 20
-2.152867420142861
 30
0.0
 10
9.10801081208433
 20
-2.414432105310808
 30
0.0
 10
9.160747958164354
 20
-2.79882553085696
 30
0.0
 10
9.248821785989238
 20
-3.167426055351847
 30
0.0
 10
9.370157308255282
 20
-3.521068014372456
 30
0.0
 10
9.529265416716429
 20
-3.85803848765196
 30
0.0
 10
9.72097200757737
 20
-4.180488984717345
 30
0.0
 10
9.950335853340816
 20
-4.48542708780316
 30
0.0
 10
10.2089911537907
 20
-4.77268915552459
 30
0.0
 10
10.49374819260119
 20
-5.033441121702058
 30
0.0
 10
10.79535110124028
 20
-5.26322834158854
 30
0.0
 10
11.11240726388203
 20
-5.457941360150378
 30
0.0
 10
11.44445261145669
 20
-5.617490989392416
 30
0.0
 10
11.7921991992855
 20
-5.741311580792966
 30
0.0
 10
12.15478805077703
 20
-5.828676005259882
 30
0.0
 10
12.53219672904978
 20
-5.881769130071054
 30
0.0
 10
12.78885293263991
 20
-5.888550527117042
 30
0.0
 10
12.91912671385326
 20
-5.891992634585056
 30
0.0
  0
SPLINE
  5
7B
330
1F
100
AcDbEntity
  8
0
  6
Continuous
 62
     7
370
    25
100
AcDbSpline
210
0.0
220
0.0
230
1.0
 70
     8
 71
     3
 72
    15
 73
    11
 74
     0
 42
0.000000001
 43
0.00000001
 40
0.0
 40
0.0
 40
0.0
 40
0.0
 40
0.1327548717475878
 40
0.2572338481110652
 40
0.3786007316763536
 40
0.5014062774984533
 40
0.6239419536469539
 40
0.7436418348746457
 40
0.8681208112381229
 40
1.0
 40
1.0
 40
1.0
 40
1.0
 10
-13.60217236467238
 20
-0.4188489380038606
 30
0.0
 10
-13.59959640453458
 20
-0.3501872315469883
 30
0.0
 10
-13.5946050687734
 20
-0.2171441670080436
 30
0.0
 10
-13.53975433329047
 20
-0.0278911160528281
 30
0.0
 10
-13.45477767147185
 20
0.1434582022587799
 30
0.0
 10
-13.33503355375941
 20
0.29178367708229
 30
0.0
 10
-13.18998592375008
 20
0.4136725551044176
 30
0.0
 10
-13.02236976238644
 20
0.5043300781619563
 30
0.0
 10
-12.83355163442524
 20
0.5566390534396823
 30
0.0
 10
-12.70118652919417
 20
0.5631862683077727
 30
0.0
 10
-12.63309350516383
 20
0.5665543739619512
 30
0.0
  0
SPLINE
  5
7C
330
1F
100
AcDbEntity
  8
0
  6
Continuous
 62
     7
370
    25
100
AcDbSpline
210
0.0
220
0.0
230
1.0
 70
     8
 71
     3
 72
    23
 73
    19
 74
     0
 42
0.000000001
 43
0.00000001
 40
0.0
 40
0.0
 40
0.0
 40
0.0
 40
0.0564668684718618
 40
0.1111640986969633
 40
0.1649370968759852
 40
0.2183217523125932
 40
0.2723929232482764
 40
0.3279763434477038
 40
0.3852910519840202
 40
0.4449029182928195
 40
0.5068438192198357
 40
0.5694881852629681
 40
0.6341532155537224
 40
0.7009760953100498
 40
0.7708974968462685
 40
0.8436256105557793
 40
0.9196596761155399
 40
0.9999999999999999
 40
0.9999999999999999
 40
0.9999999999999999
 40
0.9999999999999999
 10
-12.63309350516383
 20
0.5665543739619512
 30
0.0
 10
-12.59791578157428
 20
0.5653101553757339
 30
0.0
 10
-12.528662783438
 20
0.5628607112775941
 30
0.0
 10
-12.426866289174
 20
0.5465554246457612
 30
0.0
 10
-12.32999961135396
 20
0.5178190589266778
 30
0.0
 10
-12.2369845699507
 20
0.4793163734889443
 30
0.0
 10
-12.14881384596405
 20
0.4282807875092381
 30
0.0
 10
-12.06570983389318
 20
0.3653712968102311
 30
0.0
 10
-11.98679692796289
 20
0.2921865744781021
 30
0.0
 10
-11.91243705441881
 20
0.2089554594262982
 30
0.0
 10
-11.84475986215832
 20
0.1160695106010926
 30
0.0
 10
-11.78464922745973
 20
0.014377051194921
 30
0.0
 10
-11.73494773947559
 20
-0.0960587952620697
 30
0.0
 10
-11.69118874302074
 20
-0.2137801069150684
 30
0.0
 10
-11.657439711041
 20
-0.3400513066155899
 30
0.0
 10
-11.63286622905633
 20
-0.4741166753323124
 30
0.0
 10
-11.61418465172341
 20
-0.6157581062503786
 30
0.0
 10
-11.60984873995639
 20
-0.7131232710418764
 30
0.0
 10
-11.60762108262109
 20
-0.7631464807389028
 30
0.0
  0
LINE
  5
7D
330
1F
100
AcDbEntity
  8
0
  6
Continuous
 62
     7
370
    25
100
AcDbLine
 10
-11.6076210826
 20
-0.7631464807
 30
0.0
 11
-10.2779202279
 21
-0.7631464807
 31
0.0
  0
SPLINE
  5
7E
330
1F
100
AcDbEntity
  8
0
  6
Continuous
 62
     7
370
    25
100
AcDbSpline
210
0.0
220
0.0
230
1.0
 70
     8
 71
     3
 72
    23
 73
    19
 74
     0
 42
0.000000001
 43
0.00000001
 40
0.0
 40
0.0
 40
0.0
 40
0.0
 40
0.0749399102007728
 40
0.1464280851715764
 40
0.2147529716359186
 40
0.2804215366912469
 40
0.3436044295193645
 40
0.4055426388186583
 40
0.4661994619307759
 40
0.5265381448244666
 40
0.5859019063092086
 40
0.6440895746157923
 40
0.701613075988366
 40
0.7587535874365711
 40
0.8166294493897658
 40
0.8756554749553046
 40
0.9366243322865293
 40
1.0
 40
1.0
 40
1.0
 40
1.0
 10
-10.27792022792024
 20
-0.7631464807389028
 30
0.0
 10
-10.28366300198156
 20
-0.6625616457723791
 30
0.0
 10
-10.29488403770364
 20
-0.466024917319037
 30
0.0
 10
-10.3395184816938
 20
-0.1805490261635972
 30
0.0
 10
-10.39932710484206
 20
0.0891942988009693
 30
0.0
 10
-10.47914965212742
 20
0.342261466033329
 30
0.0
 10
-10.57945190570296
 20
0.5785605190588075
 30
0.0
 10
-10.69765283014586
 20
0.7988970142210657
 30
0.0
 10
-10.83677219054802
 20
1.002110874990914
 30
0.0
 10
-10.99384906938028
 20
1.187222089417394
 30
0.0
 10
-11.16621673334573
 20
1.353287068064082
 30
0.0
 10
-11.35029666048999
 20
1.500530710796398
 30
0.0
 10
-11.54890460137337
 20
1.622032459149748
 30
0.0
 10
-11.75841182644272
 20
1.722017149213084
 30
0.0
 10
-11.97878266094025
 20
1.801900270479319
 30
0.0
 10
-12.21210215909177
 20
1.855308601484055
 30
0.0
 10
-12.45635011433455
 20
1.891477246440473
 30
0.0
 10
-12.62355761824916
 20
1.894642147996234
 30
0.0
 10
-12.70877960292024
 20
1.896255228662806
 30
0.0
  0
SPLINE
  5
7F
330
1F
100
AcDbEntity
  8
0
  6
Continuous
 62
     7
370
    25
100
AcDbSpline
210
0.0
220
0.0
230
1.0
 70
     8
 71
     3
 72
    19
 73
    15
 74
     0
 42
0.000000001
 43
0.00000001
 40
0.0
 40
0.0
 40
0.0
 40
0.0
 40
0.0896145288821156
 40
0.1749485612865263
 40
0.2575481258745664
 40
0.3389007874900938
 40
0.4200531858831906
 40
0.5014014271193619
 40
0.5842520267159579
 40
0.6703704767286309
 40
0.7564732666582518
 40
0.8392065940498484
 40
0.9201204666578203
 40
1.0
 40
1.0
 40
1.0
 40
1.0
 10
-12.70877960292024
 20
1.896255228662806
 30
0.0
 10
-12.81338838010132
 20
1.892991159042466
 30
0.0
 10
-13.01760922792664
 20
1.886618930218179
 30
0.0
 10
-13.31435831848164
 20
1.832261703528071
 30
0.0
 10
-13.59148952351894
 20
1.741340842035125
 30
0.0
 10
-13.84880139468603
 20
1.614300420519207
 30
0.0
 10
-14.0841033907753
 20
1.452908881942998
 30
0.0
 10
-14.29735649231896
 20
1.260475885770967
 30
0.0
 10
-14.48211158549124
 20
1.03296408682044
 30
0.0
 10
-14.63954007185961
 20
0.7798398798078453
 30
0.0
 10
-14.77034432887493
 20
0.511816968783628
 30
0.0
 10
-14.86200650356562
 20
0.2346701643451883
 30
0.0
 10
-14.92225506446068
 20
-0.0442461810713013
 30
0.0
 10
-14.92868094637284
 20
-0.2320543306619586
 30
0.0
 10
-14.93187321937323
 20
-0.3253543466577068
 30
0.0
  0
SPLINE
  5
80
330
1F
100
AcDbEntity
  8
0
  6
Continuous
 62
     7
370
    25
100
AcDbSpline
210
0.0
220
0.0
230
1.0
 70
     8
 71
     3
 72
    23
 73
    19
 74
     0
 42
0.000000001
 43
0.00000001
 40
0.0
 40
0.0
 40
0.0
 40
0.0
 40
0.0455177516513179
 40
0.0916159906181648
 40
0.1392465550335721
 40
0.1882415637234043
 40
0.2386730793725369
 40
0.290663874320642
 40
0.3448398555786324
 40
0.4004316067351771
 40
0.4591437176132943
 40
0.5225510475946139
 40
0.5901008583230446
 40
0.6622596565248671
 40
0.7396813070012564
 40
0.8215754713854219
 40
0.9083300466844451
 40
1.0
 40
1.0
 40
1.0
 40
1.0
 10
-14.93187321937323
 20
-0.3253543466577068
 30
0.0
 10
-14.93063031685182
 20
-0.381788790471969
 30
0.0
 10
-14.92812866108873
 20
-0.495377385854164
 30
0.0
 10
-14.91073431614555
 20
-0.6672648092513026
 30
0.0
 10
-14.88463936160308
 20
-0.8423522461415883
 30
0.0
 10
-14.84529452952575
 20
-1.020489575366065
 30
0.0
 10
-14.79622829836989
 20
-1.201726731624962
 30
0.0
 10
-14.73670386797015
 20
-1.386606095433712
 30
0.0
 10
-14.6653405106039
 20
-1.574079468583456
 30
0.0
 10
-14.58332913582224
 20
-1.766256831826022
 30
0.0
 10
-14.48548935785805
 20
-1.963762109786173
 30
0.0
 10
-14.37156853618195
 20
-2.169555983502407
 30
0.0
 10
-14.23854295403636
 20
-2.383455897599185
 30
0.0
 10
-14.0880193926728
 20
-2.606669600649709
 30
0.0
 10
-13.91926679528362
 20
-2.838845050075429
 30
0.0
 10
-13.7314613673857
 20
-3.079282860967637
 30
0.0
 10
-13.52676618648548
 20
-3.328830259453435
 30
0.0
 10
-13.38148825824388
 20
-3.495638691121107
 30
0.0
 10
-13.30684817930913
 20
-3.581340591315826
 30
0.0
  0
LINE
  5
81
330
1F
100
AcDbEntity
  8
0
  6
Continuous
 62
     7
370
    25
100
AcDbLine
 10
-13.3068481793
 20
-3.5813405913
 30
0.0
 11
-12.5336627493
 21
-4.4673131474
 31
0.0
  0
LINE
  5
82
330
1F
100
AcDbEntity
  8
0
  6
Continuous
 62
     7
370
    25
100
AcDbLine
 10
-12.5336627493
 20
-4.4673131474
 30
0.0
 11
-15.0268518519
 21
-4.4673131474
 31
0.0
  0
LINE
  5
83
330
1F
100
AcDbEntity
  8
0
  6
Continuous
 62
     7
370
    25
100
AcDbLine
 10
-15.0268518519
 20
-4.4673131474
 30
0.0
 11
-15.0268518519
 21
-5.7020353696
 31
0.0
  0
LINE
  5
84
330
1F
100
AcDbEntity
  8
0
  6
Continuous
 62
     7
370
    25
100
AcDbLine
 10
-15.0268518519
 20
-5.7020353696
 30
0.0
 11
-10.087962963
 21
-5.7020353696
 31
0.0
  0
LINE
  5
85
330
1F
100
AcDbEntity
  8
0
  6
Continuous
 62
     7
370
    25
100
AcDbLine
 10
-10.087962963
 20
-5.7020353696
 30
0.0
 11
-10.087962963
 21
-5.0282806955
 31
0.0
  0
LINE
  5
86
330
1F
100
AcDbEntity
  8
0
  6
Continuous
 62
     7
370
    25
100
AcDbLine
 10
-10.087962963
 20
-5.0282806955
 30
0.0
 11
-12.2813757568
 21
-2.6938839941
 31
0.0
  0
SPLINE
  5
87
330
1F
100
AcDbEntity
  8
0
  6
Continuous
 62
     7
370
    25
100
AcDbSpline
210
0.0
220
0.0
230
1.0
 70
     8
 71
     3
 72
    19
 73
    15
 74
     0
 42
0.000000001
 43
0.00000001
 40
0.0
 40
0.0
 40
0.0
 40
0.0
 40
0.1038439242634205
 40
0.2011148859465238
 40
0.2911157193792178
 40
0.374348403971364
 40
0.4507073961858715
 40
0.5200404120163614
 40
0.5832583224453374
 40
0.639578299825326
 40
0.741536509948268
 40
0.8350600486817367
 40
0.9208729600458341
 40
1.0
 40
1.0
 40
1.0
 40
1.0
 10
-12.28137575676639
 20
-2.693883994093603
 30
0.0
 10
-12.34488069372043
 20
-2.625788917431995
 30
0.0
 10
-12.46787092394474
 20
-2.493908947819337
 30
0.0
 10
-12.64287334674063
 20
-2.300229182133094
 30
0.0
 10
-12.80123508052307
 20
-2.116431707572699
 30
0.0
 10
-12.93967236594781
 20
-1.940559451816437
 30
0.0
 10
-13.06545021353828
 20
-1.778316995132425
 30
0.0
 10
-13.17296019894739
 20
-1.624814147408252
 30
0.0
 10
-13.26318595437253
 20
-1.481438629678954
 30
0.0
 10
-13.36113880878372
 20
-1.308552795615489
 30
0.0
 10
-13.45416182112277
 20
-1.102355673607142
 30
0.0
 10
-13.53951606498666
 20
-0.8648081343617156
 30
0.0
 10
-13.59154538328078
 20
-0.6377673954296402
 30
0.0
 10
-13.59872707460352
 20
-0.4898227695618475
 30
0.0
 10
-13.60217236467238
 20
-0.4188489380038606
 30
0.0
  0
SPLINE
  5
88
330
1F
100
AcDbEntity
  8
0
  6
Continuous
 62
     7
370
    25
100
AcDbSpline
210
0.0
220
0.0
230
1.0
 70
     8
 71
     3
 72
    15
 73
    11
 74
     0
 42
0.000000001
 43
0.00000001
 40
0.0
 40
0.0
 40
0.0
 40
0.0
 40
0.132754871747588
 40
0.2572338481110648
 40
0.3786007316763536
 40
0.5014062774984528
 40
0.6239419536469551
 40
0.7436418348746469
 40
0.868120811238124
 40
1.0
 40
1.0
 40
1.0
 40
1.0
 10
-19.30089031339032
 20
-0.4188489380038606
 30
0.0
 10
-19.29831435325253
 20
-0.3501872315469884
 30
0.0
 10
-19.29332301749134
 20
-0.2171441670080445
 30
0.0
 10
-19.23847228200842
 20
-0.027891116052827
 30
0.0
 10
-19.15349562018979
 20
0.1434582022587787
 30
0.0
 10
-19.03375150247736
 20
0.291783677082292
 30
0.0
 10
-18.88870387246803
 20
0.4136725551044163
 30
0.0
 10
-18.72108771110437
 20
0.5043300781619565
 30
0.0
 10
-18.53226958314319
 20
0.5566390534396821
 30
0.0
 10
-18.39990447791211
 20
0.5631862683077729
 30
0.0
 10
-18.33181145388177
 20
0.5665543739619512
 30
0.0
  0
SPLINE
  5
89
330
1F
100
AcDbEntity
  8
0
  6
Continuous
 62
     7
370
    25
100
AcDbSpline
210
0.0
220
0.0
230
1.0
 70
     8
 71
     3
 72
    23
 73
    19
 74
     0
 42
0.000000001
 43
0.00000001
 40
0.0
 40
0.0
 40
0.0
 40
0.0
 40
0.0564668684718627
 40
0.1111640986969633
 40
0.1649370968759843
 40
0.2183217523125939
 40
0.2723929232482772
 40
0.3279763434477045
 40
0.385291051984021
 40
0.444902918292819
 40
0.5068438192198357
 40
0.5694881852629681
 40
0.6341532155537227
 40
0.7009760953100501
 40
0.7708974968462685
 40
0.8436256105557797
 40
0.91965967611554
 40
1.0
 40
1.0
 40
1.0
 40
1.0
 10
-18.33181145388177
 20
0.5665543739619512
 30
0.0
 10
-18.29663373029222
 20
0.5653101553757339
 30
0.0
 10
-18.22738073215594
 20
0.5628607112775943
 30
0.0
 10
-18.12558423789194
 20
0.5465554246457612
 30
0.0
 10
-18.0287175600719
 20
0.5178190589266766
 30
0.0
 10
-17.93570251866864
 20
0.4793163734889455
 30
0.0
 10
-17.84753179468199
 20
0.428280787509238
 30
0.0
 10
-17.76442778261112
 20
0.3653712968102309
 30
0.0
 10
-17.68551487668083
 20
0.2921865744781032
 30
0.0
 10
-17.61115500313676
 20
0.2089554594262965
 30
0.0
 10
-17.54347781087627
 20
0.1160695106010934
 30
0.0
 10
-17.48336717617767
 20
0.0143770511949205
 30
0.0
 10
-17.43366568819354
 20
-0.0960587952620693
 30
0.0
 10
-17.38990669173869
 20
-0.2137801069150681
 30
0.0
 10
-17.35615765975895
 20
-0.3400513066155907
 30
0.0
 10
-17.33158417777427
 20
-0.4741166753323117
 30
0.0
 10
-17.31290260044135
 20
-0.6157581062503789
 30
0.0
 10
-17.30856668867433
 20
-0.7131232710418763
 30
0.0
 10
-17.30633903133904
 20
-0.7631464807389028
 30
0.0
  0
LINE
  5
8A
330
1F
100
AcDbEntity
  8
0
  6
Continuous
 62
     7
370
    25
100
AcDbLine
 10
-17.3063390313
 20
-0.7631464807
 30
0.0
 11
-15.9766381766
 21
-0.7631464807
 31
0.0
  0
SPLINE
  5
8B
330
1F
100
AcDbEntity
  8
0
  6
Continuous
 62
     7
370
    25
100
AcDbSpline
210
0.0
220
0.0
230
1.0
 70
     8
 71
     3
 72
    23
 73
    19
 74
     0
 42
0.000000001
 43
0.00000001
 40
0.0
 40
0.0
 40
0.0
 40
0.0
 40
0.0749399102007729
 40
0.1464280851715765
 40
0.2147529716359187
 40
0.2804215366912471
 40
0.3436044295193645
 40
0.4055426388186584
 40
0.4661994619307763
 40
0.5265381448244667
 40
0.5859019063092091
 40
0.6440895746157925
 40
0.7016130759883658
 40
0.758753587436571
 40
0.8166294493897664
 40
0.8756554749553044
 40
0.9366243322865296
 40
1.0
 40
1.0
 40
1.0
 40
1.0
 10
-15.97663817663818
 20
-0.7631464807389028
 30
0.0
 10
-15.98238095069951
 20
-0.662561645772379
 30
0.0
 10
-15.99360198642159
 20
-0.4660249173190368
 30
0.0
 10
-16.03823643041175
 20
-0.1805490261635974
 30
0.0
 10
-16.09804505356001
 20
0.0891942988009696
 30
0.0
 10
-16.17786760084536
 20
0.342261466033328
 30
0.0
 10
-16.27816985442091
 20
0.5785605190588083
 30
0.0
 10
-16.3963707788638
 20
0.7988970142210657
 30
0.0
 10
-16.53549013926597
 20
1.002110874990914
 30
0.0
 10
-16.69256701809822
 20
1.187222089417396
 30
0.0
 10
-16.86493468206368
 20
1.353287068064079
 30
0.0
 10
-17.04901460920793
 20
1.500530710796398
 30
0.0
 10
-17.24762255009131
 20
1.622032459149749
 30
0.0
 10
-17.45712977516066
 20
1.722017149213084
 30
0.0
 10
-17.67750060965819
 20
1.801900270479317
 30
0.0
 10
-17.91082010780971
 20
1.855308601484055
 30
0.0
 10
-18.1550680630525
 20
1.891477246440473
 30
0.0
 10
-18.3222755669671
 20
1.894642147996233
 30
0.0
 10
-18.40749755163818
 20
1.896255228662806
 30
0.0
  0
SPLINE
  5
8C
330
1F
100
AcDbEntity
  8
0
  6
Continuous
 62
     7
370
    25
100
AcDbSpline
210
0.0
220
0.0
230
1.0
 70
     8
 71
     3
 72
    19
 73
    15
 74
     0
 42
0.000000001
 43
0.00000001
 40
0.0
 40
0.0
 40
0.0
 40
0.0
 40
0.0896145288821156
 40
0.1749485612865263
 40
0.2575481258745668
 40
0.3389007874900947
 40
0.4200531858831906
 40
0.501401427119362
 40
0.5842520267159586
 40
0.6703704767286315
 40
0.7564732666582519
 40
0.8392065940498487
 40
0.9201204666578204
 40
1.0
 40
1.0
 40
1.0
 40
1.0
 10
-18.40749755163818
 20
1.896255228662806
 30
0.0
 10
-18.51210632881926
 20
1.892991159042466
 30
0.0
 10
-18.71632717664459
 20
1.886618930218179
 30
0.0
 10
-19.01307626719958
 20
1.83226170352807
 30
0.0
 10
-19.29020747223689
 20
1.741340842035125
 30
0.0
 10
-19.54751934340397
 20
1.614300420519208
 30
0.0
 10
-19.78282133949325
 20
1.452908881942998
 30
0.0
 10
-19.9960744410369
 20
1.260475885770965
 30
0.0
 10
-20.18082953420918
 20
1.032964086820441
 30
0.0
 10
-20.33825802057757
 20
0.7798398798078463
 30
0.0
 10
-20.46906227759287
 20
0.5118169687836266
 30
0.0
 10
-20.56072445228357
 20
0.234670164345189
 30
0.0
 10
-20.62097301317862
 20
-0.0442461810713014
 30
0.0
 10
-20.62739889509078
 20
-0.2320543306619586
 30
0.0
 10
-20.63059116809117
 20
-0.3253543466577068
 30
0.0
  0
SPLINE
  5
8D
330
1F
100
AcDbEntity
  8
0
  6
Continuous
 62
     7
370
    25
100
AcDbSpline
210
0.0
220
0.0
230
1.0
 70
     8
 71
     3
 72
    23
 73
    19
 74
     0
 42
0.000000001
 43
0.00000001
 40
0.0
 40
0.0
 40
0.0
 40
0.0
 40
0.0455177516513178
 40
0.0916159906181648
 40
0.1392465550335721
 40
0.1882415637234044
 40
0.238673079372537
 40
0.2906638743206419
 40
0.3448398555786327
 40
0.4004316067351773
 40
0.4591437176132941
 40
0.5225510475946141
 40
0.5901008583230444
 40
0.6622596565248672
 40
0.7396813070012566
 40
0.821575471385422
 40
0.9083300466844452
 40
0.9999999999999999
 40
0.9999999999999999
 40
0.9999999999999999
 40
0.9999999999999999
 10
-20.63059116809117
 20
-0.3253543466577068
 30
0.0
 10
-20.62934826556976
 20
-0.381788790471969
 30
0.0
 10
-20.62684660980668
 20
-0.4953773858541642
 30
0.0
 10
-20.60945226486349
 20
-0.6672648092513024
 30
0.0
 10
-20.58335731032103
 20
-0.842352246141589
 30
0.0
 10
-20.54401247824369
 20
-1.020489575366064
 30
0.0
 10
-20.49494624708783
 20
-1.201726731624962
 30
0.0
 10
-20.4354218166881
 20
-1.386606095433712
 30
0.0
 10
-20.36405845932184
 20
-1.574079468583455
 30
0.0
 10
-20.28204708454018
 20
-1.766256831826021
 30
0.0
 10
-20.184207306576
 20
-1.963762109786175
 30
0.0
 10
-20.07028648489989
 20
-2.169555983502405
 30
0.0
 10
-19.93726090275431
 20
-2.383455897599188
 30
0.0
 10
-19.78673734139075
 20
-2.606669600649708
 30
0.0
 10
-19.61798474400157
 20
-2.838845050075429
 30
0.0
 10
-19.43017931610364
 20
-3.079282860967636
 30
0.0
 10
-19.22548413520342
 20
-3.328830259453435
 30
0.0
 10
-19.08020620696183
 20
-3.495638691121107
 30
0.0
 10
-19.00556612802707
 20
-3.581340591315826
 30
0.0
  0
LINE
  5
8E
330
1F
100
AcDbEntity
  8
0
  6
Continuous
 62
     7
370
    25
100
AcDbLine
 10
-19.005566128
 20
-3.5813405913
 30
0.0
 11
-18.232380698
 21
-4.4673131474
 31
0.0
  0
LINE
  5
8F
330
1F
100
AcDbEntity
  8
0
  6
Continuous
 62
     7
370
    25
100
AcDbLine
 10
-18.232380698
 20
-4.4673131474
 30
0.0
 11
-20.7255698006
 21
-4.4673131474
 31
0.0
  0
LINE
  5
90
330
1F
100
AcDbEntity
  8
0
  6
Continuous
 62
     7
370
    25
100
AcDbLine
 10
-20.7255698006
 20
-4.4673131474
 30
0.0
 11
-20.7255698006
 21
-5.7020353696
 31
0.0
  0
LINE
  5
91
330
1F
100
AcDbEntity
  8
0
  6
Continuous
 62
     7
370
    25
100
AcDbLine
 10
-20.7255698006
 20
-5.7020353696
 30
0.0
 11
-15.7866809117
 21
-5.7020353696
 31
0.0
  0
LINE
  5
92
330
1F
100
AcDbEntity
  8
0
  6
Continuous
 62
     7
370
    25
100
AcDbLine
 10
-15.7866809117
 20
-5.7020353696
 30
0.0
 11
-15.7866809117
 21
-5.0282806955
 31
0.0
  0
LINE
  5
93
330
1F
100
AcDbEntity
  8
0
  6
Continuous
 62
     7
370
    25
100
AcDbLine
 10
-15.7866809117
 20
-5.0282806955
 30
0.0
 11
-17.9800937055
 21
-2.6938839941
 31
0.0
  0
SPLINE
  5
94
330
1F
100
AcDbEntity
  8
0
  6
Continuous
 62
     7
370
    25
100
AcDbSpline
210
0.0
220
0.0
230
1.0
 70
     8
 71
     3
 72
    19
 73
    15
 74
     0
 42
0.000000001
 43
0.00000001
 40
0.0
 40
0.0
 40
0.0
 40
0.0
 40
0.1038439242634205
 40
0.2011148859465242
 40
0.2911157193792178
 40
0.3743484039713637
 40
0.4507073961858711
 40
0.5200404120163615
 40
0.5832583224453378
 40
0.6395782998253261
 40
0.7415365099482684
 40
0.835060048681737
 40
0.9208729600458341
 40
1.0
 40
1.0
 40
1.0
 40
1.0
 10
-17.98009370548434
 20
-2.693883994093603
 30
0.0
 10
-18.04359864243838
 20
-2.625788917431994
 30
0.0
 10
-18.16658887266269
 20
-2.493908947819335
 30
0.0
 10
-18.34159129545857
 20
-2.300229182133094
 30
0.0
 10
-18.49995302924102
 20
-2.116431707572699
 30
0.0
 10
-18.63839031466575
 20
-1.940559451816436
 30
0.0
 10
-18.76416816225623
 20
-1.778316995132425
 30
0.0
 10
-18.87167814766534
 20
-1.624814147408252
 30
0.0
 10
-18.96190390309048
 20
-1.481438629678955
 30
0.0
 10
-19.05985675750167
 20
-1.308552795615488
 30
0.0
 10
-19.15287976984072
 20
-1.102355673607142
 30
0.0
 10
-19.23823401370461
 20
-0.864808134361716
 30
0.0
 10
-19.29026333199872
 20
-0.6377673954296398
 30
0.0
 10
-19.29744502332147
 20
-0.4898227695618474
 30
0.0
 10
-19.30089031339032
 20
-0.4188489380038606
 30
0.0
  0
LINE
  5
95
330
1F
100
AcDbEntity
  8
0
  6
Continuous
 62
     7
370
    25
100
AcDbLine
 10
-27.3829783209
 20
-5.7020353696
 30
0.0
 11
-26.0043041088
 21
-5.7020353696
 31
0.0
  0
LINE
  5
96
330
1F
100
AcDbEntity
  8
0
  6
Continuous
 62
     7
370
    25
100
AcDbLine
 10
-26.0043041088
 20
-5.7020353696
 30
0.0
 11
-24.2872685185
 21
1.7062979637
 31
0.0
  0
LINE
  5
97
330
1F
100
AcDbEntity
  8
0
  6
Continuous
 62
     7
370
    25
100
AcDbLine
 10
-24.2872685185
 20
1.7062979637
 30
0.0
 11
-25.6600065661
 21
1.7062979637
 31
0.0
  0
LINE
  5
98
330
1F
100
AcDbEntity
  8
0
  6
Continuous
 62
     7
370
    25
100
AcDbLine
 10
-25.6600065661
 20
1.7062979637
 30
0.0
 11
-26.756712963
 21
-3.0233411255
 31
0.0
  0
LINE
  5
99
330
1F
100
AcDbEntity
  8
0
  6
Continuous
 62
     7
370
    25
100
AcDbLine
 10
-26.756712963
 20
-3.0233411255
 30
0.0
 11
-28.0136958022
 21
1.7062979637
 31
0.0
  0
LINE
  5
9A
330
1F
100
AcDbEntity
  8
0
  6
Continuous
 62
     7
370
    25
100
AcDbLine
 10
-28.0136958022
 20
1.7062979637
 30
0.0
 11
-29.3062956286
 21
1.7062979637
 31
0.0
  0
LINE
  5
9B
330
1F
100
AcDbEntity
  8
0
  6
Continuous
 62
     7
370
    25
100
AcDbLine
 10
-29.3062956286
 20
1.7062979637
 30
0.0
 11
-30.5558582621
 21
-3.0233411255
 31
0.0
  0
LINE
  5
9C
330
1F
100
AcDbEntity
  8
0
  6
Continuous
 62
     7
370
    25
100
AcDbLine
 10
-30.5558582621
 20
-3.0233411255
 30
0.0
 11
-31.6495965767
 21
1.7062979637
 31
0.0
  0
LINE
  5
9D
330
1F
100
AcDbEntity
  8
0
  6
Continuous
 62
     7
370
    25
100
AcDbLine
 10
-31.6495965767
 20
1.7062979637
 30
0.0
 11
-33.0253027066
 21
1.7062979637
 31
0.0
  0
LINE
  5
9E
330
1F
100
AcDbEntity
  8
0
  6
Continuous
 62
     7
370
    25
100
AcDbLine
 10
-33.0253027066
 20
1.7062979637
 30
0.0
 11
-31.3112351985
 21
-5.7020353696
 31
0.0
  0
LINE
  5
9F
330
1F
100
AcDbEntity
  8
0
  6
Continuous
 62
     7
370
    25
100
AcDbLine
 10
-31.3112351985
 20
-5.7020353696
 30
0.0
 11
-29.9221726985
 21
-5.7020353696
 31
0.0
  0
LINE
  5
A0
330
1F
100
AcDbEntity
  8
0
  6
Continuous
 62
     7
370
    25
100
AcDbLine
 10
-29.9221726985
 20
-5.7020353696
 30
0.0
 11
-28.6562856125
 21
-0.9130346351
 31
0.0
  0
LINE
  5
A1
330
1F
100
AcDbEntity
  8
0
  6
Continuous
 62
     7
370
    25
100
AcDbLine
 10
-28.6562856125
 20
-0.9130346351
 30
0.0
 11
-27.3829783209
 21
-5.7020353696
 31
0.0
  0
LINE
  5
A2
330
1F
100
AcDbEntity
  8
0
  6
Continuous
 62
     7
370
    25
100
AcDbLine
 10
-35.3522792023
 20
-5.7020353696
 30
0.0
 11
-34.0225783476
 21
-5.7020353696
 31
0.0
  0
LINE
  5
A3
330
1F
100
AcDbEntity
  8
0
  6
Continuous
 62
     7
370
    25
100
AcDbLine
 10
-34.0225783476
 20
-5.7020353696
 30
0.0
 11
-34.0225783476
 21
1.7062979637
 31
0.0
  0
LINE
  5
A4
330
1F
100
AcDbEntity
  8
0
  6
Continuous
 62
     7
370
    25
100
AcDbLine
 10
-34.0225783476
 20
1.7062979637
 30
0.0
 11
-35.3522792023
 21
1.7062979637
 31
0.0
  0
LINE
  5
A5
330
1F
100
AcDbEntity
  8
0
  6
Continuous
 62
     7
370
    25
100
AcDbLine
 10
-35.3522792023
 20
1.7062979637
 30
0.0
 11
-35.3522792023
 21
-5.7020353696
 31
0.0
  0
LINE
  5
A6
330
1F
100
AcDbEntity
  8
0
  6
Continuous
 62
     7
370
    25
100
AcDbLine
 10
-38.3915954416
 20
-5.7020353696
 30
0.0
 11
-37.0618945869
 21
-5.7020353696
 31
0.0
  0
LINE
  5
A7
330
1F
100
AcDbEntity
  8
0
  6
Continuous
 62
     7
370
    25
100
AcDbLine
 10
-37.0618945869
 20
-5.7020353696
 30
0.0
 11
-37.0618945869
 21
1.7062979637
 31
0.0
  0
LINE
  5
A8
330
1F
100
AcDbEntity
  8
0
  6
Continuous
 62
     7
370
    25
100
AcDbLine
 10
-37.0618945869
 20
1.7062979637
 30
0.0
 11
-38.2595157808
 21
1.7062979637
 31
0.0
  0
LINE
  5
A9
330
1F
100
AcDbEntity
  8
0
  6
Continuous
 62
     7
370
    25
100
AcDbLine
 10
-38.2595157808
 20
1.7062979637
 30
0.0
 11
-41.6208689459
 21
-3.1687771565
 31
0.0
  0
LINE
  5
AA
330
1F
100
AcDbEntity
  8
0
  6
Continuous
 62
     7
370
    25
100
AcDbLine
 10
-41.6208689459
 20
-3.1687771565
 30
0.0
 11
-41.6208689459
 21
1.7062979637
 31
0.0
  0
LINE
  5
AB
330
1F
100
AcDbEntity
  8
0
  6
Continuous
 62
     7
370
    25
100
AcDbLine
 10
-41.6208689459
 20
1.7062979637
 30
0.0
 11
-42.9505698006
 21
1.7062979637
 31
0.0
  0
LINE
  5
AC
330
1F
100
AcDbEntity
  8
0
  6
Continuous
 62
     7
370
    25
100
AcDbLine
 10
-42.9505698006
 20
1.7062979637
 30
0.0
 11
-42.9505698006
 21
-5.7020353696
 31
0.0
  0
LINE
  5
AD
330
1F
100
AcDbEntity
  8
0
  6
Continuous
 62
     7
370
    25
100
AcDbLine
 10
-42.9505698006
 20
-5.7020353696
 30
0.0
 11
-41.7440443599
 21
-5.7020353696
 31
0.0
  0
LINE
  5
AE
330
1F
100
AcDbEntity
  8
0
  6
Continuous
 62
     7
370
    25
100
AcDbLine
 10
-41.7440443599
 20
-5.7020353696
 30
0.0
 11
-38.3915954416
 21
-0.8418006608
 31
0.0
  0
LINE
  5
AF
330
1F
100
AcDbEntity
  8
0
  6
Continuous
 62
     7
370
    25
100
AcDbLine
 10
-38.3915954416
 20
-0.8418006608
 30
0.0
 11
-38.3915954416
 21
-5.7020353696
 31
0.0
  0
LINE
  5
B0
330
1F
100
AcDbEntity
  8
0
  6
Continuous
 62
     7
370
    25
100
AcDbLine
 10
-45.9898860399
 20
-5.7020353696
 30
0.0
 11
-44.6601851852
 21
-5.7020353696
 31
0.0
  0
LINE
  5
B1
330
1F
100
AcDbEntity
  8
0
  6
Continuous
 62
     7
370
    25
100
AcDbLine
 10
-44.6601851852
 20
-5.7020353696
 30
0.0
 11
-44.6601851852
 21
1.7062979637
 31
0.0
  0
LINE
  5
B2
330
1F
100
AcDbEntity
  8
0
  6
Continuous
 62
     7
370
    25
100
AcDbLine
 10
-44.6601851852
 20
1.7062979637
 30
0.0
 11
-45.8578063791
 21
1.7062979637
 31
0.0
  0
LINE
  5
B3
330
1F
100
AcDbEntity
  8
0
  6
Continuous
 62
     7
370
    25
100
AcDbLine
 10
-45.8578063791
 20
1.7062979637
 30
0.0
 11
-49.2191595442
 21
-3.1687771565
 31
0.0
  0
LINE
  5
B4
330
1F
100
AcDbEntity
  8
0
  6
Continuous
 62
     7
370
    25
100
AcDbLine
 10
-49.2191595442
 20
-3.1687771565
 30
0.0
 11
-49.2191595442
 21
1.7062979637
 31
0.0
  0
LINE
  5
B5
330
1F
100
AcDbEntity
  8
0
  6
Continuous
 62
     7
370
    25
100
AcDbLine
 10
-49.2191595442
 20
1.7062979637
 30
0.0
 11
-50.5488603989
 21
1.7062979637
 31
0.0
  0
LINE
  5
B6
330
1F
100
AcDbEntity
  8
0
  6
Continuous
 62
     7
370
    25
100
AcDbLine
 10
-50.5488603989
 20
1.7062979637
 30
0.0
 11
-50.5488603989
 21
-5.7020353696
 31
0.0
  0
LINE
  5
B7
330
1F
100
AcDbEntity
  8
0
  6
Continuous
 62
     7
370
    25
100
AcDbLine
 10
-50.5488603989
 20
-5.7020353696
 30
0.0
 11
-49.3423349582
 21
-5.7020353696
 31
0.0
  0
LINE
  5
B8
330
1F
100
AcDbEntity
  8
0
  6
Continuous
 62
     7
370
    25
100
AcDbLine
 10
-49.3423349582
 20
-5.7020353696
 30
0.0
 11
-45.9898860399
 21
-0.8418006608
 31
0.0
  0
LINE
  5
B9
330
1F
100
AcDbEntity
  8
0
  6
Continuous
 62
     7
370
    25
100
AcDbLine
 10
-45.9898860399
 20
-0.8418006608
 30
0.0
 11
-45.9898860399
 21
-5.7020353696
 31
0.0
  0
LINE
  5
BA
330
1F
100
AcDbEntity
  8
0
  6
Continuous
 62
     7
370
    25
100
AcDbLine
 10
-56.2475783476
 20
-5.7020353696
 30
0.0
 11
-52.2584757835
 21
-5.7020353696
 31
0.0
  0
LINE
  5
BB
330
1F
100
AcDbEntity
  8
0
  6
Continuous
 62
     7
370
    25
100
AcDbLine
 10
-52.2584757835
 20
-5.7020353696
 30
0.0
 11
-52.2584757835
 21
1.7062979637
 31
0.0
  0
LINE
  5
BC
330
1F
100
AcDbEntity
  8
0
  6
Continuous
 62
     7
370
    25
100
AcDbLine
 10
-52.2584757835
 20
1.7062979637
 30
0.0
 11
-56.2475783476
 21
1.7062979637
 31
0.0
  0
LINE
  5
BD
330
1F
100
AcDbEntity
  8
0
  6
Continuous
 62
     7
370
    25
100
AcDbLine
 10
-56.2475783476
 20
1.7062979637
 30
0.0
 11
-56.2475783476
 21
0.376597109
 31
0.0
  0
LINE
  5
BE
330
1F
100
AcDbEntity
  8
0
  6
Continuous
 62
     7
370
    25
100
AcDbLine
 10
-56.2475783476
 20
0.376597109
 30
0.0
 11
-53.5881766382
 21
0.376597109
 31
0.0
  0
LINE
  5
BF
330
1F
100
AcDbEntity
  8
0
  6
Continuous
 62
     7
370
    25
100
AcDbLine
 10
-53.5881766382
 20
0.376597109
 30
0.0
 11
-53.5881766382
 21
-1.0480823782
 31
0.0
  0
LINE
  5
C0
330
1F
100
AcDbEntity
  8
0
  6
Continuous
 62
     7
370
    25
100
AcDbLine
 10
-53.5881766382
 20
-1.0480823782
 30
0.0
 11
-56.2475783476
 21
-1.0480823782
 31
0.0
  0
LINE
  5
C1
330
1F
100
AcDbEntity
  8
0
  6
Continuous
 62
     7
370
    25
100
AcDbLine
 10
-56.2475783476
 20
-1.0480823782
 30
0.0
 11
-56.2475783476
 21
-2.3777832329
 31
0.0
  0
LINE
  5
C2
330
1F
100
AcDbEntity
  8
0
  6
Continuous
 62
     7
370
    25
100
AcDbLine
 10
-56.2475783476
 20
-2.3777832329
 30
0.0
 11
-53.5881766382
 21
-2.3777832329
 31
0.0
  0
LINE
  5
C3
330
1F
100
AcDbEntity
  8
0
  6
Continuous
 62
     7
370
    25
100
AcDbLine
 10
-53.5881766382
 20
-2.3777832329
 30
0.0
 11
-53.5881766382
 21
-4.3723345149
 31
0.0
  0
LINE
  5
C4
330
1F
100
AcDbEntity
  8
0
  6
Continuous
 62
     7
370
    25
100
AcDbLine
 10
-53.5881766382
 20
-4.3723345149
 30
0.0
 11
-56.2475783476
 21
-4.3723345149
 31
0.0
  0
LINE
  5
C5
330
1F
100
AcDbEntity
  8
0
  6
Continuous
 62
     7
370
    25
100
AcDbLine
 10
-56.2475783476
 20
-4.3723345149
 30
0.0
 11
-56.2475783476
 21
-5.7020353696
 31
0.0
  0
LINE
  5
C6
330
1F
100
AcDbEntity
  8
0
  6
Continuous
 62
     7
370
    25
100
AcDbLine
 10
-58.906980057
 20
-5.7020353696
 30
0.0
 11
-57.5772792023
 21
-5.7020353696
 31
0.0
  0
LINE
  5
C7
330
1F
100
AcDbEntity
  8
0
  6
Continuous
 62
     7
370
    25
100
AcDbLine
 10
-57.5772792023
 20
-5.7020353696
 30
0.0
 11
-57.5772792023
 21
1.7062979637
 31
0.0
  0
LINE
  5
C8
330
1F
100
AcDbEntity
  8
0
  6
Continuous
 62
     7
370
    25
100
AcDbLine
 10
-57.5772792023
 20
1.7062979637
 30
0.0
 11
-59.1266181446
 21
1.7062979637
 31
0.0
  0
SPLINE
  5
C9
330
1F
100
AcDbEntity
  8
0
  6
Continuous
 62
     7
370
    25
100
AcDbSpline
210
0.0
220
0.0
230
1.0
 70
     8
 71
     3
 72
    31
 73
    27
 74
     0
 42
0.000000001
 43
0.00000001
 40
0.0
 40
0.0
 40
0.0
 40
0.0
 40
0.0728890266200381
 40
0.1401861299444948
 40
0.2022774341249584
 40
0.2588951317514631
 40
0.3104829424654783
 40
0.3570952441313362
 40
0.3985135666534651
 40
0.4350375108701164
 40
0.4692514858292874
 40
0.5028050278902744
 40
0.5362104463185617
 40
0.5693793599392056
 40
0.6028014750483933
 40
0.6366657983367764
 40
0.6709286568940432
 40
0.7058030002293126
 40
0.7411890612458779
 40
0.7763043110764614
 40
0.8120043009129351
 40
0.8479689758088954
 40
0.8845217611964791
 40
0.921974158544205
 40
0.9601981758096079
 40
1.0
 40
1.0
 40
1.0
 40
1.0
 10
-59.12661814458689
 20
1.706297963705541
 30
0.0
 10
-59.22902897706046
 20
1.705934464025628
 30
0.0
 10
-59.4259938555147
 20
1.705235351748703
 30
0.0
 10
-59.71000645220327
 20
1.694205211865081
 30
0.0
 10
-59.97091108036731
 20
1.678855866898658
 30
0.0
 10
-60.20909403290797
 20
1.655432359081281
 30
0.0
 10
-60.4244534112326
 20
1.624375619071295
 30
0.0
 10
-60.61720505577421
 20
1.587764861810205
 30
0.0
 10
-60.78734333259226
 20
1.546039054784825
 30
0.0
 10
-60.93630312307717
 20
1.494045407167883
 30
0.0
 10
-61.07073196807575
 20
1.435397360924799
 30
0.0
 10
-61.19603834080514
 20
1.368009680384788
 30
0.0
 10
-61.31498668618411
 20
1.29263274868238
 30
0.0
 10
-61.42678196299187
 20
1.207283194714425
 30
0.0
 10
-61.53239569846811
 20
1.113496435930069
 30
0.0
 10
-61.63202713925686
 20
1.011178066747629
 30
0.0
 10
-61.7242684007538
 20
0.8994604695381074
 30
0.0
 10
-61.80854832132345
 20
0.7790495577436513
 30
0.0
 10
-61.88536268482706
 20
0.6523800397238747
 30
0.0
 10
-61.95325047142402
 20
0.5192779974038315
 30
0.0
 10
-62.00845693232145
 20
0.3796508671781994
 30
0.0
 10
-62.05723775852577
 20
0.2355165629453446
 30
0.0
 10
-62.09237300730978
 20
0.0848146565490288
 30
0.0
 10
-62.11680905885493
 20
-0.0709877435128456
 30
0.0
 10
-62.13470017985654
 20
-0.2324390782304785
 30
0.0
 10
-62.13572883378038
 20
-0.3421219466804818
 30
0.0
 10
-62.13625356125356
 20
-0.3980723621491598
 30
0.0
  0
SPLINE
  5
CA
330
1F
100
AcDbEntity
  8
0
  6
Continuous
 62
     7
370
    25
100
AcDbSpline
210
0.0
220
0.0
230
1.0
 70
     8
 71
     3
 72
    23
 73
    19
 74
     0
 42
0.000000001
 43
0.00000001
 40
0.0
 40
0.0
 40
0.0
 40
0.0
 40
0.0687412630793657
 40
0.1347890881950345
 40
0.1985360495606909
 40
0.2603856506059204
 40
0.3209615782321967
 40
0.3799038495841493
 40
0.4385029357752687
 40
0.4961543439762698
 40
0.5542654832084997
 40
0.612748760815695
 40
0.6725134425261787
 40
0.7336464018979736
 40
0.7967896194814559
 40
0.861935699041025
 40
0.9293977347748996
 40
1.0
 40
1.0
 40
1.0
 40
1.0
 10
-62.13625356125356
 20
-0.3980723621491598
 30
0.0
 10
-62.13489050797725
 20
-0.4564717428295669
 30
0.0
 10
-62.13221780893096
 20
-0.5709822845398433
 30
0.0
 10
-62.11782119785973
 20
-0.7391889308820099
 30
0.0
 10
-62.0915087152479
 20
-0.9001172845552649
 30
0.0
 10
-62.05165463236737
 20
-1.053296167138669
 30
0.0
 10
-62.00584754069084
 20
-1.200632068403912
 30
0.0
 10
-61.94493585893964
 20
-1.339406548841083
 30
0.0
 10
-61.87619100577845
 20
-1.471637882220965
 30
0.0
 10
-61.79454475219175
 20
-1.595455606214635
 30
0.0
 10
-61.70494197757232
 20
-1.713609959847592
 30
0.0
 10
-61.60073583553619
 20
-1.821574011501537
 30
0.0
 10
-61.4886772834351
 20
-1.925150420158987
 30
0.0
 10
-61.36246710194553
 20
-2.017851510983146
 30
0.0
 10
-61.22766875310854
 20
-2.105945396756801
 30
0.0
 10
-61.08160393555582
 20
-2.185781917563276
 30
0.0
 10
-60.92522591838043
 20
-2.259367979708803
 30
0.0
 10
-60.81528442797934
 20
-2.300404651031159
 30
0.0
 10
-60.75906339031339
 20
-2.321389669841467
 30
0.0
  0
LINE
  5
CB
330
1F
100
AcDbEntity
  8
0
  6
Continuous
 62
     7
370
    25
100
AcDbLine
 10
-60.7590633903
 20
-2.3213896698
 30
0.0
 11
-62.4686787749
 21
-5.7020353696
 31
0.0
  0
LINE
  5
CC
330
1F
100
AcDbEntity
  8
0
  6
Continuous
 62
     7
370
    25
100
AcDbLine
 10
-62.4686787749
 20
-5.7020353696
 30
0.0
 11
-60.990573807
 21
-5.7020353696
 31
0.0
  0
LINE
  5
CD
330
1F
100
AcDbEntity
  8
0
  6
Continuous
 62
     7
370
    25
100
AcDbLine
 10
-60.990573807
 20
-5.7020353696
 30
0.0
 11
-59.3581285613
 21
-2.4727618654
 31
0.0
  0
LINE
  5
CE
330
1F
100
AcDbEntity
  8
0
  6
Continuous
 62
     7
370
    25
100
AcDbLine
 10
-59.3581285613
 20
-2.4727618654
 30
0.0
 11
-58.906980057
 21
-2.4727618654
 31
0.0
  0
LINE
  5
CF
330
1F
100
AcDbEntity
  8
0
  6
Continuous
 62
     7
370
    25
100
AcDbLine
 10
-58.906980057
 20
-2.4727618654
 30
0.0
 11
-58.906980057
 21
-5.7020353696
 31
0.0
  0
LINE
  5
D0
330
1F
100
AcDbEntity
  8
0
  6
Continuous
 62
     7
370
    25
100
AcDbLine
 10
70.8618233618
 20
-12.4074074074
 30
0.0
 11
70.8618233618
 21
1.0033366682
 31
0.0
  0
LINE
  5
D1
330
1F
100
AcDbEntity
  8
0
  6
Continuous
 62
     7
370
    25
100
AcDbLine
 10
-4.1381766382
 20
-12.4074074074
 30
0.0
 11
70.8618233618
 21
-12.4074074074
 31
0.0
  0
LINE
  5
D2
330
1F
100
AcDbEntity
  8
0
  6
Continuous
 62
     7
370
    25
100
AcDbLine
 10
-4.1381766382
 20
-17.4074074074
 30
0.0
 11
-4.1381766382
 21
-12.4074074074
 31
0.0
  0
LINE
  5
D3
330
1F
100
AcDbEntity
  8
0
  6
Continuous
 62
     7
370
    25
100
AcDbLine
 10
-54.1381766382
 20
-17.4074074074
 30
0.0
 11
-4.1381766382
 21
-17.4074074074
 31
0.0
  0
LINE
  5
D4
330
1F
100
AcDbEntity
  8
0
  6
Continuous
 62
     7
370
    25
100
AcDbLine
 10
-54.1381766382
 20
-12.4074074074
 30
0.0
 11
-54.1381766382
 21
-17.4074074074
 31
0.0
  0
LINE
  5
D5
330
1F
100
AcDbEntity
  8
0
  6
Continuous
 62
     7
370
    25
100
AcDbLine
 10
-89.1381766382
 20
-12.4074074074
 30
0.0
 11
-54.1381766382
 21
-12.4074074074
 31
0.0
  0
LINE
  5
D6
330
1F
100
AcDbEntity
  8
0
  6
Continuous
 62
     7
370
    25
100
AcDbLine
 10
-89.1381766382
 20
1.0033366682
 30
0.0
 11
-89.1381766382
 21
-12.4074074074
 31
0.0
  0
LINE
  5
D7
330
1F
100
AcDbEntity
  8
0
  6
Continuous
 62
     7
370
    25
100
AcDbLine
 10
-85.8563268942
 20
0.9925925926
 30
0.0
 11
-89.1381766382
 21
1.0033366682
 31
0.0
  0
LINE
  5
D8
330
1F
100
AcDbEntity
  8
0
  6
Continuous
 62
     7
370
    25
100
AcDbLine
 10
-85.8563268942
 20
-0.2074074074
 30
0.0
 11
-85.8563268942
 21
0.9925925926
 31
0.0
  0
LINE
  5
D9
330
1F
100
AcDbEntity
  8
0
  6
Continuous
 62
     7
370
    25
100
AcDbLine
 10
-83.4363268942
 20
-0.2074074074
 30
0.0
 11
-85.8563268942
 21
-0.2074074074
 31
0.0
  0
LINE
  5
DA
330
1F
100
AcDbEntity
  8
0
  6
Continuous
 62
     7
370
    25
100
AcDbLine
 10
-83.4363268942
 20
0.9925925926
 30
0.0
 11
-83.4363268942
 21
-0.2074074074
 31
0.0
  0
LINE
  5
DB
330
1F
100
AcDbEntity
  8
0
  6
Continuous
 62
     7
370
    25
100
AcDbLine
 10
-78.9381766382
 20
0.9925925926
 30
0.0
 11
-83.4363268942
 21
0.9925925926
 31
0.0
  0
LINE
  5
DC
330
1F
100
AcDbEntity
  8
0
  6
Continuous
 62
     7
370
    25
100
AcDbLine
 10
-78.9381766382
 20
4.1925925926
 30
0.0
 11
-78.9381766382
 21
0.9925925926
 31
0.0
  0
LINE
  5
DD
330
1F
100
AcDbEntity
  8
0
  6
Continuous
 62
     7
370
    25
100
AcDbLine
 10
-83.4363268942
 20
4.1925925926
 30
0.0
 11
-78.9381766382
 21
4.1925925926
 31
0.0
  0
LINE
  5
DE
330
1F
100
AcDbEntity
  8
0
  6
Continuous
 62
     7
370
    25
100
AcDbLine
 10
-83.4363268942
 20
5.3925925926
 30
0.0
 11
-83.4363268942
 21
4.1925925926
 31
0.0
  0
LINE
  5
DF
330
1F
100
AcDbEntity
  8
0
  6
Continuous
 62
     7
370
    25
100
AcDbLine
 10
-85.8563268942
 20
5.3925925926
 30
0.0
 11
-83.4363268942
 21
5.3925925926
 31
0.0
  0
LINE
  5
E0
330
1F
100
AcDbEntity
  8
0
  6
Continuous
 62
     7
370
    25
100
AcDbLine
 10
-85.8563268942
 20
4.1925925926
 30
0.0
 11
-85.8563268942
 21
5.3925925926
 31
0.0
  0
LINE
  5
E1
330
1F
100
AcDbEntity
  8
0
  6
Continuous
 62
     7
370
    25
100
AcDbLine
 10
-89.1381766382
 20
4.1800925926
 30
0.0
 11
-85.8563268942
 21
4.1925925926
 31
0.0
  0
LINE
  5
E2
330
1F
100
AcDbEntity
  8
0
  6
Continuous
 62
     7
370
    25
100
AcDbLine
 10
-89.1381766382
 20
17.5925925926
 30
0.0
 11
-89.1381766382
 21
4.1800925926
 31
0.0
  0
LINE
  5
E3
330
1F
100
AcDbEntity
  8
0
  6
Continuous
 62
     7
370
    25
100
AcDbLine
 10
70.8618233618
 20
17.5925925926
 30
0.0
 11
-89.1381766382
 21
17.5925925926
 31
0.0
  0
LINE
  5
E4
330
1F
100
AcDbEntity
  8
0
  6
Continuous
 62
     7
370
    25
100
AcDbLine
 10
70.8618233618
 20
4.1800925926
 30
0.0
 11
70.8618233618
 21
17.5925925926
 31
0.0
  0
LINE
  5
E5
330
1F
100
AcDbEntity
  8
0
  6
Continuous
 62
     7
370
    25
100
AcDbLine
 10
67.5799736178
 20
4.1925925926
 30
0.0
 11
70.8618233618
 21
4.1800925926
 31
0.0
  0
LINE
  5
E6
330
1F
100
AcDbEntity
  8
0
  6
Continuous
 62
     7
370
    25
100
AcDbLine
 10
67.5799736178
 20
5.3925925926
 30
0.0
 11
67.5799736178
 21
4.1925925926
 31
0.0
  0
LINE
  5
E7
330
1F
100
AcDbEntity
  8
0
  6
Continuous
 62
     7
370
    25
100
AcDbLine
 10
65.1599736178
 20
5.3925925926
 30
0.0
 11
67.5799736178
 21
5.3925925926
 31
0.0
  0
LINE
  5
E8
330
1F
100
AcDbEntity
  8
0
  6
Continuous
 62
     7
370
    25
100
AcDbLine
 10
65.1599736178
 20
4.1925925926
 30
0.0
 11
65.1599736178
 21
5.3925925926
 31
0.0
  0
LINE
  5
E9
330
1F
100
AcDbEntity
  8
0
  6
Continuous
 62
     7
370
    25
100
AcDbLine
 10
60.6618233618
 20
4.1925925926
 30
0.0
 11
65.1599736178
 21
4.1925925926
 31
0.0
  0
LINE
  5
EA
330
1F
100
AcDbEntity
  8
0
  6
Continuous
 62
     7
370
    25
100
AcDbLine
 10
60.6618233618
 20
0.9925925926
 30
0.0
 11
60.6618233618
 21
4.1925925926
 31
0.0
  0
LINE
  5
EB
330
1F
100
AcDbEntity
  8
0
  6
Continuous
 62
     7
370
    25
100
AcDbLine
 10
65.1599736178
 20
0.9925925926
 30
0.0
 11
60.6618233618
 21
0.9925925926
 31
0.0
  0
LINE
  5
EC
330
1F
100
AcDbEntity
  8
0
  6
Continuous
 62
     7
370
    25
100
AcDbLine
 10
65.1599736178
 20
-0.2074074074
 30
0.0
 11
65.1599736178
 21
0.9925925926
 31
0.0
  0
LINE
  5
ED
330
1F
100
AcDbEntity
  8
0
  6
Continuous
 62
     7
370
    25
100
AcDbLine
 10
67.5799736178
 20
-0.2074074074
 30
0.0
 11
65.1599736178
 21
-0.2074074074
 31
0.0
  0
LINE
  5
EE
330
1F
100
AcDbEntity
  8
0
  6
Continuous
 62
     7
370
    25
100
AcDbLine
 10
67.5799736178
 20
0.9925925926
 30
0.0
 11
67.5799736178
 21
-0.2074074074
 31
0.0
  0
LINE
  5
EF
330
1F
100
AcDbEntity
  8
0
  6
Continuous
 62
     7
370
    25
100
AcDbLine
 10
70.8618233618
 20
1.0033366682
 30
0.0
 11
67.5799736178
 21
0.9925925926
 31
0.0
  0
SPLINE
  5
F0
330
1F
100
AcDbEntity
  8
0
  6
Continuous
 62
     7
370
    25
100
AcDbSpline
210
0.0
220
0.0
230
1.0
 70
     8
 71
     3
 72
    23
 73
    19
 74
     0
 42
0.000000001
 43
0.00000001
 40
0.0
 40
0.0
 40
0.0
 40
0.0
 40
0.0631728801065212
 40
0.1244573597770011
 40
0.1848409152554601
 40
0.244566821464369
 40
0.3043191726186559
 40
0.3651997864614172
 40
0.4274209827764761
 40
0.4912616890772867
 40
0.5554990019310213
 40
0.618604518142877
 40
0.6804947639253067
 40
0.7424733052606065
 40
0.8049906647647714
 40
0.868251971183779
 40
0.9328872172654785
 40
0.9999999999999999
 40
0.9999999999999999
 40
0.9999999999999999
 40
0.9999999999999999
 10
-63.37097578347578
 20
0.0174591549448573
 30
0.0
 10
-63.37258274513376
 20
0.0808853306482093
 30
0.0
 10
-63.37574863221813
 20
0.2058417099597248
 30
0.0
 10
-63.40398883339371
 20
0.3895718590488091
 30
0.0
 10
-63.44619488994782
 20
0.5668560152968175
 30
0.0
 10
-63.50749020104729
 20
0.7370473653361577
 30
0.0
 10
-63.58704411377985
 20
0.8999327376497607
 30
0.0
 10
-63.6836592506517
 20
1.056309524691012
 30
0.0
 10
-63.79883586165025
 20
1.204738469831434
 30
0.0
 10
-63.92863212667342
 20
1.345121175144698
 30
0.0
 10
-64.07163437921338
 20
1.473414992343104
 30
0.0
 10
-64.22445045901563
 20
1.586647141069154
 30
0.0
 10
-64.38621541357159
 20
1.68228466036676
 30
0.0
 10
-64.55593964680028
 20
1.761622927114159
 30
0.0
 10
-64.73467486915379
 20
1.822351330346413
 30
0.0
 10
-64.92110434643786
 20
1.86539864951271
 30
0.0
 10
-65.11549547766765
 20
1.891001822167498
 30
0.0
 10
-65.24771612911272
 20
1.894482276385349
 30
0.0
 10
-65.31506966702278
 20
1.896255228662806
 30
0.0
  0
SPLINE
  5
F1
330
1F
100
AcDbEntity
  8
0
  6
Continuous
 62
     7
370
    25
100
AcDbSpline
210
0.0
220
0.0
230
1.0
 70
     8
 71
     3
 72
    19
 73
    15
 74
     0
 42
0.000000001
 43
0.00000001
 40
0.0
 40
0.0
 40
0.0
 40
0.0
 40
0.1069102197112007
 40
0.2129765276064949
 40
0.3197766759577697
 40
0.4285562728491925
 40
0.4858568032784256
 40
0.546558686640689
 40
0.6114314979175126
 40
0.6798209100724925
 40
0.7531585046908267
 40
0.830752869156264
 40
0.9131330746557018
 40
1.0
 40
1.0
 40
1.0
 40
1.0
 10
-65.31506966702278
 20
1.896255228662806
 30
0.0
 10
-65.40235651855193
 20
1.89306208966496
 30
0.0
 10
-65.57624120978726
 20
1.886701017189726
 30
0.0
 10
-65.83333474092822
 20
1.836959509071243
 30
0.0
 10
-66.08445295316764
 20
1.758735748015071
 30
0.0
 10
-66.28680871479973
 20
1.664367386441336
 30
0.0
 10
-66.44781941714376
 20
1.572952709931192
 30
0.0
 10
-66.57121908003286
 20
1.488789591058286
 30
0.0
 10
-66.69678487917817
 20
1.392376214923151
 30
0.0
 10
-66.82552942485883
 20
1.283408757529609
 30
0.0
 10
-66.95506044405957
 20
1.159834128871878
 30
0.0
 10
-67.08906112312032
 20
1.024594120264969
 30
0.0
 10
-67.22570553899719
 20
0.8765199417571048
 30
0.0
 10
-67.31450274386079
 20
0.7707364352343213
 30
0.0
 10
-67.36007834757835
 20
0.7164425283422929
 30
0.0
  0
LINE
  5
F2
330
1F
100
AcDbEntity
  8
0
  6
Continuous
 62
     7
370
    25
100
AcDbLine
 10
-67.3600783476
 20
0.7164425283
 30
0.0
 11
-66.3657707888
 21
-0.1932746859
 31
0.0
  0
SPLINE
  5
F3
330
1F
100
AcDbEntity
  8
0
  6
Continuous
 62
     7
370
    25
100
AcDbSpline
210
0.0
220
0.0
230
1.0
 70
     8
 71
     3
 72
    15
 73
    11
 74
     0
 42
0.000000001
 43
0.00000001
 40
0.0
 40
0.0
 40
0.0
 40
0.0
 40
0.1624203072014359
 40
0.3118243397330471
 40
0.4484327667925768
 40
0.5733811968860525
 40
0.6890771468735429
 40
0.7975729005012522
 40
0.9002930430775838
 40
1.0
 40
1.0
 40
1.0
 40
1.0
 10
-66.36577078881766
 20
-0.1932746858671081
 30
0.0
 10
-66.323178916497
 20
-0.1331944220799626
 30
0.0
 10
-66.24140846123053
 20
-0.0178486940166656
 30
0.0
 10
-66.10886708224898
 20
0.1366019544702516
 30
0.0
 10
-65.97692419552939
 20
0.2683598517125613
 30
0.0
 10
-65.84435743046635
 20
0.3768745740737054
 30
0.0
 10
-65.70999176570554
 20
0.4614868138928701
 30
0.0
 10
-65.57406044040785
 20
0.5213932143812061
 30
0.0
 10
-65.43733408728367
 20
0.5594762816773204
 30
0.0
 10
-65.34547508365495
 20
0.5642185398263487
 30
0.0
 10
-65.300229255698
 20
0.5665543739619512
 30
0.0
  0
SPLINE
  5
F4
330
1F
100
AcDbEntity
  8
0
  6
Continuous
 62
     7
370
    25
100
AcDbSpline
210
0.0
220
0.0
230
1.0
 70
     8
 71
     3
 72
    15
 73
    11
 74
     0
 42
0.000000001
 43
0.00000001
 40
0.0
 40
0.0
 40
0.0
 40
0.0
 40
0.1481262583591678
 40
0.2859928874897038
 40
0.416634393560621
 40
0.5473799458012547
 40
0.6715828376102085
 40
0.7844007386959938
 40
0.8932655763009666
 40
1.0
 40
1.0
 40
1.0
 40
1.0
 10
-65.300229255698
 20
0.5665543739619512
 30
0.0
 10
-65.25802524521468
 20
0.5650742823024278
 30
0.0
 10
-65.17654038928521
 20
0.5622166141742689
 30
0.0
 10
-65.06037768197176
 20
0.5338116059717884
 30
0.0
 10
-64.95724677609117
 20
0.4847887331910755
 30
0.0
 10
-64.86724832285414
 20
0.420687202907302
 30
0.0
 10
-64.79595626970651
 20
0.3434597200030926
 30
0.0
 10
-64.73903509381371
 20
0.2624679473002637
 30
0.0
 10
-64.70698368874342
 20
0.1730713469754243
 30
0.0
 10
-64.70276509321191
 20
0.1116701556618541
 30
0.0
 10
-64.70067663817663
 20
0.0812729236414388
 30
0.0
  0
SPLINE
  5
F5
330
1F
100
AcDbEntity
  8
0
  6
Continuous
 62
     7
370
    25
100
AcDbSpline
210
0.0
220
0.0
230
1.0
 70
     8
 71
     3
 72
    11
 73
     7
 74
     0
 42
0.000000001
 43
0.00000001
 40
0.0
 40
0.0
 40
0.0
 40
0.0
 40
0.2418813747501871
 40
0.4871154746783629
 40
0.7378378396463882
 40
1.0
 40
1.0
 40
1.0
 40
1.0
 10
-64.70067663817663
 20
0.0812729236414388
 30
0.0
 10
-64.70198536708024
 20
0.0504373499983304
 30
0.0
 10
-64.70462096521904
 20
-0.0116612101229496
 30
0.0
 10
-64.7300772555567
 20
-0.1026743837180358
 30
0.0
 10
-64.76844715379835
 20
-0.1916048490541219
 30
0.0
 10
-64.80511115808126
 20
-0.2457410549798961
 30
0.0
 10
-64.82385205217237
 20
-0.2734129070209547
 30
0.0
  0
SPLINE
  5
F6
330
1F
100
AcDbEntity
  8
0
  6
Continuous
 62
     7
370
    25
100
AcDbSpline
210
0.0
220
0.0
230
1.0
 70
     8
 71
     3
 72
    15
 73
    11
 74
     0
 42
0.000000001
 43
0.00000001
 40
0.0
 40
0.0
 40
0.0
 40
0.0
 40
0.0592341891229397
 40
0.1363492805279876
 40
0.2338052120618129
 40
0.3494112238568909
 40
0.4831791503491687
 40
0.6359668555591098
 40
0.8092433563675907
 40
1.0
 40
1.0
 40
1.0
 40
1.0
 10
-64.82385205217238
 20
-0.2734129070209547
 30
0.0
 10
-64.84088955220216
 20
-0.2949219480605272
 30
0.0
 10
-64.88010762719325
 20
-0.3444329199167607
 30
0.0
 10
-64.95488846385753
 20
-0.4228505815178578
 30
0.0
 10
-65.0487974894777
 20
-0.518919081008195
 30
0.0
 10
-65.16544852098258
 20
-0.629334904197442
 30
0.0
 10
-65.29999905336126
 20
-0.7580690359141316
 30
0.0
 10
-65.45868567747688
 20
-0.9000608884458526
 30
0.0
 10
-65.63694070027087
 20
-1.059707784438694
 30
0.0
 10
-65.76364024065734
 20
-1.170880101666661
 30
0.0
 10
-65.83003193999288
 20
-1.229135396337193
 30
0.0
  0
SPLINE
  5
F7
330
1F
100
AcDbEntity
  8
0
  6
Continuous
 62
     7
370
    25
100
AcDbSpline
210
0.0
220
0.0
230
1.0
 70
     8
 71
     3
 72
    15
 73
    11
 74
     0
 42
0.000000001
 43
0.00000001
 40
0.0
 40
0.0
 40
0.0
 40
0.0
 40
0.1929527021649335
 40
0.366184141384057
 40
0.5204572982944587
 40
0.6550121351900101
 40
0.7706242255759977
 40
0.8656771846793662
 40
0.9426745273198661
 40
1.0
 40
1.0
 40
1.0
 40
1.0
 10
-65.83003193999288
 20
-1.229135396337193
 30
0.0
 10
-65.89235010015021
 20
-1.283068620598711
 30
0.0
 10
-66.01061702107853
 20
-1.3854226752281
 30
0.0
 10
-66.17888736389723
 20
-1.530697821834683
 30
0.0
 10
-66.32676897009509
 20
-1.661398328958563
 30
0.0
 10
-66.45641613720636
 20
-1.775562661661227
 30
0.0
 10
-66.56586354064083
 20
-1.874388665171006
 30
0.0
 10
-66.65557129764419
 20
-1.958348726639679
 30
0.0
 10
-66.72663503638206
 20
-2.025808298083518
 30
0.0
 10
-66.76703061098284
 20
-2.066553920273721
 30
0.0
 10
-66.78427038817665
 20
-2.083943088644886
 30
0.0
  0
SPLINE
  5
F8
330
1F
100
AcDbEntity
  8
0
  6
Continuous
 62
     7
370
    25
100
AcDbSpline
210
0.0
220
0.0
230
1.0
 70
     8
 71
     3
 72
    15
 73
    11
 74
     0
 42
0.000000001
 43
0.00000001
 40
0.0
 40
0.0
 40
0.0
 40
0.0
 40
0.1508330973407543
 40
0.2899541833158786
 40
0.4171386481520549
 40
0.5352551839062607
 40
0.6487510952936671
 40
0.7624054615861199
 40
0.8798267012501023
 40
0.9999999999999999
 40
0.9999999999999999
 40
0.9999999999999999
 40
0.9999999999999999
 10
-66.78427038817664
 20
-2.083943088644886
 30
0.0
 10
-66.84967450865403
 20
-2.154724354502547
 30
0.0
 10
-66.97540419711672
 20
-2.290790804755552
 30
0.0
 10
-67.13880846948575
 20
-2.501651010636655
 30
0.0
 10
-67.2732954712393
 20
-2.707493566835921
 30
0.0
 10
-67.37733716608696
 20
-2.91219173496282
 30
0.0
 10
-67.45591363862117
 20
-3.118698902160266
 30
0.0
 10
-67.51131109266518
 20
-3.332079645503152
 30
0.0
 10
-67.54448899648882
 20
-3.554563660039056
 30
0.0
 10
-67.5481725184338
 20
-3.706381839912872
 30
0.0
 10
-67.55003561253561
 20
-3.78317018533292
 30
0.0
  0
SPLINE
  5
F9
330
1F
100
AcDbEntity
  8
0
  6
Continuous
 62
     7
370
    25
100
AcDbSpline
210
0.0
220
0.0
230
1.0
 70
     8
 71
     3
 72
    23
 73
    19
 74
     0
 42
0.000000001
 43
0.00000001
 40
0.0
 40
0.0
 40
0.0
 40
0.0
 40
0.0652008752881552
 40
0.1279265440230307
 40
0.1890469100189664
 40
0.2485436930694582
 40
0.3076071270223456
 40
0.367247660060213
 40
0.4269630557213198
 40
0.4886171282353917
 40
0.5503918546271239
 40
0.6113307342255585
 40
0.6725560854310827
 40
0.7340241906291914
 40
0.7973406208369365
 40
0.8622496273165773
 40
0.9296254660746938
 40
1.0
 40
1.0
 40
1.0
 40
1.0
 10
-67.55003561253561
 20
-3.78317018533292
 30
0.0
 10
-67.54870950985558
 20
-3.857991010679038
 30
0.0
 10
-67.54610764704123
 20
-4.004792254760166
 30
0.0
 10
-67.51423981716289
 20
-4.219614008575769
 30
0.0
 10
-67.46879816219204
 20
-4.425207750352397
 30
0.0
 10
-67.39853739174922
 20
-4.619336329539566
 30
0.0
 10
-67.31290398082464
 20
-4.80518630759572
 30
0.0
 10
-67.20555013237092
 20
-4.97986273280092
 30
0.0
 10
-67.0794777576888
 20
-5.145133401980484
 30
0.0
 10
-66.93497945882946
 20
-5.298043899826482
 30
0.0
 10
-66.77514718190983
 20
-5.436799578056752
 30
0.0
 10
-66.6037118747243
 20
-5.560323160118556
 30
0.0
 10
-66.41899715654851
 20
-5.662307611111426
 30
0.0
 10
-66.22258120082536
 20
-5.746284532051378
 30
0.0
 10
-66.01456914456277
 20
-5.810964679425219
 30
0.0
 10
-65.79520879282369
 20
-5.858769336476435
 30
0.0
 10
-65.56416461898864
 20
-5.887460938083231
 30
0.0
 10
-65.4061732835492
 20
-5.890460304627994
 30
0.0
 10
-65.32545795495014
 20
-5.891992634585056
 30
0.0
  0
SPLINE
  5
FA
330
1F
100
AcDbEntity
  8
0
  6
Continuous
 62
     7
370
    25
100
AcDbSpline
210
0.0
220
0.0
230
1.0
 70
     8
 71
     3
 72
    23
 73
    19
 74
     0
 42
0.000000001
 43
0.00000001
 40
0.0
 40
0.0
 40
0.0
 40
0.0
 40
0.0635514822357821
 40
0.1258683816453836
 40
0.186240250213673
 40
0.2449766506319381
 40
0.3033576876770602
 40
0.3612303170408032
 40
0.4184890490283536
 40
0.475936711728573
 40
0.5342037438191233
 40
0.5940594289675394
 40
0.6554686942598729
 40
0.7187716848998886
 40
0.7849746072190584
 40
0.8535223163767021
 40
0.9251824507719306
 40
0.9999999999999999
 40
0.9999999999999999
 40
0.9999999999999999
 40
0.9999999999999999
 10
-65.32545795495014
 20
-5.891992634585056
 30
0.0
 10
-65.26209710933865
 20
-5.890868570974185
 30
0.0
 10
-65.13660629753961
 20
-5.88864228037341
 30
0.0
 10
-64.95165181294577
 20
-5.870466470674878
 30
0.0
 10
-64.7730573501147
 20
-5.841132647664041
 30
0.0
 10
-64.60102407975566
 20
-5.799088516524922
 30
0.0
 10
-64.43477696160696
 20
-5.745812900000098
 30
0.0
 10
-64.2743091681332
 20
-5.680738775296646
 30
0.0
 10
-64.12072846179116
 20
-5.602857517855258
 30
0.0
 10
-63.97287277814599
 20
-5.513770675981631
 30
0.0
 10
-63.83146087828004
 20
-5.410329117703424
 30
0.0
 10
-63.69470466434109
 20
-5.29464767182774
 30
0.0
 10
-63.56396252889371
 20
-5.16494710596645
 30
0.0
 10
-63.43860654397042
 20
-5.02153415694315
 30
0.0
 10
-63.31943877211275
 20
-4.86400271373352
 30
0.0
 10
-63.20255842454007
 20
-4.694546693213006
 30
0.0
 10
-63.09316001560273
 20
-4.510021221696574
 30
0.0
 10
-63.02557975202478
 20
-4.380575110742272
 30
0.0
 10
-62.99106125356126
 20
-4.314456910760271
 30
0.0
  0
LINE
  5
FB
330
1F
100
AcDbEntity
  8
0
  6
Continuous
 62
     7
370
    25
100
AcDbLine
 10
-62.9910612536
 20
-4.3144569108
 30
0.0
 11
-64.160485666
 21
-3.6125054551
 31
0.0
  0
SPLINE
  5
FC
330
1F
100
AcDbEntity
  8
0
  6
Continuous
 62
     7
370
    25
100
AcDbSpline
210
0.0
220
0.0
230
1.0
 70
     8
 71
     3
 72
    15
 73
    11
 74
     0
 42
0.000000001
 43
0.00000001
 40
0.0
 40
0.0
 40
0.0
 40
0.0
 40
0.1604579205559369
 40
0.3076115473748609
 40
0.4421388877557725
 40
0.5662291941703366
 40
0.6812222080152139
 40
0.7895580052436354
 40
0.8950288924051393
 40
1.0
 40
1.0
 40
1.0
 40
1.0
 10
-64.16048566595441
 20
-3.612505455097877
 30
0.0
 10
-64.20366314846179
 20
-3.68755825096299
 30
0.0
 10
-64.28643807262776
 20
-3.831440875085794
 30
0.0
 10
-64.42670792001341
 20
-4.024765416535962
 30
0.0
 10
-64.5704072176722
 20
-4.190315885218901
 30
0.0
 10
-64.72085816461271
 20
-4.3251661659814
 30
0.0
 10
-64.87623133361548
 20
-4.431119380409118
 30
0.0
 10
-65.03727721319116
 20
-4.506840897975025
 30
0.0
 10
-65.20410895107413
 20
-4.553712431689805
 30
0.0
 10
-65.31774715185087
 20
-4.55943652854653
 30
0.0
 10
-65.37443131232193
 20
-4.562291779884202
 30
0.0
  0
SPLINE
  5
FD
330
1F
100
AcDbEntity
  8
0
  6
Continuous
 62
     7
370
    25
100
AcDbSpline
210
0.0
220
0.0
230
1.0
 70
     8
 71
     3
 72
    15
 73
    11
 74
     0
 42
0.000000001
 43
0.00000001
 40
0.0
 40
0.0
 40
0.0
 40
0.0
 40
0.1419858925296713
 40
0.2754733105502162
 40
0.4043458426631393
 40
0.5354297108606311
 40
0.6614274010622572
 40
0.777866840462763
 40
0.8882797492818426
 40
1.0
 40
1.0
 40
1.0
 40
1.0
 10
-65.37443131232193
 20
-4.562291779884202
 30
0.0
 10
-65.4320872188172
 20
-4.559960026824807
 30
0.0
 10
-65.54394807451246
 20
-4.555436086289498
 30
0.0
 10
-65.70361513176017
 20
-4.513649811527344
 30
0.0
 10
-65.85000393547489
 20
-4.448042294694488
 30
0.0
 10
-65.97654133624377
 20
-4.354429415245099
 30
0.0
 10
-66.08368522906947
 20
-4.246385924270263
 30
0.0
 10
-66.16276357204453
 20
-4.126182600364346
 30
0.0
 10
-66.21244112047647
 20
-3.996125505500501
 30
0.0
 10
-66.21769324177517
 20
-3.905779292434418
 30
0.0
 10
-66.22033475783478
 20
-3.860340324221809
 30
0.0
  0
SPLINE
  5
FE
330
1F
100
AcDbEntity
  8
0
  6
Continuous
 62
     7
370
    25
100
AcDbSpline
210
0.0
220
0.0
230
1.0
 70
     8
 71
     3
 72
    19
 73
    15
 74
     0
 42
0.000000001
 43
0.00000001
 40
0.0
 40
0.0
 40
0.0
 40
0.0
 40
0.0763466063531704
 40
0.1550908218146654
 40
0.238351561258558
 40
0.3284041399329867
 40
0.3793838595513609
 40
0.4396176441748212
 40
0.5098314158313167
 40
0.5888746449969589
 40
0.677436354409453
 40
0.775546719619676
 40
0.8826358717258577
 40
1.0
 40
1.0
 40
1.0
 40
1.0
 10
-66.22033475783476
 20
-3.860340324221808
 30
0.0
 10
-66.2178954258784
 20
-3.818066758562455
 30
0.0
 10
-66.21294015653686
 20
-3.73219205695729
 30
0.0
 10
-66.17644116967872
 20
-3.604510184462913
 30
0.0
 10
-66.11938212051682
 20
-3.476886379050697
 30
0.0
 10
-66.05187724168495
 20
-3.372205881054902
 30
0.0
 10
-65.98318257474072
 20
-3.284559737709481
 30
0.0
 10
-65.9174949790243
 20
-3.208618319231051
 30
0.0
 10
-65.83750486390656
 20
-3.124716346703848
 30
0.0
 10
-65.7434150490389
 20
-3.032748277809352
 30
0.0
 10
-65.63646870637838
 20
-2.931904494365087
 30
0.0
 10
-65.51657574749137
 20
-2.822194871392377
 30
0.0
 10
-65.38236327116643
 20
-2.704585819457701
 30
0.0
 10
-65.28750162808245
 20
-2.624471695232323
 30
0.0
 10
-65.2378995281339
 20
-2.582580909157706
 30
0.0
  0
SPLINE
  5
FF
330
1F
100
AcDbEntity
  8
0
  6
Continuous
 62
     7
370
    25
100
AcDbSpline
210
0.0
220
0.0
230
1.0
 70
     8
 71
     3
 72
    19
 73
    15
 74
     0
 42
0.000000001
 43
0.00000001
 40
0.0
 40
0.0
 40
0.0
 40
0.0
 40
0.1121245812797442
 40
0.215201009076241
 40
0.3099024524934776
 40
0.3959590963320914
 40
0.4734474940003338
 40
0.5421403275660296
 40
0.6025233330554095
 40
0.654726332834014
 40
0.7478040553141012
 40
0.8352784168250089
 40
0.9189252427194491
 40
1.0
 40
1.0
 40
1.0
 40
1.0
 10
-65.23789952813391
 20
-2.582580909157707
 30
0.0
 10
-65.14360396192154
 20
-2.502797817932343
 30
0.0
 10
-64.96262222920328
 20
-2.349669917315409
 30
0.0
 10
-64.70687207938424
 20
-2.123504828641765
 30
0.0
 10
-64.47641829483935
 20
-1.912132829955986
 30
0.0
 10
-64.27325132194656
 20
-1.712940901287734
 30
0.0
 10
-64.09478249917035
 20
-1.529607655955335
 30
0.0
 10
-63.94222049492357
 20
-1.360643991207809
 30
0.0
 10
-63.81724127219565
 20
-1.20474658346884
 30
0.0
 10
-63.68572758921423
 20
-1.020096536412645
 30
0.0
 10
-63.5607632959425
 20
-0.7950877665081274
 30
0.0
 10
-63.4527586847036
 20
-0.5243761319343034
 30
0.0
 10
-63.38268985148719
 20
-0.2536988466526601
 30
0.0
 10
-63.37483961325874
 20
-0.0719810259929638
 30
0.0
 10
-63.37097578347578
 20
0.0174591549448573
 30
0.0
  0
SPLINE
  5
100
330
1F
100
AcDbEntity
  8
0
  6
Continuous
 62
     7
370
    25
100
AcDbSpline
210
0.0
220
0.0
230
1.0
 70
     8
 71
     3
 72
    15
 73
    11
 74
     0
 42
0.000000001
 43
0.00000001
 40
0.0
 40
0.0
 40
0.0
 40
0.0
 40
0.1610711239484214
 40
0.3107888083803544
 40
0.4499038238309443
 40
0.5783763165061848
 40
0.6966172119048392
 40
0.8059873227104093
 40
0.9065617032890808
 40
1.0
 40
1.0
 40
1.0
 40
1.0
 10
-4.484223646723664
 20
-2.070586718452578
 30
0.0
 10
-4.485492287480549
 20
-1.90629578189687
 30
0.0
 10
-4.487940146162043
 20
-1.589294303617055
 30
0.0
 10
-4.518961209223337
 20
-1.13131933533472
 30
0.0
 10
-4.564492261959877
 20
-0.7080008100709754
 30
0.0
 10
-4.631366593043922
 20
-0.3200468352680899
 30
0.0
 10
-4.714055778542771
 20
0.0339794574377513
 30
0.0
 10
-4.819943586233267
 20
0.3517459281667883
 30
0.0
 10
-4.940489152568036
 20
0.6376495886386492
 30
0.0
 10
-5.04320946172731
 20
0.8070206383553266
 30
0.0
 10
-5.092680511039903
 20
0.8885912997098144
 30
0.0
  0
SPLINE
  5
101
330
1F
100
AcDbEntity
  8
0
  6
Continuous
 62
     7
370
    25
100
AcDbSpline
210
0.0
220
0.0
230
1.0
 70
     8
 71
     3
 72
    15
 73
    11
 74
     0
 42
0.000000001
 43
0.00000001
 40
0.0
 40
0.0
 40
0.0
 40
0.0
 40
0.1323140339085644
 40
0.258700008553155
 40
0.3809118214856535
 40
0.5005348689728939
 40
0.6209226176484481
 40
0.7423757653984726
 40
0.8682808341788558
 40
1.0
 40
1.0
 40
1.0
 40
1.0
 10
-5.092680511039904
 20
0.8885912997098145
 30
0.0
 10
-5.150203090809956
 20
0.9687262919811368
 30
0.0
 10
-5.262671068989777
 20
1.125405992339484
 30
0.0
 10
-5.459324472549192
 20
1.331097151683059
 30
0.0
 10
-5.670602950784565
 20
1.507014303433577
 30
0.0
 10
-5.900846043170974
 20
1.649176284920243
 30
0.0
 10
-6.146412359289229
 20
1.761285235062846
 30
0.0
 10
-6.409410210794567
 20
1.840466523917814
 30
0.0
 10
-6.688868390812232
 20
1.886601232469018
 30
0.0
 10
-6.880776984564189
 20
1.892989175291654
 30
0.0
 10
-6.978896790420245
 20
1.896255228662806
 30
0.0
  0
SPLINE
  5
102
330
1F
100
AcDbEntity
  8
0
  6
Continuous
 62
     7
370
    25
100
AcDbSpline
210
0.0
220
0.0
230
1.0
 70
     8
 71
     3
 72
    31
 73
    27
 74
     0
 42
0.000000001
 43
0.00000001
 40
0.0
 40
0.0
 40
0.0
 40
0.0
 40
0.0366348902551274
 40
0.0720339823477895
 40
0.1066259706074961
 40
0.1403056939382976
 40
0.1736194704926828
 40
0.2064256725696814
 40
0.2390670061327426
 40
0.2718828805625947
 40
0.3048398888131204
 40
0.3385290337045875
 40
0.3726161878593849
 40
0.4075482500265395
 40
0.4437189059571693
 40
0.4813115090919058
 40
0.5201129981462017
 40
0.560912902833448
 40
0.6040246006136039
 40
0.6500745638656779
 40
0.6995722277770577
 40
0.7523625390892967
 40
0.8087887173463875
 40
0.8689542125204782
 40
0.9326747199379386
 40
1.0
 40
1.0
 40
1.0
 40
1.0
 10
-6.978896790420245
 20
1.896255228662806
 30
0.0
 10
-7.04325983073723
 20
1.895299741184937
 30
0.0
 10
-7.169814764510915
 20
1.893420997516401
 30
0.0
 10
-7.356206359856198
 20
1.873072673354784
 30
0.0
 10
-7.535753000160881
 20
1.842332030537897
 30
0.0
 10
-7.709157094252245
 20
1.799459553245143
 30
0.0
 10
-7.875170461857822
 20
1.742719356662776
 30
0.0
 10
-8.035001382567222
 20
1.674802313955656
 30
0.0
 10
-8.186747405881496
 20
1.592146036321523
 30
0.0
 10
-8.332343778515956
 20
1.498781525596923
 30
0.0
 10
-8.47173441655717
 20
1.393079663969925
 30
0.0
 10
-8.601569163571698
 20
1.272574083990394
 30
0.0
 10
-8.724219077880806
 20
1.140037624026292
 30
0.0
 10
-8.837029240461922
 20
0.9934665706098444
 30
0.0
 10
-8.942497866756778
 20
0.8341941428619964
 30
0.0
 10
-9.04027840459324
 20
0.6621950852588359
 30
0.0
 10
-9.12962231972163
 20
0.4766275776077071
 30
0.0
 10
-9.211530944282165
 20
0.2771567486036012
 30
0.0
 10
-9.284773895056576
 20
0.0607926166940698
 30
0.0
 10
-9.34646634166901
 20
-0.1749466086961002
 30
0.0
 10
-9.399377937694808
 20
-0.4301147624047608
 30
0.0
 10
-9.444039058091537
 20
-0.7053469969798505
 30
0.0
 10
-9.477795646675345
 20
-1.001009161592916
 30
0.0
 10
-9.500548266942761
 20
-1.316904833111364
 30
0.0
 10
-9.516162191962342
 20
-1.652425011112351
 30
0.0
 10
-9.517436491682389
 20
-1.882589096388043
 30
0.0
 10
-9.518091168091184
 20
-2.000836785226082
 30
0.0
  0
SPLINE
  5
103
330
1F
100
AcDbEntity
  8
0
  6
Continuous
 62
     7
370
    25
100
AcDbSpline
210
0.0
220
0.0
230
1.0
 70
     8
 71
     3
 72
    31
 73
    27
 74
     0
 42
0.000000001
 43
0.00000001
 40
0.0
 40
0.0
 40
0.0
 40
0.0
 40
0.068490874496954
 40
0.1330765404908785
 40
0.193828987191577
 40
0.2510828574460499
 40
0.3044008371534407
 40
0.3544083437255269
 40
0.4012947817777442
 40
0.4447006845454778
 40
0.4856924920892441
 40
0.5246764844274038
 40
0.5623067591777586
 40
0.5979465846525344
 40
0.6324735490267259
 40
0.6657520428969365
 40
0.6979852995504443
 40
0.7295862241486805
 40
0.760825196874489
 40
0.792355079561206
 40
0.824312603962663
 40
0.857156271979069
 40
0.8909268871454046
 40
0.9259604429162998
 40
0.9620613229943377
 40
1.0
 40
1.0
 40
1.0
 40
1.0
 10
-9.518091168091184
 20
-2.000836785226082
 30
0.0
 10
-9.517383639800016
 20
-2.12056388562132
 30
0.0
 10
-9.516008925022613
 20
-2.353191493906727
 30
0.0
 10
-9.50119734237516
 20
-2.691780510049496
 30
0.0
 10
-9.475691097287843
 20
-3.009969773643267
 30
0.0
 10
-9.442816807829939
 20
-3.307726366233902
 30
0.0
 10
-9.3977880236596
 20
-3.584893047151579
 30
0.0
 10
-9.34505305805911
 20
-3.842187491701734
 30
0.0
 10
-9.282386814829515
 20
-4.079516437118846
 30
0.0
 10
-9.206731264762206
 20
-4.296345130698899
 30
0.0
 10
-9.125318434906001
 20
-4.496166274090044
 30
0.0
 10
-9.035730125826134
 20
-4.68137196926252
 30
0.0
 10
-8.939527849003735
 20
-4.852463855656784
 30
0.0
 10
-8.838918194662092
 20
-5.012023087099129
 30
0.0
 10
-8.728385371576536
 20
-5.155345938475295
 30
0.0
 10
-8.613309323822742
 20
-5.287306136187522
 30
0.0
 10
-8.488679434749406
 20
-5.402877147038016
 30
0.0
 10
-8.359743104496859
 20
-5.508014982264468
 30
0.0
 10
-8.221776873846473
 20
-5.598875171012424
 30
0.0
 10
-8.076203552167787
 20
-5.678339994028029
 30
0.0
 10
-7.920427819957814
 20
-5.742795403618171
 30
0.0
 10
-7.757289203855322
 20
-5.798855276205995
 30
0.0
 10
-7.584006973056558
 20
-5.839100215892481
 30
0.0
 10
-7.403334558434042
 20
-5.871033252934421
 30
0.0
 10
-7.213232204895801
 20
-5.888681407872847
 30
0.0
 10
-7.083802865676906
 20
-5.890870777630008
 30
0.0
 10
-7.017481859864689
 20
-5.891992634585056
 30
0.0
  0
SPLINE
  5
104
330
1F
100
AcDbEntity
  8
0
  6
Continuous
 62
     7
370
    25
100
AcDbSpline
210
0.0
220
0.0
230
1.0
 70
     8
 71
     3
 72
    31
 73
    27
 74
     0
 42
0.000000001
 43
0.00000001
 40
0.0
 40
0.0
 40
0.0
 40
0.0
 40
0.038217337969136
 40
0.0748672030399431
 40
0.1101580815531043
 40
0.144453926659301
 40
0.1780797262741529
 40
0.2111707725935978
 40
0.2436870542144173
 40
0.2758717334447992
 40
0.3083755160139863
 40
0.3412633249363585
 40
0.3751503394709052
 40
0.409655260704213
 40
0.445157367492358
 40
0.4820734672046716
 40
0.5205757562184278
 40
0.560553680897838
 40
0.6031075754382529
 40
0.6486887095294889
 40
0.6979476778875632
 40
0.7507677670183536
 40
0.8073094024459647
 40
0.867655570791141
 40
0.9318612220995586
 40
1.0
 40
1.0
 40
1.0
 40
1.0
 10
-7.01748185986469
 20
-5.891992634585057
 30
0.0
 10
-6.951162644130051
 20
-5.890849137763868
 30
0.0
 10
-6.821244275826512
 20
-5.888609044307943
 30
0.0
 10
-6.630627866667927
 20
-5.871164474425511
 30
0.0
 10
-6.448997979032833
 20
-5.83897085452296
 30
0.0
 10
-6.274344807319299
 20
-5.79854630531964
 30
0.0
 10
-6.107883910083281
 20
-5.742919441698231
 30
0.0
 10
-5.948817112344968
 20
-5.676535572452113
 30
0.0
 10
-5.798367500170807
 20
-5.597566570295956
 30
0.0
 10
-5.656118502275637
 20
-5.506494685854123
 30
0.0
 10
-5.522555797182234
 20
-5.4020603022741
 30
0.0
 10
-5.395603821225179
 20
-5.285380462426846
 30
0.0
 10
-5.275543399576949
 20
-5.156750919712681
 30
0.0
 10
-5.164200948913425
 20
-5.014730916677876
 30
0.0
 10
-5.059753002146957
 20
-4.861216124312544
 30
0.0
 10
-4.963288786127007
 20
-4.694453478332684
 30
0.0
 10
-4.874866273358684
 20
-4.514685781162822
 30
0.0
 10
-4.791719591330907
 20
-4.321662455155709
 30
0.0
 10
-4.719475649385588
 20
-4.111227929364087
 30
0.0
 10
-4.655181895459119
 20
-3.881503050207249
 30
0.0
 10
-4.602514143394501
 20
-3.630572871395025
 30
0.0
 10
-4.560155212978608
 20
-3.358518006848593
 30
0.0
 10
-4.526335867214804
 20
-3.065914816702846
 30
0.0
 10
-4.501178161158381
 20
-2.752622069851918
 30
0.0
 10
-4.48628430696913
 20
-2.41849384206319
 30
0.0
 10
-4.484924008977534
 20
-2.188830867513704
 30
0.0
 10
-4.484223646723664
 20
-2.070586718452578
 30
0.0
  0
SPLINE
  5
105
330
1F
100
AcDbEntity
  8
0
  6
Continuous
 62
     7
370
    25
100
AcDbSpline
210
0.0
220
0.0
230
1.0
 70
     8
 71
     3
 72
    15
 73
    11
 74
     0
 42
0.000000001
 43
0.00000001
 40
0.0
 40
0.0
 40
0.0
 40
0.0
 40
0.1327548717475879
 40
0.257233848111065
 40
0.3786007316763537
 40
0.5014062774984533
 40
0.623941953646954
 40
0.7436418348746462
 40
0.8681208112381233
 40
1.0
 40
1.0
 40
1.0
 40
1.0
 10
-2.20473646723649
 20
-0.4188489380038606
 30
0.0
 10
-2.202160507098696
 20
-0.3501872315469884
 30
0.0
 10
-2.197169171337511
 20
-0.217144167008044
 30
0.0
 10
-2.142318435854591
 20
-0.0278911160528275
 30
0.0
 10
-2.057341774035959
 20
0.1434582022587795
 30
0.0
 10
-1.937597656323526
 20
0.2917836770822902
 30
0.0
 10
-1.792550026314197
 20
0.4136725551044176
 30
0.0
 10
-1.62493386495055
 20
0.5043300781619562
 30
0.0
 10
-1.436115736989361
 20
0.5566390534396823
 30
0.0
 10
-1.303750631758284
 20
0.5631862683077731
 30
0.0
 10
-1.235657607727943
 20
0.5665543739619513
 30
0.0
  0
SPLINE
  5
106
330
1F
100
AcDbEntity
  8
0
  6
Continuous
 62
     7
370
    25
100
AcDbSpline
210
0.0
220
0.0
230
1.0
 70
     8
 71
     3
 72
    23
 73
    19
 74
     0
 42
0.000000001
 43
0.00000001
 40
0.0
 40
0.0
 40
0.0
 40
0.0
 40
0.0564668684718625
 40
0.1111640986969633
 40
0.164937096875985
 40
0.2183217523125937
 40
0.2723929232482768
 40
0.3279763434477041
 40
0.3852910519840207
 40
0.4449029182928194
 40
0.5068438192198357
 40
0.5694881852629682
 40
0.6341532155537225
 40
0.7009760953100499
 40
0.7708974968462685
 40
0.8436256105557796
 40
0.9196596761155399
 40
1.0
 40
1.0
 40
1.0
 40
1.0
 10
-1.235657607727942
 20
0.5665543739619512
 30
0.0
 10
-1.200479884138391
 20
0.5653101553757339
 30
0.0
 10
-1.131226886002113
 20
0.562860711277594
 30
0.0
 10
-1.029430391738116
 20
0.546555424645761
 30
0.0
 10
-0.9325637139180746
 20
0.5178190589266772
 30
0.0
 10
-0.8395486725148144
 20
0.4793163734889452
 30
0.0
 10
-0.7513779485281654
 20
0.4282807875092379
 30
0.0
 10
-0.6682739364572917
 20
0.3653712968102309
 30
0.0
 10
-0.5893610305270001
 20
0.2921865744781028
 30
0.0
 10
-0.51500115698293
 20
0.2089554594262975
 30
0.0
 10
-0.4473239647224371
 20
0.1160695106010927
 30
0.0
 10
-0.3872133300238437
 20
0.0143770511949211
 30
0.0
 10
-0.3375118420397112
 20
-0.0960587952620697
 30
0.0
 10
-0.2937528455848607
 20
-0.2137801069150682
 30
0.0
 10
-0.260003813605118
 20
-0.3400513066155903
 30
0.0
 10
-0.2354303316204448
 20
-0.4741166753323119
 30
0.0
 10
-0.216748754287524
 20
-0.6157581062503789
 30
0.0
 10
-0.2124128425204996
 20
-0.7131232710418764
 30
0.0
 10
-0.2101851851852078
 20
-0.7631464807389029
 30
0.0
  0
LINE
  5
107
330
1F
100
AcDbEntity
  8
0
  6
Continuous
 62
     7
370
    25
100
AcDbLine
 10
-0.2101851852
 20
-0.7631464807
 30
0.0
 11
1.1195156695
 21
-0.7631464807
 31
0.0
  0
SPLINE
  5
108
330
1F
100
AcDbEntity
  8
0
  6
Continuous
 62
     7
370
    25
100
AcDbSpline
210
0.0
220
0.0
230
1.0
 70
     8
 71
     3
 72
    23
 73
    19
 74
     0
 42
0.000000001
 43
0.00000001
 40
0.0
 40
0.0
 40
0.0
 40
0.0
 40
0.0749399102007728
 40
0.1464280851715764
 40
0.2147529716359186
 40
0.2804215366912469
 40
0.3436044295193644
 40
0.4055426388186583
 40
0.4661994619307759
 40
0.5265381448244666
 40
0.5859019063092087
 40
0.6440895746157922
 40
0.7016130759883659
 40
0.758753587436571
 40
0.816629449389766
 40
0.8756554749553046
 40
0.9366243322865292
 40
1.0
 40
1.0
 40
1.0
 40
1.0
 10
1.119515669515647
 20
-0.7631464807389028
 30
0.0
 10
1.113772895454324
 20
-0.6625616457723791
 30
0.0
 10
1.102551859732242
 20
-0.466024917319037
 30
0.0
 10
1.057917415742088
 20
-0.1805490261635971
 30
0.0
 10
0.998108792593826
 20
0.0891942988009695
 30
0.0
 10
0.9182862453084664
 20
0.3422614660333282
 30
0.0
 10
0.8179839917329186
 20
0.5785605190588083
 30
0.0
 10
0.6997830672900278
 20
0.7988970142210647
 30
0.0
 10
0.5606637068878596
 20
1.002110874990915
 30
0.0
 10
0.4035868280556127
 20
1.187222089417393
 30
0.0
 10
0.2312191640901497
 20
1.353287068064081
 30
0.0
 10
0.0471392369458972
 20
1.500530710796398
 30
0.0
 10
-0.1514687039374813
 20
1.622032459149748
 30
0.0
 10
-0.3609759290068325
 20
1.722017149213084
 30
0.0
 10
-0.5813467635043643
 20
1.801900270479318
 30
0.0
 10
-0.8146662616558787
 20
1.855308601484054
 30
0.0
 10
-1.058914216898669
 20
1.891477246440473
 30
0.0
 10
-1.226121720813278
 20
1.894642147996234
 30
0.0
 10
-1.311343705484353
 20
1.896255228662806
 30
0.0
  0
SPLINE
  5
109
330
1F
100
AcDbEntity
  8
0
  6
Continuous
 62
     7
370
    25
100
AcDbSpline
210
0.0
220
0.0
230
1.0
 70
     8
 71
     3
 72
    19
 73
    15
 74
     0
 42
0.000000001
 43
0.00000001
 40
0.0
 40
0.0
 40
0.0
 40
0.0
 40
0.0896145288821155
 40
0.1749485612865261
 40
0.2575481258745664
 40
0.3389007874900941
 40
0.4200531858831907
 40
0.5014014271193619
 40
0.584252026715958
 40
0.6703704767286311
 40
0.7564732666582519
 40
0.8392065940498487
 40
0.9201204666578204
 40
1.0
 40
1.0
 40
1.0
 40
1.0
 10
-1.311343705484353
 20
1.896255228662806
 30
0.0
 10
-1.415952482665432
 20
1.892991159042466
 30
0.0
 10
-1.620173330490756
 20
1.886618930218179
 30
0.0
 10
-1.916922421045754
 20
1.832261703528072
 30
0.0
 10
-2.194053626083051
 20
1.741340842035123
 30
0.0
 10
-2.451365497250141
 20
1.614300420519208
 30
0.0
 10
-2.686667493339423
 20
1.452908881942999
 30
0.0
 10
-2.899920594883073
 20
1.260475885770966
 30
0.0
 10
-3.084675688055352
 20
1.03296408682044
 30
0.0
 10
-3.242104174423731
 20
0.7798398798078456
 30
0.0
 10
-3.372908431439045
 20
0.5118169687836275
 30
0.0
 10
-3.464570606129739
 20
0.2346701643451889
 30
0.0
 10
-3.52481916702479
 20
-0.0442461810713014
 30
0.0
 10
-3.531245048936952
 20
-0.2320543306619586
 30
0.0
 10
-3.534437321937344
 20
-0.3253543466577068
 30
0.0
  0
SPLINE
  5
10A
330
1F
100
AcDbEntity
  8
0
  6
Continuous
 62
     7
370
    25
100
AcDbSpline
210
0.0
220
0.0
230
1.0
 70
     8
 71
     3
 72
    23
 73
    19
 74
     0
 42
0.000000001
 43
0.00000001
 40
0.0
 40
0.0
 40
0.0
 40
0.0
 40
0.0455177516513178
 40
0.0916159906181648
 40
0.1392465550335721
 40
0.1882415637234043
 40
0.2386730793725369
 40
0.2906638743206419
 40
0.3448398555786326
 40
0.4004316067351772
 40
0.4591437176132941
 40
0.522551047594614
 40
0.5901008583230445
 40
0.6622596565248672
 40
0.7396813070012566
 40
0.8215754713854219
 40
0.9083300466844452
 40
1.0
 40
1.0
 40
1.0
 40
1.0
 10
-3.534437321937344
 20
-0.3253543466577068
 30
0.0
 10
-3.533194419415931
 20
-0.381788790471969
 30
0.0
 10
-3.530692763652848
 20
-0.4953773858541642
 30
0.0
 10
-3.513298418709657
 20
-0.6672648092513023
 30
0.0
 10
-3.487203464167196
 20
-0.8423522461415885
 30
0.0
 10
-3.447858632089863
 20
-1.020489575366065
 30
0.0
 10
-3.398792400933999
 20
-1.201726731624961
 30
0.0
 10
-3.339267970534266
 20
-1.386606095433712
 30
0.0
 10
-3.267904613168005
 20
-1.574079468583454
 30
0.0
 10
-3.185893238386353
 20
-1.766256831826021
 30
0.0
 10
-3.088053460422166
 20
-1.963762109786175
 30
0.0
 10
-2.974132638746059
 20
-2.169555983502406
 30
0.0
 10
-2.841107056600477
 20
-2.383455897599187
 30
0.0
 10
-2.690583495236918
 20
-2.606669600649708
 30
0.0
 10
-2.521830897847738
 20
-2.838845050075429
 30
0.0
 10
-2.334025469949816
 20
-3.079282860967638
 30
0.0
 10
-2.129330289049593
 20
-3.328830259453435
 30
0.0
 10
-1.984052360807993
 20
-3.495638691121107
 30
0.0
 10
-1.909412281873242
 20
-3.581340591315826
 30
0.0
  0
LINE
  5
10B
330
1F
100
AcDbEntity
  8
0
  6
Continuous
 62
     7
370
    25
100
AcDbLine
 10
-1.9094122819
 20
-3.5813405913
 30
0.0
 11
-1.1362268519
 21
-4.4673131474
 31
0.0
  0
LINE
  5
10C
330
1F
100
AcDbEntity
  8
0
  6
Continuous
 62
     7
370
    25
100
AcDbLine
 10
-1.1362268519
 20
-4.4673131474
 30
0.0
 11
-3.6294159544
 21
-4.4673131474
 31
0.0
  0
LINE
  5
10D
330
1F
100
AcDbEntity
  8
0
  6
Continuous
 62
     7
370
    25
100
AcDbLine
 10
-3.6294159544
 20
-4.4673131474
 30
0.0
 11
-3.6294159544
 21
-5.7020353696
 31
0.0
  0
LINE
  5
10E
330
1F
100
AcDbEntity
  8
0
  6
Continuous
 62
     7
370
    25
100
AcDbLine
 10
-3.6294159544
 20
-5.7020353696
 30
0.0
 11
1.3094729345
 21
-5.7020353696
 31
0.0
  0
LINE
  5
10F
330
1F
100
AcDbEntity
  8
0
  6
Continuous
 62
     7
370
    25
100
AcDbLine
 10
1.3094729345
 20
-5.7020353696
 30
0.0
 11
1.3094729345
 21
-5.0282806955
 31
0.0
  0
LINE
  5
110
330
1F
100
AcDbEntity
  8
0
  6
Continuous
 62
     7
370
    25
100
AcDbLine
 10
1.3094729345
 20
-5.0282806955
 30
0.0
 11
-0.8839398593
 21
-2.6938839941
 31
0.0
  0
SPLINE
  5
111
330
1F
100
AcDbEntity
  8
0
  6
Continuous
 62
     7
370
    25
100
AcDbSpline
210
0.0
220
0.0
230
1.0
 70
     8
 71
     3
 72
    19
 73
    15
 74
     0
 42
0.000000001
 43
0.00000001
 40
0.0
 40
0.0
 40
0.0
 40
0.0
 40
0.1038439242634204
 40
0.2011148859465237
 40
0.2911157193792177
 40
0.3743484039713638
 40
0.4507073961858712
 40
0.5200404120163614
 40
0.5832583224453376
 40
0.6395782998253261
 40
0.7415365099482681
 40
0.8350600486817368
 40
0.9208729600458341
 40
1.0
 40
1.0
 40
1.0
 40
1.0
 10
-0.8839398593305068
 20
-2.693883994093603
 30
0.0
 10
-0.9474447962845495
 20
-2.625788917431995
 30
0.0
 10
-1.070435026508855
 20
-2.493908947819335
 30
0.0
 10
-1.24543744930475
 20
-2.300229182133095
 30
0.0
 10
-1.403799183087183
 20
-2.116431707572699
 30
0.0
 10
-1.542236468511922
 20
-1.940559451816437
 30
0.0
 10
-1.668014316102395
 20
-1.778316995132426
 30
0.0
 10
-1.775524301511504
 20
-1.624814147408252
 30
0.0
 10
-1.865750056936651
 20
-1.481438629678955
 30
0.0
 10
-1.963702911347837
 20
-1.308552795615489
 30
0.0
 10
-2.056725923686889
 20
-1.102355673607142
 30
0.0
 10
-2.14208016755077
 20
-0.8648081343617157
 30
0.0
 10
-2.194109485844895
 20
-0.6377673954296401
 30
0.0
 10
-2.20129117716764
 20
-0.4898227695618475
 30
0.0
 10
-2.20473646723649
 20
-0.4188489380038606
 30
0.0
  0
LINE
  5
112
330
1F
100
AcDbEntity
  8
0
  6
Continuous
 62
     7
370
    25
100
AcDbLine
 10
7.1981481481
 20
0.376597109
 30
0.0
 11
8.5278490028
 21
0.376597109
 31
0.0
  0
LINE
  5
113
330
1F
100
AcDbEntity
  8
0
  6
Continuous
 62
     7
370
    25
100
AcDbLine
 10
8.5278490028
 20
0.376597109
 30
0.0
 11
8.5278490028
 21
1.7062979637
 31
0.0
  0
LINE
  5
114
330
1F
100
AcDbEntity
  8
0
  6
Continuous
 62
     7
370
    25
100
AcDbLine
 10
8.5278490028
 20
1.7062979637
 30
0.0
 11
4.5387464387
 21
1.7062979637
 31
0.0
  0
LINE
  5
115
330
1F
100
AcDbEntity
  8
0
  6
Continuous
 62
     7
370
    25
100
AcDbLine
 10
4.5387464387
 20
1.7062979637
 30
0.0
 11
4.5387464387
 21
0.376597109
 31
0.0
  0
LINE
  5
116
330
1F
100
AcDbEntity
  8
0
  6
Continuous
 62
     7
370
    25
100
AcDbLine
 10
4.5387464387
 20
0.376597109
 30
0.0
 11
5.8684472934
 21
0.376597109
 31
0.0
  0
LINE
  5
117
330
1F
100
AcDbEntity
  8
0
  6
Continuous
 62
     7
370
    25
100
AcDbLine
 10
5.8684472934
 20
0.376597109
 30
0.0
 11
5.8684472934
 21
-5.7020353696
 31
0.0
  0
LINE
  5
118
330
1F
100
AcDbEntity
  8
0
  6
Continuous
 62
     7
370
    25
100
AcDbLine
 10
5.8684472934
 20
-5.7020353696
 30
0.0
 11
7.1981481481
 21
-5.7020353696
 31
0.0
  0
LINE
  5
119
330
1F
100
AcDbEntity
  8
0
  6
Continuous
 62
     7
370
    25
100
AcDbLine
 10
7.1981481481
 20
-5.7020353696
 30
0.0
 11
7.1981481481
 21
0.376597109
 31
0.0
  0
SPLINE
  5
11A
330
1F
100
AcDbEntity
  8
0
  6
Continuous
 62
     7
370
    25
100
AcDbSpline
210
0.0
220
0.0
230
1.0
 70
     8
 71
     3
 72
    23
 73
    19
 74
     0
 42
0.000000001
 43
0.00000001
 40
0.0
 40
0.0
 40
0.0
 40
0.0
 40
0.0802588853381376
 40
0.1583905883453954
 40
0.2362576248303798
 40
0.3151047653520859
 40
0.3932216786245978
 40
0.468731283115879
 40
0.5427812639155809
 40
0.617708169339552
 40
0.6563652025204879
 40
0.6970796727899443
 40
0.7406969496811665
 40
0.7867286654533115
 40
0.835579092184148
 40
0.8872495053564259
 40
0.9418976668361577
 40
1.0
 40
1.0
 40
1.0
 40
1.0
 10
17.74077635327633
 20
-3.557595933196168
 30
0.0
 10
17.74495081015543
 20
-3.658778658202295
 30
0.0
 10
17.75318908406514
 20
-3.858462360219713
 30
0.0
 10
17.81342332305707
 20
-4.151643895258712
 30
0.0
 10
17.91785035420938
 20
-4.429606582021004
 30
0.0
 10
18.05807432348317
 20
-4.691245677794639
 30
0.0
 10
18.23085723303188
 20
-4.928987160305029
 30
0.0
 10
18.42950803040282
 20
-5.137246634988624
 30
0.0
 10
18.65202675770102
 20
-5.313533656905513
 30
0.0
 10
18.85732717861334
 20
-5.432513720805018
 30
0.0
 10
19.03489587512196
 20
-5.512360469766979
 30
0.0
 10
19.18197270880509
 20
-5.561726765203237
 30
0.0
 10
19.33993011065856
 20
-5.607459626693745
 30
0.0
 10
19.51166148091577
 20
-5.639574186320728
 30
0.0
 10
19.69405356403435
 20
-5.668968962682275
 30
0.0
 10
19.88888469435771
 20
-5.687117906478607
 30
0.0
 10
20.09579073602294
 20
-5.699416998506141
 30
0.0
 10
20.2379027493252
 20
-5.701144933846254
 30
0.0
 10
20.31113559472933
 20
-5.702035369627792
 30
0.0
  0
LINE
  5
11B
330
1F
100
AcDbEntity
  8
0
  6
Continuous
 62
     7
370
    25
100
AcDbLine
 10
20.3111355947
 20
-5.7020353696
 30
0.0
 11
22.3947293447
 21
-5.7020353696
 31
0.0
  0
LINE
  5
11C
330
1F
100
AcDbEntity
  8
0
  6
Continuous
 62
     7
370
    25
100
AcDbLine
 10
22.3947293447
 20
-5.7020353696
 30
0.0
 11
22.3947293447
 21
1.7062979637
 31
0.0
  0
LINE
  5
11D
330
1F
100
AcDbEntity
  8
0
  6
Continuous
 62
     7
370
    25
100
AcDbLine
 10
22.3947293447
 20
1.7062979637
 30
0.0
 11
21.2074964387
 21
1.7062979637
 31
0.0
  0
SPLINE
  5
11E
330
1F
100
AcDbEntity
  8
0
  6
Continuous
 62
     7
370
    25
100
AcDbSpline
210
0.0
220
0.0
230
1.0
 70
     8
 71
     3
 72
    15
 73
    11
 74
     0
 42
0.000000001
 43
0.00000001
 40
0.0
 40
0.0
 40
0.0
 40
0.0
 40
0.1639957318060719
 40
0.3173286319587156
 40
0.4580598946275429
 40
0.5891583945859019
 40
0.7079520097453076
 40
0.8163219998754472
 40
0.9135847296003139
 40
1.0
 40
1.0
 40
1.0
 40
1.0
 10
21.20749643874642
 20
1.706297963705541
 30
0.0
 10
21.12438271188869
 20
1.706307449038716
 30
0.0
 10
20.96355922611685
 20
1.706325802978583
 30
0.0
 10
20.73153290727916
 20
1.69817780043129
 30
0.0
 10
20.51634809177185
 20
1.687637446328823
 30
0.0
 10
20.31868958107684
 20
1.675845241176225
 30
0.0
 10
20.13822094671894
 20
1.655524915629187
 30
0.0
 10
19.97521662068883
 20
1.634109512130775
 30
0.0
 10
19.82935091935693
 20
1.608283855470085
 30
0.0
 10
19.73917008249789
 20
1.585117441311295
 30
0.0
 10
19.69674256588317
 20
1.574218302914943
 30
0.0
  0
SPLINE
  5
11F
330
1F
100
AcDbEntity
  8
0
  6
Continuous
 62
     7
370
    25
100
AcDbSpline
210
0.0
220
0.0
230
1.0
 70
     8
 71
     3
 72
    23
 73
    19
 74
     0
 42
0.000000001
 43
0.00000001
 40
0.0
 40
0.0
 40
0.0
 40
0.0
 40
0.0687497663152835
 40
0.134909112145226
 40
0.1997210700545271
 40
0.2629736746369452
 40
0.3253570233490399
 40
0.3873361409887308
 40
0.4494074874297896
 40
0.5111175193516615
 40
0.5724725853513688
 40
0.6330771719677207
 40
0.6928610080890981
 40
0.7525606967546151
 40
0.8127375856307912
 40
0.8734793127278784
 40
0.935776460065579
 40
1.0
 40
1.0
 40
1.0
 40
1.0
 10
19.69674256588317
 20
1.574218302914943
 30
0.0
 10
19.6410309289113
 20
1.558844874069481
 30
0.0
 10
19.53170681214899
 20
1.528677271365818
 30
0.0
 10
19.37511978919134
 20
1.467752493951437
 30
0.0
 10
19.22657515524067
 20
1.400030284330109
 30
0.0
 10
19.08625427922435
 20
1.322771909221475
 30
0.0
 10
18.95501878722396
 20
1.235044643554337
 30
0.0
 10
18.83336741880812
 20
1.13615225734554
 30
0.0
 10
18.71867645497662
 20
1.030064286727673
 30
0.0
 10
18.61501831001884
 20
0.9138240900541185
 30
0.0
 10
18.5213284259322
 20
0.7909947899934465
 30
0.0
 10
18.43992871445372
 20
0.6616085711701998
 30
0.0
 10
18.36920279816053
 20
0.5276438333300855
 30
0.0
 10
18.31260353975195
 20
0.387414719319062
 30
0.0
 10
18.2699570618734
 20
0.2415670221486066
 30
0.0
 10
18.23876560587631
 20
0.0907235340603428
 30
0.0
 10
18.21854931868792
 20
-0.0655930508698018
 30
0.0
 10
18.21663914472127
 20
-0.1719403327636367
 30
0.0
 10
18.2156695156695
 20
-0.2259235907816383
 30
0.0
  0
SPLINE
  5
120
330
1F
100
AcDbEntity
  8
0
  6
Continuous
 62
     7
370
    25
100
AcDbSpline
210
0.0
220
0.0
230
1.0
 70
     8
 71
     3
 72
    15
 73
    11
 74
     0
 42
0.000000001
 43
0.00000001
 40
0.0
 40
0.0
 40
0.0
 40
0.0
 40
0.1232695606004619
 40
0.2426409842839851
 40
0.3594273839391157
 40
0.4755502191345226
 40
0.5938976740482422
 40
0.7202015971643246
 40
0.8544653148776612
 40
0.9999999999999999
 40
0.9999999999999999
 40
0.9999999999999999
 40
0.9999999999999999
 10
18.2156695156695
 20
-0.2259235907816383
 30
0.0
 10
18.21820480760237
 20
-0.2952779075908253
 30
0.0
 10
18.22319521826856
 20
-0.4317933588745984
 30
0.0
 10
18.25507430146049
 20
-0.6323098582826302
 30
0.0
 10
18.31485254937611
 20
-0.8218267711275771
 30
0.0
 10
18.39307093289025
 20
-1.003836822621783
 30
0.0
 10
18.49942348009462
 20
-1.177661113953535
 30
0.0
 10
18.63447064625035
 20
-1.343216996499108
 30
0.0
 10
18.79602510960912
 20
-1.50560218407717
 30
0.0
 10
18.91994630133194
 20
-1.602941150566847
 30
0.0
 10
18.98440282229343
 20
-1.653571160226083
 30
0.0
  0
SPLINE
  5
121
330
1F
100
AcDbEntity
  8
0
  6
Continuous
 62
     7
370
    25
100
AcDbSpline
210
0.0
220
0.0
230
1.0
 70
     8
 71
     3
 72
    23
 73
    19
 74
     0
 42
0.000000001
 43
0.00000001
 40
0.0
 40
0.0
 40
0.0
 40
0.0
 40
0.0727911822673692
 40
0.142723369556505
 40
0.2094912699928578
 40
0.2747163184918672
 40
0.3368863886768202
 40
0.3976856020239918
 40
0.4570537497761161
 40
0.5153125941662595
 40
0.5728222022221214
 40
0.6307760073985099
 40
0.6895054947089526
 40
0.7487432781628013
 40
0.8092253247292984
 40
0.8707153202239958
 40
0.9342652493244624
 40
1.0
 40
1.0
 40
1.0
 40
1.0
 10
18.98440282229343
 20
-1.653571160226083
 30
0.0
 10
18.93217034993203
 20
-1.680235384403402
 30
0.0
 10
18.82975692259815
 20
-1.732516550921877
 30
0.0
 10
18.68435994311473
 20
-1.818451181846997
 30
0.0
 10
18.54973821143233
 20
-1.909853560624935
 30
0.0
 10
18.42528812452985
 20
-2.004884634632196
 30
0.0
 10
18.31362016540367
 20
-2.107572908801625
 30
0.0
 10
18.21012337653322
 20
-2.212001343756437
 30
0.0
 10
18.11990375229231
 20
-2.32415325453007
 30
0.0
 10
18.03922664512496
 20
-2.440031333455713
 30
0.0
 10
17.96910341486814
 20
-2.561313508548644
 30
0.0
 10
17.90803381385057
 20
-2.687794961542996
 30
0.0
 10
17.85645051245232
 20
-2.819907780611155
 30
0.0
 10
17.81276843864658
 20
-2.956979618469014
 30
0.0
 10
17.78019033642033
 20
-3.09948193810854
 30
0.0
 10
17.75894872097454
 20
-3.247465704284251
 30
0.0
 10
17.74268481245142
 20
-3.400426217101717
 30
0.0
 10
17.74141963321905
 20
-3.504619098645414
 30
0.0
 10
17.74077635327633
 20
-3.557595933196168
 30
0.0
  0
LINE
  5
122
330
1F
100
AcDbEntity
  8
0
  6
Continuous
 62
     7
370
    25
100
AcDbLine
 10
35.6917378917
 20
-5.7020353696
 30
0.0
 11
37.0214387464
 21
-5.7020353696
 31
0.0
  0
LINE
  5
123
330
1F
100
AcDbEntity
  8
0
  6
Continuous
 62
     7
370
    25
100
AcDbLine
 10
37.0214387464
 20
-5.7020353696
 30
0.0
 11
37.0214387464
 21
1.7062979637
 31
0.0
  0
LINE
  5
124
330
1F
100
AcDbEntity
  8
0
  6
Continuous
 62
     7
370
    25
100
AcDbLine
 10
37.0214387464
 20
1.7062979637
 30
0.0
 11
35.4720998041
 21
1.7062979637
 31
0.0
  0
SPLINE
  5
125
330
1F
100
AcDbEntity
  8
0
  6
Continuous
 62
     7
370
    25
100
AcDbSpline
210
0.0
220
0.0
230
1.0
 70
     8
 71
     3
 72
    31
 73
    27
 74
     0
 42
0.000000001
 43
0.00000001
 40
0.0
 40
0.0
 40
0.0
 40
0.0
 40
0.0728890266200381
 40
0.1401861299444948
 40
0.2022774341249584
 40
0.2588951317514631
 40
0.3104829424654783
 40
0.3570952441313362
 40
0.3985135666534651
 40
0.4350375108701164
 40
0.4692514858292874
 40
0.5028050278902744
 40
0.5362104463185617
 40
0.5693793599392056
 40
0.6028014750483933
 40
0.6366657983367764
 40
0.6709286568940432
 40
0.7058030002293126
 40
0.7411890612458779
 40
0.7763043110764614
 40
0.8120043009129351
 40
0.8479689758088954
 40
0.8845217611964791
 40
0.921974158544205
 40
0.9601981758096079
 40
1.0
 40
1.0
 40
1.0
 40
1.0
 10
35.47209980413103
 20
1.706297963705541
 30
0.0
 10
35.36968897165747
 20
1.705934464025628
 30
0.0
 10
35.17272409320322
 20
1.705235351748703
 30
0.0
 10
34.88871149651467
 20
1.694205211865081
 30
0.0
 10
34.62780686835058
 20
1.678855866898658
 30
0.0
 10
34.38962391580996
 20
1.655432359081281
 30
0.0
 10
34.17426453748532
 20
1.624375619071295
 30
0.0
 10
33.98151289294374
 20
1.587764861810205
 30
0.0
 10
33.81137461612567
 20
1.546039054784825
 30
0.0
 10
33.66241482564074
 20
1.494045407167883
 30
0.0
 10
33.52798598064218
 20
1.435397360924799
 30
0.0
 10
33.40267960791279
 20
1.368009680384788
 30
0.0
 10
33.28373126253379
 20
1.29263274868238
 30
0.0
 10
33.17193598572607
 20
1.207283194714425
 30
0.0
 10
33.0663222502498
 20
1.113496435930069
 30
0.0
 10
32.96669080946107
 20
1.011178066747629
 30
0.0
 10
32.87444954796412
 20
0.8994604695381074
 30
0.0
 10
32.79016962739445
 20
0.7790495577436513
 30
0.0
 10
32.71335526389086
 20
0.6523800397238747
 30
0.0
 10
32.64546747729391
 20
0.5192779974038315
 30
0.0
 10
32.59026101639646
 20
0.3796508671781994
 30
0.0
 10
32.54148019019215
 20
0.2355165629453446
 30
0.0
 10
32.50634494140815
 20
0.0848146565490288
 30
0.0
 10
32.48190888986298
 20
-0.0709877435128456
 30
0.0
 10
32.46401776886138
 20
-0.2324390782304785
 30
0.0
 10
32.46298911493754
 20
-0.3421219466804818
 30
0.0
 10
32.46246438746437
 20
-0.3980723621491598
 30
0.0
  0
SPLINE
  5
126
330
1F
100
AcDbEntity
  8
0
  6
Continuous
 62
     7
370
    25
100
AcDbSpline
210
0.0
220
0.0
230
1.0
 70
     8
 71
     3
 72
    23
 73
    19
 74
     0
 42
0.000000001
 43
0.00000001
 40
0.0
 40
0.0
 40
0.0
 40
0.0
 40
0.0687412630793657
 40
0.1347890881950345
 40
0.1985360495606909
 40
0.2603856506059204
 40
0.3209615782321967
 40
0.3799038495841493
 40
0.4385029357752687
 40
0.4961543439762698
 40
0.5542654832084997
 40
0.612748760815695
 40
0.6725134425261787
 40
0.7336464018979736
 40
0.7967896194814559
 40
0.861935699041025
 40
0.9293977347748996
 40
1.0
 40
1.0
 40
1.0
 40
1.0
 10
32.46246438746437
 20
-0.3980723621491598
 30
0.0
 10
32.46382744074067
 20
-0.4564717428295669
 30
0.0
 10
32.46650013978697
 20
-0.5709822845398433
 30
0.0
 10
32.4808967508582
 20
-0.7391889308820099
 30
0.0
 10
32.50720923347
 20
-0.9001172845552649
 30
0.0
 10
32.54706331635057
 20
-1.053296167138669
 30
0.0
 10
32.59287040802707
 20
-1.200632068403912
 30
0.0
 10
32.65378208977828
 20
-1.339406548841083
 30
0.0
 10
32.72252694293945
 20
-1.471637882220965
 30
0.0
 10
32.80417319652616
 20
-1.595455606214635
 30
0.0
 10
32.89377597114557
 20
-1.713609959847592
 30
0.0
 10
32.99798211318176
 20
-1.821574011501537
 30
0.0
 10
33.11004066528282
 20
-1.925150420158987
 30
0.0
 10
33.2362508467724
 20
-2.017851510983146
 30
0.0
 10
33.37104919560939
 20
-2.105945396756801
 30
0.0
 10
33.5171140131621
 20
-2.185781917563276
 30
0.0
 10
33.6734920303375
 20
-2.259367979708803
 30
0.0
 10
33.78343352073857
 20
-2.300404651031159
 30
0.0
 10
33.83965455840453
 20
-2.321389669841467
 30
0.0
  0
LINE
  5
127
330
1F
100
AcDbEntity
  8
0
  6
Continuous
 62
     7
370
    25
100
AcDbLine
 10
33.8396545584
 20
-2.3213896698
 30
0.0
 11
32.1300391738
 21
-5.7020353696
 31
0.0
  0
LINE
  5
128
330
1F
100
AcDbEntity
  8
0
  6
Continuous
 62
     7
370
    25
100
AcDbLine
 10
32.1300391738
 20
-5.7020353696
 30
0.0
 11
33.6081441417
 21
-5.7020353696
 31
0.0
  0
LINE
  5
129
330
1F
100
AcDbEntity
  8
0
  6
Continuous
 62
     7
370
    25
100
AcDbLine
 10
33.6081441417
 20
-5.7020353696
 30
0.0
 11
35.2405893875
 21
-2.4727618654
 31
0.0
  0
LINE
  5
12A
330
1F
100
AcDbEntity
  8
0
  6
Continuous
 62
     7
370
    25
100
AcDbLine
 10
35.2405893875
 20
-2.4727618654
 30
0.0
 11
35.6917378917
 21
-2.4727618654
 31
0.0
  0
LINE
  5
12B
330
1F
100
AcDbEntity
  8
0
  6
Continuous
 62
     7
370
    25
100
AcDbLine
 10
35.6917378917
 20
-2.4727618654
 30
0.0
 11
35.6917378917
 21
-5.7020353696
 31
0.0
  0
SPLINE
  5
12C
330
1F
100
AcDbEntity
  8
0
  6
Continuous
 62
     7
370
    25
100
AcDbSpline
210
0.0
220
0.0
230
1.0
 70
     8
 71
     3
 72
    31
 73
    27
 74
     0
 42
0.000000001
 43
0.00000001
 40
0.0
 40
0.0
 40
0.0
 40
0.0
 40
0.0417149324333603
 40
0.0823027059399512
 40
0.121571814425736
 40
0.1600671244574456
 40
0.1979937629052234
 40
0.2355661717952771
 40
0.2730048805336434
 40
0.3100903331095221
 40
0.3468461432534283
 40
0.3824835718335563
 40
0.4172710082891828
 40
0.451331619188808
 40
0.4848527413222464
 40
0.5180308512419188
 40
0.5510685457911256
 40
0.584171000064779
 40
0.6194667444415158
 40
0.6591579072517056
 40
0.703471546957703
 40
0.7528401139219638
 40
0.8068443124206159
 40
0.8661419381570226
 40
0.9305017472849205
 40
1.0
 40
1.0
 40
1.0
 40
1.0
 10
41.14855713586179
 20
-5.891992634585054
 30
0.0
 10
41.21241805164516
 20
-5.890916981800653
 30
0.0
 10
41.33841432842618
 20
-5.888794740923255
 30
0.0
 10
41.52371395701262
 20
-5.870082119910982
 30
0.0
 10
41.70284244790876
 20
-5.842506752773585
 30
0.0
 10
41.87546322000521
 20
-5.802277131781794
 30
0.0
 10
42.04217540772874
 20
-5.750307975374418
 30
0.0
 10
42.20293471951231
 20
-5.686337563072414
 30
0.0
 10
42.35714373500996
 20
-5.610722713745391
 30
0.0
 10
42.5039395221017
 20
-5.524158920385496
 30
0.0
 10
42.64314143608348
 20
-5.430555079376347
 30
0.0
 10
42.77036480001664
 20
-5.326791281376777
 30
0.0
 10
42.88998766848451
 20
-5.220541251037793
 30
0.0
 10
42.99855418669621
 20
-5.107333536094837
 30
0.0
 10
43.0968797859103
 20
-4.988356624451523
 30
0.0
 10
43.18476196435461
 20
-4.863340875487359
 30
0.0
 10
43.26207015849182
 20
-4.732297393450316
 30
0.0
 10
43.33074901339405
 20
-4.592864127557029
 30
0.0
 10
43.38953141015407
 20
-4.437954187951294
 30
0.0
 10
43.43908717886917
 20
-4.262057364494628
 30
0.0
 10
43.48238026460299
 20
-4.062416650020352
 30
0.0
 10
43.51455313140883
 20
-3.83858226464897
 30
0.0
 10
43.54372124141481
 20
-3.591291941574685
 30
0.0
 10
43.56218304683856
 20
-3.319901451730459
 30
0.0
 10
43.57184124829484
 20
-3.024403008736201
 30
0.0
 10
43.57389703572886
 20
-2.81954006417069
 30
0.0
 10
43.57496438746436
 20
-2.713176528815824
 30
0.0
  0
LINE
  5
12D
330
1F
100
AcDbEntity
  8
0
  6
Continuous
 62
     7
370
    25
100
AcDbLine
 10
43.5749643875
 20
-2.7131765288
 30
0.0
 11
43.5749643875
 21
1.7062979637
 31
0.0
  0
LINE
  5
12E
330
1F
100
AcDbEntity
  8
0
  6
Continuous
 62
     7
370
    25
100
AcDbLine
 10
43.5749643875
 20
1.7062979637
 30
0.0
 11
42.2452635328
 21
1.7062979637
 31
0.0
  0
LINE
  5
12F
330
1F
100
AcDbEntity
  8
0
  6
Continuous
 62
     7
370
    25
100
AcDbLine
 10
42.2452635328
 20
1.7062979637
 30
0.0
 11
42.2452635328
 21
-3.1138676346
 31
0.0
  0
SPLINE
  5
130
330
1F
100
AcDbEntity
  8
0
  6
Continuous
 62
     7
370
    25
100
AcDbSpline
210
0.0
220
0.0
230
1.0
 70
     8
 71
     3
 72
    23
 73
    19
 74
     0
 42
0.000000001
 43
0.00000001
 40
0.0
 40
0.0
 40
0.0
 40
0.0
 40
0.0722187479928818
 40
0.1394897657276685
 40
0.2003699977303418
 40
0.2564327255100087
 40
0.3078035215508907
 40
0.3536585165318463
 40
0.3944199056460604
 40
0.4301557059443435
 40
0.4966662725087374
 40
0.5620176176150515
 40
0.6287545482746036
 40
0.6974096406803557
 40
0.7680791946526327
 40
0.841338126089807
 40
0.9183362465478038
 40
1.0
 40
1.0
 40
1.0
 40
1.0
 10
42.2452635327635
 20
-3.113867634585055
 30
0.0
 10
42.24519123019297
 20
-3.163841020821708
 30
0.0
 10
42.24505157852487
 20
-3.260364100112089
 30
0.0
 10
42.23806054288179
 20
-3.398843116801773
 30
0.0
 10
42.23166326315224
 20
-3.526134327589331
 30
0.0
 10
42.22012075474854
 20
-3.642098375798671
 30
0.0
 10
42.20306851359033
 20
-3.746784866706937
 30
0.0
 10
42.18655637995692
 20
-3.840866269134223
 30
0.0
 10
42.16420883989462
 20
-3.922658161939071
 30
0.0
 10
42.13062406003628
 20
-4.015758749592609
 30
0.0
 10
42.07888093915814
 20
-4.120362345019851
 30
0.0
 10
41.99433555058274
 20
-4.229382611917075
 30
0.0
 10
41.89677740478953
 20
-4.328879429113067
 30
0.0
 10
41.77984834803309
 20
-4.411696809911195
 30
0.0
 10
41.64843042901795
 20
-4.478688606387258
 30
0.0
 10
41.5032457308424
 20
-4.528322113765675
 30
0.0
 10
41.34449891225211
 20
-4.555911753727989
 30
0.0
 10
41.23473419523829
 20
-4.560123817654131
 30
0.0
 10
41.17823795851136
 20
-4.5622917798842
 30
0.0
  0
SPLINE
  5
131
330
1F
100
AcDbEntity
  8
0
  6
Continuous
 62
     7
370
    25
100
AcDbSpline
210
0.0
220
0.0
230
1.0
 70
     8
 71
     3
 72
    23
 73
    19
 74
     0
 42
0.000000001
 43
0.00000001
 40
0.0
 40
0.0
 40
0.0
 40
0.0
 40
0.0788326040104725
 40
0.1537102312098463
 40
0.224677758665779
 40
0.2948087751910978
 40
0.3627147868294598
 40
0.4271032430309813
 40
0.4886497655514116
 40
0.5509002465387022
 40
0.5850458333883313
 40
0.6252721895341634
 40
0.6714658644313025
 40
0.7245499928849674
 40
0.7832647317228375
 40
0.849073130859845
 40
0.9212962952783854
 40
1.0
 40
1.0
 40
1.0
 40
1.0
 10
41.17823795851136
 20
-4.5622917798842
 30
0.0
 10
41.11821767897784
 20
-4.560540344715763
 30
0.0
 10
41.0011882955117
 20
-4.557125342660855
 30
0.0
 10
40.83286015814217
 20
-4.523603400623008
 30
0.0
 10
40.67690318424479
 20
-4.470224988410605
 30
0.0
 10
40.53661951483107
 20
-4.394040390517532
 30
0.0
 10
40.41214875473733
 20
-4.302719798114665
 30
0.0
 10
40.30678686456654
 20
-4.198585705724209
 30
0.0
 10
40.22363564786463
 20
-4.081430417683438
 30
0.0
 10
40.16944077840568
 20
-3.973345743053877
 30
0.0
 10
40.13901302808543
 20
-3.873863212321263
 30
0.0
 10
40.11620591343077
 20
-3.784979346120319
 30
0.0
 10
40.09948577531031
 20
-3.680105182223836
 30
0.0
 10
40.08431671646581
 20
-3.560878556927152
 30
0.0
 10
40.07520128066314
 20
-3.426064511847404
 30
0.0
 10
40.06531707655108
 20
-3.276747239117182
 30
0.0
 10
40.06169442406287
 20
-3.111905069923638
 30
0.0
 10
40.06107696933906
 20
-2.99712237373851
 30
0.0
 10
40.06075498575495
 20
-2.937266739820097
 30
0.0
  0
LINE
  5
132
330
1F
100
AcDbEntity
  8
0
  6
Continuous
 62
     7
370
    25
100
AcDbLine
 10
40.0607549858
 20
-2.9372667398
 30
0.0
 11
40.0607549858
 21
1.7062979637
 31
0.0
  0
LINE
  5
133
330
1F
100
AcDbEntity
  8
0
  6
Continuous
 62
     7
370
    25
100
AcDbLine
 10
40.0607549858
 20
1.7062979637
 30
0.0
 11
38.7310541311
 21
1.7062979637
 31
0.0
  0
LINE
  5
134
330
1F
100
AcDbEntity
  8
0
  6
Continuous
 62
     7
370
    25
100
AcDbLine
 10
38.7310541311
 20
1.7062979637
 30
0.0
 11
38.7310541311
 21
-2.7131765288
 31
0.0
  0
SPLINE
  5
135
330
1F
100
AcDbEntity
  8
0
  6
Continuous
 62
     7
370
    25
100
AcDbSpline
210
0.0
220
0.0
230
1.0
 70
     8
 71
     3
 72
    27
 73
    23
 74
     0
 42
0.000000001
 43
0.00000001
 40
0.0
 40
0.0
 40
0.0
 40
0.0
 40
0.0585404168084433
 40
0.1125675123403486
 40
0.1617798781047806
 40
0.2064871555823912
 40
0.2464570299480984
 40
0.2819997074061418
 40
0.3132129382361462
 40
0.3398064735188102
 40
0.3894126122316829
 40
0.4404734799435061
 40
0.4939547398756054
 40
0.5499778768088321
 40
0.606488083626715
 40
0.6613185000989833
 40
0.7146910989596493
 40
0.767918471329797
 40
0.8219387900584588
 40
0.8781073740704575
 40
0.9372026550360442
 40
1.0
 40
1.0
 40
1.0
 40
1.0
 10
38.73105413105409
 20
-2.713176528815824
 30
0.0
 10
38.73123878418657
 20
-2.802714870771175
 30
0.0
 10
38.73159385415192
 20
-2.974888370081477
 30
0.0
 10
38.73704665835726
 20
-3.222313804843413
 30
0.0
 10
38.74865469214261
 20
-3.448297250621029
 30
0.0
 10
38.75840410157371
 20
-3.652904739288704
 30
0.0
 10
38.77727254756717
 20
-3.835860630728768
 30
0.0
 10
38.79692904196042
 20
-3.997946198785699
 30
0.0
 10
38.82198293518508
 20
-4.138587048930929
 30
0.0
 10
38.85926162181515
 20
-4.298689565267641
 30
0.0
 10
38.92359359872383
 20
-4.483041749492198
 30
0.0
 10
39.02730517951801
 20
-4.695315297934187
 30
0.0
 10
39.15896031874381
 20
-4.903143959923971
 30
0.0
 10
39.31457011375277
 20
-5.104241476839802
 30
0.0
 10
39.4902678063413
 20
-5.29105458928144
 30
0.0
 10
39.68215780263655
 20
-5.455052321236905
 30
0.0
 10
39.88719144762881
 20
-5.593776718022601
 30
0.0
 10
40.10751119591711
 20
-5.703835800950172
 30
0.0
 10
40.34292954414632
 20
-5.789673588614357
 30
0.0
 10
40.59577578114408
 20
-5.847352258527862
 30
0.0
 10
40.86587748574549
 20
-5.886320691907771
 30
0.0
 10
41.052441838335
 20
-5.890064089471328
 30
0.0
 10
41.14855713586179
 20
-5.891992634585054
 30
0.0
  0
LINE
  5
136
330
1F
100
AcDbEntity
  8
0
  6
Continuous
 62
     7
370
    25
100
AcDbLine
 10
44.9046652422
 20
-5.7020353696
 30
0.0
 11
48.8937678063
 21
-5.7020353696
 31
0.0
  0
LINE
  5
137
330
1F
100
AcDbEntity
  8
0
  6
Continuous
 62
     7
370
    25
100
AcDbLine
 10
48.8937678063
 20
-5.7020353696
 30
0.0
 11
48.8937678063
 21
1.7062979637
 31
0.0
  0
LINE
  5
138
330
1F
100
AcDbEntity
  8
0
  6
Continuous
 62
     7
370
    25
100
AcDbLine
 10
48.8937678063
 20
1.7062979637
 30
0.0
 11
44.9046652422
 21
1.7062979637
 31
0.0
  0
LINE
  5
139
330
1F
100
AcDbEntity
  8
0
  6
Continuous
 62
     7
370
    25
100
AcDbLine
 10
44.9046652422
 20
1.7062979637
 30
0.0
 11
44.9046652422
 21
0.376597109
 31
0.0
  0
LINE
  5
13A
330
1F
100
AcDbEntity
  8
0
  6
Continuous
 62
     7
370
    25
100
AcDbLine
 10
44.9046652422
 20
0.376597109
 30
0.0
 11
47.5640669516
 21
0.376597109
 31
0.0
  0
LINE
  5
13B
330
1F
100
AcDbEntity
  8
0
  6
Continuous
 62
     7
370
    25
100
AcDbLine
 10
47.5640669516
 20
0.376597109
 30
0.0
 11
47.5640669516
 21
-1.0480823782
 31
0.0
  0
LINE
  5
13C
330
1F
100
AcDbEntity
  8
0
  6
Continuous
 62
     7
370
    25
100
AcDbLine
 10
47.5640669516
 20
-1.0480823782
 30
0.0
 11
44.9046652422
 21
-1.0480823782
 31
0.0
  0
LINE
  5
13D
330
1F
100
AcDbEntity
  8
0
  6
Continuous
 62
     7
370
    25
100
AcDbLine
 10
44.9046652422
 20
-1.0480823782
 30
0.0
 11
44.9046652422
 21
-2.3777832329
 31
0.0
  0
LINE
  5
13E
330
1F
100
AcDbEntity
  8
0
  6
Continuous
 62
     7
370
    25
100
AcDbLine
 10
44.9046652422
 20
-2.3777832329
 30
0.0
 11
47.5640669516
 21
-2.3777832329
 31
0.0
  0
LINE
  5
13F
330
1F
100
AcDbEntity
  8
0
  6
Continuous
 62
     7
370
    25
100
AcDbLine
 10
47.5640669516
 20
-2.3777832329
 30
0.0
 11
47.5640669516
 21
-4.3723345149
 31
0.0
  0
LINE
  5
140
330
1F
100
AcDbEntity
  8
0
  6
Continuous
 62
     7
370
    25
100
AcDbLine
 10
47.5640669516
 20
-4.3723345149
 30
0.0
 11
44.9046652422
 21
-4.3723345149
 31
0.0
  0
LINE
  5
141
330
1F
100
AcDbEntity
  8
0
  6
Continuous
 62
     7
370
    25
100
AcDbLine
 10
44.9046652422
 20
-4.3723345149
 30
0.0
 11
44.9046652422
 21
-5.7020353696
 31
0.0
  0
SPLINE
  5
142
330
1F
100
AcDbEntity
  8
0
  6
Continuous
 62
     7
370
    25
100
AcDbSpline
210
0.0
220
0.0
230
1.0
 70
     8
 71
     3
 72
    23
 73
    19
 74
     0
 42
0.000000001
 43
0.00000001
 40
0.0
 40
0.0
 40
0.0
 40
0.0
 40
0.0641474448766715
 40
0.1262121152536831
 40
0.1868412890216902
 40
0.2469358694509785
 40
0.3072563614860034
 40
0.3681505022006761
 40
0.4300707669516566
 40
0.4938754417369545
 40
0.5579806818508445
 40
0.6208695259285352
 40
0.6825247313751582
 40
0.74403569810577
 40
0.8058886825781879
 40
0.868968137743667
 40
0.9332474288479398
 40
1.0
 40
1.0
 40
1.0
 40
1.0
 10
12.92357883725069
 20
-4.562291779884202
 30
0.0
 10
12.83838500587626
 20
-4.559946122212621
 30
0.0
 10
12.67076346327227
 20
-4.555330966972059
 30
0.0
 10
12.42449132736088
 20
-4.52078835193181
 30
0.0
 10
12.18855514126929
 20
-4.462329775615701
 30
0.0
 10
11.96149019318024
 20
-4.382132638544186
 30
0.0
 10
11.74395123689558
 20
-4.277865786715243
 30
0.0
 10
11.53700144473109
 20
-4.149317402098395
 30
0.0
 10
11.3402779772004
 20
-3.998065893341567
 30
0.0
 10
11.15445317174332
 20
-3.827273918865659
 30
0.0
 10
10.98460051540121
 20
-3.638699152098706
 30
0.0
 10
10.83640972694126
 20
-3.436328492732667
 30
0.0
 10
10.70818737601102
 20
-3.224620772029791
 30
0.0
 10
10.60627381069772
 20
-3.000579588235081
 30
0.0
 10
10.52483090909947
 20
-2.766319785265737
 30
0.0
 10
10.46969792441132
 20
-2.52080387686446
 30
0.0
 10
10.43413356466683
 20
-2.265043972848714
 30
0.0
 10
10.42968693382924
 20
-2.090990319842737
 30
0.0
 10
10.42742165242164
 20
-2.002320826358561
 30
0.0
  0
SPLINE
  5
143
330
1F
100
AcDbEntity
  8
0
  6
Continuous
 62
     7
370
    25
100
AcDbSpline
210
0.0
220
0.0
230
1.0
 70
     8
 71
     3
 72
    23
 73
    19
 74
     0
 42
0.000000001
 43
0.00000001
 40
0.0
 40
0.0
 40
0.0
 40
0.0
 40
0.0659391240576589
 40
0.1297911093795349
 40
0.1921752363053295
 40
0.2536170442157551
 40
0.3147191079962369
 40
0.3762822754113758
 40
0.4389729923739128
 40
0.5031747018386412
 40
0.5673294646239474
 40
0.6296509938060325
 40
0.6906498673030979
 40
0.7512376127977868
 40
0.8117541138236057
 40
0.8727877774488529
 40
0.9355396326682296
 40
1.0
 40
1.0
 40
1.0
 40
1.0
 10
10.42742165242164
 20
-2.002320826358561
 30
0.0
 10
10.42976531288152
 20
-1.91416120694105
 30
0.0
 10
10.43437845106685
 20
-1.74063244127727
 30
0.0
 10
10.46898186318144
 20
-1.485530094216222
 30
0.0
 10
10.52706971035269
 20
-1.241098066567477
 30
0.0
 10
10.60750767102128
 20
-1.006937175020096
 30
0.0
 10
10.71022268728353
 20
-0.7828178549875419
 30
0.0
 10
10.83724022506448
 20
-0.5695282424737097
 30
0.0
 10
10.98811459554758
 20
-0.3672745363840415
 30
0.0
 10
11.1593734344649
 20
-0.1774350183808901
 30
0.0
 10
11.34577815483878
 20
-0.0029846615982343
 30
0.0
 10
11.54590224752385
 20
0.1484065362140449
 30
0.0
 10
11.75414601578207
 20
0.2799606736890019
 30
0.0
 10
11.97528758768703
 20
0.3830148729193913
 30
0.0
 10
12.20480259179301
 20
0.4651179348383176
 30
0.0
 10
12.44409154084719
 20
0.5255798077523556
 30
0.0
 10
12.69406075639874
 20
0.559392282019678
 30
0.0
 10
12.86411998226677
 20
0.5641457297330353
 30
0.0
 10
12.95029157763531
 20
0.5665543739619512
 30
0.0
  0
SPLINE
  5
144
330
1F
100
AcDbEntity
  8
0
  6
Continuous
 62
     7
370
    25
100
AcDbSpline
210
0.0
220
0.0
230
1.0
 70
     8
 71
     3
 72
    23
 73
    19
 74
     0
 42
0.000000001
 43
0.00000001
 40
0.0
 40
0.0
 40
0.0
 40
0.0
 40
0.0646087354707742
 40
0.1275117897236749
 40
0.1885213083986468
 40
0.2487081790893701
 40
0.3085982651789126
 40
0.3688122491095535
 40
0.4298875018150757
 40
0.4928024479242457
 40
0.5557433321027939
 40
0.6174852948395642
 40
0.6789689634380379
 40
0.740197691354554
 40
0.8023601016976086
 40
0.8662447764427322
 40
0.9317068283956891
 40
1.0
 40
1.0
 40
1.0
 40
1.0
 10
12.95029157763531
 20
0.5665543739619512
 30
0.0
 10
13.03697594889807
 20
0.5642284376511827
 30
0.0
 10
13.2080562097985
 20
0.5596379701299057
 30
0.0
 10
13.45899979606459
 20
0.524664816388372
 30
0.0
 10
13.69991450104938
 20
0.4688087145987735
 30
0.0
 10
13.92946483916696
 20
0.3879018337095442
 30
0.0
 10
14.14864570159549
 20
0.2849279085872681
 30
0.0
 10
14.3578456280983
 20
0.1602467426018296
 30
0.0
 10
14.5541676321671
 20
0.0095725601818959
 30
0.0
 10
14.74022947796952
 20
-0.1590056136968943
 30
0.0
 10
14.90830573872818
 20
-0.3468404410395064
 30
0.0
 10
15.05680641740261
 20
-0.5481374032040424
 30
0.0
 10
15.18107756677528
 20
-0.7625603376033171
 30
0.0
 10
15.28515543287236
 20
-0.988117305849389
 30
0.0
 10
15.36350299916088
 20
-1.227344636386986
 30
0.0
 10
15.41930762155927
 20
-1.478368435574806
 30
0.0
 10
15.45457405986679
 20
-1.741621229949021
 30
0.0
 10
15.45901943822865
 20
-1.921080317184784
 30
0.0
 10
15.46128917378916
 20
-2.012709114285911
 30
0.0
  0
SPLINE
  5
145
330
1F
100
AcDbEntity
  8
0
  6
Continuous
 62
     7
370
    25
100
AcDbSpline
210
0.0
220
0.0
230
1.0
 70
     8
 71
     3
 72
    15
 73
    11
 74
     0
 42
0.000000001
 43
0.00000001
 40
0.0
 40
0.0
 40
0.0
 40
0.0
 40
0.13480683277922
 40
0.2641990558543177
 40
0.3884618167279421
 40
0.5099420983643728
 40
0.630409610612771
 40
0.7506710345119791
 40
0.8734547255294234
 40
1.0
 40
1.0
 40
1.0
 40
1.0
 10
15.46128917378916
 20
-2.012709114285911
 30
0.0
 10
15.4582798509604
 20
-2.11425443310473
 30
0.0
 10
15.4523820768363
 20
-2.313266432758305
 30
0.0
 10
15.41088462076973
 20
-2.60357977592201
 30
0.0
 10
15.33988660420233
 20
-2.877751914970375
 30
0.0
 10
15.23736684867384
 20
-3.134441914940807
 30
0.0
 10
15.11021545544646
 20
-3.376500126055476
 30
0.0
 10
14.95231360524851
 20
-3.6009597808552
 30
0.0
 10
14.76621856058085
 20
-3.809164838884356
 30
0.0
 10
14.62285244584162
 20
-3.930723624103305
 30
0.0
 10
14.55008791844728
 20
-3.992419985012407
 30
0.0
  0
SPLINE
  5
146
330
1F
100
AcDbEntity
  8
0
  6
Continuous
 62
     7
370
    25
100
AcDbSpline
210
0.0
220
0.0
230
1.0
 70
     8
 71
     3
 72
    15
 73
    11
 74
     0
 42
0.000000001
 43
0.00000001
 40
0.0
 40
0.0
 40
0.0
 40
0.0
 40
0.1279910255623737
 40
0.2530983915017063
 40
0.3761840584327904
 40
0.4989363124701253
 40
0.6215258806257294
 40
0.7457068938016908
 40
0.8715753502968705
 40
0.9999999999999999
 40
0.9999999999999999
 40
0.9999999999999999
 40
0.9999999999999999
 10
14.55008791844728
 20
-3.992419985012407
 30
0.0
 10
14.49047987889094
 20
-4.037998886853117
 30
0.0
 10
14.37260677907014
 20
-4.128129790106766
 30
0.0
 10
14.18445564873329
 20
-4.243651032546039
 30
0.0
 10
13.99069703316647
 20
-4.342664261242192
 30
0.0
 10
13.78986878069999
 20
-4.42266577871398
 30
0.0
 10
13.58239503026845
 20
-4.4855936276279
 30
0.0
 10
13.36830423288351
 20
-4.529660965478505
 30
0.0
 10
13.14789973709207
 20
-4.557317030980271
 30
0.0
 10
12.99885188779251
 20
-4.56062245470789
 30
0.0
 10
12.92357883725069
 20
-4.562291779884202
 30
0.0
  0
SPLINE
  5
147
330
1F
100
AcDbEntity
  8
0
  6
Continuous
 62
     7
370
    25
100
AcDbSpline
210
0.0
220
0.0
230
1.0
 70
     8
 71
     3
 72
    19
 73
    15
 74
     0
 42
0.000000001
 43
0.00000001
 40
0.0
 40
0.0
 40
0.0
 40
0.0
 40
0.1123318680474755
 40
0.2171891524479064
 40
0.3207763822148924
 40
0.4294461252394106
 40
0.4868895248481728
 40
0.5473481609653087
 40
0.6105516098532308
 40
0.6785404198027609
 40
0.751005763870191
 40
0.8285633445446975
 40
0.9114938035709819
 40
1.0
 40
1.0
 40
1.0
 40
1.0
 10
19.54537037037035
 20
-0.4040085266790736
 30
0.0
 10
19.54790304562641
 20
-0.3466323340293089
 30
0.0
 10
19.5527998714502
 20
-0.2356977713901164
 30
0.0
 10
19.6082126789075
 20
-0.0799357655775457
 30
0.0
 10
19.69427972383945
 20
0.0581012500853289
 30
0.0
 10
19.7958939674505
 20
0.1525762987575442
 30
0.0
 10
19.89158352312487
 20
0.2170999716687282
 30
0.0
 10
19.97351879274911
 20
0.2595860625844713
 30
0.0
 10
20.06344890369846
 20
0.2976191769398308
 30
0.0
 10
20.16311480658641
 20
0.3267002231167366
 30
0.0
 10
20.27194735444762
 20
0.3485216162215525
 30
0.0
 10
20.38941788686088
 20
0.3645468161513523
 30
0.0
 10
20.51572908102892
 20
0.3754542489840142
 30
0.0
 10
20.60297249158199
 20
0.3762079842692023
 30
0.0
 10
20.64801293180197
 20
0.3765971090046866
 30
0.0
  0
LINE
  5
148
330
1F
100
AcDbEntity
  8
0
  6
Continuous
 62
     7
370
    25
100
AcDbLine
 10
20.6480129318
 20
0.376597109
 30
0.0
 11
21.06502849
 21
0.376597109
 31
0.0
  0
LINE
  5
149
330
1F
100
AcDbEntity
  8
0
  6
Continuous
 62
     7
370
    25
100
AcDbLine
 10
21.06502849
 20
0.376597109
 30
0.0
 11
21.06502849
 21
-1.2380396431
 31
0.0
  0
LINE
  5
14A
330
1F
100
AcDbEntity
  8
0
  6
Continuous
 62
     7
370
    25
100
AcDbLine
 10
21.06502849
 20
-1.2380396431
 30
0.0
 11
20.7118267005
 21
-1.2380396431
 31
0.0
  0
SPLINE
  5
14B
330
1F
100
AcDbEntity
  8
0
  6
Continuous
 62
     7
370
    25
100
AcDbSpline
210
0.0
220
0.0
230
1.0
 70
     8
 71
     3
 72
    19
 73
    15
 74
     0
 42
0.000000001
 43
0.00000001
 40
0.0
 40
0.0
 40
0.0
 40
0.0
 40
0.0887762289654551
 40
0.1713771372145552
 40
0.2481138113668468
 40
0.3211611878976195
 40
0.3880331325497766
 40
0.4520913744364375
 40
0.5122677074822264
 40
0.568866236826695
 40
0.676936000292983
 40
0.7810117272007101
 40
0.8869176462132635
 40
0.9999999999999999
 40
0.9999999999999999
 40
0.9999999999999999
 40
0.9999999999999999
 10
20.71182670049856
 20
-1.238039643132066
 30
0.0
 10
20.66382340393382
 20
-1.237621036221715
 30
0.0
 10
20.5711559451107
 20
-1.236812940915683
 30
0.0
 10
20.43730763014405
 20
-1.226404953977578
 30
0.0
 10
20.31285031295691
 20
-1.208648281757387
 30
0.0
 10
20.19825603329591
 20
-1.183873257268857
 30
0.0
 10
20.09245730382591
 20
-1.152412588410379
 30
0.0
 10
19.99612999730876
 20
-1.114558628354289
 30
0.0
 10
19.90969764749268
 20
-1.068372682588882
 30
0.0
 10
19.8092832477011
 20
-0.9995766782332259
 30
0.0
 10
19.70313798589422
 20
-0.8983402777671442
 30
0.0
 10
19.60969950570172
 20
-0.7520833219896884
 30
0.0
 10
19.5546648648078
 20
-0.5838883793199582
 30
0.0
 10
19.54853549014939
 20
-0.4652642822530251
 30
0.0
 10
19.54537037037035
 20
-0.4040085266790736
 30
0.0
  0
SPLINE
  5
14C
330
1F
100
AcDbEntity
  8
0
  6
Continuous
 62
     7
370
    25
100
AcDbSpline
210
0.0
220
0.0
230
1.0
 70
     8
 71
     3
 72
    23
 73
    19
 74
     0
 42
0.000000001
 43
0.00000001
 40
0.0
 40
0.0
 40
0.0
 40
0.0
 40
0.0528263492812288
 40
0.1028915173965562
 40
0.1516981461048771
 40
0.1995775881235296
 40
0.2472235843729622
 40
0.295723120383668
 40
0.3462538147999402
 40
0.3985071702228969
 40
0.4542901722394626
 40
0.5140415865121274
 40
0.5790927186074057
 40
0.6500371484472949
 40
0.7274510007645231
 40
0.8114520065892921
 40
0.9024758798237957
 40
1.0
 40
1.0
 40
1.0
 40
1.0
 10
19.07047720797719
 20
-3.505654493559416
 30
0.0
 10
19.07159080790985
 20
-3.466516849238872
 30
0.0
 10
19.0737598010052
 20
-3.390287246658737
 30
0.0
 10
19.09147399393746
 20
-3.278869547087554
 30
0.0
 10
19.1236664689717
 20
-3.174853731960655
 30
0.0
 10
19.16421446198431
 20
-3.075579976567653
 30
0.0
 10
19.22063914861257
 20
-2.984602627147195
 30
0.0
 10
19.28769796038603
 20
-2.898773302633325
 30
0.0
 10
19.3687221241466
 20
-2.820998448864751
 30
0.0
 10
19.45983852310415
 20
-2.746573951998611
 30
0.0
 10
19.56611678142831
 20
-2.681411272852602
 30
0.0
 10
19.68760676181132
 20
-2.624871106469263
 30
0.0
 10
19.82496846395005
 20
-2.577650841670489
 30
0.0
 10
19.97862738025816
 20
-2.54005403586281
 30
0.0
 10
20.14790988196928
 20
-2.508146146444611
 30
0.0
 10
20.33405154537531
 20
-2.489093614106093
 30
0.0
 10
20.53550211805806
 20
-2.47492340848031
 30
0.0
 10
20.67519122361649
 20
-2.473498751550377
 30
0.0
 10
20.74744368767804
 20
-2.472761865354288
 30
0.0
  0
LINE
  5
14D
330
1F
100
AcDbEntity
  8
0
  6
Continuous
 62
     7
370
    25
100
AcDbLine
 10
20.7474436877
 20
-2.4727618654
 30
0.0
 11
21.06502849
 21
-2.4727618654
 31
0.0
  0
LINE
  5
14E
330
1F
100
AcDbEntity
  8
0
  6
Continuous
 62
     7
370
    25
100
AcDbLine
 10
21.06502849
 20
-2.4727618654
 30
0.0
 11
21.06502849
 21
-4.3723345149
 31
0.0
  0
LINE
  5
14F
330
1F
100
AcDbEntity
  8
0
  6
Continuous
 62
     7
370
    25
100
AcDbLine
 10
21.06502849
 20
-4.3723345149
 30
0.0
 11
20.6821458778
 21
-4.3723345149
 31
0.0
  0
SPLINE
  5
150
330
1F
100
AcDbEntity
  8
0
  6
Continuous
 62
     7
370
    25
100
AcDbSpline
210
0.0
220
0.0
230
1.0
 70
     8
 71
     3
 72
    23
 73
    19
 74
     0
 42
0.000000001
 43
0.00000001
 40
0.0
 40
0.0
 40
0.0
 40
0.0
 40
0.1095674252695412
 40
0.2106570473717294
 40
0.3020024587326173
 40
0.3851432164195903
 40
0.4590126129308725
 40
0.5247192090460482
 40
0.5832266479388927
 40
0.6342083193258281
 40
0.6811857277932568
 40
0.7262751343643192
 40
0.7701133344783265
 40
0.8140800070141051
 40
0.8579941680783133
 40
0.9033387195085174
 40
0.9505447828389809
 40
1.0
 40
1.0
 40
1.0
 40
1.0
 10
20.68214587784898
 20
-4.372334514926936
 30
0.0
 10
20.60644949791895
 20
-4.371902064323144
 30
0.0
 10
20.46091376178605
 20
-4.371070624074319
 30
0.0
 10
20.2524340776483
 20
-4.361024848610039
 30
0.0
 10
20.0628739248184
 20
-4.342919108384734
 30
0.0
 10
19.89273556618605
 20
-4.320315550205521
 30
0.0
 10
19.74175840264648
 20
-4.289691264346551
 30
0.0
 10
19.61045277315034
 20
-4.25075640958735
 30
0.0
 10
19.49701799120094
 20
-4.207921287839657
 30
0.0
 10
19.40213421736533
 20
-4.155014826561809
 30
0.0
 10
19.32461960975814
 20
-4.093444825511866
 30
0.0
 10
19.2546708034778
 20
-4.030518805442011
 30
0.0
 10
19.19763890548033
 20
-3.957927696251258
 30
0.0
 10
19.15251420348847
 20
-3.878787633070295
 30
0.0
 10
19.11345885360408
 20
-3.795064512192779
 30
0.0
 10
19.08990342450859
 20
-3.70348897587972
 30
0.0
 10
19.07196914750832
 20
-3.606775103415794
 30
0.0
 10
19.07098217623668
 20
-3.539880209342689
 30
0.0
 10
19.07047720797719
 20
-3.505654493559415
 30
0.0
  0
SPLINE
  5
151
330
1F
100
AcDbEntity
  8
0
  6
Continuous
 62
     7
370
    25
100
AcDbSpline
210
0.0
220
0.0
230
1.0
 70
     8
 71
     3
 72
    23
 73
    19
 74
     0
 42
0.000000001
 43
0.00000001
 40
0.0
 40
0.0
 40
0.0
 40
0.0
 40
0.0641474448766711
 40
0.1262121152536836
 40
0.1868412890216902
 40
0.246935869450979
 40
0.3072563614860034
 40
0.3681505022006761
 40
0.4300707669516562
 40
0.4938754417369547
 40
0.5579806818508445
 40
0.6208695259285352
 40
0.6825247313751582
 40
0.74403569810577
 40
0.8058886825781879
 40
0.8689681377436671
 40
0.9332474288479398
 40
1.0
 40
1.0
 40
1.0
 40
1.0
 10
27.55028823896009
 20
-4.562291779884202
 30
0.0
 10
27.46509440758567
 20
-4.559946122212621
 30
0.0
 10
27.29747286498166
 20
-4.555330966972058
 30
0.0
 10
27.05120072907027
 20
-4.52078835193181
 30
0.0
 10
26.81526454297868
 20
-4.462329775615701
 30
0.0
 10
26.58819959488965
 20
-4.382132638544189
 30
0.0
 10
26.37066063860497
 20
-4.277865786715241
 30
0.0
 10
26.16371084644048
 20
-4.149317402098395
 30
0.0
 10
25.9669873789098
 20
-3.998065893341567
 30
0.0
 10
25.78116257345271
 20
-3.82727391886566
 30
0.0
 10
25.61130991711062
 20
-3.638699152098706
 30
0.0
 10
25.46311912865065
 20
-3.436328492732667
 30
0.0
 10
25.33489677772042
 20
-3.224620772029791
 30
0.0
 10
25.23298321240712
 20
-3.000579588235082
 30
0.0
 10
25.15154031080887
 20
-2.766319785265737
 30
0.0
 10
25.09640732612071
 20
-2.52080387686446
 30
0.0
 10
25.06084296637622
 20
-2.265043972848713
 30
0.0
 10
25.05639633553864
 20
-2.090990319842737
 30
0.0
 10
25.05413105413103
 20
-2.002320826358561
 30
0.0
  0
SPLINE
  5
152
330
1F
100
AcDbEntity
  8
0
  6
Continuous
 62
     7
370
    25
100
AcDbSpline
210
0.0
220
0.0
230
1.0
 70
     8
 71
     3
 72
    23
 73
    19
 74
     0
 42
0.000000001
 43
0.00000001
 40
0.0
 40
0.0
 40
0.0
 40
0.0
 40
0.0659391240576589
 40
0.1297911093795348
 40
0.1921752363053294
 40
0.2536170442157552
 40
0.314719107996237
 40
0.3762822754113758
 40
0.4389729923739131
 40
0.5031747018386413
 40
0.5673294646239475
 40
0.629650993806033
 40
0.6906498673030983
 40
0.7512376127977869
 40
0.8117541138236058
 40
0.8727877774488526
 40
0.9355396326682294
 40
1.0
 40
1.0
 40
1.0
 40
1.0
 10
25.05413105413103
 20
-2.002320826358561
 30
0.0
 10
25.05647471459091
 20
-1.91416120694105
 30
0.0
 10
25.06108785277624
 20
-1.74063244127727
 30
0.0
 10
25.09569126489085
 20
-1.485530094216222
 30
0.0
 10
25.15377911206208
 20
-1.241098066567476
 30
0.0
 10
25.23421707273069
 20
-1.006937175020097
 30
0.0
 10
25.33693208899292
 20
-0.7828178549875419
 30
0.0
 10
25.46394962677388
 20
-0.5695282424737087
 30
0.0
 10
25.61482399725697
 20
-0.3672745363840427
 30
0.0
 10
25.7860828361743
 20
-0.1774350183808896
 30
0.0
 10
25.97248755654817
 20
-0.0029846615982338
 30
0.0
 10
26.17261164923325
 20
0.1484065362140443
 30
0.0
 10
26.38085541749147
 20
0.2799606736890017
 30
0.0
 10
26.60199698939643
 20
0.3830148729193917
 30
0.0
 10
26.83151199350241
 20
0.4651179348383171
 30
0.0
 10
27.07080094255659
 20
0.5255798077523558
 30
0.0
 10
27.32077015810814
 20
0.559392282019678
 30
0.0
 10
27.49082938397617
 20
0.5641457297330353
 30
0.0
 10
27.57700097934471
 20
0.5665543739619512
 30
0.0
  0
SPLINE
  5
153
330
1F
100
AcDbEntity
  8
0
  6
Continuous
 62
     7
370
    25
100
AcDbSpline
210
0.0
220
0.0
230
1.0
 70
     8
 71
     3
 72
    23
 73
    19
 74
     0
 42
0.000000001
 43
0.00000001
 40
0.0
 40
0.0
 40
0.0
 40
0.0
 40
0.0646087354707737
 40
0.1275117897236745
 40
0.1885213083986468
 40
0.2487081790893701
 40
0.3085982651789122
 40
0.3688122491095531
 40
0.4298875018150755
 40
0.4928024479242456
 40
0.5557433321027938
 40
0.6174852948395643
 40
0.678968963438038
 40
0.7401976913545538
 40
0.8023601016976085
 40
0.866244776442732
 40
0.931706828395689
 40
1.0
 40
1.0
 40
1.0
 40
1.0
 10
27.57700097934471
 20
0.5665543739619512
 30
0.0
 10
27.66368535060748
 20
0.5642284376511828
 30
0.0
 10
27.83476561150789
 20
0.5596379701299057
 30
0.0
 10
28.08570919777398
 20
0.5246648163883718
 30
0.0
 10
28.32662390275879
 20
0.4688087145987738
 30
0.0
 10
28.55617424087635
 20
0.3879018337095446
 30
0.0
 10
28.77535510330489
 20
0.2849279085872678
 30
0.0
 10
28.9845550298077
 20
0.1602467426018292
 30
0.0
 10
29.18087703387648
 20
0.0095725601818963
 30
0.0
 10
29.36693887967893
 20
-0.1590056136968942
 30
0.0
 10
29.53501514043757
 20
-0.3468404410395068
 30
0.0
 10
29.68351581911202
 20
-0.5481374032040421
 30
0.0
 10
29.80778696848467
 20
-0.762560337603316
 30
0.0
 10
29.91186483458176
 20
-0.9881173058493905
 30
0.0
 10
29.99021240087028
 20
-1.227344636386985
 30
0.0
 10
30.04601702326866
 20
-1.478368435574807
 30
0.0
 10
30.08128346157618
 20
-1.741621229949021
 30
0.0
 10
30.08572883993804
 20
-1.921080317184784
 30
0.0
 10
30.08799857549855
 20
-2.012709114285911
 30
0.0
  0
SPLINE
  5
154
330
1F
100
AcDbEntity
  8
0
  6
Continuous
 62
     7
370
    25
100
AcDbSpline
210
0.0
220
0.0
230
1.0
 70
     8
 71
     3
 72
    15
 73
    11
 74
     0
 42
0.000000001
 43
0.00000001
 40
0.0
 40
0.0
 40
0.0
 40
0.0
 40
0.13480683277922
 40
0.2641990558543176
 40
0.3884618167279421
 40
0.5099420983643728
 40
0.630409610612771
 40
0.7506710345119786
 40
0.8734547255294228
 40
1.0
 40
1.0
 40
1.0
 40
1.0
 10
30.08799857549855
 20
-2.012709114285911
 30
0.0
 10
30.0849892526698
 20
-2.11425443310473
 30
0.0
 10
30.0790914785457
 20
-2.313266432758304
 30
0.0
 10
30.03759402247913
 20
-2.603579775922011
 30
0.0
 10
29.96659600591171
 20
-2.877751914970374
 30
0.0
 10
29.86407625038325
 20
-3.134441914940807
 30
0.0
 10
29.73692485715585
 20
-3.376500126055476
 30
0.0
 10
29.57902300695792
 20
-3.600959780855201
 30
0.0
 10
29.39292796229026
 20
-3.809164838884357
 30
0.0
 10
29.24956184755102
 20
-3.930723624103306
 30
0.0
 10
29.17679732015667
 20
-3.992419985012407
 30
0.0
  0
SPLINE
  5
155
330
1F
100
AcDbEntity
  8
0
  6
Continuous
 62
     7
370
    25
100
AcDbSpline
210
0.0
220
0.0
230
1.0
 70
     8
 71
     3
 72
    15
 73
    11
 74
     0
 42
0.000000001
 43
0.00000001
 40
0.0
 40
0.0
 40
0.0
 40
0.0
 40
0.1279910255623729
 40
0.2530983915017055
 40
0.3761840584327905
 40
0.4989363124701246
 40
0.6215258806257287
 40
0.7457068938016908
 40
0.8715753502968715
 40
1.0
 40
1.0
 40
1.0
 40
1.0
 10
29.17679732015667
 20
-3.992419985012407
 30
0.0
 10
29.11718928060033
 20
-4.037998886853117
 30
0.0
 10
28.99931618077954
 20
-4.128129790106766
 30
0.0
 10
28.8111650504427
 20
-4.243651032546042
 30
0.0
 10
28.61740643487586
 20
-4.342664261242191
 30
0.0
 10
28.41657818240939
 20
-4.42266577871398
 30
0.0
 10
28.20910443197784
 20
-4.4855936276279
 30
0.0
 10
27.9950136345929
 20
-4.529660965478503
 30
0.0
 10
27.77460913880148
 20
-4.557317030980274
 30
0.0
 10
27.62556128950191
 20
-4.56062245470789
 30
0.0
 10
27.55028823896009
 20
-4.562291779884202
 30
0.0
  0
LINE
  5
156
330
1F
100
AcDbEntity
  8
0
  6
Continuous
 62
     7
370
    25
100
AcDbLine
 10
35.2391053463
 20
0.376597109
 30
0.0
 11
35.6917378917
 21
0.376597109
 31
0.0
  0
LINE
  5
157
330
1F
100
AcDbEntity
  8
0
  6
Continuous
 62
     7
370
    25
100
AcDbLine
 10
35.6917378917
 20
0.376597109
 30
0.0
 11
35.6917378917
 21
-1.1430610107
 31
0.0
  0
LINE
  5
158
330
1F
100
AcDbEntity
  8
0
  6
Continuous
 62
     7
370
    25
100
AcDbLine
 10
35.6917378917
 20
-1.1430610107
 30
0.0
 11
35.1738075365
 21
-1.1430610107
 31
0.0
  0
SPLINE
  5
159
330
1F
100
AcDbEntity
  8
0
  6
Continuous
 62
     7
370
    25
100
AcDbSpline
210
0.0
220
0.0
230
1.0
 70
     8
 71
     3
 72
    23
 73
    19
 74
     0
 42
0.000000001
 43
0.00000001
 40
0.0
 40
0.0
 40
0.0
 40
0.0
 40
0.1055399964402594
 40
0.202086415463588
 40
0.2906848989424236
 40
0.3705526096211908
 40
0.4426702615663764
 40
0.507674927573876
 40
0.5655732034810461
 40
0.616454665748624
 40
0.6633313570051076
 40
0.7088620244966157
 40
0.753411800349628
 40
0.7985150107871086
 40
0.8450643214401192
 40
0.8938731190084059
 40
0.9447078060036517
 40
0.9999999999999999
 40
0.9999999999999999
 40
0.9999999999999999
 40
0.9999999999999999
 10
35.17380753650283
 20
-1.143061010653433
 30
0.0
 10
35.11048624527459
 20
-1.142347843713155
 30
0.0
 10
34.98923957862263
 20
-1.140982282263003
 30
0.0
 10
34.81487094729421
 20
-1.134648242220868
 30
0.0
 10
34.65650264534352
 20
-1.119386335597517
 30
0.0
 10
34.51345458583724
 20
-1.10010348697065
 30
0.0
 10
34.38500696393756
 20
-1.077838653524187
 30
0.0
 10
34.27230548711696
 20
-1.045931795402681
 30
0.0
 10
34.17361359763318
 20
-1.011742789224832
 30
0.0
 10
34.09010079807189
 20
-0.9692547232391604
 30
0.0
 10
34.01874938104158
 20
-0.9209365769345936
 30
0.0
 10
33.95714199925696
 20
-0.8660459616099505
 30
0.0
 10
33.90618386109858
 20
-0.8025170637281294
 30
0.0
 10
33.86424271417228
 20
-0.7320763246876615
 30
0.0
 10
33.831617061758
 20
-0.6541007134946791
 30
0.0
 10
33.80780283492079
 20
-0.5694462256783268
 30
0.0
 10
33.79449420374419
 20
-0.4771485377299456
 30
0.0
 10
33.7929630003945
 20
-0.4134505655061621
 30
0.0
 10
33.79216524216522
 20
-0.3802638685594159
 30
0.0
  0
SPLINE
  5
15A
330
1F
100
AcDbEntity
  8
0
  6
Continuous
 62
     7
370
    25
100
AcDbSpline
210
0.0
220
0.0
230
1.0
 70
     8
 71
     3
 72
    23
 73
    19
 74
     0
 42
0.000000001
 43
0.00000001
 40
0.0
 40
0.0
 40
0.0
 40
0.0
 40
0.0637689599577397
 40
0.125262304760375
 40
0.1854135826663904
 40
0.2468067624960843
 40
0.3094223888496966
 40
0.372532682217009
 40
0.4377332507368583
 40
0.505749516742635
 40
0.5440132631112707
 40
0.5883695992066301
 40
0.6403890193945126
 40
0.697897400587709
 40
0.7632716192951006
 40
0.8349786038393139
 40
0.9138736558434364
 40
1.0
 40
1.0
 40
1.0
 40
1.0
 10
33.79216524216522
 20
-0.3802638685594159
 30
0.0
 10
33.79367347718969
 20
-0.3410015833209273
 30
0.0
 10
33.79663612540305
 20
-0.2638780996951698
 30
0.0
 10
33.82603479967779
 20
-0.1528473260941595
 30
0.0
 10
33.87283113882459
 20
-0.0500807485664189
 30
0.0
 10
33.93697610256351
 20
0.0439573080329972
 30
0.0
 10
34.01775834500987
 20
0.1263975600726261
 30
0.0
 10
34.11046234173285
 20
0.1990692987902596
 30
0.0
 10
34.21708886873488
 20
0.2565326721576989
 30
0.0
 10
34.31581700897324
 20
0.2944349013940187
 30
0.0
 10
34.40563653971512
 20
0.3171121961474331
 30
0.0
 10
34.48669583244975
 20
0.33401111564469
 30
0.0
 10
34.58056298147496
 20
0.3459878649379069
 30
0.0
 10
34.68730885135693
 20
0.3586913394519798
 30
0.0
 10
34.80666134324063
 20
0.3669288996422008
 30
0.0
 10
34.93927099959256
 20
0.3729406766363333
 30
0.0
 10
35.0847569664672
 20
0.3754003899437267
 30
0.0
 10
35.18617450304641
 20
0.3761867169479124
 30
0.0
 10
35.23910534633189
 20
0.3765971090046866
 30
0.0
  0
SPLINE
  5
15B
330
1F
100
AcDbEntity
  8
0
  6
Continuous
 62
     7
370
    25
100
AcDbSpline
210
0.0
220
0.0
230
1.0
 70
     8
 71
     3
 72
    15
 73
    11
 74
     0
 42
0.000000001
 43
0.00000001
 40
0.0
 40
0.0
 40
0.0
 40
0.0
 40
0.0888707311225361
 40
0.1863547159714914
 40
0.2940776543961754
 40
0.412236527957611
 40
0.5417781444209644
 40
0.682702606631566
 40
0.8350963526041704
 40
1.0
 40
1.0
 40
1.0
 40
1.0
 10
-7.823316194800587
 20
-4.053265671444031
 30
0.0
 10
-7.853277850912513
 20
-3.99846543589393
 30
0.0
 10
-7.916105013964373
 20
-3.883553786106455
 30
0.0
 10
-7.98880871553697
 20
-3.68964466177346
 30
0.0
 10
-8.050006639336786
 20
-3.470947218278757
 30
0.0
 10
-8.10267879746625
 20
-3.226780848412599
 30
0.0
 10
-8.138703340538951
 20
-2.956182529892795
 30
0.0
 10
-8.169727633089675
 20
-2.66086815007014
 30
0.0
 10
-8.18469142031222
 20
-2.339350625224198
 30
0.0
 10
-8.187125361827928
 20
-2.116602124141947
 30
0.0
 10
-8.18839031339033
 20
-2.000836785226082
 30
0.0
  0
SPLINE
  5
15C
330
1F
100
AcDbEntity
  8
0
  6
Continuous
 62
     7
370
    25
100
AcDbSpline
210
0.0
220
0.0
230
1.0
 70
     8
 71
     3
 72
    23
 73
    19
 74
     0
 42
0.000000001
 43
0.00000001
 40
0.0
 40
0.0
 40
0.0
 40
0.0
 40
0.1121147956622138
 40
0.2158018426882336
 40
0.3102026923156552
 40
0.3959929252987144
 40
0.4734102307422358
 40
0.5427784203605526
 40
0.6045480222829334
 40
0.6593572656120958
 40
0.7087643617117441
 40
0.7553555059484814
 40
0.7986869938006723
 40
0.8400168391480738
 40
0.8802034470065461
 40
0.9197333482458336
 40
0.9590486059010159
 40
1.0
 40
1.0
 40
1.0
 40
1.0
 10
-8.18839031339033
 20
-2.000836785226082
 30
0.0
 10
-8.187901689936234
 20
-1.88406654733801
 30
0.0
 10
-8.186961173199332
 20
-1.659303773089094
 30
0.0
 10
-8.169705414512668
 20
-1.336630370136035
 30
0.0
 10
-8.145675452053577
 20
-1.041921768946763
 30
0.0
 10
-8.110526554017655
 20
-0.7758359340257592
 30
0.0
 10
-8.065301108076348
 20
-0.5377269253566385
 30
0.0
 10
-8.00956057525203
 20
-0.3276103084825473
 30
0.0
 10
-7.943846633481707
 20
-0.1450719839458886
 30
0.0
 10
-7.865917729945382
 20
0.0097060324392188
 30
0.0
 10
-7.779606627346806
 20
0.1412461143530822
 30
0.0
 10
-7.687984757195284
 20
0.2540973014495176
 30
0.0
 10
-7.590664704873293
 20
0.3504467978216619
 30
0.0
 10
-7.487809221088265
 20
0.4306571835050512
 30
0.0
 10
-7.377037679880335
 20
0.4919439340260356
 30
0.0
 10
-7.260465961933639
 20
0.535217449931803
 30
0.0
 10
-7.13785508643768
 20
0.5613964758321497
 30
0.0
 10
-7.054217111270022
 20
0.5648118684005943
 30
0.0
 10
-7.011545695334775
 20
0.5665543739619512
 30
0.0
  0
SPLINE
  5
15D
330
1F
100
AcDbEntity
  8
0
  6
Continuous
 62
     7
370
    25
100
AcDbSpline
210
0.0
220
0.0
230
1.0
 70
     8
 71
     3
 72
    27
 73
    23
 74
     0
 42
0.000000001
 43
0.00000001
 40
0.0
 40
0.0
 40
0.0
 40
0.0
 40
0.0538337008959149
 40
0.1055426304091386
 40
0.1580541720958379
 40
0.2119873357804047
 40
0.2402068903290463
 40
0.2697935103595447
 40
0.3013430987966756
 40
0.3346080613711935
 40
0.3702844416648601
 40
0.4080888380149465
 40
0.4486813458099823
 40
0.4920692965602022
 40
0.5386641566662654
 40
0.5903710538753824
 40
0.64638778415472
 40
0.7071953757631239
 40
0.7729467746818399
 40
0.8436426012467373
 40
0.9193083570571429
 40
1.0
 40
1.0
 40
1.0
 40
1.0
 10
-7.011545695334776
 20
0.5665543739619513
 30
0.0
 10
-6.953360973184083
 20
0.5637965338117414
 30
0.0
 10
-6.839288031454094
 20
0.5583897031674231
 30
0.0
 10
-6.673762757893184
 20
0.512493339275009
 30
0.0
 10
-6.517682759794457
 20
0.4416039306007252
 30
0.0
 10
-6.398956873959989
 20
0.3562996108701009
 30
0.0
 10
-6.310091729216748
 20
0.2745251905660075
 30
0.0
 10
-6.248001015368307
 20
0.2005219996092238
 30
0.0
 10
-6.188124308008307
 20
0.1179397719735745
 30
0.0
 10
-6.13523818478795
 20
0.023051996288671
 30
0.0
 10
-6.085299879260903
 20
-0.0807318974706842
 30
0.0
 10
-6.036495102163554
 20
-0.1938830260644093
 30
0.0
 10
-5.996488000408933
 20
-0.3191806259371091
 30
0.0
 10
-5.957182083572854
 20
-0.4544908628847572
 30
0.0
 10
-5.922746432877848
 20
-0.6035547054619532
 30
0.0
 10
-5.893896906829903
 20
-0.7675905861187979
 30
0.0
 10
-5.868122391199289
 20
-0.947665245258433
 30
0.0
 10
-5.850144359162565
 20
-1.143896632016727
 30
0.0
 10
-5.833383438159599
 20
-1.356079439994693
 30
0.0
 10
-5.821368416258106
 20
-1.584686330127363
 30
0.0
 10
-5.816345237183879
 20
-1.829655629176907
 30
0.0
 10
-5.814748521400114
 20
-1.998362350043439
 30
0.0
 10
-5.813924501424519
 20
-2.085427129777365
 30
0.0
  0
SPLINE
  5
15E
330
1F
100
AcDbEntity
  8
0
  6
Continuous
 62
     7
370
    25
100
AcDbSpline
210
0.0
220
0.0
230
1.0
 70
     8
 71
     3
 72
    23
 73
    19
 74
     0
 42
0.000000001
 43
0.00000001
 40
0.0
 40
0.0
 40
0.0
 40
0.0
 40
0.1107342804863383
 40
0.2123411929916479
 40
0.3055021255634832
 40
0.3898348410859879
 40
0.4666904579461286
 40
0.5352618542933009
 40
0.5967629138889612
 40
0.6510657189836182
 40
0.7010355511102171
 40
0.7478602709077569
 40
0.7918333971357292
 40
0.8342840069087868
 40
0.8753338897746166
 40
0.9160347492783124
 40
0.9576522807232375
 40
1.0
 40
1.0
 40
1.0
 40
1.0
 10
-5.81392450142452
 20
-2.085427129777365
 30
0.0
 10
-5.815280738317877
 20
-2.198223760860197
 30
0.0
 10
-5.817881423116203
 20
-2.414519664029245
 30
0.0
 10
-5.831502594626963
 20
-2.72556070419631
 30
0.0
 10
-5.858805102470479
 20
-3.008633096532866
 30
0.0
 10
-5.892763909746629
 20
-3.265655327424808
 30
0.0
 10
-5.940460441276372
 20
-3.494960538880501
 30
0.0
 10
-5.995338388274796
 20
-3.698718170919226
 30
0.0
 10
-6.063107773283026
 20
-3.874330808411285
 30
0.0
 10
-6.141428355662926
 20
-4.024338205153317
 30
0.0
 10
-6.228171929600641
 20
-4.151949185884146
 30
0.0
 10
-6.322335894963754
 20
-4.260419094248251
 30
0.0
 10
-6.420714306140685
 20
-4.354348917340305
 30
0.0
 10
-6.526377873186756
 20
-4.430646955158002
 30
0.0
 10
-6.639074514565813
 20
-4.489118254251843
 30
0.0
 10
-6.757863420539806
 20
-4.531175937587349
 30
0.0
 10
-6.882820079778183
 20
-4.556921197071835
 30
0.0
 10
-6.96838911187873
 20
-4.560491236889342
 30
0.0
 10
-7.011545695334775
 20
-4.562291779884202
 30
0.0
  0
SPLINE
  5
15F
330
1F
100
AcDbEntity
  8
0
  6
Continuous
 62
     7
370
    25
100
AcDbSpline
210
0.0
220
0.0
230
1.0
 70
     8
 71
     3
 72
    15
 73
    11
 74
     0
 42
0.000000001
 43
0.00000001
 40
0.0
 40
0.0
 40
0.0
 40
0.0
 40
0.1240354330026179
 40
0.2428459548115295
 40
0.3603416824496164
 40
0.4790424316556559
 40
0.5993341100427878
 40
0.7254884757708253
 40
0.8585494285274627
 40
1.0
 40
1.0
 40
1.0
 40
1.0
 10
-7.011545695334775
 20
-4.562291779884202
 30
0.0
 10
-7.05322128162638
 20
-4.561059714591718
 30
0.0
 10
-7.13481689749448
 20
-4.558647483948424
 30
0.0
 10
-7.253801579413619
 20
-4.533886260641533
 30
0.0
 10
-7.366321949264278
 20
-4.493629889583536
 30
0.0
 10
-7.472038272948379
 20
-4.436684426502957
 30
0.0
 10
-7.571328683102123
 20
-4.364269557308077
 30
0.0
 10
-7.663707909339588
 20
-4.276067060373544
 30
0.0
 10
-7.748479246057279
 20
-4.1711977622064
 30
0.0
 10
-7.79786741166292
 20
-4.093369233296577
 30
0.0
 10
-7.823316194800587
 20
-4.053265671444031
 30
0.0
  0
LINE
  5
160
330
1F
100
AcDbEntity
  8
0
  6
Continuous
 62
     7
370
    25
100
AcDbLine
 10
-59.3596126024
 20
0.376597109
 30
0.0
 11
-58.906980057
 21
0.376597109
 31
0.0
  0
LINE
  5
161
330
1F
100
AcDbEntity
  8
0
  6
Continuous
 62
     7
370
    25
100
AcDbLine
 10
-58.906980057
 20
0.376597109
 30
0.0
 11
-58.906980057
 21
-1.1430610107
 31
0.0
  0
LINE
  5
162
330
1F
100
AcDbEntity
  8
0
  6
Continuous
 62
     7
370
    25
100
AcDbLine
 10
-58.906980057
 20
-1.1430610107
 30
0.0
 11
-59.4249104122
 21
-1.1430610107
 31
0.0
  0
SPLINE
  5
163
330
1F
100
AcDbEntity
  8
0
  6
Continuous
 62
     7
370
    25
100
AcDbSpline
210
0.0
220
0.0
230
1.0
 70
     8
 71
     3
 72
    23
 73
    19
 74
     0
 42
0.000000001
 43
0.00000001
 40
0.0
 40
0.0
 40
0.0
 40
0.0
 40
0.1055399964402594
 40
0.202086415463588
 40
0.2906848989424236
 40
0.3705526096211908
 40
0.4426702615663764
 40
0.507674927573876
 40
0.5655732034810461
 40
0.616454665748624
 40
0.6633313570051076
 40
0.7088620244966157
 40
0.753411800349628
 40
0.7985150107871086
 40
0.8450643214401192
 40
0.8938731190084059
 40
0.9447078060036517
 40
0.9999999999999999
 40
0.9999999999999999
 40
0.9999999999999999
 40
0.9999999999999999
 10
-59.42491041221509
 20
-1.143061010653433
 30
0.0
 10
-59.48823170344333
 20
-1.142347843713155
 30
0.0
 10
-59.60947837009527
 20
-1.140982282263003
 30
0.0
 10
-59.78384700142373
 20
-1.134648242220868
 30
0.0
 10
-59.94221530337442
 20
-1.119386335597517
 30
0.0
 10
-60.0852633628807
 20
-1.10010348697065
 30
0.0
 10
-60.21371098478038
 20
-1.077838653524187
 30
0.0
 10
-60.32641246160095
 20
-1.045931795402681
 30
0.0
 10
-60.42510435108476
 20
-1.011742789224832
 30
0.0
 10
-60.50861715064605
 20
-0.9692547232391604
 30
0.0
 10
-60.57996856767633
 20
-0.9209365769345936
 30
0.0
 10
-60.64157594946098
 20
-0.8660459616099505
 30
0.0
 10
-60.69253408761934
 20
-0.8025170637281294
 30
0.0
 10
-60.73447523454564
 20
-0.7320763246876615
 30
0.0
 10
-60.76710088695992
 20
-0.6541007134946791
 30
0.0
 10
-60.79091511379711
 20
-0.5694462256783268
 30
0.0
 10
-60.80422374497375
 20
-0.4771485377299456
 30
0.0
 10
-60.80575494832343
 20
-0.4134505655061621
 30
0.0
 10
-60.80655270655271
 20
-0.3802638685594159
 30
0.0
  0
SPLINE
  5
164
330
1F
100
AcDbEntity
  8
0
  6
Continuous
 62
     7
370
    25
100
AcDbSpline
210
0.0
220
0.0
230
1.0
 70
     8
 71
     3
 72
    23
 73
    19
 74
     0
 42
0.000000001
 43
0.00000001
 40
0.0
 40
0.0
 40
0.0
 40
0.0
 40
0.0637689599577397
 40
0.125262304760375
 40
0.1854135826663904
 40
0.2468067624960843
 40
0.3094223888496966
 40
0.372532682217009
 40
0.4377332507368583
 40
0.505749516742635
 40
0.5440132631112707
 40
0.5883695992066301
 40
0.6403890193945126
 40
0.697897400587709
 40
0.7632716192951006
 40
0.8349786038393139
 40
0.9138736558434364
 40
1.0
 40
1.0
 40
1.0
 40
1.0
 10
-60.80655270655271
 20
-0.3802638685594159
 30
0.0
 10
-60.80504447152823
 20
-0.3410015833209273
 30
0.0
 10
-60.80208182331489
 20
-0.2638780996951698
 30
0.0
 10
-60.77268314904013
 20
-0.1528473260941595
 30
0.0
 10
-60.72588680989336
 20
-0.0500807485664189
 30
0.0
 10
-60.66174184615439
 20
0.0439573080329972
 30
0.0
 10
-60.58095960370806
 20
0.1263975600726261
 30
0.0
 10
-60.48825560698509
 20
0.1990692987902596
 30
0.0
 10
-60.38162907998305
 20
0.2565326721576989
 30
0.0
 10
-60.2829009397447
 20
0.2944349013940187
 30
0.0
 10
-60.19308140900282
 20
0.3171121961474331
 30
0.0
 10
-60.11202211626818
 20
0.33401111564469
 30
0.0
 10
-60.01815496724296
 20
0.3459878649379069
 30
0.0
 10
-59.91140909736102
 20
0.3586913394519798
 30
0.0
 10
-59.79205660547727
 20
0.3669288996422008
 30
0.0
 10
-59.65944694912537
 20
0.3729406766363333
 30
0.0
 10
-59.51396098225075
 20
0.3754003899437267
 30
0.0
 10
-59.41254344567152
 20
0.3761867169479124
 30
0.0
 10
-59.35961260238604
 20
0.3765971090046866
 30
0.0
  0
ENDSEC
  0
SECTION
  2
OBJECTS
  0
DICTIONARY
  5
C
330
0
100
AcDbDictionary
281
     1
  3
ACAD_GROUP
350
D
  3
ACAD_LAYOUT
350
1A
  3
ACAD_MLINESTYLE
350
17
  3
ACAD_PLOTSETTINGS
350
19
  3
ACAD_PLOTSTYLENAME
350
E
  3
ACAD_SCALELIST
350
47
  0
DICTIONARY
  5
D
102
{ACAD_REACTORS
330
C
102
}
330
C
100
AcDbDictionary
281
     1
  0
DICTIONARY
  5
1A
102
{ACAD_REACTORS
330
C
102
}
330
C
100
AcDbDictionary
281
     1
  3
Layout1
350
1E
  3
Layout2
350
26
  3
Model
350
22
  0
DICTIONARY
  5
17
102
{ACAD_REACTORS
330
C
102
}
330
C
100
AcDbDictionary
281
     1
  3
Standard
350
18
  0
DICTIONARY
  5
19
102
{ACAD_REACTORS
330
C
102
}
330
C
100
AcDbDictionary
281
     1
  0
ACDBDICTIONARYWDFLT
  5
E
102
{ACAD_REACTORS
330
C
102
}
330
C
100
AcDbDictionary
281
     1
  3
Normal
350
F
100
AcDbDictionaryWithDefault
340
F
  0
DICTIONARY
  5
47
102
{ACAD_REACTORS
330
C
102
}
330
C
100
AcDbDictionary
281
     1
  3
A0
350
48
  3
A1
350
49
  3
A2
350
4A
  3
A3
350
4B
  3
A4
350
4C
  3
A5
350
4D
  3
A6
350
4E
  3
A7
350
4F
  3
A8
350
50
  3
A9
350
51
  3
B0
350
52
  3
B1
350
53
  3
B2
350
54
  3
B3
350
55
  3
B4
350
56
  3
B5
350
57
  3
B6
350
58
  3
B7
350
59
  3
B8
350
5A
  3
B9
350
5B
  3
C0
350
5C
  3
C1
350
5D
  3
C2
350
5E
  3
C3
350
5F
  3
C4
350
60
  3
C5
350
61
  3
C6
350
62
  3
C7
350
63
  3
C8
350
64
  3
C9
350
65
  3
D0
350
66
  3
D1
350
67
  3
D2
350
68
  0
LAYOUT
  5
1E
102
{ACAD_REACTORS
330
1A
102
}
330
1A
100
AcDbPlotSettings
  1

  2
none_device
  4

  6

 40
0.0
 41
0.0
 42
0.0
 43
0.0
 44
0.0
 45
0.0
 46
0.0
 47
0.0
 48
0.0
 49
0.0
140
0.0
141
0.0
142
1.0
143
1.0
 70
   688
 72
     1
 73
     0
 74
     5
  7

 75
    16
147
1.0
148
0.0
149
0.0
100
AcDbLayout
  1
Layout1
 70
     1
 71
     1
 10
0.0
 20
0.0
 11
420.0
 21
297.0
 12
0.0
 22
0.0
 32
0.0
 14
1.0000000000E+20
 24
1.0000000000E+20
 34
1.0000000000E+20
 15
-1.0000000000E+20
 25
-1.0000000000E+20
 35
-1.0000000000E+20
146
0.0
 13
0.0
 23
0.0
 33
0.0
 16
1.0
 26
0.0
 36
0.0
 17
0.0
 27
1.0
 37
0.0
 76
     0
330
1B
  0
LAYOUT
  5
26
102
{ACAD_REACTORS
330
1A
102
}
330
1A
100
AcDbPlotSettings
  1

  2
none_device
  4

  6

 40
0.0
 41
0.0
 42
0.0
 43
0.0
 44
0.0
 45
0.0
 46
0.0
 47
0.0
 48
0.0
 49
0.0
140
0.0
141
0.0
142
1.0
143
1.0
 70
   688
 72
     1
 73
     0
 74
     5
  7

 75
    16
147
1.0
148
0.0
149
0.0
100
AcDbLayout
  1
Layout2
 70
     1
 71
     2
 10
0.0
 20
0.0
 11
0.0
 21
0.0
 12
0.0
 22
0.0
 32
0.0
 14
0.0
 24
0.0
 34
0.0
 15
0.0
 25
0.0
 35
0.0
146
0.0
 13
0.0
 23
0.0
 33
0.0
 16
1.0
 26
0.0
 36
0.0
 17
0.0
 27
1.0
 37
0.0
 76
     0
330
23
  0
LAYOUT
  5
22
102
{ACAD_REACTORS
330
1A
102
}
330
1A
100
AcDbPlotSettings
  1

  2
none_device
  4
ANSI_A_(11.00_x_8.50_Inches)
  6

 40
6.35
 41
19.05
 42
6.35000508
 43
19.05000254
 44
279.4
 45
215.9
 46
149.1479630049
 47
88.7399258133
 48
0.0
 49
0.0
140
0.0
141
0.0
142
0.0680625
143
1.0
 70
  1696
 72
     0
 73
     0
 74
     0
  7

 75
     0
147
0.0179189148
148
-1300.4909072572
149
0.0
100
AcDbLayout
  1
Model
 70
     1
 71
     0
 10
0.0
 20
0.0
 11
420.0
 21
297.0
 12
0.0
 22
0.0
 32
0.0
 14
-89.1381766382
 24
-17.4074074074
 34
0.0
 15
70.8618233618
 25
17.5925925926
 35
0.0
146
0.0
 13
0.0
 23
0.0
 33
0.0
 16
1.0
 26
0.0
 36
0.0
 17
0.0
 27
1.0
 37
0.0
 76
     0
330
1F
331
29
  0
MLINESTYLE
  5
18
102
{ACAD_REACTORS
330
17
102
}
330
17
100
AcDbMlineStyle
  2
Standard
 70
     0
  3

 62
   256
 51
90.0
 52
90.0
 71
     2
 49
0.5
 62
   256
  6
BYLAYER
 49
-0.5
 62
   256
  6
BYLAYER
  0
ACDBPLACEHOLDER
  5
F
102
{ACAD_REACTORS
330
E
102
}
330
E
  0
SCALE
  5
48
102
{ACAD_REACTORS
330
47
102
}
330
47
100
AcDbScale
 70
     0
300
1:1
140
1.0
141
1.0
290
     1
  0
SCALE
  5
49
102
{ACAD_REACTORS
330
47
102
}
330
47
100
AcDbScale
 70
     0
300
1:2
140
1.0
141
2.0
290
     0
  0
SCALE
  5
4A
102
{ACAD_REACTORS
330
47
102
}
330
47
100
AcDbScale
 70
     0
300
1:4
140
1.0
141
4.0
290
     0
  0
SCALE
  5
4B
102
{ACAD_REACTORS
330
47
102
}
330
47
100
AcDbScale
 70
     0
300
1:5
140
1.0
141
5.0
290
     0
  0
SCALE
  5
4C
102
{ACAD_REACTORS
330
47
102
}
330
47
100
AcDbScale
 70
     0
300
1:8
140
1.0
141
8.0
290
     0
  0
SCALE
  5
4D
102
{ACAD_REACTORS
330
47
102
}
330
47
100
AcDbScale
 70
     0
300
1:10
140
1.0
141
10.0
290
     0
  0
SCALE
  5
4E
102
{ACAD_REACTORS
330
47
102
}
330
47
100
AcDbScale
 70
     0
300
1:16
140
1.0
141
16.0
290
     0
  0
SCALE
  5
4F
102
{ACAD_REACTORS
330
47
102
}
330
47
100
AcDbScale
 70
     0
300
1:20
140
1.0
141
20.0
290
     0
  0
SCALE
  5
50
102
{ACAD_REACTORS
330
47
102
}
330
47
100
AcDbScale
 70
     0
300
1:30
140
1.0
141
30.0
290
     0
  0
SCALE
  5
51
102
{ACAD_REACTORS
330
47
102
}
330
47
100
AcDbScale
 70
     0
300
1:40
140
1.0
141
40.0
290
     0
  0
SCALE
  5
52
102
{ACAD_REACTORS
330
47
102
}
330
47
100
AcDbScale
 70
     0
300
1:50
140
1.0
141
50.0
290
     0
  0
SCALE
  5
53
102
{ACAD_REACTORS
330
47
102
}
330
47
100
AcDbScale
 70
     0
300
1:100
140
1.0
141
100.0
290
     0
  0
SCALE
  5
54
102
{ACAD_REACTORS
330
47
102
}
330
47
100
AcDbScale
 70
     0
300
2:1
140
2.0
141
1.0
290
     0
  0
SCALE
  5
55
102
{ACAD_REACTORS
330
47
102
}
330
47
100
AcDbScale
 70
     0
300
4:1
140
4.0
141
1.0
290
     0
  0
SCALE
  5
56
102
{ACAD_REACTORS
330
47
102
}
330
47
100
AcDbScale
 70
     0
300
8:1
140
8.0
141
1.0
290
     0
  0
SCALE
  5
57
102
{ACAD_REACTORS
330
47
102
}
330
47
100
AcDbScale
 70
     0
300
10:1
140
10.0
141
1.0
290
     0
  0
SCALE
  5
58
102
{ACAD_REACTORS
330
47
102
}
330
47
100
AcDbScale
 70
     0
300
100:1
140
100.0
141
1.0
290
     0
  0
SCALE
  5
59
102
{ACAD_REACTORS
330
47
102
}
330
47
100
AcDbScale
 70
     0
300
1/128" = 1'-0"
140
0.0078125
141
12.0
290
     0
  0
SCALE
  5
5A
102
{ACAD_REACTORS
330
47
102
}
330
47
100
AcDbScale
 70
     0
300
1/64" = 1'-0"
140
0.015625
141
12.0
290
     0
  0
SCALE
  5
5B
102
{ACAD_REACTORS
330
47
102
}
330
47
100
AcDbScale
 70
     0
300
1/32" = 1'-0"
140
0.03125
141
12.0
290
     0
  0
SCALE
  5
5C
102
{ACAD_REACTORS
330
47
102
}
330
47
100
AcDbScale
 70
     0
300
1/16" = 1'-0"
140
0.0625
141
12.0
290
     0
  0
SCALE
  5
5D
102
{ACAD_REACTORS
330
47
102
}
330
47
100
AcDbScale
 70
     0
300
3/32" = 1'-0"
140
0.09375
141
12.0
290
     0
  0
SCALE
  5
5E
102
{ACAD_REACTORS
330
47
102
}
330
47
100
AcDbScale
 70
     0
300
1/8" = 1'-0"
140
0.125
141
12.0
290
     0
  0
SCALE
  5
5F
102
{ACAD_REACTORS
330
47
102
}
330
47
100
AcDbScale
 70
     0
300
3/16" = 1'-0"
140
0.1875
141
12.0
290
     0
  0
SCALE
  5
60
102
{ACAD_REACTORS
330
47
102
}
330
47
100
AcDbScale
 70
     0
300
1/4" = 1'-0"
140
0.25
141
12.0
290
     0
  0
SCALE
  5
61
102
{ACAD_REACTORS
330
47
102
}
330
47
100
AcDbScale
 70
     0
300
3/8" = 1'-0"
140
0.375
141
12.0
290
     0
  0
SCALE
  5
62
102
{ACAD_REACTORS
330
47
102
}
330
47
100
AcDbScale
 70
     0
300
1/2" = 1'-0"
140
0.5
141
12.0
290
     0
  0
SCALE
  5
63
102
{ACAD_REACTORS
330
47
102
}
330
47
100
AcDbScale
 70
     0
300
3/4" = 1'-0"
140
0.75
141
12.0
290
     0
  0
SCALE
  5
64
102
{ACAD_REACTORS
330
47
102
}
330
47
100
AcDbScale
 70
     0
300
1" = 1'-0"
140
1.0
141
12.0
290
     0
  0
SCALE
  5
65
102
{ACAD_REACTORS
330
47
102
}
330
47
100
AcDbScale
 70
     0
300
1-1/2" = 1'-0"
140
1.5
141
12.0
290
     0
  0
SCALE
  5
66
102
{ACAD_REACTORS
330
47
102
}
330
47
100
AcDbScale
 70
     0
300
3" = 1'-0"
140
3.0
141
12.0
290
     0
  0
SCALE
  5
67
102
{ACAD_REACTORS
330
47
102
}
330
47
100
AcDbScale
 70
     0
300
6" = 1'-0"
140
6.0
141
12.0
290
     0
  0
SCALE
  5
68
102
{ACAD_REACTORS
330
47
102
}
330
47
100
AcDbScale
 70
     0
300
1'-0" = 1'-0"
140
12.0
141
12.0
290
     0
  0
ENDSEC
  0
EOF
