  0
SECTION
  2
HEADER
  9
$ACADVER
  1
AC1015
  9
$ACADMAINTVER
 70
     6
  9
$DWGCODEPAGE
  3
ANSI_1252
  9
$INSBASE
 10
0.0
 20
0.0
 30
0.0
  9
$EXTMIN
 10
-89.1381766382
 20
-17.4074074074
 30
0.0
  9
$EXTMAX
 10
70.8618233618
 20
17.5925925926
 30
0.0
  9
$LIMMIN
 10
0.0
 20
0.0
  9
$LIMMAX
 10
420.0
 20
297.0
  9
$ORTHOMODE
 70
     0
  9
$REGENMODE
 70
     1
  9
$FILLMODE
 70
     1
  9
$QTEXTMODE
 70
     0
  9
$MIRRTEXT
 70
     1
  9
$LTSCALE
 40
1.0
  9
$ATTMODE
 70
     1
  9
$TEXTSIZE
 40
3.5
  9
$TRACEWID
 40
1.0
  9
$TEXTSTYLE
  7
Standard
  9
$CLAYER
  8
0
  9
$CELTYPE
  6
ByLayer
  9
$CECOLOR
 62
   256
  9
$CELTSCALE
 40
1.0
  9
$DISPSILH
 70
     0
  9
$DIMSCALE
 40
1.0
  9
$DIMASZ
 40
3.302
  9
$DIMEXO
 40
1.0
  9
$DIMDLI
 40
3.75
  9
$DIMRND
 40
0.0
  9
$DIMDLE
 40
0.0
  9
$DIMEXE
 40
1.0
  9
$DIMTP
 40
0.0
  9
$DIMTM
 40
0.0
  9
$DIMTXT
 40
3.5
  9
$DIMCEN
 40
2.5
  9
$DIMTSZ
 40
0.0
  9
$DIMTOL
 70
     0
  9
$DIMLIM
 70
     0
  9
$DIMTIH
 70
     1
  9
$DIMTOH
 70
     1
  9
$DIMSE1
 70
     0
  9
$DIMSE2
 70
     0
  9
$DIMTAD
 70
     1
  9
$DIMZIN
 70
     1
  9
$DIMBLK
  1

  9
$DIMASO
 70
     1
  9
$DIMSHO
 70
     1
  9
$DIMPOST
  1

  9
$DIMAPOST
  1

  9
$DIMALT
 70
     0
  9
$DIMALTD
 70
     3
  9
$DIMALTF
 40
0.0393700787
  9
$DIMLFAC
 40
1.0
  9
$DIMTOFL
 70
     1
  9
$DIMTVP
 40
0.0
  9
$DIMTIX
 70
     0
  9
$DIMSOXD
 70
     0
  9
$DIMSAH
 70
     0
  9
$DIMBLK1
  1

  9
$DIMBLK2
  1

  9
$DIMSTYLE
  2
ISO-25
  9
$DIMCLRD
 70
     0
  9
$DIMCLRE
 70
     0
  9
$DIMCLRT
 70
     0
  9
$DIMTFAC
 40
1.0
  9
$DIMGAP
 40
1.524
  9
$DIMJUST
 70
     0
  9
$DIMSD1
 70
     0
  9
$DIMSD2
 70
     0
  9
$DIMTOLJ
 70
     0
  9
$DIMTZIN
 70
     1
  9
$DIMALTZ
 70
     0
  9
$DIMALTTZ
 70
     0
  9
$DIMUPT
 70
     0
  9
$DIMDEC
 70
     2
  9
$DIMTDEC
 70
     2
  9
$DIMALTU
 70
     2
  9
$DIMALTTD
 70
     3
  9
$DIMTXSTY
  7
Standard
  9
$DIMAUNIT
 70
     0
  9
$DIMADEC
 70
     2
  9
$DIMALTRND
 40
0.0
  9
$DIMAZIN
 70
     0
  9
$DIMDSEP
 70
    44
  9
$DIMATFIT
 70
     3
  9
$DIMFRAC
 70
     0
  9
$DIMLDRBLK
  1

  9
$DIMLUNIT
 70
     2
  9
$DIMLWD
 70
    -2
  9
$DIMLWE
 70
    -2
  9
$DIMTMOVE
 70
     0
  9
$LUNITS
 70
     2
  9
$LUPREC
 70
     2
  9
$SKETCHINC
 40
1.0
  9
$FILLETRAD
 40
10.0
  9
$AUNITS
 70
     0
  9
$AUPREC
 70
     2
  9
$MENU
  1
.
  9
$ELEVATION
 40
0.0
  9
$PELEVATION
 40
0.0
  9
$THICKNESS
 40
0.0
  9
$LIMCHECK
 70
     0
  9
$CHAMFERA
 40
0.0
  9
$CHAMFERB
 40
0.0
  9
$CHAMFERC
 40
0.0
  9
$CHAMFERD
 40
0.0
  9
$SKPOLY
 70
     0
  9
$TDCREATE
 40
2459614.651715822
  9
$TDUCREATE
 40
2459614.610049155
  9
$TDUPDATE
 40
2459614.651755104
  9
$TDUUPDATE
 40
2459614.610088437
  9
$TDINDWG
 40
0.0000000116
  9
$TDUSRTIMER
 40
0.0000000116
  9
$USRTIMER
 70
     1
  9
$ANGBASE
 50
0.0
  9
$ANGDIR
 70
     0
  9
$PDMODE
 70
     0
  9
$PDSIZE
 40
-1.0
  9
$PLINEWID
 40
0.0
  9
$SPLFRAME
 70
     0
  9
$SPLINETYPE
 70
     6
  9
$SPLINESEGS
 70
     8
  9
$HANDSEED
  5
178
  9
$SURFTAB1
 70
     6
  9
$SURFTAB2
 70
     6
  9
$SURFTYPE
 70
     6
  9
$SURFU
 70
     6
  9
$SURFV
 70
     6
  9
$UCSBASE
  2

  9
$UCSNAME
  2

  9
$UCSORG
 10
0.0
 20
0.0
 30
0.0
  9
$UCSXDIR
 10
1.0
 20
0.0
 30
0.0
  9
$UCSYDIR
 10
0.0
 20
1.0
 30
0.0
  9
$UCSORTHOREF
  2

  9
$UCSORTHOVIEW
 70
     0
  9
$UCSORGTOP
 10
0.0
 20
0.0
 30
0.0
  9
$UCSORGBOTTOM
 10
0.0
 20
0.0
 30
0.0
  9
$UCSORGLEFT
 10
0.0
 20
0.0
 30
0.0
  9
$UCSORGRIGHT
 10
0.0
 20
0.0
 30
0.0
  9
$UCSORGFRONT
 10
0.0
 20
0.0
 30
0.0
  9
$UCSORGBACK
 10
0.0
 20
0.0
 30
0.0
  9
$PUCSBASE
  2

  9
$PUCSNAME
  2

  9
$PUCSORG
 10
0.0
 20
0.0
 30
0.0
  9
$PUCSXDIR
 10
1.0
 20
0.0
 30
0.0
  9
$PUCSYDIR
 10
0.0
 20
1.0
 30
0.0
  9
$PUCSORTHOREF
  2

  9
$PUCSORTHOVIEW
 70
     0
  9
$PUCSORGTOP
 10
0.0
 20
0.0
 30
0.0
  9
$PUCSORGBOTTOM
 10
0.0
 20
0.0
 30
0.0
  9
$PUCSORGLEFT
 10
0.0
 20
0.0
 30
0.0
  9
$PUCSORGRIGHT
 10
0.0
 20
0.0
 30
0.0
  9
$PUCSORGFRONT
 10
0.0
 20
0.0
 30
0.0
  9
$PUCSORGBACK
 10
0.0
 20
0.0
 30
0.0
  9
$USERI1
 70
     0
  9
$USERI2
 70
     0
  9
$USERI3
 70
     0
  9
$USERI4
 70
     0
  9
$USERI5
 70
     0
  9
$USERR1
 40
0.0
  9
$USERR2
 40
0.0
  9
$USERR3
 40
0.0
  9
$USERR4
 40
0.0
  9
$USERR5
 40
0.0
  9
$WORLDVIEW
 70
     1
  9
$SHADEDGE
 70
     3
  9
$SHADEDIF
 70
    70
  9
$TILEMODE
 70
     1
  9
$MAXACTVP
 70
    64
  9
$PINSBASE
 10
0.0
 20
0.0
 30
0.0
  9
$PLIMCHECK
 70
     0
  9
$PEXTMIN
 10
1.0000000000E+20
 20
1.0000000000E+20
 30
1.0000000000E+20
  9
$PEXTMAX
 10
-1.0000000000E+20
 20
-1.0000000000E+20
 30
-1.0000000000E+20
  9
$PLIMMIN
 10
0.0
 20
0.0
  9
$PLIMMAX
 10
420.0
 20
297.0
  9
$UNITMODE
 70
     0
  9
$VISRETAIN
 70
     1
  9
$PLINEGEN
 70
     0
  9
$PSLTSCALE
 70
     1
  9
$TREEDEPTH
 70
  3020
  9
$CMLSTYLE
  2
Standard
  9
$CMLJUST
 70
     0
  9
$CMLSCALE
 40
20.0
  9
$PROXYGRAPHICS
 70
     1
  9
$MEASUREMENT
 70
     1
  9
$CELWEIGHT
370
    -1
  9
$ENDCAPS
280
     0
  9
$JOINSTYLE
280
     0
  9
$LWDISPLAY
290
     1
  9
$INSUNITS
 70
     4
  9
$HYPERLINKBASE
  1

  9
$STYLESHEET
  1

  9
$XEDIT
290
     1
  9
$CEPSNTYPE
380
     0
  9
$PSTYLEMODE
290
     1
  9
$FINGERPRINTGUID
  2
{CA4E19B5-E23F-473C-9BB6-39A4AE528D96}
  9
$VERSIONGUID
  2
{FAEB1C32-E019-11D5-929B-00C0DF256EC4}
  9
$EXTNAMES
290
     1
  9
$PSVPSCALE
 40
0.0
  9
$OLESTARTUP
290
     0
  0
ENDSEC
  0
SECTION
  2
CLASSES
  0
CLASS
  1
ACDBDICTIONARYWDFLT
  2
AcDbDictionaryWithDefault
  3
ObjectDBX Classes
 90
        0
280
     0
281
     0
  0
CLASS
  1
VISUALSTYLE
  2
AcDbVisualStyle
  3
ObjectDBX Classes
 90
     4095
280
     0
281
     0
  0
CLASS
  1
MATERIAL
  2
AcDbMaterial
  3
ObjectDBX Classes
 90
     1153
280
     0
281
     0
  0
CLASS
  1
SCALE
  2
AcDbScale
  3
ObjectDBX Classes
 90
     1153
280
     0
281
     0
  0
CLASS
  1
TABLESTYLE
  2
AcDbTableStyle
  3
ObjectDBX Classes
 90
     4095
280
     0
281
     0
  0
CLASS
  1
MLEADERSTYLE
  2
AcDbMLeaderStyle
  3
ACDB_MLEADERSTYLE_CLASS
 90
     4095
280
     0
281
     0
  0
CLASS
  1
SUN
  2
AcDbSun
  3
SCENEOE
 90
     1153
280
     0
281
     0
  0
CLASS
  1
ACDBPLACEHOLDER
  2
AcDbPlaceHolder
  3
ObjectDBX Classes
 90
        0
280
     0
281
     0
  0
CLASS
  1
LAYOUT
  2
AcDbLayout
  3
ObjectDBX Classes
 90
        0
280
     0
281
     0
  0
ENDSEC
  0
SECTION
  2
TABLES
  0
TABLE
  2
VPORT
  5
8
330
0
100
AcDbSymbolTable
 70
     1
  0
VPORT
  5
29
330
8
100
AcDbSymbolTableRecord
100
AcDbViewportTableRecord
  2
*Active
 70
     0
 10
0.0
 20
0.0
 11
1.0
 21
1.0
 12
-9.1381766382
 22
0.0925925926
 13
0.0
 23
0.0
 14
10.0
 24
10.0
 15
10.0
 25
10.0
 16
0.0
 26
0.0
 36
1.0
 17
0.0
 27
0.0
 37
0.0
 40
35.7
 41
4.5714285714
 42
50.0
 43
0.0
 44
0.0
 50
0.0
 51
0.0
 71
     0
 72
   100
 73
     1
 74
     3
 75
     0
 76
     0
 77
     0
 78
     0
281
     0
 65
     1
110
0.0
120
0.0
130
0.0
111
1.0
121
0.0
131
0.0
112
0.0
122
1.0
132
0.0
 79
     0
146
0.0
  0
ENDTAB
  0
TABLE
  2
LTYPE
  5
5
330
0
100
AcDbSymbolTable
 70
     6
  0
LTYPE
  5
14
330
5
100
AcDbSymbolTableRecord
100
AcDbLinetypeTableRecord
  2
ByBlock
 70
     0
  3

 72
    65
 73
     0
 40
0.0
  0
LTYPE
  5
15
330
5
100
AcDbSymbolTableRecord
100
AcDbLinetypeTableRecord
  2
ByLayer
 70
     0
  3

 72
    65
 73
     0
 40
0.0
  0
LTYPE
  5
16
330
5
100
AcDbSymbolTableRecord
100
AcDbLinetypeTableRecord
  2
Continuous
 70
     0
  3
Solid line
 72
    65
 73
     0
 40
0.0
  0
LTYPE
  5
6E
330
5
100
AcDbSymbolTableRecord
100
AcDbLinetypeTableRecord
  2
HIDDEN
 70
     0
  3
Hidden __ __ __ __ __ __ __ __ __ __ __ __ __ __
 72
    65
 73
     2
 40
1.905
 49
1.27
 74
     0
 49
-0.635
 74
     0
  0
LTYPE
  5
6F
330
5
100
AcDbSymbolTableRecord
100
AcDbLinetypeTableRecord
  2
PHANTOM
 70
     0
  3
Phantom ______  __  __  ______  __  __  ______
 72
    65
 73
     6
 40
12.7
 49
6.35
 74
     0
 49
-1.27
 74
     0
 49
1.27
 74
     0
 49
-1.27
 74
     0
 49
1.27
 74
     0
 49
-1.27
 74
     0
  0
LTYPE
  5
70
330
5
100
AcDbSymbolTableRecord
100
AcDbLinetypeTableRecord
  2
CENTER
 70
     0
  3
Center ____ _ ____ _ ____ _ ____ _ ____ _ ____
 72
    65
 73
     4
 40
10.16
 49
6.35
 74
     0
 49
-1.27
 74
     0
 49
1.27
 74
     0
 49
-1.27
 74
     0
  0
LTYPE
  5
71
330
5
100
AcDbSymbolTableRecord
100
AcDbLinetypeTableRecord
  2
CENTERX2
 70
     0
  3
Center (2x) ________  __  ________  __  _____
 72
    65
 73
     4
 40
20.32
 49
12.7
 74
     0
 49
-2.54
 74
     0
 49
2.54
 74
     0
 49
-2.54
 74
     0
  0
LTYPE
  5
72
330
5
100
AcDbSymbolTableRecord
100
AcDbLinetypeTableRecord
  2
DOT2
 70
     0
  3
Dot (.5x) ........................................
 72
    65
 73
     2
 40
0.635
 49
0.0
 74
     0
 49
-0.635
 74
     0
  0
ENDTAB
  0
TABLE
  2
LAYER
  5
2
330
0
100
AcDbSymbolTable
 70
     1
  0
LAYER
  5
10
330
2
100
AcDbSymbolTableRecord
100
AcDbLayerTableRecord
  2
0
 70
     0
 62
     7
  6
Continuous
370
    -3
390
F
  0
ENDTAB
  0
TABLE
  2
STYLE
  5
3
330
0
100
AcDbSymbolTable
 70
     1
  0
STYLE
  5
11
330
3
100
AcDbSymbolTableRecord
100
AcDbTextStyleTableRecord
  2
Standard
 70
     0
 40
0.0
 41
1.0
 50
0.0
 71
     0
 42
3.5
  3
txt
  4

  0
ENDTAB
  0
TABLE
  2
VIEW
  5
6
330
0
100
AcDbSymbolTable
 70
     0
  0
ENDTAB
  0
TABLE
  2
UCS
  5
7
330
0
100
AcDbSymbolTable
 70
     0
  0
ENDTAB
  0
TABLE
  2
APPID
  5
9
330
0
100
AcDbSymbolTable
 70
     1
  0
APPID
  5
12
330
9
100
AcDbSymbolTableRecord
100
AcDbRegAppTableRecord
  2
ACAD
 70
     0
  0
ENDTAB
  0
TABLE
  2
DIMSTYLE
  5
A
330
0
100
AcDbSymbolTable
 70
     1
100
AcDbDimStyleTable
  0
DIMSTYLE
105
27
330
A
100
AcDbSymbolTableRecord
100
AcDbDimStyleTableRecord
  2
ISO-25
 70
     0
 41
2.5
 42
0.625
 43
3.75
 44
1.25
 73
     0
 74
     0
 77
     1
 78
     8
140
2.5
141
2.5
143
0.0393700787
147
0.625
171
     3
172
     1
178
     0
271
     2
272
     2
274
     3
278
    44
283
     0
284
     8
340
11
  0
ENDTAB
  0
TABLE
  2
BLOCK_RECORD
  5
1
330
0
100
AcDbSymbolTable
 70
     1
  0
BLOCK_RECORD
  5
1F
330
1
100
AcDbSymbolTableRecord
100
AcDbBlockTableRecord
  2
*Model_Space
340
22
  0
BLOCK_RECORD
  5
1B
330
1
100
AcDbSymbolTableRecord
100
AcDbBlockTableRecord
  2
*Paper_Space
340
1E
  0
BLOCK_RECORD
  5
23
330
1
100
AcDbSymbolTableRecord
100
AcDbBlockTableRecord
  2
*Paper_Space0
340
26
  0
ENDTAB
  0
ENDSEC
  0
SECTION
  2
BLOCKS
  0
BLOCK
  5
20
330
1F
100
AcDbEntity
  8
0
100
AcDbBlockBegin
  2
*Model_Space
 70
     0
 10
0.0
 20
0.0
 30
0.0
  3
*Model_Space
  1

  0
ENDBLK
  5
21
330
1F
100
AcDbEntity
  8
0
100
AcDbBlockEnd
  0
BLOCK
  5
1C
330
1B
100
AcDbEntity
 67
     1
  8
0
100
AcDbBlockBegin
  2
*Paper_Space
 70
     0
 10
0.0
 20
0.0
 30
0.0
  3
*Paper_Space
  1

  0
ENDBLK
  5
1D
330
1B
100
AcDbEntity
 67
     1
  8
0
100
AcDbBlockEnd
  0
BLOCK
  5
24
330
23
100
AcDbEntity
  8
0
100
AcDbBlockBegin
  2
*Paper_Space0
 70
     0
 10
0.0
 20
0.0
 30
0.0
  3
*Paper_Space0
  1

  0
ENDBLK
  5
25
330
23
100
AcDbEntity
  8
0
100
AcDbBlockEnd
  0
ENDSEC
  0
SECTION
  2
ENTITIES
  0
LINE
  5
73
330
1F
100
AcDbEntity
  8
0
  6
Continuous
 62
     7
370
    25
100
AcDbLine
 10
-57.6586894587
 20
-5.7020353696
 30
0.0
 11
-57.6586894587
 21
0.6479646304
 31
0.0
  0
LINE
  5
74
330
1F
100
AcDbEntity
  8
0
  6
Continuous
 62
     7
370
    25
100
AcDbLine
 10
-57.6586894587
 20
0.6479646304
 30
0.0
 11
-54.2394586895
 21
0.6479646304
 31
0.0
  0
LINE
  5
75
330
1F
100
AcDbEntity
  8
0
  6
Continuous
 62
     7
370
    25
100
AcDbLine
 10
-54.2394586895
 20
0.6479646304
 30
0.0
 11
-54.2394586895
 21
-0.4917789594
 31
0.0
  0
LINE
  5
76
330
1F
100
AcDbEntity
  8
0
  6
Continuous
 62
     7
370
    25
100
AcDbLine
 10
-54.2394586895
 20
-0.4917789594
 30
0.0
 11
-56.5189458689
 21
-0.4917789594
 31
0.0
  0
LINE
  5
77
330
1F
100
AcDbEntity
  8
0
  6
Continuous
 62
     7
370
    25
100
AcDbLine
 10
-56.5189458689
 20
-0.4917789594
 30
0.0
 11
-56.5189458689
 21
-1.7129328055
 31
0.0
  0
LINE
  5
78
330
1F
100
AcDbEntity
  8
0
  6
Continuous
 62
     7
370
    25
100
AcDbLine
 10
-56.5189458689
 20
-1.7129328055
 30
0.0
 11
-54.2394586895
 21
-1.7129328055
 31
0.0
  0
LINE
  5
79
330
1F
100
AcDbEntity
  8
0
  6
Continuous
 62
     7
370
    25
100
AcDbLine
 10
-54.2394586895
 20
-1.7129328055
 30
0.0
 11
-54.2394586895
 21
-2.8526763953
 31
0.0
  0
LINE
  5
7A
330
1F
100
AcDbEntity
  8
0
  6
Continuous
 62
     7
370
    25
100
AcDbLine
 10
-54.2394586895
 20
-2.8526763953
 30
0.0
 11
-56.5189458689
 21
-2.8526763953
 31
0.0
  0
LINE
  5
7B
330
1F
100
AcDbEntity
  8
0
  6
Continuous
 62
     7
370
    25
100
AcDbLine
 10
-56.5189458689
 20
-2.8526763953
 30
0.0
 11
-56.5189458689
 21
-4.5622917799
 31
0.0
  0
LINE
  5
7C
330
1F
100
AcDbEntity
  8
0
  6
Continuous
 62
     7
370
    25
100
AcDbLine
 10
-56.5189458689
 20
-4.5622917799
 30
0.0
 11
-54.2394586895
 21
-4.5622917799
 31
0.0
  0
LINE
  5
7D
330
1F
100
AcDbEntity
  8
0
  6
Continuous
 62
     7
370
    25
100
AcDbLine
 10
-54.2394586895
 20
-4.5622917799
 30
0.0
 11
-54.2394586895
 21
-5.7020353696
 31
0.0
  0
LINE
  5
7E
330
1F
100
AcDbEntity
  8
0
  6
Continuous
 62
     7
370
    25
100
AcDbLine
 10
-54.2394586895
 20
-5.7020353696
 30
0.0
 11
-57.6586894587
 21
-5.7020353696
 31
0.0
  0
SPLINE
  5
7F
330
1F
100
AcDbEntity
  8
0
  6
Continuous
 62
     7
370
    25
100
AcDbSpline
210
0.0
220
0.0
230
1.0
 70
     8
 71
     3
 72
    31
 73
    27
 74
     0
 42
0.000000001
 43
0.00000001
 40
0.0
 40
0.0
 40
0.0
 40
0.0
 40
0.0431143456619735
 40
0.0856827648242091
 40
0.1275943241639272
 40
0.1690586225605482
 40
0.2104320288213098
 40
0.2518111664630528
 40
0.2934438397982393
 40
0.3353808532218246
 40
0.3774766059607945
 40
0.4186884906768275
 40
0.4598730336711989
 40
0.5008729046253149
 40
0.5418727755794313
 40
0.5832117768673237
 40
0.6247632017340755
 40
0.6669876223820896
 40
0.7093697058942389
 40
0.7511026519448578
 40
0.7925683801202197
 40
0.8335451085502588
 40
0.8748274225565249
 40
0.9160177232110662
 40
0.9578592039763036
 40
1.0
 40
1.0
 40
1.0
 40
1.0
 10
-48.29650997150998
 20
-2.524491299114982
 30
0.0
 10
-48.29554149493213
 20
-2.449380314121525
 30
0.0
 10
-48.29361680491112
 20
-2.300109421473251
 30
0.0
 10
-48.27043188616785
 20
-2.078897578157708
 30
0.0
 10
-48.23705226903425
 20
-1.862003493021351
 30
0.0
 10
-48.18768539913153
 20
-1.650291925934017
 30
0.0
 10
-48.12771726985424
 20
-1.442269350236806
 30
0.0
 10
-48.05002008724335
 20
-1.23987209158792
 30
0.0
 10
-47.96157966673039
 20
-1.040937990655536
 30
0.0
 10
-47.85824536236476
 20
-0.8478167082740544
 30
0.0
 10
-47.74334760746953
 20
-0.662285121620992
 30
0.0
 10
-47.61798392721445
 20
-0.485218415578818
 30
0.0
 10
-47.48183909633011
 20
-0.3187575854711163
 30
0.0
 10
-47.33535168241875
 20
-0.1618087192832377
 30
0.0
 10
-47.17801687001698
 20
-0.0154034533068366
 30
0.0
 10
-47.01190423606426
 20
0.1225307828295151
 30
0.0
 10
-46.8337921626894
 20
0.2483299653584944
 30
0.0
 10
-46.64757896434303
 20
0.3650663612231462
 30
0.0
 10
-46.45431446821334
 20
0.4706290595097102
 30
0.0
 10
-46.25478543610878
 20
0.5604808712267364
 30
0.0
 10
-46.05310256024675
 20
0.6389469279287426
 30
0.0
 10
-45.84657162940879
 20
0.700875809368569
 30
0.0
 10
-45.63740598990219
 20
0.7513162353921039
 30
0.0
 10
-45.42337113056565
 20
0.7846733546783148
 30
0.0
 10
-45.20640073467576
 20
0.8078576313639512
 30
0.0
 10
-45.06009021941203
 20
0.8098069900595718
 30
0.0
 10
-44.98667423433049
 20
0.8107851431927099
 30
0.0
  0
SPLINE
  5
80
330
1F
100
AcDbEntity
  8
0
  6
Continuous
 62
     7
370
    25
100
AcDbSpline
210
0.0
220
0.0
230
1.0
 70
     8
 71
     3
 72
    23
 73
    19
 74
     0
 42
0.000000001
 43
0.00000001
 40
0.0
 40
0.0
 40
0.0
 40
0.0
 40
0.0633955966615894
 40
0.1251572666424209
 40
0.1856494665262527
 40
0.2459766793408149
 40
0.3061083686579567
 40
0.3673505880891742
 40
0.4299020782799141
 40
0.4945399581831935
 40
0.5593725826940473
 40
0.6224096858457372
 40
0.6843574258194749
 40
0.7458066007722103
 40
0.8074302750159149
 40
0.8699955160697814
 40
0.9339278677192726
 40
1.0
 40
1.0
 40
1.0
 40
1.0
 10
-44.98667423433049
 20
0.8107851431927099
 30
0.0
 10
-44.87627170201156
 20
0.8079266239229677
 30
0.0
 10
-44.65831209751093
 20
0.8022832594420647
 30
0.0
 10
-44.33777217276726
 20
0.7552414120644046
 30
0.0
 10
-44.02887268765326
 20
0.6785934658524061
 30
0.0
 10
-43.73175332562734
 20
0.5720472767184771
 30
0.0
 10
-43.44715803941747
 20
0.432717032415941
 30
0.0
 10
-43.17408296616282
 20
0.2645528367904075
 30
0.0
 10
-42.9135062478332
 20
0.0643806913997417
 30
0.0
 10
-42.66809806569415
 20
-0.1631297178457708
 30
0.0
 10
-42.44129664512276
 20
-0.4105373537293152
 30
0.0
 10
-42.24477308173213
 20
-0.6769156593755169
 30
0.0
 10
-42.07718499656545
 20
-0.955362505291043
 30
0.0
 10
-41.938287543203
 20
-1.24662399791559
 30
0.0
 10
-41.83249127931906
 20
-1.552717261984874
 30
0.0
 10
-41.75824966498977
 20
-1.872081626426129
 30
0.0
 10
-41.71055310598301
 20
-2.204626234997052
 30
0.0
 10
-41.70506726783521
 20
-2.431043787103607
 30
0.0
 10
-41.70227920227921
 20
-2.546115898473956
 30
0.0
  0
SPLINE
  5
81
330
1F
100
AcDbEntity
  8
0
  6
Continuous
 62
     7
370
    25
100
AcDbSpline
210
0.0
220
0.0
230
1.0
 70
     8
 71
     3
 72
    23
 73
    19
 74
     0
 42
0.000000001
 43
0.00000001
 40
0.0
 40
0.0
 40
0.0
 40
0.0
 40
0.0657223151915615
 40
0.1295079307025842
 40
0.1917221026921614
 40
0.2531611245020888
 40
0.3143157037352571
 40
0.3759517397728619
 40
0.4386196008234089
 40
0.5029729018927761
 40
0.5671286457242645
 40
0.6295522895796739
 40
0.690476782434874
 40
0.7510723384108279
 40
0.8116678943867832
 40
0.872929355587391
 40
0.9355013707158071
 40
1.0
 40
1.0
 40
1.0
 40
1.0
 10
-41.70227920227921
 20
-2.546115898473956
 30
0.0
 10
-41.70524837145933
 20
-2.659891412926433
 30
0.0
 10
-41.71109921459082
 20
-2.884089714498959
 30
0.0
 10
-41.75630248265941
 20
-3.213569793538518
 30
0.0
 10
-41.83179433508077
 20
-3.529513100248422
 30
0.0
 10
-41.93579621130878
 20
-3.832634779408942
 30
0.0
 10
-42.07217458998976
 20
-4.12146661364852
 30
0.0
 10
-42.23649452501343
 20
-4.397852753990279
 30
0.0
 10
-42.43309210709638
 20
-4.659228270920972
 30
0.0
 10
-42.65479665033915
 20
-4.90545290039649
 30
0.0
 10
-42.89887411217669
 20
-5.128954585691459
 30
0.0
 10
-43.15739089101022
 20
-5.325915059879874
 30
0.0
 10
-43.42915331613172
 20
-5.492811932932877
 30
0.0
 10
-43.71376361405282
 20
-5.629568757997481
 30
0.0
 10
-44.01183211790614
 20
-5.735700693483669
 30
0.0
 10
-44.3226225620417
 20
-5.810584485883878
 30
0.0
 10
-44.64611571484694
 20
-5.856092878579172
 30
0.0
 10
-44.86610674649561
 20
-5.861905504618589
 30
0.0
 10
-44.97776998753562
 20
-5.864855882448316
 30
0.0
  0
SPLINE
  5
82
330
1F
100
AcDbEntity
  8
0
  6
Continuous
 62
     7
370
    25
100
AcDbSpline
210
0.0
220
0.0
230
1.0
 70
     8
 71
     3
 72
    23
 73
    19
 74
     0
 42
0.000000001
 43
0.00000001
 40
0.0
 40
0.0
 40
0.0
 40
0.0
 40
0.0667486513092664
 40
0.1311519760901747
 40
0.1937321970570955
 40
0.255325543378598
 40
0.3163881857773859
 40
0.3780268629068862
 40
0.4404056792054014
 40
0.5045574293240808
 40
0.5686582873620147
 40
0.6309861790900099
 40
0.6922881348732989
 40
0.7526154469796392
 40
0.813199538435563
 40
0.8740161248607815
 40
0.9361583555105313
 40
1.0
 40
1.0
 40
1.0
 40
1.0
 10
-44.97776998753562
 20
-5.864855882448316
 30
0.0
 10
-45.09455634867697
 20
-5.862209248112038
 30
0.0
 10
-45.32402558503806
 20
-5.85700897340413
 30
0.0
 10
-45.65985483969817
 20
-5.807556734997496
 30
0.0
 10
-45.98160828374566
 20
-5.7330643888438
 30
0.0
 10
-46.28658300298443
 20
-5.621888558463147
 30
0.0
 10
-46.57788490425797
 20
-5.482909422079618
 30
0.0
 10
-46.85337370695009
 20
-5.311748283280906
 30
0.0
 10
-47.11295682875517
 20
-5.10868799906786
 30
0.0
 10
-47.35514525833206
 20
-4.878929018719427
 30
0.0
 10
-47.57456856205265
 20
-4.627522300468809
 30
0.0
 10
-47.7682526676294
 20
-4.361933397136148
 30
0.0
 10
-47.93162950722341
 20
-4.084191174381415
 30
0.0
 10
-48.06470505847474
 20
-3.794165642949447
 30
0.0
 10
-48.16961647732696
 20
-3.493659240930449
 30
0.0
 10
-48.24361956326728
 20
-3.180841797641478
 30
0.0
 10
-48.28733495206867
 20
-2.856463562881559
 30
0.0
 10
-48.29342425189494
 20
-2.636139381444515
 30
0.0
 10
-48.29650997150998
 20
-2.524491299114982
 30
0.0
  0
SPLINE
  5
83
330
1F
100
AcDbEntity
  8
0
  6
Continuous
 62
     7
370
    25
100
AcDbSpline
210
0.0
220
0.0
230
1.0
 70
     8
 71
     3
 72
    31
 73
    27
 74
     0
 42
0.000000001
 43
0.00000001
 40
0.0
 40
0.0
 40
0.0
 40
0.0
 40
0.0431143456619735
 40
0.0856827648242091
 40
0.1275943241639272
 40
0.1690586225605482
 40
0.2104320288213098
 40
0.2518111664630528
 40
0.2934438397982393
 40
0.3353808532218246
 40
0.3774766059607945
 40
0.4186884906768275
 40
0.4598730336711989
 40
0.5008729046253149
 40
0.5418727755794313
 40
0.5832117768673237
 40
0.6247632017340755
 40
0.6669876223820896
 40
0.7093697058942389
 40
0.7511026519448578
 40
0.7925683801202197
 40
0.8335451085502588
 40
0.8748274225565249
 40
0.9160177232110662
 40
0.9578592039763036
 40
1.0
 40
1.0
 40
1.0
 40
1.0
 10
-35.75933048433049
 20
-2.524491299114982
 30
0.0
 10
-35.75836200775263
 20
-2.449380314121525
 30
0.0
 10
-35.75643731773163
 20
-2.300109421473251
 30
0.0
 10
-35.73325239898836
 20
-2.078897578157708
 30
0.0
 10
-35.69987278185476
 20
-1.862003493021351
 30
0.0
 10
-35.65050591195205
 20
-1.650291925934017
 30
0.0
 10
-35.59053778267475
 20
-1.442269350236806
 30
0.0
 10
-35.51284060006385
 20
-1.23987209158792
 30
0.0
 10
-35.4244001795509
 20
-1.040937990655536
 30
0.0
 10
-35.32106587518527
 20
-0.8478167082740544
 30
0.0
 10
-35.20616812029004
 20
-0.662285121620992
 30
0.0
 10
-35.08080444003496
 20
-0.485218415578818
 30
0.0
 10
-34.94465960915063
 20
-0.3187575854711163
 30
0.0
 10
-34.79817219523926
 20
-0.1618087192832377
 30
0.0
 10
-34.64083738283747
 20
-0.0154034533068366
 30
0.0
 10
-34.47472474888479
 20
0.1225307828295151
 30
0.0
 10
-34.29661267550991
 20
0.2483299653584944
 30
0.0
 10
-34.11039947716354
 20
0.3650663612231462
 30
0.0
 10
-33.91713498103385
 20
0.4706290595097102
 30
0.0
 10
-33.71760594892929
 20
0.5604808712267364
 30
0.0
 10
-33.51592307306726
 20
0.6389469279287426
 30
0.0
 10
-33.30939214222931
 20
0.700875809368569
 30
0.0
 10
-33.10022650272271
 20
0.7513162353921039
 30
0.0
 10
-32.88619164338617
 20
0.7846733546783148
 30
0.0
 10
-32.66922124749627
 20
0.8078576313639512
 30
0.0
 10
-32.52291073223255
 20
0.8098069900595718
 30
0.0
 10
-32.449494747151
 20
0.8107851431927099
 30
0.0
  0
SPLINE
  5
84
330
1F
100
AcDbEntity
  8
0
  6
Continuous
 62
     7
370
    25
100
AcDbSpline
210
0.0
220
0.0
230
1.0
 70
     8
 71
     3
 72
    23
 73
    19
 74
     0
 42
0.000000001
 43
0.00000001
 40
0.0
 40
0.0
 40
0.0
 40
0.0
 40
0.0633955966615894
 40
0.1251572666424209
 40
0.1856494665262527
 40
0.2459766793408148
 40
0.3061083686579566
 40
0.3673505880891741
 40
0.4299020782799134
 40
0.4945399581831934
 40
0.5593725826940472
 40
0.6224096858457367
 40
0.6843574258194748
 40
0.7458066007722102
 40
0.8074302750159147
 40
0.8699955160697813
 40
0.9339278677192725
 40
1.0
 40
1.0
 40
1.0
 40
1.0
 10
-32.449494747151
 20
0.8107851431927099
 30
0.0
 10
-32.33909221483206
 20
0.8079266239229675
 30
0.0
 10
-32.12113261033146
 20
0.8022832594420652
 30
0.0
 10
-31.80059268558776
 20
0.7552414120644042
 30
0.0
 10
-31.49169320047379
 20
0.6785934658524064
 30
0.0
 10
-31.19457383844784
 20
0.5720472767184769
 30
0.0
 10
-30.90997855223799
 20
0.4327170324159409
 30
0.0
 10
-30.63690347898333
 20
0.2645528367904086
 30
0.0
 10
-30.37632676065373
 20
0.0643806913997394
 30
0.0
 10
-30.13091857851467
 20
-0.1631297178457696
 30
0.0
 10
-29.90411715794327
 20
-0.4105373537293143
 30
0.0
 10
-29.70759359455266
 20
-0.6769156593755189
 30
0.0
 10
-29.54000550938596
 20
-0.9553625052910418
 30
0.0
 10
-29.40110805602353
 20
-1.24662399791559
 30
0.0
 10
-29.29531179213958
 20
-1.552717261984875
 30
0.0
 10
-29.22107017781029
 20
-1.872081626426129
 30
0.0
 10
-29.17337361880352
 20
-2.204626234997051
 30
0.0
 10
-29.16788778065574
 20
-2.431043787103608
 30
0.0
 10
-29.16509971509972
 20
-2.546115898473956
 30
0.0
  0
SPLINE
  5
85
330
1F
100
AcDbEntity
  8
0
  6
Continuous
 62
     7
370
    25
100
AcDbSpline
210
0.0
220
0.0
230
1.0
 70
     8
 71
     3
 72
    23
 73
    19
 74
     0
 42
0.000000001
 43
0.00000001
 40
0.0
 40
0.0
 40
0.0
 40
0.0
 40
0.0657223151915615
 40
0.1295079307025841
 40
0.1917221026921612
 40
0.2531611245020888
 40
0.3143157037352572
 40
0.3759517397728623
 40
0.4386196008234089
 40
0.5029729018927761
 40
0.5671286457242645
 40
0.6295522895796739
 40
0.690476782434874
 40
0.7510723384108284
 40
0.8116678943867832
 40
0.872929355587391
 40
0.9355013707158071
 40
1.0
 40
1.0
 40
1.0
 40
1.0
 10
-29.16509971509972
 20
-2.546115898473956
 30
0.0
 10
-29.16806888427984
 20
-2.659891412926433
 30
0.0
 10
-29.17391972741133
 20
-2.884089714498958
 30
0.0
 10
-29.21912299547993
 20
-3.213569793538519
 30
0.0
 10
-29.29461484790126
 20
-3.529513100248422
 30
0.0
 10
-29.3986167241293
 20
-3.832634779408942
 30
0.0
 10
-29.53499510281027
 20
-4.12146661364852
 30
0.0
 10
-29.69931503783394
 20
-4.397852753990277
 30
0.0
 10
-29.89591261991689
 20
-4.659228270920974
 30
0.0
 10
-30.11761716315966
 20
-4.905452900396489
 30
0.0
 10
-30.36169462499721
 20
-5.128954585691459
 30
0.0
 10
-30.62021140383073
 20
-5.325915059879875
 30
0.0
 10
-30.89197382895222
 20
-5.492811932932877
 30
0.0
 10
-31.17658412687337
 20
-5.629568757997483
 30
0.0
 10
-31.47465263072662
 20
-5.735700693483663
 30
0.0
 10
-31.78544307486223
 20
-5.81058448588388
 30
0.0
 10
-32.10893622766744
 20
-5.856092878579171
 30
0.0
 10
-32.32892725931612
 20
-5.861905504618588
 30
0.0
 10
-32.44059050035614
 20
-5.864855882448316
 30
0.0
  0
SPLINE
  5
86
330
1F
100
AcDbEntity
  8
0
  6
Continuous
 62
     7
370
    25
100
AcDbSpline
210
0.0
220
0.0
230
1.0
 70
     8
 71
     3
 72
    23
 73
    19
 74
     0
 42
0.000000001
 43
0.00000001
 40
0.0
 40
0.0
 40
0.0
 40
0.0
 40
0.0667486513092664
 40
0.1311519760901747
 40
0.1937321970570955
 40
0.255325543378598
 40
0.3163881857773859
 40
0.3780268629068862
 40
0.4404056792054014
 40
0.5045574293240808
 40
0.5686582873620147
 40
0.6309861790900099
 40
0.6922881348732989
 40
0.7526154469796392
 40
0.813199538435563
 40
0.8740161248607815
 40
0.9361583555105313
 40
1.0
 40
1.0
 40
1.0
 40
1.0
 10
-32.44059050035614
 20
-5.864855882448316
 30
0.0
 10
-32.55737686149748
 20
-5.862209248112038
 30
0.0
 10
-32.78684609785858
 20
-5.85700897340413
 30
0.0
 10
-33.12267535251868
 20
-5.807556734997496
 30
0.0
 10
-33.44442879656618
 20
-5.7330643888438
 30
0.0
 10
-33.74940351580494
 20
-5.621888558463147
 30
0.0
 10
-34.04070541707849
 20
-5.482909422079618
 30
0.0
 10
-34.3161942197706
 20
-5.311748283280906
 30
0.0
 10
-34.57577734157568
 20
-5.10868799906786
 30
0.0
 10
-34.81796577115257
 20
-4.878929018719427
 30
0.0
 10
-35.03738907487318
 20
-4.627522300468809
 30
0.0
 10
-35.2310731804499
 20
-4.361933397136148
 30
0.0
 10
-35.39445002004393
 20
-4.084191174381415
 30
0.0
 10
-35.52752557129524
 20
-3.794165642949447
 30
0.0
 10
-35.63243699014748
 20
-3.493659240930449
 30
0.0
 10
-35.7064400760878
 20
-3.180841797641478
 30
0.0
 10
-35.75015546488918
 20
-2.856463562881559
 30
0.0
 10
-35.75624476471543
 20
-2.636139381444515
 30
0.0
 10
-35.75933048433049
 20
-2.524491299114982
 30
0.0
  0
LINE
  5
87
330
1F
100
AcDbEntity
  8
0
  6
Continuous
 62
     7
370
    25
100
AcDbLine
 10
-24.5247150997
 20
-5.7020353696
 30
0.0
 11
-24.5247150997
 21
0.6479646304
 31
0.0
  0
LINE
  5
88
330
1F
100
AcDbEntity
  8
0
  6
Continuous
 62
     7
370
    25
100
AcDbLine
 10
-24.5247150997
 20
0.6479646304
 30
0.0
 11
-23.38497151
 21
0.6479646304
 31
0.0
  0
LINE
  5
89
330
1F
100
AcDbEntity
  8
0
  6
Continuous
 62
     7
370
    25
100
AcDbLine
 10
-23.38497151
 20
0.6479646304
 30
0.0
 11
-23.38497151
 21
-5.7020353696
 31
0.0
  0
LINE
  5
8A
330
1F
100
AcDbEntity
  8
0
  6
Continuous
 62
     7
370
    25
100
AcDbLine
 10
-23.38497151
 20
-5.7020353696
 30
0.0
 11
-24.5247150997
 21
-5.7020353696
 31
0.0
  0
LINE
  5
8B
330
1F
100
AcDbEntity
  8
0
  6
Continuous
 62
     7
370
    25
100
AcDbLine
 10
-13.5343304843
 20
-5.7020353696
 30
0.0
 11
-13.5343304843
 21
0.6479646304
 31
0.0
  0
LINE
  5
8C
330
1F
100
AcDbEntity
  8
0
  6
Continuous
 62
     7
370
    25
100
AcDbLine
 10
-13.5343304843
 20
0.6479646304
 30
0.0
 11
-10.1150997151
 21
0.6479646304
 31
0.0
  0
LINE
  5
8D
330
1F
100
AcDbEntity
  8
0
  6
Continuous
 62
     7
370
    25
100
AcDbLine
 10
-10.1150997151
 20
0.6479646304
 30
0.0
 11
-10.1150997151
 21
-0.4917789594
 31
0.0
  0
LINE
  5
8E
330
1F
100
AcDbEntity
  8
0
  6
Continuous
 62
     7
370
    25
100
AcDbLine
 10
-10.1150997151
 20
-0.4917789594
 30
0.0
 11
-12.3945868946
 21
-0.4917789594
 31
0.0
  0
LINE
  5
8F
330
1F
100
AcDbEntity
  8
0
  6
Continuous
 62
     7
370
    25
100
AcDbLine
 10
-12.3945868946
 20
-0.4917789594
 30
0.0
 11
-12.3945868946
 21
-1.7129328055
 31
0.0
  0
LINE
  5
90
330
1F
100
AcDbEntity
  8
0
  6
Continuous
 62
     7
370
    25
100
AcDbLine
 10
-12.3945868946
 20
-1.7129328055
 30
0.0
 11
-10.1150997151
 21
-1.7129328055
 31
0.0
  0
LINE
  5
91
330
1F
100
AcDbEntity
  8
0
  6
Continuous
 62
     7
370
    25
100
AcDbLine
 10
-10.1150997151
 20
-1.7129328055
 30
0.0
 11
-10.1150997151
 21
-2.8526763953
 31
0.0
  0
LINE
  5
92
330
1F
100
AcDbEntity
  8
0
  6
Continuous
 62
     7
370
    25
100
AcDbLine
 10
-10.1150997151
 20
-2.8526763953
 30
0.0
 11
-12.3945868946
 21
-2.8526763953
 31
0.0
  0
LINE
  5
93
330
1F
100
AcDbEntity
  8
0
  6
Continuous
 62
     7
370
    25
100
AcDbLine
 10
-12.3945868946
 20
-2.8526763953
 30
0.0
 11
-12.3945868946
 21
-4.5622917799
 31
0.0
  0
LINE
  5
94
330
1F
100
AcDbEntity
  8
0
  6
Continuous
 62
     7
370
    25
100
AcDbLine
 10
-12.3945868946
 20
-4.5622917799
 30
0.0
 11
-10.1150997151
 21
-4.5622917799
 31
0.0
  0
LINE
  5
95
330
1F
100
AcDbEntity
  8
0
  6
Continuous
 62
     7
370
    25
100
AcDbLine
 10
-10.1150997151
 20
-4.5622917799
 30
0.0
 11
-10.1150997151
 21
-5.7020353696
 31
0.0
  0
LINE
  5
96
330
1F
100
AcDbEntity
  8
0
  6
Continuous
 62
     7
370
    25
100
AcDbLine
 10
-10.1150997151
 20
-5.7020353696
 30
0.0
 11
-13.5343304843
 21
-5.7020353696
 31
0.0
  0
LINE
  5
97
330
1F
100
AcDbEntity
  8
0
  6
Continuous
 62
     7
370
    25
100
AcDbLine
 10
-3.358048433
 20
-5.7020353696
 30
0.0
 11
-3.358048433
 21
0.6479646304
 31
0.0
  0
LINE
  5
98
330
1F
100
AcDbEntity
  8
0
  6
Continuous
 62
     7
370
    25
100
AcDbLine
 10
-3.358048433
 20
0.6479646304
 30
0.0
 11
-2.0300436254
 21
0.6479646304
 31
0.0
  0
SPLINE
  5
99
330
1F
100
AcDbEntity
  8
0
  6
Continuous
 62
     7
370
    25
100
AcDbSpline
210
0.0
220
0.0
230
1.0
 70
     8
 71
     3
 72
    31
 73
    27
 74
     0
 42
0.000000001
 43
0.00000001
 40
0.0
 40
0.0
 40
0.0
 40
0.0
 40
0.0728890266200384
 40
0.1401861299444944
 40
0.2022774341249592
 40
0.2588951317514627
 40
0.3104829424654784
 40
0.3570952441313354
 40
0.3985135666534657
 40
0.4350375108701163
 40
0.4692514858292878
 40
0.5028050278902748
 40
0.5362104463185623
 40
0.5693793599392059
 40
0.6028014750483933
 40
0.6366657983367767
 40
0.6709286568940431
 40
0.705803000229313
 40
0.7411890612458776
 40
0.7763043110764619
 40
0.8120043009129352
 40
0.8479689758088956
 40
0.8845217611964793
 40
0.9219741585442051
 40
0.9601981758096081
 40
1.0
 40
1.0
 40
1.0
 40
1.0
 10
-2.030043625356147
 20
0.6479646303721972
 30
0.0
 10
-1.942262911807373
 20
0.6476530592179857
 30
0.0
 10
-1.77343587313231
 20
0.6470538201234791
 30
0.0
 10
-1.529996504542116
 20
0.6375994145089456
 30
0.0
 10
-1.306363966115767
 20
0.624442833109156
 30
0.0
 10
-1.102207149652375
 20
0.6043655406942591
 30
0.0
 10
-0.9176133968026808
 20
0.5777454778285597
 30
0.0
 10
-0.7523977014813217
 20
0.5463648287476217
 30
0.0
 10
-0.6065648927801176
 20
0.5105998512972995
 30
0.0
 10
-0.4788850723644693
 20
0.4660338676256322
 30
0.0
 10
-0.3636603480799848
 20
0.4157641137029902
 30
0.0
 10
-0.256254885740515
 20
0.3580032446686953
 30
0.0
 10
-0.154299161129946
 20
0.2933944460666316
 30
0.0
 10
-0.0584746381518843
 20
0.220237685522669
 30
0.0
 10
0.032051420827759
 20
0.1398490351360784
 30
0.0
 10
0.1174497986466823
 20
0.0521475758368446
 30
0.0
 10
0.1965137370726363
 20
-0.0436103646284618
 30
0.0
 10
0.2687536689894946
 20
-0.1468197175951337
 30
0.0
 10
0.3345945519925606
 20
-0.2553935901835199
 30
0.0
 10
0.3927840833614009
 20
-0.3694810550292657
 30
0.0
 10
0.4401039069877698
 20
-0.4891614523655247
 30
0.0
 10
0.4819160437343212
 20
-0.6127051417079713
 30
0.0
 10
0.5120319712634692
 20
-0.7418782043333843
 30
0.0
 10
0.5329771583021845
 20
-0.8754231186721344
 30
0.0
 10
0.5483124048749837
 20
-1.013809977001533
 30
0.0
 10
0.5491941082382746
 20
-1.107823864244393
 30
0.0
 10
0.5496438746438528
 20
-1.155781363217546
 30
0.0
  0
SPLINE
  5
9A
330
1F
100
AcDbEntity
  8
0
  6
Continuous
 62
     7
370
    25
100
AcDbSpline
210
0.0
220
0.0
230
1.0
 70
     8
 71
     3
 72
    23
 73
    19
 74
     0
 42
0.000000001
 43
0.00000001
 40
0.0
 40
0.0
 40
0.0
 40
0.0
 40
0.0687412630793656
 40
0.1347890881950342
 40
0.1985360495606908
 40
0.2603856506059204
 40
0.3209615782321967
 40
0.3799038495841488
 40
0.4385029357752677
 40
0.4961543439762691
 40
0.5542654832084993
 40
0.6127487608156947
 40
0.672513442526179
 40
0.7336464018979738
 40
0.7967896194814543
 40
0.8619356990410246
 40
0.9293977347748985
 40
1.0
 40
1.0
 40
1.0
 40
1.0
 10
0.5496438746438529
 20
-1.155781363217546
 30
0.0
 10
0.5484755432641635
 20
-1.205837975229324
 30
0.0
 10
0.546184658367327
 20
-1.303989868123846
 30
0.0
 10
0.5338447060205702
 20
-1.448166993559989
 30
0.0
 10
0.5112911494961581
 20
-1.586105582422779
 30
0.0
 10
0.4771305070271095
 20
-1.717401767494268
 30
0.0
 10
0.4378672855900934
 20
-1.843689682864476
 30
0.0
 10
0.3856572726605035
 20
-1.96263923752491
 30
0.0
 10
0.3267331128080604
 20
-2.075980380421951
 30
0.0
 10
0.2567506097337396
 20
-2.182109858130811
 30
0.0
 10
0.1799482314885291
 20
-2.283385018387631
 30
0.0
 10
0.0906286811718082
 20
-2.375925634091013
 30
0.0
 10
-0.0054215063433996
 20
-2.464705412940255
 30
0.0
 10
-0.1136016619058906
 20
-2.544163490789533
 30
0.0
 10
-0.2291431037661618
 20
-2.619672535738383
 30
0.0
 10
-0.3543415188113454
 20
-2.688103839286789
 30
0.0
 10
-0.4883798192474056
 20
-2.751177606840099
 30
0.0
 10
-0.582615382448325
 20
-2.786351896544974
 30
0.0
 10
-0.6308048433048652
 20
-2.804339055525238
 30
0.0
  0
LINE
  5
9B
330
1F
100
AcDbEntity
  8
0
  6
Continuous
 62
     7
370
    25
100
AcDbLine
 10
-0.6308048433
 20
-2.8043390555
 30
0.0
 11
0.8345797721
 21
-5.7020353696
 31
0.0
  0
LINE
  5
9C
330
1F
100
AcDbEntity
  8
0
  6
Continuous
 62
     7
370
    25
100
AcDbLine
 10
0.8345797721
 20
-5.7020353696
 30
0.0
 11
-0.4323673433
 21
-5.7020353696
 31
0.0
  0
LINE
  5
9D
330
1F
100
AcDbEntity
  8
0
  6
Continuous
 62
     7
370
    25
100
AcDbLine
 10
-0.4323673433
 20
-5.7020353696
 30
0.0
 11
-1.8316061254
 21
-2.9340866517
 31
0.0
  0
LINE
  5
9E
330
1F
100
AcDbEntity
  8
0
  6
Continuous
 62
     7
370
    25
100
AcDbLine
 10
-1.8316061254
 20
-2.9340866517
 30
0.0
 11
-2.2183048433
 21
-2.9340866517
 31
0.0
  0
LINE
  5
9F
330
1F
100
AcDbEntity
  8
0
  6
Continuous
 62
     7
370
    25
100
AcDbLine
 10
-2.2183048433
 20
-2.9340866517
 30
0.0
 11
-2.2183048433
 21
-5.7020353696
 31
0.0
  0
LINE
  5
A0
330
1F
100
AcDbEntity
  8
0
  6
Continuous
 62
     7
370
    25
100
AcDbLine
 10
-2.2183048433
 20
-5.7020353696
 30
0.0
 11
-3.358048433
 21
-5.7020353696
 31
0.0
  0
LINE
  5
A1
330
1F
100
AcDbEntity
  8
0
  6
Continuous
 62
     7
370
    25
100
AcDbLine
 10
10.9650685541
 20
-5.7020353696
 30
0.0
 11
9.1791310541
 21
-5.7020353696
 31
0.0
  0
LINE
  5
A2
330
1F
100
AcDbEntity
  8
0
  6
Continuous
 62
     7
370
    25
100
AcDbLine
 10
9.1791310541
 20
-5.7020353696
 30
0.0
 11
9.1791310541
 21
0.6479646304
 31
0.0
  0
LINE
  5
A3
330
1F
100
AcDbEntity
  8
0
  6
Continuous
 62
     7
370
    25
100
AcDbLine
 10
9.1791310541
 20
0.6479646304
 30
0.0
 11
10.1967592593
 21
0.6479646304
 31
0.0
  0
SPLINE
  5
A4
330
1F
100
AcDbEntity
  8
0
  6
Continuous
 62
     7
370
    25
100
AcDbSpline
210
0.0
220
0.0
230
1.0
 70
     8
 71
     3
 72
    15
 73
    11
 74
     0
 42
0.000000001
 43
0.00000001
 40
0.0
 40
0.0
 40
0.0
 40
0.0
 40
0.1639957318060736
 40
0.3173286319587175
 40
0.458059894627543
 40
0.5891583945859037
 40
0.7079520097453079
 40
0.816321999875448
 40
0.9135847296003146
 40
1.0
 40
1.0
 40
1.0
 40
1.0
 10
10.19675925925924
 20
0.6479646303721972
 30
0.0
 10
10.26799959656587
 20
0.6479727606577759
 30
0.0
 10
10.40584829865601
 20
0.6479884926062338
 30
0.0
 10
10.6047280005169
 20
0.6410044904228406
 30
0.0
 10
10.78917212809458
 20
0.6319699011921528
 30
0.0
 10
10.9585937086903
 20
0.6218622967756414
 30
0.0
 10
11.11328110956851
 20
0.604444874878179
 30
0.0
 10
11.2529991033086
 20
0.5860888147366836
 30
0.0
 10
11.37802684730737
 20
0.5639525375989499
 30
0.0
 10
11.45532470747226
 20
0.5440956111771306
 30
0.0
 10
11.49169115028488
 20
0.5347534925516851
 30
0.0
  0
SPLINE
  5
A5
330
1F
100
AcDbEntity
  8
0
  6
Continuous
 62
     7
370
    25
100
AcDbSpline
210
0.0
220
0.0
230
1.0
 70
     8
 71
     3
 72
    23
 73
    19
 74
     0
 42
0.000000001
 43
0.00000001
 40
0.0
 40
0.0
 40
0.0
 40
0.0
 40
0.0687497663152834
 40
0.1349091121452264
 40
0.1997210700545276
 40
0.2629736746369455
 40
0.3253570233490399
 40
0.3873361409887315
 40
0.4494074874297894
 40
0.5111175193516618
 40
0.5724725853513692
 40
0.6330771719677207
 40
0.692861008089098
 40
0.7525606967546152
 40
0.8127375856307915
 40
0.8734793127278785
 40
0.9357764600655788
 40
1.0
 40
1.0
 40
1.0
 40
1.0
 10
11.49169115028488
 20
0.534753492551685
 30
0.0
 10
11.53944398197506
 20
0.5215762678270026
 30
0.0
 10
11.63315036777132
 20
0.4957183226524335
 30
0.0
 10
11.76736781602073
 20
0.4434970848686795
 30
0.0
 10
11.89469178797845
 20
0.3854494766218281
 30
0.0
 10
12.01496682456386
 20
0.3192280122429971
 30
0.0
 10
12.12745438913563
 20
0.2440332130997368
 30
0.0
 10
12.23172699063492
 20
0.1592683106350551
 30
0.0
 10
12.33003353106192
 20
0.0683357643911669
 30
0.0
 10
12.41888336959716
 20
-0.0312986899004509
 30
0.0
 10
12.49918898452857
 20
-0.1365809470953115
 30
0.0
 10
12.56896016579584
 20
-0.2474834203723803
 30
0.0
 10
12.62958237976142
 20
-0.3623103385210513
 30
0.0
 10
12.67809602982592
 20
-0.4825067219590704
 30
0.0
 10
12.71465015372182
 20
-0.6075190338194607
 30
0.0
 10
12.74138568743362
 20
-0.7368134521808296
 30
0.0
 10
12.75871393359509
 20
-0.8707990964066682
 30
0.0
 10
12.76035122556651
 20
-0.9619539094585265
 30
0.0
 10
12.76118233618231
 20
-1.008225273473957
 30
0.0
  0
SPLINE
  5
A6
330
1F
100
AcDbEntity
  8
0
  6
Continuous
 62
     7
370
    25
100
AcDbSpline
210
0.0
220
0.0
230
1.0
 70
     8
 71
     3
 72
    15
 73
    11
 74
     0
 42
0.000000001
 43
0.00000001
 40
0.0
 40
0.0
 40
0.0
 40
0.0
 40
0.1232695606004614
 40
0.2426409842839846
 40
0.3594273839391154
 40
0.475550219134522
 40
0.5938976740482412
 40
0.7202015971643235
 40
0.85446531487766
 40
0.9999999999999999
 40
0.9999999999999999
 40
0.9999999999999999
 40
0.9999999999999999
 10
12.76118233618231
 20
-1.008225273473957
 30
0.0
 10
12.75900922881128
 20
-1.067671830738974
 30
0.0
 10
12.75473173395454
 20
-1.184685074696494
 30
0.0
 10
12.72740680550432
 20
-1.356556359903379
 30
0.0
 10
12.67616830729093
 20
-1.51899942805619
 30
0.0
 10
12.60912397856452
 20
-1.675008043622652
 30
0.0
 10
12.51796465238935
 20
-1.824000293335582
 30
0.0
 10
12.40220993854158
 20
-1.965905335517502
 30
0.0
 10
12.26373468423407
 20
-2.105092639155842
 30
0.0
 10
12.15751651990021
 20
-2.188526039004135
 30
0.0
 10
12.1022680733618
 20
-2.231923190140623
 30
0.0
  0
SPLINE
  5
A7
330
1F
100
AcDbEntity
  8
0
  6
Continuous
 62
     7
370
    25
100
AcDbSpline
210
0.0
220
0.0
230
1.0
 70
     8
 71
     3
 72
    23
 73
    19
 74
     0
 42
0.000000001
 43
0.00000001
 40
0.0
 40
0.0
 40
0.0
 40
0.0
 40
0.0727911822673697
 40
0.1427233695565056
 40
0.2094912699928576
 40
0.2747163184918672
 40
0.3368863886768215
 40
0.3976856020239927
 40
0.4570537497761167
 40
0.51531259416626
 40
0.5728222022221217
 40
0.6307760073985103
 40
0.6895054947089531
 40
0.7487432781628017
 40
0.8092253247292985
 40
0.870715320223996
 40
0.9342652493244624
 40
1.0
 40
1.0
 40
1.0
 40
1.0
 10
12.1022680733618
 20
-2.231923190140623
 30
0.0
 10
12.14703876395729
 20
-2.254778239435467
 30
0.0
 10
12.23482170167204
 20
-2.299590667879874
 30
0.0
 10
12.35944768408639
 20
-2.373248922958549
 30
0.0
 10
12.47483773981417
 20
-2.451593819053925
 30
0.0
 10
12.58150924287343
 20
-2.533049025345864
 30
0.0
 10
12.67722463641017
 20
-2.621067546062517
 30
0.0
 10
12.76593616972769
 20
-2.710577633166642
 30
0.0
 10
12.8432672762199
 20
-2.806707842401185
 30
0.0
 10
12.91241908236336
 20
-2.906031910051735
 30
0.0
 10
12.97252470829776
 20
-3.00998806013139
 30
0.0
 10
13.02487008059853
 20
-3.118400734126549
 30
0.0
 10
13.0690843389399
 20
-3.231640293327828
 30
0.0
 10
13.10652611648766
 20
-3.349130440063135
 30
0.0
 10
13.13445020411016
 20
-3.471275285468443
 30
0.0
 10
13.15265730306371
 20
-3.598118513619053
 30
0.0
 10
13.16659779608351
 20
-3.729227524605453
 30
0.0
 10
13.16768223542555
 20
-3.818535708785763
 30
0.0
 10
13.1682336182336
 20
-3.863944424114982
 30
0.0
  0
SPLINE
  5
A8
330
1F
100
AcDbEntity
  8
0
  6
Continuous
 62
     7
370
    25
100
AcDbSpline
210
0.0
220
0.0
230
1.0
 70
     8
 71
     3
 72
    23
 73
    19
 74
     0
 42
0.000000001
 43
0.00000001
 40
0.0
 40
0.0
 40
0.0
 40
0.0
 40
0.0802588853381376
 40
0.1583905883453953
 40
0.23625762483038
 40
0.3151047653520858
 40
0.3932216786245976
 40
0.4687312831158791
 40
0.5427812639155815
 40
0.6177081693395517
 40
0.6563652025204882
 40
0.6970796727899446
 40
0.7406969496811664
 40
0.7867286654533119
 40
0.8355790921841483
 40
0.8872495053564259
 40
0.9418976668361582
 40
1.0
 40
1.0
 40
1.0
 40
1.0
 10
13.1682336182336
 20
-3.863944424114982
 30
0.0
 10
13.16465551233722
 20
-3.950672474120234
 30
0.0
 10
13.15759413470033
 20
-4.121829932992306
 30
0.0
 10
13.10596478699297
 20
-4.373128391597164
 30
0.0
 10
13.01645590314811
 20
-4.6113821231077
 30
0.0
 10
12.89626392948489
 20
-4.835644205199387
 30
0.0
 10
12.74816429272884
 20
-5.039422618779719
 30
0.0
 10
12.57789218069661
 20
-5.217930739937087
 30
0.0
 10
12.38716184301243
 20
-5.369033901580138
 30
0.0
 10
12.21119005365902
 20
-5.471016813493996
 30
0.0
 10
12.05898831379448
 20
-5.539456884032819
 30
0.0
 10
11.93292245635181
 20
-5.581770851549614
 30
0.0
 10
11.79753039762025
 20
-5.620970447112905
 30
0.0
 10
11.65033208025693
 20
-5.648497212507464
 30
0.0
 10
11.49399600901244
 20
-5.673692735103073
 30
0.0
 10
11.3269978973067
 20
-5.689248972642788
 30
0.0
 10
11.14964986159364
 20
-5.69979105152353
 30
0.0
 10
11.02783956447743
 20
-5.701272138957912
 30
0.0
 10
10.96506855413103
 20
-5.702035369627803
 30
0.0
  0
LINE
  5
A9
330
1F
100
AcDbEntity
  8
0
  6
Continuous
 62
     7
370
    25
100
AcDbLine
 10
21.06502849
 20
-0.4917789594
 30
0.0
 11
21.06502849
 21
0.6479646304
 31
0.0
  0
LINE
  5
AA
330
1F
100
AcDbEntity
  8
0
  6
Continuous
 62
     7
370
    25
100
AcDbLine
 10
21.06502849
 20
0.6479646304
 30
0.0
 11
24.4842592593
 21
0.6479646304
 31
0.0
  0
LINE
  5
AB
330
1F
100
AcDbEntity
  8
0
  6
Continuous
 62
     7
370
    25
100
AcDbLine
 10
24.4842592593
 20
0.6479646304
 30
0.0
 11
24.4842592593
 21
-0.4917789594
 31
0.0
  0
LINE
  5
AC
330
1F
100
AcDbEntity
  8
0
  6
Continuous
 62
     7
370
    25
100
AcDbLine
 10
24.4842592593
 20
-0.4917789594
 30
0.0
 11
23.3445156695
 21
-0.4917789594
 31
0.0
  0
LINE
  5
AD
330
1F
100
AcDbEntity
  8
0
  6
Continuous
 62
     7
370
    25
100
AcDbLine
 10
23.3445156695
 20
-0.4917789594
 30
0.0
 11
23.3445156695
 21
-5.7020353696
 31
0.0
  0
LINE
  5
AE
330
1F
100
AcDbEntity
  8
0
  6
Continuous
 62
     7
370
    25
100
AcDbLine
 10
23.3445156695
 20
-5.7020353696
 30
0.0
 11
22.2047720798
 21
-5.7020353696
 31
0.0
  0
LINE
  5
AF
330
1F
100
AcDbEntity
  8
0
  6
Continuous
 62
     7
370
    25
100
AcDbLine
 10
22.2047720798
 20
-5.7020353696
 30
0.0
 11
22.2047720798
 21
-0.4917789594
 31
0.0
  0
LINE
  5
B0
330
1F
100
AcDbEntity
  8
0
  6
Continuous
 62
     7
370
    25
100
AcDbLine
 10
22.2047720798
 20
-0.4917789594
 30
0.0
 11
21.06502849
 21
-0.4917789594
 31
0.0
  0
SPLINE
  5
B1
330
1F
100
AcDbEntity
  8
0
  6
Continuous
 62
     7
370
    25
100
AcDbSpline
210
0.0
220
0.0
230
1.0
 70
     8
 71
     3
 72
    15
 73
    11
 74
     0
 42
0.000000001
 43
0.00000001
 40
0.0
 40
0.0
 40
0.0
 40
0.0
 40
0.1323140339085642
 40
0.2587000085531542
 40
0.3809118214856528
 40
0.5005348689728946
 40
0.6209226176484501
 40
0.7423757653984727
 40
0.8682808341788572
 40
1.0
 40
1.0
 40
1.0
 40
1.0
 10
32.73976807336179
 20
-0.0529267959098537
 30
0.0
 10
32.78907314173611
 20
0.0157603403227078
 30
0.0
 10
32.88547426589025
 20
0.1500572263441473
 30
0.0
 10
33.05403432608404
 20
0.3263639343529276
 30
0.0
 10
33.23513016457149
 20
0.4771500644247995
 30
0.0
 10
33.43248138661699
 20
0.5990031914133709
 30
0.0
 10
33.64296680043263
 20
0.6950965772498862
 30
0.0
 10
33.86839353029436
 20
0.7629662534112891
 30
0.0
 10
34.10792911316664
 20
0.80251028931232
 30
0.0
 10
34.27242219352546
 20
0.8079856688745797
 30
0.0
 10
34.35652488425922
 20
0.8107851431927099
 30
0.0
  0
SPLINE
  5
B2
330
1F
100
AcDbEntity
  8
0
  6
Continuous
 62
     7
370
    25
100
AcDbSpline
210
0.0
220
0.0
230
1.0
 70
     8
 71
     3
 72
    31
 73
    27
 74
     0
 42
0.000000001
 43
0.00000001
 40
0.0
 40
0.0
 40
0.0
 40
0.0
 40
0.0366348902551275
 40
0.0720339823477905
 40
0.1066259706074976
 40
0.1403056939382983
 40
0.1736194704926827
 40
0.2064256725696827
 40
0.2390670061327428
 40
0.271882880562595
 40
0.3048398888131212
 40
0.3385290337045879
 40
0.3726161878593854
 40
0.4075482500265402
 40
0.4437189059571703
 40
0.4813115090919066
 40
0.5201129981462026
 40
0.5609129028334486
 40
0.6040246006136045
 40
0.6500745638656785
 40
0.6995722277770582
 40
0.7523625390892972
 40
0.8087887173463878
 40
0.8689542125204783
 40
0.9326747199379387
 40
1.0
 40
1.0
 40
1.0
 40
1.0
 10
34.35652488425922
 20
0.8107851431927099
 30
0.0
 10
34.41169320453092
 20
0.8099661539259655
 30
0.0
 10
34.52016886205122
 20
0.8083558022100777
 30
0.0
 10
34.67993308663291
 20
0.7909143815001207
 30
0.0
 10
34.83383020689405
 20
0.7645652590856462
 30
0.0
 10
34.9824622875438
 20
0.7278174214061427
 30
0.0
 10
35.12475945977715
 20
0.6791829671926816
 30
0.0
 10
35.26175739181378
 20
0.6209683591580146
 30
0.0
 10
35.39182541179743
 20
0.5501201211858937
 30
0.0
 10
35.51662230262697
 20
0.4700933977076662
 30
0.0
 10
35.63609999237659
 20
0.3794918020273858
 30
0.0
 10
35.74738691838903
 20
0.276201304902071
 30
0.0
 10
35.85251541636828
 20
0.1625986249328411
 30
0.0
 10
35.9492098414378
 20
0.0369662934330278
 30
0.0
 10
36.03961152111913
 20
-0.0995529303508398
 30
0.0
 10
36.12342341069321
 20
-0.2469806940106934
 30
0.0
 10
36.20000390937471
 20
-0.4060385577116594
 30
0.0
 10
36.27021130185515
 20
-0.5770135540008957
 30
0.0
 10
36.33299097394752
 20
-0.762468524209064
 30
0.0
 10
36.38587021390102
 20
-0.9645307174006374
 30
0.0
 10
36.43122301049456
 20
-1.183246277722348
 30
0.0
 10
36.46950397083462
 20
-1.419159621643852
 30
0.0
 10
36.49843818962074
 20
-1.672584334169338
 30
0.0
 10
36.51794043556423
 20
-1.943352052613722
 30
0.0
 10
36.53132379986674
 20
-2.230940776614568
 30
0.0
 10
36.53241605676963
 20
-2.428224278279447
 30
0.0
 10
36.53297720797717
 20
-2.529579440140623
 30
0.0
  0
SPLINE
  5
B3
330
1F
100
AcDbEntity
  8
0
  6
Continuous
 62
     7
370
    25
100
AcDbSpline
210
0.0
220
0.0
230
1.0
 70
     8
 71
     3
 72
    31
 73
    27
 74
     0
 42
0.000000001
 43
0.00000001
 40
0.0
 40
0.0
 40
0.0
 40
0.0
 40
0.068490874496954
 40
0.1330765404908785
 40
0.1938289871915769
 40
0.2510828574460498
 40
0.3044008371534405
 40
0.3544083437255266
 40
0.401294781777744
 40
0.4447006845454778
 40
0.485692492089244
 40
0.5246764844274034
 40
0.5623067591777587
 40
0.597946584652534
 40
0.6324735490267259
 40
0.6657520428969362
 40
0.697985299550444
 40
0.7295862241486797
 40
0.7608251968744882
 40
0.7923550795612053
 40
0.8243126039626621
 40
0.8571562719790693
 40
0.8909268871454044
 40
0.9259604429162991
 40
0.9620613229943371
 40
1.0
 40
1.0
 40
1.0
 40
1.0
 10
36.53297720797717
 20
-2.529579440140623
 30
0.0
 10
36.53237075515617
 20
-2.632202669050827
 30
0.0
 10
36.5311924282041
 20
-2.831597761866889
 30
0.0
 10
36.51849678593487
 20
-3.121816918560693
 30
0.0
 10
36.49663429014574
 20
-3.394550573069637
 30
0.0
 10
36.46845632775325
 20
-3.649770509575897
 30
0.0
 10
36.42986022703582
 20
-3.887341950362478
 30
0.0
 10
36.38465882794968
 20
-4.107880045691182
 30
0.0
 10
36.33094490518145
 20
-4.311304856048708
 30
0.0
 10
36.26609729083805
 20
-4.497158021974466
 30
0.0
 10
36.19631486524702
 20
-4.668433287738305
 30
0.0
 10
36.11952488603571
 20
-4.827181026457572
 30
0.0
 10
36.03706579161649
 20
-4.973831214795509
 30
0.0
 10
35.95082894503795
 20
-5.110596270317522
 30
0.0
 10
35.85608652525033
 20
-5.233444428639948
 30
0.0
 10
35.75744991288994
 20
-5.346553169536144
 30
0.0
 10
35.65062429368422
 20
-5.445614035979424
 30
0.0
 10
35.54010743918204
 20
-5.535732180459239
 30
0.0
 10
35.42185067005314
 20
-5.613612342243205
 30
0.0
 10
35.2970735371857
 20
-5.681725047685149
 30
0.0
 10
35.16355148100571
 20
-5.736972541619557
 30
0.0
 10
35.0237183814893
 20
-5.785023860980546
 30
0.0
 10
34.87519075509034
 20
-5.819519523568966
 30
0.0
 10
34.72032868541392
 20
-5.846890698176343
 30
0.0
 10
34.55738381095257
 20
-5.862017688123562
 30
0.0
 10
34.44644437733636
 20
-5.86389429077256
 30
0.0
 10
34.38959780092589
 20
-5.864855882448316
 30
0.0
  0
SPLINE
  5
B4
330
1F
100
AcDbEntity
  8
0
  6
Continuous
 62
     7
370
    25
100
AcDbSpline
210
0.0
220
0.0
230
1.0
 70
     8
 71
     3
 72
    31
 73
    27
 74
     0
 42
0.000000001
 43
0.00000001
 40
0.0
 40
0.0
 40
0.0
 40
0.0
 40
0.0382173379691352
 40
0.0748672030399431
 40
0.1101580815531035
 40
0.1444539266593002
 40
0.1780797262741529
 40
0.2111707725935975
 40
0.2436870542144171
 40
0.2758717334447989
 40
0.3083755160139866
 40
0.3412633249363587
 40
0.375150339470905
 40
0.4096552607042125
 40
0.4451573674923577
 40
0.4820734672046718
 40
0.5205757562184277
 40
0.5605536808978375
 40
0.6031075754382529
 40
0.6486887095294885
 40
0.6979476778875631
 40
0.7507677670183535
 40
0.8073094024459645
 40
0.8676555707911409
 40
0.9318612220995585
 40
1.0
 40
1.0
 40
1.0
 40
1.0
 10
34.38959780092589
 20
-5.864855882448316
 30
0.0
 10
34.33275275886762
 20
-5.863875742315866
 30
0.0
 10
34.22139415746459
 20
-5.861955662210788
 30
0.0
 10
34.0580086639001
 20
-5.847003173740136
 30
0.0
 10
33.90232590307001
 20
-5.819408642395087
 30
0.0
 10
33.75262318445841
 20
-5.784759028792248
 30
0.0
 10
33.60994241539897
 20
-5.737078859973895
 30
0.0
 10
33.47359944590898
 20
-5.680178400620078
 30
0.0
 10
33.34464263547399
 20
-5.612490684486227
 30
0.0
 10
33.22271492299242
 20
-5.534429069250372
 30
0.0
 10
33.10823260434093
 20
-5.44491388332464
 30
0.0
 10
32.99941662494916
 20
-5.344902592026992
 30
0.0
 10
32.89650769210782
 20
-5.234648698271994
 30
0.0
 10
32.80107130582481
 20
-5.112917267099304
 30
0.0
 10
32.71154449431067
 20
-4.981333159357585
 30
0.0
 10
32.62886088057931
 20
-4.838393748517714
 30
0.0
 10
32.5530701553493
 20
-4.684307150943543
 30
0.0
 10
32.48180157075409
 20
-4.518858585794588
 30
0.0
 10
32.41987819194379
 20
-4.338486135116058
 30
0.0
 10
32.36476926000684
 20
-4.141579095838765
 30
0.0
 10
32.31962547252286
 20
-3.92649608542829
 30
0.0
 10
32.28331781788068
 20
-3.693306201531348
 30
0.0
 10
32.254329807226
 20
-3.442503467120706
 30
0.0
 10
32.23276605917763
 20
-3.173966826962769
 30
0.0
 10
32.21999989844398
 20
-2.887571203143857
 30
0.0
 10
32.21883392873689
 20
-2.690717224958585
 30
0.0
 10
32.21823361823358
 20
-2.589365097191905
 30
0.0
  0
SPLINE
  5
B5
330
1F
100
AcDbEntity
  8
0
  6
Continuous
 62
     7
370
    25
100
AcDbSpline
210
0.0
220
0.0
230
1.0
 70
     8
 71
     3
 72
    15
 73
    11
 74
     0
 42
0.000000001
 43
0.00000001
 40
0.0
 40
0.0
 40
0.0
 40
0.0
 40
0.1610711239484213
 40
0.3107888083803543
 40
0.4499038238309442
 40
0.5783763165061849
 40
0.6966172119048389
 40
0.8059873227104086
 40
0.9065617032890805
 40
1.0
 40
1.0
 40
1.0
 40
1.0
 10
32.21823361823358
 20
-2.589365097191905
 30
0.0
 10
32.21932102459662
 20
-2.44854429442987
 30
0.0
 10
32.22141918918076
 20
-2.176828741618599
 30
0.0
 10
32.24800867180475
 20
-1.78427876880517
 30
0.0
 10
32.28703528843604
 20
-1.421434318579102
 30
0.0
 10
32.34435614365096
 20
-1.088902340176629
 30
0.0
 10
32.41523258836424
 20
-0.7854512321430519
 30
0.0
 10
32.50599356638467
 20
-0.513079971518161
 30
0.0
 10
32.60931833752876
 20
-0.2680196911137094
 30
0.0
 10
32.69736431680814
 20
-0.1228445056422718
 30
0.0
 10
32.73976807336179
 20
-0.0529267959098537
 30
0.0
  0
SPLINE
  5
B6
330
1F
100
AcDbEntity
  8
0
  6
Continuous
 62
     7
370
    25
100
AcDbSpline
210
0.0
220
0.0
230
1.0
 70
     8
 71
     3
 72
    23
 73
    19
 74
     0
 42
0.000000001
 43
0.00000001
 40
0.0
 40
0.0
 40
0.0
 40
0.0
 40
0.0564668684718646
 40
0.1111640986969634
 40
0.1649370968759872
 40
0.2183217523125947
 40
0.2723929232482761
 40
0.3279763434477026
 40
0.3852910519840218
 40
0.4449029182928197
 40
0.5068438192198351
 40
0.569488185262969
 40
0.634153215553723
 40
0.7009760953100507
 40
0.7708974968462684
 40
0.8436256105557798
 40
0.9196596761155402
 40
1.0
 40
1.0
 40
1.0
 40
1.0
 10
44.08759459579769
 20
-0.3289584465508804
 30
0.0
 10
44.05744226129236
 20
-0.3300249196247809
 30
0.0
 10
43.99808254860413
 20
-0.3321244431374725
 30
0.0
 10
43.91082841066353
 20
-0.3461004031076163
 30
0.0
 10
43.82779982967493
 20
-0.3707315737239711
 30
0.0
 10
43.7480726513293
 20
-0.4037338755277437
 30
0.0
 10
43.67249774505502
 20
-0.4474786635103485
 30
0.0
 10
43.60126573470855
 20
-0.5014010841095006
 30
0.0
 10
43.533626101054
 20
-0.5641308461084623
 30
0.0
 10
43.4698890665877
 20
-0.6354718018671552
 30
0.0
 10
43.4118800446501
 20
-0.7150883294316184
 30
0.0
 10
43.36035664347988
 20
-0.8022532946369041
 30
0.0
 10
43.31775536806492
 20
-0.8969125916000423
 30
0.0
 10
43.28024765681788
 20
-0.997816573016896
 30
0.0
 10
43.25131991512099
 20
-1.106049029903061
 30
0.0
 10
43.23025693056267
 20
-1.22096220308882
 30
0.0
 10
43.21424414999162
 20
-1.342369143875735
 30
0.0
 10
43.21052765419131
 20
-1.425824999411304
 30
0.0
 10
43.2086182336182
 20
-1.46870203629447
 30
0.0
  0
LINE
  5
B7
330
1F
100
AcDbEntity
  8
0
  6
Continuous
 62
     7
370
    25
100
AcDbLine
 10
43.2086182336
 20
-1.4687020363
 30
0.0
 11
42.0688746439
 21
-1.4687020363
 31
0.0
  0
SPLINE
  5
B8
330
1F
100
AcDbEntity
  8
0
  6
Continuous
 62
     7
370
    25
100
AcDbSpline
210
0.0
220
0.0
230
1.0
 70
     8
 71
     3
 72
    23
 73
    19
 74
     0
 42
0.000000001
 43
0.00000001
 40
0.0
 40
0.0
 40
0.0
 40
0.0
 40
0.0749399102007727
 40
0.1464280851715763
 40
0.2147529716359186
 40
0.2804215366912471
 40
0.3436044295193646
 40
0.4055426388186586
 40
0.4661994619307756
 40
0.526538144824467
 40
0.5859019063092086
 40
0.6440895746157924
 40
0.7016130759883662
 40
0.7587535874365701
 40
0.8166294493897648
 40
0.8756554749553039
 40
0.9366243322865283
 40
0.9999999999999999
 40
0.9999999999999999
 40
0.9999999999999999
 40
0.9999999999999999
 10
42.06887464387461
 20
-1.46870203629447
 30
0.0
 10
42.07379702164145
 20
-1.38248646346602
 30
0.0
 10
42.08341505226038
 20
-1.214026410506013
 30
0.0
 10
42.12167314710909
 20
-0.9693327895156368
 30
0.0
 10
42.17293768123616
 20
-0.7381242252602932
 30
0.0
 10
42.24135700748075
 20
-0.5212095104897
 30
0.0
 10
42.32733036768838
 20
-0.3186674650392878
 30
0.0
 10
42.42864544578228
 20
-0.129807612043071
 30
0.0
 10
42.54789061184128
 20
0.0443756971882338
 30
0.0
 10
42.68252793655464
 20
0.2030424524109258
 30
0.0
 10
42.83027164852502
 20
0.3453838626795174
 30
0.0
 10
42.98805444322011
 20
0.4715926993072164
 30
0.0
 10
43.15828982112015
 20
0.5757370550386582
 30
0.0
 10
43.33786744260815
 20
0.6614382179500913
 30
0.0
 10
43.52675672932035
 20
0.7299094647497212
 30
0.0
 10
43.72674487059304
 20
0.7756880341823491
 30
0.0
 10
43.93610026080118
 20
0.8066897298592818
 30
0.0
 10
44.07942097844225
 20
0.8094025026213614
 30
0.0
 10
44.15246839387461
 20
0.8107851431927091
 30
0.0
  0
SPLINE
  5
B9
330
1F
100
AcDbEntity
  8
0
  6
Continuous
 62
     7
370
    25
100
AcDbSpline
210
0.0
220
0.0
230
1.0
 70
     8
 71
     3
 72
    19
 73
    15
 74
     0
 42
0.000000001
 43
0.00000001
 40
0.0
 40
0.0
 40
0.0
 40
0.0
 40
0.0896145288821149
 40
0.1749485612865248
 40
0.2575481258745663
 40
0.3389007874900928
 40
0.420053185883191
 40
0.5014014271193622
 40
0.5842520267159574
 40
0.6703704767286306
 40
0.7564732666582511
 40
0.8392065940498483
 40
0.9201204666578204
 40
1.0
 40
1.0
 40
1.0
 40
1.0
 10
44.15246839387461
 20
0.8107851431927091
 30
0.0
 10
44.24213306002981
 20
0.8079873692324182
 30
0.0
 10
44.41717950102296
 20
0.8025254588116019
 30
0.0
 10
44.67153586435581
 20
0.7559335502200774
 30
0.0
 10
44.90907689724491
 20
0.6780013832261274
 30
0.0
 10
45.12962992967386
 20
0.5691095933553344
 30
0.0
 10
45.33131735489322
 20
0.4307739888614492
 30
0.0
 10
45.51410572764495
 20
0.2658314207139905
 30
0.0
 10
45.67246723607831
 20
0.0708213073278212
 30
0.0
 10
45.80740593867979
 20
-0.1461422986829696
 30
0.0
 10
45.91952387326433
 20
-0.3758762224180164
 30
0.0
 10
45.99809145157064
 20
-0.6134306262223905
 30
0.0
 10
46.04973307519499
 20
-0.8525017794365263
 30
0.0
 10
46.05524097397684
 20
-1.013480193371375
 30
0.0
 10
46.05797720797717
 20
-1.093451635653444
 30
0.0
  0
SPLINE
  5
BA
330
1F
100
AcDbEntity
  8
0
  6
Continuous
 62
     7
370
    25
100
AcDbSpline
210
0.0
220
0.0
230
1.0
 70
     8
 71
     3
 72
    23
 73
    19
 74
     0
 42
0.000000001
 43
0.00000001
 40
0.0
 40
0.0
 40
0.0
 40
0.0
 40
0.0455177516513178
 40
0.0916159906181647
 40
0.1392465550335724
 40
0.188241563723404
 40
0.238673079372537
 40
0.2906638743206417
 40
0.3448398555786326
 40
0.4004316067351774
 40
0.4591437176132939
 40
0.5225510475946142
 40
0.5901008583230448
 40
0.6622596565248674
 40
0.7396813070012568
 40
0.821575471385422
 40
0.9083300466844447
 40
1.0
 40
1.0
 40
1.0
 40
1.0
 10
46.05797720797717
 20
-1.093451635653444
 30
0.0
 10
46.05691186295881
 20
-1.141824016065669
 30
0.0
 10
46.05476758659046
 20
-1.239185669250408
 30
0.0
 10
46.03985814806774
 20
-1.386517746447956
 30
0.0
 10
46.01749104417417
 20
-1.536592692353913
 30
0.0
 10
45.98376690239363
 20
-1.689281831689182
 30
0.0
 10
45.94171013283142
 20
-1.844627965625376
 30
0.0
 10
45.89068919248883
 20
-2.003095991747164
 30
0.0
 10
45.8295206004606
 20
-2.163787454446943
 30
0.0
 10
45.75922513636203
 20
-2.328510908654855
 30
0.0
 10
45.67536246953558
 20
-2.497801146906419
 30
0.0
 10
45.57771605095608
 20
-2.674195895806044
 30
0.0
 10
45.4636941234027
 20
-2.85753867931757
 30
0.0
 10
45.33467392794823
 20
-3.048864710503733
 30
0.0
 10
45.19002884447179
 20
-3.24787223858292
 30
0.0
 10
45.02905276341643
 20
-3.453961790776241
 30
0.0
 10
44.85359975121623
 20
-3.667859560906927
 30
0.0
 10
44.72907581272344
 20
-3.810838216622074
 30
0.0
 10
44.66509860220793
 20
-3.884296988217547
 30
0.0
  0
LINE
  5
BB
330
1F
100
AcDbEntity
  8
0
  6
Continuous
 62
     7
370
    25
100
AcDbLine
 10
44.6650986022
 20
-3.8842969882
 30
0.0
 11
44.0023682336
 21
-4.6437020363
 31
0.0
  0
LINE
  5
BC
330
1F
100
AcDbEntity
  8
0
  6
Continuous
 62
     7
370
    25
100
AcDbLine
 10
44.0023682336
 20
-4.6437020363
 30
0.0
 11
46.1393874644
 21
-4.6437020363
 31
0.0
  0
LINE
  5
BD
330
1F
100
AcDbEntity
  8
0
  6
Continuous
 62
     7
370
    25
100
AcDbLine
 10
46.1393874644
 20
-4.6437020363
 30
0.0
 11
46.1393874644
 21
-5.7020353696
 31
0.0
  0
LINE
  5
BE
330
1F
100
AcDbEntity
  8
0
  6
Continuous
 62
     7
370
    25
100
AcDbLine
 10
46.1393874644
 20
-5.7020353696
 30
0.0
 11
41.9060541311
 21
-5.7020353696
 31
0.0
  0
LINE
  5
BF
330
1F
100
AcDbEntity
  8
0
  6
Continuous
 62
     7
370
    25
100
AcDbLine
 10
41.9060541311
 20
-5.7020353696
 30
0.0
 11
41.9060541311
 21
-5.1245313632
 31
0.0
  0
LINE
  5
C0
330
1F
100
AcDbEntity
  8
0
  6
Continuous
 62
     7
370
    25
100
AcDbLine
 10
41.9060541311
 20
-5.1245313632
 30
0.0
 11
43.78612224
 21
-3.1236199049
 31
0.0
  0
SPLINE
  5
C1
330
1F
100
AcDbEntity
  8
0
  6
Continuous
 62
     7
370
    25
100
AcDbSpline
210
0.0
220
0.0
230
1.0
 70
     8
 71
     3
 72
    19
 73
    15
 74
     0
 42
0.000000001
 43
0.00000001
 40
0.0
 40
0.0
 40
0.0
 40
0.0
 40
0.1038439242634195
 40
0.2011148859465235
 40
0.2911157193792185
 40
0.3743484039713641
 40
0.4507073961858709
 40
0.5200404120163624
 40
0.5832583224453375
 40
0.6395782998253255
 40
0.7415365099482683
 40
0.8350600486817366
 40
0.9208729600458342
 40
1.0
 40
1.0
 40
1.0
 40
1.0
 10
43.78612224002845
 20
-3.123619904884214
 30
0.0
 10
43.84055504313193
 20
-3.065252696317121
 30
0.0
 10
43.94597524046705
 20
-2.952212722363411
 30
0.0
 10
44.09597731714923
 20
-2.786201494632348
 30
0.0
 10
44.2317159461056
 20
-2.628660802152011
 30
0.0
 10
44.35037647646967
 20
-2.477913154360928
 30
0.0
 10
44.45818606011864
 20
-2.338848191488915
 30
0.0
 10
44.55033747618359
 20
-2.207274322011059
 30
0.0
 10
44.62767383797657
 20
-2.084381021100227
 30
0.0
 10
44.71163342747189
 20
-1.936193163331544
 30
0.0
 10
44.79136743804822
 20
-1.759452773038678
 30
0.0
 10
44.86452821850295
 20
-1.555840596542593
 30
0.0
 10
44.90912477704079
 20
-1.361234248886532
 30
0.0
 10
44.91528051246028
 20
-1.23442456957128
 30
0.0
 10
44.91823361823358
 20
-1.173589856807291
 30
0.0
  0
SPLINE
  5
C2
330
1F
100
AcDbEntity
  8
0
  6
Continuous
 62
     7
370
    25
100
AcDbSpline
210
0.0
220
0.0
230
1.0
 70
     8
 71
     3
 72
    15
 73
    11
 74
     0
 42
0.000000001
 43
0.00000001
 40
0.0
 40
0.0
 40
0.0
 40
0.0
 40
0.1327548717475876
 40
0.2572338481110653
 40
0.378600731676354
 40
0.5014062774984548
 40
0.6239419536469551
 40
0.7436418348746466
 40
0.8681208112381216
 40
1.0
 40
1.0
 40
1.0
 40
1.0
 10
44.91823361823358
 20
-1.173589856807291
 30
0.0
 10
44.91602565240119
 20
-1.114736965558543
 30
0.0
 10
44.91174736460589
 20
-1.000700053096591
 30
0.0
 10
44.86473244847766
 20
-0.8384831522778338
 30
0.0
 10
44.79189530977599
 20
-0.6916123080107417
 30
0.0
 10
44.68925749459389
 20
-0.5644761867334472
 30
0.0
 10
44.56493095458593
 20
-0.4600000055716247
 30
0.0
 10
44.42125995913132
 20
-0.3822935572365906
 30
0.0
 10
44.25941584945034
 20
-0.3374572927128257
 30
0.0
 10
44.14596004496654
 20
-0.3318453942544619
 30
0.0
 10
44.08759459579768
 20
-0.3289584465508804
 30
0.0
  0
LINE
  5
C3
330
1F
100
AcDbEntity
  8
0
  6
Continuous
 62
     7
370
    25
100
AcDbLine
 10
70.8618233618
 20
-12.4074074074
 30
0.0
 11
70.8618233618
 21
1.0033366682
 31
0.0
  0
LINE
  5
C4
330
1F
100
AcDbEntity
  8
0
  6
Continuous
 62
     7
370
    25
100
AcDbLine
 10
70.8618233618
 20
1.0033366682
 30
0.0
 11
67.5799736178
 21
0.9925925926
 31
0.0
  0
LINE
  5
C5
330
1F
100
AcDbEntity
  8
0
  6
Continuous
 62
     7
370
    25
100
AcDbLine
 10
67.5799736178
 20
0.9925925926
 30
0.0
 11
67.5799736178
 21
-0.2074074074
 31
0.0
  0
LINE
  5
C6
330
1F
100
AcDbEntity
  8
0
  6
Continuous
 62
     7
370
    25
100
AcDbLine
 10
67.5799736178
 20
-0.2074074074
 30
0.0
 11
65.1599736178
 21
-0.2074074074
 31
0.0
  0
LINE
  5
C7
330
1F
100
AcDbEntity
  8
0
  6
Continuous
 62
     7
370
    25
100
AcDbLine
 10
65.1599736178
 20
-0.2074074074
 30
0.0
 11
65.1599736178
 21
0.9925925926
 31
0.0
  0
LINE
  5
C8
330
1F
100
AcDbEntity
  8
0
  6
Continuous
 62
     7
370
    25
100
AcDbLine
 10
65.1599736178
 20
0.9925925926
 30
0.0
 11
60.6618233618
 21
0.9925925926
 31
0.0
  0
LINE
  5
C9
330
1F
100
AcDbEntity
  8
0
  6
Continuous
 62
     7
370
    25
100
AcDbLine
 10
60.6618233618
 20
0.9925925926
 30
0.0
 11
60.6618233618
 21
4.1925925926
 31
0.0
  0
LINE
  5
CA
330
1F
100
AcDbEntity
  8
0
  6
Continuous
 62
     7
370
    25
100
AcDbLine
 10
60.6618233618
 20
4.1925925926
 30
0.0
 11
65.1599736178
 21
4.1925925926
 31
0.0
  0
LINE
  5
CB
330
1F
100
AcDbEntity
  8
0
  6
Continuous
 62
     7
370
    25
100
AcDbLine
 10
65.1599736178
 20
4.1925925926
 30
0.0
 11
65.1599736178
 21
5.3925925926
 31
0.0
  0
LINE
  5
CC
330
1F
100
AcDbEntity
  8
0
  6
Continuous
 62
     7
370
    25
100
AcDbLine
 10
65.1599736178
 20
5.3925925926
 30
0.0
 11
67.5799736178
 21
5.3925925926
 31
0.0
  0
LINE
  5
CD
330
1F
100
AcDbEntity
  8
0
  6
Continuous
 62
     7
370
    25
100
AcDbLine
 10
67.5799736178
 20
5.3925925926
 30
0.0
 11
67.5799736178
 21
4.1925925926
 31
0.0
  0
LINE
  5
CE
330
1F
100
AcDbEntity
  8
0
  6
Continuous
 62
     7
370
    25
100
AcDbLine
 10
67.5799736178
 20
4.1925925926
 30
0.0
 11
70.8618233618
 21
4.1800925926
 31
0.0
  0
LINE
  5
CF
330
1F
100
AcDbEntity
  8
0
  6
Continuous
 62
     7
370
    25
100
AcDbLine
 10
70.8618233618
 20
4.1800925926
 30
0.0
 11
70.8618233618
 21
17.5925925926
 31
0.0
  0
LINE
  5
D0
330
1F
100
AcDbEntity
  8
0
  6
Continuous
 62
     7
370
    25
100
AcDbLine
 10
70.8618233618
 20
17.5925925926
 30
0.0
 11
-89.1381766382
 21
17.5925925926
 31
0.0
  0
LINE
  5
D1
330
1F
100
AcDbEntity
  8
0
  6
Continuous
 62
     7
370
    25
100
AcDbLine
 10
-89.1381766382
 20
17.5925925926
 30
0.0
 11
-89.1381766382
 21
4.1800925926
 31
0.0
  0
LINE
  5
D2
330
1F
100
AcDbEntity
  8
0
  6
Continuous
 62
     7
370
    25
100
AcDbLine
 10
-89.1381766382
 20
4.1800925926
 30
0.0
 11
-85.8563268942
 21
4.1925925926
 31
0.0
  0
LINE
  5
D3
330
1F
100
AcDbEntity
  8
0
  6
Continuous
 62
     7
370
    25
100
AcDbLine
 10
-85.8563268942
 20
4.1925925926
 30
0.0
 11
-85.8563268942
 21
5.3925925926
 31
0.0
  0
LINE
  5
D4
330
1F
100
AcDbEntity
  8
0
  6
Continuous
 62
     7
370
    25
100
AcDbLine
 10
-85.8563268942
 20
5.3925925926
 30
0.0
 11
-83.4363268942
 21
5.3925925926
 31
0.0
  0
LINE
  5
D5
330
1F
100
AcDbEntity
  8
0
  6
Continuous
 62
     7
370
    25
100
AcDbLine
 10
-83.4363268942
 20
5.3925925926
 30
0.0
 11
-83.4363268942
 21
4.1925925926
 31
0.0
  0
LINE
  5
D6
330
1F
100
AcDbEntity
  8
0
  6
Continuous
 62
     7
370
    25
100
AcDbLine
 10
-83.4363268942
 20
4.1925925926
 30
0.0
 11
-78.9381766382
 21
4.1925925926
 31
0.0
  0
LINE
  5
D7
330
1F
100
AcDbEntity
  8
0
  6
Continuous
 62
     7
370
    25
100
AcDbLine
 10
-78.9381766382
 20
4.1925925926
 30
0.0
 11
-78.9381766382
 21
0.9925925926
 31
0.0
  0
LINE
  5
D8
330
1F
100
AcDbEntity
  8
0
  6
Continuous
 62
     7
370
    25
100
AcDbLine
 10
-78.9381766382
 20
0.9925925926
 30
0.0
 11
-83.4363268942
 21
0.9925925926
 31
0.0
  0
LINE
  5
D9
330
1F
100
AcDbEntity
  8
0
  6
Continuous
 62
     7
370
    25
100
AcDbLine
 10
-83.4363268942
 20
0.9925925926
 30
0.0
 11
-83.4363268942
 21
-0.2074074074
 31
0.0
  0
LINE
  5
DA
330
1F
100
AcDbEntity
  8
0
  6
Continuous
 62
     7
370
    25
100
AcDbLine
 10
-83.4363268942
 20
-0.2074074074
 30
0.0
 11
-85.8563268942
 21
-0.2074074074
 31
0.0
  0
LINE
  5
DB
330
1F
100
AcDbEntity
  8
0
  6
Continuous
 62
     7
370
    25
100
AcDbLine
 10
-85.8563268942
 20
-0.2074074074
 30
0.0
 11
-85.8563268942
 21
0.9925925926
 31
0.0
  0
LINE
  5
DC
330
1F
100
AcDbEntity
  8
0
  6
Continuous
 62
     7
370
    25
100
AcDbLine
 10
-85.8563268942
 20
0.9925925926
 30
0.0
 11
-89.1381766382
 21
1.0033366682
 31
0.0
  0
LINE
  5
DD
330
1F
100
AcDbEntity
  8
0
  6
Continuous
 62
     7
370
    25
100
AcDbLine
 10
-89.1381766382
 20
1.0033366682
 30
0.0
 11
-89.1381766382
 21
-12.4074074074
 31
0.0
  0
LINE
  5
DE
330
1F
100
AcDbEntity
  8
0
  6
Continuous
 62
     7
370
    25
100
AcDbLine
 10
-89.1381766382
 20
-12.4074074074
 30
0.0
 11
-54.1381766382
 21
-12.4074074074
 31
0.0
  0
LINE
  5
DF
330
1F
100
AcDbEntity
  8
0
  6
Continuous
 62
     7
370
    25
100
AcDbLine
 10
-54.1381766382
 20
-12.4074074074
 30
0.0
 11
-54.1381766382
 21
-17.4074074074
 31
0.0
  0
LINE
  5
E0
330
1F
100
AcDbEntity
  8
0
  6
Continuous
 62
     7
370
    25
100
AcDbLine
 10
-54.1381766382
 20
-17.4074074074
 30
0.0
 11
-4.1381766382
 21
-17.4074074074
 31
0.0
  0
LINE
  5
E1
330
1F
100
AcDbEntity
  8
0
  6
Continuous
 62
     7
370
    25
100
AcDbLine
 10
-4.1381766382
 20
-17.4074074074
 30
0.0
 11
-4.1381766382
 21
-12.4074074074
 31
0.0
  0
LINE
  5
E2
330
1F
100
AcDbEntity
  8
0
  6
Continuous
 62
     7
370
    25
100
AcDbLine
 10
-4.1381766382
 20
-12.4074074074
 30
0.0
 11
70.8618233618
 21
-12.4074074074
 31
0.0
  0
SPLINE
  5
E3
330
1F
100
AcDbEntity
  8
0
  6
Continuous
 62
     7
370
    25
100
AcDbSpline
210
0.0
220
0.0
230
1.0
 70
     8
 71
     3
 72
    23
 73
    19
 74
     0
 42
0.000000001
 43
0.00000001
 40
0.0
 40
0.0
 40
0.0
 40
0.0
 40
0.0564668684718646
 40
0.1111640986969633
 40
0.164937096875983
 40
0.2183217523125944
 40
0.2723929232482759
 40
0.3279763434477057
 40
0.3852910519840217
 40
0.4449029182928197
 40
0.506843819219835
 40
0.5694881852629688
 40
0.6341532155537227
 40
0.7009760953100505
 40
0.7708974968462693
 40
0.8436256105557799
 40
0.9196596761155403
 40
1.0
 40
1.0
 40
1.0
 40
1.0
 10
39.2029792111823
 20
-0.3289584465508804
 30
0.0
 10
39.17282687667697
 20
-0.330024919624781
 30
0.0
 10
39.11346716398873
 20
-0.3321244431374727
 30
0.0
 10
39.02621302604816
 20
-0.3461004031076149
 30
0.0
 10
38.94318444505955
 20
-0.3707315737239741
 30
0.0
 10
38.8634572667139
 20
-0.403733875527741
 30
0.0
 10
38.78788236043963
 20
-0.4474786635103513
 30
0.0
 10
38.71665035009317
 20
-0.5014010841094957
 30
0.0
 10
38.64901071643864
 20
-0.5641308461084655
 30
0.0
 10
38.5852736819723
 20
-0.6354718018671544
 30
0.0
 10
38.52726466003474
 20
-0.7150883294316193
 30
0.0
 10
38.4757412588645
 20
-0.802253294636904
 30
0.0
 10
38.43313998344954
 20
-0.8969125916000423
 30
0.0
 10
38.3956322722025
 20
-0.9978165730168971
 30
0.0
 10
38.36670453050559
 20
-1.106049029903058
 30
0.0
 10
38.3456415459473
 20
-1.220962203088821
 30
0.0
 10
38.32962876537623
 20
-1.342369143875735
 30
0.0
 10
38.32591226957593
 20
-1.425824999411304
 30
0.0
 10
38.32400284900282
 20
-1.46870203629447
 30
0.0
  0
LINE
  5
E4
330
1F
100
AcDbEntity
  8
0
  6
Continuous
 62
     7
370
    25
100
AcDbLine
 10
38.324002849
 20
-1.4687020363
 30
0.0
 11
37.1842592593
 21
-1.4687020363
 31
0.0
  0
SPLINE
  5
E5
330
1F
100
AcDbEntity
  8
0
  6
Continuous
 62
     7
370
    25
100
AcDbSpline
210
0.0
220
0.0
230
1.0
 70
     8
 71
     3
 72
    23
 73
    19
 74
     0
 42
0.000000001
 43
0.00000001
 40
0.0
 40
0.0
 40
0.0
 40
0.0
 40
0.0749399102007727
 40
0.1464280851715763
 40
0.2147529716359186
 40
0.2804215366912471
 40
0.3436044295193646
 40
0.4055426388186586
 40
0.4661994619307756
 40
0.526538144824467
 40
0.5859019063092086
 40
0.6440895746157924
 40
0.7016130759883662
 40
0.7587535874365701
 40
0.8166294493897648
 40
0.8756554749553039
 40
0.9366243322865283
 40
0.9999999999999999
 40
0.9999999999999999
 40
0.9999999999999999
 40
0.9999999999999999
 10
37.18425925925922
 20
-1.46870203629447
 30
0.0
 10
37.18918163702607
 20
-1.38248646346602
 30
0.0
 10
37.19879966764499
 20
-1.214026410506013
 30
0.0
 10
37.23705776249371
 20
-0.9693327895156368
 30
0.0
 10
37.28832229662078
 20
-0.7381242252602932
 30
0.0
 10
37.35674162286537
 20
-0.5212095104897
 30
0.0
 10
37.442714983073
 20
-0.3186674650392878
 30
0.0
 10
37.54403006116691
 20
-0.129807612043071
 30
0.0
 10
37.66327522722591
 20
0.0443756971882338
 30
0.0
 10
37.79791255193926
 20
0.2030424524109258
 30
0.0
 10
37.94565626390964
 20
0.3453838626795174
 30
0.0
 10
38.10343905860473
 20
0.4715926993072164
 30
0.0
 10
38.27367443650477
 20
0.5757370550386582
 30
0.0
 10
38.45325205799277
 20
0.6614382179500913
 30
0.0
 10
38.64214134470496
 20
0.7299094647497212
 30
0.0
 10
38.84212948597767
 20
0.7756880341823491
 30
0.0
 10
39.05148487618578
 20
0.8066897298592818
 30
0.0
 10
39.19480559382688
 20
0.8094025026213614
 30
0.0
 10
39.26785300925923
 20
0.8107851431927091
 30
0.0
  0
SPLINE
  5
E6
330
1F
100
AcDbEntity
  8
0
  6
Continuous
 62
     7
370
    25
100
AcDbSpline
210
0.0
220
0.0
230
1.0
 70
     8
 71
     3
 72
    19
 73
    15
 74
     0
 42
0.000000001
 43
0.00000001
 40
0.0
 40
0.0
 40
0.0
 40
0.0
 40
0.0896145288821149
 40
0.1749485612865248
 40
0.2575481258745663
 40
0.3389007874900948
 40
0.4200531858831911
 40
0.5014014271193624
 40
0.5842520267159574
 40
0.6703704767286307
 40
0.7564732666582513
 40
0.8392065940498484
 40
0.9201204666578205
 40
1.0
 40
1.0
 40
1.0
 40
1.0
 10
39.26785300925923
 20
0.8107851431927091
 30
0.0
 10
39.35751767541444
 20
0.8079873692324182
 30
0.0
 10
39.53256411640757
 20
0.8025254588116014
 30
0.0
 10
39.78692047974043
 20
0.755933550220078
 30
0.0
 10
40.02446151262953
 20
0.6780013832261251
 30
0.0
 10
40.24501454505848
 20
0.5691095933553387
 30
0.0
 10
40.44670197027785
 20
0.4307739888614465
 30
0.0
 10
40.62949034302955
 20
0.2658314207139914
 30
0.0
 10
40.78785185146293
 20
0.0708213073278206
 30
0.0
 10
40.9227905540644
 20
-0.1461422986829695
 30
0.0
 10
41.03490848864896
 20
-0.3758762224180159
 30
0.0
 10
41.11347606695526
 20
-0.6134306262223909
 30
0.0
 10
41.16511769057959
 20
-0.8525017794365258
 30
0.0
 10
41.17062558936145
 20
-1.013480193371375
 30
0.0
 10
41.17336182336179
 20
-1.093451635653444
 30
0.0
  0
SPLINE
  5
E7
330
1F
100
AcDbEntity
  8
0
  6
Continuous
 62
     7
370
    25
100
AcDbSpline
210
0.0
220
0.0
230
1.0
 70
     8
 71
     3
 72
    23
 73
    19
 74
     0
 42
0.000000001
 43
0.00000001
 40
0.0
 40
0.0
 40
0.0
 40
0.0
 40
0.0455177516513178
 40
0.0916159906181647
 40
0.1392465550335724
 40
0.188241563723404
 40
0.238673079372537
 40
0.2906638743206417
 40
0.3448398555786326
 40
0.4004316067351774
 40
0.4591437176132939
 40
0.5225510475946142
 40
0.5901008583230448
 40
0.6622596565248674
 40
0.7396813070012568
 40
0.821575471385422
 40
0.9083300466844447
 40
1.0
 40
1.0
 40
1.0
 40
1.0
 10
41.17336182336179
 20
-1.093451635653444
 30
0.0
 10
41.17229647834343
 20
-1.141824016065669
 30
0.0
 10
41.17015220197508
 20
-1.239185669250408
 30
0.0
 10
41.15524276345235
 20
-1.386517746447956
 30
0.0
 10
41.1328756595588
 20
-1.536592692353913
 30
0.0
 10
41.09915151777825
 20
-1.689281831689182
 30
0.0
 10
41.05709474821603
 20
-1.844627965625376
 30
0.0
 10
41.00607380787346
 20
-2.003095991747164
 30
0.0
 10
40.9449052158452
 20
-2.163787454446943
 30
0.0
 10
40.87460975174665
 20
-2.328510908654855
 30
0.0
 10
40.7907470849202
 20
-2.497801146906419
 30
0.0
 10
40.69310066634069
 20
-2.674195895806044
 30
0.0
 10
40.57907873878733
 20
-2.85753867931757
 30
0.0
 10
40.45005854333286
 20
-3.048864710503733
 30
0.0
 10
40.3054134598564
 20
-3.24787223858292
 30
0.0
 10
40.14443737880104
 20
-3.453961790776241
 30
0.0
 10
39.96898436660085
 20
-3.667859560906927
 30
0.0
 10
39.84446042810806
 20
-3.810838216622074
 30
0.0
 10
39.78048321759255
 20
-3.884296988217547
 30
0.0
  0
LINE
  5
E8
330
1F
100
AcDbEntity
  8
0
  6
Continuous
 62
     7
370
    25
100
AcDbLine
 10
39.7804832176
 20
-3.8842969882
 30
0.0
 11
39.117752849
 21
-4.6437020363
 31
0.0
  0
LINE
  5
E9
330
1F
100
AcDbEntity
  8
0
  6
Continuous
 62
     7
370
    25
100
AcDbLine
 10
39.117752849
 20
-4.6437020363
 30
0.0
 11
41.2547720798
 21
-4.6437020363
 31
0.0
  0
LINE
  5
EA
330
1F
100
AcDbEntity
  8
0
  6
Continuous
 62
     7
370
    25
100
AcDbLine
 10
41.2547720798
 20
-4.6437020363
 30
0.0
 11
41.2547720798
 21
-5.7020353696
 31
0.0
  0
LINE
  5
EB
330
1F
100
AcDbEntity
  8
0
  6
Continuous
 62
     7
370
    25
100
AcDbLine
 10
41.2547720798
 20
-5.7020353696
 30
0.0
 11
37.0214387464
 21
-5.7020353696
 31
0.0
  0
LINE
  5
EC
330
1F
100
AcDbEntity
  8
0
  6
Continuous
 62
     7
370
    25
100
AcDbLine
 10
37.0214387464
 20
-5.7020353696
 30
0.0
 11
37.0214387464
 21
-5.1245313632
 31
0.0
  0
LINE
  5
ED
330
1F
100
AcDbEntity
  8
0
  6
Continuous
 62
     7
370
    25
100
AcDbLine
 10
37.0214387464
 20
-5.1245313632
 30
0.0
 11
38.9015068554
 21
-3.1236199049
 31
0.0
  0
SPLINE
  5
EE
330
1F
100
AcDbEntity
  8
0
  6
Continuous
 62
     7
370
    25
100
AcDbSpline
210
0.0
220
0.0
230
1.0
 70
     8
 71
     3
 72
    19
 73
    15
 74
     0
 42
0.000000001
 43
0.00000001
 40
0.0
 40
0.0
 40
0.0
 40
0.0
 40
0.1038439242634195
 40
0.2011148859465235
 40
0.2911157193792185
 40
0.3743484039713642
 40
0.450707396185871
 40
0.5200404120163609
 40
0.5832583224453375
 40
0.6395782998253255
 40
0.7415365099482683
 40
0.8350600486817366
 40
0.9208729600458341
 40
1.0
 40
1.0
 40
1.0
 40
1.0
 10
38.90150685541307
 20
-3.123619904884214
 30
0.0
 10
38.95593965851653
 20
-3.06525269631712
 30
0.0
 10
39.06135985585164
 20
-2.95221272236341
 30
0.0
 10
39.21136193253385
 20
-2.786201494632348
 30
0.0
 10
39.34710056149023
 20
-2.628660802152011
 30
0.0
 10
39.46576109185428
 20
-2.477913154360928
 30
0.0
 10
39.57357067550326
 20
-2.338848191488917
 30
0.0
 10
39.66572209156821
 20
-2.207274322011055
 30
0.0
 10
39.74305845336119
 20
-2.084381021100229
 30
0.0
 10
39.82701804285649
 20
-1.936193163331543
 30
0.0
 10
39.90675205343283
 20
-1.759452773038677
 30
0.0
 10
39.97991283388757
 20
-1.555840596542594
 30
0.0
 10
40.0245093924254
 20
-1.361234248886531
 30
0.0
 10
40.03066512784489
 20
-1.234424569571279
 30
0.0
 10
40.03361823361819
 20
-1.173589856807291
 30
0.0
  0
SPLINE
  5
EF
330
1F
100
AcDbEntity
  8
0
  6
Continuous
 62
     7
370
    25
100
AcDbSpline
210
0.0
220
0.0
230
1.0
 70
     8
 71
     3
 72
    15
 73
    11
 74
     0
 42
0.000000001
 43
0.00000001
 40
0.0
 40
0.0
 40
0.0
 40
0.0
 40
0.1327548717475876
 40
0.2572338481110653
 40
0.378600731676354
 40
0.5014062774984548
 40
0.6239419536469551
 40
0.7436418348746466
 40
0.8681208112381216
 40
1.0
 40
1.0
 40
1.0
 40
1.0
 10
40.03361823361819
 20
-1.173589856807291
 30
0.0
 10
40.0314102677858
 20
-1.114736965558543
 30
0.0
 10
40.02713197999051
 20
-1.000700053096591
 30
0.0
 10
39.98011706386228
 20
-0.8384831522778338
 30
0.0
 10
39.9072799251606
 20
-0.6916123080107417
 30
0.0
 10
39.80464210997852
 20
-0.5644761867334472
 30
0.0
 10
39.68031556997053
 20
-0.4600000055716247
 30
0.0
 10
39.53664457451595
 20
-0.3822935572365906
 30
0.0
 10
39.37480046483495
 20
-0.3374572927128257
 30
0.0
 10
39.26134466035116
 20
-0.3318453942544619
 30
0.0
 10
39.2029792111823
 20
-0.3289584465508804
 30
0.0
  0
SPLINE
  5
F0
330
1F
100
AcDbEntity
  8
0
  6
Continuous
 62
     7
370
    25
100
AcDbSpline
210
0.0
220
0.0
230
1.0
 70
     8
 71
     3
 72
    23
 73
    19
 74
     0
 42
0.000000001
 43
0.00000001
 40
0.0
 40
0.0
 40
0.0
 40
0.0
 40
0.0564668684718624
 40
0.1111640986969633
 40
0.1649370968759851
 40
0.2183217523125945
 40
0.272392923248276
 40
0.3279763434477041
 40
0.3852910519840201
 40
0.4449029182928195
 40
0.5068438192198361
 40
0.5694881852629677
 40
0.6341532155537225
 40
0.7009760953100502
 40
0.7708974968462685
 40
0.8436256105557794
 40
0.9196596761155402
 40
0.9999999999999999
 40
0.9999999999999999
 40
0.9999999999999999
 40
0.9999999999999999
 10
29.43374844195154
 20
-0.3289584465508795
 30
0.0
 10
29.40359610744621
 20
-0.3300249196247803
 30
0.0
 10
29.34423639475797
 20
-0.3321244431374722
 30
0.0
 10
29.2569822568174
 20
-0.3461004031076143
 30
0.0
 10
29.17395367582879
 20
-0.3707315737239719
 30
0.0
 10
29.09422649748314
 20
-0.4037338755277414
 30
0.0
 10
29.01865159120886
 20
-0.4474786635103492
 30
0.0
 10
28.94741958086241
 20
-0.501401084109496
 30
0.0
 10
28.87977994720787
 20
-0.5641308461084652
 30
0.0
 10
28.81604291274153
 20
-0.6354718018671537
 30
0.0
 10
28.75803389080395
 20
-0.7150883294316146
 30
0.0
 10
28.70651048963374
 20
-0.8022532946369063
 30
0.0
 10
28.66390921421876
 20
-0.89691259160004
 30
0.0
 10
28.62640150297174
 20
-0.9978165730168957
 30
0.0
 10
28.59747376127483
 20
-1.106049029903058
 30
0.0
 10
28.57641077671653
 20
-1.22096220308882
 30
0.0
 10
28.56039799614546
 20
-1.342369143875734
 30
0.0
 10
28.55668150034515
 20
-1.425824999411303
 30
0.0
 10
28.55477207977205
 20
-1.468702036294469
 30
0.0
  0
LINE
  5
F1
330
1F
100
AcDbEntity
  8
0
  6
Continuous
 62
     7
370
    25
100
AcDbLine
 10
28.5547720798
 20
-1.4687020363
 30
0.0
 11
27.41502849
 21
-1.4687020363
 31
0.0
  0
SPLINE
  5
F2
330
1F
100
AcDbEntity
  8
0
  6
Continuous
 62
     7
370
    25
100
AcDbSpline
210
0.0
220
0.0
230
1.0
 70
     8
 71
     3
 72
    23
 73
    19
 74
     0
 42
0.000000001
 43
0.00000001
 40
0.0
 40
0.0
 40
0.0
 40
0.0
 40
0.0749399102007727
 40
0.1464280851715762
 40
0.2147529716359184
 40
0.280421536691247
 40
0.3436044295193645
 40
0.405542638818658
 40
0.4661994619307756
 40
0.5265381448244664
 40
0.5859019063092087
 40
0.6440895746157916
 40
0.7016130759883654
 40
0.7587535874365712
 40
0.8166294493897659
 40
0.875655474955304
 40
0.9366243322865284
 40
1.0
 40
1.0
 40
1.0
 40
1.0
 10
27.41502849002845
 20
-1.468702036294469
 30
0.0
 10
27.4199508677953
 20
-1.38248646346602
 30
0.0
 10
27.42956889841423
 20
-1.214026410506013
 30
0.0
 10
27.46782699326293
 20
-0.9693327895156354
 30
0.0
 10
27.51909152739002
 20
-0.7381242252602926
 30
0.0
 10
27.5875108536346
 20
-0.5212095104896988
 30
0.0
 10
27.67348421384222
 20
-0.3186674650392881
 30
0.0
 10
27.77479929193614
 20
-0.1298076120430679
 30
0.0
 10
27.89404445799513
 20
0.044375697188232
 30
0.0
 10
28.02868178270848
 20
0.2030424524109295
 30
0.0
 10
28.17642549467888
 20
0.3453838626795157
 30
0.0
 10
28.33420828937395
 20
0.4715926993072184
 30
0.0
 10
28.504443667274
 20
0.5757370550386609
 30
0.0
 10
28.684021288762
 20
0.6614382179500905
 30
0.0
 10
28.87291057547418
 20
0.7299094647497214
 30
0.0
 10
29.0728987167469
 20
0.7756880341823503
 30
0.0
 10
29.28225410695502
 20
0.8066897298592827
 30
0.0
 10
29.42557482459611
 20
0.8094025026213624
 30
0.0
 10
29.49862224002846
 20
0.8107851431927099
 30
0.0
  0
SPLINE
  5
F3
330
1F
100
AcDbEntity
  8
0
  6
Continuous
 62
     7
370
    25
100
AcDbSpline
210
0.0
220
0.0
230
1.0
 70
     8
 71
     3
 72
    19
 73
    15
 74
     0
 42
0.000000001
 43
0.00000001
 40
0.0
 40
0.0
 40
0.0
 40
0.0
 40
0.0896145288821149
 40
0.1749485612865259
 40
0.2575481258745663
 40
0.3389007874900938
 40
0.4200531858831901
 40
0.5014014271193614
 40
0.584252026715958
 40
0.6703704767286305
 40
0.7564732666582511
 40
0.8392065940498483
 40
0.9201204666578204
 40
1.0
 40
1.0
 40
1.0
 40
1.0
 10
29.49862224002846
 20
0.8107851431927099
 30
0.0
 10
29.58828690618366
 20
0.8079873692324188
 30
0.0
 10
29.7633333471768
 20
0.8025254588116019
 30
0.0
 10
30.01768971050966
 20
0.7559335502200797
 30
0.0
 10
30.25523074339877
 20
0.6780013832261262
 30
0.0
 10
30.4757837758277
 20
0.5691095933553385
 30
0.0
 10
30.67747120104708
 20
0.4307739888614477
 30
0.0
 10
30.86025957379879
 20
0.2658314207139897
 30
0.0
 10
31.01862108223217
 20
0.0708213073278254
 30
0.0
 10
31.15355978483364
 20
-0.1461422986829704
 30
0.0
 10
31.26567771941819
 20
-0.375876222418015
 30
0.0
 10
31.3442452977245
 20
-0.6134306262223896
 30
0.0
 10
31.39588692134884
 20
-0.8525017794365252
 30
0.0
 10
31.40139482013068
 20
-1.013480193371374
 30
0.0
 10
31.40413105413102
 20
-1.093451635653444
 30
0.0
  0
SPLINE
  5
F4
330
1F
100
AcDbEntity
  8
0
  6
Continuous
 62
     7
370
    25
100
AcDbSpline
210
0.0
220
0.0
230
1.0
 70
     8
 71
     3
 72
    23
 73
    19
 74
     0
 42
0.000000001
 43
0.00000001
 40
0.0
 40
0.0
 40
0.0
 40
0.0
 40
0.0455177516513178
 40
0.0916159906181647
 40
0.1392465550335724
 40
0.1882415637234041
 40
0.2386730793725372
 40
0.2906638743206418
 40
0.3448398555786327
 40
0.4004316067351775
 40
0.459143717613294
 40
0.5225510475946143
 40
0.5901008583230445
 40
0.6622596565248672
 40
0.7396813070012564
 40
0.8215754713854224
 40
0.9083300466844453
 40
1.0
 40
1.0
 40
1.0
 40
1.0
 10
31.40413105413102
 20
-1.093451635653444
 30
0.0
 10
31.40306570911267
 20
-1.141824016065668
 30
0.0
 10
31.40092143274431
 20
-1.239185669250406
 30
0.0
 10
31.38601199422159
 20
-1.386517746447956
 30
0.0
 10
31.36364489032802
 20
-1.536592692353912
 30
0.0
 10
31.32992074854748
 20
-1.689281831689181
 30
0.0
 10
31.28786397898529
 20
-1.844627965625375
 30
0.0
 10
31.23684303864267
 20
-2.003095991747164
 30
0.0
 10
31.17567444661445
 20
-2.163787454446943
 30
0.0
 10
31.10537898251589
 20
-2.328510908654855
 30
0.0
 10
31.02151631568944
 20
-2.497801146906417
 30
0.0
 10
30.92386989710992
 20
-2.674195895806042
 30
0.0
 10
30.80984796955657
 20
-2.857538679317571
 30
0.0
 10
30.68082777410207
 20
-3.048864710503731
 30
0.0
 10
30.53618269062566
 20
-3.247872238582922
 30
0.0
 10
30.37520660957027
 20
-3.453961790776238
 30
0.0
 10
30.19975359737009
 20
-3.667859560906927
 30
0.0
 10
30.07522965887729
 20
-3.810838216622074
 30
0.0
 10
30.01125244836179
 20
-3.884296988217546
 30
0.0
  0
LINE
  5
F5
330
1F
100
AcDbEntity
  8
0
  6
Continuous
 62
     7
370
    25
100
AcDbLine
 10
30.0112524484
 20
-3.8842969882
 30
0.0
 11
29.3485220798
 21
-4.6437020363
 31
0.0
  0
LINE
  5
F6
330
1F
100
AcDbEntity
  8
0
  6
Continuous
 62
     7
370
    25
100
AcDbLine
 10
29.3485220798
 20
-4.6437020363
 30
0.0
 11
31.4855413105
 21
-4.6437020363
 31
0.0
  0
LINE
  5
F7
330
1F
100
AcDbEntity
  8
0
  6
Continuous
 62
     7
370
    25
100
AcDbLine
 10
31.4855413105
 20
-4.6437020363
 30
0.0
 11
31.4855413105
 21
-5.7020353696
 31
0.0
  0
LINE
  5
F8
330
1F
100
AcDbEntity
  8
0
  6
Continuous
 62
     7
370
    25
100
AcDbLine
 10
31.4855413105
 20
-5.7020353696
 30
0.0
 11
27.2522079772
 21
-5.7020353696
 31
0.0
  0
LINE
  5
F9
330
1F
100
AcDbEntity
  8
0
  6
Continuous
 62
     7
370
    25
100
AcDbLine
 10
27.2522079772
 20
-5.7020353696
 30
0.0
 11
27.2522079772
 21
-5.1245313632
 31
0.0
  0
LINE
  5
FA
330
1F
100
AcDbEntity
  8
0
  6
Continuous
 62
     7
370
    25
100
AcDbLine
 10
27.2522079772
 20
-5.1245313632
 30
0.0
 11
29.1322760862
 21
-3.1236199049
 31
0.0
  0
SPLINE
  5
FB
330
1F
100
AcDbEntity
  8
0
  6
Continuous
 62
     7
370
    25
100
AcDbSpline
210
0.0
220
0.0
230
1.0
 70
     8
 71
     3
 72
    19
 73
    15
 74
     0
 42
0.000000001
 43
0.00000001
 40
0.0
 40
0.0
 40
0.0
 40
0.0
 40
0.1038439242634204
 40
0.2011148859465234
 40
0.2911157193792174
 40
0.3743484039713639
 40
0.4507073961858715
 40
0.5200404120163612
 40
0.583258322445337
 40
0.6395782998253259
 40
0.7415365099482678
 40
0.8350600486817367
 40
0.920872960045834
 40
1.0
 40
1.0
 40
1.0
 40
1.0
 10
29.1322760861823
 20
-3.123619904884213
 30
0.0
 10
29.18670888928576
 20
-3.065252696317119
 30
0.0
 10
29.29212908662089
 20
-2.952212722363412
 30
0.0
 10
29.44213116330307
 20
-2.786201494632347
 30
0.0
 10
29.57786979225947
 20
-2.628660802152008
 30
0.0
 10
29.69653032262352
 20
-2.477913154360927
 30
0.0
 10
29.80433990627249
 20
-2.338848191488917
 30
0.0
 10
29.89649132233745
 20
-2.207274322011056
 30
0.0
 10
29.97382768413043
 20
-2.084381021100226
 30
0.0
 10
30.05778727362573
 20
-1.936193163331545
 30
0.0
 10
30.13752128420206
 20
-1.759452773038673
 30
0.0
 10
30.21068206465682
 20
-1.555840596542595
 30
0.0
 10
30.25527862319463
 20
-1.361234248886529
 30
0.0
 10
30.26143435861413
 20
-1.234424569571279
 30
0.0
 10
30.26438746438743
 20
-1.17358985680729
 30
0.0
  0
SPLINE
  5
FC
330
1F
100
AcDbEntity
  8
0
  6
Continuous
 62
     7
370
    25
100
AcDbSpline
210
0.0
220
0.0
230
1.0
 70
     8
 71
     3
 72
    15
 73
    11
 74
     0
 42
0.000000001
 43
0.00000001
 40
0.0
 40
0.0
 40
0.0
 40
0.0
 40
0.1327548717475878
 40
0.2572338481110653
 40
0.3786007316763539
 40
0.501406277498453
 40
0.6239419536469533
 40
0.743641834874647
 40
0.8681208112381243
 40
1.0
 40
1.0
 40
1.0
 40
1.0
 10
30.26438746438743
 20
-1.17358985680729
 30
0.0
 10
30.26217949855504
 20
-1.114736965558542
 30
0.0
 10
30.25790121075973
 20
-1.00070005309659
 30
0.0
 10
30.21088629463152
 20
-0.8384831522778327
 30
0.0
 10
30.13804915592983
 20
-0.6916123080107421
 30
0.0
 10
30.03541134074775
 20
-0.5644761867334454
 30
0.0
 10
29.91108480073976
 20
-0.4600000055716228
 30
0.0
 10
29.76741380528519
 20
-0.38229355723659
 30
0.0
 10
29.60556969560418
 20
-0.3374572927128254
 30
0.0
 10
29.4921138911204
 20
-0.3318453942544612
 30
0.0
 10
29.43374844195153
 20
-0.3289584465508795
 30
0.0
  0
SPLINE
  5
FD
330
1F
100
AcDbEntity
  8
0
  6
Continuous
 62
     7
370
    25
100
AcDbSpline
210
0.0
220
0.0
230
1.0
 70
     8
 71
     3
 72
    31
 73
    27
 74
     0
 42
0.000000001
 43
0.00000001
 40
0.0
 40
0.0
 40
0.0
 40
0.0
 40
0.0431143456619735
 40
0.0856827648242091
 40
0.1275943241639273
 40
0.1690586225605483
 40
0.2104320288213098
 40
0.2518111664630529
 40
0.2934438397982395
 40
0.3353808532218249
 40
0.3774766059607942
 40
0.4186884906768272
 40
0.4598730336711989
 40
0.5008729046253152
 40
0.5418727755794316
 40
0.5832117768673238
 40
0.6247632017340756
 40
0.6669876223820896
 40
0.7093697058942394
 40
0.7511026519448577
 40
0.7925683801202204
 40
0.8335451085502587
 40
0.8748274225565255
 40
0.9160177232110668
 40
0.9578592039763043
 40
1.0
 40
1.0
 40
1.0
 40
1.0
 10
13.98233618233615
 20
-2.524491299114982
 30
0.0
 10
13.983304658914
 20
-2.449380314121526
 30
0.0
 10
13.98522934893501
 20
-2.300109421473253
 30
0.0
 10
14.00841426767829
 20
-2.078897578157707
 30
0.0
 10
14.04179388481188
 20
-1.862003493021351
 30
0.0
 10
14.09116075471461
 20
-1.650291925934018
 30
0.0
 10
14.15112888399189
 20
-1.442269350236806
 30
0.0
 10
14.22882606660279
 20
-1.23987209158792
 30
0.0
 10
14.31726648711574
 20
-1.040937990655536
 30
0.0
 10
14.42060079148138
 20
-0.8478167082740563
 30
0.0
 10
14.53549854637659
 20
-0.6622851216209905
 30
0.0
 10
14.66086222663168
 20
-0.4852184155788174
 30
0.0
 10
14.797007057516
 20
-0.3187575854711163
 30
0.0
 10
14.94349447142739
 20
-0.1618087192832384
 30
0.0
 10
15.10082928382917
 20
-0.015403453306837
 30
0.0
 10
15.26694191778185
 20
0.1225307828295157
 30
0.0
 10
15.44505399115675
 20
0.2483299653584938
 30
0.0
 10
15.6312671895031
 20
0.3650663612231477
 30
0.0
 10
15.82453168563279
 20
0.4706290595097078
 30
0.0
 10
16.02406071773736
 20
0.5604808712267392
 30
0.0
 10
16.22574359359937
 20
0.6389469279287403
 30
0.0
 10
16.43227452443734
 20
0.7008758093685709
 30
0.0
 10
16.64144016394394
 20
0.7513162353921031
 30
0.0
 10
16.8554750232805
 20
0.7846733546783148
 30
0.0
 10
17.07244541917037
 20
0.8078576313639511
 30
0.0
 10
17.2187559344341
 20
0.8098069900595717
 30
0.0
 10
17.29217191951564
 20
0.8107851431927099
 30
0.0
  0
SPLINE
  5
FE
330
1F
100
AcDbEntity
  8
0
  6
Continuous
 62
     7
370
    25
100
AcDbSpline
210
0.0
220
0.0
230
1.0
 70
     8
 71
     3
 72
    23
 73
    19
 74
     0
 42
0.000000001
 43
0.00000001
 40
0.0
 40
0.0
 40
0.0
 40
0.0
 40
0.06339559666159
 40
0.1251572666424208
 40
0.1856494665262527
 40
0.2459766793408148
 40
0.3061083686579565
 40
0.3673505880891747
 40
0.429902078279914
 40
0.4945399581831934
 40
0.5593725826940477
 40
0.6224096858457372
 40
0.6843574258194753
 40
0.7458066007722104
 40
0.807430275015915
 40
0.8699955160697815
 40
0.9339278677192727
 40
1.0
 40
1.0
 40
1.0
 40
1.0
 10
17.29217191951564
 20
0.8107851431927099
 30
0.0
 10
17.40257445183458
 20
0.8079266239229677
 30
0.0
 10
17.62053405633519
 20
0.8022832594420654
 30
0.0
 10
17.94107398107888
 20
0.755241412064404
 30
0.0
 10
18.24997346619287
 20
0.6785934658524061
 30
0.0
 10
18.54709282821879
 20
0.5720472767184773
 30
0.0
 10
18.83168811442866
 20
0.4327170324159397
 30
0.0
 10
19.10476318768332
 20
0.2645528367904099
 30
0.0
 10
19.36533990601292
 20
0.0643806913997406
 30
0.0
 10
19.61074808815197
 20
-0.1631297178457721
 30
0.0
 10
19.83754950872338
 20
-0.4105373537293129
 30
0.0
 10
20.03407307211398
 20
-0.6769156593755197
 30
0.0
 10
20.20166115728071
 20
-0.9553625052910402
 30
0.0
 10
20.3405586106431
 20
-1.246623997915592
 30
0.0
 10
20.44635487452707
 20
-1.552717261984873
 30
0.0
 10
20.52059648885634
 20
-1.87208162642613
 30
0.0
 10
20.56829304786313
 20
-2.204626234997051
 30
0.0
 10
20.57377888601091
 20
-2.431043787103607
 30
0.0
 10
20.57656695156692
 20
-2.546115898473956
 30
0.0
  0
SPLINE
  5
FF
330
1F
100
AcDbEntity
  8
0
  6
Continuous
 62
     7
370
    25
100
AcDbSpline
210
0.0
220
0.0
230
1.0
 70
     8
 71
     3
 72
    23
 73
    19
 74
     0
 42
0.000000001
 43
0.00000001
 40
0.0
 40
0.0
 40
0.0
 40
0.0
 40
0.0657223151915615
 40
0.1295079307025842
 40
0.1917221026921614
 40
0.2531611245020887
 40
0.3143157037352574
 40
0.3759517397728621
 40
0.4386196008234092
 40
0.5029729018927764
 40
0.5671286457242648
 40
0.6295522895796742
 40
0.6904767824348738
 40
0.7510723384108283
 40
0.8116678943867831
 40
0.8729293555873909
 40
0.9355013707158071
 40
1.0
 40
1.0
 40
1.0
 40
1.0
 10
20.57656695156692
 20
-2.546115898473956
 30
0.0
 10
20.5735977823868
 20
-2.659891412926433
 30
0.0
 10
20.56774693925532
 20
-2.88408971449896
 30
0.0
 10
20.52254367118671
 20
-3.213569793538518
 30
0.0
 10
20.44705181876538
 20
-3.529513100248422
 30
0.0
 10
20.34304994253735
 20
-3.832634779408943
 30
0.0
 10
20.20667156385636
 20
-4.121466613648518
 30
0.0
 10
20.04235162883271
 20
-4.397852753990279
 30
0.0
 10
19.84575404674974
 20
-4.659228270920972
 30
0.0
 10
19.62404950350699
 20
-4.90545290039649
 30
0.0
 10
19.37997204166942
 20
-5.128954585691459
 30
0.0
 10
19.12145526283592
 20
-5.325915059879873
 30
0.0
 10
18.84969283771442
 20
-5.492811932932879
 30
0.0
 10
18.56508253979329
 20
-5.629568757997481
 30
0.0
 10
18.26701403594002
 20
-5.735700693483664
 30
0.0
 10
17.95622359180442
 20
-5.81058448588388
 30
0.0
 10
17.63273043899921
 20
-5.856092878579169
 30
0.0
 10
17.41273940735053
 20
-5.861905504618588
 30
0.0
 10
17.30107616631051
 20
-5.864855882448316
 30
0.0
  0
SPLINE
  5
100
330
1F
100
AcDbEntity
  8
0
  6
Continuous
 62
     7
370
    25
100
AcDbSpline
210
0.0
220
0.0
230
1.0
 70
     8
 71
     3
 72
    23
 73
    19
 74
     0
 42
0.000000001
 43
0.00000001
 40
0.0
 40
0.0
 40
0.0
 40
0.0
 40
0.0667486513092664
 40
0.1311519760901752
 40
0.193732197057096
 40
0.2553255433785985
 40
0.3163881857773858
 40
0.3780268629068866
 40
0.4404056792054015
 40
0.5045574293240811
 40
0.5686582873620151
 40
0.6309861790900103
 40
0.692288134873299
 40
0.7526154469796393
 40
0.8131995384355633
 40
0.8740161248607814
 40
0.9361583555105314
 40
1.0
 40
1.0
 40
1.0
 40
1.0
 10
17.30107616631051
 20
-5.864855882448316
 30
0.0
 10
17.18428980516915
 20
-5.86220924811204
 30
0.0
 10
16.95482056880807
 20
-5.857008973404129
 30
0.0
 10
16.61899131414798
 20
-5.807556734997497
 30
0.0
 10
16.29723787010045
 20
-5.733064388843802
 30
0.0
 10
15.99226315086172
 20
-5.621888558463144
 30
0.0
 10
15.70096124958814
 20
-5.482909422079616
 30
0.0
 10
15.42547244689605
 20
-5.311748283280908
 30
0.0
 10
15.16588932509096
 20
-5.108687999067858
 30
0.0
 10
14.92370089551406
 20
-4.878929018719427
 30
0.0
 10
14.70427759179347
 20
-4.627522300468808
 30
0.0
 10
14.51059348621675
 20
-4.361933397136149
 30
0.0
 10
14.34721664662271
 20
-4.084191174381414
 30
0.0
 10
14.21414109537141
 20
-3.794165642949446
 30
0.0
 10
14.10922967651916
 20
-3.49365924093045
 30
0.0
 10
14.03522659057884
 20
-3.180841797641478
 30
0.0
 10
13.99151120177747
 20
-2.856463562881559
 30
0.0
 10
13.98542190195121
 20
-2.636139381444515
 30
0.0
 10
13.98233618233615
 20
-2.524491299114982
 30
0.0
  0
SPLINE
  5
101
330
1F
100
AcDbEntity
  8
0
  6
Continuous
 62
     7
370
    25
100
AcDbSpline
210
0.0
220
0.0
230
1.0
 70
     8
 71
     3
 72
    31
 73
    27
 74
     0
 42
0.000000001
 43
0.00000001
 40
0.0
 40
0.0
 40
0.0
 40
0.0
 40
0.0431143456619735
 40
0.0856827648242091
 40
0.1275943241639273
 40
0.1690586225605483
 40
0.2104320288213098
 40
0.2518111664630529
 40
0.2934438397982394
 40
0.3353808532218249
 40
0.3774766059607942
 40
0.4186884906768271
 40
0.4598730336711987
 40
0.5008729046253152
 40
0.5418727755794317
 40
0.5832117768673237
 40
0.6247632017340756
 40
0.6669876223820893
 40
0.7093697058942392
 40
0.7511026519448577
 40
0.7925683801202207
 40
0.8335451085502585
 40
0.8748274225565257
 40
0.9160177232110673
 40
0.9578592039763046
 40
1.0
 40
1.0
 40
1.0
 40
1.0
 10
1.445156695156661
 20
-2.524491299114982
 30
0.0
 10
1.446125171734512
 20
-2.449380314121526
 30
0.0
 10
1.448049861755515
 20
-2.300109421473252
 30
0.0
 10
1.471234780498798
 20
-2.078897578157707
 30
0.0
 10
1.504614397632389
 20
-1.862003493021351
 30
0.0
 10
1.553981267535111
 20
-1.650291925934017
 30
0.0
 10
1.613949396812406
 20
-1.442269350236806
 30
0.0
 10
1.691646579423303
 20
-1.23987209158792
 30
0.0
 10
1.78008699993625
 20
-1.040937990655535
 30
0.0
 10
1.88342130430189
 20
-0.8478167082740572
 30
0.0
 10
1.998319059197102
 20
-0.6622851216209902
 30
0.0
 10
2.123682739452189
 20
-0.4852184155788179
 30
0.0
 10
2.259827570336507
 20
-0.3187575854711155
 30
0.0
 10
2.4063149842479
 20
-0.1618087192832385
 30
0.0
 10
2.563649796649673
 20
-0.0154034533068378
 30
0.0
 10
2.729762430602365
 20
0.1225307828295165
 30
0.0
 10
2.907874503977258
 20
0.2483299653584929
 30
0.0
 10
3.09408770232361
 20
0.3650663612231484
 30
0.0
 10
3.287352198453299
 20
0.4706290595097081
 30
0.0
 10
3.486881230557865
 20
0.5604808712267388
 30
0.0
 10
3.688564106419887
 20
0.6389469279287397
 30
0.0
 10
3.895095037257844
 20
0.7008758093685714
 30
0.0
 10
4.104260676764454
 20
0.7513162353921029
 30
0.0
 10
4.318295536101008
 20
0.7846733546783146
 30
0.0
 10
4.535265931990877
 20
0.8078576313639511
 30
0.0
 10
4.681576447254604
 20
0.8098069900595719
 30
0.0
 10
4.754992432336148
 20
0.8107851431927099
 30
0.0
  0
SPLINE
  5
102
330
1F
100
AcDbEntity
  8
0
  6
Continuous
 62
     7
370
    25
100
AcDbSpline
210
0.0
220
0.0
230
1.0
 70
     8
 71
     3
 72
    23
 73
    19
 74
     0
 42
0.000000001
 43
0.00000001
 40
0.0
 40
0.0
 40
0.0
 40
0.0
 40
0.0633955966615904
 40
0.1251572666424213
 40
0.1856494665262528
 40
0.2459766793408152
 40
0.3061083686579567
 40
0.3673505880891747
 40
0.4299020782799141
 40
0.4945399581831937
 40
0.5593725826940479
 40
0.6224096858457371
 40
0.6843574258194753
 40
0.7458066007722105
 40
0.807430275015915
 40
0.8699955160697815
 40
0.9339278677192727
 40
1.0
 40
1.0
 40
1.0
 40
1.0
 10
4.754992432336148
 20
0.8107851431927099
 30
0.0
 10
4.865394964655091
 20
0.8079266239229678
 30
0.0
 10
5.083354569155702
 20
0.8022832594420654
 30
0.0
 10
5.403894493899395
 20
0.7552414120644043
 30
0.0
 10
5.712793979013369
 20
0.6785934658524058
 30
0.0
 10
6.009913341039304
 20
0.5720472767184779
 30
0.0
 10
6.294508627249172
 20
0.4327170324159395
 30
0.0
 10
6.567583700503825
 20
0.2645528367904095
 30
0.0
 10
6.828160418833426
 20
0.0643806913997401
 30
0.0
 10
7.073568600972483
 20
-0.1631297178457713
 30
0.0
 10
7.300370021543886
 20
-0.4105373537293123
 30
0.0
 10
7.496893584934492
 20
-0.6769156593755207
 30
0.0
 10
7.664481670101212
 20
-0.9553625052910402
 30
0.0
 10
7.803379123463619
 20
-1.246623997915591
 30
0.0
 10
7.909175387347584
 20
-1.552717261984875
 30
0.0
 10
7.983417001676856
 20
-1.872081626426129
 30
0.0
 10
8.03111356068363
 20
-2.204626234997051
 30
0.0
 10
8.036599398831425
 20
-2.431043787103607
 30
0.0
 10
8.03938746438743
 20
-2.546115898473956
 30
0.0
  0
SPLINE
  5
103
330
1F
100
AcDbEntity
  8
0
  6
Continuous
 62
     7
370
    25
100
AcDbSpline
210
0.0
220
0.0
230
1.0
 70
     8
 71
     3
 72
    23
 73
    19
 74
     0
 42
0.000000001
 43
0.00000001
 40
0.0
 40
0.0
 40
0.0
 40
0.0
 40
0.0657223151915615
 40
0.1295079307025843
 40
0.1917221026921614
 40
0.2531611245020888
 40
0.3143157037352574
 40
0.3759517397728623
 40
0.4386196008234091
 40
0.5029729018927767
 40
0.567128645724265
 40
0.6295522895796742
 40
0.6904767824348743
 40
0.7510723384108288
 40
0.8116678943867832
 40
0.8729293555873913
 40
0.9355013707158073
 40
1.0
 40
1.0
 40
1.0
 40
1.0
 10
8.03938746438743
 20
-2.546115898473956
 30
0.0
 10
8.036418295207303
 20
-2.659891412926433
 30
0.0
 10
8.030567452075818
 20
-2.884089714498959
 30
0.0
 10
7.985364184007224
 20
-3.213569793538519
 30
0.0
 10
7.909872331585894
 20
-3.52951310024842
 30
0.0
 10
7.805870455357861
 20
-3.832634779408943
 30
0.0
 10
7.669492076676874
 20
-4.121466613648519
 30
0.0
 10
7.505172141653214
 20
-4.397852753990279
 30
0.0
 10
7.308574559570256
 20
-4.659228270920972
 30
0.0
 10
7.086870016327497
 20
-4.905452900396491
 30
0.0
 10
6.842792554489936
 20
-5.128954585691458
 30
0.0
 10
6.58427577565643
 20
-5.325915059879875
 30
0.0
 10
6.312513350534932
 20
-5.492811932932876
 30
0.0
 10
6.027903052613795
 20
-5.62956875799748
 30
0.0
 10
5.729834548760536
 20
-5.735700693483665
 30
0.0
 10
5.419044104624929
 20
-5.810584485883881
 30
0.0
 10
5.095550951819721
 20
-5.856092878579168
 30
0.0
 10
4.875559920171038
 20
-5.861905504618588
 30
0.0
 10
4.763896679131021
 20
-5.864855882448316
 30
0.0
  0
SPLINE
  5
104
330
1F
100
AcDbEntity
  8
0
  6
Continuous
 62
     7
370
    25
100
AcDbSpline
210
0.0
220
0.0
230
1.0
 70
     8
 71
     3
 72
    23
 73
    19
 74
     0
 42
0.000000001
 43
0.00000001
 40
0.0
 40
0.0
 40
0.0
 40
0.0
 40
0.0667486513092664
 40
0.1311519760901757
 40
0.193732197057096
 40
0.2553255433785989
 40
0.3163881857773858
 40
0.3780268629068868
 40
0.4404056792054016
 40
0.5045574293240812
 40
0.5686582873620152
 40
0.6309861790900104
 40
0.6922881348732991
 40
0.7526154469796394
 40
0.8131995384355631
 40
0.8740161248607815
 40
0.9361583555105314
 40
1.0
 40
1.0
 40
1.0
 40
1.0
 10
4.763896679131021
 20
-5.864855882448316
 30
0.0
 10
4.647110317989664
 20
-5.862209248112039
 30
0.0
 10
4.417641081628578
 20
-5.857008973404129
 30
0.0
 10
4.081811826968483
 20
-5.807556734997495
 30
0.0
 10
3.760058382920963
 20
-5.7330643888438
 30
0.0
 10
3.455083663682224
 20
-5.621888558463147
 30
0.0
 10
3.163781762408652
 20
-5.482909422079616
 30
0.0
 10
2.88829295971656
 20
-5.311748283280909
 30
0.0
 10
2.628709837911471
 20
-5.108687999067858
 30
0.0
 10
2.386521408334577
 20
-4.878929018719427
 30
0.0
 10
2.167098104613984
 20
-4.627522300468808
 30
0.0
 10
1.973413999037253
 20
-4.361933397136149
 30
0.0
 10
1.810037159443229
 20
-4.084191174381414
 30
0.0
 10
1.676961608191914
 20
-3.794165642949446
 30
0.0
 10
1.572050189339677
 20
-3.493659240930449
 30
0.0
 10
1.498047103399344
 20
-3.180841797641478
 30
0.0
 10
1.454331714597983
 20
-2.856463562881559
 30
0.0
 10
1.448242414771719
 20
-2.636139381444515
 30
0.0
 10
1.445156695156661
 20
-2.524491299114982
 30
0.0
  0
LINE
  5
105
330
1F
100
AcDbEntity
  8
0
  6
Continuous
 62
     7
370
    25
100
AcDbLine
 10
-8.9753561254
 20
-3.1401563632
 30
0.0
 11
-8.9753561254
 21
0.6479646304
 31
0.0
  0
LINE
  5
106
330
1F
100
AcDbEntity
  8
0
  6
Continuous
 62
     7
370
    25
100
AcDbLine
 10
-8.9753561254
 20
0.6479646304
 30
0.0
 11
-7.8356125356
 21
0.6479646304
 31
0.0
  0
LINE
  5
107
330
1F
100
AcDbEntity
  8
0
  6
Continuous
 62
     7
370
    25
100
AcDbLine
 10
-7.8356125356
 20
0.6479646304
 30
0.0
 11
-7.8356125356
 21
-3.4836058824
 31
0.0
  0
SPLINE
  5
108
330
1F
100
AcDbEntity
  8
0
  6
Continuous
 62
     7
370
    25
100
AcDbSpline
210
0.0
220
0.0
230
1.0
 70
     8
 71
     3
 72
    23
 73
    19
 74
     0
 42
0.000000001
 43
0.00000001
 40
0.0
 40
0.0
 40
0.0
 40
0.0
 40
0.0722187479928819
 40
0.1394897657276685
 40
0.2003699977303418
 40
0.2564327255100088
 40
0.3078035215508907
 40
0.3536585165318464
 40
0.3944199056460607
 40
0.4301557059443434
 40
0.4966662725087367
 40
0.562017617615052
 40
0.628754548274603
 40
0.6974096406803557
 40
0.7680791946526325
 40
0.8413381260898067
 40
0.9183362465478042
 40
1.0
 40
1.0
 40
1.0
 40
1.0
 10
-7.835612535612553
 20
-3.483605882448314
 30
0.0
 10
-7.835550561980669
 20
-3.526440213508302
 30
0.0
 10
-7.835430860550871
 20
-3.609174281471485
 30
0.0
 10
-7.829438544285376
 20
-3.727870581491217
 30
0.0
 10
-7.823955161660033
 20
-3.836977333594837
 30
0.0
 10
-7.814061583028309
 20
-3.936375089202844
 30
0.0
 10
-7.799445376321265
 20
-4.026106367124213
 30
0.0
 10
-7.785292118921202
 20
-4.106747569204745
 30
0.0
 10
-7.766137084582088
 20
-4.176854905894614
 30
0.0
 10
-7.737350130417784
 20
-4.256655409597646
 30
0.0
 10
-7.692998883950815
 20
-4.346315634249568
 30
0.0
 10
-7.620531408029044
 20
-4.43976157730433
 30
0.0
 10
-7.536910140206298
 20
-4.525044563472325
 30
0.0
 10
-7.436685234415058
 20
-4.596030889870719
 30
0.0
 10
-7.324041303830646
 20
-4.653452429707345
 30
0.0
 10
-7.199597276823045
 20
-4.695995436031707
 30
0.0
 10
-7.063528575174224
 20
-4.719643698856542
 30
0.0
 10
-6.969444532019514
 20
-4.723254039364666
 30
0.0
 10
-6.921019186253578
 20
-4.725112292704726
 30
0.0
  0
SPLINE
  5
109
330
1F
100
AcDbEntity
  8
0
  6
Continuous
 62
     7
370
    25
100
AcDbSpline
210
0.0
220
0.0
230
1.0
 70
     8
 71
     3
 72
    23
 73
    19
 74
     0
 42
0.000000001
 43
0.00000001
 40
0.0
 40
0.0
 40
0.0
 40
0.0
 40
0.0788326040104732
 40
0.1537102312098454
 40
0.2246777586657775
 40
0.2948087751910969
 40
0.3627147868294588
 40
0.4271032430309815
 40
0.488649765551411
 40
0.5509002465387018
 40
0.5850458333883312
 40
0.6252721895341631
 40
0.6714658644313027
 40
0.7245499928849671
 40
0.7832647317228376
 40
0.849073130859845
 40
0.9212962952783855
 40
1.0
 40
1.0
 40
1.0
 40
1.0
 10
-6.921019186253578
 20
-4.725112292704726
 30
0.0
 10
-6.869573232367707
 20
-4.72361106256035
 30
0.0
 10
-6.769262332253867
 20
-4.720683917941857
 30
0.0
 10
-6.624981071651413
 20
-4.691950824766559
 30
0.0
 10
-6.491303665453652
 20
-4.646197900013068
 30
0.0
 10
-6.371060520241911
 20
-4.580896816104725
 30
0.0
 10
-6.264371297304415
 20
-4.502622022616548
 30
0.0
 10
-6.17406110572945
 20
-4.41336422913902
 30
0.0
 10
-6.102788634270661
 20
-4.312945410818355
 30
0.0
 10
-6.056335889020138
 20
-4.22030140399302
 30
0.0
 10
-6.030254960174202
 20
-4.135030663365063
 30
0.0
 10
-6.01070600475594
 20
-4.058844492335682
 30
0.0
 10
-5.996374457795519
 20
-3.968952351852985
 30
0.0
 10
-5.983372407357384
 20
-3.866758101598681
 30
0.0
 10
-5.97555917666939
 20
-3.751203205816044
 30
0.0
 10
-5.9670870017162
 20
-3.623216972047281
 30
0.0
 10
-5.963981871012025
 20
-3.481923684167101
 30
0.0
 10
-5.963452624105887
 20
-3.383538516008419
 30
0.0
 10
-5.963176638176654
 20
-3.332233686935494
 30
0.0
  0
LINE
  5
10A
330
1F
100
AcDbEntity
  8
0
  6
Continuous
 62
     7
370
    25
100
AcDbLine
 10
-5.9631766382
 20
-3.3322336869
 30
0.0
 11
-5.9631766382
 21
0.6479646304
 31
0.0
  0
LINE
  5
10B
330
1F
100
AcDbEntity
  8
0
  6
Continuous
 62
     7
370
    25
100
AcDbLine
 10
-5.9631766382
 20
0.6479646304
 30
0.0
 11
-4.8234330484
 21
0.6479646304
 31
0.0
  0
LINE
  5
10C
330
1F
100
AcDbEntity
  8
0
  6
Continuous
 62
     7
370
    25
100
AcDbLine
 10
-4.8234330484
 20
0.6479646304
 30
0.0
 11
-4.8234330484
 21
-3.1401563632
 31
0.0
  0
SPLINE
  5
10D
330
1F
100
AcDbEntity
  8
0
  6
Continuous
 62
     7
370
    25
100
AcDbSpline
210
0.0
220
0.0
230
1.0
 70
     8
 71
     3
 72
    27
 73
    23
 74
     0
 42
0.000000001
 43
0.00000001
 40
0.0
 40
0.0
 40
0.0
 40
0.0
 40
0.0585404168084434
 40
0.1125675123403486
 40
0.1617798781047807
 40
0.2064871555823913
 40
0.2464570299480986
 40
0.2819997074061419
 40
0.3132129382361464
 40
0.3398064735188105
 40
0.3894126122316828
 40
0.4404734799435061
 40
0.4939547398756062
 40
0.549977876808832
 40
0.6064880836267158
 40
0.661318500098984
 40
0.7146910989596496
 40
0.7679184713297975
 40
0.8219387900584593
 40
0.8781073740704571
 40
0.9372026550360453
 40
1.0
 40
1.0
 40
1.0
 40
1.0
 10
-4.823433048433065
 20
-3.140156363217545
 30
0.0
 10
-4.823591322546607
 20
-3.216903513464989
 30
0.0
 10
-4.823895668231189
 20
-3.364480798588105
 30
0.0
 10
-4.828569500407217
 20
-3.576559742669764
 30
0.0
 10
-4.838519243651788
 20
-3.770259839050579
 30
0.0
 10
-4.846875880307024
 20
-3.945637686480014
 30
0.0
 10
-4.863048834015723
 20
-4.10245702200007
 30
0.0
 10
-4.879897257781332
 20
-4.241387508906009
 30
0.0
 10
-4.901372023402485
 20
-4.361936809030495
 30
0.0
 10
-4.933325183371115
 20
-4.499167537319101
 30
0.0
 10
-4.988466877864258
 20
-4.657183695225865
 30
0.0
 10
-5.077362518544986
 20
-4.839132451033288
 30
0.0
 10
-5.190209780738537
 20
-5.017271304167382
 30
0.0
 10
-5.323589605031914
 20
-5.189640604380959
 30
0.0
 10
-5.474187627250682
 20
-5.349766129330931
 30
0.0
 10
-5.638664766932299
 20
-5.490335613864183
 30
0.0
 10
-5.814407891211397
 20
-5.6092422396805
 30
0.0
 10
-6.00325338974422
 20
-5.703578596475555
 30
0.0
 10
-6.205040545369257
 20
-5.777153843044862
 30
0.0
 10
-6.421765891367332
 20
-5.826592702970722
 30
0.0
 10
-6.653281638168537
 20
-5.859994217296354
 30
0.0
 10
-6.813193940388119
 20
-5.863202843779403
 30
0.0
 10
-6.895578481125374
 20
-5.864855882448315
 30
0.0
  0
SPLINE
  5
10E
330
1F
100
AcDbEntity
  8
0
  6
Continuous
 62
     7
370
    25
100
AcDbSpline
210
0.0
220
0.0
230
1.0
 70
     8
 71
     3
 72
    31
 73
    27
 74
     0
 42
0.000000001
 43
0.00000001
 40
0.0
 40
0.0
 40
0.0
 40
0.0
 40
0.0417149324333615
 40
0.0823027059399523
 40
0.1215718144257367
 40
0.1600671244574462
 40
0.1979937629052238
 40
0.2355661717952778
 40
0.2730048805336446
 40
0.3100903331095233
 40
0.3468461432534286
 40
0.3824835718335567
 40
0.4172710082891831
 40
0.4513316191888084
 40
0.4848527413222464
 40
0.518030851241919
 40
0.5510685457911259
 40
0.5841710000647792
 40
0.6194667444415161
 40
0.6591579072517055
 40
0.7034715469577031
 40
0.7528401139219638
 40
0.8068443124206159
 40
0.8661419381570226
 40
0.9305017472849205
 40
1.0
 40
1.0
 40
1.0
 40
1.0
 10
-6.895578481125374
 20
-5.864855882448315
 30
0.0
 10
-6.950316408939698
 20
-5.8639338943474
 30
0.0
 10
-7.058313217609144
 20
-5.8621148307382
 30
0.0
 10
-7.217141470683224
 20
-5.846075441299108
 30
0.0
 10
-7.370680177165636
 20
-5.822439412324199
 30
0.0
 10
-7.518640838962584
 20
-5.787956880045519
 30
0.0
 10
-7.661536999868484
 20
-5.743411888839199
 30
0.0
 10
-7.799330695682946
 20
-5.688580106866047
 30
0.0
 10
-7.931509851823807
 20
-5.623767378871461
 30
0.0
 10
-8.057334812188158
 20
-5.549569841705836
 30
0.0
 10
-8.176650738458251
 20
-5.469337977983709
 30
0.0
 10
-8.285699336115247
 20
-5.380397579698363
 30
0.0
 10
-8.388233223373419
 20
-5.28932612512209
 30
0.0
 10
-8.481290238983453
 20
-5.192290940885272
 30
0.0
 10
-8.565569324024075
 20
-5.090310730905284
 30
0.0
 10
-8.640896905547814
 20
-4.983154374650291
 30
0.0
 10
-8.707161071951104
 20
-4.870831390047109
 30
0.0
 10
-8.766028661867312
 20
-4.751317162138578
 30
0.0
 10
-8.816413573375904
 20
-4.618537213905092
 30
0.0
 10
-8.858889946560256
 20
-4.467768508085089
 30
0.0
 10
-8.895998305760699
 20
-4.29664789567857
 30
0.0
 10
-8.923575048737124
 20
-4.104789851074526
 30
0.0
 10
-8.94857628588512
 20
-3.892826717010855
 30
0.0
 10
-8.964400690534033
 20
-3.660206297144374
 30
0.0
 10
-8.972679148925137
 20
-3.406921917435012
 30
0.0
 10
-8.974441252440005
 20
-3.23132510780743
 30
0.0
 10
-8.975356125356143
 20
-3.140156363217545
 30
0.0
  0
LINE
  5
10F
330
1F
100
AcDbEntity
  8
0
  6
Continuous
 62
     7
370
    25
100
AcDbLine
 10
-20.30919026
 20
-2.4214564433
 30
0.0
 11
-22.3075576478
 21
0.6479646304
 31
0.0
  0
LINE
  5
110
330
1F
100
AcDbEntity
  8
0
  6
Continuous
 62
     7
370
    25
100
AcDbLine
 10
-22.3075576478
 20
0.6479646304
 30
0.0
 11
-20.964288417
 21
0.6479646304
 31
0.0
  0
LINE
  5
111
330
1F
100
AcDbEntity
  8
0
  6
Continuous
 62
     7
370
    25
100
AcDbLine
 10
-20.964288417
 20
0.6479646304
 30
0.0
 11
-19.6375556446
 21
-1.3911078857
 31
0.0
  0
LINE
  5
112
330
1F
100
AcDbEntity
  8
0
  6
Continuous
 62
     7
370
    25
100
AcDbLine
 10
-19.6375556446
 20
-1.3911078857
 30
0.0
 11
-18.3082788016
 21
0.6479646304
 31
0.0
  0
LINE
  5
113
330
1F
100
AcDbEntity
  8
0
  6
Continuous
 62
     7
370
    25
100
AcDbLine
 10
-18.3082788016
 20
0.6479646304
 30
0.0
 11
-16.9637375356
 21
0.6479646304
 31
0.0
  0
LINE
  5
114
330
1F
100
AcDbEntity
  8
0
  6
Continuous
 62
     7
370
    25
100
AcDbLine
 10
-16.9637375356
 20
0.6479646304
 30
0.0
 11
-18.9659210292
 21
-2.4227284786
 31
0.0
  0
LINE
  5
115
330
1F
100
AcDbEntity
  8
0
  6
Continuous
 62
     7
370
    25
100
AcDbLine
 10
-18.9659210292
 20
-2.4227284786
 30
0.0
 11
-16.8314458689
 21
-5.7020353696
 31
0.0
  0
LINE
  5
116
330
1F
100
AcDbEntity
  8
0
  6
Continuous
 62
     7
370
    25
100
AcDbLine
 10
-16.8314458689
 20
-5.7020353696
 30
0.0
 11
-18.1747150997
 21
-5.7020353696
 31
0.0
  0
LINE
  5
117
330
1F
100
AcDbEntity
  8
0
  6
Continuous
 62
     7
370
    25
100
AcDbLine
 10
-18.1747150997
 20
-5.7020353696
 30
0.0
 11
-19.6375556446
 21
-3.4530770363
 31
0.0
  0
LINE
  5
118
330
1F
100
AcDbEntity
  8
0
  6
Continuous
 62
     7
370
    25
100
AcDbLine
 10
-19.6375556446
 20
-3.4530770363
 30
0.0
 11
-21.1042122952
 21
-5.7020353696
 31
0.0
  0
LINE
  5
119
330
1F
100
AcDbEntity
  8
0
  6
Continuous
 62
     7
370
    25
100
AcDbLine
 10
-21.1042122952
 20
-5.7020353696
 30
0.0
 11
-22.4487535613
 21
-5.7020353696
 31
0.0
  0
LINE
  5
11A
330
1F
100
AcDbEntity
  8
0
  6
Continuous
 62
     7
370
    25
100
AcDbLine
 10
-22.4487535613
 20
-5.7020353696
 30
0.0
 11
-20.30919026
 21
-2.4214564433
 31
0.0
  0
LINE
  5
11B
330
1F
100
AcDbEntity
  8
0
  6
Continuous
 62
     7
370
    25
100
AcDbLine
 10
-28.6766381766
 20
-0.4917789594
 30
0.0
 11
-28.6766381766
 21
0.6479646304
 31
0.0
  0
LINE
  5
11C
330
1F
100
AcDbEntity
  8
0
  6
Continuous
 62
     7
370
    25
100
AcDbLine
 10
-28.6766381766
 20
0.6479646304
 30
0.0
 11
-25.2574074074
 21
0.6479646304
 31
0.0
  0
LINE
  5
11D
330
1F
100
AcDbEntity
  8
0
  6
Continuous
 62
     7
370
    25
100
AcDbLine
 10
-25.2574074074
 20
0.6479646304
 30
0.0
 11
-25.2574074074
 21
-0.4917789594
 31
0.0
  0
LINE
  5
11E
330
1F
100
AcDbEntity
  8
0
  6
Continuous
 62
     7
370
    25
100
AcDbLine
 10
-25.2574074074
 20
-0.4917789594
 30
0.0
 11
-26.3971509972
 21
-0.4917789594
 31
0.0
  0
LINE
  5
11F
330
1F
100
AcDbEntity
  8
0
  6
Continuous
 62
     7
370
    25
100
AcDbLine
 10
-26.3971509972
 20
-0.4917789594
 30
0.0
 11
-26.3971509972
 21
-5.7020353696
 31
0.0
  0
LINE
  5
120
330
1F
100
AcDbEntity
  8
0
  6
Continuous
 62
     7
370
    25
100
AcDbLine
 10
-26.3971509972
 20
-5.7020353696
 30
0.0
 11
-27.5368945869
 21
-5.7020353696
 31
0.0
  0
LINE
  5
121
330
1F
100
AcDbEntity
  8
0
  6
Continuous
 62
     7
370
    25
100
AcDbLine
 10
-27.5368945869
 20
-5.7020353696
 30
0.0
 11
-27.5368945869
 21
-0.4917789594
 31
0.0
  0
LINE
  5
122
330
1F
100
AcDbEntity
  8
0
  6
Continuous
 62
     7
370
    25
100
AcDbLine
 10
-27.5368945869
 20
-0.4917789594
 30
0.0
 11
-28.6766381766
 21
-0.4917789594
 31
0.0
  0
LINE
  5
123
330
1F
100
AcDbEntity
  8
0
  6
Continuous
 62
     7
370
    25
100
AcDbLine
 10
-38.7765981125
 20
-5.7020353696
 30
0.0
 11
-40.5625356125
 21
-5.7020353696
 31
0.0
  0
LINE
  5
124
330
1F
100
AcDbEntity
  8
0
  6
Continuous
 62
     7
370
    25
100
AcDbLine
 10
-40.5625356125
 20
-5.7020353696
 30
0.0
 11
-40.5625356125
 21
0.6479646304
 31
0.0
  0
LINE
  5
125
330
1F
100
AcDbEntity
  8
0
  6
Continuous
 62
     7
370
    25
100
AcDbLine
 10
-40.5625356125
 20
0.6479646304
 30
0.0
 11
-39.5449074074
 21
0.6479646304
 31
0.0
  0
SPLINE
  5
126
330
1F
100
AcDbEntity
  8
0
  6
Continuous
 62
     7
370
    25
100
AcDbSpline
210
0.0
220
0.0
230
1.0
 70
     8
 71
     3
 72
    15
 73
    11
 74
     0
 42
0.000000001
 43
0.00000001
 40
0.0
 40
0.0
 40
0.0
 40
0.0
 40
0.1639957318060749
 40
0.3173286319587162
 40
0.4580598946275403
 40
0.5891583945859024
 40
0.7079520097453079
 40
0.8163219998754466
 40
0.9135847296003132
 40
1.0
 40
1.0
 40
1.0
 40
1.0
 10
-39.54490740740739
 20
0.6479646303721972
 30
0.0
 10
-39.47366707010076
 20
0.6479727606577758
 30
0.0
 10
-39.33581836801061
 20
0.6479884926062338
 30
0.0
 10
-39.13693866614975
 20
0.6410044904228404
 30
0.0
 10
-38.95249453857205
 20
0.6319699011921528
 30
0.0
 10
-38.78307295797634
 20
0.6218622967756414
 30
0.0
 10
-38.62838555709813
 20
0.6044448748781792
 30
0.0
 10
-38.48866756335802
 20
0.5860888147366833
 30
0.0
 10
-38.36363981935926
 20
0.5639525375989498
 30
0.0
 10
-38.28634195919438
 20
0.5440956111771307
 30
0.0
 10
-38.24997551638175
 20
0.534753492551685
 30
0.0
  0
SPLINE
  5
127
330
1F
100
AcDbEntity
  8
0
  6
Continuous
 62
     7
370
    25
100
AcDbSpline
210
0.0
220
0.0
230
1.0
 70
     8
 71
     3
 72
    23
 73
    19
 74
     0
 42
0.000000001
 43
0.00000001
 40
0.0
 40
0.0
 40
0.0
 40
0.0
 40
0.0687497663152819
 40
0.1349091121452257
 40
0.1997210700545255
 40
0.2629736746369462
 40
0.32535702334904
 40
0.387336140988731
 40
0.4494074874297879
 40
0.5111175193516604
 40
0.5724725853513697
 40
0.6330771719677205
 40
0.6928610080890979
 40
0.752560696754615
 40
0.8127375856307913
 40
0.8734793127278782
 40
0.9357764600655787
 40
1.0
 40
1.0
 40
1.0
 40
1.0
 10
-38.24997551638175
 20
0.534753492551685
 30
0.0
 10
-38.20222268469158
 20
0.5215762678270023
 30
0.0
 10
-38.10851629889534
 20
0.4957183226524325
 30
0.0
 10
-37.9742988506459
 20
0.4434970848686813
 30
0.0
 10
-37.84697487868819
 20
0.385449476621825
 30
0.0
 10
-37.72669984210276
 20
0.3192280122429997
 30
0.0
 10
-37.61421227753101
 20
0.2440332130997365
 30
0.0
 10
-37.50993967603171
 20
0.1592683106350556
 30
0.0
 10
-37.41163313560472
 20
0.0683357643911661
 30
0.0
 10
-37.32278329706948
 20
-0.031298689900453
 30
0.0
 10
-37.24247768213808
 20
-0.1365809470953084
 30
0.0
 10
-37.1727065008708
 20
-0.2474834203723818
 30
0.0
 10
-37.1120842869052
 20
-0.3623103385210505
 30
0.0
 10
-37.06357063684072
 20
-0.482506721959071
 30
0.0
 10
-37.0270165129448
 20
-0.6075190338194602
 30
0.0
 10
-37.00028097923303
 20
-0.7368134521808302
 30
0.0
 10
-36.98295273307155
 20
-0.8707990964066683
 30
0.0
 10
-36.98131544110012
 20
-0.9619539094585264
 30
0.0
 10
-36.98048433048432
 20
-1.008225273473957
 30
0.0
  0
SPLINE
  5
128
330
1F
100
AcDbEntity
  8
0
  6
Continuous
 62
     7
370
    25
100
AcDbSpline
210
0.0
220
0.0
230
1.0
 70
     8
 71
     3
 72
    15
 73
    11
 74
     0
 42
0.000000001
 43
0.00000001
 40
0.0
 40
0.0
 40
0.0
 40
0.0
 40
0.1232695606004613
 40
0.2426409842839854
 40
0.3594273839391152
 40
0.4755502191345213
 40
0.5938976740482412
 40
0.7202015971643243
 40
0.8544653148776618
 40
1.0
 40
1.0
 40
1.0
 40
1.0
 10
-36.98048433048432
 20
-1.008225273473957
 30
0.0
 10
-36.98265743785534
 20
-1.067671830738974
 30
0.0
 10
-36.98693493271208
 20
-1.184685074696494
 30
0.0
 10
-37.01425986116233
 20
-1.356556359903377
 30
0.0
 10
-37.0654983593757
 20
-1.51899942805619
 30
0.0
 10
-37.1325426881021
 20
-1.675008043622652
 30
0.0
 10
-37.22370201427729
 20
-1.824000293335583
 30
0.0
 10
-37.33945672812505
 20
-1.965905335517502
 30
0.0
 10
-37.47793198243259
 20
-2.10509263915584
 30
0.0
 10
-37.58415014676642
 20
-2.188526039004135
 30
0.0
 10
-37.63939859330483
 20
-2.231923190140623
 30
0.0
  0
SPLINE
  5
129
330
1F
100
AcDbEntity
  8
0
  6
Continuous
 62
     7
370
    25
100
AcDbSpline
210
0.0
220
0.0
230
1.0
 70
     8
 71
     3
 72
    23
 73
    19
 74
     0
 42
0.000000001
 43
0.00000001
 40
0.0
 40
0.0
 40
0.0
 40
0.0
 40
0.0727911822673705
 40
0.1427233695565063
 40
0.2094912699928569
 40
0.2747163184918652
 40
0.3368863886768208
 40
0.397685602023992
 40
0.4570537497761165
 40
0.5153125941662602
 40
0.5728222022221215
 40
0.63077600739851
 40
0.6895054947089528
 40
0.7487432781628017
 40
0.8092253247292985
 40
0.8707153202239958
 40
0.9342652493244624
 40
1.0
 40
1.0
 40
1.0
 40
1.0
 10
-37.63939859330483
 20
-2.231923190140623
 30
0.0
 10
-37.59462790270933
 20
-2.254778239435468
 30
0.0
 10
-37.50684496499459
 20
-2.299590667879874
 30
0.0
 10
-37.38221898258024
 20
-2.373248922958548
 30
0.0
 10
-37.26682892685245
 20
-2.451593819053925
 30
0.0
 10
-37.1601574237932
 20
-2.533049025345867
 30
0.0
 10
-37.06444203025647
 20
-2.621067546062515
 30
0.0
 10
-36.97573049693893
 20
-2.710577633166642
 30
0.0
 10
-36.89839939044673
 20
-2.806707842401183
 30
0.0
 10
-36.82924758430328
 20
-2.906031910051734
 30
0.0
 10
-36.76914195836886
 20
-3.009988060131389
 30
0.0
 10
-36.71679658606812
 20
-3.11840073412655
 30
0.0
 10
-36.67258232772672
 20
-3.231640293327827
 30
0.0
 10
-36.63514055017897
 20
-3.349130440063135
 30
0.0
 10
-36.60721646255645
 20
-3.471275285468443
 30
0.0
 10
-36.58900936360295
 20
-3.598118513619055
 30
0.0
 10
-36.5750688705831
 20
-3.729227524605453
 30
0.0
 10
-36.57398443124109
 20
-3.818535708785765
 30
0.0
 10
-36.57343304843304
 20
-3.863944424114982
 30
0.0
  0
SPLINE
  5
12A
330
1F
100
AcDbEntity
  8
0
  6
Continuous
 62
     7
370
    25
100
AcDbSpline
210
0.0
220
0.0
230
1.0
 70
     8
 71
     3
 72
    23
 73
    19
 74
     0
 42
0.000000001
 43
0.00000001
 40
0.0
 40
0.0
 40
0.0
 40
0.0
 40
0.0802588853381377
 40
0.1583905883453953
 40
0.2362576248303798
 40
0.315104765352086
 40
0.3932216786245977
 40
0.4687312831158793
 40
0.5427812639155812
 40
0.617708169339552
 40
0.6563652025204895
 40
0.697079672789946
 40
0.7406969496811672
 40
0.7867286654533117
 40
0.8355790921841503
 40
0.8872495053564267
 40
0.9418976668361585
 40
0.9999999999999999
 40
0.9999999999999999
 40
0.9999999999999999
 40
0.9999999999999999
 10
-36.57343304843305
 20
-3.863944424114983
 30
0.0
 10
-36.57701115432942
 20
-3.950672474120234
 30
0.0
 10
-36.58407253196631
 20
-4.121829932992306
 30
0.0
 10
-36.63570187967368
 20
-4.373128391597164
 30
0.0
 10
-36.7252107635185
 20
-4.6113821231077
 30
0.0
 10
-36.84540273718174
 20
-4.835644205199385
 30
0.0
 10
-36.9935023739378
 20
-5.039422618779721
 30
0.0
 10
-37.16377448597003
 20
-5.217930739937087
 30
0.0
 10
-37.35450482365421
 20
-5.369033901580138
 30
0.0
 10
-37.53047661300759
 20
-5.471016813493994
 30
0.0
 10
-37.68267835287216
 20
-5.539456884032822
 30
0.0
 10
-37.80874421031483
 20
-5.581770851549613
 30
0.0
 10
-37.94413626904638
 20
-5.620970447112905
 30
0.0
 10
-38.09133458640969
 20
-5.648497212507465
 30
0.0
 10
-38.24767065765418
 20
-5.673692735103072
 30
0.0
 10
-38.41466876935994
 20
-5.689248972642789
 30
0.0
 10
-38.59201680507299
 20
-5.699791051523531
 30
0.0
 10
-38.71382710218921
 20
-5.701272138957912
 30
0.0
 10
-38.77659811253561
 20
-5.702035369627803
 30
0.0
  0
LINE
  5
12B
330
1F
100
AcDbEntity
  8
0
  6
Continuous
 62
     7
370
    25
100
AcDbLine
 10
-53.0997150997
 20
-5.7020353696
 30
0.0
 11
-53.0997150997
 21
0.6479646304
 31
0.0
  0
LINE
  5
12C
330
1F
100
AcDbEntity
  8
0
  6
Continuous
 62
     7
370
    25
100
AcDbLine
 10
-53.0997150997
 20
0.6479646304
 30
0.0
 11
-51.771710292
 21
0.6479646304
 31
0.0
  0
SPLINE
  5
12D
330
1F
100
AcDbEntity
  8
0
  6
Continuous
 62
     7
370
    25
100
AcDbSpline
210
0.0
220
0.0
230
1.0
 70
     8
 71
     3
 72
    31
 73
    27
 74
     0
 42
0.000000001
 43
0.00000001
 40
0.0
 40
0.0
 40
0.0
 40
0.0
 40
0.0728890266200392
 40
0.140186129944496
 40
0.2022774341249601
 40
0.2588951317514627
 40
0.3104829424654781
 40
0.3570952441313353
 40
0.3985135666534657
 40
0.4350375108701162
 40
0.4692514858292879
 40
0.5028050278902758
 40
0.5362104463185622
 40
0.5693793599392069
 40
0.6028014750483935
 40
0.6366657983367771
 40
0.670928656894043
 40
0.7058030002293129
 40
0.7411890612458778
 40
0.7763043110764623
 40
0.8120043009129355
 40
0.8479689758088954
 40
0.8845217611964793
 40
0.9219741585442048
 40
0.960198175809608
 40
0.9999999999999999
 40
0.9999999999999999
 40
0.9999999999999999
 40
0.9999999999999999
 10
-51.77171029202281
 20
0.6479646303721972
 30
0.0
 10
-51.68392957847404
 20
0.6476530592179857
 30
0.0
 10
-51.51510253979896
 20
0.6470538201234789
 30
0.0
 10
-51.27166317120878
 20
0.637599414508946
 30
0.0
 10
-51.04803063278241
 20
0.6244428331091557
 30
0.0
 10
-50.84387381631904
 20
0.6043655406942593
 30
0.0
 10
-50.65928006346932
 20
0.5777454778285592
 30
0.0
 10
-50.49406436814799
 20
0.5463648287476222
 30
0.0
 10
-50.34823155944677
 20
0.5105998512972995
 30
0.0
 10
-50.22055173903112
 20
0.4660338676256321
 30
0.0
 10
-50.10532701474664
 20
0.4157641137029892
 30
0.0
 10
-49.99792155240718
 20
0.358003244668698
 30
0.0
 10
-49.89596582779659
 20
0.293394446066628
 30
0.0
 10
-49.80014130481853
 20
0.2202376855226723
 30
0.0
 10
-49.70961524583889
 20
0.1398490351360764
 30
0.0
 10
-49.62421686801997
 20
0.0521475758368459
 30
0.0
 10
-49.54515292959403
 20
-0.0436103646284627
 30
0.0
 10
-49.47291299767713
 20
-0.1468197175951342
 30
0.0
 10
-49.40707211467411
 20
-0.2553935901835195
 30
0.0
 10
-49.34888258330525
 20
-0.3694810550292656
 30
0.0
 10
-49.30156275967888
 20
-0.4891614523655234
 30
0.0
 10
-49.25975062293234
 20
-0.6127051417079731
 30
0.0
 10
-49.22963469540318
 20
-0.741878204333383
 30
0.0
 10
-49.20868950836447
 20
-0.8754231186721351
 30
0.0
 10
-49.19335426179168
 20
-1.013809977001533
 30
0.0
 10
-49.19247255842838
 20
-1.107823864244393
 30
0.0
 10
-49.1920227920228
 20
-1.155781363217546
 30
0.0
  0
SPLINE
  5
12E
330
1F
100
AcDbEntity
  8
0
  6
Continuous
 62
     7
370
    25
100
AcDbSpline
210
0.0
220
0.0
230
1.0
 70
     8
 71
     3
 72
    23
 73
    19
 74
     0
 42
0.000000001
 43
0.00000001
 40
0.0
 40
0.0
 40
0.0
 40
0.0
 40
0.0687412630793657
 40
0.1347890881950344
 40
0.198536049560691
 40
0.2603856506059209
 40
0.3209615782321964
 40
0.3799038495841494
 40
0.4385029357752683
 40
0.4961543439762697
 40
0.5542654832085009
 40
0.6127487608156958
 40
0.6725134425261803
 40
0.733646401897974
 40
0.7967896194814542
 40
0.8619356990410245
 40
0.9293977347748992
 40
1.0
 40
1.0
 40
1.0
 40
1.0
 10
-49.1920227920228
 20
-1.155781363217546
 30
0.0
 10
-49.19319112340249
 20
-1.205837975229324
 30
0.0
 10
-49.19548200829933
 20
-1.303989868123846
 30
0.0
 10
-49.20782196064607
 20
-1.448166993559989
 30
0.0
 10
-49.23037551717051
 20
-1.58610558242278
 30
0.0
 10
-49.26453615963955
 20
-1.717401767494266
 30
0.0
 10
-49.30379938107655
 20
-1.843689682864479
 30
0.0
 10
-49.35600939400614
 20
-1.962639237524908
 30
0.0
 10
-49.41493355385861
 20
-2.075980380421952
 30
0.0
 10
-49.48491605693291
 20
-2.182109858130812
 30
0.0
 10
-49.56171843517814
 20
-2.28338501838763
 30
0.0
 10
-49.65103798549485
 20
-2.375925634091013
 30
0.0
 10
-49.74708817301006
 20
-2.464705412940253
 30
0.0
 10
-49.85526832857254
 20
-2.544163490789534
 30
0.0
 10
-49.97080977043282
 20
-2.619672535738384
 30
0.0
 10
-50.09600818547802
 20
-2.688103839286789
 30
0.0
 10
-50.23004648591406
 20
-2.751177606840099
 30
0.0
 10
-50.32428204911498
 20
-2.786351896544974
 30
0.0
 10
-50.37247150997152
 20
-2.804339055525238
 30
0.0
  0
LINE
  5
12F
330
1F
100
AcDbEntity
  8
0
  6
Continuous
 62
     7
370
    25
100
AcDbLine
 10
-50.37247151
 20
-2.8043390555
 30
0.0
 11
-48.9070868946
 21
-5.7020353696
 31
0.0
  0
LINE
  5
130
330
1F
100
AcDbEntity
  8
0
  6
Continuous
 62
     7
370
    25
100
AcDbLine
 10
-48.9070868946
 20
-5.7020353696
 30
0.0
 11
-50.17403401
 21
-5.7020353696
 31
0.0
  0
LINE
  5
131
330
1F
100
AcDbEntity
  8
0
  6
Continuous
 62
     7
370
    25
100
AcDbLine
 10
-50.17403401
 20
-5.7020353696
 30
0.0
 11
-51.573272792
 21
-2.9340866517
 31
0.0
  0
LINE
  5
132
330
1F
100
AcDbEntity
  8
0
  6
Continuous
 62
     7
370
    25
100
AcDbLine
 10
-51.573272792
 20
-2.9340866517
 30
0.0
 11
-51.95997151
 21
-2.9340866517
 31
0.0
  0
LINE
  5
133
330
1F
100
AcDbEntity
  8
0
  6
Continuous
 62
     7
370
    25
100
AcDbLine
 10
-51.95997151
 20
-2.9340866517
 30
0.0
 11
-51.95997151
 21
-5.7020353696
 31
0.0
  0
LINE
  5
134
330
1F
100
AcDbEntity
  8
0
  6
Continuous
 62
     7
370
    25
100
AcDbLine
 10
-51.95997151
 20
-5.7020353696
 30
0.0
 11
-53.0997150997
 21
-5.7020353696
 31
0.0
  0
LINE
  5
135
330
1F
100
AcDbEntity
  8
0
  6
Continuous
 62
     7
370
    25
100
AcDbLine
 10
-64.7820868946
 20
-5.7020353696
 30
0.0
 11
-62.2163917824
 21
0.6479646304
 31
0.0
  0
LINE
  5
136
330
1F
100
AcDbEntity
  8
0
  6
Continuous
 62
     7
370
    25
100
AcDbLine
 10
-62.2163917824
 20
0.6479646304
 30
0.0
 11
-61.1593304843
 21
0.6479646304
 31
0.0
  0
LINE
  5
137
330
1F
100
AcDbEntity
  8
0
  6
Continuous
 62
     7
370
    25
100
AcDbLine
 10
-61.1593304843
 20
0.6479646304
 30
0.0
 11
-58.5949074074
 21
-5.7020353696
 31
0.0
  0
LINE
  5
138
330
1F
100
AcDbEntity
  8
0
  6
Continuous
 62
     7
370
    25
100
AcDbLine
 10
-58.5949074074
 20
-5.7020353696
 30
0.0
 11
-59.8122451478
 21
-5.7020353696
 31
0.0
  0
LINE
  5
139
330
1F
100
AcDbEntity
  8
0
  6
Continuous
 62
     7
370
    25
100
AcDbLine
 10
-59.8122451478
 20
-5.7020353696
 30
0.0
 11
-60.3057948273
 21
-4.3994712671
 31
0.0
  0
LINE
  5
13A
330
1F
100
AcDbEntity
  8
0
  6
Continuous
 62
     7
370
    25
100
AcDbLine
 10
-60.3057948273
 20
-4.3994712671
 30
0.0
 11
-63.07247151
 21
-4.3994712671
 31
0.0
  0
LINE
  5
13B
330
1F
100
AcDbEntity
  8
0
  6
Continuous
 62
     7
370
    25
100
AcDbLine
 10
-63.07247151
 20
-4.3994712671
 30
0.0
 11
-63.5660211895
 21
-5.7020353696
 31
0.0
  0
LINE
  5
13C
330
1F
100
AcDbEntity
  8
0
  6
Continuous
 62
     7
370
    25
100
AcDbLine
 10
-63.5660211895
 20
-5.7020353696
 30
0.0
 11
-64.7820868946
 21
-5.7020353696
 31
0.0
  0
LINE
  5
13D
330
1F
100
AcDbEntity
  8
0
  6
Continuous
 62
     7
370
    25
100
AcDbLine
 10
-60.7370147792
 20
-3.2597276773
 30
0.0
 11
-61.688497151
 21
-1.055290578
 31
0.0
  0
LINE
  5
13E
330
1F
100
AcDbEntity
  8
0
  6
Continuous
 62
     7
370
    25
100
AcDbLine
 10
-61.688497151
 20
-1.055290578
 30
0.0
 11
-62.6399795228
 21
-3.2597276773
 31
0.0
  0
LINE
  5
13F
330
1F
100
AcDbEntity
  8
0
  6
Continuous
 62
     7
370
    25
100
AcDbLine
 10
-62.6399795228
 20
-3.2597276773
 30
0.0
 11
-60.7370147792
 21
-3.2597276773
 31
0.0
  0
LINE
  5
140
330
1F
100
AcDbEntity
  8
0
  6
Continuous
 62
     7
370
    25
100
AcDbLine
 10
-51.95997151
 20
-0.4917789594
 30
0.0
 11
-51.95997151
 21
-1.7943430619
 31
0.0
  0
LINE
  5
141
330
1F
100
AcDbEntity
  8
0
  6
Continuous
 62
     7
370
    25
100
AcDbLine
 10
-51.95997151
 20
-1.7943430619
 30
0.0
 11
-51.5160312055
 21
-1.7943430619
 31
0.0
  0
SPLINE
  5
142
330
1F
100
AcDbEntity
  8
0
  6
Continuous
 62
     7
370
    25
100
AcDbSpline
210
0.0
220
0.0
230
1.0
 70
     8
 71
     3
 72
    23
 73
    19
 74
     0
 42
0.000000001
 43
0.00000001
 40
0.0
 40
0.0
 40
0.0
 40
0.0
 40
0.1055399964402551
 40
0.2020864154635852
 40
0.2906848989424234
 40
0.3705526096211902
 40
0.4426702615663765
 40
0.5076749275738738
 40
0.5655732034810458
 40
0.6164546657486238
 40
0.6633313570051064
 40
0.7088620244966151
 40
0.7534118003496283
 40
0.7985150107871085
 40
0.8450643214401183
 40
0.8938731190084056
 40
0.9447078060036515
 40
1.0
 40
1.0
 40
1.0
 40
1.0
 10
-51.51603120548434
 20
-1.794343061935494
 30
0.0
 10
-51.46175581300299
 20
-1.793731775986684
 30
0.0
 10
-51.3578300987299
 20
-1.792561294743698
 30
0.0
 10
-51.20837127187696
 20
-1.787132117564724
 30
0.0
 10
-51.07262701306207
 20
-1.77405048331614
 30
0.0
 10
-50.95001439062812
 20
-1.75752232735025
 30
0.0
 10
-50.8399164289998
 20
-1.738438184396142
 30
0.0
 10
-50.74331516315361
 20
-1.711089448863421
 30
0.0
 10
-50.65872211502464
 20
-1.681784586425266
 30
0.0
 10
-50.58713971540067
 20
-1.645366244151833
 30
0.0
 10
-50.52598135794613
 20
-1.60395069017649
 30
0.0
 10
-50.47317503070215
 20
-1.556901591326795
 30
0.0
 10
-50.42949662656643
 20
-1.502448250285236
 30
0.0
 10
-50.39354707205814
 20
-1.442070473964834
 30
0.0
 10
-50.36558222713165
 20
-1.375234235799419
 30
0.0
 10
-50.34517003269975
 20
-1.302673246242548
 30
0.0
 10
-50.33376263454838
 20
-1.223560942286791
 30
0.0
 10
-50.33245017453435
 20
-1.168962680380691
 30
0.0
 10
-50.3317663817664
 20
-1.140516940140623
 30
0.0
  0
SPLINE
  5
143
330
1F
100
AcDbEntity
  8
0
  6
Continuous
 62
     7
370
    25
100
AcDbSpline
210
0.0
220
0.0
230
1.0
 70
     8
 71
     3
 72
    23
 73
    19
 74
     0
 42
0.000000001
 43
0.00000001
 40
0.0
 40
0.0
 40
0.0
 40
0.0
 40
0.0637689599577398
 40
0.1252623047603747
 40
0.1854135826663904
 40
0.2468067624960835
 40
0.3094223888496961
 40
0.3725326822170104
 40
0.4377332507368575
 40
0.5057495167426334
 40
0.5440132631112727
 40
0.5883695992066328
 40
0.6403890193945111
 40
0.6978974005877094
 40
0.7632716192950981
 40
0.8349786038393134
 40
0.9138736558434382
 40
1.0
 40
1.0
 40
1.0
 40
1.0
 10
-50.3317663817664
 20
-1.140516940140623
 30
0.0
 10
-50.33305915464451
 20
-1.106863552793347
 30
0.0
 10
-50.33559856739882
 20
-1.040757709685555
 30
0.0
 10
-50.36079743106291
 20
-0.945588475170403
 30
0.0
 10
-50.400908578903
 20
-0.8575028372894844
 30
0.0
 10
-50.45588997639349
 20
-0.7768987887756963
 30
0.0
 10
-50.52513189849039
 20
-0.7062357155988727
 30
0.0
 10
-50.60459246711006
 20
-0.6439456538409026
 30
0.0
 10
-50.69598663311183
 20
-0.5946913338116673
 30
0.0
 10
-50.78061075331611
 20
-0.562203708751963
 30
0.0
 10
-50.85759892252346
 20
-0.5427660275347531
 30
0.0
 10
-50.92707831629598
 20
-0.5282812393942475
 30
0.0
 10
-51.00753587260333
 20
-0.518015454285774
 30
0.0
 10
-51.09903233250213
 20
-0.5071267618451418
 30
0.0
 10
-51.20133446840246
 20
-0.5000659959678075
 30
0.0
 10
-51.31499988813269
 20
-0.4949130442585526
 30
0.0
 10
-51.43970214545379
 20
-0.4928047185664999
 30
0.0
 10
-51.52663146252169
 20
-0.4921307239914839
 30
0.0
 10
-51.57200075676639
 20
-0.4917789593713922
 30
0.0
  0
LINE
  5
144
330
1F
100
AcDbEntity
  8
0
  6
Continuous
 62
     7
370
    25
100
AcDbLine
 10
-51.5720007568
 20
-0.4917789594
 30
0.0
 11
-51.95997151
 21
-0.4917789594
 31
0.0
  0
SPLINE
  5
145
330
1F
100
AcDbEntity
  8
0
  6
Continuous
 62
     7
370
    25
100
AcDbSpline
210
0.0
220
0.0
230
1.0
 70
     8
 71
     3
 72
    23
 73
    19
 74
     0
 42
0.000000001
 43
0.00000001
 40
0.0
 40
0.0
 40
0.0
 40
0.0
 40
0.0659391240576588
 40
0.1297911093795348
 40
0.1921752363053296
 40
0.2536170442157545
 40
0.3147191079962371
 40
0.3762822754113758
 40
0.438972992373913
 40
0.503174701838641
 40
0.5673294646239472
 40
0.6296509938060314
 40
0.6906498673030972
 40
0.7512376127977876
 40
0.8117541138236061
 40
0.8727877774488527
 40
0.9355396326682296
 40
1.0
 40
1.0
 40
1.0
 40
1.0
 10
-42.8420227920228
 20
-2.530851475397033
 30
0.0
 10
-42.84403164384555
 20
-2.45528608732488
 30
0.0
 10
-42.84798576229012
 20
-2.306547145327355
 30
0.0
 10
-42.87764582981693
 20
-2.087887990703601
 30
0.0
 10
-42.92743541310656
 20
-1.878374824147534
 30
0.0
 10
-42.99638223653677
 20
-1.677665488535489
 30
0.0
 10
-43.08442367904728
 20
-1.485563214221875
 30
0.0
 10
-43.19329585428812
 20
-1.302743546352874
 30
0.0
 10
-43.32261674327362
 20
-1.129383226847446
 30
0.0
 10
-43.46941003377417
 20
-0.9666636399875996
 30
0.0
 10
-43.62918550838034
 20
-0.817134762745327
 30
0.0
 10
-43.80072044496754
 20
-0.687370878906226
 30
0.0
 10
-43.97921510347459
 20
-0.5746101896419781
 30
0.0
 10
-44.1687650222503
 20
-0.4862780188730749
 30
0.0
 10
-44.36549216862684
 20
-0.4159039657997089
 30
0.0
 10
-44.57059698210185
 20
-0.3640795033019602
 30
0.0
 10
-44.78485630971745
 20
-0.3350973825014007
 30
0.0
 10
-44.93062136046149
 20
-0.3310229987470935
 30
0.0
 10
-45.00448272792023
 20
-0.3289584465508795
 30
0.0
  0
SPLINE
  5
146
330
1F
100
AcDbEntity
  8
0
  6
Continuous
 62
     7
370
    25
100
AcDbSpline
210
0.0
220
0.0
230
1.0
 70
     8
 71
     3
 72
    23
 73
    19
 74
     0
 42
0.000000001
 43
0.00000001
 40
0.0
 40
0.0
 40
0.0
 40
0.0
 40
0.0646087354707749
 40
0.1275117897236744
 40
0.1885213083986462
 40
0.2487081790893691
 40
0.3085982651789124
 40
0.3688122491095537
 40
0.4298875018150756
 40
0.4928024479242455
 40
0.5557433321027937
 40
0.6174852948395646
 40
0.6789689634380379
 40
0.7401976913545537
 40
0.8023601016976089
 40
0.866244776442732
 40
0.931706828395689
 40
1.0
 40
1.0
 40
1.0
 40
1.0
 10
-45.00448272792023
 20
-0.3289584465508795
 30
0.0
 10
-45.07878361757404
 20
-0.3309521062458242
 30
0.0
 10
-45.22542384120297
 20
-0.3348867926926337
 30
0.0
 10
-45.44051834371676
 20
-0.3648637816139471
 30
0.0
 10
-45.64701666227513
 20
-0.4127404402907452
 30
0.0
 10
-45.84377409494738
 20
-0.4820891953386594
 30
0.0
 10
-46.03164340560038
 20
-0.5703525597291785
 30
0.0
 10
-46.2109576283171
 20
-0.6772221305738395
 30
0.0
 10
-46.37923363180462
 20
-0.8063714297909272
 30
0.0
 10
-46.538715213921
 20
-0.9508670074013187
 30
0.0
 10
-46.68278058028555
 20
-1.111868287980702
 30
0.0
 10
-46.81006687629222
 20
-1.284408541264587
 30
0.0
 10
-46.91658500432592
 20
-1.468199627892538
 30
0.0
 10
-47.00579460383769
 20
-1.661534172103459
 30
0.0
 10
-47.07294966065646
 20
-1.866586169707109
 30
0.0
 10
-47.12078219414075
 20
-2.081749426153816
 30
0.0
 10
-47.15101056983294
 20
-2.307394678474571
 30
0.0
 10
-47.15482089414309
 20
-2.461216753248081
 30
0.0
 10
-47.1567663817664
 20
-2.539755722191905
 30
0.0
  0
SPLINE
  5
147
330
1F
100
AcDbEntity
  8
0
  6
Continuous
 62
     7
370
    25
100
AcDbSpline
210
0.0
220
0.0
230
1.0
 70
     8
 71
     3
 72
    15
 73
    11
 74
     0
 42
0.000000001
 43
0.00000001
 40
0.0
 40
0.0
 40
0.0
 40
0.0
 40
0.13480683277922
 40
0.2641990558543175
 40
0.3884618167279421
 40
0.5099420983643733
 40
0.6304096106127705
 40
0.7506710345119788
 40
0.8734547255294244
 40
1.0
 40
1.0
 40
1.0
 40
1.0
 10
-47.1567663817664
 20
-2.539755722191905
 30
0.0
 10
-47.15418696219889
 20
-2.62679456689375
 30
0.0
 10
-47.14913172723536
 20
-2.797376280882527
 30
0.0
 10
-47.11356247917831
 20
-3.046216289308561
 30
0.0
 10
-47.05270703640625
 20
-3.281220979921446
 30
0.0
 10
-46.96483296023898
 20
-3.501240979896098
 30
0.0
 10
-46.85584605175837
 20
-3.70871944656582
 30
0.0
 10
-46.72050160873155
 20
-3.901113436394153
 30
0.0
 10
-46.56099157044498
 20
-4.079574914704855
 30
0.0
 10
-46.43810632923992
 20
-4.183768159178242
 30
0.0
 10
-46.37573673433049
 20
-4.236650754243187
 30
0.0
  0
SPLINE
  5
148
330
1F
100
AcDbEntity
  8
0
  6
Continuous
 62
     7
370
    25
100
AcDbSpline
210
0.0
220
0.0
230
1.0
 70
     8
 71
     3
 72
    15
 73
    11
 74
     0
 42
0.000000001
 43
0.00000001
 40
0.0
 40
0.0
 40
0.0
 40
0.0
 40
0.1279910255623725
 40
0.2530983915017084
 40
0.3761840584327936
 40
0.4989363124701275
 40
0.6215258806257318
 40
0.7457068938016916
 40
0.8715753502968706
 40
1.0
 40
1.0
 40
1.0
 40
1.0
 10
-46.37573673433049
 20
-4.236650754243187
 30
0.0
 10
-46.32464412899649
 20
-4.275718384392366
 30
0.0
 10
-46.22361004343581
 20
-4.35297344432407
 30
0.0
 10
-46.06233764600422
 20
-4.451991652129156
 30
0.0
 10
-45.89625883266124
 20
-4.536860133868717
 30
0.0
 10
-45.72412033054709
 20
-4.605432863130251
 30
0.0
 10
-45.54628568732006
 20
-4.659371019342179
 30
0.0
 10
-45.36277928956155
 20
-4.69714302321413
 30
0.0
 10
-45.17386115031174
 20
-4.720848222215644
 30
0.0
 10
-45.04610585091213
 20
-4.7236814425536
 30
0.0
 10
-44.98158609330486
 20
-4.725112292704726
 30
0.0
  0
SPLINE
  5
149
330
1F
100
AcDbEntity
  8
0
  6
Continuous
 62
     7
370
    25
100
AcDbSpline
210
0.0
220
0.0
230
1.0
 70
     8
 71
     3
 72
    23
 73
    19
 74
     0
 42
0.000000001
 43
0.00000001
 40
0.0
 40
0.0
 40
0.0
 40
0.0
 40
0.0641474448766725
 40
0.1262121152536846
 40
0.1868412890216917
 40
0.2469358694509798
 40
0.3072563614860032
 40
0.3681505022006776
 40
0.4300707669516575
 40
0.4938754417369552
 40
0.5579806818508445
 40
0.6208695259285357
 40
0.6825247313751585
 40
0.7440356981057701
 40
0.8058886825781879
 40
0.8689681377436669
 40
0.9332474288479398
 40
0.9999999999999999
 40
0.9999999999999999
 40
0.9999999999999999
 40
0.9999999999999999
 10
-44.98158609330486
 20
-4.725112292704726
 30
0.0
 10
-44.90856280926963
 20
-4.723101728986228
 30
0.0
 10
-44.76488720132334
 20
-4.719145881637174
 30
0.0
 10
-44.55379679911358
 20
-4.68953792588839
 30
0.0
 10
-44.35156578246365
 20
-4.639430574760298
 30
0.0
 10
-44.15693868410161
 20
-4.570690171556143
 30
0.0
 10
-43.97047672157188
 20
-4.481318584274185
 30
0.0
 10
-43.7930911854309
 20
-4.37113425460261
 30
0.0
 10
-43.6244710704046
 20
-4.24149010423961
 30
0.0
 10
-43.46519266572709
 20
-4.095096983260261
 30
0.0
 10
-43.31960467457673
 20
-3.933461468888583
 30
0.0
 10
-43.1925839987539
 20
-3.760000903717699
 30
0.0
 10
-43.08267912652799
 20
-3.578537143115229
 30
0.0
 10
-42.99532464197372
 20
-3.386501842719766
 30
0.0
 10
-42.92551644060383
 20
-3.185707725888901
 30
0.0
 10
-42.87825959658538
 20
-2.975265518687803
 30
0.0
 10
-42.84777585966154
 20
-2.756042743817165
 30
0.0
 10
-42.84396446180075
 20
-2.606853898383471
 30
0.0
 10
-42.8420227920228
 20
-2.530851475397033
 30
0.0
  0
LINE
  5
14A
330
1F
100
AcDbEntity
  8
0
  6
Continuous
 62
     7
370
    25
100
AcDbLine
 10
-39.0653501157
 20
-0.4917789594
 30
0.0
 11
-39.4227920228
 21
-0.4917789594
 31
0.0
  0
LINE
  5
14B
330
1F
100
AcDbEntity
  8
0
  6
Continuous
 62
     7
370
    25
100
AcDbLine
 10
-39.4227920228
 20
-0.4917789594
 30
0.0
 11
-39.4227920228
 21
-1.8757533183
 31
0.0
  0
LINE
  5
14C
330
1F
100
AcDbEntity
  8
0
  6
Continuous
 62
     7
370
    25
100
AcDbLine
 10
-39.4227920228
 20
-1.8757533183
 30
0.0
 11
-39.1200476318
 21
-1.8757533183
 31
0.0
  0
SPLINE
  5
14D
330
1F
100
AcDbEntity
  8
0
  6
Continuous
 62
     7
370
    25
100
AcDbSpline
210
0.0
220
0.0
230
1.0
 70
     8
 71
     3
 72
    19
 73
    15
 74
     0
 42
0.000000001
 43
0.00000001
 40
0.0
 40
0.0
 40
0.0
 40
0.0
 40
0.0887762289654536
 40
0.1713771372145571
 40
0.24811381136685
 40
0.3211611878976199
 40
0.3880331325497776
 40
0.4520913744364369
 40
0.5122677074822272
 40
0.5688662368266967
 40
0.676936000292984
 40
0.7810117272007118
 40
0.8869176462132636
 40
0.9999999999999999
 40
0.9999999999999999
 40
0.9999999999999999
 40
0.9999999999999999
 10
-39.12004763176638
 20
-1.875753318345751
 30
0.0
 10
-39.07890194899659
 20
-1.875394512422593
 30
0.0
 10
-38.99947269857678
 20
-1.874701859303137
 30
0.0
 10
-38.88474557146252
 20
-1.865780727641905
 30
0.0
 10
-38.7780678710164
 20
-1.850560722881742
 30
0.0
 10
-38.67984420273552
 20
-1.829324987605857
 30
0.0
 10
-38.58915957747554
 20
-1.802358700012878
 30
0.0
 10
-38.50659331474652
 20
-1.769912448536227
 30
0.0
 10
-38.43250844347563
 20
-1.730324495023023
 30
0.0
 10
-38.34643895793997
 20
-1.671356491289604
 30
0.0
 10
-38.25545730496266
 20
-1.584582433747246
 30
0.0
 10
-38.17536717908337
 20
-1.459219328795144
 30
0.0
 10
-38.12819462974574
 20
-1.315052235078231
 30
0.0
 10
-38.12294088003852
 20
-1.213374437592289
 30
0.0
 10
-38.12022792022792
 20
-1.160869504243188
 30
0.0
  0
SPLINE
  5
14E
330
1F
100
AcDbEntity
  8
0
  6
Continuous
 62
     7
370
    25
100
AcDbSpline
210
0.0
220
0.0
230
1.0
 70
     8
 71
     3
 72
    19
 73
    15
 74
     0
 42
0.000000001
 43
0.00000001
 40
0.0
 40
0.0
 40
0.0
 40
0.0
 40
0.1123318680474749
 40
0.2171891524479064
 40
0.3207763822148916
 40
0.4294461252394082
 40
0.4868895248481718
 40
0.5473481609653045
 40
0.6105516098532305
 40
0.6785404198027569
 40
0.7510057638701867
 40
0.8285633445446936
 40
0.911493803570977
 40
1.0
 40
1.0
 40
1.0
 40
1.0
 10
-38.12022792022791
 20
-1.160869504243187
 30
0.0
 10
-38.12239878473311
 20
-1.111689910543389
 30
0.0
 10
-38.12659606401063
 20
-1.016603142566938
 30
0.0
 10
-38.1740927561169
 20
-0.8830928518704484
 30
0.0
 10
-38.24786450891571
 20
-0.7647754098737002
 30
0.0
 10
-38.3349624320109
 20
-0.6837967967260851
 30
0.0
 10
-38.41698205116036
 20
-0.6284907913736437
 30
0.0
 10
-38.48721228226685
 20
-0.5920741420172889
 30
0.0
 10
-38.56429523450915
 20
-0.5594743297127003
 30
0.0
 10
-38.64972315127027
 20
-0.5345477187039189
 30
0.0
 10
-38.74300819229414
 20
-0.5158436674712217
 30
0.0
 10
-38.84369722007693
 20
-0.5021077818171075
 30
0.0
 10
-38.95196395793526
 20
-0.4927585536748263
 30
0.0
 10
-39.02674402412361
 20
-0.4921124948589503
 30
0.0
 10
-39.06535011574073
 20
-0.4917789593713922
 30
0.0
  0
LINE
  5
14F
330
1F
100
AcDbEntity
  8
0
  6
Continuous
 62
     7
370
    25
100
AcDbLine
 10
-39.1505764779
 20
-2.9340866517
 30
0.0
 11
-39.4227920228
 21
-2.9340866517
 31
0.0
  0
LINE
  5
150
330
1F
100
AcDbEntity
  8
0
  6
Continuous
 62
     7
370
    25
100
AcDbLine
 10
-39.4227920228
 20
-2.9340866517
 30
0.0
 11
-39.4227920228
 21
-4.5622917799
 31
0.0
  0
LINE
  5
151
330
1F
100
AcDbEntity
  8
0
  6
Continuous
 62
     7
370
    25
100
AcDbLine
 10
-39.4227920228
 20
-4.5622917799
 30
0.0
 11
-39.0946069266
 21
-4.5622917799
 31
0.0
  0
SPLINE
  5
152
330
1F
100
AcDbEntity
  8
0
  6
Continuous
 62
     7
370
    25
100
AcDbSpline
210
0.0
220
0.0
230
1.0
 70
     8
 71
     3
 72
    23
 73
    19
 74
     0
 42
0.000000001
 43
0.00000001
 40
0.0
 40
0.0
 40
0.0
 40
0.0
 40
0.1095674252695391
 40
0.2106570473717297
 40
0.3020024587326182
 40
0.3851432164195886
 40
0.4590126129308705
 40
0.5247192090460466
 40
0.5832266479388907
 40
0.6342083193258289
 40
0.6811857277932549
 40
0.7262751343643189
 40
0.7701133344783265
 40
0.814080007014105
 40
0.857994168078313
 40
0.9033387195085175
 40
0.9505447828389806
 40
0.9999999999999999
 40
0.9999999999999999
 40
0.9999999999999999
 40
0.9999999999999999
 10
-39.09460692663816
 20
-4.562291779884212
 30
0.0
 10
-39.02972431526957
 20
-4.561921107938104
 30
0.0
 10
-38.90497939858421
 20
-4.561208444867683
 30
0.0
 10
-38.72628252646617
 20
-4.552597780184015
 30
0.0
 10
-38.56380239546911
 20
-4.537078574276612
 30
0.0
 10
-38.41796951664137
 20
-4.517704095837284
 30
0.0
 10
-38.28856051932175
 20
-4.491454707958169
 30
0.0
 10
-38.17601283689647
 20
-4.458081975307425
 30
0.0
 10
-38.07878302379699
 20
-4.421366156666543
 30
0.0
 10
-37.99745407479503
 20
-4.376017761285535
 30
0.0
 10
-37.9310129825603
 20
-4.323243474671293
 30
0.0
 10
-37.87105686289144
 20
-4.269306886039991
 30
0.0
 10
-37.82217237889361
 20
-4.20708593530506
 30
0.0
 10
-37.78349406290059
 20
-4.139251595435663
 30
0.0
 10
-37.75001804871397
 20
-4.067488920397791
 30
0.0
 10
-37.72982768091781
 20
-3.988995603558028
 30
0.0
 10
-37.71445544348904
 20
-3.906097998588947
 30
0.0
 10
-37.71360946811335
 20
-3.848759517954858
 30
0.0
 10
-37.71317663817663
 20
-3.819423190140623
 30
0.0
  0
SPLINE
  5
153
330
1F
100
AcDbEntity
  8
0
  6
Continuous
 62
     7
370
    25
100
AcDbSpline
210
0.0
220
0.0
230
1.0
 70
     8
 71
     3
 72
    23
 73
    19
 74
     0
 42
0.000000001
 43
0.00000001
 40
0.0
 40
0.0
 40
0.0
 40
0.0
 40
0.0528263492812289
 40
0.1028915173965565
 40
0.1516981461048768
 40
0.199577588123529
 40
0.2472235843729633
 40
0.2957231203836675
 40
0.3462538147999401
 40
0.3985071702228973
 40
0.4542901722394613
 40
0.5140415865121286
 40
0.579092718607408
 40
0.6500371484472953
 40
0.7274510007645236
 40
0.8114520065892948
 40
0.9024758798237992
 40
1.0
 40
1.0
 40
1.0
 40
1.0
 10
-37.71317663817663
 20
-3.819423190140623
 30
0.0
 10
-37.71413115240462
 20
-3.785876637865871
 30
0.0
 10
-37.71599028934351
 20
-3.72053697851147
 30
0.0
 10
-37.73117388328542
 20
-3.625036093164741
 30
0.0
 10
-37.75876743331479
 20
-3.535879680198829
 30
0.0
 10
-37.79352285589701
 20
-3.450787889861966
 30
0.0
 10
-37.84188687300696
 20
-3.372807304644439
 30
0.0
 10
-37.89936585452706
 20
-3.299239312203971
 30
0.0
 10
-37.9688151377504
 20
-3.232575151830912
 30
0.0
 10
-38.04691490828545
 20
-3.168782725945648
 30
0.0
 10
-38.1380105582776
 20
-3.112929000963353
 30
0.0
 10
-38.2421448271773
 20
-3.064466001206206
 30
0.0
 10
-38.35988342901051
 20
-3.023991488521543
 30
0.0
 10
-38.49159107156033
 20
-2.991765654972103
 30
0.0
 10
-38.63669035874129
 20
-2.96441603547079
 30
0.0
 10
-38.79624035594647
 20
-2.948085293466348
 30
0.0
 10
-38.9689122753888
 20
-2.935939402929961
 30
0.0
 10
-39.08864579443888
 20
-2.93471826841859
 30
0.0
 10
-39.15057647792022
 20
-2.934086651679085
 30
0.0
  0
SPLINE
  5
154
330
1F
100
AcDbEntity
  8
0
  6
Continuous
 62
     7
370
    25
100
AcDbSpline
210
0.0
220
0.0
230
1.0
 70
     8
 71
     3
 72
    23
 73
    19
 74
     0
 42
0.000000001
 43
0.00000001
 40
0.0
 40
0.0
 40
0.0
 40
0.0
 40
0.0659391240576588
 40
0.1297911093795348
 40
0.1921752363053293
 40
0.2536170442157549
 40
0.3147191079962366
 40
0.3762822754113759
 40
0.438972992373913
 40
0.503174701838641
 40
0.5673294646239472
 40
0.6296509938060314
 40
0.6906498673030972
 40
0.7512376127977876
 40
0.8117541138236061
 40
0.8727877774488526
 40
0.9355396326682296
 40
1.0
 40
1.0
 40
1.0
 40
1.0
 10
-30.30484330484332
 20
-2.530851475397033
 30
0.0
 10
-30.30685215666607
 20
-2.45528608732488
 30
0.0
 10
-30.31080627511064
 20
-2.306547145327356
 30
0.0
 10
-30.34046634263743
 20
-2.0878879907036
 30
0.0
 10
-30.39025592592709
 20
-1.878374824147533
 30
0.0
 10
-30.45920274935729
 20
-1.677665488535492
 30
0.0
 10
-30.5472441918678
 20
-1.485563214221873
 30
0.0
 10
-30.65611636710862
 20
-1.302743546352875
 30
0.0
 10
-30.78543725609412
 20
-1.129383226847445
 30
0.0
 10
-30.93223054659468
 20
-0.9666636399875994
 30
0.0
 10
-31.09200602120086
 20
-0.817134762745327
 30
0.0
 10
-31.26354095778806
 20
-0.687370878906226
 30
0.0
 10
-31.44203561629511
 20
-0.5746101896419781
 30
0.0
 10
-31.6315855350708
 20
-0.4862780188730749
 30
0.0
 10
-31.82831268144735
 20
-0.415903965799709
 30
0.0
 10
-32.03341749492236
 20
-0.3640795033019601
 30
0.0
 10
-32.24767682253798
 20
-0.3350973825014007
 30
0.0
 10
-32.39344187328201
 20
-0.3310229987470935
 30
0.0
 10
-32.46730324074075
 20
-0.3289584465508795
 30
0.0
  0
SPLINE
  5
155
330
1F
100
AcDbEntity
  8
0
  6
Continuous
 62
     7
370
    25
100
AcDbSpline
210
0.0
220
0.0
230
1.0
 70
     8
 71
     3
 72
    23
 73
    19
 74
     0
 42
0.000000001
 43
0.00000001
 40
0.0
 40
0.0
 40
0.0
 40
0.0
 40
0.0646087354707749
 40
0.1275117897236744
 40
0.1885213083986462
 40
0.2487081790893691
 40
0.3085982651789124
 40
0.3688122491095537
 40
0.4298875018150756
 40
0.4928024479242455
 40
0.5557433321027937
 40
0.6174852948395646
 40
0.6789689634380379
 40
0.7401976913545537
 40
0.8023601016976089
 40
0.866244776442732
 40
0.931706828395689
 40
1.0
 40
1.0
 40
1.0
 40
1.0
 10
-32.46730324074075
 20
-0.3289584465508795
 30
0.0
 10
-32.54160413039455
 20
-0.3309521062458242
 30
0.0
 10
-32.6882443540235
 20
-0.3348867926926337
 30
0.0
 10
-32.90333885653727
 20
-0.3648637816139471
 30
0.0
 10
-33.10983717509565
 20
-0.4127404402907452
 30
0.0
 10
-33.30659460776789
 20
-0.4820891953386594
 30
0.0
 10
-33.49446391842089
 20
-0.5703525597291785
 30
0.0
 10
-33.6737781411376
 20
-0.6772221305738395
 30
0.0
 10
-33.84205414462514
 20
-0.8063714297909272
 30
0.0
 10
-34.00153572674151
 20
-0.9508670074013187
 30
0.0
 10
-34.14560109310605
 20
-1.111868287980702
 30
0.0
 10
-34.27288738911274
 20
-1.284408541264587
 30
0.0
 10
-34.37940551714644
 20
-1.468199627892538
 30
0.0
 10
-34.46861511665822
 20
-1.661534172103459
 30
0.0
 10
-34.53577017347696
 20
-1.866586169707109
 30
0.0
 10
-34.58360270696128
 20
-2.081749426153816
 30
0.0
 10
-34.61383108265344
 20
-2.307394678474571
 30
0.0
 10
-34.61764140696361
 20
-2.461216753248081
 30
0.0
 10
-34.6195868945869
 20
-2.539755722191905
 30
0.0
  0
SPLINE
  5
156
330
1F
100
AcDbEntity
  8
0
  6
Continuous
 62
     7
370
    25
100
AcDbSpline
210
0.0
220
0.0
230
1.0
 70
     8
 71
     3
 72
    15
 73
    11
 74
     0
 42
0.000000001
 43
0.00000001
 40
0.0
 40
0.0
 40
0.0
 40
0.0
 40
0.13480683277922
 40
0.2641990558543175
 40
0.3884618167279421
 40
0.5099420983643733
 40
0.6304096106127705
 40
0.7506710345119788
 40
0.8734547255294244
 40
1.0
 40
1.0
 40
1.0
 40
1.0
 10
-34.6195868945869
 20
-2.539755722191905
 30
0.0
 10
-34.6170074750194
 20
-2.62679456689375
 30
0.0
 10
-34.61195224005588
 20
-2.797376280882527
 30
0.0
 10
-34.57638299199883
 20
-3.046216289308561
 30
0.0
 10
-34.51552754922677
 20
-3.281220979921446
 30
0.0
 10
-34.42765347305949
 20
-3.501240979896098
 30
0.0
 10
-34.31866656457888
 20
-3.70871944656582
 30
0.0
 10
-34.18332212155207
 20
-3.901113436394153
 30
0.0
 10
-34.02381208326548
 20
-4.079574914704855
 30
0.0
 10
-33.90092684206044
 20
-4.183768159178242
 30
0.0
 10
-33.83855724715101
 20
-4.236650754243187
 30
0.0
  0
SPLINE
  5
157
330
1F
100
AcDbEntity
  8
0
  6
Continuous
 62
     7
370
    25
100
AcDbSpline
210
0.0
220
0.0
230
1.0
 70
     8
 71
     3
 72
    15
 73
    11
 74
     0
 42
0.000000001
 43
0.00000001
 40
0.0
 40
0.0
 40
0.0
 40
0.0
 40
0.1279910255623725
 40
0.2530983915017084
 40
0.3761840584327936
 40
0.4989363124701275
 40
0.6215258806257318
 40
0.7457068938016916
 40
0.8715753502968706
 40
1.0
 40
1.0
 40
1.0
 40
1.0
 10
-33.83855724715101
 20
-4.236650754243187
 30
0.0
 10
-33.787464641817
 20
-4.275718384392366
 30
0.0
 10
-33.68643055625632
 20
-4.35297344432407
 30
0.0
 10
-33.52515815882474
 20
-4.451991652129156
 30
0.0
 10
-33.35907934548174
 20
-4.536860133868717
 30
0.0
 10
-33.18694084336762
 20
-4.605432863130251
 30
0.0
 10
-33.00910620014056
 20
-4.659371019342179
 30
0.0
 10
-32.82559980238207
 20
-4.69714302321413
 30
0.0
 10
-32.63668166313226
 20
-4.720848222215644
 30
0.0
 10
-32.50892636373263
 20
-4.7236814425536
 30
0.0
 10
-32.44440660612537
 20
-4.725112292704726
 30
0.0
  0
SPLINE
  5
158
330
1F
100
AcDbEntity
  8
0
  6
Continuous
 62
     7
370
    25
100
AcDbSpline
210
0.0
220
0.0
230
1.0
 70
     8
 71
     3
 72
    23
 73
    19
 74
     0
 42
0.000000001
 43
0.00000001
 40
0.0
 40
0.0
 40
0.0
 40
0.0
 40
0.0641474448766725
 40
0.1262121152536846
 40
0.1868412890216917
 40
0.2469358694509798
 40
0.3072563614860032
 40
0.3681505022006776
 40
0.4300707669516575
 40
0.4938754417369552
 40
0.5579806818508452
 40
0.6208695259285357
 40
0.6825247313751585
 40
0.7440356981057701
 40
0.8058886825781879
 40
0.8689681377436669
 40
0.9332474288479398
 40
0.9999999999999999
 40
0.9999999999999999
 40
0.9999999999999999
 40
0.9999999999999999
 10
-32.44440660612537
 20
-4.725112292704726
 30
0.0
 10
-32.37138332209014
 20
-4.723101728986228
 30
0.0
 10
-32.22770771414385
 20
-4.719145881637174
 30
0.0
 10
-32.0166173119341
 20
-4.68953792588839
 30
0.0
 10
-31.81438629528417
 20
-4.639430574760298
 30
0.0
 10
-31.61975919692211
 20
-4.570690171556143
 30
0.0
 10
-31.4332972343924
 20
-4.481318584274185
 30
0.0
 10
-31.25591169825142
 20
-4.37113425460261
 30
0.0
 10
-31.0872915832251
 20
-4.24149010423961
 30
0.0
 10
-30.92801317854762
 20
-4.095096983260259
 30
0.0
 10
-30.78242518739724
 20
-3.933461468888588
 30
0.0
 10
-30.65540451157441
 20
-3.760000903717696
 30
0.0
 10
-30.5454996393485
 20
-3.578537143115229
 30
0.0
 10
-30.45814515479424
 20
-3.386501842719766
 30
0.0
 10
-30.38833695342433
 20
-3.185707725888901
 30
0.0
 10
-30.34108010940589
 20
-2.975265518687803
 30
0.0
 10
-30.31059637248205
 20
-2.756042743817165
 30
0.0
 10
-30.30678497462126
 20
-2.606853898383471
 30
0.0
 10
-30.30484330484332
 20
-2.530851475397033
 30
0.0
  0
LINE
  5
159
330
1F
100
AcDbEntity
  8
0
  6
Continuous
 62
     7
370
    25
100
AcDbLine
 10
-2.2183048433
 20
-0.4917789594
 30
0.0
 11
-2.2183048433
 21
-1.7943430619
 31
0.0
  0
LINE
  5
15A
330
1F
100
AcDbEntity
  8
0
  6
Continuous
 62
     7
370
    25
100
AcDbLine
 10
-2.2183048433
 20
-1.7943430619
 30
0.0
 11
-1.7743645388
 21
-1.7943430619
 31
0.0
  0
SPLINE
  5
15B
330
1F
100
AcDbEntity
  8
0
  6
Continuous
 62
     7
370
    25
100
AcDbSpline
210
0.0
220
0.0
230
1.0
 70
     8
 71
     3
 72
    23
 73
    19
 74
     0
 42
0.000000001
 43
0.00000001
 40
0.0
 40
0.0
 40
0.0
 40
0.0
 40
0.1055399964402573
 40
0.2020864154635873
 40
0.2906848989424216
 40
0.3705526096211911
 40
0.4426702615663765
 40
0.5076749275738734
 40
0.565573203481046
 40
0.6164546657486225
 40
0.6633313570051055
 40
0.7088620244966143
 40
0.753411800349628
 40
0.7985150107871086
 40
0.8450643214401184
 40
0.8938731190084056
 40
0.9447078060036515
 40
1.0
 40
1.0
 40
1.0
 40
1.0
 10
-1.774364538817686
 20
-1.794343061935494
 30
0.0
 10
-1.720089146336339
 20
-1.793731775986685
 30
0.0
 10
-1.616163432063234
 20
-1.792561294743698
 30
0.0
 10
-1.466704605210297
 20
-1.787132117564724
 30
0.0
 10
-1.330960346395416
 20
-1.774050483316139
 30
0.0
 10
-1.208347723961464
 20
-1.757522327350251
 30
0.0
 10
-1.098249762333166
 20
-1.738438184396142
 30
0.0
 10
-1.001648496486945
 20
-1.71108944886342
 30
0.0
 10
-0.9170554483579872
 20
-1.681784586425267
 30
0.0
 10
-0.8454730487340193
 20
-1.645366244151833
 30
0.0
 10
-0.7843146912794794
 20
-1.60395069017649
 30
0.0
 10
-0.7315083640355134
 20
-1.556901591326794
 30
0.0
 10
-0.6878299598997641
 20
-1.502448250285236
 30
0.0
 10
-0.6518804053915009
 20
-1.442070473964835
 30
0.0
 10
-0.6239155604649851
 20
-1.375234235799419
 30
0.0
 10
-0.6035033660330882
 20
-1.302673246242547
 30
0.0
 10
-0.5920959678817067
 20
-1.223560942286792
 30
0.0
 10
-0.5907835078676898
 20
-1.168962680380691
 30
0.0
 10
-0.590099715099737
 20
-1.140516940140623
 30
0.0
  0
SPLINE
  5
15C
330
1F
100
AcDbEntity
  8
0
  6
Continuous
 62
     7
370
    25
100
AcDbSpline
210
0.0
220
0.0
230
1.0
 70
     8
 71
     3
 72
    23
 73
    19
 74
     0
 42
0.000000001
 43
0.00000001
 40
0.0
 40
0.0
 40
0.0
 40
0.0
 40
0.0637689599577398
 40
0.1252623047603746
 40
0.1854135826663905
 40
0.2468067624960845
 40
0.309422388849697
 40
0.372532682217009
 40
0.4377332507368581
 40
0.5057495167426339
 40
0.5440132631112709
 40
0.5883695992066306
 40
0.640389019394512
 40
0.6978974005877081
 40
0.7632716192950983
 40
0.8349786038393131
 40
0.9138736558434377
 40
1.0
 40
1.0
 40
1.0
 40
1.0
 10
-0.590099715099737
 20
-1.140516940140623
 30
0.0
 10
-0.5913924879778579
 20
-1.106863552793347
 30
0.0
 10
-0.5939319007321578
 20
-1.040757709685555
 30
0.0
 10
-0.6191307643962267
 20
-0.9455884751704027
 30
0.0
 10
-0.659241912236341
 20
-0.8575028372894843
 30
0.0
 10
-0.7142233097268451
 20
-0.7768987887756971
 30
0.0
 10
-0.7834652318237219
 20
-0.706235715598874
 30
0.0
 10
-0.8629258004434146
 20
-0.6439456538409003
 30
0.0
 10
-0.9543199664451667
 20
-0.5946913338116683
 30
0.0
 10
-1.038944086649459
 20
-0.5622037087519639
 30
0.0
 10
-1.115932255856794
 20
-0.5427660275347527
 30
0.0
 10
-1.18541164962933
 20
-0.5282812393942471
 30
0.0
 10
-1.265869205936651
 20
-0.5180154542857747
 30
0.0
 10
-1.357365665835477
 20
-0.5071267618451414
 30
0.0
 10
-1.45966780173581
 20
-0.5000659959678079
 30
0.0
 10
-1.57333322146602
 20
-0.4949130442585521
 30
0.0
 10
-1.69803547878714
 20
-0.4928047185664999
 30
0.0
 10
-1.78496479585504
 20
-0.4921307239914839
 30
0.0
 10
-1.830334090099737
 20
-0.4917789593713922
 30
0.0
  0
LINE
  5
15D
330
1F
100
AcDbEntity
  8
0
  6
Continuous
 62
     7
370
    25
100
AcDbLine
 10
-1.8303340901
 20
-0.4917789594
 30
0.0
 11
-2.2183048433
 21
-0.4917789594
 31
0.0
  0
LINE
  5
15E
330
1F
100
AcDbEntity
  8
0
  6
Continuous
 62
     7
370
    25
100
AcDbLine
 10
10.6763165509
 20
-0.4917789594
 30
0.0
 11
10.3188746439
 21
-0.4917789594
 31
0.0
  0
LINE
  5
15F
330
1F
100
AcDbEntity
  8
0
  6
Continuous
 62
     7
370
    25
100
AcDbLine
 10
10.3188746439
 20
-0.4917789594
 30
0.0
 11
10.3188746439
 21
-1.8757533183
 31
0.0
  0
LINE
  5
160
330
1F
100
AcDbEntity
  8
0
  6
Continuous
 62
     7
370
    25
100
AcDbLine
 10
10.3188746439
 20
-1.8757533183
 30
0.0
 11
10.6216190349
 21
-1.8757533183
 31
0.0
  0
SPLINE
  5
161
330
1F
100
AcDbEntity
  8
0
  6
Continuous
 62
     7
370
    25
100
AcDbSpline
210
0.0
220
0.0
230
1.0
 70
     8
 71
     3
 72
    19
 73
    15
 74
     0
 42
0.000000001
 43
0.00000001
 40
0.0
 40
0.0
 40
0.0
 40
0.0
 40
0.0887762289654561
 40
0.1713771372145572
 40
0.2481138113668477
 40
0.32116118789762
 40
0.3880331325497764
 40
0.4520913744364382
 40
0.5122677074822273
 40
0.5688662368266958
 40
0.6769360002929841
 40
0.7810117272007104
 40
0.8869176462132635
 40
0.9999999999999999
 40
0.9999999999999999
 40
0.9999999999999999
 40
0.9999999999999999
 10
10.62161903490026
 20
-1.875753318345751
 30
0.0
 10
10.66276471767005
 20
-1.875394512422593
 30
0.0
 10
10.74219396808985
 20
-1.874701859303137
 30
0.0
 10
10.85692109520412
 20
-1.865780727641905
 30
0.0
 10
10.96359879565024
 20
-1.85056072288174
 30
0.0
 10
11.06182246393111
 20
-1.829324987605858
 30
0.0
 10
11.1525070891911
 20
-1.802358700012877
 30
0.0
 10
11.2350733519201
 20
-1.769912448536229
 30
0.0
 10
11.309158223191
 20
-1.730324495023022
 30
0.0
 10
11.39522770872666
 20
-1.671356491289604
 30
0.0
 10
11.48620936170397
 20
-1.584582433747248
 30
0.0
 10
11.56629948758326
 20
-1.459219328795142
 30
0.0
 10
11.61347203692091
 20
-1.315052235078231
 30
0.0
 10
11.61872578662812
 20
-1.213374437592289
 30
0.0
 10
11.62143874643873
 20
-1.160869504243187
 30
0.0
  0
SPLINE
  5
162
330
1F
100
AcDbEntity
  8
0
  6
Continuous
 62
     7
370
    25
100
AcDbSpline
210
0.0
220
0.0
230
1.0
 70
     8
 71
     3
 72
    19
 73
    15
 74
     0
 42
0.000000001
 43
0.00000001
 40
0.0
 40
0.0
 40
0.0
 40
0.0
 40
0.1123318680474755
 40
0.2171891524479073
 40
0.3207763822148927
 40
0.4294461252394116
 40
0.4868895248481732
 40
0.5473481609653084
 40
0.6105516098532298
 40
0.6785404198027601
 40
0.75100576387019
 40
0.8285633445446972
 40
0.9114938035709808
 40
1.0
 40
1.0
 40
1.0
 40
1.0
 10
11.62143874643873
 20
-1.160869504243187
 30
0.0
 10
11.61926788193353
 20
-1.111689910543389
 30
0.0
 10
11.61507060265599
 20
-1.016603142566937
 30
0.0
 10
11.56757391054974
 20
-0.8830928518704494
 30
0.0
 10
11.49380215775092
 20
-0.7647754098736982
 30
0.0
 10
11.40670423465574
 20
-0.683796796726088
 30
0.0
 10
11.32468461550628
 20
-0.6284907913736414
 30
0.0
 10
11.25445438439979
 20
-0.592074142017292
 30
0.0
 10
11.17737143215749
 20
-0.5594743297126974
 30
0.0
 10
11.09194351539637
 20
-0.5345477187039199
 30
0.0
 10
10.9986584743725
 20
-0.5158436674712213
 30
0.0
 10
10.89796944658969
 20
-0.5021077818171076
 30
0.0
 10
10.78970270873138
 20
-0.4927585536748262
 30
0.0
 10
10.71492264254303
 20
-0.4921124948589503
 30
0.0
 10
10.6763165509259
 20
-0.4917789593713922
 30
0.0
  0
SPLINE
  5
163
330
1F
100
AcDbEntity
  8
0
  6
Continuous
 62
     7
370
    25
100
AcDbSpline
210
0.0
220
0.0
230
1.0
 70
     8
 71
     3
 72
    23
 73
    19
 74
     0
 42
0.000000001
 43
0.00000001
 40
0.0
 40
0.0
 40
0.0
 40
0.0
 40
0.0528263492812287
 40
0.1028915173965564
 40
0.1516981461048768
 40
0.1995775881235293
 40
0.2472235843729621
 40
0.2957231203836679
 40
0.3462538147999404
 40
0.3985071702228968
 40
0.4542901722394622
 40
0.5140415865121278
 40
0.5790927186074062
 40
0.6500371484472951
 40
0.7274510007645224
 40
0.8114520065892916
 40
0.9024758798237957
 40
1.0
 40
1.0
 40
1.0
 40
1.0
 10
12.02849002849001
 20
-3.819423190140623
 30
0.0
 10
12.02753551426202
 20
-3.785876637865871
 30
0.0
 10
12.02567637732314
 20
-3.720536978511468
 30
0.0
 10
12.01049278338121
 20
-3.625036093164743
 30
0.0
 10
11.98289923335186
 20
-3.535879680198827
 30
0.0
 10
11.94814381076962
 20
-3.450787889861969
 30
0.0
 10
11.89977979365969
 20
-3.372807304644436
 30
0.0
 10
11.84230081213958
 20
-3.299239312203973
 30
0.0
 10
11.77285152891622
 20
-3.232575151830912
 30
0.0
 10
11.69475175838118
 20
-3.168782725945647
 30
0.0
 10
11.60365610838905
 20
-3.112929000963354
 30
0.0
 10
11.49952183948933
 20
-3.064466001206207
 30
0.0
 10
11.38178323765611
 20
-3.023991488521542
 30
0.0
 10
11.25007559510632
 20
-2.991765654972103
 30
0.0
 10
11.10497630792535
 20
-2.964416035470789
 30
0.0
 10
10.94542631072018
 20
-2.948085293466347
 30
0.0
 10
10.77275439127784
 20
-2.935939402929962
 30
0.0
 10
10.65302087222775
 20
-2.93471826841859
 30
0.0
 10
10.59109018874642
 20
-2.934086651679085
 30
0.0
  0
LINE
  5
164
330
1F
100
AcDbEntity
  8
0
  6
Continuous
 62
     7
370
    25
100
AcDbLine
 10
10.5910901887
 20
-2.9340866517
 30
0.0
 11
10.3188746439
 21
-2.9340866517
 31
0.0
  0
LINE
  5
165
330
1F
100
AcDbEntity
  8
0
  6
Continuous
 62
     7
370
    25
100
AcDbLine
 10
10.3188746439
 20
-2.9340866517
 30
0.0
 11
10.3188746439
 21
-4.5622917799
 31
0.0
  0
LINE
  5
166
330
1F
100
AcDbEntity
  8
0
  6
Continuous
 62
     7
370
    25
100
AcDbLine
 10
10.3188746439
 20
-4.5622917799
 30
0.0
 11
10.64705974
 21
-4.5622917799
 31
0.0
  0
SPLINE
  5
167
330
1F
100
AcDbEntity
  8
0
  6
Continuous
 62
     7
370
    25
100
AcDbSpline
210
0.0
220
0.0
230
1.0
 70
     8
 71
     3
 72
    23
 73
    19
 74
     0
 42
0.000000001
 43
0.00000001
 40
0.0
 40
0.0
 40
0.0
 40
0.0
 40
0.109567425269541
 40
0.2106570473717296
 40
0.302002458732617
 40
0.3851432164195903
 40
0.4590126129308721
 40
0.5247192090460492
 40
0.5832266479388922
 40
0.6342083193258288
 40
0.6811857277932564
 40
0.7262751343643188
 40
0.7701133344783264
 40
0.8140800070141053
 40
0.8579941680783133
 40
0.9033387195085172
 40
0.9505447828389806
 40
1.0
 40
1.0
 40
1.0
 40
1.0
 10
10.64705974002847
 20
-4.562291779884213
 30
0.0
 10
10.71194235139707
 20
-4.561921107938105
 30
0.0
 10
10.83668726808241
 20
-4.561208444867684
 30
0.0
 10
11.01538414020048
 20
-4.552597780184015
 30
0.0
 10
11.17786427119754
 20
-4.537078574276611
 30
0.0
 10
11.32369715002527
 20
-4.517704095837285
 30
0.0
 10
11.45310614734489
 20
-4.491454707958168
 30
0.0
 10
11.56565382977016
 20
-4.458081975307426
 30
0.0
 10
11.66288364286964
 20
-4.421366156666544
 30
0.0
 10
11.74421259187161
 20
-4.376017761285533
 30
0.0
 10
11.81065368410633
 20
-4.323243474671296
 30
0.0
 10
11.8706098037752
 20
-4.269306886039991
 30
0.0
 10
11.91949428777303
 20
-4.207085935305058
 30
0.0
 10
11.95817260376606
 20
-4.139251595435665
 30
0.0
 10
11.99164861795267
 20
-4.06748892039779
 30
0.0
 10
12.01183898574881
 20
-3.988995603558028
 30
0.0
 10
12.0272112231776
 20
-3.906097998588947
 30
0.0
 10
12.0280571985533
 20
-3.848759517954857
 30
0.0
 10
12.02849002849001
 20
-3.819423190140623
 30
0.0
  0
SPLINE
  5
168
330
1F
100
AcDbEntity
  8
0
  6
Continuous
 62
     7
370
    25
100
AcDbSpline
210
0.0
220
0.0
230
1.0
 70
     8
 71
     3
 72
    23
 73
    19
 74
     0
 42
0.000000001
 43
0.00000001
 40
0.0
 40
0.0
 40
0.0
 40
0.0
 40
0.0528263492812287
 40
0.1028915173965564
 40
0.1516981461048768
 40
0.1995775881235293
 40
0.2472235843729621
 40
0.2957231203836679
 40
0.3462538147999404
 40
0.3985071702228968
 40
0.4542901722394622
 40
0.5140415865121278
 40
0.5790927186074062
 40
0.6500371484472951
 40
0.7274510007645224
 40
0.8114520065892916
 40
0.9024758798237957
 40
1.0
 40
1.0
 40
1.0
 40
1.0
 10
12.02849002849001
 20
-3.819423190140623
 30
0.0
 10
12.02753551426202
 20
-3.785876637865871
 30
0.0
 10
12.02567637732314
 20
-3.720536978511468
 30
0.0
 10
12.01049278338121
 20
-3.625036093164743
 30
0.0
 10
11.98289923335186
 20
-3.535879680198827
 30
0.0
 10
11.94814381076962
 20
-3.450787889861969
 30
0.0
 10
11.89977979365969
 20
-3.372807304644436
 30
0.0
 10
11.84230081213958
 20
-3.299239312203973
 30
0.0
 10
11.77285152891622
 20
-3.232575151830912
 30
0.0
 10
11.69475175838118
 20
-3.168782725945647
 30
0.0
 10
11.60365610838905
 20
-3.112929000963354
 30
0.0
 10
11.49952183948933
 20
-3.064466001206207
 30
0.0
 10
11.38178323765611
 20
-3.023991488521542
 30
0.0
 10
11.25007559510632
 20
-2.991765654972103
 30
0.0
 10
11.10497630792535
 20
-2.964416035470789
 30
0.0
 10
10.94542631072018
 20
-2.948085293466347
 30
0.0
 10
10.77275439127784
 20
-2.935939402929962
 30
0.0
 10
10.65302087222775
 20
-2.93471826841859
 30
0.0
 10
10.59109018874642
 20
-2.934086651679085
 30
0.0
  0
SPLINE
  5
169
330
1F
100
AcDbEntity
  8
0
  6
Continuous
 62
     7
370
    25
100
AcDbSpline
210
0.0
220
0.0
230
1.0
 70
     8
 71
     3
 72
    23
 73
    19
 74
     0
 42
0.000000001
 43
0.00000001
 40
0.0
 40
0.0
 40
0.0
 40
0.0
 40
0.0659391240576588
 40
0.1297911093795347
 40
0.1921752363053294
 40
0.2536170442157549
 40
0.3147191079962367
 40
0.3762822754113756
 40
0.4389729923739129
 40
0.5031747018386412
 40
0.5673294646239473
 40
0.6296509938060323
 40
0.6906498673030977
 40
0.7512376127977867
 40
0.8117541138236055
 40
0.8727877774488528
 40
0.9355396326682296
 40
1.0
 40
1.0
 40
1.0
 40
1.0
 10
6.89964387464384
 20
-2.530851475397033
 30
0.0
 10
6.897635022821081
 20
-2.45528608732488
 30
0.0
 10
6.893680904376517
 20
-2.306547145327356
 30
0.0
 10
6.864020836849718
 20
-2.0878879907036
 30
0.0
 10
6.81423125356008
 20
-1.878374824147533
 30
0.0
 10
6.74528443012986
 20
-1.677665488535493
 30
0.0
 10
6.65724298761936
 20
-1.485563214221873
 30
0.0
 10
6.548370812378546
 20
-1.302743546352874
 30
0.0
 10
6.419049923393032
 20
-1.129383226847445
 30
0.0
 10
6.272256632892475
 20
-0.9666636399876005
 30
0.0
 10
6.112481158286291
 20
-0.8171347627453256
 30
0.0
 10
5.940946221699089
 20
-0.6873708789062274
 30
0.0
 10
5.76245156319204
 20
-0.5746101896419791
 30
0.0
 10
5.572901644416353
 20
-0.4862780188730732
 30
0.0
 10
5.376174498039805
 20
-0.415903965799709
 30
0.0
 10
5.171069684564792
 20
-0.3640795033019603
 30
0.0
 10
4.956810356949175
 20
-0.3350973825014006
 30
0.0
 10
4.811045306205149
 20
-0.3310229987470935
 30
0.0
 10
4.737183938746404
 20
-0.3289584465508795
 30
0.0
  0
SPLINE
  5
16A
330
1F
100
AcDbEntity
  8
0
  6
Continuous
 62
     7
370
    25
100
AcDbSpline
210
0.0
220
0.0
230
1.0
 70
     8
 71
     3
 72
    23
 73
    19
 74
     0
 42
0.000000001
 43
0.00000001
 40
0.0
 40
0.0
 40
0.0
 40
0.0
 40
0.0646087354707739
 40
0.1275117897236747
 40
0.1885213083986467
 40
0.24870817908937
 40
0.3085982651789124
 40
0.3688122491095532
 40
0.4298875018150755
 40
0.4928024479242455
 40
0.5557433321027937
 40
0.617485294839564
 40
0.6789689634380379
 40
0.7401976913545538
 40
0.8023601016976086
 40
0.8662447764427321
 40
0.9317068283956891
 40
1.0
 40
1.0
 40
1.0
 40
1.0
 10
4.737183938746404
 20
-0.3289584465508795
 30
0.0
 10
4.662883049092607
 20
-0.3309521062458243
 30
0.0
 10
4.516242825463668
 20
-0.334886792692634
 30
0.0
 10
4.301148322949886
 20
-0.3648637816139467
 30
0.0
 10
4.094650004391486
 20
-0.4127404402907456
 30
0.0
 10
3.897892571719279
 20
-0.4820891953386583
 30
0.0
 10
3.71002326106625
 20
-0.5703525597291789
 30
0.0
 10
3.530709038349556
 20
-0.6772221305738405
 30
0.0
 10
3.362433034862014
 20
-0.8063714297909272
 30
0.0
 10
3.202951452745653
 20
-0.9508670074013184
 30
0.0
 10
3.058886086381095
 20
-1.111868287980701
 30
0.0
 10
2.931599790374429
 20
-1.284408541264588
 30
0.0
 10
2.825081662340717
 20
-1.468199627892538
 30
0.0
 10
2.73587206282893
 20
-1.661534172103458
 30
0.0
 10
2.668717006010206
 20
-1.866586169707111
 30
0.0
 10
2.620884472525864
 20
-2.081749426153815
 30
0.0
 10
2.590656096833713
 20
-2.30739467847457
 30
0.0
 10
2.586845772523549
 20
-2.461216753248081
 30
0.0
 10
2.584900284900251
 20
-2.539755722191905
 30
0.0
  0
SPLINE
  5
16B
330
1F
100
AcDbEntity
  8
0
  6
Continuous
 62
     7
370
    25
100
AcDbSpline
210
0.0
220
0.0
230
1.0
 70
     8
 71
     3
 72
    15
 73
    11
 74
     0
 42
0.000000001
 43
0.00000001
 40
0.0
 40
0.0
 40
0.0
 40
0.0
 40
0.13480683277922
 40
0.2641990558543176
 40
0.388461816727942
 40
0.5099420983643725
 40
0.6304096106127709
 40
0.7506710345119789
 40
0.8734547255294232
 40
0.9999999999999999
 40
0.9999999999999999
 40
0.9999999999999999
 40
0.9999999999999999
 10
2.584900284900251
 20
-2.539755722191905
 30
0.0
 10
2.587479704467754
 20
-2.62679456689375
 30
0.0
 10
2.592534939431269
 20
-2.797376280882528
 30
0.0
 10
2.628104187488332
 20
-3.046216289308561
 30
0.0
 10
2.68895963026039
 20
-3.281220979921444
 30
0.0
 10
2.776833706427666
 20
-3.501240979896101
 30
0.0
 10
2.885820614908277
 20
-3.708719446565818
 30
0.0
 10
3.021165057935085
 20
-3.901113436394152
 30
0.0
 10
3.180675096221659
 20
-4.079574914704859
 30
0.0
 10
3.303560337426712
 20
-4.183768159178243
 30
0.0
 10
3.365929932336148
 20
-4.236650754243187
 30
0.0
  0
SPLINE
  5
16C
330
1F
100
AcDbEntity
  8
0
  6
Continuous
 62
     7
370
    25
100
AcDbSpline
210
0.0
220
0.0
230
1.0
 70
     8
 71
     3
 72
    15
 73
    11
 74
     0
 42
0.000000001
 43
0.00000001
 40
0.0
 40
0.0
 40
0.0
 40
0.0
 40
0.1279910255623739
 40
0.2530983915017062
 40
0.3761840584327907
 40
0.4989363124701255
 40
0.6215258806257296
 40
0.7457068938016915
 40
0.8715753502968714
 40
1.0
 40
1.0
 40
1.0
 40
1.0
 10
3.365929932336148
 20
-4.236650754243187
 30
0.0
 10
3.417022537670153
 20
-4.275718384392366
 30
0.0
 10
3.518056623230832
 20
-4.352973444324066
 30
0.0
 10
3.679329020662418
 20
-4.451991652129159
 30
0.0
 10
3.845407834005418
 20
-4.536860133868715
 30
0.0
 10
4.01754633611953
 20
-4.605432863130251
 30
0.0
 10
4.195380979346571
 20
-4.65937101934218
 30
0.0
 10
4.378887377105091
 20
-4.697143023214126
 30
0.0
 10
4.567805516354891
 20
-4.720848222215645
 30
0.0
 10
4.695560815754518
 20
-4.723681442553601
 30
0.0
 10
4.760080573361789
 20
-4.725112292704726
 30
0.0
  0
SPLINE
  5
16D
330
1F
100
AcDbEntity
  8
0
  6
Continuous
 62
     7
370
    25
100
AcDbSpline
210
0.0
220
0.0
230
1.0
 70
     8
 71
     3
 72
    23
 73
    19
 74
     0
 42
0.000000001
 43
0.00000001
 40
0.0
 40
0.0
 40
0.0
 40
0.0
 40
0.0641474448766717
 40
0.1262121152536834
 40
0.1868412890216906
 40
0.2469358694509787
 40
0.3072563614860034
 40
0.3681505022006762
 40
0.4300707669516566
 40
0.4938754417369545
 40
0.5579806818508447
 40
0.6208695259285352
 40
0.682524731375158
 40
0.74403569810577
 40
0.8058886825781879
 40
0.8689681377436669
 40
0.9332474288479397
 40
1.0
 40
1.0
 40
1.0
 40
1.0
 10
4.760080573361789
 20
-4.725112292704726
 30
0.0
 10
4.833103857397014
 20
-4.723101728986226
 30
0.0
 10
4.9767794653433
 20
-4.719145881637173
 30
0.0
 10
5.18786986755306
 20
-4.689537925888392
 30
0.0
 10
5.390100884202995
 20
-4.639430574760297
 30
0.0
 10
5.584727982565035
 20
-4.570690171556141
 30
0.0
 10
5.77118994509475
 20
-4.48131858427419
 30
0.0
 10
5.948575481235743
 20
-4.371134254602606
 30
0.0
 10
6.11719559626204
 20
-4.241490104239611
 30
0.0
 10
6.276474000939536
 20
-4.095096983260258
 30
0.0
 10
6.422061992089918
 20
-3.933461468888588
 30
0.0
 10
6.549082667912738
 20
-3.760000903717695
 30
0.0
 10
6.658987540138657
 20
-3.57853714311523
 30
0.0
 10
6.746342024692911
 20
-3.386501842719766
 30
0.0
 10
6.816150226062841
 20
-3.185707725888899
 30
0.0
 10
6.863407070081254
 20
-2.975265518687803
 30
0.0
 10
6.893890807005106
 20
-2.756042743817163
 30
0.0
 10
6.897702204865894
 20
-2.606853898383471
 30
0.0
 10
6.89964387464384
 20
-2.530851475397033
 30
0.0
  0
SPLINE
  5
16E
330
1F
100
AcDbEntity
  8
0
  6
Continuous
 62
     7
370
    25
100
AcDbSpline
210
0.0
220
0.0
230
1.0
 70
     8
 71
     3
 72
    23
 73
    19
 74
     0
 42
0.000000001
 43
0.00000001
 40
0.0
 40
0.0
 40
0.0
 40
0.0
 40
0.0659391240576589
 40
0.1297911093795348
 40
0.1921752363053296
 40
0.2536170442157549
 40
0.3147191079962371
 40
0.3762822754113759
 40
0.438972992373913
 40
0.5031747018386418
 40
0.567329464623948
 40
0.6296509938060322
 40
0.690649867303098
 40
0.7512376127977864
 40
0.8117541138236058
 40
0.8727877774488535
 40
0.9355396326682305
 40
1.0
 40
1.0
 40
1.0
 40
1.0
 10
19.43682336182333
 20
-2.530851475397033
 30
0.0
 10
19.43481451000057
 20
-2.455286087324881
 30
0.0
 10
19.430860391556
 20
-2.306547145327356
 30
0.0
 10
19.40120032402921
 20
-2.0878879907036
 30
0.0
 10
19.35141074073957
 20
-1.878374824147534
 30
0.0
 10
19.28246391730935
 20
-1.67766548853549
 30
0.0
 10
19.19442247479885
 20
-1.485563214221875
 30
0.0
 10
19.08555029955804
 20
-1.302743546352875
 30
0.0
 10
18.95622941057252
 20
-1.129383226847444
 30
0.0
 10
18.80943612007197
 20
-0.9666636399876009
 30
0.0
 10
18.64966064546578
 20
-0.8171347627453269
 30
0.0
 10
18.47812570887858
 20
-0.6873708789062257
 30
0.0
 10
18.29963105037153
 20
-0.5746101896419801
 30
0.0
 10
18.11008113159584
 20
-0.4862780188730723
 30
0.0
 10
17.9133539852193
 20
-0.4159039657997092
 30
0.0
 10
17.70824917174429
 20
-0.3640795033019604
 30
0.0
 10
17.49398984412866
 20
-0.3350973825014009
 30
0.0
 10
17.34822479338464
 20
-0.3310229987470935
 30
0.0
 10
17.27436342592589
 20
-0.3289584465508795
 30
0.0
  0
SPLINE
  5
16F
330
1F
100
AcDbEntity
  8
0
  6
Continuous
 62
     7
370
    25
100
AcDbSpline
210
0.0
220
0.0
230
1.0
 70
     8
 71
     3
 72
    23
 73
    19
 74
     0
 42
0.000000001
 43
0.00000001
 40
0.0
 40
0.0
 40
0.0
 40
0.0
 40
0.0646087354707748
 40
0.1275117897236754
 40
0.1885213083986471
 40
0.24870817908937
 40
0.3085982651789123
 40
0.3688122491095536
 40
0.4298875018150754
 40
0.492802447924246
 40
0.5557433321027938
 40
0.6174852948395644
 40
0.6789689634380379
 40
0.7401976913545538
 40
0.8023601016976086
 40
0.8662447764427321
 40
0.9317068283956891
 40
1.0
 40
1.0
 40
1.0
 40
1.0
 10
17.27436342592589
 20
-0.3289584465508795
 30
0.0
 10
17.2000625362721
 20
-0.3309521062458243
 30
0.0
 10
17.05342231264316
 20
-0.3348867926926339
 30
0.0
 10
16.83832781012937
 20
-0.3648637816139466
 30
0.0
 10
16.63182949157098
 20
-0.4127404402907455
 30
0.0
 10
16.43507205889877
 20
-0.4820891953386584
 30
0.0
 10
16.24720274824574
 20
-0.5703525597291798
 30
0.0
 10
16.06788852552905
 20
-0.6772221305738394
 30
0.0
 10
15.8996125220415
 20
-0.8063714297909281
 30
0.0
 10
15.74013093992515
 20
-0.9508670074013169
 30
0.0
 10
15.59606557356059
 20
-1.111868287980702
 30
0.0
 10
15.46877927755392
 20
-1.284408541264587
 30
0.0
 10
15.36226114952021
 20
-1.468199627892538
 30
0.0
 10
15.27305155000842
 20
-1.661534172103458
 30
0.0
 10
15.2058964931897
 20
-1.866586169707111
 30
0.0
 10
15.15806395970535
 20
-2.081749426153815
 30
0.0
 10
15.1278355840132
 20
-2.30739467847457
 30
0.0
 10
15.12402525970304
 20
-2.461216753248081
 30
0.0
 10
15.12207977207974
 20
-2.539755722191905
 30
0.0
  0
SPLINE
  5
170
330
1F
100
AcDbEntity
  8
0
  6
Continuous
 62
     7
370
    25
100
AcDbSpline
210
0.0
220
0.0
230
1.0
 70
     8
 71
     3
 72
    15
 73
    11
 74
     0
 42
0.000000001
 43
0.00000001
 40
0.0
 40
0.0
 40
0.0
 40
0.0
 40
0.13480683277922
 40
0.2641990558543174
 40
0.388461816727942
 40
0.5099420983643722
 40
0.630409610612771
 40
0.7506710345119787
 40
0.873454725529423
 40
1.0
 40
1.0
 40
1.0
 40
1.0
 10
15.12207977207974
 20
-2.539755722191905
 30
0.0
 10
15.12465919164725
 20
-2.62679456689375
 30
0.0
 10
15.12971442661076
 20
-2.797376280882527
 30
0.0
 10
15.16528367466782
 20
-3.046216289308562
 30
0.0
 10
15.22613911743988
 20
-3.281220979921445
 30
0.0
 10
15.31401319360715
 20
-3.5012409798961
 30
0.0
 10
15.42300010208777
 20
-3.708719446565819
 30
0.0
 10
15.55834454511457
 20
-3.901113436394152
 30
0.0
 10
15.71785458340115
 20
-4.079574914704859
 30
0.0
 10
15.84073982460621
 20
-4.183768159178243
 30
0.0
 10
15.90310941951564
 20
-4.236650754243187
 30
0.0
  0
SPLINE
  5
171
330
1F
100
AcDbEntity
  8
0
  6
Continuous
 62
     7
370
    25
100
AcDbSpline
210
0.0
220
0.0
230
1.0
 70
     8
 71
     3
 72
    15
 73
    11
 74
     0
 42
0.000000001
 43
0.00000001
 40
0.0
 40
0.0
 40
0.0
 40
0.0
 40
0.1279910255623743
 40
0.2530983915017063
 40
0.3761840584327915
 40
0.4989363124701253
 40
0.6215258806257296
 40
0.7457068938016916
 40
0.8715753502968706
 40
0.9999999999999999
 40
0.9999999999999999
 40
0.9999999999999999
 40
0.9999999999999999
 10
15.90310941951564
 20
-4.236650754243187
 30
0.0
 10
15.95420202484965
 20
-4.275718384392366
 30
0.0
 10
16.05523611041033
 20
-4.352973444324066
 30
0.0
 10
16.21650850784191
 20
-4.45199165212916
 30
0.0
 10
16.38258732118491
 20
-4.536860133868714
 30
0.0
 10
16.55472582329902
 20
-4.605432863130252
 30
0.0
 10
16.73256046652605
 20
-4.659371019342179
 30
0.0
 10
16.91606686428458
 20
-4.697143023214128
 30
0.0
 10
17.10498500353438
 20
-4.720848222215644
 30
0.0
 10
17.232740302934
 20
-4.7236814425536
 30
0.0
 10
17.29726006054128
 20
-4.725112292704726
 30
0.0
  0
SPLINE
  5
172
330
1F
100
AcDbEntity
  8
0
  6
Continuous
 62
     7
370
    25
100
AcDbSpline
210
0.0
220
0.0
230
1.0
 70
     8
 71
     3
 72
    23
 73
    19
 74
     0
 42
0.000000001
 43
0.00000001
 40
0.0
 40
0.0
 40
0.0
 40
0.0
 40
0.0641474448766715
 40
0.1262121152536836
 40
0.1868412890216908
 40
0.246935869450979
 40
0.3072563614860041
 40
0.3681505022006769
 40
0.4300707669516568
 40
0.4938754417369545
 40
0.5579806818508452
 40
0.6208695259285352
 40
0.6825247313751579
 40
0.74403569810577
 40
0.8058886825781879
 40
0.8689681377436669
 40
0.9332474288479397
 40
1.0
 40
1.0
 40
1.0
 40
1.0
 10
17.29726006054128
 20
-4.725112292704726
 30
0.0
 10
17.37028334457651
 20
-4.723101728986227
 30
0.0
 10
17.51395895252278
 20
-4.719145881637173
 30
0.0
 10
17.72504935473255
 20
-4.689537925888393
 30
0.0
 10
17.92728037138249
 20
-4.639430574760297
 30
0.0
 10
18.12190746974452
 20
-4.570690171556141
 30
0.0
 10
18.30836943227424
 20
-4.481318584274191
 30
0.0
 10
18.48575496841523
 20
-4.371134254602605
 30
0.0
 10
18.65437508344153
 20
-4.24149010423961
 30
0.0
 10
18.81365348811902
 20
-4.095096983260258
 30
0.0
 10
18.95924147926942
 20
-3.93346146888859
 30
0.0
 10
19.08626215509222
 20
-3.760000903717694
 30
0.0
 10
19.19616702731815
 20
-3.57853714311523
 30
0.0
 10
19.28352151187241
 20
-3.386501842719767
 30
0.0
 10
19.35332971324233
 20
-3.185707725888898
 30
0.0
 10
19.40058655726074
 20
-2.975265518687803
 30
0.0
 10
19.4310702941846
 20
-2.756042743817163
 30
0.0
 10
19.43488169204539
 20
-2.606853898383471
 30
0.0
 10
19.43682336182333
 20
-2.530851475397033
 30
0.0
  0
SPLINE
  5
173
330
1F
100
AcDbEntity
  8
0
  6
Continuous
 62
     7
370
    25
100
AcDbSpline
210
0.0
220
0.0
230
1.0
 70
     8
 71
     3
 72
    23
 73
    19
 74
     0
 42
0.000000001
 43
0.00000001
 40
0.0
 40
0.0
 40
0.0
 40
0.0
 40
0.1121147956622138
 40
0.215801842688234
 40
0.3102026923156554
 40
0.3959929252987145
 40
0.4734102307422359
 40
0.5427784203605528
 40
0.6045480222829339
 40
0.6593572656120957
 40
0.7087643617117442
 40
0.7553555059484829
 40
0.7986869938006729
 40
0.8400168391480737
 40
0.8802034470065474
 40
0.919733348245834
 40
0.9590486059010178
 40
0.9999999999999999
 40
0.9999999999999999
 40
0.9999999999999999
 40
0.9999999999999999
 10
35.39323361823359
 20
-2.529579440140623
 30
0.0
 10
35.39281479813007
 20
-2.429490664807989
 30
0.0
 10
35.39200864092702
 20
-2.236836858308918
 30
0.0
 10
35.37721799062416
 20
-1.960259655777726
 30
0.0
 10
35.35662087994494
 20
-1.707652283329779
 30
0.0
 10
35.326493253057
 20
-1.479578710540346
 30
0.0
 10
35.28772858510731
 20
-1.275485274538242
 30
0.0
 10
35.23995098554362
 20
-1.095385317217592
 30
0.0
 10
35.18362474974046
 20
-0.9389238961861724
 30
0.0
 10
35.11682854670936
 20
-0.8062570249989354
 30
0.0
 10
35.04284760162486
 20
-0.6935083833584799
 30
0.0
 10
34.96431457006641
 20
-0.5967787944186821
 30
0.0
 10
34.88089738236184
 20
-0.5141935118139835
 30
0.0
 10
34.79273553911753
 20
-0.445441752656793
 30
0.0
 10
34.69778850379645
 20
-0.3929102522102369
 30
0.0
 10
34.59786988841356
 20
-0.3558186671481486
 30
0.0
 10
34.49277485227417
 20
-0.3333795020907107
 30
0.0
 10
34.42108515927332
 20
-0.3304520227463286
 30
0.0
 10
34.38450965990025
 20
-0.3289584465508795
 30
0.0
  0
SPLINE
  5
174
330
1F
100
AcDbEntity
  8
0
  6
Continuous
 62
     7
370
    25
100
AcDbSpline
210
0.0
220
0.0
230
1.0
 70
     8
 71
     3
 72
    27
 73
    23
 74
     0
 42
0.000000001
 43
0.00000001
 40
0.0
 40
0.0
 40
0.0
 40
0.0
 40
0.053833700895915
 40
0.1055426304091396
 40
0.1580541720958386
 40
0.2119873357804063
 40
0.2402068903290462
 40
0.269793510359545
 40
0.3013430987966771
 40
0.3346080613711939
 40
0.3702844416648604
 40
0.4080888380149469
 40
0.4486813458099825
 40
0.4920692965602027
 40
0.5386641566662658
 40
0.5903710538753828
 40
0.6463877841547202
 40
0.7071953757631242
 40
0.7729467746818401
 40
0.8436426012467373
 40
0.919308357057143
 40
1.0
 40
1.0
 40
1.0
 40
1.0
 10
34.38450965990025
 20
-0.3289584465508795
 30
0.0
 10
34.33463704091394
 20
-0.331322309536774
 30
0.0
 10
34.23686023371681
 20
-0.3359567358033329
 30
0.0
 10
34.09498142780748
 20
-0.3752964762825438
 30
0.0
 10
33.96119857229425
 20
-0.4360588265747894
 30
0.0
 10
33.8594335272933
 20
-0.5091768149153196
 30
0.0
 10
33.78326340322765
 20
-0.5792691751759764
 30
0.0
 10
33.73004279135756
 20
-0.642700481710361
 30
0.0
 10
33.6787198993347
 20
-0.7134852482552
 30
0.0
 10
33.63338893657441
 20
-0.7948176274136928
 30
0.0
 10
33.59058467469407
 20
-0.8837752506359962
 30
0.0
 10
33.54875200861063
 20
-0.9807619322877603
 30
0.0
 10
33.51446020710667
 20
-1.088159875035789
 30
0.0
 10
33.48076942124718
 20
-1.204140078133773
 30
0.0
 10
33.45125314922289
 20
-1.331909086057084
 30
0.0
 10
33.42652498403893
 20
-1.472511269477236
 30
0.0
 10
33.40443254206983
 20
-1.626860977311209
 30
0.0
 10
33.38902280032408
 20
-1.795059308818318
 30
0.0
 10
33.37465629660723
 20
-1.976930287085146
 30
0.0
 10
33.36435770640596
 20
-2.172879050056007
 30
0.0
 10
33.36005212434233
 20
-2.382852734955615
 30
0.0
 10
33.3586835108134
 20
-2.527458495698357
 30
0.0
 10
33.35797720797717
 20
-2.602085449756008
 30
0.0
  0
SPLINE
  5
175
330
1F
100
AcDbEntity
  8
0
  6
Continuous
 62
     7
370
    25
100
AcDbSpline
210
0.0
220
0.0
230
1.0
 70
     8
 71
     3
 72
    23
 73
    19
 74
     0
 42
0.000000001
 43
0.00000001
 40
0.0
 40
0.0
 40
0.0
 40
0.0
 40
0.1107342804863383
 40
0.2123411929916476
 40
0.3055021255634828
 40
0.3898348410859874
 40
0.4666904579461281
 40
0.5352618542933005
 40
0.5967629138889603
 40
0.6510657189836178
 40
0.701035551110217
 40
0.7478602709077565
 40
0.7918333971357289
 40
0.8342840069087849
 40
0.8753338897746165
 40
0.9160347492783126
 40
0.9576522807232365
 40
1.0
 40
1.0
 40
1.0
 40
1.0
 10
33.35797720797718
 20
-2.602085449756008
 30
0.0
 10
33.35913969674291
 20
-2.698768276398435
 30
0.0
 10
33.36136885514149
 20
-2.884164764829049
 30
0.0
 10
33.37304414500782
 20
-3.150771370686532
 30
0.0
 10
33.396446294588
 20
-3.393404849832151
 30
0.0
 10
33.42555384368183
 20
-3.613709619168101
 30
0.0
 10
33.46643658499305
 20
-3.810256943272983
 30
0.0
 10
33.51347482527741
 20
-3.984906342163316
 30
0.0
 10
33.57156286957019
 20
-4.135431460013659
 30
0.0
 10
33.63869479732437
 20
-4.264009228649679
 30
0.0
 10
33.71304643212815
 20
-4.373390069276107
 30
0.0
 10
33.79375840243937
 20
-4.466364276445337
 30
0.0
 10
33.87808275487674
 20
-4.546875553381384
 30
0.0
 10
33.96865152663052
 20
-4.612273871510843
 30
0.0
 10
34.06524864781257
 20
-4.66239212787699
 30
0.0
 10
34.16706771007598
 20
-4.698441570735994
 30
0.0
 10
34.2741734179946
 20
-4.720508936008411
 30
0.0
 10
34.34751830265221
 20
-4.723568970137702
 30
0.0
 10
34.38450965990025
 20
-4.725112292704726
 30
0.0
  0
SPLINE
  5
176
330
1F
100
AcDbEntity
  8
0
  6
Continuous
 62
     7
370
    25
100
AcDbSpline
210
0.0
220
0.0
230
1.0
 70
     8
 71
     3
 72
    15
 73
    11
 74
     0
 42
0.000000001
 43
0.00000001
 40
0.0
 40
0.0
 40
0.0
 40
0.0
 40
0.1240354330026148
 40
0.2428459548115268
 40
0.3603416824496117
 40
0.4790424316556544
 40
0.5993341100427864
 40
0.7254884757708222
 40
0.8585494285274601
 40
1.0
 40
1.0
 40
1.0
 40
1.0
 10
34.38450965990026
 20
-4.725112292704726
 30
0.0
 10
34.42023159100734
 20
-4.72405623673974
 30
0.0
 10
34.49017069032286
 20
-4.721988610474058
 30
0.0
 10
34.59215756053925
 20
-4.700764704782439
 30
0.0
 10
34.68860359183982
 20
-4.66625924387558
 30
0.0
 10
34.77921758356906
 20
-4.617448846949374
 30
0.0
 10
34.86432364941512
 20
-4.55537895906805
 30
0.0
 10
34.94350584333294
 20
-4.479776818838446
 30
0.0
 10
35.01616698909096
 20
-4.389888848980894
 30
0.0
 10
35.05849970246724
 20
-4.323178681343904
 30
0.0
 10
35.08031294515666
 20
-4.288804199756008
 30
0.0
  0
SPLINE
  5
177
330
1F
100
AcDbEntity
  8
0
  6
Continuous
 62
     7
370
    25
100
AcDbSpline
210
0.0
220
0.0
230
1.0
 70
     8
 71
     3
 72
    15
 73
    11
 74
     0
 42
0.000000001
 43
0.00000001
 40
0.0
 40
0.0
 40
0.0
 40
0.0
 40
0.0888707311225355
 40
0.1863547159714908
 40
0.294077654396175
 40
0.4122365279576108
 40
0.5417781444209642
 40
0.6827026066315656
 40
0.8350963526041701
 40
1.0
 40
1.0
 40
1.0
 40
1.0
 10
35.08031294515666
 20
-4.288804199756008
 30
0.0
 10
35.10599436468117
 20
-4.241832569284492
 30
0.0
 10
35.15984621872562
 20
-4.143336869466655
 30
0.0
 10
35.22216367721642
 20
-3.977129048609805
 30
0.0
 10
35.2746190404734
 20
-3.789674097042915
 30
0.0
 10
35.31976660458438
 20
-3.580388637157638
 30
0.0
 10
35.35064478436098
 20
-3.348447221283519
 30
0.0
 10
35.37723703511872
 20
-3.095320610006956
 30
0.0
 10
35.39006313845235
 20
-2.819734160139008
 30
0.0
 10
35.39214937403725
 20
-2.628806873497079
 30
0.0
 10
35.39323361823359
 20
-2.529579440140623
 30
0.0
  0
ENDSEC
  0
SECTION
  2
OBJECTS
  0
DICTIONARY
  5
C
330
0
100
AcDbDictionary
281
     1
  3
ACAD_GROUP
350
D
  3
ACAD_LAYOUT
350
1A
  3
ACAD_MLINESTYLE
350
17
  3
ACAD_PLOTSETTINGS
350
19
  3
ACAD_PLOTSTYLENAME
350
E
  3
ACAD_SCALELIST
350
47
  0
DICTIONARY
  5
D
102
{ACAD_REACTORS
330
C
102
}
330
C
100
AcDbDictionary
281
     1
  0
DICTIONARY
  5
1A
102
{ACAD_REACTORS
330
C
102
}
330
C
100
AcDbDictionary
281
     1
  3
Layout1
350
1E
  3
Layout2
350
26
  3
Model
350
22
  0
DICTIONARY
  5
17
102
{ACAD_REACTORS
330
C
102
}
330
C
100
AcDbDictionary
281
     1
  3
Standard
350
18
  0
DICTIONARY
  5
19
102
{ACAD_REACTORS
330
C
102
}
330
C
100
AcDbDictionary
281
     1
  0
ACDBDICTIONARYWDFLT
  5
E
102
{ACAD_REACTORS
330
C
102
}
330
C
100
AcDbDictionary
281
     1
  3
Normal
350
F
100
AcDbDictionaryWithDefault
340
F
  0
DICTIONARY
  5
47
102
{ACAD_REACTORS
330
C
102
}
330
C
100
AcDbDictionary
281
     1
  3
A0
350
48
  3
A1
350
49
  3
A2
350
4A
  3
A3
350
4B
  3
A4
350
4C
  3
A5
350
4D
  3
A6
350
4E
  3
A7
350
4F
  3
A8
350
50
  3
A9
350
51
  3
B0
350
52
  3
B1
350
53
  3
B2
350
54
  3
B3
350
55
  3
B4
350
56
  3
B5
350
57
  3
B6
350
58
  3
B7
350
59
  3
B8
350
5A
  3
B9
350
5B
  3
C0
350
5C
  3
C1
350
5D
  3
C2
350
5E
  3
C3
350
5F
  3
C4
350
60
  3
C5
350
61
  3
C6
350
62
  3
C7
350
63
  3
C8
350
64
  3
C9
350
65
  3
D0
350
66
  3
D1
350
67
  3
D2
350
68
  0
LAYOUT
  5
1E
102
{ACAD_REACTORS
330
1A
102
}
330
1A
100
AcDbPlotSettings
  1

  2
none_device
  4

  6

 40
0.0
 41
0.0
 42
0.0
 43
0.0
 44
0.0
 45
0.0
 46
0.0
 47
0.0
 48
0.0
 49
0.0
140
0.0
141
0.0
142
1.0
143
1.0
 70
   688
 72
     1
 73
     0
 74
     5
  7

 75
    16
147
1.0
148
0.0
149
0.0
100
AcDbLayout
  1
Layout1
 70
     1
 71
     1
 10
0.0
 20
0.0
 11
420.0
 21
297.0
 12
0.0
 22
0.0
 32
0.0
 14
1.0000000000E+20
 24
1.0000000000E+20
 34
1.0000000000E+20
 15
-1.0000000000E+20
 25
-1.0000000000E+20
 35
-1.0000000000E+20
146
0.0
 13
0.0
 23
0.0
 33
0.0
 16
1.0
 26
0.0
 36
0.0
 17
0.0
 27
1.0
 37
0.0
 76
     0
330
1B
  0
LAYOUT
  5
26
102
{ACAD_REACTORS
330
1A
102
}
330
1A
100
AcDbPlotSettings
  1

  2
none_device
  4

  6

 40
0.0
 41
0.0
 42
0.0
 43
0.0
 44
0.0
 45
0.0
 46
0.0
 47
0.0
 48
0.0
 49
0.0
140
0.0
141
0.0
142
1.0
143
1.0
 70
   688
 72
     1
 73
     0
 74
     5
  7

 75
    16
147
1.0
148
0.0
149
0.0
100
AcDbLayout
  1
Layout2
 70
     1
 71
     2
 10
0.0
 20
0.0
 11
0.0
 21
0.0
 12
0.0
 22
0.0
 32
0.0
 14
0.0
 24
0.0
 34
0.0
 15
0.0
 25
0.0
 35
0.0
146
0.0
 13
0.0
 23
0.0
 33
0.0
 16
1.0
 26
0.0
 36
0.0
 17
0.0
 27
1.0
 37
0.0
 76
     0
330
23
  0
LAYOUT
  5
22
102
{ACAD_REACTORS
330
1A
102
}
330
1A
100
AcDbPlotSettings
  1

  2
none_device
  4
ANSI_A_(11.00_x_8.50_Inches)
  6

 40
6.35
 41
19.05
 42
6.35000508
 43
19.05000254
 44
279.4
 45
215.9
 46
149.1479630049
 47
88.7399258133
 48
0.0
 49
0.0
140
0.0
141
0.0
142
0.0680625
143
1.0
 70
  1696
 72
     0
 73
     0
 74
     0
  7

 75
     0
147
0.0179189148
148
-1300.4909072572
149
0.0
100
AcDbLayout
  1
Model
 70
     1
 71
     0
 10
0.0
 20
0.0
 11
420.0
 21
297.0
 12
0.0
 22
0.0
 32
0.0
 14
-89.1381766382
 24
-17.4074074074
 34
0.0
 15
70.8618233618
 25
17.5925925926
 35
0.0
146
0.0
 13
0.0
 23
0.0
 33
0.0
 16
1.0
 26
0.0
 36
0.0
 17
0.0
 27
1.0
 37
0.0
 76
     0
330
1F
331
29
  0
MLINESTYLE
  5
18
102
{ACAD_REACTORS
330
17
102
}
330
17
100
AcDbMlineStyle
  2
Standard
 70
     0
  3

 62
   256
 51
90.0
 52
90.0
 71
     2
 49
0.5
 62
   256
  6
BYLAYER
 49
-0.5
 62
   256
  6
BYLAYER
  0
ACDBPLACEHOLDER
  5
F
102
{ACAD_REACTORS
330
E
102
}
330
E
  0
SCALE
  5
48
102
{ACAD_REACTORS
330
47
102
}
330
47
100
AcDbScale
 70
     0
300
1:1
140
1.0
141
1.0
290
     1
  0
SCALE
  5
49
102
{ACAD_REACTORS
330
47
102
}
330
47
100
AcDbScale
 70
     0
300
1:2
140
1.0
141
2.0
290
     0
  0
SCALE
  5
4A
102
{ACAD_REACTORS
330
47
102
}
330
47
100
AcDbScale
 70
     0
300
1:4
140
1.0
141
4.0
290
     0
  0
SCALE
  5
4B
102
{ACAD_REACTORS
330
47
102
}
330
47
100
AcDbScale
 70
     0
300
1:5
140
1.0
141
5.0
290
     0
  0
SCALE
  5
4C
102
{ACAD_REACTORS
330
47
102
}
330
47
100
AcDbScale
 70
     0
300
1:8
140
1.0
141
8.0
290
     0
  0
SCALE
  5
4D
102
{ACAD_REACTORS
330
47
102
}
330
47
100
AcDbScale
 70
     0
300
1:10
140
1.0
141
10.0
290
     0
  0
SCALE
  5
4E
102
{ACAD_REACTORS
330
47
102
}
330
47
100
AcDbScale
 70
     0
300
1:16
140
1.0
141
16.0
290
     0
  0
SCALE
  5
4F
102
{ACAD_REACTORS
330
47
102
}
330
47
100
AcDbScale
 70
     0
300
1:20
140
1.0
141
20.0
290
     0
  0
SCALE
  5
50
102
{ACAD_REACTORS
330
47
102
}
330
47
100
AcDbScale
 70
     0
300
1:30
140
1.0
141
30.0
290
     0
  0
SCALE
  5
51
102
{ACAD_REACTORS
330
47
102
}
330
47
100
AcDbScale
 70
     0
300
1:40
140
1.0
141
40.0
290
     0
  0
SCALE
  5
52
102
{ACAD_REACTORS
330
47
102
}
330
47
100
AcDbScale
 70
     0
300
1:50
140
1.0
141
50.0
290
     0
  0
SCALE
  5
53
102
{ACAD_REACTORS
330
47
102
}
330
47
100
AcDbScale
 70
     0
300
1:100
140
1.0
141
100.0
290
     0
  0
SCALE
  5
54
102
{ACAD_REACTORS
330
47
102
}
330
47
100
AcDbScale
 70
     0
300
2:1
140
2.0
141
1.0
290
     0
  0
SCALE
  5
55
102
{ACAD_REACTORS
330
47
102
}
330
47
100
AcDbScale
 70
     0
300
4:1
140
4.0
141
1.0
290
     0
  0
SCALE
  5
56
102
{ACAD_REACTORS
330
47
102
}
330
47
100
AcDbScale
 70
     0
300
8:1
140
8.0
141
1.0
290
     0
  0
SCALE
  5
57
102
{ACAD_REACTORS
330
47
102
}
330
47
100
AcDbScale
 70
     0
300
10:1
140
10.0
141
1.0
290
     0
  0
SCALE
  5
58
102
{ACAD_REACTORS
330
47
102
}
330
47
100
AcDbScale
 70
     0
300
100:1
140
100.0
141
1.0
290
     0
  0
SCALE
  5
59
102
{ACAD_REACTORS
330
47
102
}
330
47
100
AcDbScale
 70
     0
300
1/128" = 1'-0"
140
0.0078125
141
12.0
290
     0
  0
SCALE
  5
5A
102
{ACAD_REACTORS
330
47
102
}
330
47
100
AcDbScale
 70
     0
300
1/64" = 1'-0"
140
0.015625
141
12.0
290
     0
  0
SCALE
  5
5B
102
{ACAD_REACTORS
330
47
102
}
330
47
100
AcDbScale
 70
     0
300
1/32" = 1'-0"
140
0.03125
141
12.0
290
     0
  0
SCALE
  5
5C
102
{ACAD_REACTORS
330
47
102
}
330
47
100
AcDbScale
 70
     0
300
1/16" = 1'-0"
140
0.0625
141
12.0
290
     0
  0
SCALE
  5
5D
102
{ACAD_REACTORS
330
47
102
}
330
47
100
AcDbScale
 70
     0
300
3/32" = 1'-0"
140
0.09375
141
12.0
290
     0
  0
SCALE
  5
5E
102
{ACAD_REACTORS
330
47
102
}
330
47
100
AcDbScale
 70
     0
300
1/8" = 1'-0"
140
0.125
141
12.0
290
     0
  0
SCALE
  5
5F
102
{ACAD_REACTORS
330
47
102
}
330
47
100
AcDbScale
 70
     0
300
3/16" = 1'-0"
140
0.1875
141
12.0
290
     0
  0
SCALE
  5
60
102
{ACAD_REACTORS
330
47
102
}
330
47
100
AcDbScale
 70
     0
300
1/4" = 1'-0"
140
0.25
141
12.0
290
     0
  0
SCALE
  5
61
102
{ACAD_REACTORS
330
47
102
}
330
47
100
AcDbScale
 70
     0
300
3/8" = 1'-0"
140
0.375
141
12.0
290
     0
  0
SCALE
  5
62
102
{ACAD_REACTORS
330
47
102
}
330
47
100
AcDbScale
 70
     0
300
1/2" = 1'-0"
140
0.5
141
12.0
290
     0
  0
SCALE
  5
63
102
{ACAD_REACTORS
330
47
102
}
330
47
100
AcDbScale
 70
     0
300
3/4" = 1'-0"
140
0.75
141
12.0
290
     0
  0
SCALE
  5
64
102
{ACAD_REACTORS
330
47
102
}
330
47
100
AcDbScale
 70
     0
300
1" = 1'-0"
140
1.0
141
12.0
290
     0
  0
SCALE
  5
65
102
{ACAD_REACTORS
330
47
102
}
330
47
100
AcDbScale
 70
     0
300
1-1/2" = 1'-0"
140
1.5
141
12.0
290
     0
  0
SCALE
  5
66
102
{ACAD_REACTORS
330
47
102
}
330
47
100
AcDbScale
 70
     0
300
3" = 1'-0"
140
3.0
141
12.0
290
     0
  0
SCALE
  5
67
102
{ACAD_REACTORS
330
47
102
}
330
47
100
AcDbScale
 70
     0
300
6" = 1'-0"
140
6.0
141
12.0
290
     0
  0
SCALE
  5
68
102
{ACAD_REACTORS
330
47
102
}
330
47
100
AcDbScale
 70
     0
300
1'-0" = 1'-0"
140
12.0
141
12.0
290
     0
  0
ENDSEC
  0
EOF
